<?xml version="1.0" encoding="UTF-8"?>
<svg xmlns="http://www.w3.org/2000/svg" width="800.000" height="600.000" viewBox="0.0 0.0 800.000 600.000" version="1.1">
  <title>Produce by Acme CAD Converter</title>
  <desc>Produce by Acme CAD Converter</desc>
<path d="M3.18 400.08L37.65 403.59M37.65 403.59L72.16 406.71M72.16 406.71L106.71 409.43M106.71 409.43L141.29 411.76M141.29 411.76L175.89 413.7M175.89 413.7L210.51 415.25M210.51 415.25L245.14 416.4M245.14 416.4L279.79 417.16M279.79 417.16L314.44 417.52M314.44 417.52L349.09 417.5M349.09 417.5L383.74 417.08M383.74 417.08L418.39 416.26M418.39 416.26L453.02 415.05M453.02 415.05L487.64 413.45M487.64 413.45L522.23 411.46M522.23 411.46L556.81 409.07M556.81 409.07L591.35 406.29M591.35 406.29L625.86 403.12M625.86 403.12L660.33 399.55M660.33 399.55L694.75 395.6M694.75 395.6L729.13 391.25M729.13 391.25L763.46 386.52M763.46 386.52L797.74 381.39"
fill="none" stroke="RGB(2,158,33)" stroke-width="10"/>
<path d="M2.26 198.36L25.21 204.17M25.21 204.17L48.24 209.61M48.24 209.61L71.36 214.67M71.36 214.67L94.56 219.35M94.56 219.35L117.84 223.66M117.84 223.66L141.18 227.58M141.18 227.58L164.58 231.12M164.58 231.12L188.04 234.28M188.04 234.28L211.54 237.05M211.54 237.05L235.09 239.44M235.09 239.44L258.68 241.44M258.68 241.44L282.29 243.06M282.29 243.06L305.93 244.3M305.93 244.3L329.58 245.14M329.58 245.14L353.24 245.6M353.24 245.6L376.91 245.68M376.91 245.68L400.58 245.37M400.58 245.37L424.24 244.67M424.24 244.67L447.88 243.58M447.88 243.58L471.5 242.11M471.5 242.11L495.1 240.25M495.1 240.25L518.66 238.01M518.66 238.01L542.18 235.38M542.18 235.38L565.66 232.37M565.66 232.37L589.08 228.97M589.08 228.97L612.45 225.2M612.45 225.2L635.75 221.04M635.75 221.04L658.98 216.5M658.98 216.5L682.13 211.58M682.13 211.58L705.2 206.29M705.2 206.29L728.18 200.62M728.18 200.62L751.06 194.57M751.06 194.57L773.84 188.15M773.84 188.15L796.52 181.37"
fill="none" stroke="RGB(2,158,33)" stroke-width="10"/>
<path d="M2.26 198.36L31.51 202.76M31.51 202.76L60.82 206.79M60.82 206.79L90.17 210.42M90.17 210.42L119.57 213.67M119.57 213.67L149.01 216.54M149.01 216.54L178.48 219.01M178.48 219.01L207.99 221.1M207.99 221.1L237.52 222.8M237.52 222.8L267.07 224.11M267.07 224.11L296.63 225.04M296.63 225.04L326.2 225.57M326.2 225.57L355.78 225.72M355.78 225.72L385.36 225.47M385.36 225.47L414.93 224.84M414.93 224.84L444.49 223.82M444.49 223.82L474.04 222.41M474.04 222.41L503.56 220.61M503.56 220.61L533.06 218.42M533.06 218.42L562.52 215.85M562.52 215.85L591.95 212.89M591.95 212.89L621.34 209.54M621.34 209.54L650.68 205.8M650.68 205.8L679.97 201.68M679.97 201.68L709.21 197.18M709.21 197.18L738.38 192.29M738.38 192.29L767.48 187.02M767.48 187.02L796.52 181.37"
fill="none" stroke="RGB(2,158,33)" stroke-width="10"/>
<path d="M171.95 218.94L239.08 417.23"
fill="none" stroke="black" stroke-width="2"/>
<path d="M28.01 205.04L83.3 409.48"
fill="none" stroke="black" stroke-width="2"/>
<path d="M284.16 223.89L270.8 417.93"
fill="none" stroke="black" stroke-width="2"/>
<path d="M117.12 213.01L96.69 408.77"
fill="none" stroke="black" stroke-width="2"/>
<path d="M344 226.26L406.84 415.82"
fill="none" stroke="black" stroke-width="2"/>
<path d="M200.93 235.99L260.93 415.11"
fill="none" stroke="black" stroke-width="2"/>
<path d="M447.23 223.71L435.74 416.52"
fill="none" stroke="black" stroke-width="2"/>
<path d="M303.22 245.34L284.9 418.64"
fill="none" stroke="black" stroke-width="2"/>
<path d="M517.08 239.04L565.44 408.07"
fill="none" stroke="black" stroke-width="2"/>
<path d="M368.31 245.51L423.76 414.41"
fill="none" stroke="black" stroke-width="2"/>
<path d="M610.78 225.01L594.34 405.96"
fill="none" stroke="black" stroke-width="2"/>
<path d="M464.64 242.52L448.43 415.82"
fill="none" stroke="black" stroke-width="2"/>
<path d="M662.82 215.73L716.29 393.28"
fill="none" stroke="black" stroke-width="2"/>
<path d="M527.38 219.27L580.95 405.96"
fill="none" stroke="black" stroke-width="2"/>
<path d="M633.83 208.19L611.26 404.55"
fill="none" stroke="black" stroke-width="2"/>
<path d="M724.75 195.32L725.46 391.87"
fill="none" stroke="black" stroke-width="2"/>
</svg>
