<?xml version="1.0" encoding="UTF-8"?>
<svg xmlns="http://www.w3.org/2000/svg" width="800.000" height="600.000" viewBox="0.0 0.0 800.000 600.000" version="1.1">
  <title>Produce by Acme CAD Converter</title>
  <desc>Produce by Acme CAD Converter</desc>
<path d="M2.26 80.73L2.26 519.27"
fill="none" stroke="RGB(237,31,36)" stroke-width="0"/>
<path d="M2.82 156.6L52.46 159.45M52.46 159.45L102.11 161.93M102.11 161.93L151.77 164.03M151.77 164.03L201.46 165.75M201.46 165.75L251.15 167.1M251.15 167.1L300.85 168.07M300.85 168.07L350.56 168.67M350.56 168.67L400.27 168.89M400.27 168.89L449.98 168.73M449.98 168.73L499.69 168.2M499.69 168.2L549.4 167.29M549.4 167.29L599.09 166.01M599.09 166.01L648.78 164.34M648.78 164.34L698.45 162.31M698.45 162.31L748.1 159.89M748.1 159.89L797.74 157.1"
fill="none" stroke="RGB(2,158,33)" stroke-width="2"/>
<path d="M2.82 156.6L91.13 158.87M91.13 158.87L179.45 160.58M179.45 160.58L267.78 161.75M267.78 161.75L356.11 162.36M356.11 162.36L444.44 162.41M444.44 162.41L532.78 161.92M532.78 161.92L621.11 160.87M621.11 160.87L709.43 159.26M709.43 159.26L797.74 157.1"
fill="none" stroke="RGB(2,158,33)" stroke-width="2"/>
<path d="M132.48 318.18L292.27 318.18"
fill="none" stroke="black" stroke-width="2"/>
<path d="M317.36 318.18L474.83 318.18"
fill="none" stroke="black" stroke-width="2"/>
<path d="M499.93 318.18L660.97 318.18"
fill="none" stroke="black" stroke-width="2"/>
<path d="M132.36 304.53L131.5 304.87M131.5 304.87L130.71 305.54M130.71 305.54L130.03 306.51M130.03 306.51L129.49 307.74M129.49 307.74L129.12 309.15M129.12 309.15L128.93 310.68M128.93 310.68L128.95 312.24M128.95 312.24L129.16 313.75M129.16 313.75L129.56 315.14M129.56 315.14L130.12 316.34M130.12 316.34L130.82 317.27M130.82 317.27L131.62 317.9M131.62 317.9L132.48 318.18"
fill="none" stroke="black" stroke-width="2"/>
<path d="M133.03 318.18L133.89 317.9M133.89 317.9L134.69 317.27M134.69 317.27L135.39 316.34M135.39 316.34L135.95 315.14M135.95 315.14L136.35 313.75M136.35 313.75L136.56 312.24M136.56 312.24L136.58 310.68M136.58 310.68L136.39 309.15M136.39 309.15L136.02 307.74M136.02 307.74L135.48 306.51M135.48 306.51L134.79 305.54M134.79 305.54L134.01 304.87M134.01 304.87L133.15 304.53"
fill="none" stroke="black" stroke-width="2"/>
<path d="M132.36 304.53L292.4 304.53"
fill="none" stroke="black" stroke-width="2"/>
<path d="M317.23 304.53L474.95 304.53"
fill="none" stroke="black" stroke-width="2"/>
<path d="M499.81 304.53L661.09 304.53"
fill="none" stroke="black" stroke-width="2"/>
<path d="M660.97 318.18L661.83 317.9M661.83 317.9L662.63 317.27M662.63 317.27L663.33 316.34M663.33 316.34L663.89 315.14M663.89 315.14L664.29 313.75M664.29 313.75L664.5 312.24M664.5 312.24L664.52 310.68M664.52 310.68L664.33 309.15M664.33 309.15L663.96 307.74M663.96 307.74L663.42 306.51M663.42 306.51L662.74 305.54M662.74 305.54L661.95 304.87M661.95 304.87L661.09 304.53"
fill="none" stroke="black" stroke-width="2"/>
<path d="M292.27 318.18L293.13 317.9M293.13 317.9L293.93 317.27M293.93 317.27L294.64 316.34M294.64 316.34L295.2 315.14M295.2 315.14L295.6 313.75M295.6 313.75L295.81 312.24M295.81 312.24L295.82 310.68M295.82 310.68L295.64 309.15M295.64 309.15L295.27 307.74M295.27 307.74L294.72 306.51M294.72 306.51L294.04 305.54M294.04 305.54L293.25 304.87M293.25 304.87L292.4 304.53"
fill="none" stroke="black" stroke-width="2"/>
<path d="M317.9 318.18L318.76 317.9M318.76 317.9L319.56 317.27M319.56 317.27L320.26 316.34M320.26 316.34L320.83 315.14M320.83 315.14L321.23 313.75M321.23 313.75L321.44 312.24M321.44 312.24L321.45 310.68M321.45 310.68L321.27 309.15M321.27 309.15L320.9 307.74M320.9 307.74L320.35 306.51M320.35 306.51L319.67 305.54M319.67 305.54L318.88 304.87M318.88 304.87L318.03 304.53"
fill="none" stroke="black" stroke-width="2"/>
<path d="M317.23 304.53L316.38 304.87M316.38 304.87L315.59 305.54M315.59 305.54L314.91 306.51M314.91 306.51L314.36 307.74M314.36 307.74L313.99 309.15M313.99 309.15L313.81 310.68M313.81 310.68L313.82 312.24M313.82 312.24L314.03 313.75M314.03 313.75L314.43 315.14M314.43 315.14L315 316.34M315 316.34L315.7 317.27M315.7 317.27L316.5 317.9M316.5 317.9L317.36 318.18"
fill="none" stroke="black" stroke-width="2"/>
<path d="M474.83 318.18L475.69 317.9M475.69 317.9L476.49 317.27M476.49 317.27L477.19 316.34M477.19 316.34L477.75 315.14M477.75 315.14L478.15 313.75M478.15 313.75L478.36 312.24M478.36 312.24L478.38 310.68M478.38 310.68L478.19 309.15M478.19 309.15L477.82 307.74M477.82 307.74L477.28 306.51M477.28 306.51L476.6 305.54M476.6 305.54L475.81 304.87M475.81 304.87L474.95 304.53"
fill="none" stroke="black" stroke-width="2"/>
<path d="M500.48 318.18L501.33 317.9M501.33 317.9L502.14 317.27M502.14 317.27L502.84 316.34M502.84 316.34L503.4 315.14M503.4 315.14L503.8 313.75M503.8 313.75L504.01 312.24M504.01 312.24L504.02 310.68M504.02 310.68L503.84 309.15M503.84 309.15L503.47 307.74M503.47 307.74L502.93 306.51M502.93 306.51L502.24 305.54M502.24 305.54L501.45 304.87M501.45 304.87L500.6 304.53"
fill="none" stroke="black" stroke-width="2"/>
<path d="M499.81 304.53L498.95 304.87M498.95 304.87L498.16 305.54M498.16 305.54L497.48 306.51M497.48 306.51L496.94 307.74M496.94 307.74L496.56 309.15M496.56 309.15L496.38 310.68M496.38 310.68L496.39 312.24M496.39 312.24L496.61 313.75M496.61 313.75L497 315.14M497 315.14L497.57 316.34M497.57 316.34L498.27 317.27M498.27 317.27L499.07 317.9M499.07 317.9L499.93 318.18"
fill="none" stroke="black" stroke-width="2"/>
<path d="M136.6 311.41L136.6 311.28"
fill="none" stroke="black" stroke-width="2"/>
<path d="M136.6 311.35L136.6 311.35"
fill="none" stroke="black" stroke-width="2"/>
<path d="M140.72 311.35L151.21 164.01"
fill="none" stroke="black" stroke-width="2"/>
<path d="M125.36 159.6L135.89 304.53"
fill="none" stroke="black" stroke-width="2"/>
<path d="M284.04 311.35L273.8 167.59"
fill="none" stroke="black" stroke-width="2"/>
<path d="M299.22 162.03L288.87 304.53"
fill="none" stroke="black" stroke-width="2"/>
<path d="M325.59 311.35L335.76 168.53"
fill="none" stroke="black" stroke-width="2"/>
<path d="M310.42 162.11L320.76 304.53"
fill="none" stroke="black" stroke-width="2"/>
<path d="M468.92 311.35L458.75 168.67"
fill="none" stroke="black" stroke-width="2"/>
<path d="M484.08 162.26L473.75 304.53"
fill="none" stroke="black" stroke-width="2"/>
<path d="M508.16 311.35L518.38 167.9"
fill="none" stroke="black" stroke-width="2"/>
<path d="M493 162.21L503.33 304.53"
fill="none" stroke="black" stroke-width="2"/>
<path d="M651.49 311.35L641.04 164.63"
fill="none" stroke="black" stroke-width="2"/>
<path d="M666.8 160.1L656.32 304.53"
fill="none" stroke="black" stroke-width="2"/>
</svg>
