<?xml version="1.0" encoding="UTF-8"?>
<svg xmlns="http://www.w3.org/2000/svg" width="800.000" height="600.000" viewBox="0.0 0.0 800.000 600.000" version="1.1">
  <title>Produce by Acme CAD Converter</title>
  <desc>Produce by Acme CAD Converter</desc>
<path d="M2.26 80.28L2.26 519.72"
fill="none" stroke="RGB(237,31,36)" stroke-width="0"/>
<path d="M132.75 318.22L292.87 318.22"
fill="none" stroke="black" stroke-width="2"/>
<path d="M318.01 318.22L475.8 318.22"
fill="none" stroke="black" stroke-width="2"/>
<path d="M500.95 318.22L662.32 318.22"
fill="none" stroke="black" stroke-width="2"/>
<path d="M132.63 304.54L131.77 304.88M131.77 304.88L130.98 305.55M130.98 305.55L130.29 306.53M130.29 306.53L129.75 307.76M129.75 307.76L129.38 309.17M129.38 309.17L129.19 310.7M129.19 310.7L129.21 312.26M129.21 312.26L129.42 313.78M129.42 313.78L129.82 315.17M129.82 315.17L130.38 316.37M130.38 316.37L131.09 317.3M131.09 317.3L131.89 317.93M131.89 317.93L132.75 318.22"
fill="none" stroke="black" stroke-width="2"/>
<path d="M133.3 318.22L134.16 317.93M134.16 317.93L134.96 317.3M134.96 317.3L135.66 316.37M135.66 316.37L136.23 315.17M136.23 315.17L136.63 313.78M136.63 313.78L136.84 312.26M136.84 312.26L136.85 310.7M136.85 310.7L136.67 309.17M136.67 309.17L136.3 307.76M136.3 307.76L135.75 306.53M135.75 306.53L135.07 305.55M135.07 305.55L134.28 304.88M134.28 304.88L133.42 304.54"
fill="none" stroke="black" stroke-width="2"/>
<path d="M132.63 304.54L293 304.54"
fill="none" stroke="black" stroke-width="2"/>
<path d="M317.88 304.54L475.93 304.54"
fill="none" stroke="black" stroke-width="2"/>
<path d="M500.83 304.54L662.45 304.54"
fill="none" stroke="black" stroke-width="2"/>
<path d="M662.32 318.22L663.18 317.93M663.18 317.93L663.99 317.3M663.99 317.3L664.69 316.37M664.69 316.37L665.25 315.17M665.25 315.17L665.65 313.78M665.65 313.78L665.87 312.26M665.87 312.26L665.88 310.7M665.88 310.7L665.69 309.17M665.69 309.17L665.32 307.76M665.32 307.76L664.78 306.53M664.78 306.53L664.09 305.55M664.09 305.55L663.3 304.88M663.3 304.88L662.45 304.54"
fill="none" stroke="black" stroke-width="2"/>
<path d="M292.87 318.22L293.73 317.93M293.73 317.93L294.53 317.3M294.53 317.3L295.24 316.37M295.24 316.37L295.8 315.17M295.8 315.17L296.2 313.78M296.2 313.78L296.41 312.26M296.41 312.26L296.43 310.7M296.43 310.7L296.24 309.17M296.24 309.17L295.87 307.76M295.87 307.76L295.33 306.53M295.33 306.53L294.64 305.55M294.64 305.55L293.85 304.88M293.85 304.88L293 304.54"
fill="none" stroke="black" stroke-width="2"/>
<path d="M318.55 318.22L319.41 317.93M319.41 317.93L320.22 317.3M320.22 317.3L320.92 316.37M320.92 316.37L321.48 315.17M321.48 315.17L321.88 313.78M321.88 313.78L322.09 312.26M322.09 312.26L322.11 310.7M322.11 310.7L321.92 309.17M321.92 309.17L321.55 307.76M321.55 307.76L321.01 306.53M321.01 306.53L320.32 305.55M320.32 305.55L319.53 304.88M319.53 304.88L318.68 304.54"
fill="none" stroke="black" stroke-width="2"/>
<path d="M317.88 304.54L317.03 304.88M317.03 304.88L316.23 305.55M316.23 305.55L315.55 306.53M315.55 306.53L315.01 307.76M315.01 307.76L314.63 309.17M314.63 309.17L314.45 310.7M314.45 310.7L314.46 312.26M314.46 312.26L314.68 313.78M314.68 313.78L315.07 315.17M315.07 315.17L315.64 316.37M315.64 316.37L316.34 317.3M316.34 317.3L317.14 317.93M317.14 317.93L318.01 318.22"
fill="none" stroke="black" stroke-width="2"/>
<path d="M475.8 318.22L476.66 317.93M476.66 317.93L477.47 317.3M477.47 317.3L478.17 316.37M478.17 316.37L478.73 315.17M478.73 315.17L479.13 313.78M479.13 313.78L479.34 312.26M479.34 312.26L479.36 310.7M479.36 310.7L479.17 309.17M479.17 309.17L478.8 307.76M478.8 307.76L478.26 306.53M478.26 306.53L477.57 305.55M477.57 305.55L476.78 304.88M476.78 304.88L475.93 304.54"
fill="none" stroke="black" stroke-width="2"/>
<path d="M501.5 318.22L502.36 317.93M502.36 317.93L503.16 317.3M503.16 317.3L503.87 316.37M503.87 316.37L504.43 315.17M504.43 315.17L504.83 313.78M504.83 313.78L505.04 312.26M505.04 312.26L505.06 310.7M505.06 310.7L504.87 309.17M504.87 309.17L504.5 307.76M504.5 307.76L503.96 306.53M503.96 306.53L503.27 305.55M503.27 305.55L502.48 304.88M502.48 304.88L501.62 304.54"
fill="none" stroke="black" stroke-width="2"/>
<path d="M500.83 304.54L499.97 304.88M499.97 304.88L499.18 305.55M499.18 305.55L498.5 306.53M498.5 306.53L497.95 307.76M497.95 307.76L497.58 309.17M497.58 309.17L497.4 310.7M497.4 310.7L497.41 312.26M497.41 312.26L497.62 313.78M497.62 313.78L498.02 315.17M498.02 315.17L498.59 316.37M498.59 316.37L499.29 317.3M499.29 317.3L500.09 317.93M500.09 317.93L500.95 318.22"
fill="none" stroke="black" stroke-width="2"/>
<path d="M136.87 311.43L136.87 311.31"
fill="none" stroke="black" stroke-width="2"/>
<path d="M136.87 304.54L136.87 163.18"
fill="none" stroke="black" stroke-width="2"/>
<path d="M288.75 304.54L288.75 167.6"
fill="none" stroke="black" stroke-width="2"/>
<path d="M322.13 304.54L322.13 168.11"
fill="none" stroke="black" stroke-width="2"/>
<path d="M474 304.54L474 168.25"
fill="none" stroke="black" stroke-width="2"/>
<path d="M505.07 304.54L505.07 167.85"
fill="none" stroke="black" stroke-width="2"/>
<path d="M656.95 304.54L656.95 163.77"
fill="none" stroke="black" stroke-width="2"/>
<path d="M2.26 156.32L51.93 159.17M51.93 159.17L101.61 161.65M101.61 161.65L151.32 163.75M151.32 163.75L201.03 165.48M201.03 165.48L250.76 166.83M250.76 166.83L300.5 167.8M300.5 167.8L350.25 168.4M350.25 168.4L399.99 168.62M399.99 168.62L449.74 168.46M449.74 168.46L499.48 167.93M499.48 167.93L549.22 167.03M549.22 167.03L598.95 165.75M598.95 165.75L648.67 164.09M648.67 164.09L698.38 162.05M698.38 162.05L748.07 159.64M748.07 159.64L797.74 156.86"
fill="none" stroke="RGB(2,158,33)" stroke-width="2"/>
</svg>
