<?xml version="1.0" encoding="UTF-8"?>
<svg xmlns="http://www.w3.org/2000/svg" width="800.000" height="600.000" viewBox="0.0 0.0 800.000 600.000" version="1.1">
  <title>Produce by Acme CAD Converter</title>
  <desc>Produce by Acme CAD Converter</desc>
<path d="M2.26 80.73L2.26 519.27"
fill="none" stroke="RGB(237,31,36)" stroke-width="0"/>
<path d="M2.82 156.6L52.46 159.45M52.46 159.45L102.11 161.93M102.11 161.93L151.77 164.03M151.77 164.03L201.46 165.75M201.46 165.75L251.15 167.1M251.15 167.1L300.85 168.07M300.85 168.07L350.56 168.67M350.56 168.67L400.27 168.89M400.27 168.89L449.98 168.73M449.98 168.73L499.69 168.2M499.69 168.2L549.4 167.29M549.4 167.29L599.09 166.01M599.09 166.01L648.78 164.34M648.78 164.34L698.45 162.31M698.45 162.31L748.1 159.89M748.1 159.89L797.74 157.1"
fill="none" stroke="RGB(2,158,33)" stroke-width="2"/>
<path d="M2.82 156.6L91.13 158.87M91.13 158.87L179.45 160.58M179.45 160.58L267.78 161.75M267.78 161.75L356.11 162.36M356.11 162.36L444.44 162.41M444.44 162.41L532.78 161.92M532.78 161.92L621.11 160.87M621.11 160.87L709.43 159.26M709.43 159.26L797.74 157.1"
fill="none" stroke="RGB(2,158,33)" stroke-width="2"/>
<path d="M122.28 328.28L122.32 328.17"
fill="none" stroke="black" stroke-width="2"/>
<path d="M126.06 318.78L130.58 307.43"
fill="none" stroke="black" stroke-width="2"/>
<path d="M142.17 318.78L146.69 307.43"
fill="none" stroke="black" stroke-width="2"/>
<path d="M149.18 304.29L149.18 304.32"
fill="none" stroke="black" stroke-width="2"/>
<path d="M130.58 304.29L133.12 297.93"
fill="none" stroke="black" stroke-width="2"/>
<path d="M133.12 297.93L195.95 297.93"
fill="none" stroke="black" stroke-width="2"/>
<path d="M193.41 304.29L195.95 297.93"
fill="none" stroke="black" stroke-width="2"/>
<path d="M138.39 331.43L139.64 328.28"
fill="none" stroke="black" stroke-width="2"/>
<path d="M143.42 318.78L147.94 307.43"
fill="none" stroke="black" stroke-width="2"/>
<path d="M122.28 328.28L138.39 328.28"
fill="none" stroke="black" stroke-width="2"/>
<path d="M138.39 328.28L138.39 331.43"
fill="none" stroke="black" stroke-width="2"/>
<path d="M122.28 328.28L122.28 331.43"
fill="none" stroke="black" stroke-width="2"/>
<path d="M122.28 331.43L138.39 331.43"
fill="none" stroke="black" stroke-width="2"/>
<path d="M130.58 304.29L130.58 307.43"
fill="none" stroke="black" stroke-width="2"/>
<path d="M195.95 297.93L195.95 301.07"
fill="none" stroke="black" stroke-width="2"/>
<path d="M193.41 304.29L193.41 307.43"
fill="none" stroke="black" stroke-width="2"/>
<path d="M172.83 318.78L177.35 307.43"
fill="none" stroke="black" stroke-width="2"/>
<path d="M185.15 328.28L195.95 301.18"
fill="none" stroke="black" stroke-width="2"/>
<path d="M195.95 301.18L195.95 304.32"
fill="none" stroke="black" stroke-width="2"/>
<path d="M185.15 331.43L195.95 304.32"
fill="none" stroke="black" stroke-width="2"/>
<path d="M169.05 328.28L185.15 328.28"
fill="none" stroke="black" stroke-width="2"/>
<path d="M185.15 328.28L185.15 331.43"
fill="none" stroke="black" stroke-width="2"/>
<path d="M169.05 328.28L169.05 331.43"
fill="none" stroke="black" stroke-width="2"/>
<path d="M169.05 331.43L185.15 331.43"
fill="none" stroke="black" stroke-width="2"/>
<path d="M130.58 304.29L193.41 304.29"
fill="none" stroke="black" stroke-width="2"/>
<path d="M130.58 307.43L193.41 307.43"
fill="none" stroke="black" stroke-width="2"/>
<path d="M122.32 325.14L124.86 318.78"
fill="none" stroke="black" stroke-width="2"/>
<path d="M124.86 318.78L187.69 318.78"
fill="none" stroke="black" stroke-width="2"/>
<path d="M185.15 325.14L187.69 318.78"
fill="none" stroke="black" stroke-width="2"/>
<path d="M122.32 325.14L122.32 328.28"
fill="none" stroke="black" stroke-width="2"/>
<path d="M187.69 318.78L187.69 321.92"
fill="none" stroke="black" stroke-width="2"/>
<path d="M185.15 325.14L185.15 328.28"
fill="none" stroke="black" stroke-width="2"/>
<path d="M122.32 325.14L185.15 325.14"
fill="none" stroke="black" stroke-width="2"/>
<path d="M122.32 328.28L185.15 328.28"
fill="none" stroke="black" stroke-width="2"/>
<path d="M130.33 321.96L131.18 163.2"
fill="none" stroke="black" stroke-width="2"/>
<path d="M130.64 321.96L130.55 321.8M130.55 321.8L130.33 321.74M130.33 321.74L130.12 321.8M130.12 321.8L130.03 321.96M130.03 321.96L130.12 322.12M130.12 322.12L130.33 322.18M130.33 322.18L130.55 322.12M130.55 322.12L130.64 321.96"
fill="none" stroke="black" stroke-width="2"/>
<path d="M177.1 321.96L177.96 164.98"
fill="none" stroke="black" stroke-width="2"/>
<path d="M177.4 321.96L177.32 321.8M177.32 321.8L177.1 321.74M177.1 321.74L176.89 321.8M176.89 321.8L176.8 321.96M176.8 321.96L176.89 322.12M176.89 322.12L177.1 322.18M177.1 322.18L177.32 322.12M177.32 322.12L177.4 321.96"
fill="none" stroke="black" stroke-width="2"/>
<path d="M138.59 301.11L139.36 159.87"
fill="none" stroke="black" stroke-width="2"/>
<path d="M138.9 301.11L138.81 300.95M138.81 300.95L138.59 300.89M138.59 300.89L138.38 300.95M138.38 300.95L138.29 301.11M138.29 301.11L138.38 301.27M138.38 301.27L138.59 301.33M138.59 301.33L138.81 301.27M138.81 301.27L138.9 301.11"
fill="none" stroke="black" stroke-width="2"/>
<path d="M185.36 301.11L186.12 160.69"
fill="none" stroke="black" stroke-width="2"/>
<path d="M185.66 301.11L185.57 300.95M185.57 300.95L185.36 300.89M185.36 300.89L185.14 300.95M185.14 300.95L185.05 301.11M185.05 301.11L185.14 301.27M185.14 301.27L185.36 301.33M185.36 301.33L185.57 301.27M185.57 301.27L185.66 301.11"
fill="none" stroke="black" stroke-width="2"/>
<path d="M357.72 333.13L357.77 333.02"
fill="none" stroke="black" stroke-width="2"/>
<path d="M361.51 323.62L366.03 312.28"
fill="none" stroke="black" stroke-width="2"/>
<path d="M377.62 323.62L382.13 312.28"
fill="none" stroke="black" stroke-width="2"/>
<path d="M384.62 309.14L384.62 309.16"
fill="none" stroke="black" stroke-width="2"/>
<path d="M366.03 309.14L368.56 302.77"
fill="none" stroke="black" stroke-width="2"/>
<path d="M368.56 302.77L431.39 302.77"
fill="none" stroke="black" stroke-width="2"/>
<path d="M428.86 309.14L431.39 302.77"
fill="none" stroke="black" stroke-width="2"/>
<path d="M373.83 336.27L375.08 333.13"
fill="none" stroke="black" stroke-width="2"/>
<path d="M378.87 323.62L383.38 312.28"
fill="none" stroke="black" stroke-width="2"/>
<path d="M357.72 333.13L373.83 333.13"
fill="none" stroke="black" stroke-width="2"/>
<path d="M373.83 333.13L373.83 336.27"
fill="none" stroke="black" stroke-width="2"/>
<path d="M357.72 333.13L357.72 336.27"
fill="none" stroke="black" stroke-width="2"/>
<path d="M357.72 336.27L373.83 336.27"
fill="none" stroke="black" stroke-width="2"/>
<path d="M366.03 309.14L366.03 312.28"
fill="none" stroke="black" stroke-width="2"/>
<path d="M431.39 302.77L431.39 305.91"
fill="none" stroke="black" stroke-width="2"/>
<path d="M428.86 309.14L428.86 312.28"
fill="none" stroke="black" stroke-width="2"/>
<path d="M408.28 323.62L412.79 312.28"
fill="none" stroke="black" stroke-width="2"/>
<path d="M420.6 333.13L431.39 306.02"
fill="none" stroke="black" stroke-width="2"/>
<path d="M431.39 306.02L431.39 309.16"
fill="none" stroke="black" stroke-width="2"/>
<path d="M420.6 336.27L431.39 309.16"
fill="none" stroke="black" stroke-width="2"/>
<path d="M404.49 333.13L420.6 333.13"
fill="none" stroke="black" stroke-width="2"/>
<path d="M420.6 333.13L420.6 336.27"
fill="none" stroke="black" stroke-width="2"/>
<path d="M404.49 333.13L404.49 336.27"
fill="none" stroke="black" stroke-width="2"/>
<path d="M404.49 336.27L420.6 336.27"
fill="none" stroke="black" stroke-width="2"/>
<path d="M366.03 309.14L428.86 309.14"
fill="none" stroke="black" stroke-width="2"/>
<path d="M366.03 312.28L428.86 312.28"
fill="none" stroke="black" stroke-width="2"/>
<path d="M357.77 329.99L360.3 323.62"
fill="none" stroke="black" stroke-width="2"/>
<path d="M360.3 323.62L423.13 323.62"
fill="none" stroke="black" stroke-width="2"/>
<path d="M420.6 329.99L423.13 323.62"
fill="none" stroke="black" stroke-width="2"/>
<path d="M357.77 329.99L357.77 333.13"
fill="none" stroke="black" stroke-width="2"/>
<path d="M423.13 323.62L423.13 326.76"
fill="none" stroke="black" stroke-width="2"/>
<path d="M420.6 329.99L420.6 333.13"
fill="none" stroke="black" stroke-width="2"/>
<path d="M357.77 329.99L420.6 329.99"
fill="none" stroke="black" stroke-width="2"/>
<path d="M357.77 333.13L420.6 333.13"
fill="none" stroke="black" stroke-width="2"/>
<path d="M365.78 326.8L366.64 168.78"
fill="none" stroke="black" stroke-width="2"/>
<path d="M366.08 326.8L365.99 326.65M365.99 326.65L365.78 326.58M365.78 326.58L365.56 326.65M365.56 326.65L365.47 326.8M365.47 326.8L365.56 326.96M365.56 326.96L365.78 327.03M365.78 327.03L365.99 326.96M365.99 326.96L366.08 326.8"
fill="none" stroke="black" stroke-width="2"/>
<path d="M412.54 326.8L413.4 168.88"
fill="none" stroke="black" stroke-width="2"/>
<path d="M412.85 326.8L412.76 326.65M412.76 326.65L412.54 326.58M412.54 326.58L412.33 326.65M412.33 326.65L412.24 326.8M412.24 326.8L412.33 326.96M412.33 326.96L412.54 327.03M412.54 327.03L412.76 326.96M412.76 326.96L412.85 326.8"
fill="none" stroke="black" stroke-width="2"/>
<path d="M374.03 305.95L374.82 162.42"
fill="none" stroke="black" stroke-width="2"/>
<path d="M374.34 305.95L374.25 305.8M374.25 305.8L374.03 305.73M374.03 305.73L373.82 305.8M373.82 305.8L373.73 305.95M373.73 305.95L373.82 306.11M373.82 306.11L374.03 306.17M374.03 306.17L374.25 306.11M374.25 306.11L374.34 305.95"
fill="none" stroke="black" stroke-width="2"/>
<path d="M420.8 305.95L421.58 162.45"
fill="none" stroke="black" stroke-width="2"/>
<path d="M421.11 305.95L421.02 305.8M421.02 305.8L420.8 305.73M420.8 305.73L420.59 305.8M420.59 305.8L420.5 305.95M420.5 305.95L420.59 306.11M420.59 306.11L420.8 306.17M420.8 306.17L421.02 306.11M421.02 306.11L421.11 305.95"
fill="none" stroke="black" stroke-width="2"/>
<path d="M594.74 329.4L594.78 329.29"
fill="none" stroke="black" stroke-width="2"/>
<path d="M598.52 319.89L603.04 308.55"
fill="none" stroke="black" stroke-width="2"/>
<path d="M614.63 319.89L619.15 308.55"
fill="none" stroke="black" stroke-width="2"/>
<path d="M621.64 305.41L621.64 305.43"
fill="none" stroke="black" stroke-width="2"/>
<path d="M603.04 305.41L605.58 299.04"
fill="none" stroke="black" stroke-width="2"/>
<path d="M605.58 299.04L668.41 299.04"
fill="none" stroke="black" stroke-width="2"/>
<path d="M665.87 305.41L668.41 299.04"
fill="none" stroke="black" stroke-width="2"/>
<path d="M610.84 332.54L612.1 329.4"
fill="none" stroke="black" stroke-width="2"/>
<path d="M615.88 319.89L620.4 308.55"
fill="none" stroke="black" stroke-width="2"/>
<path d="M594.74 329.4L610.84 329.4"
fill="none" stroke="black" stroke-width="2"/>
<path d="M610.84 329.4L610.84 332.54"
fill="none" stroke="black" stroke-width="2"/>
<path d="M594.74 329.4L594.74 332.54"
fill="none" stroke="black" stroke-width="2"/>
<path d="M594.74 332.54L610.84 332.54"
fill="none" stroke="black" stroke-width="2"/>
<path d="M603.04 305.41L603.04 308.55"
fill="none" stroke="black" stroke-width="2"/>
<path d="M668.41 299.04L668.41 302.18"
fill="none" stroke="black" stroke-width="2"/>
<path d="M665.87 305.41L665.87 308.55"
fill="none" stroke="black" stroke-width="2"/>
<path d="M645.29 319.89L649.81 308.55"
fill="none" stroke="black" stroke-width="2"/>
<path d="M657.61 329.4L668.41 302.29"
fill="none" stroke="black" stroke-width="2"/>
<path d="M668.41 302.29L668.41 305.43"
fill="none" stroke="black" stroke-width="2"/>
<path d="M657.61 332.54L668.41 305.43"
fill="none" stroke="black" stroke-width="2"/>
<path d="M641.51 329.4L657.61 329.4"
fill="none" stroke="black" stroke-width="2"/>
<path d="M657.61 329.4L657.61 332.54"
fill="none" stroke="black" stroke-width="2"/>
<path d="M641.51 329.4L641.51 332.54"
fill="none" stroke="black" stroke-width="2"/>
<path d="M641.51 332.54L657.61 332.54"
fill="none" stroke="black" stroke-width="2"/>
<path d="M603.04 305.41L665.87 305.41"
fill="none" stroke="black" stroke-width="2"/>
<path d="M603.04 308.55L665.87 308.55"
fill="none" stroke="black" stroke-width="2"/>
<path d="M594.78 326.26L597.32 319.89"
fill="none" stroke="black" stroke-width="2"/>
<path d="M597.32 319.89L660.15 319.89"
fill="none" stroke="black" stroke-width="2"/>
<path d="M657.61 326.26L660.15 319.89"
fill="none" stroke="black" stroke-width="2"/>
<path d="M594.78 326.26L594.78 329.4"
fill="none" stroke="black" stroke-width="2"/>
<path d="M660.15 319.89L660.15 323.03"
fill="none" stroke="black" stroke-width="2"/>
<path d="M657.61 326.26L657.61 329.4"
fill="none" stroke="black" stroke-width="2"/>
<path d="M594.78 326.26L657.61 326.26"
fill="none" stroke="black" stroke-width="2"/>
<path d="M594.78 329.4L657.61 329.4"
fill="none" stroke="black" stroke-width="2"/>
<path d="M602.79 323.07L603.65 165.87"
fill="none" stroke="black" stroke-width="2"/>
<path d="M603.1 323.07L603.01 322.92M603.01 322.92L602.79 322.85M602.79 322.85L602.58 322.92M602.58 322.92L602.49 323.07M602.49 323.07L602.58 323.23M602.58 323.23L602.79 323.3M602.79 323.3L603.01 323.23M603.01 323.23L603.1 323.07"
fill="none" stroke="black" stroke-width="2"/>
<path d="M649.56 323.07L650.41 164.28"
fill="none" stroke="black" stroke-width="2"/>
<path d="M649.86 323.07L649.77 322.92M649.77 322.92L649.56 322.85M649.56 322.85L649.34 322.92M649.34 322.92L649.25 323.07M649.25 323.07L649.34 323.23M649.34 323.23L649.56 323.3M649.56 323.3L649.77 323.23M649.77 323.23L649.86 323.07"
fill="none" stroke="black" stroke-width="2"/>
<path d="M611.05 302.22L611.82 161"
fill="none" stroke="black" stroke-width="2"/>
<path d="M611.35 302.22L611.26 302.07M611.26 302.07L611.05 302M611.05 302L610.83 302.07M610.83 302.07L610.75 302.22M610.75 302.22L610.83 302.38M610.83 302.38L611.05 302.44M611.05 302.44L611.26 302.38M611.26 302.38L611.35 302.22"
fill="none" stroke="black" stroke-width="2"/>
<path d="M657.82 302.22L658.59 160.25"
fill="none" stroke="black" stroke-width="2"/>
<path d="M658.12 302.22L658.03 302.07M658.03 302.07L657.82 302M657.82 302L657.6 302.07M657.6 302.07L657.51 302.22M657.51 302.22L657.6 302.38M657.6 302.38L657.82 302.44M657.82 302.44L658.03 302.38M658.03 302.38L658.12 302.22"
fill="none" stroke="black" stroke-width="2"/>
<path d="M252.34 274.88L245.2 301.2"
fill="none" stroke="black" stroke-width="2"/>
<path d="M244.15 272.66L237.01 298.98"
fill="none" stroke="black" stroke-width="2"/>
<path d="M236.86 300.09L237.05 298.84M237.05 298.84L237.6 297.7M237.6 297.7L238.46 296.77M238.46 296.77L239.55 296.14M239.55 296.14L240.78 295.86M240.78 295.86L242.05 295.95M242.05 295.95L243.22 296.41M243.22 296.41L244.21 297.2M244.21 297.2L244.92 298.25M244.92 298.25L245.3 299.45M245.3 299.45L245.3 300.72M245.3 300.72L244.92 301.93M244.92 301.93L244.21 302.97M244.21 302.97L243.22 303.76M243.22 303.76L242.05 304.22M242.05 304.22L240.78 304.32M240.78 304.32L239.55 304.03M239.55 304.03L238.46 303.4M238.46 303.4L237.6 302.48M237.6 302.48L237.05 301.34M237.05 301.34L236.86 300.09"
fill="none" stroke="black" stroke-width="2"/>
<path d="M252.34 274.88L252.48 273.68M252.48 273.68L252.29 272.49M252.29 272.49L251.76 271.4M251.76 271.4L250.95 270.51M250.95 270.51L249.92 269.88M249.92 269.88L248.76 269.56M248.76 269.56L247.55 269.58M247.55 269.58L246.4 269.95M246.4 269.95L245.4 270.62M245.4 270.62L244.63 271.55M244.63 271.55L244.15 272.66"
fill="none" stroke="black" stroke-width="2"/>
<path d="M241.41 294.74L241.41 166.87"
fill="none" stroke="black" stroke-width="2"/>
<path d="M248.05 270.25L248.05 161.54"
fill="none" stroke="black" stroke-width="2"/>
<path d="M241.71 294.74L241.62 294.59M241.62 294.59L241.41 294.52M241.41 294.52L241.19 294.59M241.19 294.59L241.1 294.74M241.1 294.74L241.19 294.9M241.19 294.9L241.41 294.97M241.41 294.97L241.62 294.9M241.62 294.9L241.71 294.74"
fill="none" stroke="black" stroke-width="2"/>
<path d="M248.36 270.25L248.27 270.09M248.27 270.09L248.05 270.03M248.05 270.03L247.84 270.09M247.84 270.09L247.75 270.25M247.75 270.25L247.84 270.41M247.84 270.41L248.05 270.47M248.05 270.47L248.27 270.41M248.27 270.41L248.36 270.25"
fill="none" stroke="black" stroke-width="2"/>
<path d="M308.46 292.07L301.32 318.39"
fill="none" stroke="black" stroke-width="2"/>
<path d="M300.27 289.85L293.13 316.17"
fill="none" stroke="black" stroke-width="2"/>
<path d="M292.98 317.28L293.17 316.03M293.17 316.03L293.72 314.89M293.72 314.89L294.58 313.96M294.58 313.96L295.67 313.33M295.67 313.33L296.9 313.05M296.9 313.05L298.17 313.14M298.17 313.14L299.34 313.61M299.34 313.61L300.33 314.39M300.33 314.39L301.04 315.44M301.04 315.44L301.42 316.65M301.42 316.65L301.42 317.91M301.42 317.91L301.04 319.12M301.04 319.12L300.33 320.16M300.33 320.16L299.34 320.95M299.34 320.95L298.17 321.41M298.17 321.41L296.9 321.51M296.9 321.51L295.67 321.23M295.67 321.23L294.58 320.6M294.58 320.6L293.72 319.67M293.72 319.67L293.17 318.53M293.17 318.53L292.98 317.28"
fill="none" stroke="black" stroke-width="2"/>
<path d="M308.46 292.07L308.6 290.87M308.6 290.87L308.41 289.68M308.41 289.68L307.88 288.6M307.88 288.6L307.07 287.7M307.07 287.7L306.04 287.07M306.04 287.07L304.88 286.75M304.88 286.75L303.67 286.78M303.67 286.78L302.52 287.14M302.52 287.14L301.52 287.81M301.52 287.81L300.75 288.74M300.75 288.74L300.27 289.85"
fill="none" stroke="black" stroke-width="2"/>
<path d="M297.52 311.94L297.52 274.2"
fill="none" stroke="black" stroke-width="2"/>
<path d="M304.17 287.44L304.17 260.55"
fill="none" stroke="black" stroke-width="2"/>
<path d="M297.83 311.94L297.74 311.78M297.74 311.78L297.52 311.72M297.52 311.72L297.31 311.78M297.31 311.78L297.22 311.94M297.22 311.94L297.31 312.09M297.31 312.09L297.52 312.16M297.52 312.16L297.74 312.09M297.74 312.09L297.83 311.94"
fill="none" stroke="black" stroke-width="2"/>
<path d="M304.48 287.44L304.39 287.29M304.39 287.29L304.17 287.22M304.17 287.22L303.96 287.29M303.96 287.29L303.87 287.44M303.87 287.44L303.96 287.6M303.96 287.6L304.17 287.66M304.17 287.66L304.39 287.6M304.39 287.6L304.48 287.44"
fill="none" stroke="black" stroke-width="2"/>
<path d="M308.46 244.77L301.32 271.08"
fill="none" stroke="black" stroke-width="2"/>
<path d="M300.27 242.55L293.13 268.86"
fill="none" stroke="black" stroke-width="2"/>
<path d="M292.98 269.97L293.17 268.72M293.17 268.72L293.72 267.58M293.72 267.58L294.58 266.66M294.58 266.66L295.67 266.02M295.67 266.02L296.9 265.74M296.9 265.74L298.17 265.84M298.17 265.84L299.34 266.3M299.34 266.3L300.33 267.09M300.33 267.09L301.04 268.13M301.04 268.13L301.42 269.34M301.42 269.34L301.42 270.61M301.42 270.61L301.04 271.81M301.04 271.81L300.33 272.86M300.33 272.86L299.34 273.65M299.34 273.65L298.17 274.11M298.17 274.11L296.9 274.2M296.9 274.2L295.67 273.92M295.67 273.92L294.58 273.29M294.58 273.29L293.72 272.36M293.72 272.36L293.17 271.22M293.17 271.22L292.98 269.97"
fill="none" stroke="black" stroke-width="2"/>
<path d="M308.46 244.77L308.6 243.57M308.6 243.57L308.41 242.38M308.41 242.38L307.88 241.29M307.88 241.29L307.07 240.39M307.07 240.39L306.04 239.76M306.04 239.76L304.88 239.45M304.88 239.45L303.67 239.47M303.67 239.47L302.52 239.83M302.52 239.83L301.52 240.51M301.52 240.51L300.75 241.44M300.75 241.44L300.27 242.55"
fill="none" stroke="black" stroke-width="2"/>
<path d="M297.52 264.63L297.52 168.02"
fill="none" stroke="black" stroke-width="2"/>
<path d="M304.17 240.14L304.17 162.07"
fill="none" stroke="black" stroke-width="2"/>
<path d="M304.48 240.14L304.39 239.98M304.39 239.98L304.17 239.92M304.17 239.92L303.96 239.98M303.96 239.98L303.87 240.14M303.87 240.14L303.96 240.29M303.96 240.29L304.17 240.36M304.17 240.36L304.39 240.29M304.39 240.29L304.48 240.14"
fill="none" stroke="black" stroke-width="2"/>
<path d="M297.83 264.63L297.74 264.48M297.74 264.48L297.52 264.41M297.52 264.41L297.31 264.48M297.31 264.48L297.22 264.63M297.22 264.63L297.31 264.79M297.31 264.79L297.52 264.85M297.52 264.85L297.74 264.79M297.74 264.79L297.83 264.63"
fill="none" stroke="black" stroke-width="2"/>
<path d="M490.13 274.88L482.99 301.2"
fill="none" stroke="black" stroke-width="2"/>
<path d="M481.94 272.66L474.8 298.98"
fill="none" stroke="black" stroke-width="2"/>
<path d="M474.65 300.09L474.84 298.84M474.84 298.84L475.39 297.7M475.39 297.7L476.25 296.77M476.25 296.77L477.35 296.14M477.35 296.14L478.58 295.86M478.58 295.86L479.84 295.95M479.84 295.95L481.02 296.41M481.02 296.41L482.01 297.2M482.01 297.2L482.72 298.25M482.72 298.25L483.09 299.45M483.09 299.45L483.09 300.72M483.09 300.72L482.72 301.93M482.72 301.93L482.01 302.97M482.01 302.97L481.02 303.76M481.02 303.76L479.84 304.22M479.84 304.22L478.58 304.32M478.58 304.32L477.35 304.03M477.35 304.03L476.25 303.4M476.25 303.4L475.39 302.48M475.39 302.48L474.84 301.34M474.84 301.34L474.65 300.09"
fill="none" stroke="black" stroke-width="2"/>
<path d="M490.13 274.88L490.28 273.68M490.28 273.68L490.08 272.49M490.08 272.49L489.56 271.4M489.56 271.4L488.75 270.51M488.75 270.51L487.72 269.88M487.72 269.88L486.55 269.56M486.55 269.56L485.35 269.58M485.35 269.58L484.2 269.95M484.2 269.95L483.19 270.62M483.19 270.62L482.42 271.55M482.42 271.55L481.94 272.66"
fill="none" stroke="black" stroke-width="2"/>
<path d="M479.2 294.74L479.2 168.46"
fill="none" stroke="black" stroke-width="2"/>
<path d="M485.85 270.25L485.85 162.25"
fill="none" stroke="black" stroke-width="2"/>
<path d="M479.51 294.74L479.42 294.59M479.42 294.59L479.2 294.52M479.2 294.52L478.99 294.59M478.99 294.59L478.9 294.74M478.9 294.74L478.99 294.9M478.99 294.9L479.2 294.97M479.2 294.97L479.42 294.9M479.42 294.9L479.51 294.74"
fill="none" stroke="black" stroke-width="2"/>
<path d="M486.15 270.25L486.06 270.09M486.06 270.09L485.85 270.03M485.85 270.03L485.63 270.09M485.63 270.09L485.54 270.25M485.54 270.25L485.63 270.41M485.63 270.41L485.85 270.47M485.85 270.47L486.06 270.41M486.06 270.41L486.15 270.25"
fill="none" stroke="black" stroke-width="2"/>
<path d="M546.25 292.07L539.11 318.39"
fill="none" stroke="black" stroke-width="2"/>
<path d="M538.06 289.85L530.92 316.17"
fill="none" stroke="black" stroke-width="2"/>
<path d="M530.77 317.28L530.96 316.03M530.96 316.03L531.51 314.89M531.51 314.89L532.37 313.96M532.37 313.96L533.47 313.33M533.47 313.33L534.7 313.05M534.7 313.05L535.96 313.14M535.96 313.14L537.14 313.61M537.14 313.61L538.13 314.39M538.13 314.39L538.84 315.44M538.84 315.44L539.21 316.65M539.21 316.65L539.21 317.91M539.21 317.91L538.84 319.12M538.84 319.12L538.13 320.16M538.13 320.16L537.14 320.95M537.14 320.95L535.96 321.41M535.96 321.41L534.7 321.51M534.7 321.51L533.47 321.23M533.47 321.23L532.37 320.6M532.37 320.6L531.51 319.67M531.51 319.67L530.96 318.53M530.96 318.53L530.77 317.28"
fill="none" stroke="black" stroke-width="2"/>
<path d="M546.25 292.07L546.4 290.87M546.4 290.87L546.2 289.68M546.2 289.68L545.68 288.6M545.68 288.6L544.87 287.7M544.87 287.7L543.84 287.07M543.84 287.07L542.67 286.75M542.67 286.75L541.47 286.78M541.47 286.78L540.31 287.14M540.31 287.14L539.31 287.81M539.31 287.81L538.54 288.74M538.54 288.74L538.06 289.85"
fill="none" stroke="black" stroke-width="2"/>
<path d="M535.32 311.94L535.32 274.2"
fill="none" stroke="black" stroke-width="2"/>
<path d="M541.97 287.44L541.97 260.55"
fill="none" stroke="black" stroke-width="2"/>
<path d="M535.62 311.94L535.54 311.78M535.54 311.78L535.32 311.72M535.32 311.72L535.1 311.78M535.1 311.78L535.02 311.94M535.02 311.94L535.1 312.09M535.1 312.09L535.32 312.16M535.32 312.16L535.54 312.09M535.54 312.09L535.62 311.94"
fill="none" stroke="black" stroke-width="2"/>
<path d="M542.27 287.44L542.18 287.29M542.18 287.29L541.97 287.22M541.97 287.22L541.75 287.29M541.75 287.29L541.66 287.44M541.66 287.44L541.75 287.6M541.75 287.6L541.97 287.66M541.97 287.66L542.18 287.6M542.18 287.6L542.27 287.44"
fill="none" stroke="black" stroke-width="2"/>
<path d="M546.25 244.77L539.11 271.08"
fill="none" stroke="black" stroke-width="2"/>
<path d="M538.06 242.55L530.92 268.86"
fill="none" stroke="black" stroke-width="2"/>
<path d="M530.77 269.97L530.96 268.72M530.96 268.72L531.51 267.58M531.51 267.58L532.37 266.66M532.37 266.66L533.47 266.02M533.47 266.02L534.7 265.74M534.7 265.74L535.96 265.84M535.96 265.84L537.14 266.3M537.14 266.3L538.13 267.09M538.13 267.09L538.84 268.13M538.84 268.13L539.21 269.34M539.21 269.34L539.21 270.61M539.21 270.61L538.84 271.81M538.84 271.81L538.13 272.86M538.13 272.86L537.14 273.65M537.14 273.65L535.96 274.11M535.96 274.11L534.7 274.2M534.7 274.2L533.47 273.92M533.47 273.92L532.37 273.29M532.37 273.29L531.51 272.36M531.51 272.36L530.96 271.22M530.96 271.22L530.77 269.97"
fill="none" stroke="black" stroke-width="2"/>
<path d="M546.25 244.77L546.4 243.57M546.4 243.57L546.2 242.38M546.2 242.38L545.68 241.29M545.68 241.29L544.87 240.39M544.87 240.39L543.84 239.76M543.84 239.76L542.67 239.45M542.67 239.45L541.47 239.47M541.47 239.47L540.31 239.83M540.31 239.83L539.31 240.51M539.31 240.51L538.54 241.44M538.54 241.44L538.06 242.55"
fill="none" stroke="black" stroke-width="2"/>
<path d="M535.32 264.63L535.32 167.59"
fill="none" stroke="black" stroke-width="2"/>
<path d="M541.97 240.14L541.97 161.83"
fill="none" stroke="black" stroke-width="2"/>
<path d="M542.27 240.14L542.18 239.98M542.18 239.98L541.97 239.92M541.97 239.92L541.75 239.98M541.75 239.98L541.66 240.14M541.66 240.14L541.75 240.29M541.75 240.29L541.97 240.36M541.97 240.36L542.18 240.29M542.18 240.29L542.27 240.14"
fill="none" stroke="black" stroke-width="2"/>
<path d="M535.62 264.63L535.54 264.48M535.54 264.48L535.32 264.41M535.32 264.41L535.1 264.48M535.1 264.48L535.02 264.63M535.02 264.63L535.1 264.79M535.1 264.79L535.32 264.85M535.32 264.85L535.54 264.79M535.54 264.79L535.62 264.63"
fill="none" stroke="black" stroke-width="2"/>
</svg>
