<?xml version="1.0" encoding="UTF-8"?>
<svg xmlns="http://www.w3.org/2000/svg" width="800.000" height="600.000" viewBox="0.0 0.0 800.000 600.000" version="1.1">
  <title>Produce by Acme CAD Converter</title>
  <desc>Produce by Acme CAD Converter</desc>
<path d="M2.26 80.73L2.26 519.27"
fill="none" stroke="RGB(237,31,36)" stroke-width="0"/>
<path d="M2.82 156.6L52.46 159.45M52.46 159.45L102.11 161.93M102.11 161.93L151.77 164.03M151.77 164.03L201.46 165.75M201.46 165.75L251.15 167.1M251.15 167.1L300.85 168.07M300.85 168.07L350.56 168.67M350.56 168.67L400.27 168.89M400.27 168.89L449.98 168.73M449.98 168.73L499.69 168.2M499.69 168.2L549.4 167.29M549.4 167.29L599.09 166.01M599.09 166.01L648.78 164.34M648.78 164.34L698.45 162.31M698.45 162.31L748.1 159.89M748.1 159.89L797.74 157.1"
fill="none" stroke="RGB(2,158,33)" stroke-width="2"/>
<path d="M2.82 156.6L91.13 158.87M91.13 158.87L179.45 160.58M179.45 160.58L267.78 161.75M267.78 161.75L356.11 162.36M356.11 162.36L444.44 162.41M444.44 162.41L532.78 161.92M532.78 161.92L621.11 160.87M621.11 160.87L709.43 159.26M709.43 159.26L797.74 157.1"
fill="none" stroke="RGB(2,158,33)" stroke-width="2"/>
<path d="M145.29 290.49L138.15 316.81"
fill="none" stroke="black" stroke-width="2"/>
<path d="M137.1 288.27L129.96 314.59"
fill="none" stroke="black" stroke-width="2"/>
<path d="M129.82 315.7L130 314.45M130 314.45L130.55 313.31M130.55 313.31L131.41 312.38M131.41 312.38L132.51 311.75M132.51 311.75L133.74 311.47M133.74 311.47L135 311.56M135 311.56L136.18 312.03M136.18 312.03L137.17 312.81M137.17 312.81L137.88 313.86M137.88 313.86L138.25 315.07M138.25 315.07L138.25 316.33M138.25 316.33L137.88 317.54M137.88 317.54L137.17 318.58M137.17 318.58L136.18 319.37M136.18 319.37L135 319.83M135 319.83L133.74 319.93M133.74 319.93L132.51 319.65M132.51 319.65L131.41 319.01M131.41 319.01L130.55 318.09M130.55 318.09L130 316.95M130 316.95L129.82 315.7"
fill="none" stroke="black" stroke-width="2"/>
<path d="M145.29 290.49L145.44 289.29M145.44 289.29L145.24 288.1M145.24 288.1L144.72 287.01M144.72 287.01L143.91 286.12M143.91 286.12L142.88 285.49M142.88 285.49L141.71 285.17M141.71 285.17L140.51 285.2M140.51 285.2L139.36 285.56M139.36 285.56L138.35 286.23M138.35 286.23L137.58 287.16M137.58 287.16L137.1 288.27"
fill="none" stroke="black" stroke-width="2"/>
<path d="M134.36 310.36L134.35 272.42"
fill="none" stroke="black" stroke-width="2"/>
<path d="M141.01 285.86L141.01 249.28"
fill="none" stroke="black" stroke-width="2"/>
<path d="M134.67 310.36L134.58 310.2M134.58 310.2L134.36 310.14M134.36 310.14L134.15 310.2M134.15 310.2L134.06 310.36M134.06 310.36L134.15 310.51M134.15 310.51L134.36 310.58M134.36 310.58L134.58 310.51M134.58 310.51L134.67 310.36"
fill="none" stroke="black" stroke-width="2"/>
<path d="M141.31 285.86L141.23 285.71M141.23 285.71L141.01 285.64M141.01 285.64L140.8 285.71M140.8 285.71L140.71 285.86M140.71 285.86L140.8 286.02M140.8 286.02L141.01 286.08M141.01 286.08L141.23 286.02M141.23 286.02L141.31 285.86"
fill="none" stroke="black" stroke-width="2"/>
<path d="M134.36 263.05L134.36 163.33"
fill="none" stroke="black" stroke-width="2"/>
<path d="M139.29 227.13L139.29 159.87"
fill="none" stroke="black" stroke-width="2"/>
<path d="M142.02 241.72L138.42 268.75"
fill="none" stroke="black" stroke-width="2"/>
<path d="M133.61 240.6L130.01 267.63"
fill="none" stroke="black" stroke-width="2"/>
<path d="M129.97 268.19L130.16 266.94M130.16 266.94L130.71 265.8M130.71 265.8L131.57 264.87M131.57 264.87L132.66 264.24M132.66 264.24L133.9 263.96M133.9 263.96L135.16 264.05M135.16 264.05L136.33 264.51M136.33 264.51L137.32 265.3M137.32 265.3L138.04 266.34M138.04 266.34L138.41 267.55M138.41 267.55L138.41 268.82M138.41 268.82L138.04 270.03M138.04 270.03L137.32 271.07M137.32 271.07L136.33 271.86M136.33 271.86L135.16 272.32M135.16 272.32L133.9 272.42M133.9 272.42L132.66 272.13M132.66 272.13L131.57 271.5M131.57 271.5L130.71 270.57M130.71 270.57L130.16 269.44M130.16 269.44L129.97 268.19"
fill="none" stroke="black" stroke-width="2"/>
<path d="M143.49 230.64L143.48 229.44M143.48 229.44L143.13 228.28M143.13 228.28L142.47 227.27M142.47 227.27L141.54 226.49M141.54 226.49L140.44 226M140.44 226L139.24 225.84M139.24 225.84L138.05 226.03M138.05 226.03L136.96 226.54M136.96 226.54L136.05 227.34M136.05 227.34L135.41 228.36M135.41 228.36L135.08 229.52"
fill="none" stroke="black" stroke-width="2"/>
<path d="M142.02 241.72L143.49 230.64"
fill="none" stroke="black" stroke-width="2"/>
<path d="M133.61 240.6L135.08 229.52"
fill="none" stroke="black" stroke-width="2"/>
<path d="M134.67 263.05L134.58 262.89M134.58 262.89L134.36 262.83M134.36 262.83L134.15 262.89M134.15 262.89L134.06 263.05M134.06 263.05L134.15 263.21M134.15 263.21L134.36 263.27M134.36 263.27L134.58 263.21M134.58 263.21L134.67 263.05"
fill="none" stroke="black" stroke-width="2"/>
<path d="M139.59 227.13L139.5 226.98M139.5 226.98L139.29 226.91M139.29 226.91L139.07 226.98M139.07 226.98L138.98 227.13M138.98 227.13L139.07 227.29M139.07 227.29L139.29 227.35M139.29 227.35L139.5 227.29M139.5 227.29L139.59 227.13"
fill="none" stroke="black" stroke-width="2"/>
<path d="M201.12 289.15L193.98 315.47"
fill="none" stroke="black" stroke-width="2"/>
<path d="M192.93 286.93L185.79 313.25"
fill="none" stroke="black" stroke-width="2"/>
<path d="M185.65 314.36L185.83 313.11M185.83 313.11L186.38 311.97M186.38 311.97L187.24 311.04M187.24 311.04L188.34 310.41M188.34 310.41L189.57 310.13M189.57 310.13L190.83 310.22M190.83 310.22L192.01 310.68M192.01 310.68L193 311.47M193 311.47L193.71 312.52M193.71 312.52L194.08 313.72M194.08 313.72L194.08 314.99M194.08 314.99L193.71 316.2M193.71 316.2L193 317.24M193 317.24L192.01 318.03M192.01 318.03L190.83 318.49M190.83 318.49L189.57 318.59M189.57 318.59L188.34 318.3M188.34 318.3L187.24 317.67M187.24 317.67L186.38 316.75M186.38 316.75L185.83 315.61M185.83 315.61L185.65 314.36"
fill="none" stroke="black" stroke-width="2"/>
<path d="M201.12 289.15L201.27 287.95M201.27 287.95L201.07 286.76M201.07 286.76L200.55 285.67M200.55 285.67L199.74 284.78M199.74 284.78L198.71 284.15M198.71 284.15L197.54 283.83M197.54 283.83L196.34 283.85M196.34 283.85L195.19 284.22M195.19 284.22L194.18 284.89M194.18 284.89L193.41 285.82M193.41 285.82L192.93 286.93"
fill="none" stroke="black" stroke-width="2"/>
<path d="M190.19 309.02L190.18 233.11"
fill="none" stroke="black" stroke-width="2"/>
<path d="M196.84 284.52L196.63 256.66"
fill="none" stroke="black" stroke-width="2"/>
<path d="M190.5 309.02L190.41 308.86M190.41 308.86L190.19 308.79M190.19 308.79L189.98 308.86M189.98 308.86L189.89 309.02M189.89 309.02L189.98 309.17M189.98 309.17L190.19 309.24M190.19 309.24L190.41 309.17M190.41 309.17L190.5 309.02"
fill="none" stroke="black" stroke-width="2"/>
<path d="M197.14 284.52L197.06 284.36M197.06 284.36L196.84 284.3M196.84 284.3L196.62 284.36M196.62 284.36L196.54 284.52M196.54 284.52L196.62 284.68M196.62 284.68L196.84 284.74M196.84 284.74L197.06 284.68M197.06 284.68L197.14 284.52"
fill="none" stroke="black" stroke-width="2"/>
<path d="M200.14 252.23L193 225.91"
fill="none" stroke="black" stroke-width="2"/>
<path d="M191.96 254.45L184.82 228.13"
fill="none" stroke="black" stroke-width="2"/>
<path d="M184.67 227.02L184.86 225.77M184.86 225.77L185.4 224.63M185.4 224.63L186.26 223.71M186.26 223.71L187.36 223.07M187.36 223.07L188.59 222.79M188.59 222.79L189.85 222.89M189.85 222.89L191.03 223.35M191.03 223.35L192.02 224.14M192.02 224.14L192.73 225.18M192.73 225.18L193.1 226.39M193.1 226.39L193.1 227.66M193.1 227.66L192.73 228.86M192.73 228.86L192.02 229.91M192.02 229.91L191.03 230.7M191.03 230.7L189.85 231.16M189.85 231.16L188.59 231.25M188.59 231.25L187.36 230.97M187.36 230.97L186.26 230.34M186.26 230.34L185.4 229.41M185.4 229.41L184.86 228.27M184.86 228.27L184.67 227.02"
fill="none" stroke="black" stroke-width="2"/>
<path d="M191.96 254.45L192.43 255.56M192.43 255.56L193.21 256.49M193.21 256.49L194.21 257.16M194.21 257.16L195.36 257.53M195.36 257.53L196.57 257.55M196.57 257.55L197.73 257.23M197.73 257.23L198.76 256.6M198.76 256.6L199.57 255.71M199.57 255.71L200.09 254.62M200.09 254.62L200.29 253.43M200.29 253.43L200.14 252.23"
fill="none" stroke="black" stroke-width="2"/>
<path d="M196.93 256.66L196.84 256.51M196.84 256.51L196.63 256.44M196.63 256.44L196.41 256.51M196.41 256.51L196.32 256.66M196.32 256.66L196.41 256.82M196.41 256.82L196.63 256.89M196.63 256.89L196.84 256.82M196.84 256.82L196.93 256.66"
fill="none" stroke="black" stroke-width="2"/>
<path d="M190.49 233.11L190.4 232.96M190.4 232.96L190.18 232.89M190.18 232.89L189.97 232.96M189.97 232.96L189.88 233.11M189.88 233.11L189.97 233.27M189.97 233.27L190.18 233.33M190.18 233.33L190.4 233.27M190.4 233.27L190.49 233.11"
fill="none" stroke="black" stroke-width="2"/>
<path d="M190.19 222.88L190.19 165.39"
fill="none" stroke="black" stroke-width="2"/>
<path d="M196.83 240.02L196.64 160.85"
fill="none" stroke="black" stroke-width="2"/>
<path d="M260.5 291.41L253.36 317.72"
fill="none" stroke="black" stroke-width="2"/>
<path d="M252.31 289.18L245.17 315.5"
fill="none" stroke="black" stroke-width="2"/>
<path d="M245.02 316.61L245.21 315.36M245.21 315.36L245.76 314.22M245.76 314.22L246.62 313.3M246.62 313.3L247.72 312.66M247.72 312.66L248.95 312.38M248.95 312.38L250.21 312.48M250.21 312.48L251.39 312.94M251.39 312.94L252.38 313.73M252.38 313.73L253.09 314.77M253.09 314.77L253.46 315.98M253.46 315.98L253.46 317.24M253.46 317.24L253.09 318.45M253.09 318.45L252.38 319.5M252.38 319.5L251.39 320.29M251.39 320.29L250.21 320.75M250.21 320.75L248.95 320.84M248.95 320.84L247.72 320.56M247.72 320.56L246.62 319.93M246.62 319.93L245.76 319M245.76 319L245.21 317.86M245.21 317.86L245.02 316.61"
fill="none" stroke="black" stroke-width="2"/>
<path d="M260.5 291.41L260.65 290.21M260.65 290.21L260.45 289.02M260.45 289.02L259.93 287.93M259.93 287.93L259.12 287.03M259.12 287.03L258.09 286.4M258.09 286.4L256.92 286.09M256.92 286.09L255.71 286.11M255.71 286.11L254.56 286.47M254.56 286.47L253.56 287.15M253.56 287.15L252.79 288.08M252.79 288.08L252.31 289.18"
fill="none" stroke="black" stroke-width="2"/>
<path d="M249.57 311.27L249.56 273.34"
fill="none" stroke="black" stroke-width="2"/>
<path d="M256.22 286.78L256.22 250.2"
fill="none" stroke="black" stroke-width="2"/>
<path d="M249.87 311.27L249.78 311.11M249.78 311.11L249.57 311.05M249.57 311.05L249.35 311.11M249.35 311.11L249.26 311.27M249.26 311.27L249.35 311.43M249.35 311.43L249.57 311.49M249.57 311.49L249.78 311.43M249.78 311.43L249.87 311.27"
fill="none" stroke="black" stroke-width="2"/>
<path d="M256.52 286.78L256.43 286.62M256.43 286.62L256.22 286.56M256.22 286.56L256 286.62M256 286.62L255.91 286.78M255.91 286.78L256 286.93M256 286.93L256.22 287M256.22 287L256.43 286.93M256.43 286.93L256.52 286.78"
fill="none" stroke="black" stroke-width="2"/>
<path d="M249.57 263.96L249.57 167.06"
fill="none" stroke="black" stroke-width="2"/>
<path d="M254.5 228.05L254.5 161.61"
fill="none" stroke="black" stroke-width="2"/>
<path d="M257.23 242.63L253.63 269.66"
fill="none" stroke="black" stroke-width="2"/>
<path d="M248.82 241.51L245.21 268.54"
fill="none" stroke="black" stroke-width="2"/>
<path d="M245.18 269.1L245.37 267.85M245.37 267.85L245.91 266.71M245.91 266.71L246.78 265.78M246.78 265.78L247.87 265.15M247.87 265.15L249.1 264.87M249.1 264.87L250.36 264.96M250.36 264.96L251.54 265.43M251.54 265.43L252.53 266.21M252.53 266.21L253.24 267.26M253.24 267.26L253.62 268.47M253.62 268.47L253.62 269.73M253.62 269.73L253.24 270.94M253.24 270.94L252.53 271.98M252.53 271.98L251.54 272.77M251.54 272.77L250.36 273.23M250.36 273.23L249.1 273.33M249.1 273.33L247.87 273.05M247.87 273.05L246.78 272.42M246.78 272.42L245.91 271.49M245.91 271.49L245.37 270.35M245.37 270.35L245.18 269.1"
fill="none" stroke="black" stroke-width="2"/>
<path d="M258.7 231.56L258.69 230.35M258.69 230.35L258.34 229.2M258.34 229.2L257.67 228.19M257.67 228.19L256.75 227.41M256.75 227.41L255.65 226.92M255.65 226.92L254.45 226.76M254.45 226.76L253.26 226.94M253.26 226.94L252.17 227.45M252.17 227.45L251.26 228.25M251.26 228.25L250.62 229.28M250.62 229.28L250.29 230.44"
fill="none" stroke="black" stroke-width="2"/>
<path d="M257.23 242.63L258.7 231.56"
fill="none" stroke="black" stroke-width="2"/>
<path d="M248.82 241.51L250.29 230.44"
fill="none" stroke="black" stroke-width="2"/>
<path d="M249.87 263.96L249.78 263.81M249.78 263.81L249.57 263.74M249.57 263.74L249.35 263.81M249.35 263.81L249.26 263.96M249.26 263.96L249.35 264.12M249.35 264.12L249.57 264.19M249.57 264.19L249.78 264.12M249.78 264.12L249.87 263.96"
fill="none" stroke="black" stroke-width="2"/>
<path d="M254.8 228.05L254.71 227.89M254.71 227.89L254.5 227.83M254.5 227.83L254.28 227.89M254.28 227.89L254.19 228.05M254.19 228.05L254.28 228.2M254.28 228.2L254.5 228.27M254.5 228.27L254.71 228.2M254.71 228.2L254.8 228.05"
fill="none" stroke="black" stroke-width="2"/>
<path d="M316.33 290.06L309.19 316.38"
fill="none" stroke="black" stroke-width="2"/>
<path d="M308.14 287.84L301 314.16"
fill="none" stroke="black" stroke-width="2"/>
<path d="M300.85 315.27L301.04 314.02M301.04 314.02L301.59 312.88M301.59 312.88L302.45 311.95M302.45 311.95L303.55 311.32M303.55 311.32L304.78 311.04M304.78 311.04L306.04 311.13M306.04 311.13L307.22 311.6M307.22 311.6L308.2 312.39M308.2 312.39L308.92 313.43M308.92 313.43L309.29 314.64M309.29 314.64L309.29 315.9M309.29 315.9L308.92 317.11M308.92 317.11L308.2 318.16M308.2 318.16L307.22 318.94M307.22 318.94L306.04 319.41M306.04 319.41L304.78 319.5M304.78 319.5L303.55 319.22M303.55 319.22L302.45 318.59M302.45 318.59L301.59 317.66M301.59 317.66L301.04 316.52M301.04 316.52L300.85 315.27"
fill="none" stroke="black" stroke-width="2"/>
<path d="M316.33 290.06L316.48 288.87M316.48 288.87L316.28 287.67M316.28 287.67L315.76 286.59M315.76 286.59L314.95 285.69M314.95 285.69L313.92 285.06M313.92 285.06L312.75 284.74M312.75 284.74L311.54 284.77M311.54 284.77L310.39 285.13M310.39 285.13L309.39 285.81M309.39 285.81L308.62 286.73M308.62 286.73L308.14 287.84"
fill="none" stroke="black" stroke-width="2"/>
<path d="M305.4 309.93L305.39 234.03"
fill="none" stroke="black" stroke-width="2"/>
<path d="M312.05 285.43L311.84 257.58"
fill="none" stroke="black" stroke-width="2"/>
<path d="M305.7 309.93L305.61 309.77M305.61 309.77L305.4 309.71M305.4 309.71L305.18 309.77M305.18 309.77L305.09 309.93M305.09 309.93L305.18 310.09M305.18 310.09L305.4 310.15M305.4 310.15L305.61 310.09M305.61 310.09L305.7 309.93"
fill="none" stroke="black" stroke-width="2"/>
<path d="M312.35 285.43L312.26 285.28M312.26 285.28L312.05 285.21M312.05 285.21L311.83 285.28M311.83 285.28L311.74 285.43M311.74 285.43L311.83 285.59M311.83 285.59L312.05 285.66M312.05 285.66L312.26 285.59M312.26 285.59L312.35 285.43"
fill="none" stroke="black" stroke-width="2"/>
<path d="M315.35 253.14L308.21 226.83"
fill="none" stroke="black" stroke-width="2"/>
<path d="M307.16 255.36L300.02 229.05"
fill="none" stroke="black" stroke-width="2"/>
<path d="M299.87 227.94L300.06 226.69M300.06 226.69L300.61 225.55M300.61 225.55L301.47 224.62M301.47 224.62L302.57 223.99M302.57 223.99L303.8 223.71M303.8 223.71L305.06 223.8M305.06 223.8L306.24 224.26M306.24 224.26L307.23 225.05M307.23 225.05L307.94 226.1M307.94 226.1L308.31 227.3M308.31 227.3L308.31 228.57M308.31 228.57L307.94 229.78M307.94 229.78L307.23 230.82M307.23 230.82L306.24 231.61M306.24 231.61L305.06 232.07M305.06 232.07L303.8 232.17M303.8 232.17L302.57 231.89M302.57 231.89L301.47 231.25M301.47 231.25L300.61 230.33M300.61 230.33L300.06 229.19M300.06 229.19L299.87 227.94"
fill="none" stroke="black" stroke-width="2"/>
<path d="M307.16 255.36L307.64 256.47M307.64 256.47L308.41 257.4M308.41 257.4L309.42 258.08M309.42 258.08L310.57 258.44M310.57 258.44L311.77 258.46M311.77 258.46L312.94 258.15M312.94 258.15L313.97 257.52M313.97 257.52L314.78 256.62M314.78 256.62L315.3 255.53M315.3 255.53L315.5 254.34M315.5 254.34L315.35 253.14"
fill="none" stroke="black" stroke-width="2"/>
<path d="M312.14 257.58L312.05 257.42M312.05 257.42L311.84 257.36M311.84 257.36L311.62 257.42M311.62 257.42L311.53 257.58M311.53 257.58L311.62 257.73M311.62 257.73L311.84 257.8M311.84 257.8L312.05 257.73M312.05 257.73L312.14 257.58"
fill="none" stroke="black" stroke-width="2"/>
<path d="M305.7 234.03L305.61 233.87M305.61 233.87L305.39 233.81M305.39 233.81L305.18 233.87M305.18 233.87L305.09 234.03M305.09 234.03L305.18 234.18M305.18 234.18L305.39 234.25M305.39 234.25L305.61 234.18M305.61 234.18L305.7 234.03"
fill="none" stroke="black" stroke-width="2"/>
<path d="M305.4 223.79L305.39 168.14"
fill="none" stroke="black" stroke-width="2"/>
<path d="M312.04 240.93L311.85 162.12"
fill="none" stroke="black" stroke-width="2"/>
<path d="M375.71 290.49L368.57 316.81"
fill="none" stroke="black" stroke-width="2"/>
<path d="M367.52 288.27L360.38 314.59"
fill="none" stroke="black" stroke-width="2"/>
<path d="M360.23 315.7L360.42 314.45M360.42 314.45L360.97 313.31M360.97 313.31L361.83 312.38M361.83 312.38L362.92 311.75M362.92 311.75L364.16 311.47M364.16 311.47L365.42 311.56M365.42 311.56L366.59 312.03M366.59 312.03L367.58 312.81M367.58 312.81L368.3 313.86M368.3 313.86L368.67 315.07M368.67 315.07L368.67 316.33M368.67 316.33L368.3 317.54M368.3 317.54L367.58 318.58M367.58 318.58L366.59 319.37M366.59 319.37L365.42 319.83M365.42 319.83L364.16 319.93M364.16 319.93L362.92 319.65M362.92 319.65L361.83 319.01M361.83 319.01L360.97 318.09M360.97 318.09L360.42 316.95M360.42 316.95L360.23 315.7"
fill="none" stroke="black" stroke-width="2"/>
<path d="M375.71 290.49L375.85 289.29M375.85 289.29L375.66 288.1M375.66 288.1L375.13 287.01M375.13 287.01L374.32 286.12M374.32 286.12L373.3 285.49M373.3 285.49L372.13 285.17M372.13 285.17L370.92 285.2M370.92 285.2L369.77 285.56M369.77 285.56L368.77 286.23M368.77 286.23L368 287.16M368 287.16L367.52 288.27"
fill="none" stroke="black" stroke-width="2"/>
<path d="M364.78 310.36L364.77 272.42"
fill="none" stroke="black" stroke-width="2"/>
<path d="M371.43 285.86L371.43 249.28"
fill="none" stroke="black" stroke-width="2"/>
<path d="M365.08 310.36L364.99 310.2M364.99 310.2L364.78 310.14M364.78 310.14L364.56 310.2M364.56 310.2L364.47 310.36M364.47 310.36L364.56 310.51M364.56 310.51L364.78 310.58M364.78 310.58L364.99 310.51M364.99 310.51L365.08 310.36"
fill="none" stroke="black" stroke-width="2"/>
<path d="M371.73 285.86L371.64 285.71M371.64 285.71L371.43 285.64M371.43 285.64L371.21 285.71M371.21 285.71L371.12 285.86M371.12 285.86L371.21 286.02M371.21 286.02L371.43 286.08M371.43 286.08L371.64 286.02M371.64 286.02L371.73 285.86"
fill="none" stroke="black" stroke-width="2"/>
<path d="M364.78 263.05L364.78 168.77"
fill="none" stroke="black" stroke-width="2"/>
<path d="M369.7 227.13L369.7 162.4"
fill="none" stroke="black" stroke-width="2"/>
<path d="M372.43 241.72L368.83 268.75"
fill="none" stroke="black" stroke-width="2"/>
<path d="M364.02 240.6L360.42 267.63"
fill="none" stroke="black" stroke-width="2"/>
<path d="M360.39 268.19L360.57 266.94M360.57 266.94L361.12 265.8M361.12 265.8L361.98 264.87M361.98 264.87L363.08 264.24M363.08 264.24L364.31 263.96M364.31 263.96L365.57 264.05M365.57 264.05L366.75 264.51M366.75 264.51L367.74 265.3M367.74 265.3L368.45 266.34M368.45 266.34L368.82 267.55M368.82 267.55L368.82 268.82M368.82 268.82L368.45 270.03M368.45 270.03L367.74 271.07M367.74 271.07L366.75 271.86M366.75 271.86L365.57 272.32M365.57 272.32L364.31 272.42M364.31 272.42L363.08 272.13M363.08 272.13L361.98 271.5M361.98 271.5L361.12 270.57M361.12 270.57L360.57 269.44M360.57 269.44L360.39 268.19"
fill="none" stroke="black" stroke-width="2"/>
<path d="M373.91 230.64L373.9 229.44M373.9 229.44L373.54 228.28M373.54 228.28L372.88 227.27M372.88 227.27L371.96 226.49M371.96 226.49L370.86 226M370.86 226L369.66 225.84M369.66 225.84L368.47 226.03M368.47 226.03L367.37 226.54M367.37 226.54L366.47 227.34M366.47 227.34L365.83 228.36M365.83 228.36L365.5 229.52"
fill="none" stroke="black" stroke-width="2"/>
<path d="M372.43 241.72L373.91 230.64"
fill="none" stroke="black" stroke-width="2"/>
<path d="M364.02 240.6L365.5 229.52"
fill="none" stroke="black" stroke-width="2"/>
<path d="M365.08 263.05L364.99 262.89M364.99 262.89L364.78 262.83M364.78 262.83L364.56 262.89M364.56 262.89L364.47 263.05M364.47 263.05L364.56 263.21M364.56 263.21L364.78 263.27M364.78 263.27L364.99 263.21M364.99 263.21L365.08 263.05"
fill="none" stroke="black" stroke-width="2"/>
<path d="M370.01 227.13L369.92 226.98M369.92 226.98L369.7 226.91M369.7 226.91L369.49 226.98M369.49 226.98L369.4 227.13M369.4 227.13L369.49 227.29M369.49 227.29L369.7 227.35M369.7 227.35L369.92 227.29M369.92 227.29L370.01 227.13"
fill="none" stroke="black" stroke-width="2"/>
<path d="M431.54 289.15L424.4 315.47"
fill="none" stroke="black" stroke-width="2"/>
<path d="M423.35 286.93L416.21 313.25"
fill="none" stroke="black" stroke-width="2"/>
<path d="M416.06 314.36L416.25 313.11M416.25 313.11L416.8 311.97M416.8 311.97L417.66 311.04M417.66 311.04L418.75 310.41M418.75 310.41L419.99 310.13M419.99 310.13L421.25 310.22M421.25 310.22L422.42 310.68M422.42 310.68L423.41 311.47M423.41 311.47L424.13 312.52M424.13 312.52L424.5 313.72M424.5 313.72L424.5 314.99M424.5 314.99L424.13 316.2M424.13 316.2L423.41 317.24M423.41 317.24L422.42 318.03M422.42 318.03L421.25 318.49M421.25 318.49L419.99 318.59M419.99 318.59L418.75 318.3M418.75 318.3L417.66 317.67M417.66 317.67L416.8 316.75M416.8 316.75L416.25 315.61M416.25 315.61L416.06 314.36"
fill="none" stroke="black" stroke-width="2"/>
<path d="M431.54 289.15L431.68 287.95M431.68 287.95L431.49 286.76M431.49 286.76L430.96 285.67M430.96 285.67L430.15 284.78M430.15 284.78L429.12 284.15M429.12 284.15L427.96 283.83M427.96 283.83L426.75 283.85M426.75 283.85L425.6 284.22M425.6 284.22L424.6 284.89M424.6 284.89L423.83 285.82M423.83 285.82L423.35 286.93"
fill="none" stroke="black" stroke-width="2"/>
<path d="M420.61 309.02L420.6 233.11"
fill="none" stroke="black" stroke-width="2"/>
<path d="M427.26 284.52L427.04 256.66"
fill="none" stroke="black" stroke-width="2"/>
<path d="M420.91 309.02L420.82 308.86M420.82 308.86L420.61 308.79M420.61 308.79L420.39 308.86M420.39 308.86L420.3 309.02M420.3 309.02L420.39 309.17M420.39 309.17L420.61 309.24M420.61 309.24L420.82 309.17M420.82 309.17L420.91 309.02"
fill="none" stroke="black" stroke-width="2"/>
<path d="M427.56 284.52L427.47 284.36M427.47 284.36L427.26 284.3M427.26 284.3L427.04 284.36M427.04 284.36L426.95 284.52M426.95 284.52L427.04 284.68M427.04 284.68L427.26 284.74M427.26 284.74L427.47 284.68M427.47 284.68L427.56 284.52"
fill="none" stroke="black" stroke-width="2"/>
<path d="M430.56 252.23L423.42 225.91"
fill="none" stroke="black" stroke-width="2"/>
<path d="M422.37 254.45L415.23 228.13"
fill="none" stroke="black" stroke-width="2"/>
<path d="M415.08 227.02L415.27 225.77M415.27 225.77L415.82 224.63M415.82 224.63L416.68 223.71M416.68 223.71L417.78 223.07M417.78 223.07L419.01 222.79M419.01 222.79L420.27 222.89M420.27 222.89L421.45 223.35M421.45 223.35L422.44 224.14M422.44 224.14L423.15 225.18M423.15 225.18L423.52 226.39M423.52 226.39L423.52 227.66M423.52 227.66L423.15 228.86M423.15 228.86L422.44 229.91M422.44 229.91L421.45 230.7M421.45 230.7L420.27 231.16M420.27 231.16L419.01 231.25M419.01 231.25L417.78 230.97M417.78 230.97L416.68 230.34M416.68 230.34L415.82 229.41M415.82 229.41L415.27 228.27M415.27 228.27L415.08 227.02"
fill="none" stroke="black" stroke-width="2"/>
<path d="M422.37 254.45L422.85 255.56M422.85 255.56L423.62 256.49M423.62 256.49L424.62 257.16M424.62 257.16L425.77 257.53M425.77 257.53L426.98 257.55M426.98 257.55L428.15 257.23M428.15 257.23L429.18 256.6M429.18 256.6L429.99 255.71M429.99 255.71L430.51 254.62M430.51 254.62L430.71 253.43M430.71 253.43L430.56 252.23"
fill="none" stroke="black" stroke-width="2"/>
<path d="M427.35 256.66L427.26 256.51M427.26 256.51L427.04 256.44M427.04 256.44L426.83 256.51M426.83 256.51L426.74 256.66M426.74 256.66L426.83 256.82M426.83 256.82L427.04 256.89M427.04 256.89L427.26 256.82M427.26 256.82L427.35 256.66"
fill="none" stroke="black" stroke-width="2"/>
<path d="M420.9 233.11L420.82 232.96M420.82 232.96L420.6 232.89M420.6 232.89L420.38 232.96M420.38 232.96L420.3 233.11M420.3 233.11L420.38 233.27M420.38 233.27L420.6 233.33M420.6 233.33L420.82 233.27M420.82 233.27L420.9 233.11"
fill="none" stroke="black" stroke-width="2"/>
<path d="M420.61 222.88L420.6 168.87"
fill="none" stroke="black" stroke-width="2"/>
<path d="M427.25 240.02L427.06 162.45"
fill="none" stroke="black" stroke-width="2"/>
<path d="M488.17 290.03L481.03 316.35"
fill="none" stroke="black" stroke-width="2"/>
<path d="M479.98 287.81L472.84 314.13"
fill="none" stroke="black" stroke-width="2"/>
<path d="M472.7 315.24L472.88 313.99M472.88 313.99L473.43 312.85M473.43 312.85L474.29 311.93M474.29 311.93L475.39 311.29M475.39 311.29L476.62 311.01M476.62 311.01L477.88 311.11M477.88 311.11L479.06 311.57M479.06 311.57L480.05 312.36M480.05 312.36L480.76 313.4M480.76 313.4L481.13 314.61M481.13 314.61L481.13 315.87M481.13 315.87L480.76 317.08M480.76 317.08L480.05 318.13M480.05 318.13L479.06 318.91M479.06 318.91L477.88 319.38M477.88 319.38L476.62 319.47M476.62 319.47L475.39 319.19M475.39 319.19L474.29 318.56M474.29 318.56L473.43 317.63M473.43 317.63L472.88 316.49M472.88 316.49L472.7 315.24"
fill="none" stroke="black" stroke-width="2"/>
<path d="M488.17 290.03L488.32 288.84M488.32 288.84L488.12 287.65M488.12 287.65L487.6 286.56M487.6 286.56L486.79 285.66M486.79 285.66L485.76 285.03M485.76 285.03L484.59 284.71M484.59 284.71L483.39 284.74M483.39 284.74L482.24 285.1M482.24 285.1L481.23 285.78M481.23 285.78L480.46 286.71M480.46 286.71L479.98 287.81"
fill="none" stroke="black" stroke-width="2"/>
<path d="M477.24 309.9L477.24 271.97"
fill="none" stroke="black" stroke-width="2"/>
<path d="M483.89 285.41L483.89 248.83"
fill="none" stroke="black" stroke-width="2"/>
<path d="M477.55 309.9L477.46 309.74M477.46 309.74L477.24 309.68M477.24 309.68L477.03 309.74M477.03 309.74L476.94 309.9M476.94 309.9L477.03 310.06M477.03 310.06L477.24 310.12M477.24 310.12L477.46 310.06M477.46 310.06L477.55 309.9"
fill="none" stroke="black" stroke-width="2"/>
<path d="M484.19 285.41L484.11 285.25M484.11 285.25L483.89 285.18M483.89 285.18L483.68 285.25M483.68 285.25L483.59 285.41M483.59 285.41L483.68 285.56M483.68 285.56L483.89 285.63M483.89 285.63L484.11 285.56M484.11 285.56L484.19 285.41"
fill="none" stroke="black" stroke-width="2"/>
<path d="M477.24 262.59L477.24 168.49"
fill="none" stroke="black" stroke-width="2"/>
<path d="M482.17 226.68L482.17 162.27"
fill="none" stroke="black" stroke-width="2"/>
<path d="M484.9 241.26L481.3 268.29"
fill="none" stroke="black" stroke-width="2"/>
<path d="M476.49 240.14L472.89 267.17"
fill="none" stroke="black" stroke-width="2"/>
<path d="M472.85 267.73L473.04 266.48M473.04 266.48L473.59 265.34M473.59 265.34L474.45 264.41M474.45 264.41L475.54 263.78M475.54 263.78L476.78 263.5M476.78 263.5L478.04 263.59M478.04 263.59L479.21 264.05M479.21 264.05L480.2 264.84M480.2 264.84L480.92 265.89M480.92 265.89L481.29 267.1M481.29 267.1L481.29 268.36M481.29 268.36L480.92 269.57M480.92 269.57L480.2 270.61M480.2 270.61L479.21 271.4M479.21 271.4L478.04 271.86M478.04 271.86L476.78 271.96M476.78 271.96L475.54 271.68M475.54 271.68L474.45 271.04M474.45 271.04L473.59 270.12M473.59 270.12L473.04 268.98M473.04 268.98L472.85 267.73"
fill="none" stroke="black" stroke-width="2"/>
<path d="M486.37 230.19L486.36 228.98M486.36 228.98L486.01 227.82M486.01 227.82L485.35 226.82M485.35 226.82L484.42 226.03M484.42 226.03L483.32 225.54M483.32 225.54L482.12 225.38M482.12 225.38L480.93 225.57M480.93 225.57L479.84 226.08M479.84 226.08L478.93 226.88M478.93 226.88L478.29 227.9M478.29 227.9L477.96 229.07"
fill="none" stroke="black" stroke-width="2"/>
<path d="M484.9 241.26L486.37 230.19"
fill="none" stroke="black" stroke-width="2"/>
<path d="M476.49 240.14L477.96 229.07"
fill="none" stroke="black" stroke-width="2"/>
<path d="M477.55 262.59L477.46 262.44M477.46 262.44L477.24 262.37M477.24 262.37L477.03 262.44M477.03 262.44L476.94 262.59M476.94 262.59L477.03 262.75M477.03 262.75L477.24 262.82M477.24 262.82L477.46 262.75M477.46 262.75L477.55 262.59"
fill="none" stroke="black" stroke-width="2"/>
<path d="M482.47 226.68L482.38 226.52M482.38 226.52L482.17 226.46M482.17 226.46L481.95 226.52M481.95 226.52L481.86 226.68M481.86 226.68L481.95 226.83M481.95 226.83L482.17 226.9M482.17 226.9L482.38 226.83M482.38 226.83L482.47 226.68"
fill="none" stroke="black" stroke-width="2"/>
<path d="M544 288.69L536.86 315.01"
fill="none" stroke="black" stroke-width="2"/>
<path d="M535.81 286.47L528.67 312.79"
fill="none" stroke="black" stroke-width="2"/>
<path d="M528.53 313.9L528.71 312.65M528.71 312.65L529.26 311.51M529.26 311.51L530.12 310.58M530.12 310.58L531.22 309.95M531.22 309.95L532.45 309.67M532.45 309.67L533.71 309.76M533.71 309.76L534.89 310.23M534.89 310.23L535.88 311.01M535.88 311.01L536.59 312.06M536.59 312.06L536.96 313.27M536.96 313.27L536.96 314.53M536.96 314.53L536.59 315.74M536.59 315.74L535.88 316.78M535.88 316.78L534.89 317.57M534.89 317.57L533.71 318.03M533.71 318.03L532.45 318.13M532.45 318.13L531.22 317.85M531.22 317.85L530.12 317.22M530.12 317.22L529.26 316.29M529.26 316.29L528.71 315.15M528.71 315.15L528.53 313.9"
fill="none" stroke="black" stroke-width="2"/>
<path d="M544 288.69L544.15 287.49M544.15 287.49L543.95 286.3M543.95 286.3L543.43 285.22M543.43 285.22L542.62 284.32M542.62 284.32L541.59 283.69M541.59 283.69L540.42 283.37M540.42 283.37L539.22 283.4M539.22 283.4L538.07 283.76M538.07 283.76L537.06 284.43M537.06 284.43L536.29 285.36M536.29 285.36L535.81 286.47"
fill="none" stroke="black" stroke-width="2"/>
<path d="M533.07 308.56L533.06 232.66"
fill="none" stroke="black" stroke-width="2"/>
<path d="M539.72 284.06L539.51 256.21"
fill="none" stroke="black" stroke-width="2"/>
<path d="M533.38 308.56L533.29 308.4M533.29 308.4L533.07 308.34M533.07 308.34L532.86 308.4M532.86 308.4L532.77 308.56M532.77 308.56L532.86 308.71M532.86 308.71L533.07 308.78M533.07 308.78L533.29 308.71M533.29 308.71L533.38 308.56"
fill="none" stroke="black" stroke-width="2"/>
<path d="M540.02 284.06L539.94 283.91M539.94 283.91L539.72 283.84M539.72 283.84L539.5 283.91M539.5 283.91L539.42 284.06M539.42 284.06L539.5 284.22M539.5 284.22L539.72 284.28M539.72 284.28L539.94 284.22M539.94 284.22L540.02 284.06"
fill="none" stroke="black" stroke-width="2"/>
<path d="M543.02 251.77L535.88 225.46"
fill="none" stroke="black" stroke-width="2"/>
<path d="M534.84 253.99L527.7 227.68"
fill="none" stroke="black" stroke-width="2"/>
<path d="M527.55 226.57L527.74 225.32M527.74 225.32L528.28 224.18M528.28 224.18L529.15 223.25M529.15 223.25L530.24 222.62M530.24 222.62L531.47 222.34M531.47 222.34L532.73 222.43M532.73 222.43L533.91 222.89M533.91 222.89L534.9 223.68M534.9 223.68L535.61 224.73M535.61 224.73L535.99 225.93M535.99 225.93L535.99 227.2M535.99 227.2L535.61 228.41M535.61 228.41L534.9 229.45M534.9 229.45L533.91 230.24M533.91 230.24L532.73 230.7M532.73 230.7L531.47 230.8M531.47 230.8L530.24 230.51M530.24 230.51L529.15 229.88M529.15 229.88L528.28 228.96M528.28 228.96L527.74 227.82M527.74 227.82L527.55 226.57"
fill="none" stroke="black" stroke-width="2"/>
<path d="M534.84 253.99L535.31 255.1M535.31 255.1L536.09 256.03M536.09 256.03L537.09 256.7M537.09 256.7L538.24 257.07M538.24 257.07L539.45 257.09M539.45 257.09L540.61 256.78M540.61 256.78L541.64 256.15M541.64 256.15L542.45 255.25M542.45 255.25L542.97 254.16M542.97 254.16L543.17 252.97M543.17 252.97L543.02 251.77"
fill="none" stroke="black" stroke-width="2"/>
<path d="M539.81 256.21L539.72 256.05M539.72 256.05L539.51 255.99M539.51 255.99L539.29 256.05M539.29 256.05L539.2 256.21M539.2 256.21L539.29 256.36M539.29 256.36L539.51 256.43M539.51 256.43L539.72 256.36M539.72 256.36L539.81 256.21"
fill="none" stroke="black" stroke-width="2"/>
<path d="M533.37 232.66L533.28 232.5M533.28 232.5L533.06 232.43M533.06 232.43L532.85 232.5M532.85 232.5L532.76 232.66M532.76 232.66L532.85 232.81M532.85 232.81L533.06 232.88M533.06 232.88L533.28 232.81M533.28 232.81L533.37 232.66"
fill="none" stroke="black" stroke-width="2"/>
<path d="M533.07 222.42L533.07 167.63"
fill="none" stroke="black" stroke-width="2"/>
<path d="M539.71 239.56L539.52 161.86"
fill="none" stroke="black" stroke-width="2"/>
<path d="M605.21 290.95L598.07 317.27"
fill="none" stroke="black" stroke-width="2"/>
<path d="M597.02 288.73L589.88 315.04"
fill="none" stroke="black" stroke-width="2"/>
<path d="M589.73 316.16L589.92 314.9M589.92 314.9L590.47 313.77M590.47 313.77L591.33 312.84M591.33 312.84L592.42 312.21M592.42 312.21L593.66 311.93M593.66 311.93L594.92 312.02M594.92 312.02L596.1 312.48M596.1 312.48L597.08 313.27M597.08 313.27L597.8 314.31M597.8 314.31L598.17 315.52M598.17 315.52L598.17 316.79M598.17 316.79L597.8 318M597.8 318L597.08 319.04M597.08 319.04L596.1 319.83M596.1 319.83L594.92 320.29M594.92 320.29L593.66 320.39M593.66 320.39L592.42 320.1M592.42 320.1L591.33 319.47M591.33 319.47L590.47 318.54M590.47 318.54L589.92 317.41M589.92 317.41L589.73 316.16"
fill="none" stroke="black" stroke-width="2"/>
<path d="M605.21 290.95L605.36 289.75M605.36 289.75L605.16 288.56M605.16 288.56L604.63 287.47M604.63 287.47L603.83 286.58M603.83 286.58L602.8 285.94M602.8 285.94L601.63 285.63M601.63 285.63L600.42 285.65M600.42 285.65L599.27 286.02M599.27 286.02L598.27 286.69M598.27 286.69L597.5 287.62M597.5 287.62L597.02 288.73"
fill="none" stroke="black" stroke-width="2"/>
<path d="M594.28 310.81L594.27 272.88"
fill="none" stroke="black" stroke-width="2"/>
<path d="M600.93 286.32L600.93 249.74"
fill="none" stroke="black" stroke-width="2"/>
<path d="M594.58 310.81L594.49 310.66M594.49 310.66L594.28 310.59M594.28 310.59L594.06 310.66M594.06 310.66L593.97 310.81M593.97 310.81L594.06 310.97M594.06 310.97L594.28 311.04M594.28 311.04L594.49 310.97M594.49 310.97L594.58 310.81"
fill="none" stroke="black" stroke-width="2"/>
<path d="M601.23 286.32L601.14 286.16M601.14 286.16L600.93 286.1M600.93 286.1L600.71 286.16M600.71 286.16L600.62 286.32M600.62 286.32L600.71 286.48M600.71 286.48L600.93 286.54M600.93 286.54L601.14 286.48M601.14 286.48L601.23 286.32"
fill="none" stroke="black" stroke-width="2"/>
<path d="M594.28 263.51L594.28 166.15"
fill="none" stroke="black" stroke-width="2"/>
<path d="M599.21 227.59L599.21 161.18"
fill="none" stroke="black" stroke-width="2"/>
<path d="M601.93 242.17L598.33 269.2"
fill="none" stroke="black" stroke-width="2"/>
<path d="M593.52 241.05L589.92 268.08"
fill="none" stroke="black" stroke-width="2"/>
<path d="M589.89 268.64L590.08 267.39M590.08 267.39L590.62 266.25M590.62 266.25L591.48 265.33M591.48 265.33L592.58 264.69M592.58 264.69L593.81 264.41M593.81 264.41L595.07 264.51M595.07 264.51L596.25 264.97M596.25 264.97L597.24 265.76M597.24 265.76L597.95 266.8M597.95 266.8L598.32 268.01M598.32 268.01L598.32 269.27M598.32 269.27L597.95 270.48M597.95 270.48L597.24 271.53M597.24 271.53L596.25 272.32M596.25 272.32L595.07 272.78M595.07 272.78L593.81 272.87M593.81 272.87L592.58 272.59M592.58 272.59L591.48 271.96M591.48 271.96L590.62 271.03M590.62 271.03L590.08 269.89M590.08 269.89L589.89 268.64"
fill="none" stroke="black" stroke-width="2"/>
<path d="M603.41 231.1L603.4 229.89M603.4 229.89L603.05 228.74M603.05 228.74L602.38 227.73M602.38 227.73L601.46 226.95M601.46 226.95L600.36 226.46M600.36 226.46L599.16 226.3M599.16 226.3L597.97 226.48M597.97 226.48L596.87 227M596.87 227L595.97 227.8M595.97 227.8L595.33 228.82M595.33 228.82L595 229.98"
fill="none" stroke="black" stroke-width="2"/>
<path d="M601.93 242.17L603.41 231.1"
fill="none" stroke="black" stroke-width="2"/>
<path d="M593.52 241.05L595 229.98"
fill="none" stroke="black" stroke-width="2"/>
<path d="M594.58 263.51L594.49 263.35M594.49 263.35L594.28 263.29M594.28 263.29L594.06 263.35M594.06 263.35L593.97 263.51M593.97 263.51L594.06 263.66M594.06 263.66L594.28 263.73M594.28 263.73L594.49 263.66M594.49 263.66L594.58 263.51"
fill="none" stroke="black" stroke-width="2"/>
<path d="M599.51 227.59L599.42 227.43M599.42 227.43L599.21 227.37M599.21 227.37L598.99 227.43M598.99 227.43L598.9 227.59M598.9 227.59L598.99 227.75M598.99 227.75L599.21 227.81M599.21 227.81L599.42 227.75M599.42 227.75L599.51 227.59"
fill="none" stroke="black" stroke-width="2"/>
<path d="M661.04 289.61L653.9 315.92"
fill="none" stroke="black" stroke-width="2"/>
<path d="M652.85 287.39L645.71 313.7"
fill="none" stroke="black" stroke-width="2"/>
<path d="M645.56 314.81L645.75 313.56M645.75 313.56L646.3 312.42M646.3 312.42L647.16 311.5M647.16 311.5L648.25 310.86M648.25 310.86L649.49 310.58M649.49 310.58L650.75 310.68M650.75 310.68L651.93 311.14M651.93 311.14L652.91 311.93M652.91 311.93L653.63 312.97M653.63 312.97L654 314.18M654 314.18L654 315.45M654 315.45L653.63 316.65M653.63 316.65L652.91 317.7M652.91 317.7L651.93 318.49M651.93 318.49L650.75 318.95M650.75 318.95L649.49 319.04M649.49 319.04L648.25 318.76M648.25 318.76L647.16 318.13M647.16 318.13L646.3 317.2M646.3 317.2L645.75 316.06M645.75 316.06L645.56 314.81"
fill="none" stroke="black" stroke-width="2"/>
<path d="M661.04 289.61L661.19 288.41M661.19 288.41L660.99 287.22M660.99 287.22L660.46 286.13M660.46 286.13L659.65 285.23M659.65 285.23L658.63 284.6M658.63 284.6L657.46 284.29M657.46 284.29L656.25 284.31M656.25 284.31L655.1 284.68M655.1 284.68L654.1 285.35M654.1 285.35L653.33 286.28M653.33 286.28L652.85 287.39"
fill="none" stroke="black" stroke-width="2"/>
<path d="M650.11 309.47L650.1 233.57"
fill="none" stroke="black" stroke-width="2"/>
<path d="M656.76 284.98L656.54 257.12"
fill="none" stroke="black" stroke-width="2"/>
<path d="M650.41 309.47L650.32 309.32M650.32 309.32L650.11 309.25M650.11 309.25L649.89 309.32M649.89 309.32L649.8 309.47M649.8 309.47L649.89 309.63M649.89 309.63L650.11 309.69M650.11 309.69L650.32 309.63M650.32 309.63L650.41 309.47"
fill="none" stroke="black" stroke-width="2"/>
<path d="M657.06 284.98L656.97 284.82M656.97 284.82L656.76 284.76M656.76 284.76L656.54 284.82M656.54 284.82L656.45 284.98M656.45 284.98L656.54 285.13M656.54 285.13L656.76 285.2M656.76 285.2L656.97 285.13M656.97 285.13L657.06 284.98"
fill="none" stroke="black" stroke-width="2"/>
<path d="M660.06 252.69L652.92 226.37"
fill="none" stroke="black" stroke-width="2"/>
<path d="M651.87 254.91L644.73 228.59"
fill="none" stroke="black" stroke-width="2"/>
<path d="M644.58 227.48L644.77 226.23M644.77 226.23L645.32 225.09M645.32 225.09L646.18 224.16M646.18 224.16L647.28 223.53M647.28 223.53L648.51 223.25M648.51 223.25L649.77 223.34M649.77 223.34L650.95 223.81M650.95 223.81L651.94 224.59M651.94 224.59L652.65 225.64M652.65 225.64L653.02 226.85M653.02 226.85L653.02 228.11M653.02 228.11L652.65 229.32M652.65 229.32L651.94 230.36M651.94 230.36L650.95 231.15M650.95 231.15L649.77 231.62M649.77 231.62L648.51 231.71M648.51 231.71L647.28 231.43M647.28 231.43L646.18 230.8M646.18 230.8L645.32 229.87M645.32 229.87L644.77 228.73M644.77 228.73L644.58 227.48"
fill="none" stroke="black" stroke-width="2"/>
<path d="M651.87 254.91L652.35 256.02M652.35 256.02L653.12 256.94M653.12 256.94L654.12 257.62M654.12 257.62L655.28 257.98M655.28 257.98L656.48 258.01M656.48 258.01L657.65 257.69M657.65 257.69L658.68 257.06M658.68 257.06L659.49 256.16M659.49 256.16L660.01 255.08M660.01 255.08L660.21 253.88M660.21 253.88L660.06 252.69"
fill="none" stroke="black" stroke-width="2"/>
<path d="M656.85 257.12L656.76 256.96M656.76 256.96L656.54 256.9M656.54 256.9L656.33 256.96M656.33 256.96L656.24 257.12M656.24 257.12L656.33 257.28M656.33 257.28L656.54 257.34M656.54 257.34L656.76 257.28M656.76 257.28L656.85 257.12"
fill="none" stroke="black" stroke-width="2"/>
<path d="M650.41 233.57L650.32 233.41M650.32 233.41L650.1 233.35M650.1 233.35L649.89 233.41M649.89 233.41L649.8 233.57M649.8 233.57L649.89 233.73M649.89 233.73L650.1 233.79M650.1 233.79L650.32 233.73M650.32 233.73L650.41 233.57"
fill="none" stroke="black" stroke-width="2"/>
<path d="M650.11 223.33L650.1 164.29"
fill="none" stroke="black" stroke-width="2"/>
<path d="M656.75 240.48L656.56 160.29"
fill="none" stroke="black" stroke-width="2"/>
</svg>
