<?xml version="1.0" encoding="UTF-8"?>
<svg xmlns="http://www.w3.org/2000/svg" width="800.000" height="600.000" viewBox="0.0 0.0 800.000 600.000" version="1.1">
  <title>Produce by Acme CAD Converter</title>
  <desc>Produce by Acme CAD Converter</desc>
<path d="M2.26 80.73L2.26 519.27"
fill="none" stroke="RGB(237,31,36)" stroke-width="0"/>
<path d="M2.82 156.6L52.46 159.45M52.46 159.45L102.11 161.93M102.11 161.93L151.77 164.03M151.77 164.03L201.46 165.75M201.46 165.75L251.15 167.1M251.15 167.1L300.85 168.07M300.85 168.07L350.56 168.67M350.56 168.67L400.27 168.89M400.27 168.89L449.98 168.73M449.98 168.73L499.69 168.2M499.69 168.2L549.4 167.29M549.4 167.29L599.09 166.01M599.09 166.01L648.78 164.34M648.78 164.34L698.45 162.31M698.45 162.31L748.1 159.89M748.1 159.89L797.74 157.1"
fill="none" stroke="RGB(2,158,33)" stroke-width="2"/>
<path d="M2.82 156.6L91.13 158.87M91.13 158.87L179.45 160.58M179.45 160.58L267.78 161.75M267.78 161.75L356.11 162.36M356.11 162.36L444.44 162.41M444.44 162.41L532.78 161.92M532.78 161.92L621.11 160.87M621.11 160.87L709.43 159.26M709.43 159.26L797.74 157.1"
fill="none" stroke="RGB(2,158,33)" stroke-width="2"/>
<path d="M122.28 328.28L122.32 328.17"
fill="none" stroke="black" stroke-width="2"/>
<path d="M126.06 318.78L130.58 307.43"
fill="none" stroke="black" stroke-width="2"/>
<path d="M142.17 318.78L146.69 307.43"
fill="none" stroke="black" stroke-width="2"/>
<path d="M149.18 304.29L149.18 304.32"
fill="none" stroke="black" stroke-width="2"/>
<path d="M130.58 304.29L133.12 297.93"
fill="none" stroke="black" stroke-width="2"/>
<path d="M133.12 297.93L195.95 297.93"
fill="none" stroke="black" stroke-width="2"/>
<path d="M193.41 304.29L195.95 297.93"
fill="none" stroke="black" stroke-width="2"/>
<path d="M138.39 331.43L139.64 328.28"
fill="none" stroke="black" stroke-width="2"/>
<path d="M143.42 318.78L147.94 307.43"
fill="none" stroke="black" stroke-width="2"/>
<path d="M122.28 328.28L138.39 328.28"
fill="none" stroke="black" stroke-width="2"/>
<path d="M138.39 328.28L138.39 331.43"
fill="none" stroke="black" stroke-width="2"/>
<path d="M122.28 328.28L122.28 331.43"
fill="none" stroke="black" stroke-width="2"/>
<path d="M122.28 331.43L138.39 331.43"
fill="none" stroke="black" stroke-width="2"/>
<path d="M130.58 304.29L130.58 307.43"
fill="none" stroke="black" stroke-width="2"/>
<path d="M195.95 297.93L195.95 301.07"
fill="none" stroke="black" stroke-width="2"/>
<path d="M193.41 304.29L193.41 307.43"
fill="none" stroke="black" stroke-width="2"/>
<path d="M172.83 318.78L177.35 307.43"
fill="none" stroke="black" stroke-width="2"/>
<path d="M185.15 328.28L195.95 301.18"
fill="none" stroke="black" stroke-width="2"/>
<path d="M195.95 301.18L195.95 304.32"
fill="none" stroke="black" stroke-width="2"/>
<path d="M185.15 331.43L195.95 304.32"
fill="none" stroke="black" stroke-width="2"/>
<path d="M169.05 328.28L185.15 328.28"
fill="none" stroke="black" stroke-width="2"/>
<path d="M185.15 328.28L185.15 331.43"
fill="none" stroke="black" stroke-width="2"/>
<path d="M169.05 328.28L169.05 331.43"
fill="none" stroke="black" stroke-width="2"/>
<path d="M169.05 331.43L185.15 331.43"
fill="none" stroke="black" stroke-width="2"/>
<path d="M130.58 304.29L193.41 304.29"
fill="none" stroke="black" stroke-width="2"/>
<path d="M130.58 307.43L193.41 307.43"
fill="none" stroke="black" stroke-width="2"/>
<path d="M122.32 325.14L124.86 318.78"
fill="none" stroke="black" stroke-width="2"/>
<path d="M124.86 318.78L187.69 318.78"
fill="none" stroke="black" stroke-width="2"/>
<path d="M185.15 325.14L187.69 318.78"
fill="none" stroke="black" stroke-width="2"/>
<path d="M122.32 325.14L122.32 328.28"
fill="none" stroke="black" stroke-width="2"/>
<path d="M187.69 318.78L187.69 321.92"
fill="none" stroke="black" stroke-width="2"/>
<path d="M185.15 325.14L185.15 328.28"
fill="none" stroke="black" stroke-width="2"/>
<path d="M122.32 325.14L185.15 325.14"
fill="none" stroke="black" stroke-width="2"/>
<path d="M122.32 328.28L185.15 328.28"
fill="none" stroke="black" stroke-width="2"/>
<path d="M130.33 321.96L131.18 163.2"
fill="none" stroke="black" stroke-width="2"/>
<path d="M130.64 321.96L130.55 321.8M130.55 321.8L130.33 321.74M130.33 321.74L130.12 321.8M130.12 321.8L130.03 321.96M130.03 321.96L130.12 322.12M130.12 322.12L130.33 322.18M130.33 322.18L130.55 322.12M130.55 322.12L130.64 321.96"
fill="none" stroke="black" stroke-width="2"/>
<path d="M177.1 321.96L177.96 164.98"
fill="none" stroke="black" stroke-width="2"/>
<path d="M177.4 321.96L177.32 321.8M177.32 321.8L177.1 321.74M177.1 321.74L176.89 321.8M176.89 321.8L176.8 321.96M176.8 321.96L176.89 322.12M176.89 322.12L177.1 322.18M177.1 322.18L177.32 322.12M177.32 322.12L177.4 321.96"
fill="none" stroke="black" stroke-width="2"/>
<path d="M138.59 301.11L139.36 159.87"
fill="none" stroke="black" stroke-width="2"/>
<path d="M138.9 301.11L138.81 300.95M138.81 300.95L138.59 300.89M138.59 300.89L138.38 300.95M138.38 300.95L138.29 301.11M138.29 301.11L138.38 301.27M138.38 301.27L138.59 301.33M138.59 301.33L138.81 301.27M138.81 301.27L138.9 301.11"
fill="none" stroke="black" stroke-width="2"/>
<path d="M185.36 301.11L186.12 160.69"
fill="none" stroke="black" stroke-width="2"/>
<path d="M185.66 301.11L185.57 300.95M185.57 300.95L185.36 300.89M185.36 300.89L185.14 300.95M185.14 300.95L185.05 301.11M185.05 301.11L185.14 301.27M185.14 301.27L185.36 301.33M185.36 301.33L185.57 301.27M185.57 301.27L185.66 301.11"
fill="none" stroke="black" stroke-width="2"/>
<path d="M357.72 333.13L357.77 333.02"
fill="none" stroke="black" stroke-width="2"/>
<path d="M361.51 323.62L366.03 312.28"
fill="none" stroke="black" stroke-width="2"/>
<path d="M377.62 323.62L382.13 312.28"
fill="none" stroke="black" stroke-width="2"/>
<path d="M384.62 309.14L384.62 309.16"
fill="none" stroke="black" stroke-width="2"/>
<path d="M366.03 309.14L368.56 302.77"
fill="none" stroke="black" stroke-width="2"/>
<path d="M368.56 302.77L431.39 302.77"
fill="none" stroke="black" stroke-width="2"/>
<path d="M428.86 309.14L431.39 302.77"
fill="none" stroke="black" stroke-width="2"/>
<path d="M373.83 336.27L375.08 333.13"
fill="none" stroke="black" stroke-width="2"/>
<path d="M378.87 323.62L383.38 312.28"
fill="none" stroke="black" stroke-width="2"/>
<path d="M357.72 333.13L373.83 333.13"
fill="none" stroke="black" stroke-width="2"/>
<path d="M373.83 333.13L373.83 336.27"
fill="none" stroke="black" stroke-width="2"/>
<path d="M357.72 333.13L357.72 336.27"
fill="none" stroke="black" stroke-width="2"/>
<path d="M357.72 336.27L373.83 336.27"
fill="none" stroke="black" stroke-width="2"/>
<path d="M366.03 309.14L366.03 312.28"
fill="none" stroke="black" stroke-width="2"/>
<path d="M431.39 302.77L431.39 305.91"
fill="none" stroke="black" stroke-width="2"/>
<path d="M428.86 309.14L428.86 312.28"
fill="none" stroke="black" stroke-width="2"/>
<path d="M408.28 323.62L412.79 312.28"
fill="none" stroke="black" stroke-width="2"/>
<path d="M420.6 333.13L431.39 306.02"
fill="none" stroke="black" stroke-width="2"/>
<path d="M431.39 306.02L431.39 309.16"
fill="none" stroke="black" stroke-width="2"/>
<path d="M420.6 336.27L431.39 309.16"
fill="none" stroke="black" stroke-width="2"/>
<path d="M404.49 333.13L420.6 333.13"
fill="none" stroke="black" stroke-width="2"/>
<path d="M420.6 333.13L420.6 336.27"
fill="none" stroke="black" stroke-width="2"/>
<path d="M404.49 333.13L404.49 336.27"
fill="none" stroke="black" stroke-width="2"/>
<path d="M404.49 336.27L420.6 336.27"
fill="none" stroke="black" stroke-width="2"/>
<path d="M366.03 309.14L428.86 309.14"
fill="none" stroke="black" stroke-width="2"/>
<path d="M366.03 312.28L428.86 312.28"
fill="none" stroke="black" stroke-width="2"/>
<path d="M357.77 329.99L360.3 323.62"
fill="none" stroke="black" stroke-width="2"/>
<path d="M360.3 323.62L423.13 323.62"
fill="none" stroke="black" stroke-width="2"/>
<path d="M420.6 329.99L423.13 323.62"
fill="none" stroke="black" stroke-width="2"/>
<path d="M357.77 329.99L357.77 333.13"
fill="none" stroke="black" stroke-width="2"/>
<path d="M423.13 323.62L423.13 326.76"
fill="none" stroke="black" stroke-width="2"/>
<path d="M420.6 329.99L420.6 333.13"
fill="none" stroke="black" stroke-width="2"/>
<path d="M357.77 329.99L420.6 329.99"
fill="none" stroke="black" stroke-width="2"/>
<path d="M357.77 333.13L420.6 333.13"
fill="none" stroke="black" stroke-width="2"/>
<path d="M365.78 326.8L366.64 168.78"
fill="none" stroke="black" stroke-width="2"/>
<path d="M366.08 326.8L365.99 326.65M365.99 326.65L365.78 326.58M365.78 326.58L365.56 326.65M365.56 326.65L365.47 326.8M365.47 326.8L365.56 326.96M365.56 326.96L365.78 327.03M365.78 327.03L365.99 326.96M365.99 326.96L366.08 326.8"
fill="none" stroke="black" stroke-width="2"/>
<path d="M412.54 326.8L413.4 168.88"
fill="none" stroke="black" stroke-width="2"/>
<path d="M412.85 326.8L412.76 326.65M412.76 326.65L412.54 326.58M412.54 326.58L412.33 326.65M412.33 326.65L412.24 326.8M412.24 326.8L412.33 326.96M412.33 326.96L412.54 327.03M412.54 327.03L412.76 326.96M412.76 326.96L412.85 326.8"
fill="none" stroke="black" stroke-width="2"/>
<path d="M374.03 305.95L374.82 162.42"
fill="none" stroke="black" stroke-width="2"/>
<path d="M374.34 305.95L374.25 305.8M374.25 305.8L374.03 305.73M374.03 305.73L373.82 305.8M373.82 305.8L373.73 305.95M373.73 305.95L373.82 306.11M373.82 306.11L374.03 306.17M374.03 306.17L374.25 306.11M374.25 306.11L374.34 305.95"
fill="none" stroke="black" stroke-width="2"/>
<path d="M420.8 305.95L421.58 162.45"
fill="none" stroke="black" stroke-width="2"/>
<path d="M421.11 305.95L421.02 305.8M421.02 305.8L420.8 305.73M420.8 305.73L420.59 305.8M420.59 305.8L420.5 305.95M420.5 305.95L420.59 306.11M420.59 306.11L420.8 306.17M420.8 306.17L421.02 306.11M421.02 306.11L421.11 305.95"
fill="none" stroke="black" stroke-width="2"/>
<path d="M594.74 329.4L594.78 329.29"
fill="none" stroke="black" stroke-width="2"/>
<path d="M598.52 319.89L603.04 308.55"
fill="none" stroke="black" stroke-width="2"/>
<path d="M614.63 319.89L619.15 308.55"
fill="none" stroke="black" stroke-width="2"/>
<path d="M621.64 305.41L621.64 305.43"
fill="none" stroke="black" stroke-width="2"/>
<path d="M603.04 305.41L605.58 299.04"
fill="none" stroke="black" stroke-width="2"/>
<path d="M605.58 299.04L668.41 299.04"
fill="none" stroke="black" stroke-width="2"/>
<path d="M665.87 305.41L668.41 299.04"
fill="none" stroke="black" stroke-width="2"/>
<path d="M610.84 332.54L612.1 329.4"
fill="none" stroke="black" stroke-width="2"/>
<path d="M615.88 319.89L620.4 308.55"
fill="none" stroke="black" stroke-width="2"/>
<path d="M594.74 329.4L610.84 329.4"
fill="none" stroke="black" stroke-width="2"/>
<path d="M610.84 329.4L610.84 332.54"
fill="none" stroke="black" stroke-width="2"/>
<path d="M594.74 329.4L594.74 332.54"
fill="none" stroke="black" stroke-width="2"/>
<path d="M594.74 332.54L610.84 332.54"
fill="none" stroke="black" stroke-width="2"/>
<path d="M603.04 305.41L603.04 308.55"
fill="none" stroke="black" stroke-width="2"/>
<path d="M668.41 299.04L668.41 302.18"
fill="none" stroke="black" stroke-width="2"/>
<path d="M665.87 305.41L665.87 308.55"
fill="none" stroke="black" stroke-width="2"/>
<path d="M645.29 319.89L649.81 308.55"
fill="none" stroke="black" stroke-width="2"/>
<path d="M657.61 329.4L668.41 302.29"
fill="none" stroke="black" stroke-width="2"/>
<path d="M668.41 302.29L668.41 305.43"
fill="none" stroke="black" stroke-width="2"/>
<path d="M657.61 332.54L668.41 305.43"
fill="none" stroke="black" stroke-width="2"/>
<path d="M641.51 329.4L657.61 329.4"
fill="none" stroke="black" stroke-width="2"/>
<path d="M657.61 329.4L657.61 332.54"
fill="none" stroke="black" stroke-width="2"/>
<path d="M641.51 329.4L641.51 332.54"
fill="none" stroke="black" stroke-width="2"/>
<path d="M641.51 332.54L657.61 332.54"
fill="none" stroke="black" stroke-width="2"/>
<path d="M603.04 305.41L665.87 305.41"
fill="none" stroke="black" stroke-width="2"/>
<path d="M603.04 308.55L665.87 308.55"
fill="none" stroke="black" stroke-width="2"/>
<path d="M594.78 326.26L597.32 319.89"
fill="none" stroke="black" stroke-width="2"/>
<path d="M597.32 319.89L660.15 319.89"
fill="none" stroke="black" stroke-width="2"/>
<path d="M657.61 326.26L660.15 319.89"
fill="none" stroke="black" stroke-width="2"/>
<path d="M594.78 326.26L594.78 329.4"
fill="none" stroke="black" stroke-width="2"/>
<path d="M660.15 319.89L660.15 323.03"
fill="none" stroke="black" stroke-width="2"/>
<path d="M657.61 326.26L657.61 329.4"
fill="none" stroke="black" stroke-width="2"/>
<path d="M594.78 326.26L657.61 326.26"
fill="none" stroke="black" stroke-width="2"/>
<path d="M594.78 329.4L657.61 329.4"
fill="none" stroke="black" stroke-width="2"/>
<path d="M602.79 323.07L603.65 165.87"
fill="none" stroke="black" stroke-width="2"/>
<path d="M603.1 323.07L603.01 322.92M603.01 322.92L602.79 322.85M602.79 322.85L602.58 322.92M602.58 322.92L602.49 323.07M602.49 323.07L602.58 323.23M602.58 323.23L602.79 323.3M602.79 323.3L603.01 323.23M603.01 323.23L603.1 323.07"
fill="none" stroke="black" stroke-width="2"/>
<path d="M649.56 323.07L650.41 164.28"
fill="none" stroke="black" stroke-width="2"/>
<path d="M649.86 323.07L649.77 322.92M649.77 322.92L649.56 322.85M649.56 322.85L649.34 322.92M649.34 322.92L649.25 323.07M649.25 323.07L649.34 323.23M649.34 323.23L649.56 323.3M649.56 323.3L649.77 323.23M649.77 323.23L649.86 323.07"
fill="none" stroke="black" stroke-width="2"/>
<path d="M611.05 302.22L611.82 161"
fill="none" stroke="black" stroke-width="2"/>
<path d="M611.35 302.22L611.26 302.07M611.26 302.07L611.05 302M611.05 302L610.83 302.07M610.83 302.07L610.75 302.22M610.75 302.22L610.83 302.38M610.83 302.38L611.05 302.44M611.05 302.44L611.26 302.38M611.26 302.38L611.35 302.22"
fill="none" stroke="black" stroke-width="2"/>
<path d="M657.82 302.22L658.59 160.25"
fill="none" stroke="black" stroke-width="2"/>
<path d="M658.12 302.22L658.03 302.07M658.03 302.07L657.82 302M657.82 302L657.6 302.07M657.6 302.07L657.51 302.22M657.51 302.22L657.6 302.38M657.6 302.38L657.82 302.44M657.82 302.44L658.03 302.38M658.03 302.38L658.12 302.22"
fill="none" stroke="black" stroke-width="2"/>
<path d="M242.29 330.95L242.33 330.84"
fill="none" stroke="black" stroke-width="2"/>
<path d="M246.07 321.45L250.59 310.1"
fill="none" stroke="black" stroke-width="2"/>
<path d="M262.18 321.45L266.7 310.1"
fill="none" stroke="black" stroke-width="2"/>
<path d="M269.19 306.96L269.19 306.99"
fill="none" stroke="black" stroke-width="2"/>
<path d="M250.59 306.96L253.13 300.6"
fill="none" stroke="black" stroke-width="2"/>
<path d="M253.13 300.6L315.96 300.6"
fill="none" stroke="black" stroke-width="2"/>
<path d="M313.42 306.96L315.96 300.6"
fill="none" stroke="black" stroke-width="2"/>
<path d="M258.39 334.1L259.65 330.95"
fill="none" stroke="black" stroke-width="2"/>
<path d="M263.43 321.45L267.95 310.1"
fill="none" stroke="black" stroke-width="2"/>
<path d="M242.29 330.95L258.39 330.95"
fill="none" stroke="black" stroke-width="2"/>
<path d="M258.39 330.95L258.39 334.1"
fill="none" stroke="black" stroke-width="2"/>
<path d="M242.29 330.95L242.29 334.1"
fill="none" stroke="black" stroke-width="2"/>
<path d="M242.29 334.1L258.39 334.1"
fill="none" stroke="black" stroke-width="2"/>
<path d="M250.59 306.96L250.59 310.1"
fill="none" stroke="black" stroke-width="2"/>
<path d="M315.96 300.6L315.96 303.74"
fill="none" stroke="black" stroke-width="2"/>
<path d="M313.42 306.96L313.42 310.1"
fill="none" stroke="black" stroke-width="2"/>
<path d="M292.84 321.45L297.36 310.1"
fill="none" stroke="black" stroke-width="2"/>
<path d="M305.16 330.95L315.96 303.85"
fill="none" stroke="black" stroke-width="2"/>
<path d="M315.96 303.85L315.96 306.99"
fill="none" stroke="black" stroke-width="2"/>
<path d="M305.16 334.1L315.96 306.99"
fill="none" stroke="black" stroke-width="2"/>
<path d="M289.05 330.95L305.16 330.95"
fill="none" stroke="black" stroke-width="2"/>
<path d="M305.16 330.95L305.16 334.1"
fill="none" stroke="black" stroke-width="2"/>
<path d="M289.05 330.95L289.05 334.1"
fill="none" stroke="black" stroke-width="2"/>
<path d="M289.05 334.1L305.16 334.1"
fill="none" stroke="black" stroke-width="2"/>
<path d="M250.59 306.96L313.42 306.96"
fill="none" stroke="black" stroke-width="2"/>
<path d="M250.59 310.1L313.42 310.1"
fill="none" stroke="black" stroke-width="2"/>
<path d="M242.33 327.81L244.87 321.45"
fill="none" stroke="black" stroke-width="2"/>
<path d="M244.87 321.45L307.7 321.45"
fill="none" stroke="black" stroke-width="2"/>
<path d="M305.16 327.81L307.7 321.45"
fill="none" stroke="black" stroke-width="2"/>
<path d="M242.33 327.81L242.33 330.95"
fill="none" stroke="black" stroke-width="2"/>
<path d="M307.7 321.45L307.7 324.59"
fill="none" stroke="black" stroke-width="2"/>
<path d="M305.16 327.81L305.16 330.95"
fill="none" stroke="black" stroke-width="2"/>
<path d="M242.33 327.81L305.16 327.81"
fill="none" stroke="black" stroke-width="2"/>
<path d="M242.33 330.95L305.16 330.95"
fill="none" stroke="black" stroke-width="2"/>
<path d="M250.34 324.63L251.2 167.1"
fill="none" stroke="black" stroke-width="2"/>
<path d="M250.64 324.63L250.56 324.47M250.56 324.47L250.34 324.41M250.34 324.41L250.13 324.47M250.13 324.47L250.04 324.63M250.04 324.63L250.13 324.79M250.13 324.79L250.34 324.85M250.34 324.85L250.56 324.79M250.56 324.79L250.64 324.63"
fill="none" stroke="black" stroke-width="2"/>
<path d="M297.11 324.63L297.96 168.03"
fill="none" stroke="black" stroke-width="2"/>
<path d="M297.41 324.63L297.32 324.47M297.32 324.47L297.11 324.41M297.11 324.41L296.89 324.47M296.89 324.47L296.8 324.63M296.8 324.63L296.89 324.79M296.89 324.79L297.11 324.85M297.11 324.85L297.32 324.79M297.32 324.79L297.41 324.63"
fill="none" stroke="black" stroke-width="2"/>
<path d="M258.6 303.78L259.37 161.66"
fill="none" stroke="black" stroke-width="2"/>
<path d="M258.9 303.78L258.81 303.62M258.81 303.62L258.6 303.56M258.6 303.56L258.38 303.62M258.38 303.62L258.29 303.78M258.29 303.78L258.38 303.94M258.38 303.94L258.6 304M258.6 304L258.81 303.94M258.81 303.94L258.9 303.78"
fill="none" stroke="black" stroke-width="2"/>
<path d="M305.37 303.78L306.14 162.08"
fill="none" stroke="black" stroke-width="2"/>
<path d="M305.67 303.78L305.58 303.62M305.58 303.62L305.37 303.56M305.37 303.56L305.15 303.62M305.15 303.62L305.06 303.78M305.06 303.78L305.15 303.94M305.15 303.94L305.37 304M305.37 304L305.58 303.94M305.58 303.94L305.67 303.78"
fill="none" stroke="black" stroke-width="2"/>
<path d="M474.56 331.33L474.61 331.22"
fill="none" stroke="black" stroke-width="2"/>
<path d="M478.35 321.83L482.86 310.48"
fill="none" stroke="black" stroke-width="2"/>
<path d="M494.45 321.83L498.97 310.48"
fill="none" stroke="black" stroke-width="2"/>
<path d="M501.46 307.34L501.46 307.37"
fill="none" stroke="black" stroke-width="2"/>
<path d="M482.86 307.34L485.4 300.98"
fill="none" stroke="black" stroke-width="2"/>
<path d="M485.4 300.98L548.23 300.98"
fill="none" stroke="black" stroke-width="2"/>
<path d="M545.7 307.34L548.23 300.98"
fill="none" stroke="black" stroke-width="2"/>
<path d="M490.67 334.48L491.92 331.33"
fill="none" stroke="black" stroke-width="2"/>
<path d="M495.71 321.83L500.22 310.48"
fill="none" stroke="black" stroke-width="2"/>
<path d="M474.56 331.33L490.67 331.33"
fill="none" stroke="black" stroke-width="2"/>
<path d="M490.67 331.33L490.67 334.48"
fill="none" stroke="black" stroke-width="2"/>
<path d="M474.56 331.33L474.56 334.48"
fill="none" stroke="black" stroke-width="2"/>
<path d="M474.56 334.48L490.67 334.48"
fill="none" stroke="black" stroke-width="2"/>
<path d="M482.86 307.34L482.86 310.48"
fill="none" stroke="black" stroke-width="2"/>
<path d="M548.23 300.98L548.23 304.12"
fill="none" stroke="black" stroke-width="2"/>
<path d="M545.7 307.34L545.7 310.48"
fill="none" stroke="black" stroke-width="2"/>
<path d="M525.12 321.83L529.63 310.48"
fill="none" stroke="black" stroke-width="2"/>
<path d="M537.44 331.33L548.23 304.23"
fill="none" stroke="black" stroke-width="2"/>
<path d="M548.23 304.23L548.23 307.37"
fill="none" stroke="black" stroke-width="2"/>
<path d="M537.44 334.48L548.23 307.37"
fill="none" stroke="black" stroke-width="2"/>
<path d="M521.33 331.33L537.44 331.33"
fill="none" stroke="black" stroke-width="2"/>
<path d="M537.44 331.33L537.44 334.48"
fill="none" stroke="black" stroke-width="2"/>
<path d="M521.33 331.33L521.33 334.48"
fill="none" stroke="black" stroke-width="2"/>
<path d="M521.33 334.48L537.44 334.48"
fill="none" stroke="black" stroke-width="2"/>
<path d="M482.86 307.34L545.7 307.34"
fill="none" stroke="black" stroke-width="2"/>
<path d="M482.86 310.48L545.7 310.48"
fill="none" stroke="black" stroke-width="2"/>
<path d="M474.61 328.19L477.14 321.83"
fill="none" stroke="black" stroke-width="2"/>
<path d="M477.14 321.83L539.97 321.83"
fill="none" stroke="black" stroke-width="2"/>
<path d="M537.44 328.19L539.97 321.83"
fill="none" stroke="black" stroke-width="2"/>
<path d="M474.61 328.19L474.61 331.33"
fill="none" stroke="black" stroke-width="2"/>
<path d="M539.97 321.83L539.97 324.97"
fill="none" stroke="black" stroke-width="2"/>
<path d="M537.44 328.19L537.44 331.33"
fill="none" stroke="black" stroke-width="2"/>
<path d="M474.61 328.19L537.44 328.19"
fill="none" stroke="black" stroke-width="2"/>
<path d="M474.61 331.33L537.44 331.33"
fill="none" stroke="black" stroke-width="2"/>
<path d="M482.61 325.01L483.47 168.41"
fill="none" stroke="black" stroke-width="2"/>
<path d="M482.92 325.01L482.83 324.85M482.83 324.85L482.61 324.79M482.61 324.79L482.4 324.85M482.4 324.85L482.31 325.01M482.31 325.01L482.4 325.17M482.4 325.17L482.61 325.23M482.61 325.23L482.83 325.17M482.83 325.17L482.92 325.01"
fill="none" stroke="black" stroke-width="2"/>
<path d="M529.38 325.01L530.24 167.69"
fill="none" stroke="black" stroke-width="2"/>
<path d="M529.69 325.01L529.6 324.85M529.6 324.85L529.38 324.79M529.38 324.79L529.17 324.85M529.17 324.85L529.08 325.01M529.08 325.01L529.17 325.17M529.17 325.17L529.38 325.23M529.38 325.23L529.6 325.17M529.6 325.17L529.69 325.01"
fill="none" stroke="black" stroke-width="2"/>
<path d="M490.87 304.16L491.65 162.22"
fill="none" stroke="black" stroke-width="2"/>
<path d="M491.18 304.16L491.09 304M491.09 304L490.87 303.94M490.87 303.94L490.66 304M490.66 304L490.57 304.16M490.57 304.16L490.66 304.31M490.66 304.31L490.87 304.38M490.87 304.38L491.09 304.31M491.09 304.31L491.18 304.16"
fill="none" stroke="black" stroke-width="2"/>
<path d="M537.64 304.16L538.42 161.87"
fill="none" stroke="black" stroke-width="2"/>
<path d="M537.95 304.16L537.86 304M537.86 304L537.64 303.94M537.64 303.94L537.43 304M537.43 304L537.34 304.16M537.34 304.16L537.43 304.31M537.43 304.31L537.64 304.38M537.64 304.38L537.86 304.31M537.86 304.31L537.95 304.16"
fill="none" stroke="black" stroke-width="2"/>
</svg>
