<?xml version="1.0" encoding="UTF-8"?>
<svg xmlns="http://www.w3.org/2000/svg" width="800.000" height="600.000" viewBox="0.0 0.0 800.000 600.000" version="1.1">
  <title>Produce by Acme CAD Converter</title>
  <desc>Produce by Acme CAD Converter</desc>
<path d="M2.26 80.25L2.26 519.75"
fill="none" stroke="black" stroke-width="0"/>
<path d="M2.7 316.01L63.38 318.19M63.38 318.19L124.07 320.02"
fill="none" stroke="RGB(2,158,33)" stroke-width="2"/>
<path d="M142.53 320.51L182.95 321.47"
fill="none" stroke="RGB(2,158,33)" stroke-width="2"/>
<path d="M201.44 321.86L245.33 322.65"
fill="none" stroke="RGB(2,158,33)" stroke-width="2"/>
<path d="M263.87 322.93L308.72 323.48"
fill="none" stroke="RGB(2,158,33)" stroke-width="2"/>
<path d="M327.3 323.65L369.67 323.92"
fill="none" stroke="RGB(2,158,33)" stroke-width="2"/>
<path d="M388.29 323.99L431.4 324.02"
fill="none" stroke="RGB(2,158,33)" stroke-width="2"/>
<path d="M450.07 323.98L495.99 323.74"
fill="none" stroke="RGB(2,158,33)" stroke-width="2"/>
<path d="M514.7 323.58L557.23 323.11"
fill="none" stroke="RGB(2,158,33)" stroke-width="2"/>
<path d="M575.98 322.85L618.29 322.14"
fill="none" stroke="RGB(2,158,33)" stroke-width="2"/>
<path d="M637.09 321.77L690.65 320.53M690.65 320.53L744.2 319.03M744.2 319.03L797.74 317.26"
fill="none" stroke="RGB(2,158,33)" stroke-width="2"/>
<path d="M2.26 300L66.31 302.29M66.31 302.29L130.38 304.19"
fill="none" stroke="RGB(2,158,33)" stroke-width="2"/>
<path d="M148.84 304.67L189.26 305.6"
fill="none" stroke="RGB(2,158,33)" stroke-width="2"/>
<path d="M207.77 305.98L251.66 306.75"
fill="none" stroke="RGB(2,158,33)" stroke-width="2"/>
<path d="M270.2 307.02L315.07 307.54"
fill="none" stroke="RGB(2,158,33)" stroke-width="2"/>
<path d="M333.66 307.7L376.03 307.94"
fill="none" stroke="RGB(2,158,33)" stroke-width="2"/>
<path d="M394.66 307.99L437.78 308"
fill="none" stroke="RGB(2,158,33)" stroke-width="2"/>
<path d="M456.45 307.94L502.39 307.67"
fill="none" stroke="RGB(2,158,33)" stroke-width="2"/>
<path d="M521.11 307.51L563.64 307.01"
fill="none" stroke="RGB(2,158,33)" stroke-width="2"/>
<path d="M582.4 306.73L624.72 305.99"
fill="none" stroke="RGB(2,158,33)" stroke-width="2"/>
<path d="M643.52 305.61L694.79 304.4M694.79 304.4L746.05 302.95M746.05 302.95L797.3 301.25"
fill="none" stroke="RGB(2,158,33)" stroke-width="2"/>
<path d="M122.83 323.15L138.97 323.15M138.97 323.15L138.97 329.44M138.97 329.44L122.83 329.44M122.83 329.44L122.83 323.15"
fill="none" stroke="black" stroke-width="2"/>
<path d="M122.83 323.15L133.65 295.98"
fill="none" stroke="black" stroke-width="2"/>
<path d="M138.97 323.15L149.79 295.98"
fill="none" stroke="black" stroke-width="2"/>
<path d="M138.97 329.44L149.79 302.28"
fill="none" stroke="black" stroke-width="2"/>
<path d="M133.65 295.98L149.79 295.98"
fill="none" stroke="black" stroke-width="2"/>
<path d="M149.79 295.98L149.79 302.28"
fill="none" stroke="black" stroke-width="2"/>
<path d="M181.86 324.21L198 324.21M198 324.21L198 330.51M198 330.51L181.86 330.51M181.86 330.51L181.86 324.21"
fill="none" stroke="black" stroke-width="2"/>
<path d="M181.86 324.21L192.67 297.05"
fill="none" stroke="black" stroke-width="2"/>
<path d="M198 324.21L208.82 297.05"
fill="none" stroke="black" stroke-width="2"/>
<path d="M198 330.51L208.82 303.34"
fill="none" stroke="black" stroke-width="2"/>
<path d="M192.67 297.05L208.82 297.05"
fill="none" stroke="black" stroke-width="2"/>
<path d="M208.82 297.05L208.82 303.34"
fill="none" stroke="black" stroke-width="2"/>
<path d="M244.21 325.46L260.35 325.46M260.35 325.46L260.35 331.76M260.35 331.76L244.21 331.76M244.21 331.76L244.21 325.46"
fill="none" stroke="black" stroke-width="2"/>
<path d="M244.21 325.46L255.03 298.3"
fill="none" stroke="black" stroke-width="2"/>
<path d="M260.35 325.46L271.17 298.3"
fill="none" stroke="black" stroke-width="2"/>
<path d="M260.35 331.76L271.17 304.59"
fill="none" stroke="black" stroke-width="2"/>
<path d="M255.03 298.3L271.17 298.3"
fill="none" stroke="black" stroke-width="2"/>
<path d="M271.17 298.3L271.17 304.59"
fill="none" stroke="black" stroke-width="2"/>
<path d="M307.15 327.44L323.29 327.44M323.29 327.44L323.29 333.74M323.29 333.74L307.15 333.74M307.15 333.74L307.15 327.44"
fill="none" stroke="black" stroke-width="2"/>
<path d="M307.15 327.44L317.96 300.28"
fill="none" stroke="black" stroke-width="2"/>
<path d="M323.29 327.44L334.11 300.28"
fill="none" stroke="black" stroke-width="2"/>
<path d="M323.29 333.74L334.11 306.57"
fill="none" stroke="black" stroke-width="2"/>
<path d="M317.96 300.28L334.11 300.28"
fill="none" stroke="black" stroke-width="2"/>
<path d="M334.11 300.28L334.11 306.57"
fill="none" stroke="black" stroke-width="2"/>
<path d="M368.11 327.84L384.25 327.84M384.25 327.84L384.25 334.13M384.25 334.13L368.11 334.13M368.11 334.13L368.11 327.84"
fill="none" stroke="black" stroke-width="2"/>
<path d="M368.11 327.84L378.93 300.67"
fill="none" stroke="black" stroke-width="2"/>
<path d="M384.25 327.84L395.07 300.67"
fill="none" stroke="black" stroke-width="2"/>
<path d="M384.25 334.13L395.07 306.97"
fill="none" stroke="black" stroke-width="2"/>
<path d="M378.93 300.67L395.07 300.67"
fill="none" stroke="black" stroke-width="2"/>
<path d="M395.07 300.67L395.07 306.97"
fill="none" stroke="black" stroke-width="2"/>
<path d="M429.72 328.25L445.86 328.25M445.86 328.25L445.86 334.54M445.86 334.54L429.72 334.54M429.72 334.54L429.72 328.25"
fill="none" stroke="black" stroke-width="2"/>
<path d="M429.72 328.25L440.54 301.08"
fill="none" stroke="black" stroke-width="2"/>
<path d="M445.86 328.25L456.68 301.08"
fill="none" stroke="black" stroke-width="2"/>
<path d="M445.86 334.54L456.68 307.38"
fill="none" stroke="black" stroke-width="2"/>
<path d="M440.54 301.08L456.68 301.08"
fill="none" stroke="black" stroke-width="2"/>
<path d="M456.68 301.08L456.68 307.38"
fill="none" stroke="black" stroke-width="2"/>
<path d="M494.35 327.85L510.5 327.85M510.5 327.85L510.5 334.15M510.5 334.15L494.35 334.15M494.35 334.15L494.35 327.85"
fill="none" stroke="black" stroke-width="2"/>
<path d="M494.35 327.85L505.17 300.69"
fill="none" stroke="black" stroke-width="2"/>
<path d="M510.5 327.85L521.32 300.69"
fill="none" stroke="black" stroke-width="2"/>
<path d="M510.5 334.15L521.32 306.98"
fill="none" stroke="black" stroke-width="2"/>
<path d="M505.17 300.69L521.32 300.69"
fill="none" stroke="black" stroke-width="2"/>
<path d="M521.32 300.69L521.32 306.98"
fill="none" stroke="black" stroke-width="2"/>
<path d="M555.82 326.66L571.96 326.66M571.96 326.66L571.96 332.96M571.96 332.96L555.82 332.96M555.82 332.96L555.82 326.66"
fill="none" stroke="black" stroke-width="2"/>
<path d="M555.82 326.66L566.63 299.49"
fill="none" stroke="black" stroke-width="2"/>
<path d="M571.96 326.66L582.78 299.49"
fill="none" stroke="black" stroke-width="2"/>
<path d="M571.96 332.96L582.78 305.79"
fill="none" stroke="black" stroke-width="2"/>
<path d="M566.63 299.49L582.78 299.49"
fill="none" stroke="black" stroke-width="2"/>
<path d="M582.78 299.49L582.78 305.79"
fill="none" stroke="black" stroke-width="2"/>
<path d="M617.28 324.68L633.42 324.68M633.42 324.68L633.42 330.98M633.42 330.98L617.28 330.98M617.28 330.98L617.28 324.68"
fill="none" stroke="black" stroke-width="2"/>
<path d="M617.28 324.68L628.1 297.51"
fill="none" stroke="black" stroke-width="2"/>
<path d="M633.42 324.68L644.24 297.51"
fill="none" stroke="black" stroke-width="2"/>
<path d="M633.42 330.98L644.24 303.81"
fill="none" stroke="black" stroke-width="2"/>
<path d="M628.1 297.51L644.24 297.51"
fill="none" stroke="black" stroke-width="2"/>
<path d="M644.24 297.51L644.24 303.81"
fill="none" stroke="black" stroke-width="2"/>
</svg>
