<?xml version="1.0" encoding="UTF-8"?>
<svg xmlns="http://www.w3.org/2000/svg" width="800.000" height="600.000" viewBox="0.0 0.0 800.000 600.000" version="1.1">
  <title>Produce by Acme CAD Converter</title>
  <desc>Produce by Acme CAD Converter</desc>
<path d="M2.26 80.25L2.26 519.75"
fill="none" stroke="black" stroke-width="0"/>
<path d="M140.83 314.99L133.68 341.36"
fill="none" stroke="black" stroke-width="2"/>
<path d="M132.63 312.76L125.47 339.13"
fill="none" stroke="black" stroke-width="2"/>
<path d="M125.32 340.25L125.51 338.99M125.51 338.99L126.06 337.85M126.06 337.85L126.92 336.92M126.92 336.92L128.02 336.29M128.02 336.29L129.26 336.01M129.26 336.01L130.52 336.1M130.52 336.1L131.7 336.57M131.7 336.57L132.69 337.36M132.69 337.36L133.4 338.4M133.4 338.4L133.78 339.61M133.78 339.61L133.78 340.88M133.78 340.88L133.4 342.09M133.4 342.09L132.69 343.14M132.69 343.14L131.7 343.93M131.7 343.93L130.52 344.39M130.52 344.39L129.26 344.49M129.26 344.49L128.02 344.2M128.02 344.2L126.92 343.57M126.92 343.57L126.06 342.64M126.06 342.64L125.51 341.5M125.51 341.5L125.32 340.25"
fill="none" stroke="black" stroke-width="2"/>
<path d="M140.83 314.99L140.98 313.78M140.98 313.78L140.78 312.59M140.78 312.59L140.26 311.5M140.26 311.5L139.45 310.6M139.45 310.6L138.41 309.97M138.41 309.97L137.25 309.65M137.25 309.65L136.04 309.68M136.04 309.68L134.88 310.04M134.88 310.04L133.88 310.72M133.88 310.72L133.11 311.65M133.11 311.65L132.63 312.76"
fill="none" stroke="black" stroke-width="2"/>
<path d="M2.7 316.01L68.92 318.37M68.92 318.37L135.16 320.32M135.16 320.32L201.41 321.86M201.41 321.86L267.67 322.99M267.67 322.99L333.94 323.71M333.94 323.71L400.2 324.02M400.2 324.02L466.47 323.92M466.47 323.92L532.74 323.4M532.74 323.4L599 322.48M599 322.48L665.26 321.15M665.26 321.15L731.5 319.41M731.5 319.41L797.74 317.26"
fill="none" stroke="RGB(2,158,33)" stroke-width="2"/>
<path d="M2.26 300L68.49 302.36M68.49 302.36L134.73 304.31M134.73 304.31L200.98 305.85M200.98 305.85L267.24 306.98M267.24 306.98L333.5 307.7M333.5 307.7L399.77 308M399.77 308L466.04 307.9M466.04 307.9L532.31 307.39M532.31 307.39L598.57 306.47M598.57 306.47L664.82 305.14M664.82 305.14L731.07 303.4M731.07 303.4L797.3 301.25"
fill="none" stroke="RGB(2,158,33)" stroke-width="2"/>
<path d="M129.88 334.89L129.88 320.17"
fill="none" stroke="black" stroke-width="2"/>
<path d="M136.54 310.35L136.54 304.36"
fill="none" stroke="black" stroke-width="2"/>
<path d="M130.18 334.89L130.09 334.74M130.09 334.74L129.88 334.67M129.88 334.67L129.66 334.74M129.66 334.74L129.57 334.89M129.57 334.89L129.66 335.05M129.66 335.05L129.88 335.12M129.88 335.12L130.09 335.05M130.09 335.05L130.18 334.89"
fill="none" stroke="black" stroke-width="2"/>
<path d="M136.85 310.35L136.76 310.19M136.76 310.19L136.54 310.12M136.54 310.12L136.32 310.19M136.32 310.19L136.24 310.35M136.24 310.35L136.32 310.5M136.32 310.5L136.54 310.57M136.54 310.57L136.76 310.5M136.76 310.5L136.85 310.35"
fill="none" stroke="black" stroke-width="2"/>
<path d="M189.64 316.16L182.48 342.53"
fill="none" stroke="black" stroke-width="2"/>
<path d="M181.43 313.93L174.28 340.31"
fill="none" stroke="black" stroke-width="2"/>
<path d="M174.13 341.42L174.32 340.17M174.32 340.17L174.87 339.03M174.87 339.03L175.73 338.1M175.73 338.1L176.83 337.46M176.83 337.46L178.06 337.18M178.06 337.18L179.33 337.28M179.33 337.28L180.51 337.74M180.51 337.74L181.5 338.53M181.5 338.53L182.21 339.58M182.21 339.58L182.58 340.79M182.58 340.79L182.58 342.05M182.58 342.05L182.21 343.26M182.21 343.26L181.5 344.31M181.5 344.31L180.51 345.1M180.51 345.1L179.33 345.56M179.33 345.56L178.06 345.66M178.06 345.66L176.83 345.38M176.83 345.38L175.73 344.74M175.73 344.74L174.87 343.81M174.87 343.81L174.32 342.67M174.32 342.67L174.13 341.42"
fill="none" stroke="black" stroke-width="2"/>
<path d="M189.64 316.16L189.79 314.96M189.79 314.96L189.59 313.76M189.59 313.76L189.06 312.67M189.06 312.67L188.25 311.78M188.25 311.78L187.22 311.14M187.22 311.14L186.05 310.83M186.05 310.83L184.84 310.85M184.84 310.85L183.69 311.22M183.69 311.22L182.69 311.89M182.69 311.89L181.91 312.82M181.91 312.82L181.43 313.93"
fill="none" stroke="black" stroke-width="2"/>
<path d="M178.68 336.07L178.68 321.35"
fill="none" stroke="black" stroke-width="2"/>
<path d="M185.35 311.52L185.35 305.53"
fill="none" stroke="black" stroke-width="2"/>
<path d="M178.99 336.07L178.9 335.91M178.9 335.91L178.68 335.85M178.68 335.85L178.47 335.91M178.47 335.91L178.38 336.07M178.38 336.07L178.47 336.22M178.47 336.22L178.68 336.29M178.68 336.29L178.9 336.22M178.9 336.22L178.99 336.07"
fill="none" stroke="black" stroke-width="2"/>
<path d="M185.65 311.52L185.56 311.36M185.56 311.36L185.35 311.3M185.35 311.3L185.13 311.36M185.13 311.36L185.04 311.52M185.04 311.52L185.13 311.68M185.13 311.68L185.35 311.74M185.35 311.74L185.56 311.68M185.56 311.68L185.65 311.52"
fill="none" stroke="black" stroke-width="2"/>
<path d="M237.69 317.3L230.53 343.68"
fill="none" stroke="black" stroke-width="2"/>
<path d="M229.48 315.07L222.32 341.45"
fill="none" stroke="black" stroke-width="2"/>
<path d="M222.18 342.56L222.37 341.31M222.37 341.31L222.92 340.17M222.92 340.17L223.78 339.24M223.78 339.24L224.87 338.6M224.87 338.6L226.11 338.32M226.11 338.32L227.37 338.42M227.37 338.42L228.55 338.88M228.55 338.88L229.54 339.67M229.54 339.67L230.26 340.72M230.26 340.72L230.63 341.93M230.63 341.93L230.63 343.2M230.63 343.2L230.26 344.41M230.26 344.41L229.54 345.45M229.54 345.45L228.55 346.24M228.55 346.24L227.37 346.71M227.37 346.71L226.11 346.8M226.11 346.8L224.87 346.52M224.87 346.52L223.78 345.89M223.78 345.89L222.92 344.96M222.92 344.96L222.37 343.82M222.37 343.82L222.18 342.56"
fill="none" stroke="black" stroke-width="2"/>
<path d="M237.69 317.3L237.83 316.1M237.83 316.1L237.64 314.91M237.64 314.91L237.11 313.82M237.11 313.82L236.3 312.92M236.3 312.92L235.27 312.28M235.27 312.28L234.1 311.97M234.1 311.97L232.89 311.99M232.89 311.99L231.74 312.36M231.74 312.36L230.73 313.03M230.73 313.03L229.96 313.96M229.96 313.96L229.48 315.07"
fill="none" stroke="black" stroke-width="2"/>
<path d="M226.73 337.21L226.73 322.49"
fill="none" stroke="black" stroke-width="2"/>
<path d="M233.4 312.66L233.4 306.67"
fill="none" stroke="black" stroke-width="2"/>
<path d="M227.04 337.21L226.95 337.05M226.95 337.05L226.73 336.99M226.73 336.99L226.52 337.05M226.52 337.05L226.43 337.21M226.43 337.21L226.52 337.37M226.52 337.37L226.73 337.43M226.73 337.43L226.95 337.37M226.95 337.37L227.04 337.21"
fill="none" stroke="black" stroke-width="2"/>
<path d="M233.7 312.66L233.61 312.5M233.61 312.5L233.4 312.44M233.4 312.44L233.18 312.5M233.18 312.5L233.09 312.66M233.09 312.66L233.18 312.82M233.18 312.82L233.4 312.88M233.4 312.88L233.61 312.82M233.61 312.82L233.7 312.66"
fill="none" stroke="black" stroke-width="2"/>
<path d="M284.02 318.02L276.87 344.39"
fill="none" stroke="black" stroke-width="2"/>
<path d="M275.82 315.79L268.66 342.17"
fill="none" stroke="black" stroke-width="2"/>
<path d="M268.51 343.28L268.7 342.03M268.7 342.03L269.25 340.88M269.25 340.88L270.11 339.96M270.11 339.96L271.21 339.32M271.21 339.32L272.45 339.04M272.45 339.04L273.71 339.13M273.71 339.13L274.89 339.6M274.89 339.6L275.88 340.39M275.88 340.39L276.59 341.43M276.59 341.43L276.97 342.65M276.97 342.65L276.97 343.91M276.97 343.91L276.59 345.12M276.59 345.12L275.88 346.17M275.88 346.17L274.89 346.96M274.89 346.96L273.71 347.42M273.71 347.42L272.45 347.52M272.45 347.52L271.21 347.24M271.21 347.24L270.11 346.6M270.11 346.6L269.25 345.67M269.25 345.67L268.7 344.53M268.7 344.53L268.51 343.28"
fill="none" stroke="black" stroke-width="2"/>
<path d="M284.02 318.02L284.17 316.82M284.17 316.82L283.97 315.62M283.97 315.62L283.45 314.53M283.45 314.53L282.64 313.63M282.64 313.63L281.61 313M281.61 313L280.44 312.68M280.44 312.68L279.23 312.71M279.23 312.71L278.07 313.07M278.07 313.07L277.07 313.75M277.07 313.75L276.3 314.68M276.3 314.68L275.82 315.79"
fill="none" stroke="black" stroke-width="2"/>
<path d="M273.07 337.93L273.07 323.21"
fill="none" stroke="black" stroke-width="2"/>
<path d="M279.73 313.38L279.73 307.39"
fill="none" stroke="black" stroke-width="2"/>
<path d="M273.37 337.93L273.28 337.77M273.28 337.77L273.07 337.7M273.07 337.7L272.85 337.77M272.85 337.77L272.76 337.93M272.76 337.93L272.85 338.08M272.85 338.08L273.07 338.15M273.07 338.15L273.28 338.08M273.28 338.08L273.37 337.93"
fill="none" stroke="black" stroke-width="2"/>
<path d="M280.04 313.38L279.95 313.22M279.95 313.22L279.73 313.16M279.73 313.16L279.52 313.22M279.52 313.22L279.43 313.38M279.43 313.38L279.52 313.53M279.52 313.53L279.73 313.6M279.73 313.6L279.95 313.53M279.95 313.53L280.04 313.38"
fill="none" stroke="black" stroke-width="2"/>
<path d="M330.12 318.43L322.96 344.8"
fill="none" stroke="black" stroke-width="2"/>
<path d="M321.91 316.2L314.76 342.58"
fill="none" stroke="black" stroke-width="2"/>
<path d="M314.61 343.69L314.8 342.44M314.8 342.44L315.35 341.29M315.35 341.29L316.21 340.36M316.21 340.36L317.31 339.73M317.31 339.73L318.54 339.45M318.54 339.45L319.81 339.54M319.81 339.54L320.99 340.01M320.99 340.01L321.98 340.8M321.98 340.8L322.69 341.84M322.69 341.84L323.06 343.05M323.06 343.05L323.06 344.32M323.06 344.32L322.69 345.53M322.69 345.53L321.98 346.58M321.98 346.58L320.99 347.37M320.99 347.37L319.81 347.83M319.81 347.83L318.54 347.93M318.54 347.93L317.31 347.65M317.31 347.65L316.21 347.01M316.21 347.01L315.35 346.08M315.35 346.08L314.8 344.94M314.8 344.94L314.61 343.69"
fill="none" stroke="black" stroke-width="2"/>
<path d="M330.12 318.43L330.27 317.23M330.27 317.23L330.07 316.03M330.07 316.03L329.54 314.94M329.54 314.94L328.73 314.04M328.73 314.04L327.7 313.41M327.7 313.41L326.53 313.09M326.53 313.09L325.32 313.12M325.32 313.12L324.17 313.48M324.17 313.48L323.17 314.16M323.17 314.16L322.39 315.09M322.39 315.09L321.91 316.2"
fill="none" stroke="black" stroke-width="2"/>
<path d="M319.16 338.34L319.16 323.62"
fill="none" stroke="black" stroke-width="2"/>
<path d="M325.83 313.79L325.83 307.8"
fill="none" stroke="black" stroke-width="2"/>
<path d="M319.47 338.34L319.38 338.18M319.38 338.18L319.16 338.11M319.16 338.11L318.95 338.18M318.95 338.18L318.86 338.34M318.86 338.34L318.95 338.49M318.95 338.49L319.16 338.56M319.16 338.56L319.38 338.49M319.38 338.49L319.47 338.34"
fill="none" stroke="black" stroke-width="2"/>
<path d="M326.13 313.79L326.04 313.63M326.04 313.63L325.83 313.56M325.83 313.56L325.61 313.63M325.61 313.63L325.52 313.79M325.52 313.79L325.61 313.94M325.61 313.94L325.83 314.01M325.83 314.01L326.04 313.94M326.04 313.94L326.13 313.79"
fill="none" stroke="black" stroke-width="2"/>
<path d="M376.1 318.82L368.94 345.2"
fill="none" stroke="black" stroke-width="2"/>
<path d="M367.89 316.6L360.74 342.97"
fill="none" stroke="black" stroke-width="2"/>
<path d="M360.59 344.09L360.78 342.83M360.78 342.83L361.33 341.69M361.33 341.69L362.19 340.76M362.19 340.76L363.29 340.13M363.29 340.13L364.52 339.85M364.52 339.85L365.79 339.94M365.79 339.94L366.97 340.4M366.97 340.4L367.96 341.19M367.96 341.19L368.67 342.24M368.67 342.24L369.04 343.45M369.04 343.45L369.04 344.72M369.04 344.72L368.67 345.93M368.67 345.93L367.96 346.98M367.96 346.98L366.97 347.77M366.97 347.77L365.79 348.23M365.79 348.23L364.52 348.32M364.52 348.32L363.29 348.04M363.29 348.04L362.19 347.41M362.19 347.41L361.33 346.48M361.33 346.48L360.78 345.34M360.78 345.34L360.59 344.09"
fill="none" stroke="black" stroke-width="2"/>
<path d="M376.1 318.82L376.25 317.62M376.25 317.62L376.05 316.43M376.05 316.43L375.52 315.34M375.52 315.34L374.71 314.44M374.71 314.44L373.68 313.81M373.68 313.81L372.51 313.49M372.51 313.49L371.3 313.52M371.3 313.52L370.15 313.88M370.15 313.88L369.15 314.56M369.15 314.56L368.37 315.49M368.37 315.49L367.89 316.6"
fill="none" stroke="black" stroke-width="2"/>
<path d="M365.14 338.73L365.14 324.01"
fill="none" stroke="black" stroke-width="2"/>
<path d="M371.81 314.18L371.81 308.19"
fill="none" stroke="black" stroke-width="2"/>
<path d="M365.45 338.73L365.36 338.58M365.36 338.58L365.14 338.51M365.14 338.51L364.93 338.58M364.93 338.58L364.84 338.73M364.84 338.73L364.93 338.89M364.93 338.89L365.14 338.95M365.14 338.95L365.36 338.89M365.36 338.89L365.45 338.73"
fill="none" stroke="black" stroke-width="2"/>
<path d="M372.11 314.18L372.02 314.03M372.02 314.03L371.81 313.96M371.81 313.96L371.59 314.03M371.59 314.03L371.5 314.18M371.5 314.18L371.59 314.34M371.59 314.34L371.81 314.41M371.81 314.41L372.02 314.34M372.02 314.34L372.11 314.18"
fill="none" stroke="black" stroke-width="2"/>
<path d="M420.66 319L413.51 345.38"
fill="none" stroke="black" stroke-width="2"/>
<path d="M412.46 316.78L405.3 343.15"
fill="none" stroke="black" stroke-width="2"/>
<path d="M405.15 344.27L405.34 343.01M405.34 343.01L405.89 341.87M405.89 341.87L406.75 340.94M406.75 340.94L407.85 340.31M407.85 340.31L409.09 340.03M409.09 340.03L410.35 340.12M410.35 340.12L411.53 340.59M411.53 340.59L412.52 341.38M412.52 341.38L413.23 342.42M413.23 342.42L413.61 343.63M413.61 343.63L413.61 344.9M413.61 344.9L413.23 346.11M413.23 346.11L412.52 347.16M412.52 347.16L411.53 347.95M411.53 347.95L410.35 348.41M410.35 348.41L409.09 348.51M409.09 348.51L407.85 348.22M407.85 348.22L406.75 347.59M406.75 347.59L405.89 346.66M405.89 346.66L405.34 345.52M405.34 345.52L405.15 344.27"
fill="none" stroke="black" stroke-width="2"/>
<path d="M420.66 319L420.81 317.8M420.81 317.8L420.61 316.61M420.61 316.61L420.09 315.52M420.09 315.52L419.28 314.62M419.28 314.62L418.24 313.99M418.24 313.99L417.08 313.67M417.08 313.67L415.87 313.7M415.87 313.7L414.71 314.06M414.71 314.06L413.71 314.74M413.71 314.74L412.94 315.67M412.94 315.67L412.46 316.78"
fill="none" stroke="black" stroke-width="2"/>
<path d="M409.71 338.91L409.71 324.19"
fill="none" stroke="black" stroke-width="2"/>
<path d="M416.37 314.36L416.37 308.38"
fill="none" stroke="black" stroke-width="2"/>
<path d="M410.01 338.91L409.92 338.76M409.92 338.76L409.71 338.69M409.71 338.69L409.49 338.76M409.49 338.76L409.4 338.91M409.4 338.91L409.49 339.07M409.49 339.07L409.71 339.14M409.71 339.14L409.92 339.07M409.92 339.07L410.01 338.91"
fill="none" stroke="black" stroke-width="2"/>
<path d="M416.68 314.36L416.59 314.21M416.59 314.21L416.37 314.14M416.37 314.14L416.16 314.21M416.16 314.21L416.07 314.36M416.07 314.36L416.16 314.52M416.16 314.52L416.37 314.59M416.37 314.59L416.59 314.52M416.59 314.52L416.68 314.36"
fill="none" stroke="black" stroke-width="2"/>
<path d="M466.46 319.05L459.31 345.43"
fill="none" stroke="black" stroke-width="2"/>
<path d="M458.26 316.82L451.1 343.2"
fill="none" stroke="black" stroke-width="2"/>
<path d="M450.95 344.31L451.14 343.06M451.14 343.06L451.69 341.92M451.69 341.92L452.55 340.99M452.55 340.99L453.65 340.36M453.65 340.36L454.89 340.07M454.89 340.07L456.15 340.17M456.15 340.17L457.33 340.63M457.33 340.63L458.32 341.42M458.32 341.42L459.03 342.47M459.03 342.47L459.41 343.68M459.41 343.68L459.41 344.95M459.41 344.95L459.03 346.16M459.03 346.16L458.32 347.2M458.32 347.2L457.33 347.99M457.33 347.99L456.15 348.46M456.15 348.46L454.89 348.55M454.89 348.55L453.65 348.27M453.65 348.27L452.55 347.64M452.55 347.64L451.69 346.71M451.69 346.71L451.14 345.57M451.14 345.57L450.95 344.31"
fill="none" stroke="black" stroke-width="2"/>
<path d="M466.46 319.05L466.61 317.85M466.61 317.85L466.41 316.66M466.41 316.66L465.89 315.57M465.89 315.57L465.08 314.67M465.08 314.67L464.05 314.04M464.05 314.04L462.88 313.72M462.88 313.72L461.67 313.74M461.67 313.74L460.51 314.11M460.51 314.11L459.51 314.78M459.51 314.78L458.74 315.71M458.74 315.71L458.26 316.82"
fill="none" stroke="black" stroke-width="2"/>
<path d="M455.51 338.96L455.51 324.24"
fill="none" stroke="black" stroke-width="2"/>
<path d="M462.17 314.41L462.17 308.42"
fill="none" stroke="black" stroke-width="2"/>
<path d="M455.81 338.96L455.72 338.8M455.72 338.8L455.51 338.74M455.51 338.74L455.29 338.8M455.29 338.8L455.2 338.96M455.2 338.96L455.29 339.12M455.29 339.12L455.51 339.18M455.51 339.18L455.72 339.12M455.72 339.12L455.81 338.96"
fill="none" stroke="black" stroke-width="2"/>
<path d="M462.48 314.41L462.39 314.25M462.39 314.25L462.17 314.19M462.17 314.19L461.96 314.25M461.96 314.25L461.87 314.41M461.87 314.41L461.96 314.57M461.96 314.57L462.17 314.63M462.17 314.63L462.39 314.57M462.39 314.57L462.48 314.41"
fill="none" stroke="black" stroke-width="2"/>
<path d="M516.85 318.62L509.7 345"
fill="none" stroke="black" stroke-width="2"/>
<path d="M508.65 316.4L501.49 342.77"
fill="none" stroke="black" stroke-width="2"/>
<path d="M501.34 343.89L501.53 342.63M501.53 342.63L502.08 341.49M502.08 341.49L502.94 340.56M502.94 340.56L504.04 339.93M504.04 339.93L505.28 339.65M505.28 339.65L506.54 339.74M506.54 339.74L507.72 340.21M507.72 340.21L508.71 341M508.71 341L509.43 342.04M509.43 342.04L509.8 343.25M509.8 343.25L509.8 344.52M509.8 344.52L509.43 345.73M509.43 345.73L508.71 346.78M508.71 346.78L507.72 347.57M507.72 347.57L506.54 348.03M506.54 348.03L505.28 348.13M505.28 348.13L504.04 347.84M504.04 347.84L502.94 347.21M502.94 347.21L502.08 346.28M502.08 346.28L501.53 345.14M501.53 345.14L501.34 343.89"
fill="none" stroke="black" stroke-width="2"/>
<path d="M516.85 318.62L517 317.42M517 317.42L516.8 316.23M516.8 316.23L516.28 315.14M516.28 315.14L515.47 314.24M515.47 314.24L514.44 313.61M514.44 313.61L513.27 313.29M513.27 313.29L512.06 313.32M512.06 313.32L510.9 313.68M510.9 313.68L509.9 314.36M509.9 314.36L509.13 315.29M509.13 315.29L508.65 316.4"
fill="none" stroke="black" stroke-width="2"/>
<path d="M505.9 338.53L505.9 323.81"
fill="none" stroke="black" stroke-width="2"/>
<path d="M512.56 313.99L512.56 308"
fill="none" stroke="black" stroke-width="2"/>
<path d="M506.2 338.53L506.12 338.38M506.12 338.38L505.9 338.31M505.9 338.31L505.68 338.38M505.68 338.38L505.59 338.53M505.59 338.53L505.68 338.69M505.68 338.69L505.9 338.76M505.9 338.76L506.12 338.69M506.12 338.69L506.2 338.53"
fill="none" stroke="black" stroke-width="2"/>
<path d="M512.87 313.99L512.78 313.83M512.78 313.83L512.56 313.76M512.56 313.76L512.35 313.83M512.35 313.83L512.26 313.99M512.26 313.99L512.35 314.14M512.35 314.14L512.56 314.21M512.56 314.21L512.78 314.14M512.78 314.14L512.87 313.99"
fill="none" stroke="black" stroke-width="2"/>
<path d="M567.31 318.13L560.15 344.5"
fill="none" stroke="black" stroke-width="2"/>
<path d="M559.1 315.9L551.95 342.28"
fill="none" stroke="black" stroke-width="2"/>
<path d="M551.8 343.39L551.99 342.14M551.99 342.14L552.54 341M552.54 341L553.4 340.07M553.4 340.07L554.5 339.43M554.5 339.43L555.73 339.15M555.73 339.15L557 339.25M557 339.25L558.18 339.71M558.18 339.71L559.17 340.5M559.17 340.5L559.88 341.55M559.88 341.55L560.25 342.76M560.25 342.76L560.25 344.02M560.25 344.02L559.88 345.23M559.88 345.23L559.17 346.28M559.17 346.28L558.18 347.07M558.18 347.07L557 347.53M557 347.53L555.73 347.63M555.73 347.63L554.5 347.35M554.5 347.35L553.4 346.71M553.4 346.71L552.54 345.79M552.54 345.79L551.99 344.64M551.99 344.64L551.8 343.39"
fill="none" stroke="black" stroke-width="2"/>
<path d="M567.31 318.13L567.46 316.93M567.46 316.93L567.26 315.73M567.26 315.73L566.73 314.64M566.73 314.64L565.92 313.75M565.92 313.75L564.89 313.11M564.89 313.11L563.72 312.8M563.72 312.8L562.51 312.82M562.51 312.82L561.36 313.19M561.36 313.19L560.36 313.86M560.36 313.86L559.58 314.79M559.58 314.79L559.1 315.9"
fill="none" stroke="black" stroke-width="2"/>
<path d="M556.35 338.04L556.35 323.32"
fill="none" stroke="black" stroke-width="2"/>
<path d="M563.02 313.49L563.02 307.5"
fill="none" stroke="black" stroke-width="2"/>
<path d="M556.66 338.04L556.57 337.88M556.57 337.88L556.35 337.82M556.35 337.82L556.14 337.88M556.14 337.88L556.05 338.04M556.05 338.04L556.14 338.19M556.14 338.19L556.35 338.26M556.35 338.26L556.57 338.19M556.57 338.19L556.66 338.04"
fill="none" stroke="black" stroke-width="2"/>
<path d="M563.32 313.49L563.23 313.33M563.23 313.33L563.02 313.27M563.02 313.27L562.8 313.33M562.8 313.33L562.71 313.49M562.71 313.49L562.8 313.65M562.8 313.65L563.02 313.71M563.02 313.71L563.23 313.65M563.23 313.65L563.32 313.49"
fill="none" stroke="black" stroke-width="2"/>
<path d="M618.32 317.26L611.17 343.63"
fill="none" stroke="black" stroke-width="2"/>
<path d="M610.12 315.03L602.96 341.41"
fill="none" stroke="black" stroke-width="2"/>
<path d="M602.81 342.52L603 341.27M603 341.27L603.55 340.12M603.55 340.12L604.41 339.2M604.41 339.2L605.51 338.56M605.51 338.56L606.75 338.28M606.75 338.28L608.01 338.38M608.01 338.38L609.19 338.84M609.19 338.84L610.18 339.63M610.18 339.63L610.9 340.68M610.9 340.68L611.27 341.89M611.27 341.89L611.27 343.15M611.27 343.15L610.9 344.36M610.9 344.36L610.18 345.41M610.18 345.41L609.19 346.2M609.19 346.2L608.01 346.66M608.01 346.66L606.75 346.76M606.75 346.76L605.51 346.48M605.51 346.48L604.41 345.84M604.41 345.84L603.55 344.91M603.55 344.91L603 343.77M603 343.77L602.81 342.52"
fill="none" stroke="black" stroke-width="2"/>
<path d="M618.32 317.26L618.47 316.06M618.47 316.06L618.27 314.86M618.27 314.86L617.75 313.77M617.75 313.77L616.94 312.87M616.94 312.87L615.91 312.24M615.91 312.24L614.74 311.93M614.74 311.93L613.53 311.95M613.53 311.95L612.38 312.32M612.38 312.32L611.37 312.99M611.37 312.99L610.6 313.92M610.6 313.92L610.12 315.03"
fill="none" stroke="black" stroke-width="2"/>
<path d="M607.37 337.17L607.37 322.45"
fill="none" stroke="black" stroke-width="2"/>
<path d="M614.03 312.62L614.03 306.63"
fill="none" stroke="black" stroke-width="2"/>
<path d="M607.67 337.17L607.59 337.01M607.59 337.01L607.37 336.94M607.37 336.94L607.15 337.01M607.15 337.01L607.06 337.17M607.06 337.17L607.15 337.32M607.15 337.32L607.37 337.39M607.37 337.39L607.59 337.32M607.59 337.32L607.67 337.17"
fill="none" stroke="black" stroke-width="2"/>
<path d="M614.34 312.62L614.25 312.46M614.25 312.46L614.03 312.4M614.03 312.4L613.82 312.46M613.82 312.46L613.73 312.62M613.73 312.62L613.82 312.77M613.82 312.77L614.03 312.84M614.03 312.84L614.25 312.77M614.25 312.77L614.34 312.62"
fill="none" stroke="black" stroke-width="2"/>
<path d="M670.23 316.28L663.08 342.66"
fill="none" stroke="black" stroke-width="2"/>
<path d="M662.02 314.06L654.87 340.43"
fill="none" stroke="black" stroke-width="2"/>
<path d="M654.72 341.55L654.91 340.29M654.91 340.29L655.46 339.15M655.46 339.15L656.32 338.22M656.32 338.22L657.42 337.59M657.42 337.59L658.65 337.31M658.65 337.31L659.92 337.4M659.92 337.4L661.1 337.86M661.1 337.86L662.09 338.65M662.09 338.65L662.8 339.7M662.8 339.7L663.18 340.91M663.18 340.91L663.18 342.18M663.18 342.18L662.8 343.39M662.8 343.39L662.09 344.44M662.09 344.44L661.1 345.23M661.1 345.23L659.92 345.69M659.92 345.69L658.65 345.78M658.65 345.78L657.42 345.5M657.42 345.5L656.32 344.87M656.32 344.87L655.46 343.94M655.46 343.94L654.91 342.8M654.91 342.8L654.72 341.55"
fill="none" stroke="black" stroke-width="2"/>
<path d="M670.23 316.28L670.38 315.08M670.38 315.08L670.18 313.89M670.18 313.89L669.66 312.8M669.66 312.8L668.84 311.9M668.84 311.9L667.81 311.27M667.81 311.27L666.65 310.95M666.65 310.95L665.44 310.98M665.44 310.98L664.28 311.34M664.28 311.34L663.28 312.02M663.28 312.02L662.5 312.95M662.5 312.95L662.02 314.06"
fill="none" stroke="black" stroke-width="2"/>
<path d="M659.28 336.19L659.28 321.47"
fill="none" stroke="black" stroke-width="2"/>
<path d="M665.94 311.64L665.94 305.65"
fill="none" stroke="black" stroke-width="2"/>
<path d="M659.58 336.19L659.49 336.04M659.49 336.04L659.28 335.97M659.28 335.97L659.06 336.04M659.06 336.04L658.97 336.19M658.97 336.19L659.06 336.35M659.06 336.35L659.28 336.41M659.28 336.41L659.49 336.35M659.49 336.35L659.58 336.19"
fill="none" stroke="black" stroke-width="2"/>
<path d="M666.24 311.64L666.16 311.49M666.16 311.49L665.94 311.42M665.94 311.42L665.72 311.49M665.72 311.49L665.63 311.64M665.63 311.64L665.72 311.8M665.72 311.8L665.94 311.87M665.94 311.87L666.16 311.8M666.16 311.8L666.24 311.64"
fill="none" stroke="black" stroke-width="2"/>
</svg>
