<?xml version="1.0" encoding="UTF-8"?>
<svg xmlns="http://www.w3.org/2000/svg" width="800.000" height="600.000" viewBox="0.0 0.0 800.000 600.000" version="1.1">
  <title>Produce by Acme CAD Converter</title>
  <desc>Produce by Acme CAD Converter</desc>
<path d="M2.26 80.25L2.26 519.75"
fill="none" stroke="black" stroke-width="0"/>
<path d="M2.7 316.01L63.9 318.21M63.9 318.21L125.11 320.05"
fill="none" stroke="RGB(2,158,33)" stroke-width="2"/>
<path d="M133.67 320.28L172.35 321.23"
fill="none" stroke="RGB(2,158,33)" stroke-width="2"/>
<path d="M180.92 321.43L224.19 322.29"
fill="none" stroke="RGB(2,158,33)" stroke-width="2"/>
<path d="M232.76 322.44L273.15 323.06"
fill="none" stroke="RGB(2,158,33)" stroke-width="2"/>
<path d="M281.73 323.18L326.65 323.65"
fill="none" stroke="RGB(2,158,33)" stroke-width="2"/>
<path d="M335.24 323.72L381.35 323.97"
fill="none" stroke="RGB(2,158,33)" stroke-width="2"/>
<path d="M389.94 324L435.62 324.01"
fill="none" stroke="RGB(2,158,33)" stroke-width="2"/>
<path d="M444.21 324L487.72 323.8"
fill="none" stroke="RGB(2,158,33)" stroke-width="2"/>
<path d="M496.32 323.74L539.51 323.33"
fill="none" stroke="RGB(2,158,33)" stroke-width="2"/>
<path d="M548.12 323.23L592.35 322.59"
fill="none" stroke="RGB(2,158,33)" stroke-width="2"/>
<path d="M600.97 322.45L643.05 321.64"
fill="none" stroke="RGB(2,158,33)" stroke-width="2"/>
<path d="M651.67 321.46L700.36 320.28M700.36 320.28L749.05 318.88M749.05 318.88L797.74 317.26"
fill="none" stroke="RGB(2,158,33)" stroke-width="2"/>
<path d="M2.26 300L64.85 302.24M64.85 302.24L127.45 304.11"
fill="none" stroke="RGB(2,158,33)" stroke-width="2"/>
<path d="M136.01 304.34L174.69 305.29"
fill="none" stroke="RGB(2,158,33)" stroke-width="2"/>
<path d="M183.26 305.48L226.53 306.33"
fill="none" stroke="RGB(2,158,33)" stroke-width="2"/>
<path d="M235.1 306.48L275.49 307.09"
fill="none" stroke="RGB(2,158,33)" stroke-width="2"/>
<path d="M284.07 307.2L329 307.66"
fill="none" stroke="RGB(2,158,33)" stroke-width="2"/>
<path d="M337.58 307.73L383.7 307.97"
fill="none" stroke="RGB(2,158,33)" stroke-width="2"/>
<path d="M392.29 307.99L437.96 308"
fill="none" stroke="RGB(2,158,33)" stroke-width="2"/>
<path d="M446.56 307.98L490.07 307.77"
fill="none" stroke="RGB(2,158,33)" stroke-width="2"/>
<path d="M498.67 307.7L541.86 307.28"
fill="none" stroke="RGB(2,158,33)" stroke-width="2"/>
<path d="M550.47 307.18L594.71 306.54"
fill="none" stroke="RGB(2,158,33)" stroke-width="2"/>
<path d="M603.32 306.39L645.4 305.57"
fill="none" stroke="RGB(2,158,33)" stroke-width="2"/>
<path d="M654.03 305.38L701.79 304.22M701.79 304.22L749.55 302.84M749.55 302.84L797.3 301.25"
fill="none" stroke="RGB(2,158,33)" stroke-width="2"/>
<path d="M136.74 299.32L132.78 326.36"
fill="none" stroke="black" stroke-width="2"/>
<path d="M128.33 298.09L124.37 325.13"
fill="none" stroke="black" stroke-width="2"/>
<path d="M124.32 325.75L124.51 324.49M124.51 324.49L125.06 323.35M125.06 323.35L125.92 322.42M125.92 322.42L127.02 321.79M127.02 321.79L128.26 321.51M128.26 321.51L129.52 321.6M129.52 321.6L130.7 322.07M130.7 322.07L131.69 322.86M131.69 322.86L132.4 323.9M132.4 323.9L132.78 325.11M132.78 325.11L132.78 326.38M132.78 326.38L132.4 327.59M132.4 327.59L131.69 328.64M131.69 328.64L130.7 329.43M130.7 329.43L129.52 329.89M129.52 329.89L128.26 329.99M128.26 329.99L127.02 329.7M127.02 329.7L125.92 329.07M125.92 329.07L125.06 328.14M125.06 328.14L124.51 327M124.51 327L124.32 325.75"
fill="none" stroke="black" stroke-width="2"/>
<path d="M136.74 299.32L136.75 298.11M136.75 298.11L136.41 296.95M136.41 296.95L135.76 295.93M135.76 295.93L134.85 295.14M134.85 295.14L133.75 294.63M133.75 294.63L132.55 294.46M132.55 294.46L131.35 294.63M131.35 294.63L130.25 295.13M130.25 295.13L129.33 295.92M129.33 295.92L128.68 296.93M128.68 296.93L128.33 298.09"
fill="none" stroke="black" stroke-width="2"/>
<path d="M183.89 301.15L179.93 328.19"
fill="none" stroke="black" stroke-width="2"/>
<path d="M175.48 299.92L171.52 326.96"
fill="none" stroke="black" stroke-width="2"/>
<path d="M171.47 327.57L171.66 326.32M171.66 326.32L172.21 325.18M172.21 325.18L173.07 324.25M173.07 324.25L174.17 323.62M174.17 323.62L175.4 323.34M175.4 323.34L176.67 323.43M176.67 323.43L177.85 323.89M177.85 323.89L178.84 324.68M178.84 324.68L179.55 325.73M179.55 325.73L179.93 326.94M179.93 326.94L179.93 328.21M179.93 328.21L179.55 329.42M179.55 329.42L178.84 330.47M178.84 330.47L177.85 331.26M177.85 331.26L176.67 331.72M176.67 331.72L175.4 331.81M175.4 331.81L174.17 331.53M174.17 331.53L173.07 330.9M173.07 330.9L172.21 329.97M172.21 329.97L171.66 328.83M171.66 328.83L171.47 327.57"
fill="none" stroke="black" stroke-width="2"/>
<path d="M183.89 301.15L183.9 299.94M183.9 299.94L183.56 298.78M183.56 298.78L182.91 297.76M182.91 297.76L181.99 296.97M181.99 296.97L180.9 296.46M180.9 296.46L179.7 296.28M179.7 296.28L178.5 296.45M178.5 296.45L177.4 296.95M177.4 296.95L176.48 297.74M176.48 297.74L175.82 298.76M175.82 298.76L175.48 299.92"
fill="none" stroke="black" stroke-width="2"/>
<path d="M235.62 302.98L231.65 330.02"
fill="none" stroke="black" stroke-width="2"/>
<path d="M227.2 301.75L223.24 328.79"
fill="none" stroke="black" stroke-width="2"/>
<path d="M223.19 329.41L223.38 328.15M223.38 328.15L223.93 327.01M223.93 327.01L224.8 326.08M224.8 326.08L225.89 325.45M225.89 325.45L227.13 325.17M227.13 325.17L228.39 325.26M228.39 325.26L229.57 325.72M229.57 325.72L230.56 326.51M230.56 326.51L231.28 327.56M231.28 327.56L231.65 328.77M231.65 328.77L231.65 330.04M231.65 330.04L231.28 331.25M231.28 331.25L230.56 332.3M230.56 332.3L229.57 333.09M229.57 333.09L228.39 333.55M228.39 333.55L227.13 333.64M227.13 333.64L225.89 333.36M225.89 333.36L224.8 332.73M224.8 332.73L223.93 331.8M223.93 331.8L223.38 330.66M223.38 330.66L223.19 329.41"
fill="none" stroke="black" stroke-width="2"/>
<path d="M235.62 302.98L235.62 301.77M235.62 301.77L235.28 300.61M235.28 300.61L234.63 299.59M234.63 299.59L233.72 298.8M233.72 298.8L232.62 298.29M232.62 298.29L231.42 298.12M231.42 298.12L230.22 298.28M230.22 298.28L229.12 298.78M229.12 298.78L228.21 299.57M228.21 299.57L227.55 300.59M227.55 300.59L227.2 301.75"
fill="none" stroke="black" stroke-width="2"/>
<path d="M284.82 302.07L280.86 329.11"
fill="none" stroke="black" stroke-width="2"/>
<path d="M276.41 300.83L272.45 327.87"
fill="none" stroke="black" stroke-width="2"/>
<path d="M272.4 328.49L272.59 327.24M272.59 327.24L273.14 326.1M273.14 326.1L274 325.17M274 325.17L275.1 324.53M275.1 324.53L276.34 324.25M276.34 324.25L277.6 324.35M277.6 324.35L278.78 324.81M278.78 324.81L279.77 325.6M279.77 325.6L280.48 326.65M280.48 326.65L280.86 327.86M280.86 327.86L280.86 329.12M280.86 329.12L280.48 330.33M280.48 330.33L279.77 331.38M279.77 331.38L278.78 332.17M278.78 332.17L277.6 332.63M277.6 332.63L276.34 332.73M276.34 332.73L275.1 332.45M275.1 332.45L274 331.81M274 331.81L273.14 330.88M273.14 330.88L272.59 329.74M272.59 329.74L272.4 328.49"
fill="none" stroke="black" stroke-width="2"/>
<path d="M284.82 302.07L284.83 300.86M284.83 300.86L284.49 299.7M284.49 299.7L283.84 298.68M283.84 298.68L282.93 297.88M282.93 297.88L281.83 297.38M281.83 297.38L280.63 297.2M280.63 297.2L279.43 297.37M279.43 297.37L278.33 297.87M278.33 297.87L277.41 298.66M277.41 298.66L276.75 299.67M276.75 299.67L276.41 300.83"
fill="none" stroke="black" stroke-width="2"/>
<path d="M338.39 302.2L334.43 329.24"
fill="none" stroke="black" stroke-width="2"/>
<path d="M329.98 300.97L326.01 328.01"
fill="none" stroke="black" stroke-width="2"/>
<path d="M325.97 328.62L326.16 327.37M326.16 327.37L326.71 326.23M326.71 326.23L327.57 325.3M327.57 325.3L328.67 324.67M328.67 324.67L329.9 324.38M329.9 324.38L331.17 324.48M331.17 324.48L332.35 324.94M332.35 324.94L333.34 325.73M333.34 325.73L334.05 326.78M334.05 326.78L334.42 327.99M334.42 327.99L334.42 329.26M334.42 329.26L334.05 330.47M334.05 330.47L333.34 331.52M333.34 331.52L332.35 332.31M332.35 332.31L331.17 332.77M331.17 332.77L329.9 332.86M329.9 332.86L328.67 332.58M328.67 332.58L327.57 331.95M327.57 331.95L326.71 331.02M326.71 331.02L326.16 329.88M326.16 329.88L325.97 328.62"
fill="none" stroke="black" stroke-width="2"/>
<path d="M338.39 302.2L338.39 300.99M338.39 300.99L338.06 299.83M338.06 299.83L337.4 298.81M337.4 298.81L336.49 298.01M336.49 298.01L335.39 297.51M335.39 297.51L334.2 297.33M334.2 297.33L333 297.5M333 297.5L331.89 298M331.89 298L330.98 298.79M330.98 298.79L330.32 299.81M330.32 299.81L329.98 300.97"
fill="none" stroke="black" stroke-width="2"/>
<path d="M393.03 302.93L389.07 329.97"
fill="none" stroke="black" stroke-width="2"/>
<path d="M384.62 301.7L380.65 328.74"
fill="none" stroke="black" stroke-width="2"/>
<path d="M380.61 329.36L380.8 328.1M380.8 328.1L381.35 326.96M381.35 326.96L382.21 326.03M382.21 326.03L383.31 325.4M383.31 325.4L384.54 325.12M384.54 325.12L385.81 325.21M385.81 325.21L386.99 325.67M386.99 325.67L387.98 326.46M387.98 326.46L388.69 327.51M388.69 327.51L389.06 328.72M389.06 328.72L389.06 329.99M389.06 329.99L388.69 331.2M388.69 331.2L387.98 332.25M387.98 332.25L386.99 333.04M386.99 333.04L385.81 333.5M385.81 333.5L384.54 333.6M384.54 333.6L383.31 333.31M383.31 333.31L382.21 332.68M382.21 332.68L381.35 331.75M381.35 331.75L380.8 330.61M380.8 330.61L380.61 329.36"
fill="none" stroke="black" stroke-width="2"/>
<path d="M393.03 302.93L393.03 301.72M393.03 301.72L392.7 300.56M392.7 300.56L392.05 299.54M392.05 299.54L391.13 298.75M391.13 298.75L390.03 298.24M390.03 298.24L388.84 298.07M388.84 298.07L387.64 298.23M387.64 298.23L386.54 298.73M386.54 298.73L385.62 299.52M385.62 299.52L384.96 300.54M384.96 300.54L384.62 301.7"
fill="none" stroke="black" stroke-width="2"/>
<path d="M447.3 302.93L443.34 329.97"
fill="none" stroke="black" stroke-width="2"/>
<path d="M438.89 301.7L434.92 328.74"
fill="none" stroke="black" stroke-width="2"/>
<path d="M434.88 329.36L435.07 328.1M435.07 328.1L435.62 326.96M435.62 326.96L436.48 326.03M436.48 326.03L437.58 325.4M437.58 325.4L438.81 325.12M438.81 325.12L440.08 325.21M440.08 325.21L441.26 325.67M441.26 325.67L442.25 326.46M442.25 326.46L442.96 327.51M442.96 327.51L443.33 328.72M443.33 328.72L443.33 329.99M443.33 329.99L442.96 331.2M442.96 331.2L442.25 332.25M442.25 332.25L441.26 333.04M441.26 333.04L440.08 333.5M440.08 333.5L438.81 333.6M438.81 333.6L437.58 333.31M437.58 333.31L436.48 332.68M436.48 332.68L435.62 331.75M435.62 331.75L435.07 330.61M435.07 330.61L434.88 329.36"
fill="none" stroke="black" stroke-width="2"/>
<path d="M447.3 302.93L447.3 301.72M447.3 301.72L446.97 300.56M446.97 300.56L446.31 299.54M446.31 299.54L445.4 298.75M445.4 298.75L444.3 298.24M444.3 298.24L443.1 298.07M443.1 298.07L441.91 298.23M441.91 298.23L440.8 298.73M440.8 298.73L439.89 299.52M439.89 299.52L439.23 300.54M439.23 300.54L438.89 301.7"
fill="none" stroke="black" stroke-width="2"/>
<path d="M499.37 302.93L495.41 329.97"
fill="none" stroke="black" stroke-width="2"/>
<path d="M490.96 301.7L486.99 328.74"
fill="none" stroke="black" stroke-width="2"/>
<path d="M486.95 329.36L487.14 328.1M487.14 328.1L487.69 326.96M487.69 326.96L488.55 326.03M488.55 326.03L489.65 325.4M489.65 325.4L490.88 325.12M490.88 325.12L492.15 325.21M492.15 325.21L493.33 325.67M493.33 325.67L494.32 326.46M494.32 326.46L495.03 327.51M495.03 327.51L495.4 328.72M495.4 328.72L495.4 329.99M495.4 329.99L495.03 331.2M495.03 331.2L494.32 332.25M494.32 332.25L493.33 333.04M493.33 333.04L492.15 333.5M492.15 333.5L490.88 333.6M490.88 333.6L489.65 333.31M489.65 333.31L488.55 332.68M488.55 332.68L487.69 331.75M487.69 331.75L487.14 330.61M487.14 330.61L486.95 329.36"
fill="none" stroke="black" stroke-width="2"/>
<path d="M499.37 302.93L499.37 301.72M499.37 301.72L499.04 300.56M499.04 300.56L498.38 299.54M498.38 299.54L497.47 298.75M497.47 298.75L496.37 298.24M496.37 298.24L495.18 298.07M495.18 298.07L493.98 298.23M493.98 298.23L492.88 298.73M492.88 298.73L491.96 299.52M491.96 299.52L491.3 300.54M491.3 300.54L490.96 301.7"
fill="none" stroke="black" stroke-width="2"/>
<path d="M551.33 301.33L547.36 328.37"
fill="none" stroke="black" stroke-width="2"/>
<path d="M542.91 300.09L538.95 327.13"
fill="none" stroke="black" stroke-width="2"/>
<path d="M538.9 327.75L539.09 326.5M539.09 326.5L539.64 325.35M539.64 325.35L540.51 324.43M540.51 324.43L541.6 323.79M541.6 323.79L542.84 323.51M542.84 323.51L544.1 323.6M544.1 323.6L545.28 324.07M545.28 324.07L546.27 324.86M546.27 324.86L546.99 325.9M546.99 325.9L547.36 327.12M547.36 327.12L547.36 328.38M547.36 328.38L546.99 329.59M546.99 329.59L546.27 330.64M546.27 330.64L545.28 331.43M545.28 331.43L544.1 331.89M544.1 331.89L542.84 331.99M542.84 331.99L541.6 331.71M541.6 331.71L540.51 331.07M540.51 331.07L539.64 330.14M539.64 330.14L539.09 329M539.09 329L538.9 327.75"
fill="none" stroke="black" stroke-width="2"/>
<path d="M551.33 301.33L551.33 300.12M551.33 300.12L550.99 298.95M550.99 298.95L550.34 297.93M550.34 297.93L549.43 297.14M549.43 297.14L548.33 296.63M548.33 296.63L547.13 296.46M547.13 296.46L545.93 296.63M545.93 296.63L544.83 297.13M544.83 297.13L543.92 297.92M543.92 297.92L543.26 298.93M543.26 298.93L542.91 300.09"
fill="none" stroke="black" stroke-width="2"/>
<path d="M604.24 300.15L600.27 327.19"
fill="none" stroke="black" stroke-width="2"/>
<path d="M595.82 298.92L591.86 325.96"
fill="none" stroke="black" stroke-width="2"/>
<path d="M591.81 326.57L592 325.32M592 325.32L592.55 324.18M592.55 324.18L593.41 323.25M593.41 323.25L594.51 322.62M594.51 322.62L595.75 322.33M595.75 322.33L597.01 322.43M597.01 322.43L598.19 322.89M598.19 322.89L599.18 323.68M599.18 323.68L599.9 324.73M599.9 324.73L600.27 325.94M600.27 325.94L600.27 327.21M600.27 327.21L599.9 328.42M599.9 328.42L599.18 329.46M599.18 329.46L598.19 330.25M598.19 330.25L597.01 330.72M597.01 330.72L595.75 330.81M595.75 330.81L594.51 330.53M594.51 330.53L593.41 329.9M593.41 329.9L592.55 328.97M592.55 328.97L592 327.83M592 327.83L591.81 326.57"
fill="none" stroke="black" stroke-width="2"/>
<path d="M604.24 300.15L604.24 298.94M604.24 298.94L603.9 297.78M603.9 297.78L603.25 296.76M603.25 296.76L602.34 295.96M602.34 295.96L601.24 295.46M601.24 295.46L600.04 295.28M600.04 295.28L598.84 295.45M598.84 295.45L597.74 295.95M597.74 295.95L596.82 296.74M596.82 296.74L596.17 297.76M596.17 297.76L595.82 298.92"
fill="none" stroke="black" stroke-width="2"/>
<path d="M654.79 300.15L650.83 327.19"
fill="none" stroke="black" stroke-width="2"/>
<path d="M646.38 298.92L642.42 325.96"
fill="none" stroke="black" stroke-width="2"/>
<path d="M642.37 326.57L642.56 325.32M642.56 325.32L643.11 324.18M643.11 324.18L643.97 323.25M643.97 323.25L645.07 322.62M645.07 322.62L646.3 322.33M646.3 322.33L647.57 322.43M647.57 322.43L648.75 322.89M648.75 322.89L649.74 323.68M649.74 323.68L650.45 324.73M650.45 324.73L650.83 325.94M650.83 325.94L650.83 327.21M650.83 327.21L650.45 328.42M650.45 328.42L649.74 329.46M649.74 329.46L648.75 330.25M648.75 330.25L647.57 330.72M647.57 330.72L646.3 330.81M646.3 330.81L645.07 330.53M645.07 330.53L643.97 329.9M643.97 329.9L643.11 328.97M643.11 328.97L642.56 327.83M642.56 327.83L642.37 326.57"
fill="none" stroke="black" stroke-width="2"/>
<path d="M654.79 300.15L654.8 298.94M654.8 298.94L654.46 297.78M654.46 297.78L653.81 296.76M653.81 296.76L652.89 295.96M652.89 295.96L651.8 295.46M651.8 295.46L650.6 295.28M650.6 295.28L649.4 295.45M649.4 295.45L648.3 295.95M648.3 295.95L647.38 296.74M647.38 296.74L646.72 297.76M646.72 297.76L646.38 298.92"
fill="none" stroke="black" stroke-width="2"/>
</svg>
