<?xml version="1.0" encoding="UTF-8"?>
<svg xmlns="http://www.w3.org/2000/svg" width="800.000" height="600.000" viewBox="0.0 0.0 800.000 600.000" version="1.1">
  <title>Produce by Acme CAD Converter</title>
  <desc>Produce by Acme CAD Converter</desc>
<path d="M2.26 80.73L2.26 519.27"
fill="none" stroke="RGB(237,31,36)" stroke-width="0"/>
<path d="M133.56 323.2L133 326.98"
fill="none" stroke="black" stroke-width="2"/>
<path d="M128.56 298.77L127.79 304.03"
fill="none" stroke="black" stroke-width="2"/>
<path d="M126.34 313.97L124.61 325.75"
fill="none" stroke="black" stroke-width="2"/>
<path d="M124.56 326.36L124.75 325.11M124.75 325.11L125.3 323.97M125.3 323.97L126.16 323.05M126.16 323.05L127.26 322.42M127.26 322.42L128.49 322.13M128.49 322.13L129.75 322.23M129.75 322.23L130.93 322.69M130.93 322.69L131.92 323.48M131.92 323.48L132.63 324.52M132.63 324.52L133 325.73M133 325.73L133 327M133 327L132.63 328.2M132.63 328.2L131.92 329.25M131.92 329.25L130.93 330.04M130.93 330.04L129.75 330.5M129.75 330.5L128.49 330.59M128.49 330.59L127.26 330.31M127.26 330.31L126.16 329.68M126.16 329.68L125.3 328.75M125.3 328.75L124.75 327.61M124.75 327.61L124.56 326.36"
fill="none" stroke="black" stroke-width="2"/>
<path d="M135.5 296.14L134.4 295.47M134.4 295.47L133.16 295.16M133.16 295.16L131.88 295.24M131.88 295.24L130.68 295.69M130.68 295.69L129.67 296.48M129.67 296.48L128.94 297.54M128.94 297.54L128.56 298.77"
fill="none" stroke="black" stroke-width="2"/>
<path d="M182.34 300L181.77 303.91"
fill="none" stroke="black" stroke-width="2"/>
<path d="M180.25 314.29L178.39 326.98"
fill="none" stroke="black" stroke-width="2"/>
<path d="M170.35 323.33L169.99 325.75"
fill="none" stroke="black" stroke-width="2"/>
<path d="M169.95 326.36L170.13 325.11M170.13 325.11L170.68 323.97M170.68 323.97L171.54 323.05M171.54 323.05L172.64 322.42M172.64 322.42L173.87 322.13M173.87 322.13L175.13 322.23M175.13 322.23L176.31 322.69M176.31 322.69L177.3 323.48M177.3 323.48L178.01 324.52M178.01 324.52L178.38 325.73M178.38 325.73L178.38 327M178.38 327L178.01 328.2M178.01 328.2L177.3 329.25M177.3 329.25L176.31 330.04M176.31 330.04L175.13 330.5M175.13 330.5L173.87 330.59M173.87 330.59L172.64 330.31M172.64 330.31L171.54 329.68M171.54 329.68L170.68 328.75M170.68 328.75L170.13 327.61M170.13 327.61L169.95 326.36"
fill="none" stroke="black" stroke-width="2"/>
<path d="M182.34 300L182.34 298.8M182.34 298.8L182.01 297.64M182.01 297.64L181.36 296.62M181.36 296.62L180.46 295.83M180.46 295.83L179.37 295.32M179.37 295.32L178.18 295.14M178.18 295.14L176.99 295.3M176.99 295.3L175.89 295.79"
fill="none" stroke="black" stroke-width="2"/>
<path d="M126.02 312.26L126.47 314.43M126.47 314.43L127.3 316.53M127.3 316.53L128.51 318.53M128.51 318.53L130.08 320.39M130.08 320.39L131.99 322.09M131.99 322.09L134.21 323.61M134.21 323.61L136.71 324.92M136.71 324.92L139.45 326.01M139.45 326.01L142.39 326.87M142.39 326.87L145.5 327.47M145.5 327.47L148.73 327.81M148.73 327.81L152.04 327.9M152.04 327.9L155.37 327.71M155.37 327.71L158.69 327.27M158.69 327.27L161.94 326.57M161.94 326.57L165.08 325.62M165.08 325.62L168.07 324.44M168.07 324.44L170.86 323.04M170.86 323.04L173.41 321.45M173.41 321.45L175.7 319.69M175.7 319.69L177.68 317.77M177.68 317.77L179.32 315.73M179.32 315.73L180.62 313.6M180.62 313.6L181.54 311.41M181.54 311.41L182.08 309.18M182.08 309.18L182.22 306.95M182.22 306.95L181.97 304.75M181.97 304.75L181.33 302.61M181.33 302.61L180.3 300.56M180.3 300.56L178.91 298.62M178.91 298.62L177.16 296.84M177.16 296.84L175.1 295.23M175.1 295.23L172.74 293.81M172.74 293.81L170.11 292.6M170.11 292.6L167.26 291.63M167.26 291.63L164.23 290.9M164.23 290.9L161.06 290.42M161.06 290.42L157.78 290.21M157.78 290.21L154.46 290.26M154.46 290.26L151.13 290.58M151.13 290.58L147.84 291.15M147.84 291.15L144.63 291.98M144.63 291.98L141.56 293.04M141.56 293.04L138.67 294.33M138.67 294.33L135.99 295.83M135.99 295.83L133.57 297.51M133.57 297.51L131.44 299.35M131.44 299.35L129.62 301.33M129.62 301.33L128.14 303.42M128.14 303.42L127.03 305.59M127.03 305.59L126.3 307.81M126.3 307.81L125.96 310.04M125.96 310.04L126.02 312.26"
fill="none" stroke="black" stroke-width="2"/>
<path d="M253.44 326.57L252.88 330.34"
fill="none" stroke="black" stroke-width="2"/>
<path d="M248.45 302.13L247.67 307.39"
fill="none" stroke="black" stroke-width="2"/>
<path d="M246.22 317.33L244.49 329.11"
fill="none" stroke="black" stroke-width="2"/>
<path d="M244.45 329.73L244.63 328.48M244.63 328.48L245.18 327.34M245.18 327.34L246.04 326.41M246.04 326.41L247.14 325.78M247.14 325.78L248.37 325.5M248.37 325.5L249.63 325.59M249.63 325.59L250.81 326.05M250.81 326.05L251.8 326.84M251.8 326.84L252.51 327.89M252.51 327.89L252.88 329.1M252.88 329.1L252.88 330.36M252.88 330.36L252.51 331.57M252.51 331.57L251.8 332.61M251.8 332.61L250.81 333.4M250.81 333.4L249.63 333.86M249.63 333.86L248.37 333.96M248.37 333.96L247.14 333.68M247.14 333.68L246.04 333.04M246.04 333.04L245.18 332.12M245.18 332.12L244.63 330.98M244.63 330.98L244.45 329.73"
fill="none" stroke="black" stroke-width="2"/>
<path d="M255.38 299.51L254.28 298.84M254.28 298.84L253.04 298.53M253.04 298.53L251.76 298.6M251.76 298.6L250.56 299.05M250.56 299.05L249.55 299.85M249.55 299.85L248.82 300.91M248.82 300.91L248.45 302.13"
fill="none" stroke="black" stroke-width="2"/>
<path d="M302.22 303.36L301.65 307.28"
fill="none" stroke="black" stroke-width="2"/>
<path d="M300.13 317.65L298.27 330.34"
fill="none" stroke="black" stroke-width="2"/>
<path d="M290.23 326.69L289.87 329.11"
fill="none" stroke="black" stroke-width="2"/>
<path d="M289.83 329.73L290.02 328.48M290.02 328.48L290.56 327.34M290.56 327.34L291.42 326.41M291.42 326.41L292.52 325.78M292.52 325.78L293.75 325.5M293.75 325.5L295.01 325.59M295.01 325.59L296.19 326.05M296.19 326.05L297.18 326.84M297.18 326.84L297.89 327.89M297.89 327.89L298.26 329.1M298.26 329.1L298.26 330.36M298.26 330.36L297.89 331.57M297.89 331.57L297.18 332.61M297.18 332.61L296.19 333.4M296.19 333.4L295.01 333.86M295.01 333.86L293.75 333.96M293.75 333.96L292.52 333.68M292.52 333.68L291.42 333.04M291.42 333.04L290.56 332.12M290.56 332.12L290.02 330.98M290.02 330.98L289.83 329.73"
fill="none" stroke="black" stroke-width="2"/>
<path d="M302.22 303.36L302.23 302.16M302.23 302.16L301.89 301M301.89 301L301.25 299.99M301.25 299.99L300.34 299.19M300.34 299.19L299.25 298.69M299.25 298.69L298.06 298.51M298.06 298.51L296.87 298.67M296.87 298.67L295.77 299.16"
fill="none" stroke="black" stroke-width="2"/>
<path d="M245.9 315.62L246.35 317.8M246.35 317.8L247.18 319.9M247.18 319.9L248.39 321.89M248.39 321.89L249.97 323.75M249.97 323.75L251.87 325.45M251.87 325.45L254.09 326.97M254.09 326.97L256.59 328.29M256.59 328.29L259.33 329.38M259.33 329.38L262.27 330.23M262.27 330.23L265.38 330.83M265.38 330.83L268.61 331.18M268.61 331.18L271.92 331.26M271.92 331.26L275.25 331.08M275.25 331.08L278.57 330.63M278.57 330.63L281.82 329.93M281.82 329.93L284.96 328.98M284.96 328.98L287.95 327.81M287.95 327.81L290.74 326.41M290.74 326.41L293.29 324.82M293.29 324.82L295.58 323.05M295.58 323.05L297.56 321.14M297.56 321.14L299.21 319.1M299.21 319.1L300.5 316.97M300.5 316.97L301.42 314.77M301.42 314.77L301.96 312.54M301.96 312.54L302.1 310.31M302.1 310.31L301.85 308.11M301.85 308.11L301.21 305.97M301.21 305.97L300.18 303.92M300.18 303.92L298.79 301.99M298.79 301.99L297.04 300.2M297.04 300.2L294.98 298.59M294.98 298.59L292.62 297.17M292.62 297.17L289.99 295.97M289.99 295.97L287.15 294.99M287.15 294.99L284.11 294.26M284.11 294.26L280.94 293.79M280.94 293.79L277.66 293.58M277.66 293.58L274.34 293.63M274.34 293.63L271.01 293.94M271.01 293.94L267.72 294.52M267.72 294.52L264.52 295.34M264.52 295.34L261.45 296.41M261.45 296.41L258.55 297.7M258.55 297.7L255.88 299.19M255.88 299.19L253.45 300.87M253.45 300.87L251.32 302.72M251.32 302.72L249.5 304.7M249.5 304.7L248.02 306.79M248.02 306.79L246.91 308.95M246.91 308.95L246.18 311.17M246.18 311.17L245.84 313.4M245.84 313.4L245.9 315.62"
fill="none" stroke="black" stroke-width="2"/>
<path d="M365.11 325.21L364.55 328.99"
fill="none" stroke="black" stroke-width="2"/>
<path d="M360.11 300.78L359.34 306.04"
fill="none" stroke="black" stroke-width="2"/>
<path d="M357.88 315.98L356.16 327.76"
fill="none" stroke="black" stroke-width="2"/>
<path d="M356.11 328.38L356.3 327.13M356.3 327.13L356.85 325.99M356.85 325.99L357.71 325.06M357.71 325.06L358.81 324.43M358.81 324.43L360.04 324.15M360.04 324.15L361.3 324.24M361.3 324.24L362.48 324.7M362.48 324.7L363.46 325.49M363.46 325.49L364.18 326.54M364.18 326.54L364.55 327.74M364.55 327.74L364.55 329.01M364.55 329.01L364.18 330.22M364.18 330.22L363.46 331.26M363.46 331.26L362.48 332.05M362.48 332.05L361.3 332.51M361.3 332.51L360.04 332.61M360.04 332.61L358.81 332.33M358.81 332.33L357.71 331.69M357.71 331.69L356.85 330.77M356.85 330.77L356.3 329.63M356.3 329.63L356.11 328.38"
fill="none" stroke="black" stroke-width="2"/>
<path d="M367.05 298.16L365.95 297.49M365.95 297.49L364.71 297.17M364.71 297.17L363.43 297.25M363.43 297.25L362.22 297.7M362.22 297.7L361.22 298.5M361.22 298.5L360.49 299.55M360.49 299.55L360.11 300.78"
fill="none" stroke="black" stroke-width="2"/>
<path d="M413.89 302.01L413.32 305.93"
fill="none" stroke="black" stroke-width="2"/>
<path d="M411.79 316.3L409.93 328.99"
fill="none" stroke="black" stroke-width="2"/>
<path d="M401.89 325.34L401.54 327.76"
fill="none" stroke="black" stroke-width="2"/>
<path d="M401.49 328.38L401.68 327.13M401.68 327.13L402.23 325.99M402.23 325.99L403.09 325.06M403.09 325.06L404.19 324.43M404.19 324.43L405.42 324.15M405.42 324.15L406.68 324.24M406.68 324.24L407.86 324.7M407.86 324.7L408.85 325.49M408.85 325.49L409.56 326.54M409.56 326.54L409.93 327.74M409.93 327.74L409.93 329.01M409.93 329.01L409.56 330.22M409.56 330.22L408.85 331.26M408.85 331.26L407.86 332.05M407.86 332.05L406.68 332.51M406.68 332.51L405.42 332.61M405.42 332.61L404.19 332.33M404.19 332.33L403.09 331.69M403.09 331.69L402.23 330.77M402.23 330.77L401.68 329.63M401.68 329.63L401.49 328.38"
fill="none" stroke="black" stroke-width="2"/>
<path d="M413.89 302.01L413.89 300.81M413.89 300.81L413.56 299.65M413.56 299.65L412.91 298.64M412.91 298.64L412.01 297.84M412.01 297.84L410.92 297.34M410.92 297.34L409.73 297.16M409.73 297.16L408.53 297.32M408.53 297.32L407.43 297.81"
fill="none" stroke="black" stroke-width="2"/>
<path d="M357.57 314.27L358.01 316.45M358.01 316.45L358.85 318.55M358.85 318.55L360.06 320.54M360.06 320.54L361.63 322.4M361.63 322.4L363.54 324.1M363.54 324.1L365.76 325.62M365.76 325.62L368.25 326.93M368.25 326.93L371 328.03M371 328.03L373.94 328.88M373.94 328.88L377.05 329.48M377.05 329.48L380.28 329.83M380.28 329.83L383.59 329.91M383.59 329.91L386.92 329.73M386.92 329.73L390.24 329.28M390.24 329.28L393.49 328.58M393.49 328.58L396.63 327.63M396.63 327.63L399.62 326.45M399.62 326.45L402.41 325.06M402.41 325.06L404.96 323.47M404.96 323.47L407.24 321.7M407.24 321.7L409.22 319.78M409.22 319.78L410.87 317.75M410.87 317.75L412.17 315.61M412.17 315.61L413.09 313.42M413.09 313.42L413.63 311.19M413.63 311.19L413.77 308.96M413.77 308.96L413.52 306.76M413.52 306.76L412.87 304.62M412.87 304.62L411.85 302.57M411.85 302.57L410.45 300.64M410.45 300.64L408.71 298.85M408.71 298.85L406.65 297.24M406.65 297.24L404.28 295.82M404.28 295.82L401.66 294.62M401.66 294.62L398.81 293.64M398.81 293.64L395.78 292.91M395.78 292.91L392.6 292.44M392.6 292.44L389.33 292.22M389.33 292.22L386 292.27M386 292.27L382.67 292.59M382.67 292.59L379.38 293.16M379.38 293.16L376.18 293.99M376.18 293.99L373.11 295.05M373.11 295.05L370.22 296.34M370.22 296.34L367.54 297.84M367.54 297.84L365.12 299.52M365.12 299.52L362.98 301.37M362.98 301.37L361.17 303.35M361.17 303.35L359.69 305.43M359.69 305.43L358.58 307.6M358.58 307.6L357.85 309.82M357.85 309.82L357.51 312.05M357.51 312.05L357.57 314.27"
fill="none" stroke="black" stroke-width="2"/>
<path d="M475.95 325.7L475.4 329.48"
fill="none" stroke="black" stroke-width="2"/>
<path d="M470.96 301.27L470.18 306.53"
fill="none" stroke="black" stroke-width="2"/>
<path d="M468.73 316.47L467 328.25"
fill="none" stroke="black" stroke-width="2"/>
<path d="M466.96 328.86L467.14 327.61M467.14 327.61L467.69 326.48M467.69 326.48L468.55 325.55M468.55 325.55L469.65 324.92M469.65 324.92L470.88 324.63M470.88 324.63L472.14 324.73M472.14 324.73L473.32 325.19M473.32 325.19L474.31 325.98M474.31 325.98L475.02 327.02M475.02 327.02L475.39 328.23M475.39 328.23L475.39 329.5M475.39 329.5L475.02 330.7M475.02 330.7L474.31 331.75M474.31 331.75L473.32 332.54M473.32 332.54L472.14 333M472.14 333L470.88 333.09M470.88 333.09L469.65 332.81M469.65 332.81L468.55 332.18M468.55 332.18L467.69 331.25M467.69 331.25L467.14 330.11M467.14 330.11L466.96 328.86"
fill="none" stroke="black" stroke-width="2"/>
<path d="M477.89 298.64L476.79 297.97M476.79 297.97L475.55 297.66M475.55 297.66L474.27 297.74M474.27 297.74L473.07 298.19M473.07 298.19L472.06 298.98M472.06 298.98L471.33 300.04M471.33 300.04L470.96 301.27"
fill="none" stroke="black" stroke-width="2"/>
<path d="M524.73 302.5L524.16 306.41"
fill="none" stroke="black" stroke-width="2"/>
<path d="M522.64 316.79L520.78 329.48"
fill="none" stroke="black" stroke-width="2"/>
<path d="M512.74 325.83L512.38 328.25"
fill="none" stroke="black" stroke-width="2"/>
<path d="M512.34 328.86L512.53 327.61M512.53 327.61L513.07 326.48M513.07 326.48L513.93 325.55M513.93 325.55L515.03 324.92M515.03 324.92L516.26 324.63M516.26 324.63L517.52 324.73M517.52 324.73L518.7 325.19M518.7 325.19L519.69 325.98M519.69 325.98L520.4 327.02M520.4 327.02L520.77 328.23M520.77 328.23L520.77 329.5M520.77 329.5L520.4 330.7M520.4 330.7L519.69 331.75M519.69 331.75L518.7 332.54M518.7 332.54L517.52 333M517.52 333L516.26 333.09M516.26 333.09L515.03 332.81M515.03 332.81L513.93 332.18M513.93 332.18L513.07 331.25M513.07 331.25L512.53 330.11M512.53 330.11L512.34 328.86"
fill="none" stroke="black" stroke-width="2"/>
<path d="M524.73 302.5L524.74 301.3M524.74 301.3L524.4 300.14M524.4 300.14L523.76 299.12M523.76 299.12L522.85 298.33M522.85 298.33L521.76 297.82M521.76 297.82L520.57 297.64M520.57 297.64L519.38 297.8M519.38 297.8L518.28 298.29"
fill="none" stroke="black" stroke-width="2"/>
<path d="M468.41 314.76L468.86 316.93M468.86 316.93L469.69 319.03M469.69 319.03L470.91 321.03M470.91 321.03L472.48 322.89M472.48 322.89L474.38 324.59M474.38 324.59L476.6 326.11M476.6 326.11L479.1 327.42M479.1 327.42L481.84 328.51M481.84 328.51L484.78 329.37M484.78 329.37L487.89 329.97M487.89 329.97L491.12 330.32M491.12 330.32L494.43 330.4M494.43 330.4L497.76 330.21M497.76 330.21L501.08 329.77M501.08 329.77L504.33 329.07M504.33 329.07L507.47 328.12M507.47 328.12L510.46 326.94M510.46 326.94L513.25 325.55M513.25 325.55L515.8 323.95M515.8 323.95L518.09 322.19M518.09 322.19L520.07 320.27M520.07 320.27L521.72 318.23M521.72 318.23L523.01 316.1M523.01 316.1L523.93 313.91M523.93 313.91L524.47 311.68M524.47 311.68L524.61 309.45M524.61 309.45L524.36 307.25M524.36 307.25L523.72 305.11M523.72 305.11L522.69 303.06M522.69 303.06L521.3 301.13M521.3 301.13L519.56 299.34M519.56 299.34L517.49 297.73M517.49 297.73L515.13 296.31M515.13 296.31L512.5 295.1M512.5 295.1L509.66 294.13M509.66 294.13L506.62 293.4M506.62 293.4L503.45 292.92M503.45 292.92L500.17 292.71M500.17 292.71L496.85 292.76M496.85 292.76L493.52 293.08M493.52 293.08L490.23 293.65M490.23 293.65L487.03 294.48M487.03 294.48L483.96 295.54M483.96 295.54L481.06 296.83M481.06 296.83L478.39 298.33M478.39 298.33L475.96 300.01M475.96 300.01L473.83 301.85M473.83 301.85L472.01 303.83M472.01 303.83L470.54 305.92M470.54 305.92L469.43 308.09M469.43 308.09L468.69 310.31M468.69 310.31L468.35 312.54M468.35 312.54L468.41 314.76"
fill="none" stroke="black" stroke-width="2"/>
<path d="M585.82 324.73L585.26 328.5"
fill="none" stroke="black" stroke-width="2"/>
<path d="M580.82 300.29L580.05 305.55"
fill="none" stroke="black" stroke-width="2"/>
<path d="M578.59 315.49L576.87 327.27"
fill="none" stroke="black" stroke-width="2"/>
<path d="M576.82 327.89L577.01 326.64M577.01 326.64L577.56 325.5M577.56 325.5L578.42 324.57M578.42 324.57L579.51 323.94M579.51 323.94L580.75 323.66M580.75 323.66L582.01 323.75M582.01 323.75L583.19 324.22M583.19 324.22L584.17 325M584.17 325L584.89 326.05M584.89 326.05L585.26 327.26M585.26 327.26L585.26 328.52M585.26 328.52L584.89 329.73M584.89 329.73L584.17 330.77M584.17 330.77L583.19 331.56M583.19 331.56L582.01 332.02M582.01 332.02L580.75 332.12M580.75 332.12L579.51 331.84M579.51 331.84L578.42 331.2M578.42 331.2L577.56 330.28M577.56 330.28L577.01 329.14M577.01 329.14L576.82 327.89"
fill="none" stroke="black" stroke-width="2"/>
<path d="M587.76 297.67L586.66 297M586.66 297L585.42 296.69M585.42 296.69L584.13 296.76M584.13 296.76L582.93 297.22M582.93 297.22L581.92 298.01M581.92 298.01L581.2 299.07M581.2 299.07L580.82 300.29"
fill="none" stroke="black" stroke-width="2"/>
<path d="M634.6 301.52L634.03 305.44"
fill="none" stroke="black" stroke-width="2"/>
<path d="M632.5 315.81L630.64 328.5"
fill="none" stroke="black" stroke-width="2"/>
<path d="M622.6 324.85L622.25 327.27"
fill="none" stroke="black" stroke-width="2"/>
<path d="M622.2 327.89L622.39 326.64M622.39 326.64L622.94 325.5M622.94 325.5L623.8 324.57M623.8 324.57L624.9 323.94M624.9 323.94L626.13 323.66M626.13 323.66L627.39 323.75M627.39 323.75L628.57 324.22M628.57 324.22L629.56 325M629.56 325L630.27 326.05M630.27 326.05L630.64 327.26M630.64 327.26L630.64 328.52M630.64 328.52L630.27 329.73M630.27 329.73L629.56 330.77M629.56 330.77L628.57 331.56M628.57 331.56L627.39 332.02M627.39 332.02L626.13 332.12M626.13 332.12L624.9 331.84M624.9 331.84L623.8 331.2M623.8 331.2L622.94 330.28M622.94 330.28L622.39 329.14M622.39 329.14L622.2 327.89"
fill="none" stroke="black" stroke-width="2"/>
<path d="M634.6 301.52L634.6 300.32M634.6 300.32L634.27 299.16M634.27 299.16L633.62 298.15M633.62 298.15L632.72 297.36M632.72 297.36L631.63 296.85M631.63 296.85L630.44 296.67M630.44 296.67L629.24 296.83M629.24 296.83L628.14 297.32"
fill="none" stroke="black" stroke-width="2"/>
<path d="M578.28 313.78L578.72 315.96M578.72 315.96L579.56 318.06M579.56 318.06L580.77 320.05M580.77 320.05L582.34 321.91M582.34 321.91L584.25 323.61M584.25 323.61L586.47 325.13M586.47 325.13L588.96 326.45M588.96 326.45L591.7 327.54M591.7 327.54L594.65 328.39M594.65 328.39L597.76 329M597.76 329L600.99 329.34M600.99 329.34L604.3 329.42M604.3 329.42L607.63 329.24M607.63 329.24L610.95 328.79M610.95 328.79L614.2 328.09M614.2 328.09L617.34 327.14M617.34 327.14L620.33 325.97M620.33 325.97L623.12 324.57M623.12 324.57L625.67 322.98M625.67 322.98L627.95 321.21M627.95 321.21L629.93 319.3M629.93 319.3L631.58 317.26M631.58 317.26L632.88 315.13M632.88 315.13L633.8 312.93M633.8 312.93L634.34 310.7M634.34 310.7L634.48 308.47M634.48 308.47L634.23 306.27M634.23 306.27L633.58 304.13M633.58 304.13L632.56 302.08M632.56 302.08L631.16 300.15M631.16 300.15L629.42 298.36M629.42 298.36L627.36 296.75M627.36 296.75L624.99 295.33M624.99 295.33L622.37 294.13M622.37 294.13L619.52 293.15M619.52 293.15L616.49 292.42M616.49 292.42L613.31 291.95M613.31 291.95L610.04 291.74M610.04 291.74L606.71 291.79M606.71 291.79L603.38 292.1M603.38 292.1L600.09 292.68M600.09 292.68L596.89 293.5M596.89 293.5L593.82 294.57M593.82 294.57L590.93 295.86M590.93 295.86L588.25 297.35M588.25 297.35L585.83 299.03M585.83 299.03L583.69 300.88M583.69 300.88L581.88 302.86M581.88 302.86L580.4 304.95M580.4 304.95L579.29 307.11M579.29 307.11L578.56 309.33M578.56 309.33L578.22 311.56M578.22 311.56L578.28 313.78"
fill="none" stroke="black" stroke-width="2"/>
<path d="M128.82 321.35L129.69 163.14"
fill="none" stroke="black" stroke-width="2"/>
<path d="M132.59 296.03L132.59 159.74"
fill="none" stroke="black" stroke-width="2"/>
<path d="M129.13 321.35L129.04 321.19M129.04 321.19L128.82 321.13M128.82 321.13L128.61 321.19M128.61 321.19L128.52 321.35M128.52 321.35L128.61 321.51M128.61 321.51L128.82 321.57M128.82 321.57L129.04 321.51M129.04 321.51L129.13 321.35"
fill="none" stroke="black" stroke-width="2"/>
<path d="M132.89 296.03L132.8 295.87M132.8 295.87L132.59 295.81M132.59 295.81L132.37 295.87M132.37 295.87L132.28 296.03M132.28 296.03L132.37 296.18M132.37 296.18L132.59 296.25M132.59 296.25L132.8 296.18M132.8 296.18L132.89 296.03"
fill="none" stroke="black" stroke-width="2"/>
<path d="M174.21 321.35L174.21 164.85"
fill="none" stroke="black" stroke-width="2"/>
<path d="M177.97 296.03L177.97 160.56"
fill="none" stroke="black" stroke-width="2"/>
<path d="M174.51 321.35L174.42 321.19M174.42 321.19L174.21 321.13M174.21 321.13L173.99 321.19M173.99 321.19L173.9 321.35M173.9 321.35L173.99 321.51M173.99 321.51L174.21 321.57M174.21 321.57L174.42 321.51M174.42 321.51L174.51 321.35"
fill="none" stroke="black" stroke-width="2"/>
<path d="M178.27 296.03L178.18 295.87M178.18 295.87L177.97 295.81M177.97 295.81L177.75 295.87M177.75 295.87L177.66 296.03M177.66 296.03L177.75 296.18M177.75 296.18L177.97 296.25M177.97 296.25L178.18 296.18M178.18 296.18L178.27 296.03"
fill="none" stroke="black" stroke-width="2"/>
<path d="M248.71 324.71L248.98 167.05"
fill="none" stroke="black" stroke-width="2"/>
<path d="M252.47 299.39L252.47 161.58"
fill="none" stroke="black" stroke-width="2"/>
<path d="M249.01 324.71L248.92 324.56M248.92 324.56L248.71 324.49M248.71 324.49L248.49 324.56M248.49 324.56L248.4 324.71M248.4 324.71L248.49 324.87M248.49 324.87L248.71 324.94M248.71 324.94L248.92 324.87M248.92 324.87L249.01 324.71"
fill="none" stroke="black" stroke-width="2"/>
<path d="M252.77 299.39L252.68 299.24M252.68 299.24L252.47 299.17M252.47 299.17L252.25 299.24M252.25 299.24L252.16 299.39M252.16 299.39L252.25 299.55M252.25 299.55L252.47 299.61M252.47 299.61L252.68 299.55M252.68 299.55L252.77 299.39"
fill="none" stroke="black" stroke-width="2"/>
<path d="M294.09 324.71L294.09 167.96"
fill="none" stroke="black" stroke-width="2"/>
<path d="M297.85 299.39L297.86 162.02"
fill="none" stroke="black" stroke-width="2"/>
<path d="M294.39 324.71L294.3 324.56M294.3 324.56L294.09 324.49M294.09 324.49L293.87 324.56M293.87 324.56L293.78 324.71M293.78 324.71L293.87 324.87M293.87 324.87L294.09 324.94M294.09 324.94L294.3 324.87M294.3 324.87L294.39 324.71"
fill="none" stroke="black" stroke-width="2"/>
<path d="M298.15 299.39L298.07 299.24M298.07 299.24L297.85 299.17M297.85 299.17L297.63 299.24M297.63 299.24L297.55 299.39M297.55 299.39L297.63 299.55M297.63 299.55L297.85 299.61M297.85 299.61L298.07 299.55M298.07 299.55L298.15 299.39"
fill="none" stroke="black" stroke-width="2"/>
<path d="M360.37 323.36L360.64 168.74"
fill="none" stroke="black" stroke-width="2"/>
<path d="M364.14 298.04L364.14 162.39"
fill="none" stroke="black" stroke-width="2"/>
<path d="M360.68 323.36L360.59 323.21M360.59 323.21L360.37 323.14M360.37 323.14L360.16 323.21M360.16 323.21L360.07 323.36M360.07 323.36L360.16 323.52M360.16 323.52L360.37 323.58M360.37 323.58L360.59 323.52M360.59 323.52L360.68 323.36"
fill="none" stroke="black" stroke-width="2"/>
<path d="M364.44 298.04L364.35 297.88M364.35 297.88L364.14 297.82M364.14 297.82L363.92 297.88M363.92 297.88L363.83 298.04M363.83 298.04L363.92 298.2M363.92 298.2L364.14 298.26M364.14 298.26L364.35 298.2M364.35 298.2L364.44 298.04"
fill="none" stroke="black" stroke-width="2"/>
<path d="M405.75 323.36L405.75 168.89"
fill="none" stroke="black" stroke-width="2"/>
<path d="M409.52 298.04L409.52 162.46"
fill="none" stroke="black" stroke-width="2"/>
<path d="M406.06 323.36L405.97 323.21M405.97 323.21L405.75 323.14M405.75 323.14L405.54 323.21M405.54 323.21L405.45 323.36M405.45 323.36L405.54 323.52M405.54 323.52L405.75 323.58M405.75 323.58L405.97 323.52M405.97 323.52L406.06 323.36"
fill="none" stroke="black" stroke-width="2"/>
<path d="M409.82 298.04L409.73 297.88M409.73 297.88L409.52 297.82M409.52 297.82L409.3 297.88M409.3 297.88L409.21 298.04M409.21 298.04L409.3 298.2M409.3 298.2L409.52 298.26M409.52 298.26L409.73 298.2M409.73 298.2L409.82 298.04"
fill="none" stroke="black" stroke-width="2"/>
<path d="M471.22 323.85L471.5 168.55"
fill="none" stroke="black" stroke-width="2"/>
<path d="M474.98 298.53L474.98 162.3"
fill="none" stroke="black" stroke-width="2"/>
<path d="M471.52 323.85L471.43 323.69M471.43 323.69L471.22 323.63M471.22 323.63L471 323.69M471 323.69L470.91 323.85M470.91 323.85L471 324.01M471 324.01L471.22 324.07M471.22 324.07L471.43 324.01M471.43 324.01L471.52 323.85"
fill="none" stroke="black" stroke-width="2"/>
<path d="M475.28 298.53L475.19 298.37M475.19 298.37L474.98 298.31M474.98 298.31L474.76 298.37M474.76 298.37L474.67 298.53M474.67 298.53L474.76 298.69M474.76 298.69L474.98 298.75M474.98 298.75L475.19 298.69M475.19 298.69L475.28 298.53"
fill="none" stroke="black" stroke-width="2"/>
<path d="M516.6 323.85L516.6 167.93"
fill="none" stroke="black" stroke-width="2"/>
<path d="M520.36 298.53L520.35 162.02"
fill="none" stroke="black" stroke-width="2"/>
<path d="M516.9 323.85L516.81 323.69M516.81 323.69L516.6 323.63M516.6 323.63L516.38 323.69M516.38 323.69L516.29 323.85M516.29 323.85L516.38 324.01M516.38 324.01L516.6 324.07M516.6 324.07L516.81 324.01M516.81 324.01L516.9 323.85"
fill="none" stroke="black" stroke-width="2"/>
<path d="M520.67 298.53L520.58 298.37M520.58 298.37L520.36 298.31M520.36 298.31L520.15 298.37M520.15 298.37L520.06 298.53M520.06 298.53L520.15 298.69M520.15 298.69L520.36 298.75M520.36 298.75L520.58 298.69M520.58 298.69L520.67 298.53"
fill="none" stroke="black" stroke-width="2"/>
<path d="M581.08 322.87L581.38 166.51"
fill="none" stroke="black" stroke-width="2"/>
<path d="M584.85 297.55L584.85 161.36"
fill="none" stroke="black" stroke-width="2"/>
<path d="M581.39 322.87L581.3 322.72M581.3 322.72L581.08 322.65M581.08 322.65L580.87 322.72M580.87 322.72L580.78 322.87M580.78 322.87L580.87 323.03M580.87 323.03L581.08 323.1M581.08 323.1L581.3 323.03M581.3 323.03L581.39 322.87"
fill="none" stroke="black" stroke-width="2"/>
<path d="M585.15 297.55L585.06 297.4M585.06 297.4L584.85 297.33M584.85 297.33L584.63 297.4M584.63 297.4L584.54 297.55M584.54 297.55L584.63 297.71M584.63 297.71L584.85 297.77M584.85 297.77L585.06 297.71M585.06 297.71L585.15 297.55"
fill="none" stroke="black" stroke-width="2"/>
<path d="M626.46 322.87L626.4 165.14"
fill="none" stroke="black" stroke-width="2"/>
<path d="M630.23 297.55L630.19 160.72"
fill="none" stroke="black" stroke-width="2"/>
<path d="M626.77 322.87L626.68 322.72M626.68 322.72L626.46 322.65M626.46 322.65L626.25 322.72M626.25 322.72L626.16 322.87M626.16 322.87L626.25 323.03M626.25 323.03L626.46 323.1M626.46 323.1L626.68 323.03M626.68 323.03L626.77 322.87"
fill="none" stroke="black" stroke-width="2"/>
<path d="M630.53 297.55L630.44 297.4M630.44 297.4L630.23 297.33M630.23 297.33L630.01 297.4M630.01 297.4L629.92 297.55M629.92 297.55L630.01 297.71M630.01 297.71L630.23 297.77M630.23 297.77L630.44 297.71M630.44 297.71L630.53 297.55"
fill="none" stroke="black" stroke-width="2"/>
<path d="M2.82 156.6L52.46 159.45M52.46 159.45L102.11 161.93M102.11 161.93L151.77 164.03M151.77 164.03L201.46 165.75M201.46 165.75L251.15 167.1M251.15 167.1L300.85 168.07M300.85 168.07L350.56 168.67M350.56 168.67L400.27 168.89M400.27 168.89L449.98 168.73M449.98 168.73L499.69 168.2M499.69 168.2L549.4 167.29M549.4 167.29L599.09 166.01M599.09 166.01L648.78 164.34M648.78 164.34L698.45 162.31M698.45 162.31L748.1 159.89M748.1 159.89L797.74 157.1"
fill="none" stroke="RGB(2,158,33)" stroke-width="2"/>
<path d="M2.82 156.6L91.13 158.87M91.13 158.87L179.45 160.58M179.45 160.58L267.78 161.75M267.78 161.75L356.11 162.36M356.11 162.36L444.44 162.41M444.44 162.41L532.78 161.92M532.78 161.92L621.11 160.87M621.11 160.87L709.43 159.26M709.43 159.26L797.74 157.1"
fill="none" stroke="RGB(2,158,33)" stroke-width="2"/>
</svg>
