<?xml version="1.0" encoding="UTF-8"?>
<svg xmlns="http://www.w3.org/2000/svg" width="800.000" height="600.000" viewBox="0.0 0.0 800.000 600.000" version="1.1">
  <title>Produce by Acme CAD Converter</title>
  <desc>Produce by Acme CAD Converter</desc>
<path d="M2.26 80.25L2.26 519.75"
fill="none" stroke="RGB(237,31,36)" stroke-width="0"/>
<path d="M2.7 316.01L64.2 318.22M64.2 318.22L125.72 320.07"
fill="none" stroke="RGB(2,158,33)" stroke-width="2"/>
<path d="M179.6 321.4L245.98 322.66"
fill="none" stroke="RGB(2,158,33)" stroke-width="2"/>
<path d="M299.95 323.39L357.52 323.86"
fill="none" stroke="RGB(2,158,33)" stroke-width="2"/>
<path d="M411.57 324.03L468.67 323.9"
fill="none" stroke="RGB(2,158,33)" stroke-width="2"/>
<path d="M522.8 323.51L578.8 322.81"
fill="none" stroke="RGB(2,158,33)" stroke-width="2"/>
<path d="M633.01 321.85L687.93 320.6M687.93 320.6L742.84 319.07M742.84 319.07L797.74 317.26"
fill="none" stroke="RGB(2,158,33)" stroke-width="2"/>
<path d="M2.26 300L65.13 302.25M65.13 302.25L128.02 304.13"
fill="none" stroke="RGB(2,158,33)" stroke-width="2"/>
<path d="M182.49 305.46L248.63 306.7"
fill="none" stroke="RGB(2,158,33)" stroke-width="2"/>
<path d="M302.34 307.41L359.27 307.86"
fill="none" stroke="RGB(2,158,33)" stroke-width="2"/>
<path d="M414.61 308.02L470.55 307.88"
fill="none" stroke="RGB(2,158,33)" stroke-width="2"/>
<path d="M525.55 307.46L580.72 306.76"
fill="none" stroke="RGB(2,158,33)" stroke-width="2"/>
<path d="M635.5 305.78L689.44 304.54M689.44 304.54L743.38 303.03M743.38 303.03L797.3 301.25"
fill="none" stroke="RGB(2,158,33)" stroke-width="2"/>
<path d="M133.85 323.25L133.29 327.04"
fill="none" stroke="black" stroke-width="2"/>
<path d="M128.84 298.77L128.07 304.03"
fill="none" stroke="black" stroke-width="2"/>
<path d="M126.61 314L124.88 325.81"
fill="none" stroke="black" stroke-width="2"/>
<path d="M124.83 326.42L125.02 325.17M125.02 325.17L125.57 324.03M125.57 324.03L126.43 323.1M126.43 323.1L127.53 322.46M127.53 322.46L128.77 322.18M128.77 322.18L130.03 322.28M130.03 322.28L131.21 322.74M131.21 322.74L132.2 323.53M132.2 323.53L132.92 324.58M132.92 324.58L133.29 325.79M133.29 325.79L133.29 327.06M133.29 327.06L132.92 328.27M132.92 328.27L132.2 329.31M132.2 329.31L131.21 330.1M131.21 330.1L130.03 330.57M130.03 330.57L128.77 330.66M128.77 330.66L127.53 330.38M127.53 330.38L126.43 329.75M126.43 329.75L125.57 328.82M125.57 328.82L125.02 327.67M125.02 327.67L124.83 326.42"
fill="none" stroke="black" stroke-width="2"/>
<path d="M135.79 296.13L134.69 295.46M134.69 295.46L133.45 295.15M133.45 295.15L132.16 295.23M132.16 295.23L130.96 295.68M130.96 295.68L129.95 296.48M129.95 296.48L129.22 297.54M129.22 297.54L128.84 298.77"
fill="none" stroke="black" stroke-width="2"/>
<path d="M182.74 300L182.16 303.92"
fill="none" stroke="black" stroke-width="2"/>
<path d="M180.64 314.32L178.77 327.04"
fill="none" stroke="black" stroke-width="2"/>
<path d="M170.72 323.38L170.36 325.81"
fill="none" stroke="black" stroke-width="2"/>
<path d="M170.32 326.42L170.5 325.17M170.5 325.17L171.05 324.03M171.05 324.03L171.92 323.1M171.92 323.1L173.01 322.46M173.01 322.46L174.25 322.18M174.25 322.18L175.51 322.28M175.51 322.28L176.69 322.74M176.69 322.74L177.68 323.53M177.68 323.53L178.4 324.58M178.4 324.58L178.77 325.79M178.77 325.79L178.77 327.06M178.77 327.06L178.4 328.27M178.4 328.27L177.68 329.31M177.68 329.31L176.69 330.1M176.69 330.1L175.51 330.57M175.51 330.57L174.25 330.66M174.25 330.66L173.01 330.38M173.01 330.38L171.92 329.75M171.92 329.75L171.05 328.82M171.05 328.82L170.5 327.67M170.5 327.67L170.32 326.42"
fill="none" stroke="black" stroke-width="2"/>
<path d="M182.74 300L182.74 298.79M182.74 298.79L182.41 297.63M182.41 297.63L181.76 296.62M181.76 296.62L180.85 295.82M180.85 295.82L179.76 295.31M179.76 295.31L178.57 295.13M178.57 295.13L177.37 295.29M177.37 295.29L176.27 295.78"
fill="none" stroke="black" stroke-width="2"/>
<path d="M126.29 312.29L126.74 314.46M126.74 314.46L127.58 316.57M127.58 316.57L128.79 318.57M128.79 318.57L130.37 320.43M130.37 320.43L132.28 322.14M132.28 322.14L134.5 323.66M134.5 323.66L137 324.98M137 324.98L139.75 326.07M139.75 326.07L142.7 326.93M142.7 326.93L145.82 327.53M145.82 327.53L149.06 327.88M149.06 327.88L152.37 327.96M152.37 327.96L155.71 327.77M155.71 327.77L159.03 327.33M159.03 327.33L162.29 326.63M162.29 326.63L165.44 325.68M165.44 325.68L168.43 324.49M168.43 324.49L171.23 323.1M171.23 323.1L173.79 321.5M173.79 321.5L176.08 319.73M176.08 319.73L178.06 317.81M178.06 317.81L179.71 315.77M179.71 315.77L181.01 313.63M181.01 313.63L181.94 311.43M181.94 311.43L182.47 309.2M182.47 309.2L182.62 306.96M182.62 306.96L182.36 304.76M182.36 304.76L181.72 302.61M181.72 302.61L180.69 300.56M180.69 300.56L179.3 298.62M179.3 298.62L177.55 296.83M177.55 296.83L175.48 295.22M175.48 295.22L173.11 293.79M173.11 293.79L170.48 292.59M170.48 292.59L167.63 291.61M167.63 291.61L164.59 290.88M164.59 290.88L161.41 290.4M161.41 290.4L158.12 290.19M158.12 290.19L154.79 290.24M154.79 290.24L151.45 290.56M151.45 290.56L148.16 291.13M148.16 291.13L144.95 291.96M144.95 291.96L141.87 293.03M141.87 293.03L138.97 294.32M138.97 294.32L136.29 295.82M136.29 295.82L133.86 297.5M133.86 297.5L131.72 299.35M131.72 299.35L129.9 301.34M129.9 301.34L128.42 303.43M128.42 303.43L127.31 305.6M127.31 305.6L126.58 307.82M126.58 307.82L126.24 310.06M126.24 310.06L126.29 312.29"
fill="none" stroke="black" stroke-width="2"/>
<path d="M253.99 326.62L253.44 330.41"
fill="none" stroke="black" stroke-width="2"/>
<path d="M248.99 302.14L248.22 307.41"
fill="none" stroke="black" stroke-width="2"/>
<path d="M246.75 317.37L245.02 329.18"
fill="none" stroke="black" stroke-width="2"/>
<path d="M244.98 329.79L245.17 328.54M245.17 328.54L245.72 327.4M245.72 327.4L246.58 326.47M246.58 326.47L247.68 325.84M247.68 325.84L248.91 325.55M248.91 325.55L250.18 325.65M250.18 325.65L251.36 326.11M251.36 326.11L252.35 326.9M252.35 326.9L253.06 327.95M253.06 327.95L253.43 329.16M253.43 329.16L253.43 330.43M253.43 330.43L253.06 331.64M253.06 331.64L252.35 332.69M252.35 332.69L251.36 333.48M251.36 333.48L250.18 333.94M250.18 333.94L248.91 334.03M248.91 334.03L247.68 333.75M247.68 333.75L246.58 333.12M246.58 333.12L245.72 332.19M245.72 332.19L245.17 331.05M245.17 331.05L244.98 329.79"
fill="none" stroke="black" stroke-width="2"/>
<path d="M255.94 299.51L254.84 298.83M254.84 298.83L253.59 298.52M253.59 298.52L252.31 298.6M252.31 298.6L251.1 299.05M251.1 299.05L250.09 299.85M250.09 299.85L249.36 300.91M249.36 300.91L248.99 302.14"
fill="none" stroke="black" stroke-width="2"/>
<path d="M302.88 303.37L302.31 307.29"
fill="none" stroke="black" stroke-width="2"/>
<path d="M300.78 317.69L298.92 330.41"
fill="none" stroke="black" stroke-width="2"/>
<path d="M290.86 326.75L290.51 329.18"
fill="none" stroke="black" stroke-width="2"/>
<path d="M290.46 329.79L290.65 328.54M290.65 328.54L291.2 327.4M291.2 327.4L292.06 326.47M292.06 326.47L293.16 325.84M293.16 325.84L294.39 325.55M294.39 325.55L295.66 325.65M295.66 325.65L296.84 326.11M296.84 326.11L297.83 326.9M297.83 326.9L298.54 327.95M298.54 327.95L298.92 329.16M298.92 329.16L298.92 330.43M298.92 330.43L298.54 331.64M298.54 331.64L297.83 332.69M297.83 332.69L296.84 333.48M296.84 333.48L295.66 333.94M295.66 333.94L294.39 334.03M294.39 334.03L293.16 333.75M293.16 333.75L292.06 333.12M292.06 333.12L291.2 332.19M291.2 332.19L290.65 331.05M290.65 331.05L290.46 329.79"
fill="none" stroke="black" stroke-width="2"/>
<path d="M302.88 303.37L302.89 302.17M302.89 302.17L302.55 301.01M302.55 301.01L301.9 299.99M301.9 299.99L301 299.19M301 299.19L299.9 298.68M299.9 298.68L298.71 298.5M298.71 298.5L297.52 298.67M297.52 298.67L296.41 299.16"
fill="none" stroke="black" stroke-width="2"/>
<path d="M246.44 315.66L246.88 317.84M246.88 317.84L247.72 319.94M247.72 319.94L248.94 321.94M248.94 321.94L250.51 323.8M250.51 323.8L252.42 325.51M252.42 325.51L254.65 327.03M254.65 327.03L257.15 328.35M257.15 328.35L259.89 329.44M259.89 329.44L262.85 330.3M262.85 330.3L265.96 330.9M265.96 330.9L269.2 331.25M269.2 331.25L272.51 331.33M272.51 331.33L275.86 331.15M275.86 331.15L279.18 330.7M279.18 330.7L282.44 330M282.44 330L285.59 329.05M285.59 329.05L288.58 327.87M288.58 327.87L291.37 326.47M291.37 326.47L293.94 324.87M293.94 324.87L296.22 323.1M296.22 323.1L298.21 321.18M298.21 321.18L299.86 319.14M299.86 319.14L301.16 317M301.16 317L302.08 314.8M302.08 314.8L302.62 312.57M302.62 312.57L302.76 310.33M302.76 310.33L302.51 308.13M302.51 308.13L301.86 305.98M301.86 305.98L300.84 303.93M300.84 303.93L299.44 301.99M299.44 301.99L297.69 300.2M297.69 300.2L295.62 298.59M295.62 298.59L293.26 297.17M293.26 297.17L290.63 295.96M290.63 295.96L287.77 294.98M287.77 294.98L284.73 294.25M284.73 294.25L281.55 293.77M281.55 293.77L278.27 293.56M278.27 293.56L274.94 293.61M274.94 293.61L271.6 293.93M271.6 293.93L268.3 294.5M268.3 294.5L265.09 295.33M265.09 295.33L262.02 296.4M262.02 296.4L259.12 297.69M259.12 297.69L256.43 299.19M256.43 299.19L254.01 300.88M254.01 300.88L251.87 302.72M251.87 302.72L250.04 304.71M250.04 304.71L248.57 306.8M248.57 306.8L247.45 308.97M247.45 308.97L246.72 311.19M246.72 311.19L246.38 313.43M246.38 313.43L246.44 315.66"
fill="none" stroke="black" stroke-width="2"/>
<path d="M365.91 325.27L365.35 329.06"
fill="none" stroke="black" stroke-width="2"/>
<path d="M360.9 300.78L360.13 306.05"
fill="none" stroke="black" stroke-width="2"/>
<path d="M358.67 316.02L356.94 327.82"
fill="none" stroke="black" stroke-width="2"/>
<path d="M356.89 328.44L357.08 327.19M357.08 327.19L357.63 326.04M357.63 326.04L358.49 325.12M358.49 325.12L359.59 324.48M359.59 324.48L360.83 324.2M360.83 324.2L362.09 324.29M362.09 324.29L363.27 324.76M363.27 324.76L364.26 325.55M364.26 325.55L364.97 326.59M364.97 326.59L365.35 327.81M365.35 327.81L365.35 329.07M365.35 329.07L364.97 330.28M364.97 330.28L364.26 331.33M364.26 331.33L363.27 332.12M363.27 332.12L362.09 332.58M362.09 332.58L360.83 332.68M360.83 332.68L359.59 332.4M359.59 332.4L358.49 331.76M358.49 331.76L357.63 330.83M357.63 330.83L357.08 329.69M357.08 329.69L356.89 328.44"
fill="none" stroke="black" stroke-width="2"/>
<path d="M367.85 298.15L366.75 297.48M366.75 297.48L365.5 297.17M365.5 297.17L364.22 297.24M364.22 297.24L363.02 297.7M363.02 297.7L362.01 298.49M362.01 298.49L361.28 299.55M361.28 299.55L360.9 300.78"
fill="none" stroke="black" stroke-width="2"/>
<path d="M414.8 302.02L414.22 305.94"
fill="none" stroke="black" stroke-width="2"/>
<path d="M412.7 316.34L410.83 329.06"
fill="none" stroke="black" stroke-width="2"/>
<path d="M402.77 325.39L402.42 327.82"
fill="none" stroke="black" stroke-width="2"/>
<path d="M402.37 328.44L402.56 327.19M402.56 327.19L403.11 326.04M403.11 326.04L403.97 325.12M403.97 325.12L405.07 324.48M405.07 324.48L406.31 324.2M406.31 324.2L407.57 324.29M407.57 324.29L408.75 324.76M408.75 324.76L409.74 325.55M409.74 325.55L410.46 326.59M410.46 326.59L410.83 327.81M410.83 327.81L410.83 329.07M410.83 329.07L410.46 330.28M410.46 330.28L409.74 331.33M409.74 331.33L408.75 332.12M408.75 332.12L407.57 332.58M407.57 332.58L406.31 332.68M406.31 332.68L405.07 332.4M405.07 332.4L403.97 331.76M403.97 331.76L403.11 330.83M403.11 330.83L402.56 329.69M402.56 329.69L402.37 328.44"
fill="none" stroke="black" stroke-width="2"/>
<path d="M414.8 302.02L414.8 300.81M414.8 300.81L414.46 299.65M414.46 299.65L413.82 298.63M413.82 298.63L412.91 297.84M412.91 297.84L411.82 297.33M411.82 297.33L410.62 297.15M410.62 297.15L409.43 297.31M409.43 297.31L408.33 297.8"
fill="none" stroke="black" stroke-width="2"/>
<path d="M358.35 314.3L358.8 316.48M358.8 316.48L359.64 318.59M359.64 318.59L360.85 320.58M360.85 320.58L362.42 322.45M362.42 322.45L364.34 324.15M364.34 324.15L366.56 325.68M366.56 325.68L369.06 326.99M369.06 326.99L371.81 328.09M371.81 328.09L374.76 328.94M374.76 328.94L377.88 329.55M377.88 329.55L381.11 329.89M381.11 329.89L384.43 329.98M384.43 329.98L387.77 329.79M387.77 329.79L391.09 329.35M391.09 329.35L394.35 328.64M394.35 328.64L397.5 327.69M397.5 327.69L400.49 326.51M400.49 326.51L403.29 325.11M403.29 325.11L405.85 323.52M405.85 323.52L408.14 321.75M408.14 321.75L410.12 319.83M410.12 319.83L411.77 317.79M411.77 317.79L413.07 315.65M413.07 315.65L413.99 313.45M413.99 313.45L414.53 311.21M414.53 311.21L414.68 308.98M414.68 308.98L414.42 306.77M414.42 306.77L413.78 304.63M413.78 304.63L412.75 302.57M412.75 302.57L411.35 300.64M411.35 300.64L409.61 298.85M409.61 298.85L407.54 297.23M407.54 297.23L405.17 295.81M405.17 295.81L402.54 294.6M402.54 294.6L399.69 293.63M399.69 293.63L396.65 292.9M396.65 292.9L393.46 292.42M393.46 292.42L390.18 292.21M390.18 292.21L386.85 292.26M386.85 292.26L383.51 292.57M383.51 292.57L380.21 293.15M380.21 293.15L377.01 293.98M377.01 293.98L373.93 295.04M373.93 295.04L371.03 296.34M371.03 296.34L368.35 297.84M368.35 297.84L365.92 299.52M365.92 299.52L363.78 301.37M363.78 301.37L361.96 303.35M361.96 303.35L360.48 305.45M360.48 305.45L359.37 307.62M359.37 307.62L358.64 309.84M358.64 309.84L358.29 312.08M358.29 312.08L358.35 314.3"
fill="none" stroke="black" stroke-width="2"/>
<path d="M476.99 325.76L476.44 329.54"
fill="none" stroke="black" stroke-width="2"/>
<path d="M471.99 301.27L471.22 306.54"
fill="none" stroke="black" stroke-width="2"/>
<path d="M469.75 316.51L468.02 328.31"
fill="none" stroke="black" stroke-width="2"/>
<path d="M467.98 328.93L468.17 327.68M468.17 327.68L468.72 326.53M468.72 326.53L469.58 325.6M469.58 325.6L470.68 324.97M470.68 324.97L471.91 324.69M471.91 324.69L473.18 324.78M473.18 324.78L474.36 325.25M474.36 325.25L475.35 326.04M475.35 326.04L476.06 327.08M476.06 327.08L476.43 328.29M476.43 328.29L476.43 329.56M476.43 329.56L476.06 330.77M476.06 330.77L475.35 331.82M475.35 331.82L474.36 332.61M474.36 332.61L473.18 333.07M473.18 333.07L471.91 333.17M471.91 333.17L470.68 332.89M470.68 332.89L469.58 332.25M469.58 332.25L468.72 331.32M468.72 331.32L468.17 330.18M468.17 330.18L467.98 328.93"
fill="none" stroke="black" stroke-width="2"/>
<path d="M478.94 298.64L477.84 297.97M477.84 297.97L476.59 297.66M476.59 297.66L475.31 297.73M475.31 297.73L474.1 298.19M474.1 298.19L473.09 298.98M473.09 298.98L472.36 300.04M472.36 300.04L471.99 301.27"
fill="none" stroke="black" stroke-width="2"/>
<path d="M525.88 302.51L525.31 306.43"
fill="none" stroke="black" stroke-width="2"/>
<path d="M523.78 316.83L521.92 329.54"
fill="none" stroke="black" stroke-width="2"/>
<path d="M513.86 325.88L513.51 328.31"
fill="none" stroke="black" stroke-width="2"/>
<path d="M513.46 328.93L513.65 327.68M513.65 327.68L514.2 326.53M514.2 326.53L515.06 325.6M515.06 325.6L516.16 324.97M516.16 324.97L517.39 324.69M517.39 324.69L518.66 324.78M518.66 324.78L519.84 325.25M519.84 325.25L520.83 326.04M520.83 326.04L521.54 327.08M521.54 327.08L521.92 328.29M521.92 328.29L521.92 329.56M521.92 329.56L521.54 330.77M521.54 330.77L520.83 331.82M520.83 331.82L519.84 332.61M519.84 332.61L518.66 333.07M518.66 333.07L517.39 333.17M517.39 333.17L516.16 332.89M516.16 332.89L515.06 332.25M515.06 332.25L514.2 331.32M514.2 331.32L513.65 330.18M513.65 330.18L513.46 328.93"
fill="none" stroke="black" stroke-width="2"/>
<path d="M525.88 302.51L525.89 301.3M525.89 301.3L525.55 300.14M525.55 300.14L524.9 299.12M524.9 299.12L524 298.33M524 298.33L522.9 297.82M522.9 297.82L521.71 297.64M521.71 297.64L520.52 297.8M520.52 297.8L519.41 298.29"
fill="none" stroke="black" stroke-width="2"/>
<path d="M469.44 314.79L469.88 316.97M469.88 316.97L470.72 319.07M470.72 319.07L471.94 321.07M471.94 321.07L473.51 322.94M473.51 322.94L475.42 324.64M475.42 324.64L477.65 326.17M477.65 326.17L480.15 327.48M480.15 327.48L482.89 328.58M482.89 328.58L485.85 329.43M485.85 329.43L488.96 330.04M488.96 330.04L492.2 330.38M492.2 330.38L495.51 330.46M495.51 330.46L498.86 330.28M498.86 330.28L502.18 329.83M502.18 329.83L505.44 329.13M505.44 329.13L508.59 328.18M508.59 328.18L511.58 327M511.58 327L514.38 325.6M514.38 325.6L516.94 324.01M516.94 324.01L519.22 322.24M519.22 322.24L521.21 320.32M521.21 320.32L522.86 318.27M522.86 318.27L524.16 316.14M524.16 316.14L525.08 313.94M525.08 313.94L525.62 311.7M525.62 311.7L525.76 309.47M525.76 309.47L525.51 307.26M525.51 307.26L524.87 305.12M524.87 305.12L523.84 303.06M523.84 303.06L522.44 301.13M522.44 301.13L520.69 299.34M520.69 299.34L518.62 297.72M518.62 297.72L516.26 296.3M516.26 296.3L513.63 295.09M513.63 295.09L510.77 294.12M510.77 294.12L507.73 293.39M507.73 293.39L504.55 292.91M504.55 292.91L501.27 292.7M501.27 292.7L497.94 292.75M497.94 292.75L494.6 293.06M494.6 293.06L491.3 293.64M491.3 293.64L488.09 294.46M488.09 294.46L485.02 295.53M485.02 295.53L482.12 296.82M482.12 296.82L479.43 298.32M479.43 298.32L477.01 300.01M477.01 300.01L474.87 301.86M474.87 301.86L473.04 303.84M473.04 303.84L471.57 305.94M471.57 305.94L470.45 308.11M470.45 308.11L469.72 310.33M469.72 310.33L469.38 312.57M469.38 312.57L469.44 314.79"
fill="none" stroke="black" stroke-width="2"/>
<path d="M587.1 324.78L586.55 328.57"
fill="none" stroke="black" stroke-width="2"/>
<path d="M582.1 300.29L581.32 305.56"
fill="none" stroke="black" stroke-width="2"/>
<path d="M579.86 315.53L578.13 327.33"
fill="none" stroke="black" stroke-width="2"/>
<path d="M578.09 327.95L578.28 326.7M578.28 326.7L578.83 325.56M578.83 325.56L579.69 324.63M579.69 324.63L580.79 323.99M580.79 323.99L582.02 323.71M582.02 323.71L583.29 323.81M583.29 323.81L584.46 324.27M584.46 324.27L585.46 325.06M585.46 325.06L586.17 326.11M586.17 326.11L586.54 327.32M586.54 327.32L586.54 328.58M586.54 328.58L586.17 329.79M586.17 329.79L585.46 330.84M585.46 330.84L584.46 331.63M584.46 331.63L583.29 332.09M583.29 332.09L582.02 332.19M582.02 332.19L580.79 331.91M580.79 331.91L579.69 331.27M579.69 331.27L578.83 330.34M578.83 330.34L578.28 329.2M578.28 329.2L578.09 327.95"
fill="none" stroke="black" stroke-width="2"/>
<path d="M589.05 297.66L587.95 296.99M587.95 296.99L586.7 296.68M586.7 296.68L585.42 296.75M585.42 296.75L584.21 297.21M584.21 297.21L583.2 298M583.2 298L582.47 299.06M582.47 299.06L582.1 300.29"
fill="none" stroke="black" stroke-width="2"/>
<path d="M635.99 301.53L635.42 305.45"
fill="none" stroke="black" stroke-width="2"/>
<path d="M633.89 315.85L632.03 328.57"
fill="none" stroke="black" stroke-width="2"/>
<path d="M623.97 324.9L623.61 327.33"
fill="none" stroke="black" stroke-width="2"/>
<path d="M623.57 327.95L623.76 326.7M623.76 326.7L624.31 325.56M624.31 325.56L625.17 324.63M625.17 324.63L626.27 323.99M626.27 323.99L627.5 323.71M627.5 323.71L628.77 323.81M628.77 323.81L629.95 324.27M629.95 324.27L630.94 325.06M630.94 325.06L631.65 326.11M631.65 326.11L632.03 327.32M632.03 327.32L632.03 328.58M632.03 328.58L631.65 329.79M631.65 329.79L630.94 330.84M630.94 330.84L629.95 331.63M629.95 331.63L628.77 332.09M628.77 332.09L627.5 332.19M627.5 332.19L626.27 331.91M626.27 331.91L625.17 331.27M625.17 331.27L624.31 330.34M624.31 330.34L623.76 329.2M623.76 329.2L623.57 327.95"
fill="none" stroke="black" stroke-width="2"/>
<path d="M635.99 301.53L636 300.32M636 300.32L635.66 299.16M635.66 299.16L635.01 298.14M635.01 298.14L634.11 297.35M634.11 297.35L633.01 296.84M633.01 296.84L631.82 296.66M631.82 296.66L630.62 296.82M630.62 296.82L629.52 297.31"
fill="none" stroke="black" stroke-width="2"/>
<path d="M579.54 313.81L579.99 315.99M579.99 315.99L580.83 318.1M580.83 318.1L582.05 320.1M582.05 320.1L583.62 321.96M583.62 321.96L585.53 323.67M585.53 323.67L587.75 325.19M587.75 325.19L590.26 326.51M590.26 326.51L593 327.6M593 327.6L595.96 328.45M595.96 328.45L599.07 329.06M599.07 329.06L602.31 329.4M602.31 329.4L605.62 329.49M605.62 329.49L608.96 329.3M608.96 329.3L612.29 328.86M612.29 328.86L615.55 328.15M615.55 328.15L618.69 327.2M618.69 327.2L621.69 326.02M621.69 326.02L624.48 324.62M624.48 324.62L627.04 323.03M627.04 323.03L629.33 321.26M629.33 321.26L631.32 319.34M631.32 319.34L632.97 317.3M632.97 317.3L634.27 315.16M634.27 315.16L635.19 312.96M635.19 312.96L635.73 310.73M635.73 310.73L635.87 308.49M635.87 308.49L635.62 306.28M635.62 306.28L634.97 304.14M634.97 304.14L633.95 302.08M633.95 302.08L632.55 300.15M632.55 300.15L630.8 298.36M630.8 298.36L628.73 296.74M628.73 296.74L626.37 295.32M626.37 295.32L623.74 294.11M623.74 294.11L620.88 293.14M620.88 293.14L617.84 292.41M617.84 292.41L614.66 291.93M614.66 291.93L611.38 291.72M611.38 291.72L608.05 291.77M608.05 291.77L604.71 292.08M604.71 292.08L601.41 292.66M601.41 292.66L598.2 293.49M598.2 293.49L595.13 294.55M595.13 294.55L592.23 295.85M592.23 295.85L589.54 297.35M589.54 297.35L587.11 299.03M587.11 299.03L584.97 300.88M584.97 300.88L583.15 302.86M583.15 302.86L581.68 304.96M581.68 304.96L580.56 307.13M580.56 307.13L579.83 309.35M579.83 309.35L579.49 311.59M579.49 311.59L579.54 313.81"
fill="none" stroke="black" stroke-width="2"/>
</svg>
