<?xml version="1.0" encoding="UTF-8"?>
<svg xmlns="http://www.w3.org/2000/svg" width="800.000" height="600.000" viewBox="0.0 0.0 800.000 600.000" version="1.1">
  <title>Produce by Acme CAD Converter</title>
  <desc>Produce by Acme CAD Converter</desc>
<path d="M2.26 80.28L2.26 519.72"
fill="none" stroke="RGB(237,31,36)" stroke-width="0"/>
<path d="M2.7 316.01L64.19 318.21M64.19 318.21L125.7 320.06"
fill="none" stroke="RGB(2,158,33)" stroke-width="2"/>
<path d="M179.57 321.4L245.94 322.66"
fill="none" stroke="RGB(2,158,33)" stroke-width="2"/>
<path d="M299.9 323.39L357.47 323.86"
fill="none" stroke="RGB(2,158,33)" stroke-width="2"/>
<path d="M411.51 324.03L468.6 323.9"
fill="none" stroke="RGB(2,158,33)" stroke-width="2"/>
<path d="M522.73 323.5L578.71 322.8"
fill="none" stroke="RGB(2,158,33)" stroke-width="2"/>
<path d="M632.92 321.85L687.83 320.6M687.83 320.6L742.73 319.07M742.73 319.07L797.62 317.26"
fill="none" stroke="RGB(2,158,33)" stroke-width="2"/>
<path d="M2.26 300L65.13 302.25M65.13 302.25L128 304.13"
fill="none" stroke="RGB(2,158,33)" stroke-width="2"/>
<path d="M182.46 305.46L248.59 306.7"
fill="none" stroke="RGB(2,158,33)" stroke-width="2"/>
<path d="M302.3 307.41L359.21 307.86"
fill="none" stroke="RGB(2,158,33)" stroke-width="2"/>
<path d="M414.55 308.02L470.48 307.88"
fill="none" stroke="RGB(2,158,33)" stroke-width="2"/>
<path d="M525.47 307.46L580.64 306.76"
fill="none" stroke="RGB(2,158,33)" stroke-width="2"/>
<path d="M635.41 305.78L689.34 304.54M689.34 304.54L743.27 303.03M743.27 303.03L797.19 301.25"
fill="none" stroke="RGB(2,158,33)" stroke-width="2"/>
<path d="M133.83 323.25L133.27 327.03"
fill="none" stroke="black" stroke-width="2"/>
<path d="M128.82 298.77L128.05 304.03"
fill="none" stroke="black" stroke-width="2"/>
<path d="M126.59 314L124.86 325.8"
fill="none" stroke="black" stroke-width="2"/>
<path d="M124.82 326.42L125 325.17M125 325.17L125.55 324.02M125.55 324.02L126.42 323.1M126.42 323.1L127.51 322.46M127.51 322.46L128.75 322.18M128.75 322.18L130.01 322.27M130.01 322.27L131.19 322.74M131.19 322.74L132.18 323.53M132.18 323.53L132.9 324.57M132.9 324.57L133.27 325.78M133.27 325.78L133.27 327.05M133.27 327.05L132.9 328.26M132.9 328.26L132.18 329.31M132.18 329.31L131.19 330.1M131.19 330.1L130.01 330.56M130.01 330.56L128.75 330.66M128.75 330.66L127.51 330.37M127.51 330.37L126.42 329.74M126.42 329.74L125.55 328.81M125.55 328.81L125 327.67M125 327.67L124.82 326.42"
fill="none" stroke="black" stroke-width="2"/>
<path d="M135.77 296.14L134.68 295.46M134.68 295.46L133.43 295.15M133.43 295.15L132.14 295.23M132.14 295.23L130.94 295.68M130.94 295.68L129.93 296.48M129.93 296.48L129.2 297.54M129.2 297.54L128.82 298.77"
fill="none" stroke="black" stroke-width="2"/>
<path d="M182.71 300L182.14 303.92"
fill="none" stroke="black" stroke-width="2"/>
<path d="M180.61 314.32L178.75 327.03"
fill="none" stroke="black" stroke-width="2"/>
<path d="M170.69 323.37L170.34 325.8"
fill="none" stroke="black" stroke-width="2"/>
<path d="M170.29 326.42L170.48 325.17M170.48 325.17L171.03 324.02M171.03 324.02L171.89 323.1M171.89 323.1L172.99 322.46M172.99 322.46L174.22 322.18M174.22 322.18L175.49 322.27M175.49 322.27L176.67 322.74M176.67 322.74L177.66 323.53M177.66 323.53L178.37 324.57M178.37 324.57L178.75 325.78M178.75 325.78L178.75 327.05M178.75 327.05L178.37 328.26M178.37 328.26L177.66 329.31M177.66 329.31L176.67 330.1M176.67 330.1L175.49 330.56M175.49 330.56L174.22 330.66M174.22 330.66L172.99 330.37M172.99 330.37L171.89 329.74M171.89 329.74L171.03 328.81M171.03 328.81L170.48 327.67M170.48 327.67L170.29 326.42"
fill="none" stroke="black" stroke-width="2"/>
<path d="M182.71 300L182.72 298.79M182.72 298.79L182.38 297.63M182.38 297.63L181.73 296.62M181.73 296.62L180.83 295.82M180.83 295.82L179.73 295.31M179.73 295.31L178.54 295.13M178.54 295.13L177.34 295.29M177.34 295.29L176.24 295.78"
fill="none" stroke="black" stroke-width="2"/>
<path d="M126.27 312.28L126.72 314.46M126.72 314.46L127.56 316.57M127.56 316.57L128.77 318.56M128.77 318.56L130.35 320.43M130.35 320.43L132.26 322.13M132.26 322.13L134.48 323.66M134.48 323.66L136.98 324.97M136.98 324.97L139.73 326.07M139.73 326.07L142.68 326.92M142.68 326.92L145.8 327.53M145.8 327.53L149.03 327.87M149.03 327.87L152.35 327.95M152.35 327.95L155.69 327.77M155.69 327.77L159.01 327.32M159.01 327.32L162.27 326.62M162.27 326.62L165.42 325.67M165.42 325.67L168.41 324.49M168.41 324.49L171.21 323.09M171.21 323.09L173.76 321.5M173.76 321.5L176.05 319.73M176.05 319.73L178.04 317.81M178.04 317.81L179.69 315.77M179.69 315.77L180.99 313.63M180.99 313.63L181.91 311.43M181.91 311.43L182.45 309.2M182.45 309.2L182.59 306.96M182.59 306.96L182.34 304.76M182.34 304.76L181.69 302.61M181.69 302.61L180.67 300.56M180.67 300.56L179.27 298.62M179.27 298.62L177.52 296.83M177.52 296.83L175.45 295.22M175.45 295.22L173.09 293.8M173.09 293.8L170.46 292.59M170.46 292.59L167.6 291.61M167.6 291.61L164.56 290.88M164.56 290.88L161.38 290.4M161.38 290.4L158.1 290.19M158.1 290.19L154.77 290.24M154.77 290.24L151.43 290.56M151.43 290.56L148.14 291.13M148.14 291.13L144.93 291.96M144.93 291.96L141.85 293.03M141.85 293.03L138.95 294.32M138.95 294.32L136.27 295.82M136.27 295.82L133.84 297.5M133.84 297.5L131.7 299.35M131.7 299.35L129.88 301.34M129.88 301.34L128.4 303.43M128.4 303.43L127.29 305.6M127.29 305.6L126.56 307.82M126.56 307.82L126.22 310.06M126.22 310.06L126.27 312.28"
fill="none" stroke="black" stroke-width="2"/>
<path d="M253.96 326.62L253.4 330.41"
fill="none" stroke="black" stroke-width="2"/>
<path d="M248.95 302.14L248.18 307.41"
fill="none" stroke="black" stroke-width="2"/>
<path d="M246.72 317.37L244.99 329.17"
fill="none" stroke="black" stroke-width="2"/>
<path d="M244.94 329.79L245.13 328.54M245.13 328.54L245.68 327.4M245.68 327.4L246.54 326.47M246.54 326.47L247.64 325.83M247.64 325.83L248.88 325.55M248.88 325.55L250.14 325.65M250.14 325.65L251.32 326.11M251.32 326.11L252.31 326.9M252.31 326.9L253.02 327.95M253.02 327.95L253.4 329.16M253.4 329.16L253.4 330.42M253.4 330.42L253.02 331.63M253.02 331.63L252.31 332.68M252.31 332.68L251.32 333.47M251.32 333.47L250.14 333.93M250.14 333.93L248.88 334.03M248.88 334.03L247.64 333.75M247.64 333.75L246.54 333.11M246.54 333.11L245.68 332.18M245.68 332.18L245.13 331.04M245.13 331.04L244.94 329.79"
fill="none" stroke="black" stroke-width="2"/>
<path d="M255.9 299.51L254.8 298.84M254.8 298.84L253.56 298.52M253.56 298.52L252.27 298.6M252.27 298.6L251.07 299.05M251.07 299.05L250.06 299.85M250.06 299.85L249.33 300.91M249.33 300.91L248.95 302.14"
fill="none" stroke="black" stroke-width="2"/>
<path d="M302.84 303.37L302.26 307.29"
fill="none" stroke="black" stroke-width="2"/>
<path d="M300.74 317.69L298.88 330.41"
fill="none" stroke="black" stroke-width="2"/>
<path d="M290.82 326.75L290.46 329.17"
fill="none" stroke="black" stroke-width="2"/>
<path d="M290.42 329.79L290.61 328.54M290.61 328.54L291.16 327.4M291.16 327.4L292.02 326.47M292.02 326.47L293.12 325.83M293.12 325.83L294.35 325.55M294.35 325.55L295.62 325.65M295.62 325.65L296.8 326.11M296.8 326.11L297.79 326.9M297.79 326.9L298.5 327.95M298.5 327.95L298.87 329.16M298.87 329.16L298.87 330.42M298.87 330.42L298.5 331.63M298.5 331.63L297.79 332.68M297.79 332.68L296.8 333.47M296.8 333.47L295.62 333.93M295.62 333.93L294.35 334.03M294.35 334.03L293.12 333.75M293.12 333.75L292.02 333.11M292.02 333.11L291.16 332.18M291.16 332.18L290.61 331.04M290.61 331.04L290.42 329.79"
fill="none" stroke="black" stroke-width="2"/>
<path d="M302.84 303.37L302.84 302.17M302.84 302.17L302.51 301.01M302.51 301.01L301.86 299.99M301.86 299.99L300.95 299.19M300.95 299.19L299.86 298.69M299.86 298.69L298.67 298.5M298.67 298.5L297.47 298.67M297.47 298.67L296.37 299.16"
fill="none" stroke="black" stroke-width="2"/>
<path d="M246.4 315.66L246.85 317.83M246.85 317.83L247.69 319.94M247.69 319.94L248.9 321.94M248.9 321.94L250.47 323.8M250.47 323.8L252.39 325.51M252.39 325.51L254.61 327.03M254.61 327.03L257.11 328.35M257.11 328.35L259.86 329.44M259.86 329.44L262.81 330.29M262.81 330.29L265.93 330.9M265.93 330.9L269.16 331.24M269.16 331.24L272.47 331.33M272.47 331.33L275.82 331.14M275.82 331.14L279.14 330.7M279.14 330.7L282.4 329.99M282.4 329.99L285.54 329.04M285.54 329.04L288.54 327.86M288.54 327.86L291.33 326.46M291.33 326.46L293.89 324.87M293.89 324.87L296.18 323.1M296.18 323.1L298.16 321.18M298.16 321.18L299.82 319.14M299.82 319.14L301.11 317M301.11 317L302.04 314.8M302.04 314.8L302.57 312.57M302.57 312.57L302.72 310.33M302.72 310.33L302.47 308.13M302.47 308.13L301.82 305.98M301.82 305.98L300.79 303.93M300.79 303.93L299.4 301.99M299.4 301.99L297.65 300.21M297.65 300.21L295.58 298.59M295.58 298.59L293.21 297.17M293.21 297.17L290.59 295.96M290.59 295.96L287.73 294.98M287.73 294.98L284.69 294.25M284.69 294.25L281.51 293.78M281.51 293.78L278.23 293.56M278.23 293.56L274.9 293.61M274.9 293.61L271.56 293.93M271.56 293.93L268.26 294.5M268.26 294.5L265.05 295.33M265.05 295.33L261.98 296.4M261.98 296.4L259.08 297.69M259.08 297.69L256.4 299.19M256.4 299.19L253.97 300.88M253.97 300.88L251.83 302.72M251.83 302.72L250.01 304.71M250.01 304.71L248.53 306.8M248.53 306.8L247.42 308.97M247.42 308.97L246.69 311.19M246.69 311.19L246.35 313.43M246.35 313.43L246.4 315.66"
fill="none" stroke="black" stroke-width="2"/>
<path d="M365.85 325.27L365.3 329.05"
fill="none" stroke="black" stroke-width="2"/>
<path d="M360.85 300.78L360.08 306.05"
fill="none" stroke="black" stroke-width="2"/>
<path d="M358.62 316.01L356.89 327.82"
fill="none" stroke="black" stroke-width="2"/>
<path d="M356.84 328.44L357.03 327.18M357.03 327.18L357.58 326.04M357.58 326.04L358.44 325.11M358.44 325.11L359.54 324.48M359.54 324.48L360.77 324.2M360.77 324.2L362.04 324.29M362.04 324.29L363.22 324.75M363.22 324.75L364.21 325.54M364.21 325.54L364.92 326.59M364.92 326.59L365.3 327.8M365.3 327.8L365.3 329.07M365.3 329.07L364.92 330.28M364.92 330.28L364.21 331.33M364.21 331.33L363.22 332.12M363.22 332.12L362.04 332.58M362.04 332.58L360.77 332.67M360.77 332.67L359.54 332.39M359.54 332.39L358.44 331.76M358.44 331.76L357.58 330.83M357.58 330.83L357.03 329.69M357.03 329.69L356.84 328.44"
fill="none" stroke="black" stroke-width="2"/>
<path d="M367.8 298.15L366.7 297.48M366.7 297.48L365.45 297.17M365.45 297.17L364.17 297.24M364.17 297.24L362.96 297.7M362.96 297.7L361.95 298.49M361.95 298.49L361.23 299.55M361.23 299.55L360.85 300.78"
fill="none" stroke="black" stroke-width="2"/>
<path d="M414.74 302.02L414.16 305.94"
fill="none" stroke="black" stroke-width="2"/>
<path d="M412.64 316.34L410.77 329.05"
fill="none" stroke="black" stroke-width="2"/>
<path d="M402.72 325.39L402.36 327.82"
fill="none" stroke="black" stroke-width="2"/>
<path d="M402.32 328.44L402.5 327.18M402.5 327.18L403.05 326.04M403.05 326.04L403.92 325.11M403.92 325.11L405.01 324.48M405.01 324.48L406.25 324.2M406.25 324.2L407.51 324.29M407.51 324.29L408.69 324.75M408.69 324.75L409.68 325.54M409.68 325.54L410.4 326.59M410.4 326.59L410.77 327.8M410.77 327.8L410.77 329.07M410.77 329.07L410.4 330.28M410.4 330.28L409.68 331.33M409.68 331.33L408.69 332.12M408.69 332.12L407.51 332.58M407.51 332.58L406.25 332.67M406.25 332.67L405.01 332.39M405.01 332.39L403.92 331.76M403.92 331.76L403.05 330.83M403.05 330.83L402.5 329.69M402.5 329.69L402.32 328.44"
fill="none" stroke="black" stroke-width="2"/>
<path d="M414.74 302.02L414.74 300.81M414.74 300.81L414.41 299.65M414.41 299.65L413.76 298.63M413.76 298.63L412.85 297.84M412.85 297.84L411.76 297.33M411.76 297.33L410.56 297.15M410.56 297.15L409.37 297.31M409.37 297.31L408.27 297.8"
fill="none" stroke="black" stroke-width="2"/>
<path d="M358.3 314.3L358.75 316.48M358.75 316.48L359.58 318.58M359.58 318.58L360.8 320.58M360.8 320.58L362.37 322.45M362.37 322.45L364.28 324.15M364.28 324.15L366.51 325.67M366.51 325.67L369.01 326.99M369.01 326.99L371.75 328.08M371.75 328.08L374.71 328.94M374.71 328.94L377.82 329.54M377.82 329.54L381.06 329.89M381.06 329.89L384.37 329.97M384.37 329.97L387.71 329.79M387.71 329.79L391.04 329.34M391.04 329.34L394.29 328.64M394.29 328.64L397.44 327.69M397.44 327.69L400.43 326.51M400.43 326.51L403.23 325.11M403.23 325.11L405.79 323.51M405.79 323.51L408.08 321.74M408.08 321.74L410.06 319.83M410.06 319.83L411.71 317.78M411.71 317.78L413.01 315.65M413.01 315.65L413.93 313.45M413.93 313.45L414.47 311.21M414.47 311.21L414.62 308.98M414.62 308.98L414.36 306.77M414.36 306.77L413.72 304.63M413.72 304.63L412.69 302.57M412.69 302.57L411.29 300.64M411.29 300.64L409.55 298.85M409.55 298.85L407.48 297.23M407.48 297.23L405.11 295.81M405.11 295.81L402.48 294.6M402.48 294.6L399.63 293.63M399.63 293.63L396.59 292.9M396.59 292.9L393.41 292.42M393.41 292.42L390.13 292.21M390.13 292.21L386.79 292.26M386.79 292.26L383.46 292.57M383.46 292.57L380.16 293.15M380.16 293.15L376.95 293.98M376.95 293.98L373.88 295.04M373.88 295.04L370.98 296.34M370.98 296.34L368.29 297.84M368.29 297.84L365.87 299.52M365.87 299.52L363.73 301.37M363.73 301.37L361.9 303.35M361.9 303.35L360.43 305.45M360.43 305.45L359.32 307.62M359.32 307.62L358.58 309.84M358.58 309.84L358.24 312.08M358.24 312.08L358.3 314.3"
fill="none" stroke="black" stroke-width="2"/>
<path d="M476.92 325.76L476.37 329.54"
fill="none" stroke="black" stroke-width="2"/>
<path d="M471.92 301.27L471.15 306.54"
fill="none" stroke="black" stroke-width="2"/>
<path d="M469.69 316.5L467.96 328.31"
fill="none" stroke="black" stroke-width="2"/>
<path d="M467.91 328.92L468.1 327.67M468.1 327.67L468.65 326.53M468.65 326.53L469.51 325.6M469.51 325.6L470.61 324.97M470.61 324.97L471.84 324.69M471.84 324.69L473.11 324.78M473.11 324.78L474.29 325.24M474.29 325.24L475.28 326.03M475.28 326.03L475.99 327.08M475.99 327.08L476.37 328.29M476.37 328.29L476.37 329.56M476.37 329.56L475.99 330.77M475.99 330.77L475.28 331.82M475.28 331.82L474.29 332.61M474.29 332.61L473.11 333.07M473.11 333.07L471.84 333.16M471.84 333.16L470.61 332.88M470.61 332.88L469.51 332.25M469.51 332.25L468.65 331.32M468.65 331.32L468.1 330.18M468.1 330.18L467.91 328.92"
fill="none" stroke="black" stroke-width="2"/>
<path d="M478.87 298.64L477.77 297.97M477.77 297.97L476.52 297.66M476.52 297.66L475.24 297.73M475.24 297.73L474.04 298.19M474.04 298.19L473.02 298.98M473.02 298.98L472.3 300.04M472.3 300.04L471.92 301.27"
fill="none" stroke="black" stroke-width="2"/>
<path d="M525.81 302.51L525.23 306.43"
fill="none" stroke="black" stroke-width="2"/>
<path d="M523.71 316.83L521.84 329.54"
fill="none" stroke="black" stroke-width="2"/>
<path d="M513.79 325.88L513.43 328.31"
fill="none" stroke="black" stroke-width="2"/>
<path d="M513.39 328.92L513.58 327.67M513.58 327.67L514.13 326.53M514.13 326.53L514.99 325.6M514.99 325.6L516.08 324.97M516.08 324.97L517.32 324.69M517.32 324.69L518.58 324.78M518.58 324.78L519.76 325.24M519.76 325.24L520.75 326.03M520.75 326.03L521.47 327.08M521.47 327.08L521.84 328.29M521.84 328.29L521.84 329.56M521.84 329.56L521.47 330.77M521.47 330.77L520.75 331.82M520.75 331.82L519.76 332.61M519.76 332.61L518.58 333.07M518.58 333.07L517.32 333.16M517.32 333.16L516.08 332.88M516.08 332.88L514.99 332.25M514.99 332.25L514.13 331.32M514.13 331.32L513.58 330.18M513.58 330.18L513.39 328.92"
fill="none" stroke="black" stroke-width="2"/>
<path d="M525.81 302.51L525.81 301.3M525.81 301.3L525.48 300.14M525.48 300.14L524.83 299.12M524.83 299.12L523.92 298.33M523.92 298.33L522.83 297.82M522.83 297.82L521.64 297.64M521.64 297.64L520.44 297.8M520.44 297.8L519.34 298.29"
fill="none" stroke="black" stroke-width="2"/>
<path d="M469.37 314.79L469.82 316.97M469.82 316.97L470.65 319.07M470.65 319.07L471.87 321.07M471.87 321.07L473.44 322.94M473.44 322.94L475.35 324.64M475.35 324.64L477.58 326.16M477.58 326.16L480.08 327.48M480.08 327.48L482.82 328.57M482.82 328.57L485.78 329.43M485.78 329.43L488.89 330.03M488.89 330.03L492.13 330.38M492.13 330.38L495.44 330.46M495.44 330.46L498.78 330.28M498.78 330.28L502.11 329.83M502.11 329.83L505.36 329.13M505.36 329.13L508.51 328.18M508.51 328.18L511.5 327M511.5 327L514.3 325.6M514.3 325.6L516.86 324M516.86 324L519.15 322.23M519.15 322.23L521.13 320.31M521.13 320.31L522.78 318.27M522.78 318.27L524.08 316.14M524.08 316.14L525.01 313.94M525.01 313.94L525.54 311.7M525.54 311.7L525.69 309.47M525.69 309.47L525.43 307.26M525.43 307.26L524.79 305.12M524.79 305.12L523.76 303.06M523.76 303.06L522.36 301.13M522.36 301.13L520.62 299.34M520.62 299.34L518.55 297.72M518.55 297.72L516.18 296.3M516.18 296.3L513.55 295.09M513.55 295.09L510.7 294.12M510.7 294.12L507.66 293.39M507.66 293.39L504.48 292.91M504.48 292.91L501.2 292.7M501.2 292.7L497.86 292.75M497.86 292.75L494.53 293.06M494.53 293.06L491.23 293.64M491.23 293.64L488.02 294.47M488.02 294.47L484.95 295.53M484.95 295.53L482.05 296.83M482.05 296.83L479.36 298.33M479.36 298.33L476.94 300.01M476.94 300.01L474.8 301.86M474.8 301.86L472.98 303.84M472.98 303.84L471.5 305.94M471.5 305.94L470.39 308.11M470.39 308.11L469.65 310.33M469.65 310.33L469.31 312.57M469.31 312.57L469.37 314.79"
fill="none" stroke="black" stroke-width="2"/>
<path d="M587.02 324.78L586.46 328.56"
fill="none" stroke="black" stroke-width="2"/>
<path d="M582.01 300.29L581.24 305.56"
fill="none" stroke="black" stroke-width="2"/>
<path d="M579.78 315.53L578.05 327.33"
fill="none" stroke="black" stroke-width="2"/>
<path d="M578 327.95L578.19 326.69M578.19 326.69L578.74 325.55M578.74 325.55L579.6 324.62M579.6 324.62L580.7 323.99M580.7 323.99L581.94 323.71M581.94 323.71L583.2 323.8M583.2 323.8L584.38 324.27M584.38 324.27L585.37 325.06M585.37 325.06L586.08 326.1M586.08 326.1L586.46 327.31M586.46 327.31L586.46 328.58M586.46 328.58L586.08 329.79M586.08 329.79L585.37 330.84M585.37 330.84L584.38 331.63M584.38 331.63L583.2 332.09M583.2 332.09L581.94 332.18M581.94 332.18L580.7 331.9M580.7 331.9L579.6 331.27M579.6 331.27L578.74 330.34M578.74 330.34L578.19 329.2M578.19 329.2L578 327.95"
fill="none" stroke="black" stroke-width="2"/>
<path d="M588.96 297.66L587.86 296.99M587.86 296.99L586.62 296.68M586.62 296.68L585.33 296.75M585.33 296.75L584.13 297.21M584.13 297.21L583.12 298M583.12 298L582.39 299.06M582.39 299.06L582.01 300.29"
fill="none" stroke="black" stroke-width="2"/>
<path d="M635.9 301.53L635.32 305.45"
fill="none" stroke="black" stroke-width="2"/>
<path d="M633.8 315.85L631.94 328.56"
fill="none" stroke="black" stroke-width="2"/>
<path d="M623.88 324.9L623.52 327.33"
fill="none" stroke="black" stroke-width="2"/>
<path d="M623.48 327.95L623.67 326.69M623.67 326.69L624.22 325.55M624.22 325.55L625.08 324.62M625.08 324.62L626.18 323.99M626.18 323.99L627.41 323.71M627.41 323.71L628.68 323.8M628.68 323.8L629.86 324.27M629.86 324.27L630.85 325.06M630.85 325.06L631.56 326.1M631.56 326.1L631.93 327.31M631.93 327.31L631.93 328.58M631.93 328.58L631.56 329.79M631.56 329.79L630.85 330.84M630.85 330.84L629.86 331.63M629.86 331.63L628.68 332.09M628.68 332.09L627.41 332.18M627.41 332.18L626.18 331.9M626.18 331.9L625.08 331.27M625.08 331.27L624.22 330.34M624.22 330.34L623.67 329.2M623.67 329.2L623.48 327.95"
fill="none" stroke="black" stroke-width="2"/>
<path d="M635.9 301.53L635.9 300.32M635.9 300.32L635.57 299.16M635.57 299.16L634.92 298.15M634.92 298.15L634.01 297.35M634.01 297.35L632.92 296.84M632.92 296.84L631.73 296.66M631.73 296.66L630.53 296.82M630.53 296.82L629.43 297.31"
fill="none" stroke="black" stroke-width="2"/>
<path d="M579.46 313.81L579.91 315.99M579.91 315.99L580.75 318.09M580.75 318.09L581.96 320.09M581.96 320.09L583.54 321.96M583.54 321.96L585.45 323.66M585.45 323.66L587.67 325.18M587.67 325.18L590.17 326.5M590.17 326.5L592.92 327.6M592.92 327.6L595.87 328.45M595.87 328.45L598.99 329.06M598.99 329.06L602.22 329.4M602.22 329.4L605.53 329.48M605.53 329.48L608.88 329.3M608.88 329.3L612.2 328.85M612.2 328.85L615.46 328.15M615.46 328.15L618.6 327.2M618.6 327.2L621.6 326.02M621.6 326.02L624.39 324.62M624.39 324.62L626.95 323.03M626.95 323.03L629.24 321.26M629.24 321.26L631.23 319.34M631.23 319.34L632.88 317.29M632.88 317.29L634.17 315.16M634.17 315.16L635.1 312.96M635.1 312.96L635.64 310.72M635.64 310.72L635.78 308.49M635.78 308.49L635.53 306.28M635.53 306.28L634.88 304.14M634.88 304.14L633.85 302.08M633.85 302.08L632.46 300.15M632.46 300.15L630.71 298.36M630.71 298.36L628.64 296.75M628.64 296.75L626.27 295.32M626.27 295.32L623.65 294.12M623.65 294.12L620.79 293.14M620.79 293.14L617.75 292.41M617.75 292.41L614.57 291.93M614.57 291.93L611.29 291.72M611.29 291.72L607.96 291.77M607.96 291.77L604.62 292.09M604.62 292.09L601.32 292.66M601.32 292.66L598.11 293.49M598.11 293.49L595.04 294.56M595.04 294.56L592.14 295.85M592.14 295.85L589.46 297.35M589.46 297.35L587.03 299.03M587.03 299.03L584.89 300.88M584.89 300.88L583.07 302.86M583.07 302.86L581.59 304.96M581.59 304.96L580.48 307.13M580.48 307.13L579.75 309.35M579.75 309.35L579.41 311.59M579.41 311.59L579.46 313.81"
fill="none" stroke="black" stroke-width="2"/>
<path d="M507.53 167.81L507.41 168.29M507.41 168.29L507.29 168.76M507.29 168.76L507.17 169.24M507.17 169.24L507.05 169.72M507.05 169.72L506.94 170.19M506.94 170.19L506.83 170.67M506.83 170.67L506.72 171.15M506.72 171.15L506.62 171.62M506.62 171.62L506.52 172.1M506.52 172.1L506.43 172.58M506.43 172.58L506.34 173.06M506.34 173.06L506.25 173.53M506.25 173.53L506.17 174.01M506.17 174.01L506.09 174.49M506.09 174.49L506.02 174.97M506.02 174.97L505.95 175.45M505.95 175.45L505.88 175.93M505.88 175.93L505.82 176.41M505.82 176.41L505.76 176.89M505.76 176.89L505.73 177.13M505.73 177.13L505.73 177.19M505.73 177.19L505.73 177.2M505.73 177.2L505.73 177.2M505.73 177.2L505.73 177.21M505.73 177.21L505.72 177.24M505.72 177.24L505.72 177.3M505.72 177.3L505.69 177.53M505.69 177.53L505.65 178M505.65 178L505.61 178.46M505.61 178.46L505.57 178.93M505.57 178.93L505.54 179.4M505.54 179.4L505.51 179.86M505.51 179.86L505.49 180.33M505.49 180.33L505.46 180.8M505.46 180.8L505.45 181.27M505.45 181.27L505.44 181.74M505.44 181.74L505.43 182.21M505.43 182.21L505.42 182.67M505.42 182.67L505.42 183.14M505.42 183.14L505.42 183.61M505.42 183.61L505.43 184.08M505.43 184.08L505.44 184.55M505.44 184.55L505.45 185.02M505.45 185.02L505.46 185.49M505.46 185.49L505.48 185.96M505.48 185.96L505.5 186.44M505.5 186.44L505.53 186.91M505.53 186.91L505.56 187.38M505.56 187.38L505.59 187.85M505.59 187.85L505.62 188.32M505.62 188.32L505.66 188.79M505.66 188.79L505.7 189.27M505.7 189.27L505.74 189.74M505.74 189.74L505.79 190.21M505.79 190.21L505.83 190.68M505.83 190.68L505.89 191.16M505.89 191.16L505.94 191.63M505.94 191.63L505.99 192.1M505.99 192.1L506.05 192.58M506.05 192.58L506.11 193.05M506.11 193.05L506.17 193.52M506.17 193.52L506.24 194M506.24 194L506.3 194.47M506.3 194.47L506.44 195.42M506.44 195.42L506.59 196.37M506.59 196.37L506.74 197.32M506.74 197.32L506.9 198.27M506.9 198.27L507.06 199.22M507.06 199.22L507.23 200.18M507.23 200.18L507.41 201.13M507.41 201.13L507.59 202.08M507.59 202.08L507.77 203.04M507.77 203.04L507.96 203.99M507.96 203.99L508.15 204.94M508.15 204.94L508.35 205.9M508.35 205.9L508.74 207.81M508.74 207.81L509.52 211.63M509.52 211.63L509.91 213.54M509.91 213.54L510.11 214.5M510.11 214.5L510.29 215.46M510.29 215.46L510.48 216.41M510.48 216.41L510.66 217.37M510.66 217.37L510.84 218.33M510.84 218.33L511.01 219.28M511.01 219.28L511.18 220.24M511.18 220.24L511.34 221.2M511.34 221.2L511.5 222.15M511.5 222.15L511.64 223.11M511.64 223.11L511.79 224.06M511.79 224.06L511.85 224.54M511.85 224.54L511.92 225.02M511.92 225.02L511.98 225.5M511.98 225.5L512.04 225.98M512.04 225.98L512.1 226.45M512.1 226.45L512.16 226.93M512.16 226.93L512.21 227.41M512.21 227.41L512.27 227.89M512.27 227.89L512.32 228.36M512.32 228.36L512.34 228.6M512.34 228.6L512.35 228.66M512.35 228.66L512.35 228.68M512.35 228.68L512.35 228.7M512.35 228.7L512.35 228.74M512.35 228.74L512.37 228.89M512.37 228.89L512.4 229.19M512.4 229.19L512.43 229.48M512.43 229.48L512.46 229.78M512.46 229.78L512.49 230.07M512.49 230.07L512.51 230.36M512.51 230.36L512.54 230.64M512.54 230.64L512.57 230.92M512.57 230.92L512.6 231.2M512.6 231.2L512.63 231.47M512.63 231.47L512.66 231.74M512.66 231.74L512.68 232.01M512.68 232.01L512.71 232.27M512.71 232.27L512.74 232.53M512.74 232.53L512.77 232.79M512.77 232.79L512.79 233.04M512.79 233.04L512.82 233.29M512.82 233.29L512.85 233.54M512.85 233.54L512.87 233.79M512.87 233.79L512.9 234.03M512.9 234.03L512.93 234.27M512.93 234.27L512.95 234.51M512.95 234.51L512.98 234.74M512.98 234.74L513 234.97M513 234.97L513.03 235.2M513.03 235.2L513.05 235.43M513.05 235.43L513.08 235.65M513.08 235.65L513.1 235.87M513.1 235.87L513.13 236.09M513.13 236.09L513.15 236.3M513.15 236.3L513.18 236.51M513.18 236.51L513.2 236.72M513.2 236.72L513.22 236.93M513.22 236.93L513.25 237.14M513.25 237.14L513.27 237.34M513.27 237.34L513.29 237.54M513.29 237.54L513.31 237.74M513.31 237.74L513.33 237.93M513.33 237.93L513.36 238.12M513.36 238.12L513.38 238.31M513.38 238.31L513.4 238.5M513.4 238.5L513.42 238.69M513.42 238.69L513.44 238.87M513.44 238.87L513.46 239.05M513.46 239.05L513.48 239.23M513.48 239.23L513.5 239.41M513.5 239.41L513.52 239.59M513.52 239.59L513.54 239.76M513.54 239.76L513.56 239.93M513.56 239.93L513.59 240.27M513.59 240.27L513.63 240.6M513.63 240.6L513.66 240.92M513.66 240.92L513.69 241.23M513.69 241.23L513.73 241.54M513.73 241.54L513.75 241.84M513.75 241.84L513.78 242.14M513.78 242.14L513.81 242.43M513.81 242.43L513.83 242.71M513.83 242.71L513.86 242.99M513.86 242.99L513.88 243.26M513.88 243.26L513.9 243.53M513.9 243.53L513.92 243.79M513.92 243.79L513.94 244.05M513.94 244.05L513.95 244.3M513.95 244.3L513.97 244.55M513.97 244.55L513.98 244.8M513.98 244.8L513.99 245.04M513.99 245.04L514 245.28M514 245.28L514.01 245.52M514.01 245.52L514.01 245.75M514.01 245.75L514.01 245.99M514.01 245.99L514.01 246.22M514.01 246.22L514.01 246.44M514.01 246.44L514.01 246.67M514.01 246.67L514.01 246.9M514.01 246.9L514 247.12M514 247.12L513.99 247.34M513.99 247.34L513.98 247.57M513.98 247.57L513.97 247.79M513.97 247.79L513.95 248.01M513.95 248.01L513.94 248.23M513.94 248.23L513.92 248.46M513.92 248.46L513.9 248.68M513.9 248.68L513.87 248.91M513.87 248.91L513.85 249.13M513.85 249.13L513.82 249.36M513.82 249.36L513.79 249.59M513.79 249.59L513.75 249.82M513.75 249.82L513.72 250.05M513.72 250.05L513.68 250.29M513.68 250.29L513.64 250.53M513.64 250.53L513.6 250.77M513.6 250.77L513.55 251.02M513.55 251.02L513.51 251.27M513.51 251.27L513.46 251.52M513.46 251.52L513.4 251.78M513.4 251.78L513.35 252.04M513.35 252.04L513.29 252.31M513.29 252.31L513.23 252.58M513.23 252.58L513.17 252.86M513.17 252.86L513.1 253.14M513.1 253.14L513.03 253.43M513.03 253.43L512.96 253.72M512.96 253.72L512.89 254.02M512.89 254.02L512.81 254.33M512.81 254.33L512.73 254.64M512.73 254.64L512.65 254.96M512.65 254.96L512.61 255.12M512.61 255.12L512.56 255.29M512.56 255.29L512.52 255.46M512.52 255.46L512.47 255.62M512.47 255.62L512.43 255.8M512.43 255.8L512.38 255.97M512.38 255.97L512.34 256.14M512.34 256.14L512.29 256.32M512.29 256.32L512.24 256.5M512.24 256.5L512.19 256.68M512.19 256.68L512.14 256.86M512.14 256.86L512.09 257.05M512.09 257.05L512.04 257.23M512.04 257.23L511.99 257.42M511.99 257.42L511.93 257.62M511.93 257.62L511.88 257.81M511.88 257.81L511.83 258.01M511.83 258.01L511.77 258.21M511.77 258.21L511.71 258.41M511.71 258.41L511.66 258.61M511.66 258.61L511.6 258.82M511.6 258.82L511.54 259.03M511.54 259.03L511.48 259.24M511.48 259.24L511.42 259.45M511.42 259.45L511.36 259.67M511.36 259.67L511.3 259.89M511.3 259.89L511.24 260.11M511.24 260.11L511.17 260.33M511.17 260.33L511.11 260.56M511.11 260.56L511.04 260.79M511.04 260.79L510.98 261.03M510.98 261.03L510.91 261.26M510.91 261.26L510.84 261.5M510.84 261.5L510.78 261.74M510.78 261.74L510.71 261.99M510.71 261.99L510.64 262.23M510.64 262.23L510.57 262.48M510.57 262.48L510.49 262.74M510.49 262.74L510.42 262.99M510.42 262.99L510.35 263.25M510.35 263.25L510.27 263.52M510.27 263.52L510.2 263.78M510.2 263.78L510.12 264.05M510.12 264.05L510.04 264.32M510.04 264.32L509.97 264.6M509.97 264.6L509.89 264.88M509.89 264.88L509.81 265.16M509.81 265.16L509.73 265.45M509.73 265.45L509.65 265.73M509.65 265.73L509.56 266.03M509.56 266.03L509.48 266.32M509.48 266.32L509.4 266.62"
fill="none" stroke="black" stroke-width="2"/>
<path d="M403.17 168.62L403.24 169.56M403.24 169.56L403.28 170.04M403.28 170.04L403.32 170.51M403.32 170.51L403.35 170.98M403.35 170.98L403.38 171.45M403.38 171.45L403.41 171.92M403.41 171.92L403.43 172.4M403.43 172.4L403.46 172.87M403.46 172.87L403.48 173.34M403.48 173.34L403.5 173.81M403.5 173.81L403.51 174.27M403.51 174.27L403.52 174.74M403.52 174.74L403.53 175.21M403.53 175.21L403.54 175.68M403.54 175.68L403.55 176.15M403.55 176.15L403.55 176.61M403.55 176.61L403.55 177.08M403.55 177.08L403.55 177.55M403.55 177.55L403.54 178.01M403.54 178.01L403.53 178.48M403.53 178.48L403.52 178.94M403.52 178.94L403.5 179.4M403.5 179.4L403.48 179.87M403.48 179.87L403.46 180.33M403.46 180.33L403.43 180.79M403.43 180.79L403.4 181.25M403.4 181.25L403.37 181.72M403.37 181.72L403.33 182.18M403.33 182.18L403.29 182.64M403.29 182.64L403.25 183.09M403.25 183.09L403.2 183.55M403.2 183.55L403.15 184.01M403.15 184.01L403.09 184.47M403.09 184.47L403.04 184.92M403.04 184.92L402.97 185.38M402.97 185.38L402.9 185.84M402.9 185.84L402.83 186.29M402.83 186.29L402.76 186.74M402.76 186.74L402.68 187.2M402.68 187.2L402.67 187.23M402.67 187.23L402.67 187.25M402.67 187.25L402.66 187.3M402.66 187.3L402.64 187.4M402.64 187.4L402.61 187.59M402.61 187.59L402.53 187.97M402.53 187.97L402.45 188.36M402.45 188.36L402.37 188.74M402.37 188.74L402.29 189.12M402.29 189.12L402.21 189.51M402.21 189.51L402.12 189.89M402.12 189.89L402.02 190.27M402.02 190.27L401.93 190.65M401.93 190.65L401.83 191.03M401.83 191.03L401.73 191.42M401.73 191.42L401.63 191.8M401.63 191.8L401.53 192.18M401.53 192.18L401.42 192.56M401.42 192.56L401.31 192.94M401.31 192.94L401.2 193.31M401.2 193.31L401.09 193.69M401.09 193.69L400.97 194.07M400.97 194.07L400.86 194.45M400.86 194.45L400.74 194.83M400.74 194.83L400.49 195.58M400.49 195.58L400.24 196.34M400.24 196.34L399.98 197.09M399.98 197.09L399.71 197.84M399.71 197.84L399.44 198.59M399.44 198.59L399.16 199.35M399.16 199.35L398.88 200.1M398.88 200.1L398.59 200.85M398.59 200.85L398.3 201.6M398.3 201.6L398 202.35M398 202.35L397.7 203.1M397.7 203.1L397.4 203.85M397.4 203.85L397.1 204.6M397.1 204.6L396.79 205.35M396.79 205.35L396.17 206.85M396.17 206.85L395.55 208.36M395.55 208.36L394.93 209.87M394.93 209.87L394.31 211.38M394.31 211.38L394.01 212.14M394.01 212.14L393.7 212.9M393.7 212.9L393.4 213.66M393.4 213.66L393.11 214.42M393.11 214.42L392.8 215.22M392.8 215.22L392.5 216.02M392.5 216.02L392.2 216.82M392.2 216.82L391.91 217.62M391.91 217.62L391.62 218.43M391.62 218.43L391.34 219.23M391.34 219.23L391.07 220.04M391.07 220.04L390.79 220.85M390.79 220.85L390.53 221.66M390.53 221.66L390.27 222.47M390.27 222.47L390.02 223.29M390.02 223.29L389.77 224.1M389.77 224.1L389.54 224.92M389.54 224.92L389.3 225.73M389.3 225.73L389.08 226.55M389.08 226.55L388.86 227.37M388.86 227.37L388.76 227.78M388.76 227.78L388.66 228.19M388.66 228.19L388.55 228.6M388.55 228.6L388.46 229.01M388.46 229.01L388.36 229.42M388.36 229.42L388.26 229.83M388.26 229.83L388.17 230.24M388.17 230.24L388.08 230.65M388.08 230.65L387.99 231.06M387.99 231.06L387.9 231.47M387.9 231.47L387.82 231.88M387.82 231.88L387.74 232.3M387.74 232.3L387.66 232.71M387.66 232.71L387.58 233.12M387.58 233.12L387.51 233.53M387.51 233.53L387.43 233.94M387.43 233.94L387.36 234.35M387.36 234.35L387.3 234.77M387.3 234.77L387.23 235.18M387.23 235.18L387.17 235.59M387.17 235.59L387.11 236M387.11 236L387.05 236.42M387.05 236.42L386.99 236.83M386.99 236.83L386.94 237.24M386.94 237.24L386.89 237.65M386.89 237.65L386.85 238.07M386.85 238.07L386.8 238.48M386.8 238.48L386.76 238.89M386.76 238.89L386.72 239.3M386.72 239.3L386.68 239.72M386.68 239.72L386.65 240.13M386.65 240.13L386.62 240.54M386.62 240.54L386.59 240.95M386.59 240.95L386.57 241.37M386.57 241.37L386.54 241.78M386.54 241.78L386.53 242.19M386.53 242.19L386.51 242.6M386.51 242.6L386.5 243.02M386.5 243.02L386.49 243.43M386.49 243.43L386.48 243.84M386.48 243.84L386.47 244.34M386.47 244.34L386.47 244.58M386.47 244.58L386.47 244.82M386.47 244.82L386.46 245.06M386.46 245.06L386.46 245.29M386.46 245.29L386.46 245.52M386.46 245.52L386.46 245.75M386.46 245.75L386.45 245.97M386.45 245.97L386.45 246.19M386.45 246.19L386.45 246.41M386.45 246.41L386.45 246.63M386.45 246.63L386.44 246.84M386.44 246.84L386.44 247.05M386.44 247.05L386.44 247.26M386.44 247.26L386.44 247.46M386.44 247.46L386.44 247.66M386.44 247.66L386.44 247.86M386.44 247.86L386.43 248.06M386.43 248.06L386.43 248.25M386.43 248.25L386.43 248.44M386.43 248.44L386.43 248.63M386.43 248.63L386.43 248.81M386.43 248.81L386.43 249M386.43 249L386.43 249.18M386.43 249.18L386.43 249.36M386.43 249.36L386.43 249.53M386.43 249.53L386.43 249.71M386.43 249.71L386.43 249.88M386.43 249.88L386.44 250.05M386.44 250.05L386.44 250.22M386.44 250.22L386.44 250.38M386.44 250.38L386.44 250.71M386.44 250.71L386.45 251.03M386.45 251.03L386.46 251.34M386.46 251.34L386.46 251.64M386.46 251.64L386.47 251.94M386.47 251.94L386.48 252.24M386.48 252.24L386.5 252.52M386.5 252.52L386.51 252.81M386.51 252.81L386.53 253.08M386.53 253.08L386.54 253.36M386.54 253.36L386.56 253.63M386.56 253.63L386.58 253.89M386.58 253.89L386.61 254.15M386.61 254.15L386.63 254.41M386.63 254.41L386.66 254.67M386.66 254.67L386.69 254.93M386.69 254.93L386.72 255.18M386.72 255.18L386.75 255.43M386.75 255.43L386.78 255.68M386.78 255.68L386.82 255.94M386.82 255.94L386.86 256.19M386.86 256.19L386.9 256.44M386.9 256.44L386.95 256.69M386.95 256.69L386.99 256.94M386.99 256.94L387.04 257.2M387.04 257.2L387.1 257.45M387.1 257.45L387.15 257.71M387.15 257.71L387.21 257.98M387.21 257.98L387.27 258.24M387.27 258.24L387.33 258.51M387.33 258.51L387.4 258.78M387.4 258.78L387.47 259.06M387.47 259.06L387.54 259.34M387.54 259.34L387.61 259.62M387.61 259.62L387.69 259.91M387.69 259.91L387.77 260.21M387.77 260.21L387.86 260.51M387.86 260.51L387.94 260.82M387.94 260.82L388.04 261.14M388.04 261.14L388.08 261.3M388.08 261.3L388.13 261.46M388.13 261.46L388.18 261.63M388.18 261.63L388.23 261.79M388.23 261.79L388.28 261.96M388.28 261.96L388.33 262.13M388.33 262.13L388.38 262.31M388.38 262.31L388.44 262.48M388.44 262.48L388.49 262.66M388.49 262.66L388.54 262.84M388.54 262.84L388.6 263.02M388.6 263.02L388.66 263.21M388.66 263.21L388.71 263.39M388.71 263.39L388.77 263.58M388.77 263.58L388.83 263.77M388.83 263.77L388.89 263.97M388.89 263.97L388.96 264.16M388.96 264.16L389.02 264.36M389.02 264.36L389.08 264.56M389.08 264.56L389.15 264.77M389.15 264.77L389.21 264.98M389.21 264.98L389.28 265.19M389.28 265.19L389.35 265.4M389.35 265.4L389.42 265.62M389.42 265.62L389.48 265.84M389.48 265.84L389.56 266.06M389.56 266.06L389.63 266.28M389.63 266.28L389.7 266.51M389.7 266.51L389.77 266.75M389.77 266.75L389.85 266.98M389.85 266.98L389.93 267.22M389.93 267.22L390 267.46M390 267.46L390.08 267.7M390.08 267.7L390.16 267.95"
fill="none" stroke="black" stroke-width="2"/>
<path d="M627.72 164.83L627.83 165.37M627.83 165.37L627.94 165.9M627.94 165.9L628.05 166.43M628.05 166.43L628.17 166.97M628.17 166.97L628.3 167.5M628.3 167.5L628.43 168.03M628.43 168.03L628.56 168.55M628.56 168.55L628.7 169.08M628.7 169.08L628.84 169.6M628.84 169.6L628.99 170.13M628.99 170.13L629.14 170.65M629.14 170.65L629.3 171.17M629.3 171.17L629.47 171.69M629.47 171.69L629.64 172.21M629.64 172.21L629.81 172.72M629.81 172.72L630 173.24M630 173.24L630.18 173.75M630.18 173.75L630.2 173.78M630.2 173.78L630.2 173.79M630.2 173.79L630.21 173.81M630.21 173.81L630.24 173.89M630.24 173.89L630.3 174.05M630.3 174.05L630.42 174.36M630.42 174.36L630.54 174.68M630.54 174.68L630.67 174.99M630.67 174.99L630.79 175.3M630.79 175.3L630.92 175.61M630.92 175.61L631.06 175.92M631.06 175.92L631.19 176.23M631.19 176.23L631.32 176.54M631.32 176.54L631.46 176.85M631.46 176.85L631.6 177.16M631.6 177.16L631.74 177.46M631.74 177.46L631.88 177.77M631.88 177.77L632.03 178.08M632.03 178.08L632.18 178.38M632.18 178.38L632.32 178.69M632.32 178.69L632.62 179.3M632.62 179.3L632.93 179.91M632.93 179.91L633.24 180.51M633.24 180.51L633.56 181.11M633.56 181.11L633.89 181.72M633.89 181.72L634.22 182.32M634.22 182.32L634.55 182.92M634.55 182.92L634.89 183.51M634.89 183.51L635.23 184.11M635.23 184.11L635.57 184.7M635.57 184.7L635.92 185.3M635.92 185.3L636.27 185.89M636.27 185.89L636.62 186.48M636.62 186.48L636.98 187.07M636.98 187.07L637.34 187.66M637.34 187.66L638.05 188.84M638.05 188.84L638.78 190.01M638.78 190.01L639.5 191.18M639.5 191.18L640.22 192.35M640.22 192.35L640.94 193.52M640.94 193.52L641.29 194.11M641.29 194.11L641.64 194.7M641.64 194.7L642 195.28M642 195.28L642.34 195.87M642.34 195.87L642.69 196.45M642.69 196.45L643.03 197.04M643.03 197.04L643.37 197.63M643.37 197.63L643.7 198.22M643.7 198.22L644.03 198.8M644.03 198.8L644.35 199.39M644.35 199.39L644.67 199.98M644.67 199.98L644.98 200.57M644.98 200.57L645.29 201.17M645.29 201.17L645.59 201.76M645.59 201.76L645.89 202.35M645.89 202.35L646.03 202.65M646.03 202.65L646.17 202.95M646.17 202.95L646.32 203.25M646.32 203.25L646.46 203.55M646.46 203.55L646.59 203.85M646.59 203.85L646.73 204.15M646.73 204.15L646.86 204.45M646.86 204.45L646.99 204.75M646.99 204.75L647.12 205.05M647.12 205.05L647.25 205.35M647.25 205.35L647.38 205.65M647.38 205.65L647.5 205.95M647.5 205.95L647.62 206.25M647.62 206.25L647.74 206.56M647.74 206.56L647.85 206.86M647.85 206.86L647.86 206.88M647.86 206.88L647.87 206.89M647.87 206.89L647.87 206.9M647.87 206.9L647.87 206.9M647.87 206.9L647.9 206.97M647.9 206.97L647.95 207.11M647.95 207.11L648.05 207.38M648.05 207.38L648.15 207.65M648.15 207.65L648.25 207.92M648.25 207.92L648.36 208.18M648.36 208.18L648.45 208.45M648.45 208.45L648.55 208.7M648.55 208.7L648.65 208.96M648.65 208.96L648.75 209.22M648.75 209.22L648.84 209.47M648.84 209.47L648.94 209.72M648.94 209.72L649.03 209.97M649.03 209.97L649.12 210.22M649.12 210.22L649.21 210.46M649.21 210.46L649.3 210.7M649.3 210.7L649.39 210.94M649.39 210.94L649.48 211.18M649.48 211.18L649.57 211.42M649.57 211.42L649.66 211.65M649.66 211.65L649.74 211.88M649.74 211.88L649.83 212.11M649.83 212.11L649.91 212.34M649.91 212.34L650 212.56M650 212.56L650.08 212.79M650.08 212.79L650.16 213.01M650.16 213.01L650.24 213.23M650.24 213.23L650.32 213.45M650.32 213.45L650.4 213.66M650.4 213.66L650.47 213.88M650.47 213.88L650.55 214.09M650.55 214.09L650.63 214.3M650.63 214.3L650.7 214.51M650.7 214.51L650.77 214.72M650.77 214.72L650.85 214.93M650.85 214.93L650.92 215.13M650.92 215.13L650.99 215.33M650.99 215.33L651.06 215.53M651.06 215.53L651.13 215.73M651.13 215.73L651.2 215.93M651.2 215.93L651.26 216.13M651.26 216.13L651.33 216.32M651.33 216.32L651.4 216.51M651.4 216.51L651.46 216.71M651.46 216.71L651.52 216.9M651.52 216.9L651.65 217.27M651.65 217.27L651.77 217.64M651.77 217.64L651.88 218.01M651.88 218.01L651.99 218.37M651.99 218.37L652.1 218.72M652.1 218.72L652.21 219.08M652.21 219.08L652.31 219.42M652.31 219.42L652.41 219.76M652.41 219.76L652.5 220.1M652.5 220.1L652.59 220.43M652.59 220.43L652.67 220.76M652.67 220.76L652.76 221.09M652.76 221.09L652.83 221.41M652.83 221.41L652.91 221.73M652.91 221.73L652.98 222.05M652.98 222.05L653.05 222.37M653.05 222.37L653.11 222.68M653.11 222.68L653.17 222.99M653.17 222.99L653.22 223.29M653.22 223.29L653.27 223.6M653.27 223.6L653.32 223.9M653.32 223.9L653.36 224.2M653.36 224.2L653.4 224.5M653.4 224.5L653.44 224.8M653.44 224.8L653.47 225.1M653.47 225.1L653.5 225.39M653.5 225.39L653.53 225.69M653.53 225.69L653.55 225.99M653.55 225.99L653.56 226.28M653.56 226.28L653.58 226.58M653.58 226.58L653.59 226.87M653.59 226.87L653.59 227.17M653.59 227.17L653.59 227.46M653.59 227.46L653.59 227.76M653.59 227.76L653.58 228.06M653.58 228.06L653.57 228.36M653.57 228.36L653.56 228.66M653.56 228.66L653.54 228.96M653.54 228.96L653.52 229.26M653.52 229.26L653.49 229.57M653.49 229.57L653.46 229.87M653.46 229.87L653.43 230.18M653.43 230.18L653.39 230.49M653.39 230.49L653.35 230.81M653.35 230.81L653.31 231.12M653.31 231.12L653.26 231.44M653.26 231.44L653.21 231.77M653.21 231.77L653.15 232.09M653.15 232.09L653.09 232.42M653.09 232.42L653.03 232.76M653.03 232.76L652.96 233.1M652.96 233.1L652.89 233.44M652.89 233.44L652.81 233.78M652.81 233.78L652.73 234.13M652.73 234.13L652.65 234.49M652.65 234.49L652.56 234.85M652.56 234.85L652.47 235.22M652.47 235.22L652.37 235.59M652.37 235.59L652.27 235.96M652.27 235.96L652.22 236.15M652.22 236.15L652.17 236.35M652.17 236.35L652.12 236.54M652.12 236.54L652.06 236.73M652.06 236.73L652.01 236.93M652.01 236.93L651.95 237.13M651.95 237.13L651.89 237.33M651.89 237.33L651.84 237.53M651.84 237.53L651.78 237.73M651.78 237.73L651.72 237.93M651.72 237.93L651.66 238.14M651.66 238.14L651.6 238.35M651.6 238.35L651.53 238.56M651.53 238.56L651.47 238.77M651.47 238.77L651.4 238.98M651.4 238.98L651.34 239.2M651.34 239.2L651.27 239.41M651.27 239.41L651.2 239.63M651.2 239.63L651.14 239.85M651.14 239.85L651.07 240.07M651.07 240.07L651 240.3M651 240.3L650.92 240.52M650.92 240.52L650.85 240.75M650.85 240.75L650.78 240.98M650.78 240.98L650.7 241.21M650.7 241.21L650.63 241.45M650.63 241.45L650.55 241.68M650.55 241.68L650.47 241.92M650.47 241.92L650.4 242.16M650.4 242.16L650.32 242.4M650.32 242.4L650.24 242.65M650.24 242.65L650.15 242.89M650.15 242.89L650.07 243.14M650.07 243.14L649.99 243.39M649.99 243.39L649.9 243.64M649.9 243.64L649.82 243.9M649.82 243.9L649.73 244.16M649.73 244.16L649.65 244.42M649.65 244.42L649.56 244.68M649.56 244.68L649.47 244.94M649.47 244.94L649.38 245.21M649.38 245.21L649.29 245.48M649.29 245.48L649.19 245.75M649.19 245.75L649.1 246.03M649.1 246.03L649.01 246.3M649.01 246.3L648.91 246.58M648.91 246.58L648.82 246.87M648.82 246.87L648.72 247.15M648.72 247.15L648.62 247.44M648.62 247.44L648.52 247.73M648.52 247.73L648.42 248.02M648.42 248.02L648.32 248.31M648.32 248.31L648.22 248.61M648.22 248.61L648.12 248.91M648.12 248.91L648.01 249.21M648.01 249.21L647.91 249.52M647.91 249.52L647.8 249.83M647.8 249.83L647.69 250.14M647.69 250.14L647.59 250.45M647.59 250.45L647.48 250.77"
fill="none" stroke="black" stroke-width="2"/>
<path d="M264.07 167.12L263.93 167.61M263.93 167.61L263.79 168.1M263.79 168.1L263.65 168.6M263.65 168.6L263.52 169.09M263.52 169.09L263.39 169.58M263.39 169.58L263.26 170.07M263.26 170.07L263.14 170.57M263.14 170.57L263.02 171.06M263.02 171.06L262.9 171.55M262.9 171.55L262.79 172.05M262.79 172.05L262.68 172.54M262.68 172.54L262.57 173.03M262.57 173.03L262.47 173.53M262.47 173.53L262.37 174.02M262.37 174.02L262.28 174.52M262.28 174.52L262.19 175.01M262.19 175.01L262.1 175.51M262.1 175.51L262.02 176.01M262.02 176.01L261.94 176.5M261.94 176.5L261.87 177M261.87 177L261.81 177.49M261.81 177.49L261.74 177.99M261.74 177.99L261.68 178.49M261.68 178.49L261.67 178.61M261.67 178.61L261.67 178.64M261.67 178.64L261.67 178.65M261.67 178.65L261.67 178.66M261.67 178.66L261.67 178.66M261.67 178.66L261.66 178.69M261.66 178.69L261.65 178.81M261.65 178.81L261.6 179.3M261.6 179.3L261.56 179.78M261.56 179.78L261.52 180.26M261.52 180.26L261.48 180.75M261.48 180.75L261.45 181.23M261.45 181.23L261.43 181.71M261.43 181.71L261.41 182.2M261.41 182.2L261.39 182.68M261.39 182.68L261.38 183.17M261.38 183.17L261.37 183.65M261.37 183.65L261.36 184.14M261.36 184.14L261.36 184.62M261.36 184.62L261.36 185.11M261.36 185.11L261.37 185.6M261.37 185.6L261.38 186.08M261.38 186.08L261.39 186.57M261.39 186.57L261.41 187.06M261.41 187.06L261.43 187.54M261.43 187.54L261.45 188.03M261.45 188.03L261.48 188.52M261.48 188.52L261.51 189.01M261.51 189.01L261.54 189.5M261.54 189.5L261.58 189.99M261.58 189.99L261.62 190.47M261.62 190.47L261.66 190.96M261.66 190.96L261.71 191.45M261.71 191.45L261.76 191.94M261.76 191.94L261.81 192.43M261.81 192.43L261.86 192.92M261.86 192.92L261.92 193.41M261.92 193.41L261.97 193.9M261.97 193.9L262.04 194.39M262.04 194.39L262.1 194.88M262.1 194.88L262.17 195.37M262.17 195.37L262.23 195.86M262.23 195.86L262.3 196.36M262.3 196.36L262.38 196.85M262.38 196.85L262.53 197.83M262.53 197.83L262.68 198.81M262.68 198.81L262.85 199.8M262.85 199.8L263.02 200.78M263.02 200.78L263.2 201.77M263.2 201.77L263.38 202.76M263.38 202.76L263.57 203.74M263.57 203.74L263.76 204.73M263.76 204.73L263.96 205.72M263.96 205.72L264.15 206.7M264.15 206.7L264.56 208.68M264.56 208.68L264.96 210.66M264.96 210.66L265.37 212.64M265.37 212.64L265.78 214.62M265.78 214.62L265.98 215.61M265.98 215.61L266.17 216.6M266.17 216.6L266.37 217.59M266.37 217.59L266.56 218.58M266.56 218.58L266.74 219.57M266.74 219.57L266.92 220.56M266.92 220.56L267.09 221.55M267.09 221.55L267.26 222.54M267.26 222.54L267.42 223.53M267.42 223.53L267.58 224.52M267.58 224.52L267.65 225.02M267.65 225.02L267.72 225.51M267.72 225.51L267.79 226.01M267.79 226.01L267.86 226.5M267.86 226.5L267.93 226.99M267.93 226.99L267.99 227.49M267.99 227.49L268.05 227.98M268.05 227.98L268.11 228.48M268.11 228.48L268.17 228.97M268.17 228.97L268.22 229.47M268.22 229.47L268.27 229.96M268.27 229.96L268.28 230.08M268.28 230.08L268.29 230.12M268.29 230.12L268.29 230.13M268.29 230.13L268.29 230.15M268.29 230.15L268.3 230.23M268.3 230.23L268.33 230.54M268.33 230.54L268.36 230.85M268.36 230.85L268.39 231.16M268.39 231.16L268.42 231.46M268.42 231.46L268.45 231.75M268.45 231.75L268.48 232.05M268.48 232.05L268.51 232.34M268.51 232.34L268.54 232.63M268.54 232.63L268.57 232.91M268.57 232.91L268.6 233.19M268.6 233.19L268.63 233.47M268.63 233.47L268.65 233.74M268.65 233.74L268.68 234.01M268.68 234.01L268.71 234.28M268.71 234.28L268.74 234.54M268.74 234.54L268.77 234.8M268.77 234.8L268.79 235.05M268.79 235.05L268.82 235.31M268.82 235.31L268.85 235.56M268.85 235.56L268.88 235.81M268.88 235.81L268.9 236.05M268.9 236.05L268.93 236.29M268.93 236.29L268.96 236.53M268.96 236.53L268.98 236.76M268.98 236.76L269.01 237M269.01 237L269.03 237.22M269.03 237.22L269.06 237.45M269.06 237.45L269.08 237.67M269.08 237.67L269.11 237.9M269.11 237.9L269.13 238.11M269.13 238.11L269.16 238.33M269.16 238.33L269.18 238.54M269.18 238.54L269.2 238.75M269.2 238.75L269.23 238.96M269.23 238.96L269.25 239.16M269.25 239.16L269.27 239.37M269.27 239.37L269.3 239.57M269.3 239.57L269.32 239.76M269.32 239.76L269.34 239.96M269.34 239.96L269.36 240.15M269.36 240.15L269.38 240.34M269.38 240.34L269.4 240.53M269.4 240.53L269.42 240.71M269.42 240.71L269.44 240.9M269.44 240.9L269.46 241.08M269.46 241.08L269.48 241.26M269.48 241.26L269.5 241.43M269.5 241.43L269.52 241.61M269.52 241.61L269.54 241.78M269.54 241.78L269.56 241.95M269.56 241.95L269.58 242.12M269.58 242.12L269.61 242.45M269.61 242.45L269.64 242.78M269.64 242.78L269.68 243.09M269.68 243.09L269.71 243.4M269.71 243.4L269.73 243.71M269.73 243.71L269.76 244M269.76 244L269.79 244.29M269.79 244.29L269.81 244.58M269.81 244.58L269.83 244.86M269.83 244.86L269.85 245.13M269.85 245.13L269.87 245.4M269.87 245.4L269.89 245.67M269.89 245.67L269.9 245.93M269.9 245.93L269.92 246.18M269.92 246.18L269.93 246.44M269.93 246.44L269.94 246.68M269.94 246.68L269.94 246.93M269.94 246.93L269.95 247.17M269.95 247.17L269.95 247.41M269.95 247.41L269.95 247.65M269.95 247.65L269.95 247.89M269.95 247.89L269.95 248.12M269.95 248.12L269.95 248.36M269.95 248.36L269.94 248.59M269.94 248.59L269.93 248.82M269.93 248.82L269.92 249.05M269.92 249.05L269.91 249.28M269.91 249.28L269.89 249.51M269.89 249.51L269.87 249.74M269.87 249.74L269.85 249.97M269.85 249.97L269.83 250.2M269.83 250.2L269.8 250.44M269.8 250.44L269.78 250.67M269.78 250.67L269.75 250.91M269.75 250.91L269.71 251.15M269.71 251.15L269.68 251.39M269.68 251.39L269.64 251.63M269.64 251.63L269.6 251.88M269.6 251.88L269.56 252.13M269.56 252.13L269.51 252.38M269.51 252.38L269.46 252.64M269.46 252.64L269.41 252.9M269.41 252.9L269.36 253.16M269.36 253.16L269.3 253.43M269.3 253.43L269.24 253.71M269.24 253.71L269.18 253.99M269.18 253.99L269.12 254.27M269.12 254.27L269.05 254.57M269.05 254.57L268.98 254.86M268.98 254.86L268.9 255.17M268.9 255.17L268.83 255.48M268.83 255.48L268.75 255.8M268.75 255.8L268.66 256.12M268.66 256.12L268.62 256.29M268.62 256.29L268.58 256.45M268.58 256.45L268.53 256.62M268.53 256.62L268.49 256.79M268.49 256.79L268.44 256.97M268.44 256.97L268.4 257.14M268.4 257.14L268.35 257.32M268.35 257.32L268.3 257.5M268.3 257.5L268.25 257.68M268.25 257.68L268.2 257.87M268.2 257.87L268.15 258.05M268.15 258.05L268.1 258.24M268.1 258.24L268.05 258.43M268.05 258.43L268 258.62M268 258.62L267.94 258.82M267.94 258.82L267.89 259.02M267.89 259.02L267.83 259.22M267.83 259.22L267.78 259.42M267.78 259.42L267.72 259.63M267.72 259.63L267.66 259.84M267.66 259.84L267.6 260.05M267.6 260.05L267.54 260.26M267.54 260.26L267.48 260.48M267.48 260.48L267.42 260.69M267.42 260.69L267.36 260.92M267.36 260.92L267.3 261.14M267.3 261.14L267.23 261.37M267.23 261.37L267.17 261.6M267.17 261.6L267.1 261.83M267.1 261.83L267.03 262.07M267.03 262.07L266.97 262.31M266.97 262.31L266.9 262.55M266.9 262.55L266.83 262.79M266.83 262.79L266.76 263.04M266.76 263.04L266.69 263.29M266.69 263.29L266.62 263.55M266.62 263.55L266.54 263.8M266.54 263.8L266.47 264.07M266.47 264.07L266.39 264.33M266.39 264.33L266.32 264.6M266.32 264.6L266.24 264.87M266.24 264.87L266.16 265.14M266.16 265.14L266.09 265.42M266.09 265.42L266.01 265.7M266.01 265.7L265.93 265.98M265.93 265.98L265.85 266.27M265.85 266.27L265.76 266.56M265.76 266.56L265.68 266.86M265.68 266.86L265.6 267.16M265.6 267.16L265.51 267.46M265.51 267.46L265.42 267.77M265.42 267.77L265.34 268.08"
fill="none" stroke="black" stroke-width="2"/>
<path d="M146.1 163.55L146.12 164M146.12 164L146.14 164.46M146.14 164.46L146.16 164.91M146.16 164.91L146.17 165.37M146.17 165.37L146.19 165.82M146.19 165.82L146.2 166.27M146.2 166.27L146.21 166.73M146.21 166.73L146.21 167.18M146.21 167.18L146.21 167.63M146.21 167.63L146.21 168.08M146.21 168.08L146.21 168.54M146.21 168.54L146.21 168.99M146.21 168.99L146.2 169.44M146.2 169.44L146.19 169.89M146.19 169.89L146.17 170.34M146.17 170.34L146.15 170.79M146.15 170.79L146.13 171.23M146.13 171.23L146.11 171.68M146.11 171.68L146.08 172.13M146.08 172.13L146.05 172.58M146.05 172.58L146.02 173.02M146.02 173.02L145.98 173.47M145.98 173.47L145.94 173.91M145.94 173.91L145.9 174.36M145.9 174.36L145.85 174.8M145.85 174.8L145.8 175.25M145.8 175.25L145.75 175.69M145.75 175.69L145.69 176.13M145.69 176.13L145.63 176.57M145.63 176.57L145.56 177.01M145.56 177.01L145.49 177.45M145.49 177.45L145.42 177.89M145.42 177.89L145.34 178.33M145.34 178.33L145.34 178.36M145.34 178.36L145.33 178.38M145.33 178.38L145.33 178.43M145.33 178.43L145.31 178.52M145.31 178.52L145.27 178.71M145.27 178.71L145.2 179.08M145.2 179.08L145.13 179.46M145.13 179.46L145.05 179.83M145.05 179.83L144.97 180.2M144.97 180.2L144.89 180.57M144.89 180.57L144.8 180.94M144.8 180.94L144.71 181.31M144.71 181.31L144.62 181.68M144.62 181.68L144.53 182.05M144.53 182.05L144.43 182.42M144.43 182.42L144.34 182.79M144.34 182.79L144.24 183.16M144.24 183.16L144.14 183.52M144.14 183.52L144.03 183.89M144.03 183.89L143.92 184.26M143.92 184.26L143.82 184.63M143.82 184.63L143.7 184.99M143.7 184.99L143.59 185.36M143.59 185.36L143.36 186.09M143.36 186.09L143.12 186.82M143.12 186.82L142.88 187.55M142.88 187.55L142.62 188.28M142.62 188.28L142.37 189.01M142.37 189.01L142.1 189.74M142.1 189.74L141.83 190.47M141.83 190.47L141.56 191.2M141.56 191.2L141.28 191.92M141.28 191.92L141 192.65M141 192.65L140.71 193.38M140.71 193.38L140.42 194.1M140.42 194.1L140.13 194.83M140.13 194.83L139.83 195.56M139.83 195.56L139.24 197.01M139.24 197.01L138.64 198.47M138.64 198.47L138.04 199.93M138.04 199.93L137.44 201.39M137.44 201.39L137.14 202.12M137.14 202.12L136.84 202.85M136.84 202.85L136.55 203.59M136.55 203.59L136.25 204.32M136.25 204.32L135.96 205.06M135.96 205.06L135.82 205.43M135.82 205.43L135.79 205.52M135.79 205.52L135.77 205.57M135.77 205.57L135.75 205.62M135.75 205.62L135.67 205.81M135.67 205.81L135.38 206.58M135.38 206.58L135.09 207.36M135.09 207.36L134.8 208.14M134.8 208.14L134.52 208.92M134.52 208.92L134.24 209.7M134.24 209.7L133.97 210.48M133.97 210.48L133.7 211.26M133.7 211.26L133.44 212.04M133.44 212.04L133.19 212.83M133.19 212.83L132.93 213.62M132.93 213.62L132.69 214.4M132.69 214.4L132.45 215.19M132.45 215.19L132.22 215.98M132.22 215.98L132 216.77M132 216.77L131.78 217.57M131.78 217.57L131.57 218.36M131.57 218.36L131.36 219.15M131.36 219.15L131.17 219.95M131.17 219.95L131.07 220.34M131.07 220.34L130.98 220.74M130.98 220.74L130.89 221.14M130.89 221.14L130.8 221.54M130.8 221.54L130.71 221.93M130.71 221.93L130.63 222.33M130.63 222.33L130.54 222.73M130.54 222.73L130.46 223.13M130.46 223.13L130.38 223.53M130.38 223.53L130.31 223.93M130.31 223.93L130.23 224.33M130.23 224.33L130.16 224.72M130.16 224.72L130.09 225.12M130.09 225.12L130.02 225.52M130.02 225.52L129.96 225.92M129.96 225.92L129.89 226.32M129.89 226.32L129.83 226.72M129.83 226.72L129.78 227.12M129.78 227.12L129.72 227.52M129.72 227.52L129.67 227.92M129.67 227.92L129.61 228.32M129.61 228.32L129.57 228.72M129.57 228.72L129.52 229.12M129.52 229.12L129.48 229.52M129.48 229.52L129.43 229.92M129.43 229.92L129.4 230.32M129.4 230.32L129.36 230.72M129.36 230.72L129.33 231.12M129.33 231.12L129.3 231.52M129.3 231.52L129.27 231.92M129.27 231.92L129.24 232.31M129.24 232.31L129.22 232.71M129.22 232.71L129.2 233.11M129.2 233.11L129.18 233.51M129.18 233.51L129.17 233.91M129.17 233.91L129.16 234.31M129.16 234.31L129.15 234.71M129.15 234.71L129.15 234.91M129.15 234.91L129.14 234.96M129.14 234.96L129.14 234.99M129.14 234.99L129.14 235.02M129.14 235.02L129.14 235.14M129.14 235.14L129.14 235.38M129.14 235.38L129.14 235.62M129.14 235.62L129.13 235.85M129.13 235.85L129.13 236.08M129.13 236.08L129.13 236.31M129.13 236.31L129.12 236.53M129.12 236.53L129.12 236.76M129.12 236.76L129.12 236.98M129.12 236.98L129.12 237.19M129.12 237.19L129.11 237.4M129.11 237.4L129.11 237.62M129.11 237.62L129.11 237.82M129.11 237.82L129.11 238.03M129.11 238.03L129.11 238.23M129.11 238.23L129.1 238.43M129.1 238.43L129.1 238.63M129.1 238.63L129.1 238.82M129.1 238.82L129.1 239.01M129.1 239.01L129.1 239.2M129.1 239.2L129.1 239.39M129.1 239.39L129.1 239.57M129.1 239.57L129.1 239.76M129.1 239.76L129.1 239.94M129.1 239.94L129.1 240.11M129.1 240.11L129.1 240.29M129.1 240.29L129.1 240.46M129.1 240.46L129.1 240.63M129.1 240.63L129.1 240.8M129.1 240.8L129.1 240.97M129.1 240.97L129.1 241.14M129.1 241.14L129.1 241.3M129.1 241.3L129.1 241.46M129.1 241.46L129.11 241.78M129.11 241.78L129.11 242.09M129.11 242.09L129.12 242.39M129.12 242.39L129.13 242.69M129.13 242.69L129.14 242.98M129.14 242.98L129.15 243.27M129.15 243.27L129.16 243.55M129.16 243.55L129.17 243.82M129.17 243.82L129.18 244.09M129.18 244.09L129.2 244.36M129.2 244.36L129.22 244.62M129.22 244.62L129.24 244.88M129.24 244.88L129.26 245.14M129.26 245.14L129.28 245.39M129.28 245.39L129.31 245.64M129.31 245.64L129.33 245.89M129.33 245.89L129.36 246.14M129.36 246.14L129.39 246.38M129.39 246.38L129.42 246.63M129.42 246.63L129.46 246.87M129.46 246.87L129.49 247.11M129.49 247.11L129.53 247.36M129.53 247.36L129.57 247.6M129.57 247.6L129.62 247.84M129.62 247.84L129.66 248.09M129.66 248.09L129.71 248.34M129.71 248.34L129.76 248.59M129.76 248.59L129.81 248.84M129.81 248.84L129.87 249.09M129.87 249.09L129.92 249.35M129.92 249.35L129.99 249.6M129.99 249.6L130.05 249.87M130.05 249.87L130.11 250.13M130.11 250.13L130.18 250.41M130.18 250.41L130.26 250.68M130.26 250.68L130.33 250.96M130.33 250.96L130.41 251.25M130.41 251.25L130.49 251.54M130.49 251.54L130.57 251.84M130.57 251.84L130.66 252.14M130.66 252.14L130.75 252.45M130.75 252.45L130.8 252.61M130.8 252.61L130.84 252.77M130.84 252.77L130.89 252.93M130.89 252.93L130.94 253.09M130.94 253.09L130.99 253.26M130.99 253.26L131.04 253.42M131.04 253.42L131.09 253.59M131.09 253.59L131.14 253.76M131.14 253.76L131.2 253.94M131.2 253.94L131.25 254.11M131.25 254.11L131.31 254.29M131.31 254.29L131.36 254.47M131.36 254.47L131.42 254.65M131.42 254.65L131.48 254.84M131.48 254.84L131.53 255.03M131.53 255.03L131.59 255.22M131.59 255.22L131.65 255.41M131.65 255.41L131.71 255.6M131.71 255.6L131.78 255.8M131.78 255.8L131.84 256M131.84 256L131.9 256.2M131.9 256.2L131.97 256.41M131.97 256.41L132.03 256.61M132.03 256.61L132.1 256.82M132.1 256.82L132.17 257.04M132.17 257.04L132.24 257.25M132.24 257.25L132.31 257.47M132.31 257.47L132.38 257.69M132.38 257.69L132.45 257.92M132.45 257.92L132.52 258.15M132.52 258.15L132.6 258.38M132.6 258.38L132.67 258.61M132.67 258.61L132.75 258.85M132.75 258.85L132.83 259.09"
fill="none" stroke="black" stroke-width="2"/>
<path d="M2.26 156.32L51.93 159.17M51.93 159.17L101.61 161.65M101.61 161.65L151.32 163.75M151.32 163.75L201.03 165.48M201.03 165.48L250.76 166.83M250.76 166.83L300.5 167.8M300.5 167.8L350.25 168.4M350.25 168.4L399.99 168.62M399.99 168.62L449.74 168.46M449.74 168.46L499.48 167.93M499.48 167.93L549.22 167.03M549.22 167.03L598.95 165.75M598.95 165.75L648.67 164.09M648.67 164.09L698.38 162.05M698.38 162.05L748.07 159.64M748.07 159.64L797.74 156.86"
fill="none" stroke="RGB(2,158,33)" stroke-width="2"/>
</svg>
