<?xml version="1.0" encoding="UTF-8"?>
<svg xmlns="http://www.w3.org/2000/svg" width="800.000" height="600.000" viewBox="0.0 0.0 800.000 600.000" version="1.1">
  <title>Produce by Acme CAD Converter</title>
  <desc>Produce by Acme CAD Converter</desc>
<path d="M3.1 80.51L3.1 519.49"
fill="none" stroke="RGB(237,31,36)" stroke-width="0"/>
<path d="M134.52 323.22L133.97 327.01"
fill="none" stroke="black" stroke-width="2"/>
<path d="M129.53 298.77L128.75 304.03"
fill="none" stroke="black" stroke-width="2"/>
<path d="M127.3 313.98L125.57 325.77"
fill="none" stroke="black" stroke-width="2"/>
<path d="M125.52 326.39L125.71 325.14M125.71 325.14L126.26 324M126.26 324L127.12 323.07M127.12 323.07L128.22 322.44M128.22 322.44L129.45 322.16M129.45 322.16L130.71 322.25M130.71 322.25L131.89 322.71M131.89 322.71L132.88 323.5M132.88 323.5L133.59 324.55M133.59 324.55L133.97 325.76M133.97 325.76L133.97 327.02M133.97 327.02L133.59 328.23M133.59 328.23L132.88 329.28M132.88 329.28L131.89 330.07M131.89 330.07L130.71 330.53M130.71 330.53L129.45 330.62M129.45 330.62L128.22 330.34M128.22 330.34L127.12 329.71M127.12 329.71L126.26 328.78M126.26 328.78L125.71 327.64M125.71 327.64L125.52 326.39"
fill="none" stroke="black" stroke-width="2"/>
<path d="M136.47 296.14L135.37 295.47M135.37 295.47L134.12 295.16M134.12 295.16L132.84 295.23M132.84 295.23L131.64 295.69M131.64 295.69L130.63 296.48M130.63 296.48L129.9 297.54M129.9 297.54L129.53 298.77"
fill="none" stroke="black" stroke-width="2"/>
<path d="M183.36 300L182.78 303.92"
fill="none" stroke="black" stroke-width="2"/>
<path d="M181.26 314.3L179.4 327.01"
fill="none" stroke="black" stroke-width="2"/>
<path d="M171.35 323.35L170.99 325.77"
fill="none" stroke="black" stroke-width="2"/>
<path d="M170.95 326.39L171.14 325.14M171.14 325.14L171.69 324M171.69 324L172.55 323.07M172.55 323.07L173.64 322.44M173.64 322.44L174.88 322.16M174.88 322.16L176.14 322.25M176.14 322.25L177.32 322.71M177.32 322.71L178.31 323.5M178.31 323.5L179.02 324.55M179.02 324.55L179.4 325.76M179.4 325.76L179.4 327.02M179.4 327.02L179.02 328.23M179.02 328.23L178.31 329.28M178.31 329.28L177.32 330.07M177.32 330.07L176.14 330.53M176.14 330.53L174.88 330.62M174.88 330.62L173.64 330.34M173.64 330.34L172.55 329.71M172.55 329.71L171.69 328.78M171.69 328.78L171.14 327.64M171.14 327.64L170.95 326.39"
fill="none" stroke="black" stroke-width="2"/>
<path d="M183.36 300L183.36 298.79M183.36 298.79L183.03 297.64M183.03 297.64L182.38 296.62M182.38 296.62L181.47 295.83M181.47 295.83L180.38 295.32M180.38 295.32L179.19 295.14M179.19 295.14L178 295.3M178 295.3L176.9 295.79"
fill="none" stroke="black" stroke-width="2"/>
<path d="M126.98 312.27L127.43 314.45M127.43 314.45L128.26 316.55M128.26 316.55L129.48 318.54M129.48 318.54L131.05 320.41M131.05 320.41L132.96 322.11M132.96 322.11L135.18 323.63M135.18 323.63L137.68 324.95M137.68 324.95L140.42 326.04M140.42 326.04L143.37 326.89M143.37 326.89L146.48 327.5M146.48 327.5L149.72 327.84M149.72 327.84L153.02 327.92M153.02 327.92L156.36 327.74M156.36 327.74L159.68 327.3M159.68 327.3L162.94 326.59M162.94 326.59L166.08 325.65M166.08 325.65L169.07 324.46M169.07 324.46L171.86 323.07M171.86 323.07L174.42 321.47M174.42 321.47L176.71 319.71M176.71 319.71L178.69 317.79M178.69 317.79L180.34 315.75M180.34 315.75L181.63 313.62M181.63 313.62L182.56 311.42M182.56 311.42L183.09 309.19M183.09 309.19L183.24 306.95M183.24 306.95L182.98 304.75M182.98 304.75L182.34 302.61M182.34 302.61L181.31 300.56M181.31 300.56L179.92 298.62M179.92 298.62L178.17 296.84M178.17 296.84L176.11 295.22M176.11 295.22L173.74 293.8M173.74 293.8L171.12 292.6M171.12 292.6L168.27 291.62M168.27 291.62L165.23 290.89M165.23 290.89L162.05 290.41M162.05 290.41L158.77 290.2M158.77 290.2L155.44 290.25M155.44 290.25L152.11 290.57M152.11 290.57L148.82 291.14M148.82 291.14L145.61 291.97M145.61 291.97L142.54 293.03M142.54 293.03L139.64 294.33M139.64 294.33L136.96 295.82M136.96 295.82L134.54 297.51M134.54 297.51L132.4 299.35M132.4 299.35L130.58 301.33M130.58 301.33L129.11 303.43M129.11 303.43L127.99 305.6M127.99 305.6L127.26 307.81M127.26 307.81L126.92 310.05M126.92 310.05L126.98 312.27"
fill="none" stroke="black" stroke-width="2"/>
<path d="M254.53 326.59L253.97 330.37"
fill="none" stroke="black" stroke-width="2"/>
<path d="M249.53 302.14L248.76 307.4"
fill="none" stroke="black" stroke-width="2"/>
<path d="M247.3 317.35L245.57 329.14"
fill="none" stroke="black" stroke-width="2"/>
<path d="M245.52 329.76L245.71 328.51M245.71 328.51L246.26 327.37M246.26 327.37L247.12 326.44M247.12 326.44L248.22 325.81M248.22 325.81L249.45 325.52M249.45 325.52L250.72 325.62M250.72 325.62L251.89 326.08M251.89 326.08L252.88 326.87M252.88 326.87L253.6 327.92M253.6 327.92L253.97 329.13M253.97 329.13L253.97 330.39M253.97 330.39L253.6 331.6M253.6 331.6L252.88 332.65M252.88 332.65L251.89 333.44M251.89 333.44L250.72 333.9M250.72 333.9L249.45 333.99M249.45 333.99L248.22 333.71M248.22 333.71L247.12 333.08M247.12 333.08L246.26 332.15M246.26 332.15L245.71 331.01M245.71 331.01L245.52 329.76"
fill="none" stroke="black" stroke-width="2"/>
<path d="M256.47 299.51L255.37 298.84M255.37 298.84L254.13 298.52M254.13 298.52L252.84 298.6M252.84 298.6L251.64 299.05M251.64 299.05L250.63 299.85M250.63 299.85L249.9 300.91M249.9 300.91L249.53 302.14"
fill="none" stroke="black" stroke-width="2"/>
<path d="M303.36 303.37L302.78 307.29"
fill="none" stroke="black" stroke-width="2"/>
<path d="M301.26 317.67L299.4 330.37"
fill="none" stroke="black" stroke-width="2"/>
<path d="M291.35 326.72L291 329.14"
fill="none" stroke="black" stroke-width="2"/>
<path d="M290.95 329.76L291.14 328.51M291.14 328.51L291.69 327.37M291.69 327.37L292.55 326.44M292.55 326.44L293.65 325.81M293.65 325.81L294.88 325.52M294.88 325.52L296.14 325.62M296.14 325.62L297.32 326.08M297.32 326.08L298.31 326.87M298.31 326.87L299.02 327.92M299.02 327.92L299.4 329.13M299.4 329.13L299.4 330.39M299.4 330.39L299.02 331.6M299.02 331.6L298.31 332.65M298.31 332.65L297.32 333.44M297.32 333.44L296.14 333.9M296.14 333.9L294.88 333.99M294.88 333.99L293.65 333.71M293.65 333.71L292.55 333.08M292.55 333.08L291.69 332.15M291.69 332.15L291.14 331.01M291.14 331.01L290.95 329.76"
fill="none" stroke="black" stroke-width="2"/>
<path d="M303.36 303.37L303.36 302.16M303.36 302.16L303.03 301.01M303.03 301.01L302.38 299.99M302.38 299.99L301.48 299.19M301.48 299.19L300.38 298.69M300.38 298.69L299.19 298.51M299.19 298.51L298 298.67M298 298.67L296.9 299.16"
fill="none" stroke="black" stroke-width="2"/>
<path d="M246.98 315.64L247.43 317.82M247.43 317.82L248.26 319.92M248.26 319.92L249.48 321.91M249.48 321.91L251.05 323.78M251.05 323.78L252.96 325.48M252.96 325.48L255.18 327M255.18 327L257.68 328.32M257.68 328.32L260.42 329.41M260.42 329.41L263.37 330.26M263.37 330.26L266.48 330.87M266.48 330.87L269.72 331.21M269.72 331.21L273.03 331.29M273.03 331.29L276.36 331.11M276.36 331.11L279.68 330.66M279.68 330.66L282.94 329.96M282.94 329.96L286.08 329.01M286.08 329.01L289.07 327.83M289.07 327.83L291.86 326.44M291.86 326.44L294.42 324.84M294.42 324.84L296.71 323.07M296.71 323.07L298.69 321.16M298.69 321.16L300.34 319.12M300.34 319.12L301.64 316.98M301.64 316.98L302.56 314.79M302.56 314.79L303.09 312.55M303.09 312.55L303.24 310.32M303.24 310.32L302.99 308.12M302.99 308.12L302.34 305.98M302.34 305.98L301.32 303.92M301.32 303.92L299.92 301.99M299.92 301.99L298.18 300.2M298.18 300.2L296.11 298.59M296.11 298.59L293.74 297.17M293.74 297.17L291.12 295.96M291.12 295.96L288.27 294.99M288.27 294.99L285.23 294.26M285.23 294.26L282.05 293.78M282.05 293.78L278.78 293.57M278.78 293.57L275.45 293.62M275.45 293.62L272.11 293.93M272.11 293.93L268.82 294.51M268.82 294.51L265.61 295.34M265.61 295.34L262.54 296.4M262.54 296.4L259.65 297.69M259.65 297.69L256.97 299.19M256.97 299.19L254.54 300.87M254.54 300.87L252.4 302.72M252.4 302.72L250.58 304.7M250.58 304.7L249.11 306.79M249.11 306.79L248 308.96M248 308.96L247.26 311.18M247.26 311.18L246.92 313.42M246.92 313.42L246.98 315.64"
fill="none" stroke="black" stroke-width="2"/>
<path d="M366.31 325.24L365.75 329.02"
fill="none" stroke="black" stroke-width="2"/>
<path d="M361.31 300.78L360.54 306.04"
fill="none" stroke="black" stroke-width="2"/>
<path d="M359.08 316L357.35 327.79"
fill="none" stroke="black" stroke-width="2"/>
<path d="M357.3 328.41L357.49 327.15M357.49 327.15L358.04 326.01M358.04 326.01L358.9 325.09M358.9 325.09L360 324.45M360 324.45L361.23 324.17M361.23 324.17L362.5 324.27M362.5 324.27L363.67 324.73M363.67 324.73L364.66 325.52M364.66 325.52L365.38 326.56M365.38 326.56L365.75 327.77M365.75 327.77L365.75 329.04M365.75 329.04L365.38 330.25M365.38 330.25L364.66 331.29M364.66 331.29L363.67 332.08M363.67 332.08L362.5 332.54M362.5 332.54L361.23 332.64M361.23 332.64L360 332.36M360 332.36L358.9 331.72M358.9 331.72L358.04 330.8M358.04 330.8L357.49 329.66M357.49 329.66L357.3 328.41"
fill="none" stroke="black" stroke-width="2"/>
<path d="M368.25 298.15L367.15 297.48M367.15 297.48L365.91 297.17M365.91 297.17L364.62 297.25M364.62 297.25L363.42 297.7M363.42 297.7L362.41 298.49M362.41 298.49L361.68 299.55M361.68 299.55L361.31 300.78"
fill="none" stroke="black" stroke-width="2"/>
<path d="M415.14 302.01L414.56 305.93"
fill="none" stroke="black" stroke-width="2"/>
<path d="M413.04 316.32L411.18 329.02"
fill="none" stroke="black" stroke-width="2"/>
<path d="M403.13 325.36L402.78 327.79"
fill="none" stroke="black" stroke-width="2"/>
<path d="M402.73 328.41L402.92 327.15M402.92 327.15L403.47 326.01M403.47 326.01L404.33 325.09M404.33 325.09L405.43 324.45M405.43 324.45L406.66 324.17M406.66 324.17L407.92 324.27M407.92 324.27L409.1 324.73M409.1 324.73L410.09 325.52M410.09 325.52L410.8 326.56M410.8 326.56L411.18 327.77M411.18 327.77L411.18 329.04M411.18 329.04L410.8 330.25M410.8 330.25L410.09 331.29M410.09 331.29L409.1 332.08M409.1 332.08L407.92 332.54M407.92 332.54L406.66 332.64M406.66 332.64L405.43 332.36M405.43 332.36L404.33 331.72M404.33 331.72L403.47 330.8M403.47 330.8L402.92 329.66M402.92 329.66L402.73 328.41"
fill="none" stroke="black" stroke-width="2"/>
<path d="M415.14 302.01L415.14 300.81M415.14 300.81L414.81 299.65M414.81 299.65L414.16 298.64M414.16 298.64L413.26 297.84M413.26 297.84L412.16 297.33M412.16 297.33L410.97 297.15M410.97 297.15L409.78 297.31M409.78 297.31L408.68 297.8"
fill="none" stroke="black" stroke-width="2"/>
<path d="M358.76 314.29L359.21 316.46M359.21 316.46L360.04 318.56M360.04 318.56L361.26 320.56M361.26 320.56L362.83 322.42M362.83 322.42L364.74 324.13M364.74 324.13L366.96 325.65M366.96 325.65L369.46 326.96M369.46 326.96L372.2 328.05M372.2 328.05L375.15 328.91M375.15 328.91L378.26 329.51M378.26 329.51L381.5 329.86M381.5 329.86L384.81 329.94M384.81 329.94L388.14 329.76M388.14 329.76L391.46 329.31M391.46 329.31L394.72 328.61M394.72 328.61L397.86 327.66M397.86 327.66L400.85 326.48M400.85 326.48L403.64 325.08M403.64 325.08L406.2 323.49M406.2 323.49L408.49 321.72M408.49 321.72L410.47 319.8M410.47 319.8L412.12 317.76M412.12 317.76L413.42 315.63M413.42 315.63L414.34 313.43M414.34 313.43L414.87 311.2M414.87 311.2L415.02 308.97M415.02 308.97L414.77 306.77M414.77 306.77L414.12 304.62M414.12 304.62L413.1 302.57M413.1 302.57L411.7 300.64M411.7 300.64L409.96 298.85M409.96 298.85L407.89 297.24M407.89 297.24L405.52 295.82M405.52 295.82L402.9 294.61M402.9 294.61L400.05 293.63M400.05 293.63L397.01 292.9M397.01 292.9L393.83 292.43M393.83 292.43L390.56 292.22M390.56 292.22L387.23 292.27M387.23 292.27L383.89 292.58M383.89 292.58L380.6 293.16M380.6 293.16L377.39 293.98M377.39 293.98L374.32 295.05M374.32 295.05L371.43 296.34M371.43 296.34L368.75 297.84M368.75 297.84L366.32 299.52M366.32 299.52L364.18 301.37M364.18 301.37L362.36 303.35M362.36 303.35L360.89 305.44M360.89 305.44L359.78 307.61M359.78 307.61L359.05 309.83M359.05 309.83L358.7 312.06M358.7 312.06L358.76 314.29"
fill="none" stroke="black" stroke-width="2"/>
<path d="M477.26 325.73L476.71 329.51"
fill="none" stroke="black" stroke-width="2"/>
<path d="M472.26 301.27L471.49 306.53"
fill="none" stroke="black" stroke-width="2"/>
<path d="M470.03 316.49L468.3 328.28"
fill="none" stroke="black" stroke-width="2"/>
<path d="M468.26 328.89L468.45 327.64M468.45 327.64L469 326.5M469 326.5L469.86 325.57M469.86 325.57L470.95 324.94M470.95 324.94L472.19 324.66M472.19 324.66L473.45 324.75M473.45 324.75L474.63 325.22M474.63 325.22L475.62 326.01M475.62 326.01L476.33 327.05M476.33 327.05L476.7 328.26M476.7 328.26L476.7 329.53M476.7 329.53L476.33 330.74M476.33 330.74L475.62 331.78M475.62 331.78L474.63 332.57M474.63 332.57L473.45 333.03M473.45 333.03L472.19 333.13M472.19 333.13L470.95 332.85M470.95 332.85L469.86 332.21M469.86 332.21L469 331.29M469 331.29L468.45 330.15M468.45 330.15L468.26 328.89"
fill="none" stroke="black" stroke-width="2"/>
<path d="M479.2 298.64L478.11 297.97M478.11 297.97L476.86 297.66M476.86 297.66L475.58 297.73M475.58 297.73L474.38 298.19M474.38 298.19L473.37 298.98M473.37 298.98L472.64 300.04M472.64 300.04L472.26 301.27"
fill="none" stroke="black" stroke-width="2"/>
<path d="M526.09 302.5L525.52 306.42"
fill="none" stroke="black" stroke-width="2"/>
<path d="M524 316.81L522.13 329.51"
fill="none" stroke="black" stroke-width="2"/>
<path d="M514.09 325.85L513.73 328.28"
fill="none" stroke="black" stroke-width="2"/>
<path d="M513.69 328.89L513.87 327.64M513.87 327.64L514.42 326.5M514.42 326.5L515.29 325.57M515.29 325.57L516.38 324.94M516.38 324.94L517.62 324.66M517.62 324.66L518.88 324.75M518.88 324.75L520.06 325.22M520.06 325.22L521.05 326.01M521.05 326.01L521.76 327.05M521.76 327.05L522.13 328.26M522.13 328.26L522.13 329.53M522.13 329.53L521.76 330.74M521.76 330.74L521.05 331.78M521.05 331.78L520.06 332.57M520.06 332.57L518.88 333.03M518.88 333.03L517.62 333.13M517.62 333.13L516.38 332.85M516.38 332.85L515.29 332.21M515.29 332.21L514.42 331.29M514.42 331.29L513.87 330.15M513.87 330.15L513.69 328.89"
fill="none" stroke="black" stroke-width="2"/>
<path d="M526.09 302.5L526.1 301.3M526.1 301.3L525.76 300.14M525.76 300.14L525.12 299.12M525.12 299.12L524.21 298.33M524.21 298.33L523.12 297.82M523.12 297.82L521.93 297.64M521.93 297.64L520.73 297.8M520.73 297.8L519.63 298.29"
fill="none" stroke="black" stroke-width="2"/>
<path d="M469.71 314.77L470.16 316.95M470.16 316.95L471 319.05M471 319.05L472.21 321.05M472.21 321.05L473.78 322.91M473.78 322.91L475.69 324.61M475.69 324.61L477.91 326.13M477.91 326.13L480.41 327.45M480.41 327.45L483.16 328.54M483.16 328.54L486.11 329.4M486.11 329.4L489.22 330M489.22 330L492.45 330.35M492.45 330.35L495.76 330.43M495.76 330.43L499.1 330.24M499.1 330.24L502.42 329.8M502.42 329.8L505.67 329.1M505.67 329.1L508.82 328.15M508.82 328.15L511.81 326.97M511.81 326.97L514.6 325.57M514.6 325.57L517.16 323.98M517.16 323.98L519.44 322.21M519.44 322.21L521.42 320.29M521.42 320.29L523.07 318.25M523.07 318.25L524.37 316.12M524.37 316.12L525.29 313.92M525.29 313.92L525.83 311.69M525.83 311.69L525.97 309.46M525.97 309.46L525.72 307.25M525.72 307.25L525.08 305.11M525.08 305.11L524.05 303.06M524.05 303.06L522.66 301.13M522.66 301.13L520.91 299.34M520.91 299.34L518.84 297.73M518.84 297.73L516.48 296.3M516.48 296.3L513.85 295.1M513.85 295.1L511 294.12M511 294.12L507.97 293.39M507.97 293.39L504.79 292.92M504.79 292.92L501.51 292.7M501.51 292.7L498.18 292.76M498.18 292.76L494.85 293.07M494.85 293.07L491.55 293.64M491.55 293.64L488.35 294.47M488.35 294.47L485.28 295.54M485.28 295.54L482.38 296.83M482.38 296.83L479.7 298.33M479.7 298.33L477.27 300.01M477.27 300.01L475.14 301.86M475.14 301.86L473.32 303.84M473.32 303.84L471.84 305.93M471.84 305.93L470.73 308.1M470.73 308.1L470 310.32M470 310.32L469.66 312.55M469.66 312.55L469.71 314.77"
fill="none" stroke="black" stroke-width="2"/>
<path d="M587.24 324.75L586.68 328.53"
fill="none" stroke="black" stroke-width="2"/>
<path d="M582.24 300.29L581.47 305.56"
fill="none" stroke="black" stroke-width="2"/>
<path d="M580.01 315.51L578.28 327.3"
fill="none" stroke="black" stroke-width="2"/>
<path d="M578.24 327.92L578.42 326.67M578.42 326.67L578.97 325.52M578.97 325.52L579.83 324.6M579.83 324.6L580.93 323.96M580.93 323.96L582.17 323.68M582.17 323.68L583.43 323.78M583.43 323.78L584.61 324.24M584.61 324.24L585.6 325.03M585.6 325.03L586.31 326.07M586.31 326.07L586.68 327.28M586.68 327.28L586.68 328.55M586.68 328.55L586.31 329.76M586.31 329.76L585.6 330.8M585.6 330.8L584.61 331.59M584.61 331.59L583.43 332.06M583.43 332.06L582.17 332.15M582.17 332.15L580.93 331.87M580.93 331.87L579.83 331.24M579.83 331.24L578.97 330.31M578.97 330.31L578.42 329.17M578.42 329.17L578.24 327.92"
fill="none" stroke="black" stroke-width="2"/>
<path d="M589.18 297.67L588.09 296.99M588.09 296.99L586.84 296.68M586.84 296.68L585.56 296.76M585.56 296.76L584.35 297.21M584.35 297.21L583.34 298.01M583.34 298.01L582.62 299.07M582.62 299.07L582.24 300.29"
fill="none" stroke="black" stroke-width="2"/>
<path d="M636.07 301.53L635.5 305.44"
fill="none" stroke="black" stroke-width="2"/>
<path d="M633.97 315.83L632.11 328.53"
fill="none" stroke="black" stroke-width="2"/>
<path d="M624.06 324.88L623.71 327.3"
fill="none" stroke="black" stroke-width="2"/>
<path d="M623.66 327.92L623.85 326.67M623.85 326.67L624.4 325.52M624.4 325.52L625.26 324.6M625.26 324.6L626.36 323.96M626.36 323.96L627.59 323.68M627.59 323.68L628.86 323.78M628.86 323.78L630.03 324.24M630.03 324.24L631.02 325.03M631.02 325.03L631.74 326.07M631.74 326.07L632.11 327.28M632.11 327.28L632.11 328.55M632.11 328.55L631.74 329.76M631.74 329.76L631.02 330.8M631.02 330.8L630.03 331.59M630.03 331.59L628.86 332.06M628.86 332.06L627.59 332.15M627.59 332.15L626.36 331.87M626.36 331.87L625.26 331.24M625.26 331.24L624.4 330.31M624.4 330.31L623.85 329.17M623.85 329.17L623.66 327.92"
fill="none" stroke="black" stroke-width="2"/>
<path d="M636.07 301.53L636.08 300.32M636.08 300.32L635.74 299.16M635.74 299.16L635.09 298.15M635.09 298.15L634.19 297.35M634.19 297.35L633.1 296.84M633.1 296.84L631.9 296.66M631.9 296.66L630.71 296.82M630.71 296.82L629.61 297.31"
fill="none" stroke="black" stroke-width="2"/>
<path d="M579.69 313.8L580.14 315.97M580.14 315.97L580.98 318.08M580.98 318.08L582.19 320.07M582.19 320.07L583.76 321.93M583.76 321.93L585.67 323.64M585.67 323.64L587.89 325.16M587.89 325.16L590.39 326.47M590.39 326.47L593.13 327.57M593.13 327.57L596.08 328.42M596.08 328.42L599.2 329.02M599.2 329.02L602.43 329.37M602.43 329.37L605.74 329.45M605.74 329.45L609.08 329.27M609.08 329.27L612.4 328.82M612.4 328.82L615.65 328.12M615.65 328.12L618.79 327.17M618.79 327.17L621.78 325.99M621.78 325.99L624.58 324.59M624.58 324.59L627.13 323M627.13 323L629.42 321.23M629.42 321.23L631.4 319.32M631.4 319.32L633.05 317.28M633.05 317.28L634.35 315.14M634.35 315.14L635.27 312.94M635.27 312.94L635.81 310.71M635.81 310.71L635.95 308.48M635.95 308.48L635.7 306.28M635.7 306.28L635.05 304.13M635.05 304.13L634.03 302.08M634.03 302.08L632.63 300.15M632.63 300.15L630.89 298.36M630.89 298.36L628.82 296.75M628.82 296.75L626.46 295.33M626.46 295.33L623.83 294.12M623.83 294.12L620.98 293.15M620.98 293.15L617.94 292.42M617.94 292.42L614.76 291.94M614.76 291.94L611.49 291.73M611.49 291.73L608.16 291.78M608.16 291.78L604.82 292.09M604.82 292.09L601.53 292.67M601.53 292.67L598.33 293.49M598.33 293.49L595.25 294.56M595.25 294.56L592.36 295.85M592.36 295.85L589.68 297.35M589.68 297.35L587.25 299.03M587.25 299.03L585.11 300.88M585.11 300.88L583.29 302.86M583.29 302.86L581.82 304.95M581.82 304.95L580.71 307.12M580.71 307.12L579.98 309.34M579.98 309.34L579.64 311.58M579.64 311.58L579.69 313.8"
fill="none" stroke="black" stroke-width="2"/>
<path d="M2.26 251.86L51.93 254.57M51.93 254.57L101.62 256.91M101.62 256.91L151.33 258.86M151.33 258.86L201.05 260.43M201.05 260.43L250.78 261.61M250.78 261.61L300.52 262.41M300.52 262.41L350.26 262.83M350.26 262.83L400 262.86M400 262.86L449.75 262.5M449.75 262.5L499.49 261.77M499.49 261.77L549.22 260.65M549.22 260.65L598.94 259.14M598.94 259.14L648.65 257.25M648.65 257.25L698.34 254.98M698.34 254.98L748.01 252.33M748.01 252.33L797.66 249.29"
fill="none" stroke="RGB(2,158,33)" stroke-width="2"/>
<path d="M2.92 247.93L82.39 250.01M82.39 250.01L161.87 251.59M161.87 251.59L241.36 252.67M241.36 252.67L320.85 253.26M320.85 253.26L400.34 253.35M400.34 253.35L479.83 252.95M479.83 252.95L559.32 252.05M559.32 252.05L638.81 250.66M638.81 250.66L718.28 248.77M718.28 248.77L797.74 246.39"
fill="none" stroke="RGB(2,158,33)" stroke-width="2"/>
<path d="M129.79 321.37L130.13 258.08"
fill="none" stroke="black" stroke-width="2"/>
<path d="M133.55 296.02L133.55 251.08"
fill="none" stroke="black" stroke-width="2"/>
<path d="M130.09 321.37L130 321.21M130 321.21L129.79 321.15M129.79 321.15L129.57 321.21M129.57 321.21L129.48 321.37M129.48 321.37L129.57 321.53M129.57 321.53L129.79 321.59M129.79 321.59L130 321.53M130 321.53L130.09 321.37"
fill="none" stroke="black" stroke-width="2"/>
<path d="M133.86 296.02L133.77 295.87M133.77 295.87L133.55 295.8M133.55 295.8L133.34 295.87M133.34 295.87L133.25 296.02M133.25 296.02L133.34 296.18M133.34 296.18L133.55 296.25M133.55 296.25L133.77 296.18M133.77 296.18L133.86 296.02"
fill="none" stroke="black" stroke-width="2"/>
<path d="M175.21 321.37L175.21 259.66"
fill="none" stroke="black" stroke-width="2"/>
<path d="M178.98 296.02L178.98 251.86"
fill="none" stroke="black" stroke-width="2"/>
<path d="M175.52 321.37L175.43 321.21M175.43 321.21L175.21 321.15M175.21 321.15L175 321.21M175 321.21L174.91 321.37M174.91 321.37L175 321.53M175 321.53L175.21 321.59M175.21 321.59L175.43 321.53M175.43 321.53L175.52 321.37"
fill="none" stroke="black" stroke-width="2"/>
<path d="M179.29 296.02L179.2 295.87M179.2 295.87L178.98 295.8M178.98 295.8L178.77 295.87M178.77 295.87L178.68 296.02M178.68 296.02L178.77 296.18M178.77 296.18L178.98 296.25M178.98 296.25L179.2 296.18M179.2 296.18L179.29 296.02"
fill="none" stroke="black" stroke-width="2"/>
<path d="M249.79 324.74L250.13 261.6"
fill="none" stroke="black" stroke-width="2"/>
<path d="M253.56 299.39L253.56 252.79"
fill="none" stroke="black" stroke-width="2"/>
<path d="M250.09 324.74L250 324.58M250 324.58L249.79 324.52M249.79 324.52L249.57 324.58M249.57 324.58L249.48 324.74M249.48 324.74L249.57 324.9M249.57 324.9L249.79 324.96M249.79 324.96L250 324.9M250 324.9L250.09 324.74"
fill="none" stroke="black" stroke-width="2"/>
<path d="M253.86 299.39L253.77 299.24M253.77 299.24L253.56 299.17M253.56 299.17L253.34 299.24M253.34 299.24L253.25 299.39M253.25 299.39L253.34 299.55M253.34 299.55L253.56 299.61M253.56 299.61L253.77 299.55M253.77 299.55L253.86 299.39"
fill="none" stroke="black" stroke-width="2"/>
<path d="M295.22 324.74L295.22 262.34"
fill="none" stroke="black" stroke-width="2"/>
<path d="M298.98 299.39L298.99 253.14"
fill="none" stroke="black" stroke-width="2"/>
<path d="M295.52 324.74L295.43 324.58M295.43 324.58L295.22 324.52M295.22 324.52L295 324.58M295 324.58L294.91 324.74M294.91 324.74L295 324.9M295 324.9L295.22 324.96M295.22 324.96L295.43 324.9M295.43 324.9L295.52 324.74"
fill="none" stroke="black" stroke-width="2"/>
<path d="M299.29 299.39L299.2 299.24M299.2 299.24L298.98 299.17M298.98 299.17L298.77 299.24M298.77 299.24L298.68 299.39M298.68 299.39L298.77 299.55M298.77 299.55L298.98 299.61M298.98 299.61L299.2 299.55M299.2 299.55L299.29 299.39"
fill="none" stroke="black" stroke-width="2"/>
<path d="M361.57 323.39L361.9 262.87"
fill="none" stroke="black" stroke-width="2"/>
<path d="M365.34 298.04L365.34 253.37"
fill="none" stroke="black" stroke-width="2"/>
<path d="M361.87 323.39L361.78 323.23M361.78 323.23L361.57 323.16M361.57 323.16L361.35 323.23M361.35 323.23L361.26 323.39M361.26 323.39L361.35 323.54M361.35 323.54L361.57 323.61M361.57 323.61L361.78 323.54M361.78 323.54L361.87 323.39"
fill="none" stroke="black" stroke-width="2"/>
<path d="M365.64 298.04L365.55 297.88M365.55 297.88L365.34 297.82M365.34 297.82L365.12 297.88M365.12 297.88L365.03 298.04M365.03 298.04L365.12 298.2M365.12 298.2L365.34 298.26M365.34 298.26L365.55 298.2M365.55 298.2L365.64 298.04"
fill="none" stroke="black" stroke-width="2"/>
<path d="M407 323.39L407 262.83"
fill="none" stroke="black" stroke-width="2"/>
<path d="M410.76 298.04L410.76 253.33"
fill="none" stroke="black" stroke-width="2"/>
<path d="M407.3 323.39L407.21 323.23M407.21 323.23L407 323.16M407 323.16L406.78 323.23M406.78 323.23L406.69 323.39M406.69 323.39L406.78 323.54M406.78 323.54L407 323.61M407 323.61L407.21 323.54M407.21 323.54L407.3 323.39"
fill="none" stroke="black" stroke-width="2"/>
<path d="M411.07 298.04L410.98 297.88M410.98 297.88L410.76 297.82M410.76 297.82L410.55 297.88M410.55 297.88L410.46 298.04M410.46 298.04L410.55 298.2M410.55 298.2L410.76 298.26M410.76 298.26L410.98 298.2M410.98 298.2L411.07 298.04"
fill="none" stroke="black" stroke-width="2"/>
<path d="M472.52 323.87L472.86 262.21"
fill="none" stroke="black" stroke-width="2"/>
<path d="M476.29 298.53L476.29 252.98"
fill="none" stroke="black" stroke-width="2"/>
<path d="M472.83 323.87L472.74 323.72M472.74 323.72L472.52 323.65M472.52 323.65L472.31 323.72M472.31 323.72L472.22 323.87M472.22 323.87L472.31 324.03M472.31 324.03L472.52 324.1M472.52 324.1L472.74 324.03M472.74 324.03L472.83 323.87"
fill="none" stroke="black" stroke-width="2"/>
<path d="M476.59 298.53L476.51 298.37M476.51 298.37L476.29 298.31M476.29 298.31L476.07 298.37M476.07 298.37L475.99 298.53M475.99 298.53L476.07 298.68M476.07 298.68L476.29 298.75M476.29 298.75L476.51 298.68M476.51 298.68L476.59 298.53"
fill="none" stroke="black" stroke-width="2"/>
<path d="M517.95 323.87L517.95 261.4"
fill="none" stroke="black" stroke-width="2"/>
<path d="M521.72 298.53L521.71 252.54"
fill="none" stroke="black" stroke-width="2"/>
<path d="M518.26 323.87L518.17 323.72M518.17 323.72L517.95 323.65M517.95 323.65L517.74 323.72M517.74 323.72L517.65 323.87M517.65 323.87L517.74 324.03M517.74 324.03L517.95 324.1M517.95 324.1L518.17 324.03M518.17 324.03L518.26 323.87"
fill="none" stroke="black" stroke-width="2"/>
<path d="M522.02 298.53L521.93 298.37M521.93 298.37L521.72 298.31M521.72 298.31L521.5 298.37M521.5 298.37L521.41 298.53M521.41 298.53L521.5 298.68M521.5 298.68L521.72 298.75M521.72 298.75L521.93 298.68M521.93 298.68L522.02 298.53"
fill="none" stroke="black" stroke-width="2"/>
<path d="M582.5 322.9L582.84 259.67"
fill="none" stroke="black" stroke-width="2"/>
<path d="M586.27 297.55L586.27 251.64"
fill="none" stroke="black" stroke-width="2"/>
<path d="M582.81 322.9L582.72 322.74M582.72 322.74L582.5 322.68M582.5 322.68L582.28 322.74M582.28 322.74L582.2 322.9M582.2 322.9L582.28 323.05M582.28 323.05L582.5 323.12M582.5 323.12L582.72 323.05M582.72 323.05L582.81 322.9"
fill="none" stroke="black" stroke-width="2"/>
<path d="M586.57 297.55L586.48 297.39M586.48 297.39L586.27 297.33M586.27 297.33L586.05 297.39M586.05 297.39L585.96 297.55M585.96 297.55L586.05 297.71M586.05 297.71L586.27 297.77M586.27 297.77L586.48 297.71M586.48 297.71L586.57 297.55"
fill="none" stroke="black" stroke-width="2"/>
<path d="M627.93 322.9L627.86 258.09"
fill="none" stroke="black" stroke-width="2"/>
<path d="M631.69 297.55L631.66 250.8"
fill="none" stroke="black" stroke-width="2"/>
<path d="M628.23 322.9L628.14 322.74M628.14 322.74L627.93 322.68M627.93 322.68L627.71 322.74M627.71 322.74L627.62 322.9M627.62 322.9L627.71 323.05M627.71 323.05L627.93 323.12M627.93 323.12L628.14 323.05M628.14 323.05L628.23 322.9"
fill="none" stroke="black" stroke-width="2"/>
<path d="M632 297.55L631.91 297.39M631.91 297.39L631.69 297.33M631.69 297.33L631.48 297.39M631.48 297.39L631.39 297.55M631.39 297.55L631.48 297.71M631.48 297.71L631.69 297.77M631.69 297.77L631.91 297.71M631.91 297.71L632 297.55"
fill="none" stroke="black" stroke-width="2"/>
</svg>
