<?xml version="1.0" encoding="UTF-8"?>
<svg xmlns="http://www.w3.org/2000/svg" width="800.000" height="600.000" viewBox="0.0 0.0 800.000 600.000" version="1.1">
  <title>Produce by Acme CAD Converter</title>
  <desc>Produce by Acme CAD Converter</desc>
<path d="M2.26 80.34L2.26 519.66"
fill="none" stroke="black" stroke-width="0"/>
<path d="M2.32 247.9L81.84 249.97M81.84 249.97L161.38 251.55M161.38 251.55L240.93 252.63M240.93 252.63L320.48 253.22M320.48 253.22L400.04 253.31M400.04 253.31L479.59 252.91M479.59 252.91L559.14 252.01M559.14 252.01L638.68 250.62M638.68 250.62L718.22 248.73M718.22 248.73L797.74 246.35"
fill="none" stroke="RGB(2,158,33)" stroke-width="2"/>
<path d="M79.24 249.99L80.66 256.83M80.66 256.83L82.13 263.37M82.13 263.37L83.65 269.62M83.65 269.62L85.21 275.54M85.21 275.54L86.82 281.15M86.82 281.15L88.47 286.43M88.47 286.43L90.17 291.36M90.17 291.36L91.89 295.95M91.89 295.95L93.65 300.18M93.65 300.18L95.45 304.06M95.45 304.06L97.27 307.57M97.27 307.57L99.11 310.7M99.11 310.7L100.98 313.46M100.98 313.46L102.87 315.84M102.87 315.84L104.78 317.83M104.78 317.83L106.7 319.44M106.7 319.44L108.63 320.66M108.63 320.66L110.57 321.48M110.57 321.48L112.52 321.91M112.52 321.91L114.46 321.95M114.46 321.95L116.41 321.59M116.41 321.59L118.36 320.84M118.36 320.84L120.29 319.7M120.29 319.7L122.22 318.17M122.22 318.17L124.13 316.25M124.13 316.25L126.03 313.95M126.03 313.95L127.91 311.26M127.91 311.26L129.77 308.2M129.77 308.2L131.61 304.76M131.61 304.76L133.42 300.96M133.42 300.96L135.2 296.79M135.2 296.79L136.94 292.27M136.94 292.27L138.65 287.4M138.65 287.4L140.33 282.19M140.33 282.19L141.96 276.65M141.96 276.65L143.55 270.78M143.55 270.78L145.09 264.6M145.09 264.6L146.59 258.11M146.59 258.11L148.04 251.32"
fill="none" stroke="black" stroke-width="2"/>
<path d="M161.42 251.64L162.8 258.46M162.8 258.46L164.24 265M164.24 265L165.73 271.25M165.73 271.25L167.27 277.19M167.27 277.19L168.84 282.82M168.84 282.82L170.46 288.13M170.46 288.13L172.12 293.11M172.12 293.11L173.82 297.75M173.82 297.75L175.55 302.05M175.55 302.05L177.31 306M177.31 306L179.1 309.59M179.1 309.59L180.91 312.83M180.91 312.83L182.75 315.7M182.75 315.7L184.61 318.19M184.61 318.19L186.49 320.32M186.49 320.32L188.38 322.06M188.38 322.06L190.29 323.43M190.29 323.43L192.2 324.41M192.2 324.41L194.12 325.01M194.12 325.01L196.04 325.23M196.04 325.23L197.97 325.06M197.97 325.06L199.89 324.51M199.89 324.51L201.81 323.58M201.81 323.58L203.72 322.26M203.72 322.26L205.62 320.56M205.62 320.56L207.5 318.49M207.5 318.49L209.37 316.04M209.37 316.04L211.22 313.22M211.22 313.22L213.05 310.03M213.05 310.03L214.85 306.48M214.85 306.48L216.62 302.58M216.62 302.58L218.37 298.32M218.37 298.32L220.08 293.72M220.08 293.72L221.76 288.78M221.76 288.78L223.4 283.52M223.4 283.52L225 277.93M225 277.93L226.55 272.03M226.55 272.03L228.06 265.82M228.06 265.82L229.53 259.32M229.53 259.32L230.94 252.53"
fill="none" stroke="black" stroke-width="2"/>
<path d="M242.21 252.52L243.61 259.38M243.61 259.38L245.05 265.96M245.05 265.96L246.54 272.23M246.54 272.23L248.08 278.21M248.08 278.21L249.66 283.86M249.66 283.86L251.28 289.2M251.28 289.2L252.95 294.2M252.95 294.2L254.64 298.87M254.64 298.87L256.38 303.19M256.38 303.19L258.14 307.16M258.14 307.16L259.94 310.77M259.94 310.77L261.76 314.02M261.76 314.02L263.61 316.9M263.61 316.9L265.47 319.4M265.47 319.4L267.35 321.54M267.35 321.54L269.25 323.29M269.25 323.29L271.16 324.65M271.16 324.65L273.08 325.64M273.08 325.64L275.01 326.24M275.01 326.24L276.94 326.45M276.94 326.45L278.87 326.27M278.87 326.27L280.8 325.71M280.8 325.71L282.72 324.76M282.72 324.76L284.64 323.43M284.64 323.43L286.54 321.72M286.54 321.72L288.43 319.62M288.43 319.62L290.31 317.15M290.31 317.15L292.16 314.31M292.16 314.31L293.99 311.09M293.99 311.09L295.8 307.52M295.8 307.52L297.58 303.58M297.58 303.58L299.33 299.29M299.33 299.29L301.04 294.66M301.04 294.66L302.72 289.69M302.72 289.69L304.37 284.38M304.37 284.38L305.97 278.75M305.97 278.75L307.53 272.81M307.53 272.81L309.04 266.56M309.04 266.56L310.5 260.02M310.5 260.02L311.92 253.18"
fill="none" stroke="black" stroke-width="2"/>
<path d="M324.24 253.09L325.63 260.03M325.63 260.03L327.08 266.68M327.08 266.68L328.58 273.03M328.58 273.03L330.12 279.07M330.12 279.07L331.71 284.8M331.71 284.8L333.34 290.2M333.34 290.2L335.01 295.26M335.01 295.26L336.72 299.98M336.72 299.98L338.47 304.35M338.47 304.35L340.25 308.36M340.25 308.36L342.05 312.01M342.05 312.01L343.89 315.29M343.89 315.29L345.74 318.2M345.74 318.2L347.62 320.73M347.62 320.73L349.52 322.88M349.52 322.88L351.43 324.65M351.43 324.65L353.35 326.02M353.35 326.02L355.29 327.01M355.29 327.01L357.23 327.6M357.23 327.6L359.17 327.81M359.17 327.81L361.12 327.62M361.12 327.62L363.06 327.03M363.06 327.03L365 326.06M365 326.06L366.92 324.7M366.92 324.7L368.84 322.95M368.84 322.95L370.74 320.81M370.74 320.81L372.63 318.29M372.63 318.29L374.5 315.4M374.5 315.4L376.34 312.13M376.34 312.13L378.16 308.49M378.16 308.49L379.95 304.49M379.95 304.49L381.7 300.13M381.7 300.13L383.43 295.42M383.43 295.42L385.12 290.37M385.12 290.37L386.76 284.98M386.76 284.98L388.37 279.27M388.37 279.27L389.93 273.24M389.93 273.24L391.45 266.9M391.45 266.9L392.92 260.25M392.92 260.25L394.33 253.32"
fill="none" stroke="black" stroke-width="2"/>
<path d="M405.7 253.13L407.09 260.08M407.09 260.08L408.54 266.74M408.54 266.74L410.04 273.09M410.04 273.09L411.59 279.14M411.59 279.14L413.18 284.87M413.18 284.87L414.82 290.27M414.82 290.27L416.49 295.33M416.49 295.33L418.2 300.05M418.2 300.05L419.95 304.42M419.95 304.42L421.73 308.43M421.73 308.43L423.54 312.08M423.54 312.08L425.38 315.36M425.38 315.36L427.24 318.26M427.24 318.26L429.12 320.79M429.12 320.79L431.02 322.93M431.02 322.93L432.93 324.69M432.93 324.69L434.86 326.05M434.86 326.05L436.79 327.03M436.79 327.03L438.74 327.61M438.74 327.61L440.68 327.81M440.68 327.81L442.63 327.6M442.63 327.6L444.58 327.01M444.58 327.01L446.51 326.02M446.51 326.02L448.44 324.64M448.44 324.64L450.36 322.88M450.36 322.88L452.27 320.72M452.27 320.72L454.16 318.19M454.16 318.19L456.02 315.27M456.02 315.27L457.87 311.98M457.87 311.98L459.69 308.33M459.69 308.33L461.48 304.3M461.48 304.3L463.23 299.93M463.23 299.93L464.96 295.2M464.96 295.2L466.65 290.12M466.65 290.12L468.29 284.71M468.29 284.71L469.9 278.98M469.9 278.98L471.46 272.92M471.46 272.92L472.98 266.56M472.98 266.56L474.45 259.89M474.45 259.89L475.86 252.94"
fill="none" stroke="black" stroke-width="2"/>
<path d="M488.49 252.57L489.89 259.52M489.89 259.52L491.34 266.17M491.34 266.17L492.84 272.52M492.84 272.52L494.39 278.56M494.39 278.56L495.98 284.29M495.98 284.29L497.62 289.68M497.62 289.68L499.3 294.74M499.3 294.74L501.01 299.45M501.01 299.45L502.76 303.82M502.76 303.82L504.54 307.82M504.54 307.82L506.35 311.46M506.35 311.46L508.19 314.73M508.19 314.73L510.05 317.63M510.05 317.63L511.93 320.14M511.93 320.14L513.83 322.28M513.83 322.28L515.75 324.03M515.75 324.03L517.67 325.39M517.67 325.39L519.61 326.35M519.61 326.35L521.55 326.93M521.55 326.93L523.5 327.11M523.5 327.11L525.45 326.9M525.45 326.9L527.39 326.29M527.39 326.29L529.33 325.29M529.33 325.29L531.26 323.9M531.26 323.9L533.18 322.13M533.18 322.13L535.09 319.96M535.09 319.96L536.98 317.41M536.98 317.41L538.84 314.49M538.84 314.49L540.69 311.19M540.69 311.19L542.51 307.52M542.51 307.52L544.3 303.49M544.3 303.49L546.05 299.1M546.05 299.1L547.78 294.35M547.78 294.35L549.46 289.27M549.46 289.27L551.11 283.85M551.11 283.85L552.72 278.1M552.72 278.1L554.28 272.03M554.28 272.03L555.79 265.66M555.79 265.66L557.26 258.98M557.26 258.98L558.67 252.02"
fill="none" stroke="black" stroke-width="2"/>
<path d="M568.61 251.88L570.01 258.78M570.01 258.78L571.46 265.4M571.46 265.4L572.96 271.71M572.96 271.71L574.51 277.72M574.51 277.72L576.11 283.41M576.11 283.41L577.74 288.76M577.74 288.76L579.42 293.79M579.42 293.79L581.13 298.47M581.13 298.47L582.88 302.8M582.88 302.8L584.66 306.77M584.66 306.77L586.47 310.38M586.47 310.38L588.3 313.62M588.3 313.62L590.16 316.49M590.16 316.49L592.04 318.98M592.04 318.98L593.94 321.08M593.94 321.08L595.85 322.8M595.85 322.8L597.78 324.14M597.78 324.14L599.71 325.08M599.71 325.08L601.65 325.64M601.65 325.64L603.6 325.8M603.6 325.8L605.54 325.57M605.54 325.57L607.48 324.94M607.48 324.94L609.42 323.93M609.42 323.93L611.34 322.53M611.34 322.53L613.26 320.74M613.26 320.74L615.16 318.56M615.16 318.56L617.04 316M617.04 316L618.91 313.07M618.91 313.07L620.75 309.76M620.75 309.76L622.56 306.09M622.56 306.09L624.35 302.05M624.35 302.05L626.1 297.66M626.1 297.66L627.82 292.92M627.82 292.92L629.5 287.83M629.5 287.83L631.15 282.42M631.15 282.42L632.75 276.67M632.75 276.67L634.31 270.61M634.31 270.61L635.82 264.24M635.82 264.24L637.28 257.57M637.28 257.57L638.69 250.62"
fill="none" stroke="black" stroke-width="2"/>
<path d="M650.33 249.75L651.74 256.74M651.74 256.74L653.19 263.44M653.19 263.44L654.7 269.84M654.7 269.84L656.25 275.92M656.25 275.92L657.85 281.68M657.85 281.68L659.49 287.12M659.49 287.12L661.18 292.21M661.18 292.21L662.9 296.95M662.9 296.95L664.65 301.34M664.65 301.34L666.44 305.37M666.44 305.37L668.26 309.03M668.26 309.03L670.11 312.32M670.11 312.32L671.98 315.23M671.98 315.23L673.87 317.75M673.87 317.75L675.78 319.89M675.78 319.89L677.7 321.64M677.7 321.64L679.64 323M679.64 323L681.59 323.96M681.59 323.96L683.54 324.53M683.54 324.53L685.5 324.7M685.5 324.7L687.45 324.47M687.45 324.47L689.41 323.84M689.41 323.84L691.35 322.82M691.35 322.82L693.29 321.4M693.29 321.4L695.22 319.59M695.22 319.59L697.13 317.39M697.13 317.39L699.03 314.81M699.03 314.81L700.9 311.84M700.9 311.84L702.76 308.5M702.76 308.5L704.58 304.78M704.58 304.78L706.38 300.69M706.38 300.69L708.14 296.25M708.14 296.25L709.87 291.45M709.87 291.45L711.56 286.31M711.56 286.31L713.21 280.83M713.21 280.83L714.82 275.01M714.82 275.01L716.38 268.88M716.38 268.88L717.9 262.44M717.9 262.44L719.36 255.69M719.36 255.69L720.78 248.66"
fill="none" stroke="black" stroke-width="2"/>
</svg>
