<?xml version="1.0" encoding="UTF-8"?>
<svg xmlns="http://www.w3.org/2000/svg" width="800.000" height="600.000" viewBox="0.0 0.0 800.000 600.000" version="1.1">
  <title>Produce by Acme CAD Converter</title>
  <desc>Produce by Acme CAD Converter</desc>
<path d="M2.26 80.73L2.26 519.27"
fill="none" stroke="black" stroke-width="0"/>
<path d="M2.82 156.6L52.46 159.45M52.46 159.45L102.11 161.93M102.11 161.93L151.77 164.03M151.77 164.03L201.46 165.75M201.46 165.75L251.15 167.1M251.15 167.1L300.85 168.07M300.85 168.07L350.56 168.67M350.56 168.67L400.27 168.89M400.27 168.89L449.98 168.73M449.98 168.73L499.69 168.2M499.69 168.2L549.4 167.29M549.4 167.29L599.09 166.01M599.09 166.01L648.78 164.34M648.78 164.34L698.45 162.31M698.45 162.31L748.1 159.89M748.1 159.89L797.74 157.1"
fill="none" stroke="RGB(2,158,33)" stroke-width="2"/>
<path d="M2.82 156.6L91.13 158.87M91.13 158.87L179.45 160.58M179.45 160.58L267.78 161.75M267.78 161.75L356.11 162.36M356.11 162.36L444.44 162.41M444.44 162.41L532.78 161.92M532.78 161.92L621.11 160.87M621.11 160.87L709.43 159.26M709.43 159.26L797.74 157.1"
fill="none" stroke="RGB(2,158,33)" stroke-width="2"/>
<path d="M72.18 160.34L72.91 169.67M72.91 169.67L73.72 178.83M73.72 178.83L74.59 187.82M74.59 187.82L75.52 196.63M75.52 196.63L76.53 205.24M76.53 205.24L77.6 213.63M77.6 213.63L78.73 221.8M78.73 221.8L79.93 229.73M79.93 229.73L81.19 237.4M81.19 237.4L82.5 244.82M82.5 244.82L83.87 251.96M83.87 251.96L85.29 258.81M85.29 258.81L86.77 265.37M86.77 265.37L88.29 271.62M88.29 271.62L89.86 277.56M89.86 277.56L91.48 283.17M91.48 283.17L93.13 288.44M93.13 288.44L94.83 293.38M94.83 293.38L96.56 297.96M96.56 297.96L98.33 302.19M98.33 302.19L100.13 306.05M100.13 306.05L101.96 309.55M101.96 309.55L103.81 312.67M103.81 312.67L105.69 315.41M105.69 315.41L107.58 317.77M107.58 317.77L109.49 319.74M109.49 319.74L111.42 321.31M111.42 321.31L113.36 322.5M113.36 322.5L115.31 323.29M115.31 323.29L117.26 323.69M117.26 323.69L119.21 323.68M119.21 323.68L121.16 323.29M121.16 323.29L123.11 322.49M123.11 322.49L125.05 321.3M125.05 321.3L126.98 319.72M126.98 319.72L128.9 317.75M128.9 317.75L130.8 315.39M130.8 315.39L132.69 312.64M132.69 312.64L134.55 309.52M134.55 309.52L136.38 306.02M136.38 306.02L138.19 302.15M138.19 302.15L139.97 297.92M139.97 297.92L141.72 293.34M141.72 293.34L143.43 288.4M143.43 288.4L145.1 283.12M145.1 283.12L146.73 277.51M146.73 277.51L148.32 271.57M148.32 271.57L149.86 265.31M149.86 265.31L151.35 258.75M151.35 258.75L152.79 251.9M152.79 251.9L154.18 244.75M154.18 244.75L155.51 237.34M155.51 237.34L156.79 229.66M156.79 229.66L158 221.73M158 221.73L159.16 213.56M159.16 213.56L160.25 205.16M160.25 205.16L161.28 196.55M161.28 196.55L162.24 187.75M162.24 187.75L163.14 178.75M163.14 178.75L163.96 169.59M163.96 169.59L164.72 160.26"
fill="none" stroke="black" stroke-width="2"/>
<path d="M183.16 165.16L183.94 174.29M183.94 174.29L184.8 183.25M184.8 183.25L185.72 192.03M185.72 192.03L186.71 200.62M186.71 200.62L187.76 208.99M187.76 208.99L188.88 217.15M188.88 217.15L190.05 225.07M190.05 225.07L191.29 232.74M191.29 232.74L192.59 240.16M192.59 240.16L193.94 247.31M193.94 247.31L195.34 254.18M195.34 254.18L196.79 260.76M196.79 260.76L198.3 267.04M198.3 267.04L199.85 273M199.85 273L201.44 278.65M201.44 278.65L203.08 283.98M203.08 283.98L204.76 288.96M204.76 288.96L206.47 293.6M206.47 293.6L208.22 297.9M208.22 297.9L210 301.83M210 301.83L211.81 305.4M211.81 305.4L213.64 308.6M213.64 308.6L215.5 311.43M215.5 311.43L217.38 313.88M217.38 313.88L219.27 315.95M219.27 315.95L221.18 317.64M221.18 317.64L223.11 318.94M223.11 318.94L225.04 319.85M225.04 319.85L226.98 320.36M226.98 320.36L228.92 320.49M228.92 320.49L230.86 320.22M230.86 320.22L232.79 319.57M232.79 319.57L234.73 318.52M234.73 318.52L236.65 317.09M236.65 317.09L238.56 315.26M238.56 315.26L240.46 313.06M240.46 313.06L242.33 310.47M242.33 310.47L244.19 307.51M244.19 307.51L246.03 304.17M246.03 304.17L247.84 300.47M247.84 300.47L249.61 296.41M249.61 296.41L251.36 291.99M251.36 291.99L253.08 287.23M253.08 287.23L254.75 282.12M254.75 282.12L256.39 276.68M256.39 276.68L257.99 270.92M257.99 270.92L259.54 264.84M259.54 264.84L261.04 258.45M261.04 258.45L262.5 251.77M262.5 251.77L263.9 244.8M263.9 244.8L265.25 237.55M265.25 237.55L266.54 230.04M266.54 230.04L267.78 222.28M267.78 222.28L268.96 214.27M268.96 214.27L270.07 206.04M270.07 206.04L271.13 197.59M271.13 197.59L272.12 188.93M272.12 188.93L273.04 180.09M273.04 180.09L273.9 171.06M273.9 171.06L274.68 161.88"
fill="none" stroke="black" stroke-width="2"/>
<path d="M293.11 167.93L293.83 177.21M293.83 177.21L294.62 186.34M294.62 186.34L295.48 195.29M295.48 195.29L296.41 204.06M296.41 204.06L297.41 212.64M297.41 212.64L298.47 221M298.47 221L299.59 229.15M299.59 229.15L300.77 237.05M300.77 237.05L302.02 244.71M302.02 244.71L303.32 252.11M303.32 252.11L304.67 259.24M304.67 259.24L306.08 266.09M306.08 266.09L307.54 272.65M307.54 272.65L309.05 278.9M309.05 278.9L310.61 284.85M310.61 284.85L312.21 290.47M312.21 290.47L313.85 295.76M313.85 295.76L315.53 300.72M315.53 300.72L317.25 305.33M317.25 305.33L319.01 309.59M319.01 309.59L320.79 313.5M320.79 313.5L322.6 317.03M322.6 317.03L324.44 320.2M324.44 320.2L326.3 322.99M326.3 322.99L328.19 325.41M328.19 325.41L330.08 327.44M330.08 327.44L332 329.09M332 329.09L333.92 330.34M333.92 330.34L335.86 331.21M335.86 331.21L337.8 331.69M337.8 331.69L339.74 331.77M339.74 331.77L341.68 331.46M341.68 331.46L343.62 330.76M343.62 330.76L345.55 329.67M345.55 329.67L347.48 328.19M347.48 328.19L349.39 326.32M349.39 326.32L351.28 324.07M351.28 324.07L353.16 321.44M353.16 321.44L355.02 318.43M355.02 318.43L356.85 315.05M356.85 315.05L358.66 311.3M358.66 311.3L360.44 307.19M360.44 307.19L362.18 302.73M362.18 302.73L363.89 297.92M363.89 297.92L365.57 292.77M365.57 292.77L367.2 287.28M367.2 287.28L368.79 281.48M368.79 281.48L370.34 275.35M370.34 275.35L371.84 268.92M371.84 268.92L373.29 262.2M373.29 262.2L374.69 255.19M374.69 255.19L376.03 247.9M376.03 247.9L377.32 240.35M377.32 240.35L378.55 232.55M378.55 232.55L379.72 224.5M379.72 224.5L380.83 216.23M380.83 216.23L381.87 207.75M381.87 207.75L382.86 199.06M382.86 199.06L383.77 190.18M383.77 190.18L384.62 181.13M384.62 181.13L385.4 171.91M385.4 171.91L386.1 162.55"
fill="none" stroke="black" stroke-width="2"/>
<path d="M406.73 162.45L406.73 162.46"
fill="none" stroke="black" stroke-width="2"/>
<path d="M407.22 168.89L407.99 178M407.99 178L408.83 186.95M408.83 186.95L409.74 195.72M409.74 195.72L410.71 204.3M410.71 204.3L411.74 212.67M411.74 212.67L412.84 220.83M412.84 220.83L414 228.76M414 228.76L415.22 236.45M415.22 236.45L416.49 243.89M416.49 243.89L417.82 251.06M417.82 251.06L419.21 257.96M419.21 257.96L420.64 264.57M420.64 264.57L422.13 270.89M422.13 270.89L423.66 276.91M423.66 276.91L425.23 282.61M425.23 282.61L426.85 287.99M426.85 287.99L428.51 293.03M428.51 293.03L430.21 297.74M430.21 297.74L431.94 302.11M431.94 302.11L433.7 306.12M433.7 306.12L435.49 309.78M435.49 309.78L437.31 313.07M437.31 313.07L439.15 315.99M439.15 315.99L441.01 318.54M441.01 318.54L442.89 320.72M442.89 320.72L444.79 322.51M444.79 322.51L446.7 323.92M446.7 323.92L448.62 324.95M448.62 324.95L450.55 325.59M450.55 325.59L452.47 325.84M452.47 325.84L454.41 325.7M454.41 325.7L456.33 325.18M456.33 325.18L458.26 324.27M458.26 324.27L460.18 322.98M460.18 322.98L462.08 321.3M462.08 321.3L463.97 319.24M463.97 319.24L465.85 316.81M465.85 316.81L467.7 314M467.7 314L469.54 310.82M469.54 310.82L471.35 307.27M471.35 307.27L473.13 303.37M473.13 303.37L474.88 299.11M474.88 299.11L476.6 294.5M476.6 294.5L478.28 289.56M478.28 289.56L479.93 284.28M479.93 284.28L481.53 278.67M481.53 278.67L483.09 272.75M483.09 272.75L484.61 266.53M484.61 266.53L486.08 260M486.08 260L487.5 253.19M487.5 253.19L488.86 246.1M488.86 246.1L490.18 238.74M490.18 238.74L491.43 231.13M491.43 231.13L492.63 223.27M492.63 223.27L493.77 215.18M493.77 215.18L494.85 206.87M494.85 206.87L495.86 198.35M495.86 198.35L496.81 189.64M496.81 189.64L497.69 180.74M497.69 180.74L498.51 171.68M498.51 171.68L499.26 162.46"
fill="none" stroke="black" stroke-width="2"/>
<path d="M517.35 167.92L518.08 177.2M518.08 177.2L518.87 186.32M518.87 186.32L519.74 195.27M519.74 195.27L520.67 204.03M520.67 204.03L521.67 212.6M521.67 212.6L522.74 220.95M522.74 220.95L523.87 229.09M523.87 229.09L525.05 236.98M525.05 236.98L526.3 244.63M526.3 244.63L527.61 252.02M527.61 252.02L528.97 259.13M528.97 259.13L530.38 265.97M530.38 265.97L531.85 272.51M531.85 272.51L533.36 278.74M533.36 278.74L534.92 284.67M534.92 284.67L536.53 290.27M536.53 290.27L538.17 295.55M538.17 295.55L539.86 300.48M539.86 300.48L541.58 305.07M541.58 305.07L543.34 309.31M543.34 309.31L545.12 313.18M545.12 313.18L546.94 316.7M546.94 316.7L548.78 319.84M548.78 319.84L550.65 322.6M550.65 322.6L552.53 324.99M552.53 324.99L554.43 326.99M554.43 326.99L556.35 328.61M556.35 328.61L558.28 329.83M558.28 329.83L560.21 330.67M560.21 330.67L562.15 331.11M562.15 331.11L564.1 331.17M564.1 331.17L566.04 330.82M566.04 330.82L567.98 330.09M567.98 330.09L569.91 328.97M569.91 328.97L571.84 327.45M571.84 327.45L573.75 325.55M573.75 325.55L575.65 323.26M575.65 323.26L577.52 320.6M577.52 320.6L579.38 317.55M579.38 317.55L581.21 314.14M581.21 314.14L583.02 310.36M583.02 310.36L584.79 306.21M584.79 306.21L586.54 301.72M586.54 301.72L588.25 296.87M588.25 296.87L589.92 291.69M589.92 291.69L591.55 286.17M591.55 286.17L593.14 280.33M593.14 280.33L594.68 274.17M594.68 274.17L596.17 267.71M596.17 267.71L597.62 260.95M597.62 260.95L599.01 253.91M599.01 253.91L600.35 246.59M600.35 246.59L601.64 239.01M601.64 239.01L602.86 231.18M602.86 231.18L604.03 223.11M604.03 223.11L605.13 214.81M605.13 214.81L606.17 206.29M606.17 206.29L607.15 197.58M607.15 197.58L608.06 188.68M608.06 188.68L608.9 179.6M608.9 179.6L609.67 170.36M609.67 170.36L610.37 160.98"
fill="none" stroke="black" stroke-width="2"/>
<path d="M628.29 165.07L629.05 174.28M629.05 174.28L629.88 183.33M629.88 183.33L630.77 192.2M630.77 192.2L631.74 200.87M631.74 200.87L632.77 209.35M632.77 209.35L633.86 217.6M633.86 217.6L635.02 225.63M635.02 225.63L636.24 233.41M636.24 233.41L637.51 240.94M637.51 240.94L638.84 248.21M638.84 248.21L640.23 255.2M640.23 255.2L641.67 261.9M641.67 261.9L643.15 268.3M643.15 268.3L644.69 274.4M644.69 274.4L646.27 280.17M646.27 280.17L647.9 285.63M647.9 285.63L649.56 290.75M649.56 290.75L651.27 295.52M651.27 295.52L653 299.95M653 299.95L654.78 304.02M654.78 304.02L656.58 307.73M656.58 307.73L658.41 311.07M658.41 311.07L660.26 314.04M660.26 314.04L662.13 316.63M662.13 316.63L664.03 318.84M664.03 318.84L665.94 320.66M665.94 320.66L667.86 322.1M667.86 322.1L669.79 323.14M669.79 323.14L671.73 323.8M671.73 323.8L673.67 324.06M673.67 324.06L675.62 323.92M675.62 323.92L677.56 323.4M677.56 323.4L679.5 322.48M679.5 322.48L681.43 321.17M681.43 321.17L683.35 319.48M683.35 319.48L685.25 317.4M685.25 317.4L687.14 314.93M687.14 314.93L689.01 312.09M689.01 312.09L690.85 308.87M690.85 308.87L692.67 305.28M692.67 305.28L694.47 301.33M694.47 301.33L696.23 297.01M696.23 297.01L697.96 292.35M697.96 292.35L699.65 287.34M699.65 287.34L701.3 282M701.3 282L702.91 276.33M702.91 276.33L704.48 270.33M704.48 270.33L706 264.03M706 264.03L707.47 257.43M707.47 257.43L708.9 250.53M708.9 250.53L710.27 243.36M710.27 243.36L711.58 235.91M711.58 235.91L712.84 228.21M712.84 228.21L714.03 220.26M714.03 220.26L715.17 212.08M715.17 212.08L716.25 203.68M716.25 203.68L717.26 195.06M717.26 195.06L718.2 186.26M718.2 186.26L719.08 177.27M719.08 177.27L719.88 168.11M719.88 168.11L720.62 158.8"
fill="none" stroke="black" stroke-width="2"/>
</svg>
