<?xml version="1.0" encoding="UTF-8"?>
<svg xmlns="http://www.w3.org/2000/svg" width="800.000" height="600.000" viewBox="0.0 0.0 800.000 600.000" version="1.1">
  <title>Produce by Acme CAD Converter</title>
  <desc>Produce by Acme CAD Converter</desc>
<path d="M2.26 80.25L2.26 519.75"
fill="none" stroke="black" stroke-width="0"/>
<path d="M2.7 316.01L68.92 318.37M68.92 318.37L135.16 320.32M135.16 320.32L201.41 321.86M201.41 321.86L267.67 322.99M267.67 322.99L333.94 323.71M333.94 323.71L400.2 324.02M400.2 324.02L466.47 323.92M466.47 323.92L532.74 323.4M532.74 323.4L599 322.48M599 322.48L665.26 321.15M665.26 321.15L731.5 319.41M731.5 319.41L797.74 317.26"
fill="none" stroke="RGB(2,158,33)" stroke-width="2"/>
<path d="M2.26 300L68.49 302.36M68.49 302.36L134.73 304.31M134.73 304.31L200.98 305.85M200.98 305.85L267.24 306.98M267.24 306.98L333.5 307.7M333.5 307.7L399.77 308M399.77 308L466.04 307.9M466.04 307.9L532.31 307.39M532.31 307.39L598.57 306.47M598.57 306.47L664.82 305.14M664.82 305.14L731.07 303.4M731.07 303.4L797.3 301.25"
fill="none" stroke="RGB(2,158,33)" stroke-width="2"/>
<path d="M125.07 308L127.17 304.1M124.91 316.72L131.64 304.21M127.64 320.06L136.11 304.32M132.11 320.17L140.58 304.43M136.58 320.28L145.06 304.54M141.05 320.39L149.53 304.65M145.52 320.5L154 304.76M149.99 320.6L158.47 304.87M154.47 320.71L162.94 304.97M158.94 320.82L167.41 305.08M163.41 320.93L171.89 305.19M167.88 321.04L176.36 305.3M172.35 321.15L180.83 305.41M176.82 321.26L185.3 305.52M181.3 321.37L189.79 305.61M185.77 321.47L194.27 305.69M190.25 321.56L198.76 305.77M194.74 321.64L203.24 305.86M199.22 321.73L207.73 305.94M203.71 321.81L212.21 306.03M208.2 321.89L216.7 306.11M212.68 321.98L221.18 306.19M217.17 322.06L225.67 306.28M221.65 322.15L230.15 306.36M226.14 322.23L234.64 306.45M230.62 322.31L239.12 306.53M235.11 322.4L243.61 306.61M239.59 322.48L248.1 306.69M244.08 322.57L252.6 306.75M248.57 322.64L257.1 306.8M253.07 322.7L261.6 306.86M257.57 322.76L266.09 306.92M262.07 322.81L270.59 306.98M266.56 322.87L275.09 307.04M271.06 322.93L279.59 307.1M275.56 322.99L284.09 307.16M280.06 323.05L288.59 307.22M284.56 323.11L293.09 307.27M289.06 323.17L297.59 307.33M293.56 323.23L302.08 307.39M298.05 323.29L306.58 307.45M302.55 323.34L311.09 307.49M307.05 323.4L315.61 307.52M311.57 323.44L320.12 307.55M316.08 323.47L324.63 307.59M320.59 323.5L329.14 307.62M325.1 323.54L333.66 307.65M329.61 323.57L338.17 307.68M334.13 323.6L342.68 307.72M338.64 323.64L347.19 307.75M343.15 323.67L351.71 307.78M347.66 323.7L356.22 307.82M352.18 323.74L360.73 307.85M356.69 323.77L365.24 307.88M361.2 323.81L369.76 307.91M365.71 323.84L374.29 307.91M370.23 323.86L378.82 307.92M374.76 323.87L383.34 307.93M379.29 323.87L387.87 307.94M383.81 323.88L392.4 307.94M388.34 323.89L396.92 307.95M392.86 323.9L401.45 307.96M397.39 323.91L405.97 307.97M401.92 323.92L410.5 307.97M406.44 323.92L415.03 307.98M410.97 323.93L419.55 307.99M415.49 323.94L424.08 308M420.02 323.95L428.61 308M424.55 323.96L433.15 307.99M429.07 323.96L437.69 307.97M433.61 323.94L442.23 307.95M438.15 323.93L446.77 307.93M442.69 323.91L451.31 307.91M447.23 323.89L455.85 307.9M451.77 323.87L460.39 307.88M456.31 323.86L464.93 307.86M460.85 323.84L469.47 307.84M465.39 323.82L474.01 307.82M469.93 323.8L478.55 307.8M474.47 323.79L483.09 307.79M479.01 323.77L487.63 307.77M483.55 323.75L492.18 307.73M488.09 323.73L496.73 307.69M492.64 323.7L501.29 307.64M497.2 323.65L505.84 307.6M501.75 323.61L510.39 307.56M506.3 323.57L514.95 307.51M510.86 323.52L519.5 307.47M515.41 323.48L524.06 307.42M519.96 323.44L528.61 307.38M524.52 323.4L533.17 307.34M529.07 323.35L537.72 307.29M533.62 323.31L542.27 307.25M538.18 323.27L546.83 307.2M542.73 323.22L551.39 307.15M547.28 323.18L555.96 307.08M551.85 323.12L560.52 307.01M556.41 323.05L565.09 306.94M560.98 322.99L569.66 306.87M565.55 322.92L574.23 306.8M570.12 322.85L578.8 306.73M574.68 322.78L583.36 306.66M579.25 322.71L587.93 306.59M583.82 322.64L592.5 306.52M588.39 322.57L597.07 306.45M592.95 322.5L601.64 306.38M597.52 322.44L606.2 306.31M602.09 322.37L610.77 306.24M606.66 322.3L615.36 306.14M611.23 322.22L619.94 306.05M615.81 322.13L624.52 305.95M620.39 322.03L629.1 305.85M624.97 321.94L633.69 305.76M629.55 321.84L638.27 305.66M634.13 321.75L642.85 305.56M638.72 321.65L647.43 305.47M643.3 321.56L652.01 305.37M647.88 321.46L656.6 305.28M652.46 321.37L661.18 305.18M657.04 321.27L665.76 305.08M661.62 321.18L670.34 304.99M666.2 321.08L670.89 312.38M670.79 320.99L670.83 320.91M131.95 320.16L124.91 316.38M140.76 320.38L125 311.89M149.57 320.59L125.08 307.41M158.38 320.81L127.36 304.11M167.19 321.02L136.17 304.32M176 321.24L144.98 304.54M184.82 321.45L153.8 304.75M193.54 321.62L162.61 304.97M202.26 321.78L171.42 305.18M210.97 321.95L180.23 305.4M219.69 322.11L189.01 305.59M228.41 322.27L197.73 305.75M237.12 322.44L206.44 305.92M245.84 322.6L215.16 306.08M254.46 322.71L223.87 306.24M263.09 322.83L232.59 306.41M271.71 322.94L241.31 306.57M280.33 323.05L249.98 306.71M288.96 323.17L258.6 306.82M297.58 323.28L267.23 306.94M306.2 323.39L275.85 307.05M314.74 323.46L284.47 307.16M323.27 323.52L293.09 307.27M331.8 323.59L301.71 307.39M340.33 323.65L310.3 307.48M348.86 323.71L318.83 307.54M357.4 323.78L327.36 307.61M365.93 323.84L335.89 307.67M374.39 323.87L344.42 307.73M382.83 323.88L352.95 307.79M391.27 323.9L361.48 307.86M399.71 323.91L369.98 307.91M408.15 323.93L378.42 307.92M416.59 323.94L386.86 307.93M425.04 323.96L395.3 307.95M433.42 323.94L403.74 307.96M441.78 323.91L412.18 307.98M450.13 323.88L420.62 307.99M458.48 323.85L429.05 308M466.84 323.82L437.41 307.97M475.19 323.78L445.76 307.94M483.55 323.75L454.11 307.9M491.87 323.7L462.46 307.87M500.14 323.63L470.81 307.84M508.41 323.55L479.16 307.8M516.67 323.47L487.51 307.77M524.94 323.39L495.79 307.7M533.21 323.31L504.06 307.62M541.48 323.23L512.32 307.54M549.74 323.16L520.59 307.46M557.93 323.03L528.85 307.38M566.11 322.91L537.12 307.3M574.29 322.79L545.38 307.22M582.48 322.66L553.61 307.12M590.66 322.54L561.79 306.99M598.85 322.42L569.97 306.87M607.03 322.29L578.15 306.74M615.16 322.14L586.33 306.62M623.27 321.97L594.51 306.49M631.37 321.81L602.69 306.36M639.47 321.64L610.86 306.24M647.57 321.47L618.96 306.07M655.67 321.3L627.06 305.9M663.77 321.13L635.15 305.73M670.83 320.41L643.25 305.56M670.87 315.89L651.35 305.39M670.9 311.38L659.45 305.22M670.93 306.87L667.54 305.05"
fill="none" stroke="RGB(106,106,106)" stroke-width="2"/>
<path d="M124.85 319.99L125.14 304.05M125.14 304.05L125.14 304.05M125.14 304.05L185.78 305.53M185.78 305.53L246.42 306.67M246.42 306.67L307.06 307.46M307.06 307.46L367.71 307.9M367.71 307.9L428.37 308M428.37 308L489.02 307.76M489.02 307.76L549.66 307.18M549.66 307.18L610.31 306.25M610.31 306.25L670.95 304.97M670.95 304.97L670.83 320.99M670.83 320.99L670.83 320.99M670.83 320.99L610.17 322.24M610.17 322.24L549.51 323.16M549.51 323.16L488.84 323.73M488.84 323.73L428.17 323.96M428.17 323.96L367.5 323.85M367.5 323.85L306.83 323.4M306.83 323.4L246.16 322.61M246.16 322.61L185.5 321.47M185.5 321.47L124.85 319.99"
fill="none" stroke="black" stroke-width="2"/>
</svg>
