<?xml version="1.0" encoding="UTF-8"?>
<svg xmlns="http://www.w3.org/2000/svg" width="800.000" height="600.000" viewBox="0.0 0.0 800.000 600.000" version="1.1">
  <title>Produce by Acme CAD Converter</title>
  <desc>Produce by Acme CAD Converter</desc>
<path d="M2.26 80.73L2.26 519.27"
fill="none" stroke="RGB(237,31,36)" stroke-width="0"/>
<path d="M2.82 315.98L45.06 313.43M45.06 313.43L87.27 310.51M87.27 310.51L129.45 307.2M129.45 307.2L171.6 303.52M171.6 303.52L213.72 299.45M213.72 299.45L255.8 295M255.8 295L297.83 290.17M297.83 290.17L339.82 284.96M339.82 284.96L381.76 279.37M381.76 279.37L423.65 273.4M423.65 273.4L465.49 267.06M465.49 267.06L507.26 260.33M507.26 260.33L548.97 253.23M548.97 253.23L590.62 245.75M590.62 245.75L632.19 237.9M632.19 237.9L673.7 229.67M673.7 229.67L715.12 221.06M715.12 221.06L756.47 212.08M756.47 212.08L797.74 202.73"
fill="none" stroke="RGB(2,158,33)" stroke-width="2"/>
<path d="M2.82 202.73L44.12 211.95M44.12 211.95L85.49 220.81M85.49 220.81L126.93 229.31M126.93 229.31L168.45 237.45M168.45 237.45L210.03 245.23M210.03 245.23L251.69 252.65M251.69 252.65L293.4 259.7M293.4 259.7L335.18 266.4M335.18 266.4L377.01 272.73M377.01 272.73L418.89 278.69M418.89 278.69L460.83 284.3M460.83 284.3L502.81 289.54M502.81 289.54L544.84 294.41M544.84 294.41L586.9 298.92M586.9 298.92L629.01 303.06M629.01 303.06L671.15 306.84M671.15 306.84L713.32 310.25M713.32 310.25L755.51 313.3M755.51 313.3L797.74 315.98"
fill="none" stroke="RGB(2,158,33)" stroke-width="2"/>
<path d="M400.22 276.43L400.41 275.48M400.41 275.48L400.95 274.67M400.95 274.67L401.76 274.13M401.76 274.13L402.71 273.94M402.71 273.94L403.67 274.13M403.67 274.13L404.48 274.67M404.48 274.67L405.02 275.48M405.02 275.48L405.21 276.43M405.21 276.43L405.02 277.39M405.02 277.39L404.48 278.2M404.48 278.2L403.67 278.74M403.67 278.74L402.71 278.93M402.71 278.93L401.76 278.74M401.76 278.74L400.95 278.2M400.95 278.2L400.41 277.39M400.41 277.39L400.22 276.43"
fill="none" stroke="black" stroke-width="2"/>
</svg>
