<?xml version="1.0" encoding="UTF-8"?>
<svg xmlns="http://www.w3.org/2000/svg" width="800.000" height="600.000" viewBox="0.0 0.0 800.000 600.000" version="1.1">
  <title>Produce by Acme CAD Converter</title>
  <desc>Produce by Acme CAD Converter</desc>
<path d="M3.1 80.51L3.1 519.49"
fill="none" stroke="RGB(237,31,36)" stroke-width="0"/>
<path d="M2.26 251.86L51.93 254.57M51.93 254.57L101.62 256.91M101.62 256.91L151.33 258.86M151.33 258.86L201.05 260.43M201.05 260.43L250.78 261.61M250.78 261.61L300.52 262.41M300.52 262.41L350.26 262.83M350.26 262.83L400 262.86M400 262.86L449.75 262.5M449.75 262.5L499.49 261.77M499.49 261.77L549.22 260.65M549.22 260.65L598.94 259.14M598.94 259.14L648.65 257.25M648.65 257.25L698.34 254.98M698.34 254.98L748.01 252.33M748.01 252.33L797.66 249.29"
fill="none" stroke="RGB(2,158,33)" stroke-width="2"/>
<path d="M2.92 247.93L82.39 250.01M82.39 250.01L161.87 251.59M161.87 251.59L241.36 252.67M241.36 252.67L320.85 253.26M320.85 253.26L400.34 253.35M400.34 253.35L479.83 252.95M479.83 252.95L559.32 252.05M559.32 252.05L638.81 250.66M638.81 250.66L718.28 248.77M718.28 248.77L797.74 246.39"
fill="none" stroke="RGB(2,158,33)" stroke-width="2"/>
<path d="M3.53 315.99L69.68 318.35M69.68 318.35L135.84 320.3M135.84 320.3L202.01 321.83M202.01 321.83L268.19 322.96M268.19 322.96L334.38 323.68M334.38 323.68L400.56 323.99M400.56 323.99L466.75 323.89M466.75 323.89L532.94 323.38M532.94 323.38L599.13 322.46M599.13 322.46L665.3 321.13M665.3 321.13L731.47 319.39M731.47 319.39L797.62 317.24"
fill="none" stroke="RGB(2,158,33)" stroke-width="2"/>
<path d="M171.74 321.18L140.36 258.46"
fill="none" stroke="black" stroke-width="2"/>
<path d="M180.44 321.38L199.41 252.16"
fill="none" stroke="black" stroke-width="2"/>
<path d="M261.87 322.87L231.01 261.19"
fill="none" stroke="black" stroke-width="2"/>
<path d="M271.15 323L290.32 253.09"
fill="none" stroke="black" stroke-width="2"/>
<path d="M353.8 323.81L323.2 262.65"
fill="none" stroke="black" stroke-width="2"/>
<path d="M362.38 323.86L381.7 253.37"
fill="none" stroke="black" stroke-width="2"/>
<path d="M444.85 323.97L414.25 262.8"
fill="none" stroke="black" stroke-width="2"/>
<path d="M454.08 323.94L473.52 253"
fill="none" stroke="black" stroke-width="2"/>
<path d="M536 323.34L505.14 261.66"
fill="none" stroke="black" stroke-width="2"/>
<path d="M545.73 323.23L565.26 251.97"
fill="none" stroke="black" stroke-width="2"/>
<path d="M627.73 321.93L596.35 259.23"
fill="none" stroke="black" stroke-width="2"/>
<path d="M637.07 321.74L656.66 250.28"
fill="none" stroke="black" stroke-width="2"/>
</svg>
