<?xml version="1.0" encoding="UTF-8"?>
<svg xmlns="http://www.w3.org/2000/svg" width="800.000" height="600.000" viewBox="0.0 0.0 800.000 600.000" version="1.1">
  <title>Produce by Acme CAD Converter</title>
  <desc>Produce by Acme CAD Converter</desc>
<path d="M2.26 80.73L2.26 519.27"
fill="none" stroke="RGB(237,31,36)" stroke-width="0"/>
<path d="M2.82 156.6L91.13 158.87M91.13 158.87L179.45 160.58M179.45 160.58L267.78 161.75M267.78 161.75L356.11 162.36M356.11 162.36L444.44 162.41M444.44 162.41L532.78 161.92M532.78 161.92L621.11 160.87M621.11 160.87L709.43 159.26M709.43 159.26L797.74 157.1"
fill="none" stroke="RGB(2,158,33)" stroke-width="2"/>
<path d="M158.92 309.74L158.47 307.65M158.47 307.65L157.64 305.64M157.64 305.64L156.43 303.76M156.43 303.76L154.87 302.03M154.87 302.03L152.99 300.5M152.99 300.5L150.83 299.18M150.83 299.18L148.42 298.11M148.42 298.11L145.8 297.3M145.8 297.3L143.04 296.76M143.04 296.76L140.18 296.52M140.18 296.52L137.27 296.57M137.27 296.57L134.36 296.91M134.36 296.91L131.52 297.54M131.52 297.54L128.79 298.44M128.79 298.44L126.22 299.6M126.22 299.6L123.87 300.99M123.87 300.99L121.78 302.6M121.78 302.6L119.97 304.38M119.97 304.38L118.5 306.31M118.5 306.31L117.39 308.35M117.39 308.35L116.65 310.46M116.65 310.46L116.3 312.61M116.3 312.61L116.35 314.75M116.35 314.75L116.8 316.84M116.8 316.84L117.64 318.85M117.64 318.85L118.84 320.73M118.84 320.73L120.4 322.46M120.4 322.46L122.28 323.99M122.28 323.99L124.45 325.31M124.45 325.31L126.86 326.38M126.86 326.38L129.47 327.19M129.47 327.19L132.23 327.72M132.23 327.72L135.1 327.97M135.1 327.97L138.01 327.92M138.01 327.92L140.91 327.58M140.91 327.58L143.76 326.95M143.76 326.95L146.48 326.05M146.48 326.05L149.05 324.89M149.05 324.89L151.4 323.5M151.4 323.5L153.5 321.89M153.5 321.89L155.3 320.11M155.3 320.11L156.77 318.18M156.77 318.18L157.88 316.14M157.88 316.14L158.62 314.03M158.62 314.03L158.97 311.88M158.97 311.88L158.92 309.74"
fill="none" stroke="black" stroke-width="2"/>
<path d="M116.54 315.84L116.28 317.93M116.28 317.93L116.4 320.01M116.4 320.01L116.9 322.03M116.9 322.03L117.76 323.97M117.76 323.97L118.97 325.79M118.97 325.79L120.51 327.46M120.51 327.46L122.35 328.94M122.35 328.94L124.47 330.22M124.47 330.22L126.81 331.26M126.81 331.26L129.35 332.06M129.35 332.06L132.03 332.59M132.03 332.59L134.81 332.85M134.81 332.85L137.64 332.84M137.64 332.84L140.47 332.55M140.47 332.55L143.25 331.98M143.25 331.98L145.93 331.16M145.93 331.16L148.46 330.08M148.46 330.08L150.81 328.78M150.81 328.78L152.92 327.28M152.92 327.28L154.76 325.59M154.76 325.59L156.3 323.76M156.3 323.76L157.51 321.81M157.51 321.81L158.37 319.77M158.37 319.77L158.87 317.7M158.87 317.7L158.99 315.61M158.99 315.61L158.73 313.54"
fill="none" stroke="black" stroke-width="2"/>
<path d="M136.87 312.24L137.05 311.75M137.05 311.75L137.5 311.49M137.5 311.49L138.02 311.58M138.02 311.58L138.36 311.98M138.36 311.98L138.36 312.51M138.36 312.51L138.02 312.91M138.02 312.91L137.5 313M137.5 313L137.05 312.74M137.05 312.74L136.87 312.24"
fill="none" stroke="black" stroke-width="2"/>
<path d="M137.64 312.24L137.64 159.84"
fill="none" stroke="black" stroke-width="2"/>
<path d="M258.21 309.74L257.76 307.65M257.76 307.65L256.93 305.64M256.93 305.64L255.72 303.76M255.72 303.76L254.16 302.03M254.16 302.03L252.28 300.5M252.28 300.5L250.12 299.18M250.12 299.18L247.71 298.11M247.71 298.11L245.1 297.3M245.1 297.3L242.33 296.76M242.33 296.76L239.47 296.52M239.47 296.52L236.56 296.57M236.56 296.57L233.65 296.91M233.65 296.91L230.81 297.54M230.81 297.54L228.08 298.44M228.08 298.44L225.51 299.6M225.51 299.6L223.16 300.99M223.16 300.99L221.07 302.6M221.07 302.6L219.27 304.38M219.27 304.38L217.8 306.31M217.8 306.31L216.68 308.35M216.68 308.35L215.94 310.46M215.94 310.46L215.6 312.61M215.6 312.61L215.65 314.75M215.65 314.75L216.09 316.84M216.09 316.84L216.93 318.85M216.93 318.85L218.14 320.73M218.14 320.73L219.69 322.46M219.69 322.46L221.57 323.99M221.57 323.99L223.74 325.31M223.74 325.31L226.15 326.38M226.15 326.38L228.76 327.19M228.76 327.19L231.52 327.72M231.52 327.72L234.39 327.97M234.39 327.97L237.3 327.92M237.3 327.92L240.2 327.58M240.2 327.58L243.05 326.95M243.05 326.95L245.78 326.05M245.78 326.05L248.34 324.89M248.34 324.89L250.69 323.5M250.69 323.5L252.79 321.89M252.79 321.89L254.59 320.11M254.59 320.11L256.06 318.18M256.06 318.18L257.18 316.14M257.18 316.14L257.91 314.03M257.91 314.03L258.26 311.88M258.26 311.88L258.21 309.74"
fill="none" stroke="black" stroke-width="2"/>
<path d="M215.83 315.84L215.57 317.93M215.57 317.93L215.69 320.01M215.69 320.01L216.19 322.03M216.19 322.03L217.05 323.97M217.05 323.97L218.26 325.79M218.26 325.79L219.8 327.46M219.8 327.46L221.65 328.94M221.65 328.94L223.76 330.22M223.76 330.22L226.1 331.26M226.1 331.26L228.64 332.06M228.64 332.06L231.32 332.59M231.32 332.59L234.1 332.85M234.1 332.85L236.93 332.84M236.93 332.84L239.76 332.55M239.76 332.55L242.54 331.98M242.54 331.98L245.22 331.16M245.22 331.16L247.75 330.08M247.75 330.08L250.1 328.78M250.1 328.78L252.21 327.28M252.21 327.28L254.05 325.59M254.05 325.59L255.59 323.76M255.59 323.76L256.8 321.81M256.8 321.81L257.67 319.77M257.67 319.77L258.16 317.7M258.16 317.7L258.28 315.61M258.28 315.61L258.03 313.54"
fill="none" stroke="black" stroke-width="2"/>
<path d="M236.16 312.24L236.34 311.75M236.34 311.75L236.79 311.49M236.79 311.49L237.31 311.58M237.31 311.58L237.65 311.98M237.65 311.98L237.65 312.51M237.65 312.51L237.31 312.91M237.31 312.91L236.79 313M236.79 313L236.34 312.74M236.34 312.74L236.16 312.24"
fill="none" stroke="black" stroke-width="2"/>
<path d="M236.93 312.24L236.93 161.4"
fill="none" stroke="black" stroke-width="2"/>
<path d="M357.5 309.74L357.05 307.65M357.05 307.65L356.22 305.64M356.22 305.64L355.01 303.76M355.01 303.76L353.45 302.03M353.45 302.03L351.57 300.5M351.57 300.5L349.41 299.18M349.41 299.18L347 298.11M347 298.11L344.39 297.3M344.39 297.3L341.62 296.76M341.62 296.76L338.76 296.52M338.76 296.52L335.85 296.57M335.85 296.57L332.94 296.91M332.94 296.91L330.1 297.54M330.1 297.54L327.37 298.44M327.37 298.44L324.81 299.6M324.81 299.6L322.45 300.99M322.45 300.99L320.36 302.6M320.36 302.6L318.56 304.38M318.56 304.38L317.09 306.31M317.09 306.31L315.97 308.35M315.97 308.35L315.23 310.46M315.23 310.46L314.89 312.61M314.89 312.61L314.94 314.75M314.94 314.75L315.38 316.84M315.38 316.84L316.22 318.85M316.22 318.85L317.43 320.73M317.43 320.73L318.99 322.46M318.99 322.46L320.86 323.99M320.86 323.99L323.03 325.31M323.03 325.31L325.44 326.38M325.44 326.38L328.05 327.19M328.05 327.19L330.81 327.72M330.81 327.72L333.68 327.97M333.68 327.97L336.59 327.92M336.59 327.92L339.49 327.58M339.49 327.58L342.34 326.95M342.34 326.95L345.07 326.05M345.07 326.05L347.63 324.89M347.63 324.89L349.99 323.5M349.99 323.5L352.08 321.89M352.08 321.89L353.88 320.11M353.88 320.11L355.35 318.18M355.35 318.18L356.47 316.14M356.47 316.14L357.21 314.03M357.21 314.03L357.55 311.88M357.55 311.88L357.5 309.74"
fill="none" stroke="black" stroke-width="2"/>
<path d="M315.12 315.84L314.87 317.93M314.87 317.93L314.99 320.01M314.99 320.01L315.48 322.03M315.48 322.03L316.34 323.97M316.34 323.97L317.55 325.79M317.55 325.79L319.09 327.46M319.09 327.46L320.94 328.94M320.94 328.94L323.05 330.22M323.05 330.22L325.39 331.26M325.39 331.26L327.93 332.06M327.93 332.06L330.61 332.59M330.61 332.59L333.39 332.85M333.39 332.85L336.22 332.84M336.22 332.84L339.05 332.55M339.05 332.55L341.83 331.98M341.83 331.98L344.51 331.16M344.51 331.16L347.05 330.08M347.05 330.08L349.39 328.78M349.39 328.78L351.5 327.28M351.5 327.28L353.34 325.59M353.34 325.59L354.88 323.76M354.88 323.76L356.1 321.81M356.1 321.81L356.96 319.77M356.96 319.77L357.45 317.7M357.45 317.7L357.57 315.61M357.57 315.61L357.32 313.54"
fill="none" stroke="black" stroke-width="2"/>
<path d="M335.45 312.24L335.63 311.75M335.63 311.75L336.09 311.49M336.09 311.49L336.6 311.58M336.6 311.58L336.94 311.98M336.94 311.98L336.94 312.51M336.94 312.51L336.6 312.91M336.6 312.91L336.09 313M336.09 313L335.63 312.74M335.63 312.74L335.45 312.24"
fill="none" stroke="black" stroke-width="2"/>
<path d="M336.22 312.24L336.22 162.27"
fill="none" stroke="black" stroke-width="2"/>
<path d="M462.23 309.74L461.79 307.65M461.79 307.65L460.95 305.64M460.95 305.64L459.74 303.76M459.74 303.76L458.19 302.03M458.19 302.03L456.31 300.5M456.31 300.5L454.14 299.18M454.14 299.18L451.73 298.11M451.73 298.11L449.12 297.3M449.12 297.3L446.36 296.76M446.36 296.76L443.49 296.52M443.49 296.52L440.58 296.57M440.58 296.57L437.68 296.91M437.68 296.91L434.83 297.54M434.83 297.54L432.1 298.44M432.1 298.44L429.54 299.6M429.54 299.6L427.19 300.99M427.19 300.99L425.09 302.6M425.09 302.6L423.29 304.38M423.29 304.38L421.82 306.31M421.82 306.31L420.71 308.35M420.71 308.35L419.97 310.46M419.97 310.46L419.62 312.61M419.62 312.61L419.67 314.75M419.67 314.75L420.12 316.84M420.12 316.84L420.95 318.85M420.95 318.85L422.16 320.73M422.16 320.73L423.72 322.46M423.72 322.46L425.6 323.99M425.6 323.99L427.76 325.31M427.76 325.31L430.17 326.38M430.17 326.38L432.78 327.19M432.78 327.19L435.55 327.72M435.55 327.72L438.41 327.97M438.41 327.97L441.32 327.92M441.32 327.92L444.23 327.58M444.23 327.58L447.07 326.95M447.07 326.95L449.8 326.05M449.8 326.05L452.37 324.89M452.37 324.89L454.72 323.5M454.72 323.5L456.81 321.89M456.81 321.89L458.61 320.11M458.61 320.11L460.09 318.18M460.09 318.18L461.2 316.14M461.2 316.14L461.94 314.03M461.94 314.03L462.29 311.88M462.29 311.88L462.23 309.74"
fill="none" stroke="black" stroke-width="2"/>
<path d="M419.85 315.84L419.6 317.93M419.6 317.93L419.72 320.01M419.72 320.01L420.22 322.03M420.22 322.03L421.08 323.97M421.08 323.97L422.29 325.79M422.29 325.79L423.83 327.46M423.83 327.46L425.67 328.94M425.67 328.94L427.78 330.22M427.78 330.22L430.13 331.26M430.13 331.26L432.66 332.06M432.66 332.06L435.34 332.59M435.34 332.59L438.12 332.85M438.12 332.85L440.95 332.84M440.95 332.84L443.78 332.55M443.78 332.55L446.56 331.98M446.56 331.98L449.24 331.16M449.24 331.16L451.78 330.08M451.78 330.08L454.12 328.78M454.12 328.78L456.24 327.28M456.24 327.28L458.08 325.59M458.08 325.59L459.62 323.76M459.62 323.76L460.83 321.81M460.83 321.81L461.69 319.77M461.69 319.77L462.19 317.7M462.19 317.7L462.31 315.61M462.31 315.61L462.05 313.54"
fill="none" stroke="black" stroke-width="2"/>
<path d="M440.18 312.24L440.36 311.75M440.36 311.75L440.82 311.49M440.82 311.49L441.34 311.58M441.34 311.58L441.68 311.98M441.68 311.98L441.68 312.51M441.68 312.51L441.34 312.91M441.34 312.91L440.82 313M440.82 313L440.36 312.74M440.36 312.74L440.18 312.24"
fill="none" stroke="black" stroke-width="2"/>
<path d="M440.95 312.24L440.95 162.42"
fill="none" stroke="black" stroke-width="2"/>
<path d="M572.41 309.74L571.96 307.65M571.96 307.65L571.13 305.64M571.13 305.64L569.92 303.76M569.92 303.76L568.36 302.03M568.36 302.03L566.48 300.5M566.48 300.5L564.32 299.18M564.32 299.18L561.91 298.11M561.91 298.11L559.3 297.3M559.3 297.3L556.53 296.76M556.53 296.76L553.67 296.52M553.67 296.52L550.76 296.57M550.76 296.57L547.85 296.91M547.85 296.91L545.01 297.54M545.01 297.54L542.28 298.44M542.28 298.44L539.72 299.6M539.72 299.6L537.36 300.99M537.36 300.99L535.27 302.6M535.27 302.6L533.47 304.38M533.47 304.38L532 306.31M532 306.31L530.88 308.35M530.88 308.35L530.14 310.46M530.14 310.46L529.8 312.61M529.8 312.61L529.85 314.75M529.85 314.75L530.29 316.84M530.29 316.84L531.13 318.85M531.13 318.85L532.34 320.73M532.34 320.73L533.89 322.46M533.89 322.46L535.77 323.99M535.77 323.99L537.94 325.31M537.94 325.31L540.35 326.38M540.35 326.38L542.96 327.19M542.96 327.19L545.72 327.72M545.72 327.72L548.59 327.97M548.59 327.97L551.5 327.92M551.5 327.92L554.4 327.58M554.4 327.58L557.25 326.95M557.25 326.95L559.98 326.05M559.98 326.05L562.54 324.89M562.54 324.89L564.89 323.5M564.89 323.5L566.99 321.89M566.99 321.89L568.79 320.11M568.79 320.11L570.26 318.18M570.26 318.18L571.38 316.14M571.38 316.14L572.11 314.03M572.11 314.03L572.46 311.88M572.46 311.88L572.41 309.74"
fill="none" stroke="black" stroke-width="2"/>
<path d="M530.03 315.84L529.77 317.93M529.77 317.93L529.9 320.01M529.9 320.01L530.39 322.03M530.39 322.03L531.25 323.97M531.25 323.97L532.46 325.79M532.46 325.79L534 327.46M534 327.46L535.85 328.94M535.85 328.94L537.96 330.22M537.96 330.22L540.3 331.26M540.3 331.26L542.84 332.06M542.84 332.06L545.52 332.59M545.52 332.59L548.3 332.85M548.3 332.85L551.13 332.84M551.13 332.84L553.96 332.55M553.96 332.55L556.74 331.98M556.74 331.98L559.42 331.16M559.42 331.16L561.96 330.08M561.96 330.08L564.3 328.78M564.3 328.78L566.41 327.28M566.41 327.28L568.25 325.59M568.25 325.59L569.79 323.76M569.79 323.76L571.01 321.81M571.01 321.81L571.87 319.77M571.87 319.77L572.36 317.7M572.36 317.7L572.48 315.61M572.48 315.61L572.23 313.54"
fill="none" stroke="black" stroke-width="2"/>
<path d="M550.36 312.24L550.54 311.75M550.54 311.75L551 311.49M551 311.49L551.51 311.58M551.51 311.58L551.85 311.98M551.85 311.98L551.85 312.51M551.85 312.51L551.51 312.91M551.51 312.91L551 313M551 313L550.54 312.74M550.54 312.74L550.36 312.24"
fill="none" stroke="black" stroke-width="2"/>
<path d="M551.13 312.24L551.13 161.74"
fill="none" stroke="black" stroke-width="2"/>
<path d="M675.78 309.74L675.33 307.65M675.33 307.65L674.5 305.64M674.5 305.64L673.29 303.76M673.29 303.76L671.73 302.03M671.73 302.03L669.85 300.5M669.85 300.5L667.69 299.18M667.69 299.18L665.28 298.11M665.28 298.11L662.67 297.3M662.67 297.3L659.9 296.76M659.9 296.76L657.04 296.52M657.04 296.52L654.13 296.57M654.13 296.57L651.22 296.91M651.22 296.91L648.38 297.54M648.38 297.54L645.65 298.44M645.65 298.44L643.08 299.6M643.08 299.6L640.73 300.99M640.73 300.99L638.64 302.6M638.64 302.6L636.84 304.38M636.84 304.38L635.37 306.31M635.37 306.31L634.25 308.35M634.25 308.35L633.51 310.46M633.51 310.46L633.17 312.61M633.17 312.61L633.22 314.75M633.22 314.75L633.66 316.84M633.66 316.84L634.5 318.85M634.5 318.85L635.71 320.73M635.71 320.73L637.26 322.46M637.26 322.46L639.14 323.99M639.14 323.99L641.31 325.31M641.31 325.31L643.72 326.38M643.72 326.38L646.33 327.19M646.33 327.19L649.09 327.72M649.09 327.72L651.96 327.97M651.96 327.97L654.87 327.92M654.87 327.92L657.77 327.58M657.77 327.58L660.62 326.95M660.62 326.95L663.35 326.05M663.35 326.05L665.91 324.89M665.91 324.89L668.26 323.5M668.26 323.5L670.36 321.89M670.36 321.89L672.16 320.11M672.16 320.11L673.63 318.18M673.63 318.18L674.75 316.14M674.75 316.14L675.48 314.03M675.48 314.03L675.83 311.88M675.83 311.88L675.78 309.74"
fill="none" stroke="black" stroke-width="2"/>
<path d="M633.4 315.84L633.14 317.93M633.14 317.93L633.27 320.01M633.27 320.01L633.76 322.03M633.76 322.03L634.62 323.97M634.62 323.97L635.83 325.79M635.83 325.79L637.37 327.46M637.37 327.46L639.22 328.94M639.22 328.94L641.33 330.22M641.33 330.22L643.67 331.26M643.67 331.26L646.21 332.06M646.21 332.06L648.89 332.59M648.89 332.59L651.67 332.85M651.67 332.85L654.5 332.84M654.5 332.84L657.33 332.55M657.33 332.55L660.11 331.98M660.11 331.98L662.79 331.16M662.79 331.16L665.32 330.08M665.32 330.08L667.67 328.78M667.67 328.78L669.78 327.28M669.78 327.28L671.62 325.59M671.62 325.59L673.16 323.76M673.16 323.76L674.37 321.81M674.37 321.81L675.24 319.77M675.24 319.77L675.73 317.7M675.73 317.7L675.85 315.61M675.85 315.61L675.6 313.54"
fill="none" stroke="black" stroke-width="2"/>
<path d="M653.73 312.24L653.91 311.75M653.91 311.75L654.36 311.49M654.36 311.49L654.88 311.58M654.88 311.58L655.22 311.98M655.22 311.98L655.22 312.51M655.22 312.51L654.88 312.91M654.88 312.91L654.36 313M654.36 313L653.91 312.74M653.91 312.74L653.73 312.24"
fill="none" stroke="black" stroke-width="2"/>
<path d="M654.5 312.24L654.5 160.32"
fill="none" stroke="black" stroke-width="2"/>
</svg>
