<?xml version="1.0" encoding="UTF-8"?>
<svg xmlns="http://www.w3.org/2000/svg" width="800.000" height="600.000" viewBox="0.0 0.0 800.000 600.000" version="1.1">
  <title>Produce by Acme CAD Converter</title>
  <desc>Produce by Acme CAD Converter</desc>
<path d="M2.26 80.73L2.26 519.27"
fill="none" stroke="RGB(237,31,36)" stroke-width="0"/>
<path d="M2.82 237.88L52.46 240.73M52.46 240.73L102.11 243.21M102.11 243.21L151.77 245.31M151.77 245.31L201.46 247.03M201.46 247.03L251.15 248.38M251.15 248.38L300.85 249.35M300.85 249.35L350.56 249.95M350.56 249.95L400.27 250.17M400.27 250.17L449.98 250.01M449.98 250.01L499.69 249.48M499.69 249.48L549.4 248.57M549.4 248.57L599.09 247.29M599.09 247.29L648.78 245.62M648.78 245.62L698.45 243.59M698.45 243.59L748.1 241.17M748.1 241.17L797.74 238.39"
fill="none" stroke="RGB(2,158,33)" stroke-width="2"/>
<path d="M2.82 237.88L91.13 240.15M91.13 240.15L179.45 241.87M179.45 241.87L267.78 243.03M267.78 243.03L356.11 243.64M356.11 243.64L444.44 243.69M444.44 243.69L532.78 243.2M532.78 243.2L621.11 242.15M621.11 242.15L709.43 240.54M709.43 240.54L797.74 238.39"
fill="none" stroke="RGB(2,158,33)" stroke-width="2"/>
<path d="M532.73 258.36L532.63 243.2"
fill="none" stroke="black" stroke-width="2"/>
<path d="M530.5 257.64L689.38 247.54"
fill="none" stroke="black" stroke-width="2"/>
<path d="M694.38 326.18L535.5 336.27M535.5 336.27L535.5 336.19"
fill="none" stroke="black" stroke-width="2"/>
<path d="M691.43 248.22L691.34 240.92"
fill="none" stroke="black" stroke-width="2"/>
<path d="M694.38 326.18L695.34 325.93M695.34 325.93L696.27 325.3M696.27 325.3L697.15 324.3M697.15 324.3L697.99 322.94M697.99 322.94L698.76 321.24M698.76 321.24L699.47 319.2M699.47 319.2L700.11 316.85M700.11 316.85L700.66 314.22M700.66 314.22L701.14 311.32M701.14 311.32L701.52 308.18M701.52 308.18L701.81 304.84M701.81 304.84L702 301.32M702 301.32L702.1 297.67M702.1 297.67L702.1 293.91M702.1 293.91L702 290.09M702 290.09L701.8 286.23M701.8 286.23L701.51 282.38M701.51 282.38L701.12 278.57M701.12 278.57L700.65 274.84M700.65 274.84L700.09 271.23M700.09 271.23L699.45 267.77M699.45 267.77L698.74 264.49M698.74 264.49L697.97 261.43M697.97 261.43L697.13 258.61M697.13 258.61L696.24 256.07M696.24 256.07L695.32 253.82M695.32 253.82L694.36 251.89M694.36 251.89L693.37 250.29M693.37 250.29L692.37 249.05M692.37 249.05L691.37 248.17M691.37 248.17L690.37 247.67M690.37 247.67L689.38 247.54"
fill="none" stroke="black" stroke-width="2"/>
<path d="M115.21 251.69L116.67 243.86"
fill="none" stroke="black" stroke-width="2"/>
<path d="M267.82 257.49L267.92 243.03"
fill="none" stroke="black" stroke-width="2"/>
<path d="M270.04 257.64L270.04 257.64M270.04 257.64L111.16 247.54"
fill="none" stroke="black" stroke-width="2"/>
<path d="M106.16 326.18L265.04 336.27"
fill="none" stroke="black" stroke-width="2"/>
<path d="M109.12 248.22L109.21 240.55"
fill="none" stroke="black" stroke-width="2"/>
<path d="M111.16 247.54L112.14 247.8M112.14 247.8L113.08 248.45M113.08 248.45L113.97 249.47M113.97 249.47L114.82 250.87M114.82 250.87L115.6 252.63M115.6 252.63L116.31 254.73M116.31 254.73L116.95 257.14M116.95 257.14L117.51 259.86M117.51 259.86L117.97 262.84M117.97 262.84L118.35 266.06M118.35 266.06L118.63 269.48M118.63 269.48L118.81 273.08M118.81 273.08L118.89 276.82M118.89 276.82L118.86 280.65M118.86 280.65L118.74 284.55M118.74 284.55L118.52 288.47M118.52 288.47L118.19 292.37M118.19 292.37L117.78 296.22M117.78 296.22L117.27 299.98M117.27 299.98L116.68 303.61M116.68 303.61L116 307.06M116 307.06L115.26 310.32M115.26 310.32L114.45 313.35M114.45 313.35L113.58 316.11M113.58 316.11L112.66 318.58M112.66 318.58L111.7 320.74M111.7 320.74L110.71 322.56M110.71 322.56L109.71 324.02M109.71 324.02L108.69 325.12M108.69 325.12L107.67 325.83M107.67 325.83L106.66 326.16M106.66 326.16L105.67 326.1M105.67 326.1L104.71 325.65M104.71 325.65L103.79 324.81M103.79 324.81L102.92 323.59M102.92 323.59L102.11 322.01M102.11 322.01L101.36 320.08M101.36 320.08L100.68 317.82M100.68 317.82L100.08 315.25M100.08 315.25L99.57 312.4M99.57 312.4L99.15 309.3M99.15 309.3L98.82 305.97M98.82 305.97L98.59 302.46M98.59 302.46L98.46 298.78M98.46 298.78L98.44 294.99M98.44 294.99L98.51 291.12M98.51 291.12L98.68 287.21M98.68 287.21L98.96 283.29M98.96 283.29L99.33 279.41M99.33 279.41L99.79 275.6M99.79 275.6L100.34 271.91M100.34 271.91L100.98 268.36M100.98 268.36L101.69 265M101.69 265L102.47 261.85M102.47 261.85L103.31 258.95M103.31 258.95L104.2 256.33M104.2 256.33L105.14 254.02M105.14 254.02L106.11 252.03M106.11 252.03L107.11 250.38M107.11 250.38L108.13 249.1M108.13 249.1L109.15 248.2M109.15 248.2L110.16 247.67M110.16 247.67L111.16 247.54"
fill="none" stroke="black" stroke-width="2"/>
<path d="M270.04 257.64L271 257.89M271 257.89L271.93 258.51M271.93 258.51L272.81 259.51M272.81 259.51L273.65 260.87M273.65 260.87L274.42 262.57M274.42 262.57L275.13 264.61M275.13 264.61L275.77 266.96M275.77 266.96L276.32 269.6M276.32 269.6L276.8 272.5M276.8 272.5L277.18 275.63M277.18 275.63L277.47 278.97M277.47 278.97L277.66 282.49M277.66 282.49L277.76 286.14M277.76 286.14L277.76 289.9M277.76 289.9L277.66 293.73M277.66 293.73L277.46 297.58M277.46 297.58L277.17 301.43M277.17 301.43L276.78 305.24M276.78 305.24L276.31 308.97M276.31 308.97L275.75 312.58M275.75 312.58L275.11 316.04M275.11 316.04L274.4 319.32M274.4 319.32L273.63 322.38M273.63 322.38L272.79 325.2M272.79 325.2L271.9 327.75M271.9 327.75L270.98 330M270.98 330L270.02 331.93M270.02 331.93L269.03 333.52M269.03 333.52L268.03 334.76M268.03 334.76L267.03 335.64M267.03 335.64L266.03 336.15M266.03 336.15L265.04 336.27"
fill="none" stroke="black" stroke-width="2"/>
<path d="M327.09 265.55L328.92 249.74"
fill="none" stroke="black" stroke-width="2"/>
<path d="M479.74 260.87L478.67 243.57"
fill="none" stroke="black" stroke-width="2"/>
<path d="M481.97 260.86L481.97 260.86M481.97 260.86L322.77 261.68"
fill="none" stroke="black" stroke-width="2"/>
<path d="M323.17 340.48L482.37 339.66"
fill="none" stroke="black" stroke-width="2"/>
<path d="M320.77 262.5L319.69 243.45"
fill="none" stroke="black" stroke-width="2"/>
<path d="M322.77 261.68L323.76 261.87M323.76 261.87L324.74 262.45M324.74 262.45L325.7 263.42M325.7 263.42L326.64 264.76M326.64 264.76L327.54 266.46M327.54 266.46L328.4 268.5M328.4 268.5L329.2 270.87M329.2 270.87L329.94 273.53M329.94 273.53L330.61 276.48M330.61 276.48L331.21 279.66M331.21 279.66L331.72 283.06M331.72 283.06L332.15 286.64M332.15 286.64L332.48 290.36M332.48 290.36L332.72 294.19M332.72 294.19L332.86 298.08M332.86 298.08L332.91 302.01M332.91 302.01L332.85 305.93M332.85 305.93L332.7 309.8M332.7 309.8L332.45 313.58M332.45 313.58L332.11 317.24M332.11 317.24L331.68 320.73M331.68 320.73L331.16 324.04M331.16 324.04L330.55 327.11M330.55 327.11L329.88 329.93M329.88 329.93L329.13 332.45M329.13 332.45L328.32 334.67M328.32 334.67L327.46 336.55M327.46 336.55L326.56 338.08M326.56 338.08L325.62 339.25M325.62 339.25L324.65 340.03M324.65 340.03L323.67 340.43M323.67 340.43L322.68 340.43M322.68 340.43L321.69 340.05M321.69 340.05L320.71 339.27M320.71 339.27L319.76 338.12M319.76 338.12L318.84 336.6M318.84 336.6L317.96 334.72M317.96 334.72L317.13 332.52M317.13 332.52L316.36 330M316.36 330L315.65 327.19M315.65 327.19L315.02 324.12M315.02 324.12L314.46 320.82M314.46 320.82L313.99 317.33M313.99 317.33L313.61 313.68M313.61 313.68L313.32 309.9M313.32 309.9L313.13 306.03M313.13 306.03L313.04 302.11M313.04 302.11L313.04 298.19M313.04 298.19L313.15 294.29M313.15 294.29L313.35 290.46M313.35 290.46L313.64 286.73M313.64 286.73L314.03 283.15M314.03 283.15L314.51 279.75M314.51 279.75L315.07 276.56M315.07 276.56L315.71 273.61M315.71 273.61L316.42 270.93M316.42 270.93L317.2 268.56M317.2 268.56L318.04 266.5M318.04 266.5L318.92 264.8M318.92 264.8L319.85 263.45M319.85 263.45L320.8 262.47M320.8 262.47L321.78 261.88M321.78 261.88L322.77 261.68"
fill="none" stroke="black" stroke-width="2"/>
<path d="M481.97 260.86L482.94 261.05M482.94 261.05L483.91 261.61M483.91 261.61L484.86 262.54M484.86 262.54L485.78 263.84M485.78 263.84L486.67 265.49M486.67 265.49L487.52 267.47M487.52 267.47L488.32 269.77M488.32 269.77L489.05 272.37M489.05 272.37L489.72 275.23M489.72 275.23L490.32 278.33M490.32 278.33L490.84 281.64M490.84 281.64L491.27 285.14M491.27 285.14L491.62 288.78M491.62 288.78L491.88 292.52M491.88 292.52L492.04 296.35M492.04 296.35L492.11 300.21M492.11 300.21L492.08 304.07M492.08 304.07L491.96 307.9M491.96 307.9L491.74 311.65M491.74 311.65L491.43 315.29M491.43 315.29L491.03 318.79M491.03 318.79L490.54 322.11M490.54 322.11L489.98 325.21M489.98 325.21L489.34 328.08M489.34 328.08L488.63 330.68M488.63 330.68L487.86 332.99M487.86 332.99L487.03 334.98M487.03 334.98L486.16 336.64M486.16 336.64L485.25 337.95M485.25 337.95L484.31 338.89M484.31 338.89L483.34 339.46M483.34 339.46L482.37 339.66"
fill="none" stroke="black" stroke-width="2"/>
<path d="M531.16 257.59L530.17 257.59M530.17 257.59L529.2 257.98M529.2 257.98L528.27 258.77M528.27 258.77L527.38 259.93M527.38 259.93L526.55 261.47M526.55 261.47L525.79 263.36M525.79 263.36L525.1 265.59M525.1 265.59L524.49 268.13M524.49 268.13L523.96 270.96M523.96 270.96L523.53 274.05M523.53 274.05L523.19 277.37M523.19 277.37L522.95 280.89M522.95 280.89L522.81 284.57M522.81 284.57L522.77 288.37M522.77 288.37L522.83 292.25M522.83 292.25L523 296.19M523 296.19L523.27 300.12M523.27 300.12L523.63 304.03M523.63 304.03L524.09 307.86M524.09 307.86L524.64 311.59M524.64 311.59L525.27 315.16M525.27 315.16L525.98 318.56M525.98 318.56L526.76 321.73M526.76 321.73L527.6 324.65M527.6 324.65L528.5 327.3M528.5 327.3L529.44 329.64M529.44 329.64L530.42 331.65M530.42 331.65L531.43 333.31M531.43 333.31L532.44 334.61M532.44 334.61L533.47 335.52M533.47 335.52L534.49 336.05M534.49 336.05L535.5 336.19"
fill="none" stroke="black" stroke-width="2"/>
<path d="M110.72 322.58L269.6 332.68"
fill="none" stroke="black" stroke-width="2"/>
<path d="M113.6 316.11L272.48 326.2"
fill="none" stroke="black" stroke-width="2"/>
<path d="M115.76 307.95L274.64 318.05"
fill="none" stroke="black" stroke-width="2"/>
<path d="M117.2 299.56L276.08 309.65"
fill="none" stroke="black" stroke-width="2"/>
<path d="M118.4 290.92L277.28 301.02"
fill="none" stroke="black" stroke-width="2"/>
<path d="M118.88 281.09L277.76 291.19"
fill="none" stroke="black" stroke-width="2"/>
<path d="M118.73 271.26L277.52 281.35"
fill="none" stroke="black" stroke-width="2"/>
<path d="M117.95 262.64L276.56 272.72"
fill="none" stroke="black" stroke-width="2"/>
<path d="M116.53 255.48L274.64 265.52"
fill="none" stroke="black" stroke-width="2"/>
<path d="M114.8 250.87L273.68 260.97"
fill="none" stroke="black" stroke-width="2"/>
<path d="M689.82 322.58L530.94 332.68"
fill="none" stroke="black" stroke-width="2"/>
<path d="M686.94 316.11L528.06 326.2"
fill="none" stroke="black" stroke-width="2"/>
<path d="M684.78 307.95L525.9 318.05"
fill="none" stroke="black" stroke-width="2"/>
<path d="M683.34 299.56L524.46 309.65"
fill="none" stroke="black" stroke-width="2"/>
<path d="M682.14 290.92L523.26 301.02"
fill="none" stroke="black" stroke-width="2"/>
<path d="M681.66 281.09L522.78 291.19"
fill="none" stroke="black" stroke-width="2"/>
<path d="M681.82 271.26L523.02 281.35"
fill="none" stroke="black" stroke-width="2"/>
<path d="M682.6 262.64L523.98 272.72"
fill="none" stroke="black" stroke-width="2"/>
<path d="M684.02 255.48L525.9 265.52"
fill="none" stroke="black" stroke-width="2"/>
<path d="M685.74 250.87L526.86 260.97"
fill="none" stroke="black" stroke-width="2"/>
<path d="M689.38 247.54L688.41 247.8M688.41 247.8L687.47 248.45M687.47 248.45L686.57 249.47M686.57 249.47L685.73 250.87M685.73 250.87L684.95 252.63M684.95 252.63L684.23 254.73M684.23 254.73L683.59 257.14M683.59 257.14L683.04 259.86M683.04 259.86L682.57 262.84M682.57 262.84L682.2 266.06M682.2 266.06L681.92 269.48M681.92 269.48L681.74 273.08M681.74 273.08L681.66 276.82M681.66 276.82L681.68 280.65M681.68 280.65L681.81 284.55M681.81 284.55L682.03 288.47M682.03 288.47L682.35 292.37M682.35 292.37L682.77 296.22M682.77 296.22L683.28 299.98M683.28 299.98L683.87 303.61M683.87 303.61L684.54 307.06M684.54 307.06L685.29 310.32M685.29 310.32L686.1 313.35M686.1 313.35L686.97 316.11M686.97 316.11L687.89 318.58M687.89 318.58L688.84 320.74M688.84 320.74L689.83 322.56M689.83 322.56L690.84 324.02M690.84 324.02L691.86 325.12M691.86 325.12L692.88 325.83M692.88 325.83L693.89 326.16M693.89 326.16L694.87 326.1M694.87 326.1L695.83 325.65M695.83 325.65L696.75 324.81M696.75 324.81L697.62 323.59M697.62 323.59L698.44 322.01M698.44 322.01L699.19 320.08M699.19 320.08L699.86 317.82M699.86 317.82L700.46 315.25M700.46 315.25L700.97 312.4M700.97 312.4L701.4 309.3M701.4 309.3L701.72 305.97M701.72 305.97L701.95 302.46M701.95 302.46L702.08 298.78M702.08 298.78L702.11 294.99M702.11 294.99L702.04 291.12M702.04 291.12L701.86 287.21M701.86 287.21L701.59 283.29M701.59 283.29L701.22 279.41M701.22 279.41L700.75 275.6M700.75 275.6L700.2 271.91M700.2 271.91L699.57 268.36M699.57 268.36L698.86 265M698.86 265L698.08 261.85M698.08 261.85L697.24 258.95M697.24 258.95L696.34 256.33M696.34 256.33L695.41 254.02M695.41 254.02L694.43 252.03M694.43 252.03L693.43 250.38M693.43 250.38L692.42 249.1M692.42 249.1L691.4 248.2M691.4 248.2L690.38 247.67M690.38 247.67L689.38 247.54"
fill="none" stroke="black" stroke-width="2"/>
<path d="M327.68 335.97L486.88 335.16"
fill="none" stroke="black" stroke-width="2"/>
<path d="M330.18 328.72L489.38 327.9"
fill="none" stroke="black" stroke-width="2"/>
<path d="M331.68 320.71L490.63 319.9"
fill="none" stroke="black" stroke-width="2"/>
<path d="M332.56 312.21L491.38 311.39"
fill="none" stroke="black" stroke-width="2"/>
<path d="M332.91 302.2L491.88 301.38"
fill="none" stroke="black" stroke-width="2"/>
<path d="M332.58 291.69L491.38 290.88"
fill="none" stroke="black" stroke-width="2"/>
<path d="M331.63 282.44L490.38 281.62"
fill="none" stroke="black" stroke-width="2"/>
<path d="M329.92 273.43L488.88 272.62"
fill="none" stroke="black" stroke-width="2"/>
<path d="M327.97 267.43L486.63 266.61"
fill="none" stroke="black" stroke-width="2"/>
<path d="M325.92 263.43L485.12 262.61"
fill="none" stroke="black" stroke-width="2"/>
<path d="M273.45 265.41L277.11 248.84"
fill="none" stroke="black" stroke-width="2"/>
<path d="M485.9 266.53L490.8 249.58"
fill="none" stroke="black" stroke-width="2"/>
<path d="M682.16 255.54L678.39 244.42"
fill="none" stroke="black" stroke-width="2"/>
<path d="M527.84 271.8L520.57 249.19"
fill="none" stroke="black" stroke-width="2"/>
</svg>
