<?xml version="1.0" encoding="UTF-8"?>
<svg xmlns="http://www.w3.org/2000/svg" width="800.000" height="600.000" viewBox="0.0 0.0 800.000 600.000" version="1.1">
  <title>Produce by Acme CAD Converter</title>
  <desc>Produce by Acme CAD Converter</desc>
<path d="M3.1 80.51L3.1 519.49"
fill="none" stroke="RGB(237,31,36)" stroke-width="0"/>
<path d="M2.26 251.86L51.93 254.57M51.93 254.57L101.62 256.91M101.62 256.91L151.33 258.86M151.33 258.86L201.05 260.43M201.05 260.43L250.78 261.61M250.78 261.61L300.52 262.41M300.52 262.41L350.26 262.83M350.26 262.83L400 262.86M400 262.86L449.75 262.5M449.75 262.5L499.49 261.77M499.49 261.77L549.22 260.65M549.22 260.65L598.94 259.14M598.94 259.14L648.65 257.25M648.65 257.25L698.34 254.98M698.34 254.98L748.01 252.33M748.01 252.33L797.66 249.29"
fill="none" stroke="RGB(2,158,33)" stroke-width="2"/>
<path d="M2.92 247.93L82.39 250.01M82.39 250.01L161.87 251.59M161.87 251.59L241.36 252.67M241.36 252.67L320.85 253.26M320.85 253.26L400.34 253.35M400.34 253.35L479.83 252.95M479.83 252.95L559.32 252.05M559.32 252.05L638.81 250.66M638.81 250.66L718.28 248.77M718.28 248.77L797.74 246.39"
fill="none" stroke="RGB(2,158,33)" stroke-width="2"/>
<path d="M133.45 318.2L293.4 318.2"
fill="none" stroke="black" stroke-width="2"/>
<path d="M318.51 318.2L476.14 318.2"
fill="none" stroke="black" stroke-width="2"/>
<path d="M501.27 318.2L662.47 318.2"
fill="none" stroke="black" stroke-width="2"/>
<path d="M133.32 304.53L132.47 304.87M132.47 304.87L131.68 305.55M131.68 305.55L130.99 306.52M130.99 306.52L130.45 307.75M130.45 307.75L130.08 309.16M130.08 309.16L129.89 310.69M129.89 310.69L129.91 312.25M129.91 312.25L130.12 313.77M130.12 313.77L130.52 315.16M130.52 315.16L131.08 316.35M131.08 316.35L131.79 317.29M131.79 317.29L132.59 317.91M132.59 317.91L133.45 318.2"
fill="none" stroke="black" stroke-width="2"/>
<path d="M133.99 318.2L134.85 317.91M134.85 317.91L135.66 317.29M135.66 317.29L136.36 316.35M136.36 316.35L136.92 315.16M136.92 315.16L137.32 313.77M137.32 313.77L137.53 312.25M137.53 312.25L137.55 310.69M137.55 310.69L137.36 309.16M137.36 309.16L136.99 307.75M136.99 307.75L136.45 306.52M136.45 306.52L135.76 305.55M135.76 305.55L134.97 304.87M134.97 304.87L134.12 304.53"
fill="none" stroke="black" stroke-width="2"/>
<path d="M133.32 304.53L293.53 304.53"
fill="none" stroke="black" stroke-width="2"/>
<path d="M318.39 304.53L476.26 304.53"
fill="none" stroke="black" stroke-width="2"/>
<path d="M501.14 304.53L662.59 304.53"
fill="none" stroke="black" stroke-width="2"/>
<path d="M662.47 318.2L663.33 317.91M663.33 317.91L664.13 317.29M664.13 317.29L664.83 316.35M664.83 316.35L665.39 315.16M665.39 315.16L665.79 313.77M665.79 313.77L666.01 312.25M666.01 312.25L666.02 310.69M666.02 310.69L665.84 309.16M665.84 309.16L665.46 307.75M665.46 307.75L664.92 306.52M664.92 306.52L664.24 305.55M664.24 305.55L663.45 304.87M663.45 304.87L662.59 304.53"
fill="none" stroke="black" stroke-width="2"/>
<path d="M293.4 318.2L294.26 317.91M294.26 317.91L295.06 317.29M295.06 317.29L295.76 316.35M295.76 316.35L296.33 315.16M296.33 315.16L296.73 313.77M296.73 313.77L296.94 312.25M296.94 312.25L296.95 310.69M296.95 310.69L296.77 309.16M296.77 309.16L296.4 307.75M296.4 307.75L295.85 306.52M295.85 306.52L295.17 305.55M295.17 305.55L294.38 304.87M294.38 304.87L293.53 304.53"
fill="none" stroke="black" stroke-width="2"/>
<path d="M319.06 318.2L319.92 317.91M319.92 317.91L320.72 317.29M320.72 317.29L321.42 316.35M321.42 316.35L321.98 315.16M321.98 315.16L322.38 313.77M322.38 313.77L322.59 312.25M322.59 312.25L322.61 310.69M322.61 310.69L322.42 309.16M322.42 309.16L322.05 307.75M322.05 307.75L321.51 306.52M321.51 306.52L320.82 305.55M320.82 305.55L320.03 304.87M320.03 304.87L319.18 304.53"
fill="none" stroke="black" stroke-width="2"/>
<path d="M318.39 304.53L317.53 304.87M317.53 304.87L316.74 305.55M316.74 305.55L316.06 306.52M316.06 306.52L315.51 307.75M315.51 307.75L315.14 309.16M315.14 309.16L314.96 310.69M314.96 310.69L314.97 312.25M314.97 312.25L315.18 313.77M315.18 313.77L315.58 315.16M315.58 315.16L316.15 316.35M316.15 316.35L316.85 317.29M316.85 317.29L317.65 317.91M317.65 317.91L318.51 318.2"
fill="none" stroke="black" stroke-width="2"/>
<path d="M476.14 318.2L477 317.91M477 317.91L477.8 317.29M477.8 317.29L478.5 316.35M478.5 316.35L479.07 315.16M479.07 315.16L479.47 313.77M479.47 313.77L479.68 312.25M479.68 312.25L479.69 310.69M479.69 310.69L479.51 309.16M479.51 309.16L479.14 307.75M479.14 307.75L478.59 306.52M478.59 306.52L477.91 305.55M477.91 305.55L477.12 304.87M477.12 304.87L476.26 304.53"
fill="none" stroke="black" stroke-width="2"/>
<path d="M501.81 318.2L502.67 317.91M502.67 317.91L503.47 317.29M503.47 317.29L504.18 316.35M504.18 316.35L504.74 315.16M504.74 315.16L505.14 313.77M505.14 313.77L505.35 312.25M505.35 312.25L505.37 310.69M505.37 310.69L505.18 309.16M505.18 309.16L504.81 307.75M504.81 307.75L504.27 306.52M504.27 306.52L503.58 305.55M503.58 305.55L502.79 304.87M502.79 304.87L501.94 304.53"
fill="none" stroke="black" stroke-width="2"/>
<path d="M501.14 304.53L500.29 304.87M500.29 304.87L499.5 305.55M499.5 305.55L498.81 306.52M498.81 306.52L498.27 307.75M498.27 307.75L497.9 309.16M497.9 309.16L497.71 310.69M497.71 310.69L497.73 312.25M497.73 312.25L497.94 313.77M497.94 313.77L498.34 315.16M498.34 315.16L498.9 316.35M498.9 316.35L499.6 317.29M499.6 317.29L500.41 317.91M500.41 317.91L501.27 318.2"
fill="none" stroke="black" stroke-width="2"/>
<path d="M137.56 311.42L137.56 311.3"
fill="none" stroke="black" stroke-width="2"/>
<path d="M137.56 311.36L137.57 311.36"
fill="none" stroke="black" stroke-width="2"/>
<path d="M141.69 311.36L148.6 258.76"
fill="none" stroke="black" stroke-width="2"/>
<path d="M129.73 256.94L135.98 304.53"
fill="none" stroke="black" stroke-width="2"/>
<path d="M129.73 256.94L128.95 250.99"
fill="none" stroke="black" stroke-width="2"/>
<path d="M285.16 311.36L278.69 262.11"
fill="none" stroke="black" stroke-width="2"/>
<path d="M297.12 256.94L290.87 304.53"
fill="none" stroke="black" stroke-width="2"/>
<path d="M297.12 256.94L297.62 253.14"
fill="none" stroke="black" stroke-width="2"/>
<path d="M326.75 311.36L333.14 262.73"
fill="none" stroke="black" stroke-width="2"/>
<path d="M314.79 256.94L321.04 304.53"
fill="none" stroke="black" stroke-width="2"/>
<path d="M314.79 256.94L314.3 253.23"
fill="none" stroke="black" stroke-width="2"/>
<path d="M470.22 311.36L463.78 262.34"
fill="none" stroke="black" stroke-width="2"/>
<path d="M482.18 256.94L475.93 304.53"
fill="none" stroke="black" stroke-width="2"/>
<path d="M482.18 256.94L482.71 252.93"
fill="none" stroke="black" stroke-width="2"/>
<path d="M509.51 311.36L516.07 261.44"
fill="none" stroke="black" stroke-width="2"/>
<path d="M497.55 256.94L503.8 304.53"
fill="none" stroke="black" stroke-width="2"/>
<path d="M497.55 256.94L497 252.8"
fill="none" stroke="black" stroke-width="2"/>
<path d="M652.98 311.36L645.89 257.37"
fill="none" stroke="black" stroke-width="2"/>
<path d="M664.94 256.94L658.69 304.53"
fill="none" stroke="black" stroke-width="2"/>
<path d="M664.94 256.94L665.84 250.07"
fill="none" stroke="black" stroke-width="2"/>
</svg>
