<?xml version="1.0" encoding="UTF-8"?>
<svg xmlns="http://www.w3.org/2000/svg" width="800.000" height="600.000" viewBox="0.0 0.0 800.000 600.000" version="1.1">
  <title>Produce by Acme CAD Converter</title>
  <desc>Produce by Acme CAD Converter</desc>
<path d="M2.26 80.73L2.26 519.27"
fill="none" stroke="RGB(237,31,36)" stroke-width="0"/>
<path d="M2.82 156.6L17.49 154.93M17.49 154.93L32.18 153.58"
fill="none" stroke="RGB(2,158,33)" stroke-width="2"/>
<path d="M40.54 152.95L52.14 152.24M52.14 152.24L63.75 151.72M63.75 151.72L75.37 151.4"
fill="none" stroke="RGB(2,158,33)" stroke-width="2"/>
<path d="M84.22 151.29L96.53 151.32M96.53 151.32L108.83 151.57M108.83 151.57L121.14 152.03"
fill="none" stroke="RGB(2,158,33)" stroke-width="2"/>
<path d="M129.8 152.49L142.26 153.34M142.26 153.34L154.72 154.42M154.72 154.42L167.15 155.71"
fill="none" stroke="RGB(2,158,33)" stroke-width="2"/>
<path d="M176.2 156.8L189.41 158.6M189.41 158.6L202.58 160.66M202.58 160.66L215.71 162.97"
fill="none" stroke="RGB(2,158,33)" stroke-width="2"/>
<path d="M224.23 164.6L236.33 167.12M236.33 167.12L248.38 169.85M248.38 169.85L260.39 172.79"
fill="none" stroke="RGB(2,158,33)" stroke-width="2"/>
<path d="M271.47 175.71L282.6 178.84M282.6 178.84L293.67 182.15"
fill="none" stroke="RGB(2,158,33)" stroke-width="2"/>
<path d="M305.01 185.75L316.51 189.63M316.51 189.63L327.94 193.7"
fill="none" stroke="RGB(2,158,33)" stroke-width="2"/>
<path d="M339.47 198.04L353.11 203.48M353.11 203.48L366.64 209.21M366.64 209.21L380.05 215.22M380.05 215.22L393.33 221.51"
fill="none" stroke="RGB(2,158,33)" stroke-width="2"/>
<path d="M399.18 224.4L399.19 224.4"
fill="none" stroke="RGB(2,158,33)" stroke-width="2"/>
<path d="M405.16 221.77L419.68 215.6M419.68 215.6L434.31 209.72"
fill="none" stroke="RGB(2,158,33)" stroke-width="2"/>
<path d="M441.04 207.13L452.58 202.84M452.58 202.84L464.19 198.73M464.19 198.73L475.85 194.8"
fill="none" stroke="RGB(2,158,33)" stroke-width="2"/>
<path d="M482.7 192.58L494.25 188.99M494.25 188.99L505.85 185.57M505.85 185.57L517.5 182.32"
fill="none" stroke="RGB(2,158,33)" stroke-width="2"/>
<path d="M524.19 180.55L540.55 176.45M540.55 176.45L556.99 172.7M556.99 172.7L573.51 169.29"
fill="none" stroke="RGB(2,158,33)" stroke-width="2"/>
<path d="M580.06 168.03L594.75 165.43M594.75 165.43L609.48 163.09M609.48 163.09L624.25 161.02"
fill="none" stroke="RGB(2,158,33)" stroke-width="2"/>
<path d="M631.98 160.05L645.93 158.49M645.93 158.49L659.91 157.17M659.91 157.17L673.91 156.09"
fill="none" stroke="RGB(2,158,33)" stroke-width="2"/>
<path d="M681.53 155.6L698.38 154.79M698.38 154.79L715.25 154.32M715.25 154.32L732.12 154.21"
fill="none" stroke="RGB(2,158,33)" stroke-width="2"/>
<path d="M740.36 154.28L755.16 154.62M755.16 154.62L769.95 155.23M769.95 155.23L784.73 156.11"
fill="none" stroke="RGB(2,158,33)" stroke-width="2"/>
<path d="M792.84 156.7L797.74 157.1"
fill="none" stroke="RGB(2,158,33)" stroke-width="2"/>
<path d="M2.82 315.98L20.37 314.75M20.37 314.75L37.9 313.27M37.9 313.27L55.41 311.54"
fill="none" stroke="RGB(2,158,33)" stroke-width="2"/>
<path d="M63.76 310.63L80.44 308.64M80.44 308.64L97.09 306.42"
fill="none" stroke="RGB(2,158,33)" stroke-width="2"/>
<path d="M104.86 305.31L118.68 303.21M118.68 303.21L132.48 300.95"
fill="none" stroke="RGB(2,158,33)" stroke-width="2"/>
<path d="M139.42 299.75L157.8 296.39M157.8 296.39L176.13 292.75"
fill="none" stroke="RGB(2,158,33)" stroke-width="2"/>
<path d="M183.47 291.21L201.17 287.31M201.17 287.31L218.82 283.15"
fill="none" stroke="RGB(2,158,33)" stroke-width="2"/>
<path d="M226.26 281.32L242.56 277.13M242.56 277.13L258.81 272.72M258.81 272.72L275 268.09"
fill="none" stroke="RGB(2,158,33)" stroke-width="2"/>
<path d="M282.33 265.91L298.38 260.98M298.38 260.98L314.36 255.83"
fill="none" stroke="RGB(2,158,33)" stroke-width="2"/>
<path d="M322.78 253.02L342.87 246.04M342.87 246.04L362.84 238.72"
fill="none" stroke="RGB(2,158,33)" stroke-width="2"/>
<path d="M371 235.62L382.09 231.3M382.09 231.3L393.14 226.87"
fill="none" stroke="RGB(2,158,33)" stroke-width="2"/>
<path d="M399.18 224.4L399.19 224.4"
fill="none" stroke="RGB(2,158,33)" stroke-width="2"/>
<path d="M405.04 227.28L418.28 233.59M418.28 233.59L431.62 239.68M431.62 239.68L445.07 245.55M445.07 245.55L458.6 251.19"
fill="none" stroke="RGB(2,158,33)" stroke-width="2"/>
<path d="M470.32 255.87L481.68 260.22M481.68 260.22L493.09 264.41"
fill="none" stroke="RGB(2,158,33)" stroke-width="2"/>
<path d="M503.93 268.22L515.58 272.15M515.58 272.15L527.29 275.92"
fill="none" stroke="RGB(2,158,33)" stroke-width="2"/>
<path d="M537.98 279.2L550.02 282.72M550.02 282.72L562.12 286.07M562.12 286.07L574.25 289.25"
fill="none" stroke="RGB(2,158,33)" stroke-width="2"/>
<path d="M582.65 291.34L595.83 294.44M595.83 294.44L609.06 297.35M609.06 297.35L622.33 300.05"
fill="none" stroke="RGB(2,158,33)" stroke-width="2"/>
<path d="M631.22 301.74L643.65 303.95M643.65 303.95L656.1 305.98M656.1 305.98L668.59 307.83"
fill="none" stroke="RGB(2,158,33)" stroke-width="2"/>
<path d="M677.08 308.99L695.67 311.23M695.67 311.23L714.29 313.07"
fill="none" stroke="RGB(2,158,33)" stroke-width="2"/>
<path d="M722.95 313.79L740.59 315M740.59 315L758.26 315.85"
fill="none" stroke="RGB(2,158,33)" stroke-width="2"/>
<path d="M766.08 316.12L781.9 316.44M781.9 316.44L797.74 316.48"
fill="none" stroke="RGB(2,158,33)" stroke-width="2"/>
<path d="M32.18 153.6L55.41 311.54"
fill="none" stroke="black" stroke-width="2"/>
<path d="M40.54 152.89L63.76 310.63"
fill="none" stroke="black" stroke-width="2"/>
<path d="M75.36 151.35L97.09 306.42"
fill="none" stroke="black" stroke-width="2"/>
<path d="M84.23 151.29L104.86 305.31"
fill="none" stroke="black" stroke-width="2"/>
<path d="M121.22 152.65L132.49 301.11"
fill="none" stroke="black" stroke-width="2"/>
<path d="M129.72 152.9L139.42 299.75"
fill="none" stroke="black" stroke-width="2"/>
<path d="M167.14 155.71L167.14 155.74"
fill="none" stroke="black" stroke-width="2"/>
<path d="M167.2 156.64L176.13 292.75"
fill="none" stroke="black" stroke-width="2"/>
<path d="M176.2 156.79L183.47 291.21"
fill="none" stroke="black" stroke-width="2"/>
<path d="M215.66 163.7L218.82 283.29"
fill="none" stroke="black" stroke-width="2"/>
<path d="M224.31 163.73L226.28 282.65"
fill="none" stroke="black" stroke-width="2"/>
<path d="M260.21 174.66L274.96 268.1"
fill="none" stroke="black" stroke-width="2"/>
<path d="M271.2 173.44L282.33 265.91"
fill="none" stroke="black" stroke-width="2"/>
<path d="M305.03 182.09L322.6 252.67"
fill="none" stroke="black" stroke-width="2"/>
<path d="M293.5 185.39L314.24 255.17"
fill="none" stroke="black" stroke-width="2"/>
<path d="M329.33 198.4L363.38 239.37"
fill="none" stroke="black" stroke-width="2"/>
<path d="M339.53 189.93L370.69 235.08"
fill="none" stroke="black" stroke-width="2"/>
<path d="M32.17 153.52L32.39 153.87M32.39 153.87L32.95 154.15M32.95 154.15L33.82 154.34M33.82 154.34L34.91 154.44M34.91 154.44L36.14 154.42M36.14 154.42L37.38 154.3M37.38 154.3L38.53 154.07M38.53 154.07L39.49 153.77M39.49 153.77L40.16 153.42M40.16 153.42L40.51 153.05M40.51 153.05L40.48 152.69M40.48 152.69L40.08 152.38M40.08 152.38L39.36 152.13M39.36 152.13L38.36 151.99M38.36 151.99L37.19 151.95M37.19 151.95L35.95 152.02M35.95 152.02L34.74 152.19M34.74 152.19L33.67 152.46M33.67 152.46L32.84 152.79M32.84 152.79L32.33 153.15M32.33 153.15L32.17 153.52"
fill="none" stroke="black" stroke-width="2"/>
<path d="M55.41 311.52L55.6 312.11M55.6 312.11L56.14 312.62M56.14 312.62L56.99 313.01M56.99 313.01L58.07 313.23M58.07 313.23L59.28 313.28M59.28 313.28L60.52 313.14M60.52 313.14L61.68 312.84M61.68 312.84L62.65 312.39M62.65 312.39L63.36 311.83M63.36 311.83L63.74 311.22M63.74 311.22L63.76 310.6"
fill="none" stroke="black" stroke-width="2"/>
<path d="M75.36 151.37L75.56 151.93M75.56 151.93L76.14 152.44M76.14 152.44L77.04 152.84M77.04 152.84L78.19 153.12M78.19 153.12L79.48 153.23M79.48 153.23L80.79 153.18M80.79 153.18L82.02 152.96M82.02 152.96L83.05 152.59M83.05 152.59L83.79 152.11M83.79 152.11L84.17 151.56M84.17 151.56L84.16 150.99M84.16 150.99L83.77 150.45M83.77 150.45L83.02 149.99M83.02 149.99L81.99 149.64M81.99 149.64L80.75 149.45M80.75 149.45L79.44 149.42M79.44 149.42L78.15 149.56M78.15 149.56L77.01 149.85M77.01 149.85L76.12 150.28M76.12 150.28L75.55 150.8M75.55 150.8L75.36 151.37"
fill="none" stroke="black" stroke-width="2"/>
<path d="M121.13 152.06L121.29 152.83M121.29 152.83L121.81 153.54M121.81 153.54L122.66 154.14M122.66 154.14L123.76 154.58M123.76 154.58L125.01 154.81M125.01 154.81L126.3 154.82M126.3 154.82L127.52 154.6M127.52 154.6L128.55 154.18M128.55 154.18L129.31 153.59M129.31 153.59L129.73 152.88M129.73 152.88L129.77 152.12M129.77 152.12L129.42 151.37M129.42 151.37L128.73 150.71M128.73 150.71L127.74 150.19M127.74 150.19L126.55 149.85M126.55 149.85L125.27 149.73M125.27 149.73L124 149.83M124 149.83L122.87 150.15M122.87 150.15L121.96 150.67M121.96 150.67L121.37 151.32M121.37 151.32L121.13 152.06"
fill="none" stroke="black" stroke-width="2"/>
<path d="M167.15 155.72L167.22 156.69M167.22 156.69L167.65 157.61M167.65 157.61L168.4 158.43M168.4 158.43L169.42 159.08M169.42 159.08L170.63 159.5M170.63 159.5L171.91 159.65M171.91 159.65L173.18 159.53M173.18 159.53L174.33 159.15M174.33 159.15L175.26 158.53M175.26 158.53L175.9 157.74M175.9 157.74L176.19 156.82M176.19 156.82L176.12 155.86M176.12 155.86L175.69 154.93M175.69 154.93L174.94 154.11M174.94 154.11L173.92 153.46M173.92 153.46L172.71 153.05M172.71 153.05L171.43 152.89M171.43 152.89L170.16 153.01M170.16 153.01L169.01 153.39M169.01 153.39L168.08 154.01M168.08 154.01L167.44 154.81M167.44 154.81L167.15 155.72"
fill="none" stroke="black" stroke-width="2"/>
<path d="M215.7 163.04L215.69 164.29M215.69 164.29L216.06 165.49M216.06 165.49L216.78 166.53M216.78 166.53L217.79 167.32M217.79 167.32L218.99 167.8M218.99 167.8L220.27 167.92M220.27 167.92L221.53 167.66M221.53 167.66L222.66 167.06M222.66 167.06L223.54 166.17M223.54 166.17L224.11 165.06M224.11 165.06L224.31 163.83M224.31 163.83L224.13 162.59M224.13 162.59L223.58 161.46M223.58 161.46L222.7 160.53M222.7 160.53L221.59 159.89M221.59 159.89L220.33 159.59M220.33 159.59L219.05 159.66M219.05 159.66L217.84 160.09M217.84 160.09L216.83 160.85M216.83 160.85L216.09 161.86M216.09 161.86L215.7 163.04"
fill="none" stroke="black" stroke-width="2"/>
<path d="M260.34 172.98L260.19 174.33M260.19 174.33L260.43 175.68M260.43 175.68L261.03 176.94M261.03 176.94L261.96 178.02M261.96 178.02L263.14 178.85M263.14 178.85L264.5 179.38M264.5 179.38L265.95 179.56M265.95 179.56L267.38 179.38M267.38 179.38L268.71 178.86M268.71 178.86L269.83 178.03M269.83 178.03L270.68 176.95M270.68 176.95L271.19 175.69M271.19 175.69L271.33 174.33M271.33 174.33L271.09 172.98M271.09 172.98L270.49 171.72M270.49 171.72L269.57 170.64M269.57 170.64L268.38 169.81M268.38 169.81L267.02 169.28M267.02 169.28L265.58 169.1M265.58 169.1L264.14 169.28M264.14 169.28L262.82 169.8M262.82 169.8L261.69 170.63M261.69 170.63L260.85 171.71M260.85 171.71L260.34 172.98"
fill="none" stroke="black" stroke-width="2"/>
<path d="M297.48 189.84L298.95 190.1M298.95 190.1L300.44 189.97M300.44 189.97L301.86 189.47M301.86 189.47L303.13 188.63M303.13 188.63L304.15 187.49M304.15 187.49L304.88 186.13M304.88 186.13L305.25 184.63M305.25 184.63L305.25 183.09M305.25 183.09L304.88 181.61M304.88 181.61L304.16 180.28M304.16 180.28L303.14 179.18M303.14 179.18L301.88 178.38M301.88 178.38L300.46 177.93M300.46 177.93L298.97 177.86M298.97 177.86L297.5 178.18M297.5 178.18L296.15 178.86M296.15 178.86L294.99 179.86M294.99 179.86L294.11 181.12M294.11 181.12L293.56 182.56M293.56 182.56L293.37 184.08M293.37 184.08L293.56 185.61M293.56 185.61L294.1 187.02M294.1 187.02L294.98 188.25M294.98 188.25L296.13 189.21M296.13 189.21L297.48 189.84"
fill="none" stroke="black" stroke-width="2"/>
<path d="M332.07 200.39L333.59 200.73M333.59 200.73L335.14 200.69M335.14 200.69L336.65 200.26M336.65 200.26L338.03 199.47M338.03 199.47L339.2 198.37M339.2 198.37L340.09 197.02M340.09 197.02L340.64 195.5M340.64 195.5L340.83 193.9M340.83 193.9L340.65 192.31M340.65 192.31L340.1 190.82M340.1 190.82L339.22 189.52M339.22 189.52L338.05 188.48M338.05 188.48L336.68 187.77M336.68 187.77L335.16 187.43M335.16 187.43L333.61 187.47M333.61 187.47L332.1 187.9M332.1 187.9L330.72 188.69M330.72 188.69L329.55 189.79M329.55 189.79L328.66 191.14M328.66 191.14L328.11 192.66M328.11 192.66L327.92 194.26M327.92 194.26L328.1 195.85M328.1 195.85L328.65 197.34M328.65 197.34L329.53 198.64M329.53 198.64L330.7 199.68M330.7 199.68L332.07 200.39"
fill="none" stroke="black" stroke-width="2"/>
<path d="M392.66 224.4L392.84 222.83M392.84 222.83L393.4 221.36M393.4 221.36L394.3 220.07M394.3 220.07L395.47 219.02M395.47 219.02L396.87 218.29M396.87 218.29L398.4 217.92M398.4 217.92L399.97 217.92M399.97 217.92L401.5 218.29M401.5 218.29L402.89 219.02M402.89 219.02L404.07 220.07M404.07 220.07L404.96 221.36M404.96 221.36L405.52 222.83M405.52 222.83L405.71 224.4M405.71 224.4L405.52 225.96M405.52 225.96L404.96 227.43M404.96 227.43L404.07 228.72M404.07 228.72L402.89 229.77M402.89 229.77L401.5 230.5M401.5 230.5L399.97 230.88M399.97 230.88L398.4 230.88M398.4 230.88L396.87 230.5M396.87 230.5L395.47 229.77M395.47 229.77L394.3 228.72M394.3 228.72L393.4 227.43M393.4 227.43L392.84 225.96M392.84 225.96L392.66 224.4"
fill="none" stroke="black" stroke-width="2"/>
<path d="M766.2 315.79L765.98 315.45M765.98 315.45L765.42 315.17M765.42 315.17L764.55 314.97M764.55 314.97L763.45 314.88M763.45 314.88L762.23 314.9M762.23 314.9L760.99 315.02M760.99 315.02L759.84 315.24M759.84 315.24L758.88 315.54M758.88 315.54L758.2 315.9M758.2 315.9L757.86 316.27M757.86 316.27L757.89 316.63M757.89 316.63L758.28 316.94M758.28 316.94L759.01 317.18M759.01 317.18L760 317.33M760 317.33L761.17 317.37M761.17 317.37L762.42 317.3M762.42 317.3L763.63 317.12M763.63 317.12L764.69 316.86M764.69 316.86L765.52 316.53M765.52 316.53L766.04 316.16M766.04 316.16L766.2 315.79"
fill="none" stroke="black" stroke-width="2"/>
<path d="M723.01 313.47L722.8 312.91M722.8 312.91L722.23 312.4M722.23 312.4L721.33 311.99M721.33 311.99L720.18 311.72M720.18 311.72L718.89 311.6M718.89 311.6L717.58 311.66M717.58 311.66L716.35 311.88M716.35 311.88L715.32 312.24M715.32 312.24L714.58 312.72M714.58 312.72L714.2 313.27M714.2 313.27L714.2 313.84M714.2 313.84L714.6 314.38M714.6 314.38L715.35 314.85M715.35 314.85L716.38 315.19M716.38 315.19L717.61 315.39M717.61 315.39L718.93 315.42M718.93 315.42L720.21 315.28M720.21 315.28L721.35 314.98M721.35 314.98L722.25 314.56M722.25 314.56L722.82 314.04M722.82 314.04L723.01 313.47"
fill="none" stroke="black" stroke-width="2"/>
<path d="M677.23 308.41L677.08 307.64M677.08 307.64L676.55 306.93M676.55 306.93L675.7 306.33M675.7 306.33L674.6 305.89M674.6 305.89L673.35 305.66M673.35 305.66L672.06 305.65M672.06 305.65L670.85 305.87M670.85 305.87L669.82 306.29M669.82 306.29L669.06 306.88M669.06 306.88L668.64 307.59M668.64 307.59L668.6 308.35M668.6 308.35L668.95 309.1M668.95 309.1L669.64 309.76M669.64 309.76L670.63 310.29M670.63 310.29L671.81 310.62M671.81 310.62L673.1 310.74M673.1 310.74L674.36 310.64M674.36 310.64L675.5 310.32M675.5 310.32L676.41 309.8M676.41 309.8L677 309.15M677 309.15L677.23 308.41"
fill="none" stroke="black" stroke-width="2"/>
<path d="M631.22 301.75L631.15 300.79M631.15 300.79L630.72 299.86M630.72 299.86L629.96 299.04M629.96 299.04L628.94 298.4M628.94 298.4L627.74 297.98M627.74 297.98L626.45 297.83M626.45 297.83L625.18 297.94M625.18 297.94L624.04 298.33M624.04 298.33L623.11 298.94M623.11 298.94L622.47 299.74M622.47 299.74L622.17 300.66M622.17 300.66L622.24 301.62M622.24 301.62L622.67 302.55M622.67 302.55L623.43 303.37M623.43 303.37L624.45 304.01M624.45 304.01L625.65 304.43M625.65 304.43L626.94 304.59M626.94 304.59L628.21 304.47M628.21 304.47L629.35 304.09M629.35 304.09L630.28 303.47M630.28 303.47L630.92 302.67M630.92 302.67L631.22 301.75"
fill="none" stroke="black" stroke-width="2"/>
<path d="M582.67 291.24L582.67 290M582.67 290L582.3 288.8M582.3 288.8L581.58 287.76M581.58 287.76L580.58 286.97M580.58 286.97L579.38 286.49M579.38 286.49L578.09 286.37M578.09 286.37L576.83 286.62M576.83 286.62L575.71 287.23M575.71 287.23L574.83 288.12M574.83 288.12L574.26 289.23M574.26 289.23L574.06 290.46M574.06 290.46L574.24 291.69M574.24 291.69L574.79 292.83M574.79 292.83L575.66 293.75M575.66 293.75L576.78 294.4M576.78 294.4L578.03 294.7M578.03 294.7L579.32 294.63M579.32 294.63L580.53 294.2M580.53 294.2L581.54 293.44M581.54 293.44L582.28 292.43M582.28 292.43L582.67 291.24"
fill="none" stroke="black" stroke-width="2"/>
<path d="M538.03 279.01L538.17 277.66M538.17 277.66L537.93 276.3M537.93 276.3L537.33 275.04M537.33 275.04L536.41 273.96M536.41 273.96L535.23 273.13M535.23 273.13L533.87 272.61M533.87 272.61L532.42 272.43M532.42 272.43L530.98 272.61M530.98 272.61L529.66 273.13M529.66 273.13L528.54 273.96M528.54 273.96L527.69 275.04M527.69 275.04L527.18 276.3M527.18 276.3L527.04 277.65M527.04 277.65L527.28 279M527.28 279L527.88 280.26M527.88 280.26L528.8 281.35M528.8 281.35L529.98 282.18M529.98 282.18L531.34 282.7M531.34 282.7L532.79 282.88M532.79 282.88L534.23 282.7M534.23 282.7L535.55 282.18M535.55 282.18L536.67 281.35M536.67 281.35L537.52 280.27M537.52 280.27L538.03 279.01"
fill="none" stroke="black" stroke-width="2"/>
<path d="M500.88 258.96L499.42 258.7M499.42 258.7L497.92 258.82M497.92 258.82L496.5 259.32M496.5 259.32L495.24 260.17M495.24 260.17L494.21 261.31M494.21 261.31L493.49 262.67M493.49 262.67L493.12 264.16M493.12 264.16L493.12 265.7M493.12 265.7L493.49 267.18M493.49 267.18L494.2 268.52M494.2 268.52L495.22 269.62M495.22 269.62L496.49 270.42M496.49 270.42L497.91 270.86M497.91 270.86L499.4 270.93M499.4 270.93L500.87 270.62M500.87 270.62L502.22 269.94M502.22 269.94L503.37 268.94M503.37 268.94L504.25 267.68M504.25 267.68L504.81 266.24M504.81 266.24L505 264.71M505 264.71L504.81 263.19M504.81 263.19L504.26 261.77M504.26 261.77L503.39 260.54M503.39 260.54L502.24 259.59M502.24 259.59L500.88 258.96"
fill="none" stroke="black" stroke-width="2"/>
<path d="M466.29 248.41L464.78 248.06M464.78 248.06L463.22 248.11M463.22 248.11L461.71 248.53M461.71 248.53L460.33 249.32M460.33 249.32L459.17 250.42M459.17 250.42L458.28 251.77M458.28 251.77L457.72 253.29M457.72 253.29L457.53 254.9M457.53 254.9L457.72 256.49M457.72 256.49L458.27 257.98M458.27 257.98L459.15 259.28M459.15 259.28L460.31 260.31M460.31 260.31L461.69 261.02M461.69 261.02L463.2 261.37M463.2 261.37L464.76 261.32M464.76 261.32L466.27 260.9M466.27 260.9L467.65 260.11M467.65 260.11L468.82 259.01M468.82 259.01L469.71 257.66M469.71 257.66L470.26 256.14M470.26 256.14L470.45 254.53M470.45 254.53L470.26 252.94M470.26 252.94L469.72 251.45M469.72 251.45L468.83 250.15M468.83 250.15L467.67 249.12M467.67 249.12L466.29 248.41"
fill="none" stroke="black" stroke-width="2"/>
<path d="M458.36 258.17L434.21 209.52"
fill="none" stroke="black" stroke-width="2"/>
<path d="M469.67 251.45L441.04 207.16"
fill="none" stroke="black" stroke-width="2"/>
<path d="M493.09 265.26L475.72 194.24"
fill="none" stroke="black" stroke-width="2"/>
<path d="M504.57 262.43L482.69 192.55"
fill="none" stroke="black" stroke-width="2"/>
<path d="M526.99 277.55L517.5 182.32"
fill="none" stroke="black" stroke-width="2"/>
<path d="M538.15 277.68L524.18 180.55"
fill="none" stroke="black" stroke-width="2"/>
<path d="M574.06 290.59L573.5 168.27"
fill="none" stroke="black" stroke-width="2"/>
<path d="M582.66 291.6L580.05 167.53"
fill="none" stroke="black" stroke-width="2"/>
<path d="M622.07 300.88L624.25 160.58"
fill="none" stroke="black" stroke-width="2"/>
<path d="M631.23 301.89L631.98 160"
fill="none" stroke="black" stroke-width="2"/>
<path d="M668.55 307.83L673.92 155.76"
fill="none" stroke="black" stroke-width="2"/>
<path d="M677.13 309.36L681.53 155.61"
fill="none" stroke="black" stroke-width="2"/>
<path d="M714.28 313.08L732.15 153.91"
fill="none" stroke="black" stroke-width="2"/>
<path d="M722.94 313.9L740.42 153.78"
fill="none" stroke="black" stroke-width="2"/>
<path d="M757.88 316.21L784.76 155.93"
fill="none" stroke="black" stroke-width="2"/>
<path d="M766.1 316.12L792.84 156.68"
fill="none" stroke="black" stroke-width="2"/>
<path d="M363.4 239.38L364.15 239.99M364.15 239.99L365.13 240.37M365.13 240.37L366.25 240.5M366.25 240.5L367.43 240.37M367.43 240.37L368.57 239.99M368.57 239.99L369.59 239.38M369.59 239.38L370.4 238.6M370.4 238.6L370.95 237.71M370.95 237.71L371.18 236.78M371.18 236.78L371.09 235.87M371.09 235.87L370.67 235.07"
fill="none" stroke="black" stroke-width="2"/>
<path d="M314.24 255.17L314.45 256.06M314.45 256.06L315.01 256.8M315.01 256.8L315.88 257.35M315.88 257.35L316.97 257.65M316.97 257.65L318.2 257.68M318.2 257.68L319.47 257.44M319.47 257.44L320.66 256.95M320.66 256.95L321.67 256.24M321.67 256.24L322.42 255.39M322.42 255.39L322.84 254.45M322.84 254.45L322.91 253.52M322.91 253.52L322.6 252.67"
fill="none" stroke="black" stroke-width="2"/>
<path d="M275 268.09L275.47 268.99M275.47 268.99L276.24 269.71M276.24 269.71L277.26 270.15M277.26 270.15L278.42 270.29M278.42 270.29L279.59 270.11M279.59 270.11L280.68 269.62M280.68 269.62L281.57 268.88M281.57 268.88L282.18 267.95M282.18 267.95L282.44 266.92M282.44 266.92L282.33 265.91"
fill="none" stroke="black" stroke-width="2"/>
<path d="M218.79 283.16L219.15 283.97M219.15 283.97L219.83 284.63M219.83 284.63L220.75 285.08M220.75 285.08L221.84 285.27M221.84 285.27L222.99 285.19M222.99 285.19L224.1 284.85M224.1 284.85L225.08 284.28M225.08 284.28L225.82 283.52M225.82 283.52L226.28 282.65"
fill="none" stroke="black" stroke-width="2"/>
<path d="M176.15 292.74L176.48 293.51M176.48 293.51L177.15 294.13M177.15 294.13L178.09 294.53M178.09 294.53L179.2 294.69M179.2 294.69L180.37 294.58M180.37 294.58L181.49 294.21M181.49 294.21L182.44 293.62M182.44 293.62L183.13 292.88M183.13 292.88L183.48 292.04M183.48 292.04L183.47 291.21"
fill="none" stroke="black" stroke-width="2"/>
<path d="M132.46 300.67L132.55 301.24M132.55 301.24L133 301.71M133 301.71L133.78 302.04M133.78 302.04L134.78 302.18M134.78 302.18L135.91 302.13M135.91 302.13L137.05 301.89M137.05 301.89L138.05 301.48M138.05 301.48L138.83 300.94M138.83 300.94L139.29 300.35M139.29 300.35L139.38 299.76"
fill="none" stroke="black" stroke-width="2"/>
<path d="M97.09 306.42L97.36 306.75M97.36 306.75L97.97 306.99M97.97 306.99L98.87 307.12M98.87 307.12L99.98 307.13M99.98 307.13L101.19 307.02M101.19 307.02L102.38 306.79M102.38 306.79L103.42 306.47M103.42 306.47L104.23 306.09M104.23 306.09L104.72 305.69M104.72 305.69L104.85 305.31"
fill="none" stroke="black" stroke-width="2"/>
<path d="M441.07 207.2L440.63 206.46M440.63 206.46L439.91 205.91M439.91 205.91L438.98 205.59M438.98 205.59L437.92 205.55M437.92 205.55L436.84 205.77M436.84 205.77L435.84 206.25M435.84 206.25L435.01 206.94M435.01 206.94L434.43 207.76M434.43 207.76L434.16 208.65M434.16 208.65L434.21 209.52"
fill="none" stroke="black" stroke-width="2"/>
<path d="M482.7 192.58L482.23 191.74M482.23 191.74L481.46 191.11M481.46 191.11L480.47 190.74M480.47 190.74L479.35 190.67M479.35 190.67L478.23 190.91M478.23 190.91L477.21 191.43M477.21 191.43L476.4 192.18M476.4 192.18L475.88 193.09M475.88 193.09L475.71 194.06M475.71 194.06L475.9 194.99"
fill="none" stroke="black" stroke-width="2"/>
<path d="M524.19 180.55L523.8 179.79M523.8 179.79L523.13 179.19M523.13 179.19L522.24 178.82M522.24 178.82L521.22 178.7M521.22 178.7L520.15 178.84M520.15 178.84L519.16 179.24M519.16 179.24L518.34 179.86M518.34 179.86L517.75 180.62M517.75 180.62L517.48 181.47M517.48 181.47L517.53 182.32"
fill="none" stroke="black" stroke-width="2"/>
<path d="M580.05 167.53L579.55 166.78M579.55 166.78L578.76 166.21M578.76 166.21L577.75 165.9M577.75 165.9L576.65 165.88M576.65 165.88L575.57 166.15M575.57 166.15L574.62 166.67M574.62 166.67L573.91 167.41M573.91 167.41L573.5 168.27"
fill="none" stroke="black" stroke-width="2"/>
<path d="M631.98 160.52L631.92 159.74M631.92 159.74L631.52 159.03M631.52 159.03L630.81 158.46M630.81 158.46L629.85 158.08M629.85 158.08L628.74 157.92M628.74 157.92L627.57 157.99M627.57 157.99L626.45 158.3M626.45 158.3L625.48 158.81M625.48 158.81L624.75 159.47M624.75 159.47L624.33 160.23M624.33 160.23L624.25 161.02"
fill="none" stroke="black" stroke-width="2"/>
<path d="M681.53 155.6L681.29 154.95M681.29 154.95L680.69 154.39M680.69 154.39L679.8 153.97M679.8 153.97L678.7 153.74M678.7 153.74L677.5 153.72M677.5 153.72L676.33 153.91M676.33 153.91L675.29 154.29M675.29 154.29L674.49 154.82M674.49 154.82L674.01 155.46M674.01 155.46L673.9 156.13"
fill="none" stroke="black" stroke-width="2"/>
<path d="M740.42 153.78L739.92 153.3M739.92 153.3L739.1 152.9M739.1 152.9L738.04 152.61M738.04 152.61L736.83 152.47M736.83 152.47L735.57 152.49M735.57 152.49L734.38 152.66M734.38 152.66L733.36 152.96M733.36 152.96L732.6 153.38M732.6 153.38L732.17 153.88M732.17 153.88L732.1 154.4"
fill="none" stroke="black" stroke-width="2"/>
<path d="M792.82 156.85L792.78 156.55M792.78 156.55L792.38 156.23M792.38 156.23L791.64 155.94M791.64 155.94L790.63 155.68M790.63 155.68L789.46 155.5M789.46 155.5L788.21 155.4M788.21 155.4L787.03 155.39M787.03 155.39L786 155.48M786 155.48L785.23 155.65M785.23 155.65L784.79 155.9M784.79 155.9L784.71 156.19"
fill="none" stroke="black" stroke-width="2"/>
</svg>
