<?xml version="1.0" encoding="UTF-8"?>
<svg xmlns="http://www.w3.org/2000/svg" width="800.000" height="600.000" viewBox="0.0 0.0 800.000 600.000" version="1.1">
  <title>Produce by Acme CAD Converter</title>
  <desc>Produce by Acme CAD Converter</desc>
<path d="M2.26 80.25L2.26 519.75"
fill="none" stroke="black" stroke-width="0"/>
<path d="M2.7 316.01L63.5 318.19M63.5 318.19L124.31 320.03"
fill="none" stroke="RGB(2,158,33)" stroke-width="2"/>
<path d="M142.76 320.52L187.31 321.57M187.31 321.57L231.87 322.43"
fill="none" stroke="RGB(2,158,33)" stroke-width="2"/>
<path d="M250.4 322.73L296.15 323.35M296.15 323.35L341.91 323.77"
fill="none" stroke="RGB(2,158,33)" stroke-width="2"/>
<path d="M360.51 323.88L412.84 324.03M412.84 324.03L465.17 323.92"
fill="none" stroke="RGB(2,158,33)" stroke-width="2"/>
<path d="M483.86 323.82L540.09 323.32M540.09 323.32L596.32 322.53"
fill="none" stroke="RGB(2,158,33)" stroke-width="2"/>
<path d="M615.1 322.2L675.99 320.9M675.99 320.9L736.87 319.25M736.87 319.25L797.74 317.26"
fill="none" stroke="RGB(2,158,33)" stroke-width="2"/>
<path d="M2.26 300L62.5 302.16M62.5 302.16L122.75 303.99M122.75 303.99L183.01 305.47"
fill="none" stroke="RGB(2,158,33)" stroke-width="2"/>
<path d="M201.51 305.86L246.92 306.67M246.92 306.67L292.32 307.3"
fill="none" stroke="RGB(2,158,33)" stroke-width="2"/>
<path d="M308.4 307.47L356.26 307.85M356.26 307.85L404.13 308.01"
fill="none" stroke="RGB(2,158,33)" stroke-width="2"/>
<path d="M422.77 308.02L477.98 307.84M477.98 307.84L533.18 307.38"
fill="none" stroke="RGB(2,158,33)" stroke-width="2"/>
<path d="M551.92 307.16L605.89 306.34M605.89 306.34L659.86 305.25"
fill="none" stroke="RGB(2,158,33)" stroke-width="2"/>
<path d="M678.68 304.81L738 303.19M738 303.19L797.3 301.25"
fill="none" stroke="RGB(2,158,33)" stroke-width="2"/>
<path d="M2.26 308.05L64.85 310.29M64.85 310.29L127.44 312.16"
fill="none" stroke="RGB(2,158,33)" stroke-width="2"/>
<path d="M145.22 312.63L181.8 313.49"
fill="none" stroke="RGB(2,158,33)" stroke-width="2"/>
<path d="M198.33 313.84L235.02 314.53"
fill="none" stroke="RGB(2,158,33)" stroke-width="2"/>
<path d="M252.91 314.81L290.83 315.33"
fill="none" stroke="RGB(2,158,33)" stroke-width="2"/>
<path d="M306.97 315.5L345.07 315.83"
fill="none" stroke="RGB(2,158,33)" stroke-width="2"/>
<path d="M362.61 315.93L402.75 316.06"
fill="none" stroke="RGB(2,158,33)" stroke-width="2"/>
<path d="M419.57 316.06L468.35 315.94"
fill="none" stroke="RGB(2,158,33)" stroke-width="2"/>
<path d="M485.5 315.84L531.4 315.45"
fill="none" stroke="RGB(2,158,33)" stroke-width="2"/>
<path d="M548.7 315.25L599.52 314.5"
fill="none" stroke="RGB(2,158,33)" stroke-width="2"/>
<path d="M617.19 314.19L658.51 313.33"
fill="none" stroke="RGB(2,158,33)" stroke-width="2"/>
<path d="M675.45 312.94L736.38 311.29M736.38 311.29L797.3 309.29"
fill="none" stroke="RGB(2,158,33)" stroke-width="2"/>
<path d="M123.67 321.63L139.81 321.63M139.81 321.63L139.81 327.93M139.81 327.93L123.67 327.93M123.67 327.93L123.67 321.63"
fill="none" stroke="black" stroke-width="2"/>
<path d="M123.67 321.63L129.08 308.05"
fill="none" stroke="black" stroke-width="2"/>
<path d="M139.81 321.63L145.22 308.05"
fill="none" stroke="black" stroke-width="2"/>
<path d="M139.81 327.93L145.22 314.34"
fill="none" stroke="black" stroke-width="2"/>
<path d="M129.08 308.05L145.22 308.05"
fill="none" stroke="black" stroke-width="2"/>
<path d="M145.22 308.05L145.22 314.34"
fill="none" stroke="black" stroke-width="2"/>
<path d="M181.8 308.51L197.95 308.51M197.95 308.51L197.95 314.81M197.95 314.81L181.8 314.81M181.8 314.81L181.8 308.51"
fill="none" stroke="black" stroke-width="2"/>
<path d="M181.8 308.51L187.21 294.93"
fill="none" stroke="black" stroke-width="2"/>
<path d="M197.95 308.51L203.35 294.93"
fill="none" stroke="black" stroke-width="2"/>
<path d="M197.95 314.81L203.35 301.23"
fill="none" stroke="black" stroke-width="2"/>
<path d="M187.21 294.93L203.35 294.93"
fill="none" stroke="black" stroke-width="2"/>
<path d="M203.35 294.93L203.35 301.23"
fill="none" stroke="black" stroke-width="2"/>
<path d="M231.36 323.72L247.5 323.72M247.5 323.72L247.5 330.01M247.5 330.01L231.36 330.01M231.36 330.01L231.36 323.72"
fill="none" stroke="black" stroke-width="2"/>
<path d="M231.36 323.72L236.77 310.14"
fill="none" stroke="black" stroke-width="2"/>
<path d="M247.5 323.72L252.91 310.14"
fill="none" stroke="black" stroke-width="2"/>
<path d="M247.5 330.01L252.91 316.43"
fill="none" stroke="black" stroke-width="2"/>
<path d="M236.77 310.14L252.91 310.14"
fill="none" stroke="black" stroke-width="2"/>
<path d="M252.91 310.14L252.91 316.43"
fill="none" stroke="black" stroke-width="2"/>
<path d="M290.83 311.06L306.97 311.06M306.97 311.06L306.97 317.35M306.97 317.35L290.83 317.35M290.83 317.35L290.83 311.06"
fill="none" stroke="black" stroke-width="2"/>
<path d="M290.83 311.06L296.23 297.48"
fill="none" stroke="black" stroke-width="2"/>
<path d="M306.97 311.06L312.38 297.48"
fill="none" stroke="black" stroke-width="2"/>
<path d="M306.97 317.35L312.38 303.77"
fill="none" stroke="black" stroke-width="2"/>
<path d="M296.23 297.48L312.38 297.48"
fill="none" stroke="black" stroke-width="2"/>
<path d="M312.38 297.48L312.38 303.77"
fill="none" stroke="black" stroke-width="2"/>
<path d="M341.06 325.89L357.21 325.89M357.21 325.89L357.21 332.19M357.21 332.19L341.06 332.19M341.06 332.19L341.06 325.89"
fill="none" stroke="black" stroke-width="2"/>
<path d="M341.06 325.89L346.47 312.31"
fill="none" stroke="black" stroke-width="2"/>
<path d="M357.21 325.89L362.61 312.31"
fill="none" stroke="black" stroke-width="2"/>
<path d="M357.21 332.19L362.61 318.61"
fill="none" stroke="black" stroke-width="2"/>
<path d="M346.47 312.31L362.61 312.31"
fill="none" stroke="black" stroke-width="2"/>
<path d="M362.61 312.31L362.61 318.61"
fill="none" stroke="black" stroke-width="2"/>
<path d="M402.75 311.48L418.89 311.48M418.89 311.48L418.89 317.77M418.89 317.77L402.75 317.77M402.75 317.77L402.75 311.48"
fill="none" stroke="black" stroke-width="2"/>
<path d="M402.75 311.48L408.16 297.89"
fill="none" stroke="black" stroke-width="2"/>
<path d="M418.89 311.48L424.3 297.89"
fill="none" stroke="black" stroke-width="2"/>
<path d="M418.89 317.77L424.3 304.19"
fill="none" stroke="black" stroke-width="2"/>
<path d="M408.16 297.89L424.3 297.89"
fill="none" stroke="black" stroke-width="2"/>
<path d="M424.3 297.89L424.3 304.19"
fill="none" stroke="black" stroke-width="2"/>
<path d="M463.95 326.99L480.09 326.99M480.09 326.99L480.09 333.28M480.09 333.28L463.95 333.28M463.95 333.28L463.95 326.99"
fill="none" stroke="black" stroke-width="2"/>
<path d="M463.95 326.99L469.36 313.41"
fill="none" stroke="black" stroke-width="2"/>
<path d="M480.09 326.99L485.5 313.41"
fill="none" stroke="black" stroke-width="2"/>
<path d="M480.09 333.28L485.5 319.7"
fill="none" stroke="black" stroke-width="2"/>
<path d="M469.36 313.41L485.5 313.41"
fill="none" stroke="black" stroke-width="2"/>
<path d="M485.5 313.41L485.5 319.7"
fill="none" stroke="black" stroke-width="2"/>
<path d="M531.4 311.86L547.55 311.86M547.55 311.86L547.55 318.15M547.55 318.15L531.4 318.15M531.4 318.15L531.4 311.86"
fill="none" stroke="black" stroke-width="2"/>
<path d="M531.4 311.86L536.81 298.27"
fill="none" stroke="black" stroke-width="2"/>
<path d="M547.55 311.86L552.95 298.27"
fill="none" stroke="black" stroke-width="2"/>
<path d="M547.55 318.15L552.95 304.57"
fill="none" stroke="black" stroke-width="2"/>
<path d="M536.81 298.27L552.95 298.27"
fill="none" stroke="black" stroke-width="2"/>
<path d="M552.95 298.27L552.95 304.57"
fill="none" stroke="black" stroke-width="2"/>
<path d="M595.64 324.24L611.79 324.24M611.79 324.24L611.79 330.53M611.79 330.53L595.64 330.53M595.64 330.53L595.64 324.24"
fill="none" stroke="black" stroke-width="2"/>
<path d="M595.64 324.24L601.05 310.65"
fill="none" stroke="black" stroke-width="2"/>
<path d="M611.79 324.24L617.19 310.65"
fill="none" stroke="black" stroke-width="2"/>
<path d="M611.79 330.53L617.19 316.95"
fill="none" stroke="black" stroke-width="2"/>
<path d="M601.05 310.65L617.19 310.65"
fill="none" stroke="black" stroke-width="2"/>
<path d="M617.19 310.65L617.19 316.95"
fill="none" stroke="black" stroke-width="2"/>
<path d="M658.51 308.65L674.65 308.65M674.65 308.65L674.65 314.94M674.65 314.94L658.51 314.94M658.51 314.94L658.51 308.65"
fill="none" stroke="black" stroke-width="2"/>
<path d="M658.51 308.65L663.92 295.06"
fill="none" stroke="black" stroke-width="2"/>
<path d="M674.65 308.65L680.06 295.06"
fill="none" stroke="black" stroke-width="2"/>
<path d="M674.65 314.94L680.06 301.36"
fill="none" stroke="black" stroke-width="2"/>
<path d="M663.92 295.06L680.06 295.06"
fill="none" stroke="black" stroke-width="2"/>
<path d="M680.06 295.06L680.06 301.36"
fill="none" stroke="black" stroke-width="2"/>
</svg>
