<?xml version="1.0" encoding="UTF-8"?>
<svg xmlns="http://www.w3.org/2000/svg" width="800.000" height="600.000" viewBox="0.0 0.0 800.000 600.000" version="1.1">
  <title>Produce by Acme CAD Converter</title>
  <desc>Produce by Acme CAD Converter</desc>
<path d="M2.26 80.73L2.26 519.27"
fill="none" stroke="RGB(237,31,36)" stroke-width="0"/>
<path d="M2.69 315.98L65.34 318.22M65.34 318.22L128 320.09"
fill="none" stroke="RGB(2,158,33)" stroke-width="2"/>
<path d="M142.7 320.48L201.68 321.83M201.68 321.83L260.66 322.85M260.66 322.85L319.66 323.54"
fill="none" stroke="RGB(2,158,33)" stroke-width="2"/>
<path d="M333.93 323.66L396.14 323.96M396.14 323.96L458.35 323.89M458.35 323.89L520.56 323.47"
fill="none" stroke="RGB(2,158,33)" stroke-width="2"/>
<path d="M535.32 323.31L600.5 322.39M600.5 322.39L665.67 321.06M665.67 321.06L730.84 319.34M730.84 319.34L795.99 317.22"
fill="none" stroke="RGB(2,158,33)" stroke-width="2"/>
<path d="M2.26 300L67.13 302.31M67.13 302.31L132.02 304.23"
fill="none" stroke="RGB(2,158,33)" stroke-width="2"/>
<path d="M146.71 304.61L199.13 305.81M199.13 305.81L251.55 306.74"
fill="none" stroke="RGB(2,158,33)" stroke-width="2"/>
<path d="M266.4 306.96L323.2 307.6"
fill="none" stroke="RGB(2,158,33)" stroke-width="2"/>
<path d="M337.96 307.72L391.13 307.97M391.13 307.97L444.31 307.96"
fill="none" stroke="RGB(2,158,33)" stroke-width="2"/>
<path d="M459.09 307.91L524.54 307.44"
fill="none" stroke="RGB(2,158,33)" stroke-width="2"/>
<path d="M539.37 307.28L591.98 306.54M591.98 306.54L644.58 305.55"
fill="none" stroke="RGB(2,158,33)" stroke-width="2"/>
<path d="M659.29 305.22L704.72 304.09M704.72 304.09L750.14 302.76M750.14 302.76L795.56 301.24"
fill="none" stroke="RGB(2,158,33)" stroke-width="2"/>
<path d="M2.82 156.6L45.43 159.07M45.43 159.07L88.05 161.26M88.05 161.26L130.69 163.18M130.69 163.18L173.33 164.82M173.33 164.82L215.99 166.19"
fill="none" stroke="RGB(2,158,33)" stroke-width="2"/>
<path d="M230.89 166.6L275.44 167.62M275.44 167.62L320 168.35M320 168.35L364.56 168.77M364.56 168.77L409.12 168.89"
fill="none" stroke="RGB(2,158,33)" stroke-width="2"/>
<path d="M423.91 168.86L470.24 168.56M470.24 168.56L516.56 167.93M516.56 167.93L562.89 166.98M562.89 166.98L609.2 165.7"
fill="none" stroke="RGB(2,158,33)" stroke-width="2"/>
<path d="M623.87 165.22L667.36 163.63M667.36 163.63L710.83 161.74M710.83 161.74L754.29 159.57M754.29 159.57L797.74 157.1"
fill="none" stroke="RGB(2,158,33)" stroke-width="2"/>
<path d="M2.82 156.6L85.61 158.74M85.61 158.74L168.42 160.4"
fill="none" stroke="RGB(2,158,33)" stroke-width="2"/>
<path d="M180.5 160.6L214.71 161.11"
fill="none" stroke="RGB(2,158,33)" stroke-width="2"/>
<path d="M229.55 161.31L294.75 161.99M294.75 161.99L359.94 162.37"
fill="none" stroke="RGB(2,158,33)" stroke-width="2"/>
<path d="M374.53 162.41L407.49 162.46"
fill="none" stroke="RGB(2,158,33)" stroke-width="2"/>
<path d="M422.28 162.45L491.94 162.21M491.94 162.21L561.6 161.63"
fill="none" stroke="RGB(2,158,33)" stroke-width="2"/>
<path d="M574.74 161.49L608.03 161.06"
fill="none" stroke="RGB(2,158,33)" stroke-width="2"/>
<path d="M622.76 160.84L710.26 159.24M710.26 159.24L797.74 157.1"
fill="none" stroke="RGB(2,158,33)" stroke-width="2"/>
<path d="M168.4 160.45L127.25 323.09"
fill="none" stroke="black" stroke-width="2"/>
<path d="M182.33 163.84L182.21 162.88M182.21 162.88L181.73 161.9M181.73 161.9L180.91 160.96M180.91 160.96L179.8 160.09M179.8 160.09L178.46 159.35M178.46 159.35L176.95 158.77M176.95 158.77L175.36 158.38M175.36 158.38L173.76 158.2M173.76 158.2L172.25 158.25M172.25 158.25L170.89 158.52M170.89 158.52L169.76 158.99M169.76 158.99L168.91 159.64M168.91 159.64L168.4 160.45"
fill="none" stroke="black" stroke-width="2"/>
<path d="M168.26 161L168.33 161.95M168.33 161.95L168.76 162.93M168.76 162.93L169.53 163.88M169.53 163.88L170.6 164.76M170.6 164.76L171.91 165.53M171.91 165.53L173.4 166.13M173.4 166.13L174.99 166.55M174.99 166.55L176.59 166.75M176.59 166.75L178.12 166.74M178.12 166.74L179.51 166.5M179.51 166.5L180.67 166.06M180.67 166.06L181.56 165.43M181.56 165.43L182.13 164.64"
fill="none" stroke="black" stroke-width="2"/>
<path d="M182.33 163.84L141.12 326.74"
fill="none" stroke="black" stroke-width="2"/>
<path d="M127.25 323.09L127.32 324.04M127.32 324.04L127.75 325.02M127.75 325.02L128.52 325.97M128.52 325.97L129.59 326.85M129.59 326.85L130.9 327.62M130.9 327.62L132.39 328.22M132.39 328.22L133.97 328.64M133.97 328.64L135.58 328.85M135.58 328.85L137.11 328.83M137.11 328.83L138.5 328.59M138.5 328.59L139.66 328.15M139.66 328.15L140.55 327.52M140.55 327.52L141.12 326.74"
fill="none" stroke="black" stroke-width="2"/>
<path d="M174.23 166.38L174.36 166.41"
fill="none" stroke="black" stroke-width="2"/>
<path d="M226.8 150.43L267.95 313.08"
fill="none" stroke="black" stroke-width="2"/>
<path d="M212.86 153.82L212.99 152.87M212.99 152.87L213.47 151.89M213.47 151.89L214.29 150.94M214.29 150.94L215.39 150.08M215.39 150.08L216.73 149.33M216.73 149.33L218.24 148.75M218.24 148.75L219.83 148.37M219.83 148.37L221.43 148.19M221.43 148.19L222.95 148.24M222.95 148.24L224.31 148.51M224.31 148.51L225.44 148.98M225.44 148.98L226.28 149.63M226.28 149.63L226.8 150.43"
fill="none" stroke="black" stroke-width="2"/>
<path d="M226.94 150.99L226.87 151.94M226.87 151.94L226.44 152.91M226.44 152.91L225.66 153.87M225.66 153.87L224.6 154.75M224.6 154.75L223.28 155.51M223.28 155.51L221.8 156.12M221.8 156.12L220.21 156.54M220.21 156.54L218.61 156.74M218.61 156.74L217.07 156.73M217.07 156.73L215.69 156.49M215.69 156.49L214.52 156.04M214.52 156.04L213.63 155.41M213.63 155.41L213.07 154.63"
fill="none" stroke="black" stroke-width="2"/>
<path d="M212.86 153.82L254.08 316.72"
fill="none" stroke="black" stroke-width="2"/>
<path d="M267.95 313.08L267.88 314.03M267.88 314.03L267.45 315.01M267.45 315.01L266.68 315.96M266.68 315.96L265.61 316.84M265.61 316.84L264.29 317.61M264.29 317.61L262.81 318.21M262.81 318.21L261.22 318.63M261.22 318.63L259.62 318.83M259.62 318.83L258.09 318.82M258.09 318.82L256.7 318.58M256.7 318.58L255.53 318.14M255.53 318.14L254.64 317.51M254.64 317.51L254.08 316.72"
fill="none" stroke="black" stroke-width="2"/>
<path d="M220.96 156.36L220.83 156.4"
fill="none" stroke="black" stroke-width="2"/>
<path d="M561.73 160.45L520.58 323.09"
fill="none" stroke="black" stroke-width="2"/>
<path d="M575.66 163.84L575.54 162.88M575.54 162.88L575.06 161.9M575.06 161.9L574.24 160.96M574.24 160.96L573.13 160.09M573.13 160.09L571.79 159.35M571.79 159.35L570.29 158.77M570.29 158.77L568.69 158.38M568.69 158.38L567.1 158.2M567.1 158.2L565.58 158.25M565.58 158.25L564.22 158.52M564.22 158.52L563.09 158.99M563.09 158.99L562.24 159.64M562.24 159.64L561.73 160.45"
fill="none" stroke="black" stroke-width="2"/>
<path d="M561.59 161L561.66 161.95M561.66 161.95L562.09 162.93M562.09 162.93L562.86 163.88M562.86 163.88L563.93 164.76M563.93 164.76L565.24 165.53M565.24 165.53L566.73 166.13M566.73 166.13L568.32 166.55M568.32 166.55L569.92 166.75M569.92 166.75L571.45 166.74M571.45 166.74L572.84 166.5M572.84 166.5L574.01 166.06M574.01 166.06L574.9 165.43M574.9 165.43L575.46 164.64"
fill="none" stroke="black" stroke-width="2"/>
<path d="M575.66 163.84L534.45 326.74"
fill="none" stroke="black" stroke-width="2"/>
<path d="M520.58 323.09L520.65 324.04M520.65 324.04L521.08 325.02M521.08 325.02L521.85 325.97M521.85 325.97L522.92 326.85M522.92 326.85L524.23 327.62M524.23 327.62L525.72 328.22M525.72 328.22L527.31 328.64M527.31 328.64L528.91 328.85M528.91 328.85L530.44 328.83M530.44 328.83L531.83 328.59M531.83 328.59L533 328.15M533 328.15L533.89 327.52M533.89 327.52L534.45 326.74"
fill="none" stroke="black" stroke-width="2"/>
<path d="M567.57 166.38L567.7 166.41"
fill="none" stroke="black" stroke-width="2"/>
<path d="M620.13 150.43L661.28 313.08"
fill="none" stroke="black" stroke-width="2"/>
<path d="M606.2 153.82L606.32 152.87M606.32 152.87L606.8 151.89M606.8 151.89L607.62 150.94M607.62 150.94L608.73 150.08M608.73 150.08L610.07 149.33M610.07 149.33L611.57 148.75M611.57 148.75L613.17 148.37M613.17 148.37L614.76 148.19M614.76 148.19L616.28 148.24M616.28 148.24L617.64 148.51M617.64 148.51L618.77 148.98M618.77 148.98L619.62 149.63M619.62 149.63L620.13 150.43"
fill="none" stroke="black" stroke-width="2"/>
<path d="M620.27 150.99L620.2 151.94M620.2 151.94L619.77 152.91M619.77 152.91L619 153.87M619 153.87L617.93 154.75M617.93 154.75L616.62 155.51M616.62 155.51L615.13 156.12M615.13 156.12L613.54 156.54M613.54 156.54L611.94 156.74M611.94 156.74L610.41 156.73M610.41 156.73L609.02 156.49M609.02 156.49L607.85 156.04M607.85 156.04L606.96 155.41M606.96 155.41L606.4 154.63"
fill="none" stroke="black" stroke-width="2"/>
<path d="M606.2 153.82L647.41 316.72"
fill="none" stroke="black" stroke-width="2"/>
<path d="M661.28 313.08L661.21 314.03M661.21 314.03L660.78 315.01M660.78 315.01L660.01 315.96M660.01 315.96L658.94 316.84M658.94 316.84L657.63 317.61M657.63 317.61L656.14 318.21M656.14 318.21L654.55 318.63M654.55 318.63L652.95 318.83M652.95 318.83L651.42 318.82M651.42 318.82L650.03 318.58M650.03 318.58L648.86 318.14M648.86 318.14L647.97 317.51M647.97 317.51L647.41 316.72"
fill="none" stroke="black" stroke-width="2"/>
<path d="M614.29 156.36L614.16 156.4"
fill="none" stroke="black" stroke-width="2"/>
<path d="M360.64 159.63L319.48 322.28"
fill="none" stroke="black" stroke-width="2"/>
<path d="M374.57 163.02L374.45 162.07M374.45 162.07L373.96 161.09M373.96 161.09L373.15 160.14M373.15 160.14L372.04 159.28M372.04 159.28L370.7 158.53M370.7 158.53L369.19 157.95M369.19 157.95L367.6 157.57M367.6 157.57L366 157.39M366 157.39L364.49 157.44M364.49 157.44L363.13 157.7M363.13 157.7L361.99 158.18M361.99 158.18L361.15 158.83M361.15 158.83L360.64 159.63"
fill="none" stroke="black" stroke-width="2"/>
<path d="M360.49 160.19L360.57 161.14M360.57 161.14L361 162.11M361 162.11L361.77 163.07M361.77 163.07L362.84 163.95M362.84 163.95L364.15 164.71M364.15 164.71L365.64 165.32M365.64 165.32L367.22 165.73M367.22 165.73L368.83 165.94M368.83 165.94L370.36 165.92M370.36 165.92L371.75 165.69M371.75 165.69L372.91 165.24M372.91 165.24L373.8 164.61M373.8 164.61L374.37 163.83"
fill="none" stroke="black" stroke-width="2"/>
<path d="M374.57 163.02L333.36 325.92"
fill="none" stroke="black" stroke-width="2"/>
<path d="M319.48 322.28L319.56 323.23M319.56 323.23L319.99 324.21M319.99 324.21L320.76 325.16M320.76 325.16L321.83 326.04M321.83 326.04L323.14 326.8M323.14 326.8L324.63 327.41M324.63 327.41L326.21 327.83M326.21 327.83L327.81 328.03M327.81 328.03L329.35 328.02M329.35 328.02L330.74 327.78M330.74 327.78L331.9 327.34M331.9 327.34L332.79 326.71M332.79 326.71L333.36 325.92"
fill="none" stroke="black" stroke-width="2"/>
<path d="M366.47 165.56L366.6 165.6"
fill="none" stroke="black" stroke-width="2"/>
<path d="M419.04 149.62L460.19 312.27"
fill="none" stroke="black" stroke-width="2"/>
<path d="M405.1 153.01L405.23 152.05M405.23 152.05L405.71 151.08M405.71 151.08L406.52 150.13M406.52 150.13L407.63 149.26M407.63 149.26L408.97 148.52M408.97 148.52L410.48 147.94M410.48 147.94L412.07 147.55M412.07 147.55L413.67 147.38M413.67 147.38L415.19 147.43M415.19 147.43L416.55 147.69M416.55 147.69L417.68 148.17M417.68 148.17L418.52 148.82M418.52 148.82L419.04 149.62"
fill="none" stroke="black" stroke-width="2"/>
<path d="M419.18 150.18L419.11 151.12M419.11 151.12L418.67 152.1M418.67 152.1L417.9 153.05M417.9 153.05L416.83 153.94M416.83 153.94L415.52 154.7M415.52 154.7L414.03 155.3M414.03 155.3L412.45 155.72M412.45 155.72L410.85 155.93M410.85 155.93L409.31 155.91M409.31 155.91L407.93 155.68M407.93 155.68L406.76 155.23M406.76 155.23L405.87 154.6M405.87 154.6L405.31 153.82"
fill="none" stroke="black" stroke-width="2"/>
<path d="M405.1 153.01L446.32 315.91"
fill="none" stroke="black" stroke-width="2"/>
<path d="M460.19 312.27L460.12 313.22M460.12 313.22L459.68 314.19M459.68 314.19L458.91 315.15M458.91 315.15L457.84 316.03M457.84 316.03L456.53 316.79M456.53 316.79L455.04 317.4M455.04 317.4L453.46 317.81M453.46 317.81L451.86 318.02M451.86 318.02L450.32 318M450.32 318L448.94 317.77M448.94 317.77L447.77 317.32M447.77 317.32L446.88 316.69M446.88 316.69L446.32 315.91"
fill="none" stroke="black" stroke-width="2"/>
<path d="M413.2 155.55L413.07 155.58"
fill="none" stroke="black" stroke-width="2"/>
</svg>
