<?xml version="1.0" encoding="UTF-8"?>
<svg xmlns="http://www.w3.org/2000/svg" width="800.000" height="600.000" viewBox="0.0 0.0 800.000 600.000" version="1.1">
  <title>Produce by Acme CAD Converter</title>
  <desc>Produce by Acme CAD Converter</desc>
<path d="M2.26 80.73L2.26 519.27"
fill="none" stroke="RGB(237,31,36)" stroke-width="0"/>
<path d="M2.82 156.6L52.46 159.45M52.46 159.45L102.11 161.93M102.11 161.93L151.77 164.03M151.77 164.03L201.46 165.75M201.46 165.75L251.15 167.1M251.15 167.1L300.85 168.07M300.85 168.07L350.56 168.67M350.56 168.67L400.27 168.89M400.27 168.89L449.98 168.73M449.98 168.73L499.69 168.2M499.69 168.2L549.4 167.29M549.4 167.29L599.09 166.01M599.09 166.01L648.78 164.34M648.78 164.34L698.45 162.31M698.45 162.31L748.1 159.89M748.1 159.89L797.74 157.1"
fill="none" stroke="RGB(2,158,33)" stroke-width="2"/>
<path d="M2.82 156.6L91.13 158.87M91.13 158.87L179.45 160.58M179.45 160.58L267.78 161.75M267.78 161.75L356.11 162.36M356.11 162.36L444.44 162.41M444.44 162.41L532.78 161.92M532.78 161.92L621.11 160.87M621.11 160.87L709.43 159.26M709.43 159.26L797.74 157.1"
fill="none" stroke="RGB(2,158,33)" stroke-width="2"/>
<path d="M145.72 295.75L138.58 322.07"
fill="none" stroke="black" stroke-width="2"/>
<path d="M137.53 293.53L130.39 319.85"
fill="none" stroke="black" stroke-width="2"/>
<path d="M130.25 320.96L130.44 319.71M130.44 319.71L130.98 318.57M130.98 318.57L131.84 317.64M131.84 317.64L132.94 317.01M132.94 317.01L134.17 316.73M134.17 316.73L135.43 316.82M135.43 316.82L136.61 317.28M136.61 317.28L137.6 318.07M137.6 318.07L138.31 319.12M138.31 319.12L138.68 320.33M138.68 320.33L138.68 321.59M138.68 321.59L138.31 322.8M138.31 322.8L137.6 323.84M137.6 323.84L136.61 324.63M136.61 324.63L135.43 325.09M135.43 325.09L134.17 325.19M134.17 325.19L132.94 324.91M132.94 324.91L131.84 324.27M131.84 324.27L130.98 323.35M130.98 323.35L130.44 322.21M130.44 322.21L130.25 320.96"
fill="none" stroke="black" stroke-width="2"/>
<path d="M145.72 295.75L145.87 294.55M145.87 294.55L145.67 293.36M145.67 293.36L145.15 292.27M145.15 292.27L144.34 291.38M144.34 291.38L143.31 290.75M143.31 290.75L142.15 290.43M142.15 290.43L140.94 290.46M140.94 290.46L139.79 290.82M139.79 290.82L138.78 291.49M138.78 291.49L138.01 292.42M138.01 292.42L137.53 293.53"
fill="none" stroke="black" stroke-width="2"/>
<path d="M134.79 315.62L134.79 163.35"
fill="none" stroke="black" stroke-width="2"/>
<path d="M141.44 291.12L141.44 159.91"
fill="none" stroke="black" stroke-width="2"/>
<path d="M135.1 315.62L135.01 315.46M135.01 315.46L134.79 315.4M134.79 315.4L134.58 315.46M134.58 315.46L134.49 315.62M134.49 315.62L134.58 315.77M134.58 315.77L134.79 315.84M134.79 315.84L135.01 315.77M135.01 315.77L135.1 315.62"
fill="none" stroke="black" stroke-width="2"/>
<path d="M141.75 291.12L141.66 290.97M141.66 290.97L141.44 290.9M141.44 290.9L141.23 290.97M141.23 290.97L141.14 291.12M141.14 291.12L141.23 291.28M141.23 291.28L141.44 291.34M141.44 291.34L141.66 291.28M141.66 291.28L141.75 291.12"
fill="none" stroke="black" stroke-width="2"/>
<path d="M197.02 296.7L189.88 323.02"
fill="none" stroke="black" stroke-width="2"/>
<path d="M188.83 294.48L181.69 320.8"
fill="none" stroke="black" stroke-width="2"/>
<path d="M181.54 321.91L181.73 320.66M181.73 320.66L182.28 319.52M182.28 319.52L183.14 318.59M183.14 318.59L184.23 317.96M184.23 317.96L185.47 317.68M185.47 317.68L186.73 317.77M186.73 317.77L187.9 318.24M187.9 318.24L188.89 319.02M188.89 319.02L189.6 320.07M189.6 320.07L189.98 321.28M189.98 321.28L189.98 322.54M189.98 322.54L189.6 323.75M189.6 323.75L188.89 324.79M188.89 324.79L187.9 325.58M187.9 325.58L186.73 326.04M186.73 326.04L185.47 326.14M185.47 326.14L184.23 325.86M184.23 325.86L183.14 325.23M183.14 325.23L182.28 324.3M182.28 324.3L181.73 323.16M181.73 323.16L181.54 321.91"
fill="none" stroke="black" stroke-width="2"/>
<path d="M197.02 296.7L197.16 295.5M197.16 295.5L196.97 294.31M196.97 294.31L196.44 293.23M196.44 293.23L195.63 292.33M195.63 292.33L194.6 291.7M194.6 291.7L193.44 291.38M193.44 291.38L192.23 291.41M192.23 291.41L191.08 291.77M191.08 291.77L190.08 292.45M190.08 292.45L189.31 293.37M189.31 293.37L188.83 294.48"
fill="none" stroke="black" stroke-width="2"/>
<path d="M186.09 316.57L186.09 165.26"
fill="none" stroke="black" stroke-width="2"/>
<path d="M192.73 292.07L192.73 160.79"
fill="none" stroke="black" stroke-width="2"/>
<path d="M186.39 316.57L186.3 316.41M186.3 316.41L186.09 316.35M186.09 316.35L185.87 316.41M185.87 316.41L185.78 316.57M185.78 316.57L185.87 316.72M185.87 316.72L186.09 316.79M186.09 316.79L186.3 316.72M186.3 316.72L186.39 316.57"
fill="none" stroke="black" stroke-width="2"/>
<path d="M193.04 292.07L192.95 291.92M192.95 291.92L192.73 291.85M192.73 291.85L192.52 291.92M192.52 291.92L192.43 292.07M192.43 292.07L192.52 292.23M192.52 292.23L192.73 292.29M192.73 292.29L192.95 292.23M192.95 292.23L193.04 292.07"
fill="none" stroke="black" stroke-width="2"/>
<path d="M251.56 295.78L244.42 322.1"
fill="none" stroke="black" stroke-width="2"/>
<path d="M243.37 293.56L236.23 319.88"
fill="none" stroke="black" stroke-width="2"/>
<path d="M236.08 320.99L236.27 319.74M236.27 319.74L236.82 318.6M236.82 318.6L237.68 317.67M237.68 317.67L238.77 317.04M238.77 317.04L240.01 316.76M240.01 316.76L241.27 316.85M241.27 316.85L242.44 317.31M242.44 317.31L243.43 318.1M243.43 318.1L244.14 319.15M244.14 319.15L244.52 320.35M244.52 320.35L244.52 321.62M244.52 321.62L244.14 322.83M244.14 322.83L243.43 323.87M243.43 323.87L242.44 324.66M242.44 324.66L241.27 325.12M241.27 325.12L240.01 325.22M240.01 325.22L238.77 324.93M238.77 324.93L237.68 324.3M237.68 324.3L236.82 323.38M236.82 323.38L236.27 322.24M236.27 322.24L236.08 320.99"
fill="none" stroke="black" stroke-width="2"/>
<path d="M251.56 295.78L251.7 294.58M251.7 294.58L251.51 293.39M251.51 293.39L250.98 292.3M250.98 292.3L250.17 291.41M250.17 291.41L249.14 290.77M249.14 290.77L247.98 290.46M247.98 290.46L246.77 290.48M246.77 290.48L245.62 290.85M245.62 290.85L244.62 291.52M244.62 291.52L243.85 292.45M243.85 292.45L243.37 293.56"
fill="none" stroke="black" stroke-width="2"/>
<path d="M240.63 315.64L240.63 166.85"
fill="none" stroke="black" stroke-width="2"/>
<path d="M247.27 291.15L247.27 161.53"
fill="none" stroke="black" stroke-width="2"/>
<path d="M240.93 315.64L240.84 315.49M240.84 315.49L240.63 315.42M240.63 315.42L240.41 315.49M240.41 315.49L240.32 315.64M240.32 315.64L240.41 315.8M240.41 315.8L240.63 315.87M240.63 315.87L240.84 315.8M240.84 315.8L240.93 315.64"
fill="none" stroke="black" stroke-width="2"/>
<path d="M247.58 291.15L247.49 290.99M247.49 290.99L247.27 290.93M247.27 290.93L247.06 290.99M247.06 290.99L246.97 291.15M246.97 291.15L247.06 291.31M247.06 291.31L247.27 291.37M247.27 291.37L247.49 291.31M247.49 291.31L247.58 291.15"
fill="none" stroke="black" stroke-width="2"/>
<path d="M307.01 295.75L299.87 322.07"
fill="none" stroke="black" stroke-width="2"/>
<path d="M298.82 293.53L291.68 319.85"
fill="none" stroke="black" stroke-width="2"/>
<path d="M291.54 320.96L291.72 319.71M291.72 319.71L292.27 318.57M292.27 318.57L293.13 317.64M293.13 317.64L294.23 317.01M294.23 317.01L295.46 316.73M295.46 316.73L296.72 316.82M296.72 316.82L297.9 317.28M297.9 317.28L298.89 318.07M298.89 318.07L299.6 319.12M299.6 319.12L299.97 320.33M299.97 320.33L299.97 321.59M299.97 321.59L299.6 322.8M299.6 322.8L298.89 323.84M298.89 323.84L297.9 324.63M297.9 324.63L296.72 325.09M296.72 325.09L295.46 325.19M295.46 325.19L294.23 324.91M294.23 324.91L293.13 324.27M293.13 324.27L292.27 323.35M292.27 323.35L291.72 322.21M291.72 322.21L291.54 320.96"
fill="none" stroke="black" stroke-width="2"/>
<path d="M307.01 295.75L307.16 294.55M307.16 294.55L306.96 293.36M306.96 293.36L306.44 292.27M306.44 292.27L305.63 291.38M305.63 291.38L304.6 290.75M304.6 290.75L303.43 290.43M303.43 290.43L302.23 290.46M302.23 290.46L301.08 290.82M301.08 290.82L300.07 291.49M300.07 291.49L299.3 292.42M299.3 292.42L298.82 293.53"
fill="none" stroke="black" stroke-width="2"/>
<path d="M296.08 315.62L296.08 168"
fill="none" stroke="black" stroke-width="2"/>
<path d="M302.73 291.12L302.73 162.05"
fill="none" stroke="black" stroke-width="2"/>
<path d="M296.39 315.62L296.3 315.46M296.3 315.46L296.08 315.4M296.08 315.4L295.87 315.46M295.87 315.46L295.78 315.62M295.78 315.62L295.87 315.77M295.87 315.77L296.08 315.84M296.08 315.84L296.3 315.77M296.3 315.77L296.39 315.62"
fill="none" stroke="black" stroke-width="2"/>
<path d="M303.03 291.12L302.95 290.97M302.95 290.97L302.73 290.9M302.73 290.9L302.51 290.97M302.51 290.97L302.43 291.12M302.43 291.12L302.51 291.28M302.51 291.28L302.73 291.34M302.73 291.34L302.95 291.28M302.95 291.28L303.03 291.12"
fill="none" stroke="black" stroke-width="2"/>
<path d="M358.31 296.7L351.17 323.02"
fill="none" stroke="black" stroke-width="2"/>
<path d="M350.12 294.48L342.98 320.8"
fill="none" stroke="black" stroke-width="2"/>
<path d="M342.83 321.91L343.02 320.66M343.02 320.66L343.57 319.52M343.57 319.52L344.43 318.59M344.43 318.59L345.52 317.96M345.52 317.96L346.75 317.68M346.75 317.68L348.02 317.77M348.02 317.77L349.19 318.24M349.19 318.24L350.18 319.02M350.18 319.02L350.89 320.07M350.89 320.07L351.27 321.28M351.27 321.28L351.27 322.54M351.27 322.54L350.89 323.75M350.89 323.75L350.18 324.79M350.18 324.79L349.19 325.58M349.19 325.58L348.02 326.04M348.02 326.04L346.75 326.14M346.75 326.14L345.52 325.86M345.52 325.86L344.43 325.23M344.43 325.23L343.57 324.3M343.57 324.3L343.02 323.16M343.02 323.16L342.83 321.91"
fill="none" stroke="black" stroke-width="2"/>
<path d="M358.31 296.7L358.45 295.5M358.45 295.5L358.26 294.31M358.26 294.31L357.73 293.23M357.73 293.23L356.92 292.33M356.92 292.33L355.89 291.7M355.89 291.7L354.73 291.38M354.73 291.38L353.52 291.41M353.52 291.41L352.37 291.77M352.37 291.77L351.37 292.45M351.37 292.45L350.6 293.37M350.6 293.37L350.12 294.48"
fill="none" stroke="black" stroke-width="2"/>
<path d="M347.37 316.57L347.37 168.64"
fill="none" stroke="black" stroke-width="2"/>
<path d="M354.02 292.07L354.02 162.35"
fill="none" stroke="black" stroke-width="2"/>
<path d="M347.68 316.57L347.59 316.41M347.59 316.41L347.37 316.35M347.37 316.35L347.16 316.41M347.16 316.41L347.07 316.57M347.07 316.57L347.16 316.72M347.16 316.72L347.37 316.79M347.37 316.79L347.59 316.72M347.59 316.72L347.68 316.57"
fill="none" stroke="black" stroke-width="2"/>
<path d="M354.33 292.07L354.24 291.92M354.24 291.92L354.02 291.85M354.02 291.85L353.81 291.92M353.81 291.92L353.72 292.07M353.72 292.07L353.81 292.23M353.81 292.23L354.02 292.29M354.02 292.29L354.24 292.23M354.24 292.23L354.33 292.07"
fill="none" stroke="black" stroke-width="2"/>
<path d="M412.85 295.78L405.71 322.1"
fill="none" stroke="black" stroke-width="2"/>
<path d="M404.66 293.56L397.52 319.88"
fill="none" stroke="black" stroke-width="2"/>
<path d="M397.37 320.99L397.56 319.74M397.56 319.74L398.11 318.6M398.11 318.6L398.97 317.67M398.97 317.67L400.06 317.04M400.06 317.04L401.29 316.76M401.29 316.76L402.56 316.85M402.56 316.85L403.73 317.31M403.73 317.31L404.72 318.1M404.72 318.1L405.43 319.15M405.43 319.15L405.81 320.35M405.81 320.35L405.81 321.62M405.81 321.62L405.43 322.83M405.43 322.83L404.72 323.87M404.72 323.87L403.73 324.66M403.73 324.66L402.56 325.12M402.56 325.12L401.29 325.22M401.29 325.22L400.06 324.93M400.06 324.93L398.97 324.3M398.97 324.3L398.11 323.38M398.11 323.38L397.56 322.24M397.56 322.24L397.37 320.99"
fill="none" stroke="black" stroke-width="2"/>
<path d="M412.85 295.78L412.99 294.58M412.99 294.58L412.8 293.39M412.8 293.39L412.27 292.3M412.27 292.3L411.46 291.41M411.46 291.41L410.43 290.77M410.43 290.77L409.27 290.46M409.27 290.46L408.06 290.48M408.06 290.48L406.91 290.85M406.91 290.85L405.91 291.52M405.91 291.52L405.14 292.45M405.14 292.45L404.66 293.56"
fill="none" stroke="black" stroke-width="2"/>
<path d="M401.91 315.64L401.91 168.89"
fill="none" stroke="black" stroke-width="2"/>
<path d="M408.56 291.15L408.56 162.46"
fill="none" stroke="black" stroke-width="2"/>
<path d="M402.22 315.64L402.13 315.49M402.13 315.49L401.91 315.42M401.91 315.42L401.7 315.49M401.7 315.49L401.61 315.64M401.61 315.64L401.7 315.8M401.7 315.8L401.91 315.87M401.91 315.87L402.13 315.8M402.13 315.8L402.22 315.64"
fill="none" stroke="black" stroke-width="2"/>
<path d="M408.87 291.15L408.78 290.99M408.78 290.99L408.56 290.93M408.56 290.93L408.35 290.99M408.35 290.99L408.26 291.15M408.26 291.15L408.35 291.31M408.35 291.31L408.56 291.37M408.56 291.37L408.78 291.31M408.78 291.31L408.87 291.15"
fill="none" stroke="black" stroke-width="2"/>
<path d="M465.34 295.75L458.2 322.07"
fill="none" stroke="black" stroke-width="2"/>
<path d="M457.15 293.53L450.01 319.85"
fill="none" stroke="black" stroke-width="2"/>
<path d="M449.87 320.96L450.05 319.71M450.05 319.71L450.6 318.57M450.6 318.57L451.46 317.64M451.46 317.64L452.56 317.01M452.56 317.01L453.79 316.73M453.79 316.73L455.05 316.82M455.05 316.82L456.23 317.28M456.23 317.28L457.22 318.07M457.22 318.07L457.93 319.12M457.93 319.12L458.3 320.33M458.3 320.33L458.3 321.59M458.3 321.59L457.93 322.8M457.93 322.8L457.22 323.84M457.22 323.84L456.23 324.63M456.23 324.63L455.05 325.09M455.05 325.09L453.79 325.19M453.79 325.19L452.56 324.91M452.56 324.91L451.46 324.27M451.46 324.27L450.6 323.35M450.6 323.35L450.05 322.21M450.05 322.21L449.87 320.96"
fill="none" stroke="black" stroke-width="2"/>
<path d="M465.34 295.75L465.49 294.55M465.49 294.55L465.29 293.36M465.29 293.36L464.77 292.27M464.77 292.27L463.96 291.38M463.96 291.38L462.93 290.75M462.93 290.75L461.76 290.43M461.76 290.43L460.56 290.46M460.56 290.46L459.41 290.82M459.41 290.82L458.4 291.49M458.4 291.49L457.63 292.42M457.63 292.42L457.15 293.53"
fill="none" stroke="black" stroke-width="2"/>
<path d="M454.41 315.62L454.41 168.7"
fill="none" stroke="black" stroke-width="2"/>
<path d="M461.06 291.12L461.06 162.36"
fill="none" stroke="black" stroke-width="2"/>
<path d="M454.72 315.62L454.63 315.46M454.63 315.46L454.41 315.4M454.41 315.4L454.2 315.46M454.2 315.46L454.11 315.62M454.11 315.62L454.2 315.77M454.2 315.77L454.41 315.84M454.41 315.84L454.63 315.77M454.63 315.77L454.72 315.62"
fill="none" stroke="black" stroke-width="2"/>
<path d="M461.36 291.12L461.28 290.97M461.28 290.97L461.06 290.9M461.06 290.9L460.84 290.97M460.84 290.97L460.76 291.12M460.76 291.12L460.84 291.28M460.84 291.28L461.06 291.34M461.06 291.34L461.28 291.28M461.28 291.28L461.36 291.12"
fill="none" stroke="black" stroke-width="2"/>
<path d="M516.64 296.7L509.5 323.02"
fill="none" stroke="black" stroke-width="2"/>
<path d="M508.45 294.48L501.31 320.8"
fill="none" stroke="black" stroke-width="2"/>
<path d="M501.16 321.91L501.35 320.66M501.35 320.66L501.9 319.52M501.9 319.52L502.76 318.59M502.76 318.59L503.85 317.96M503.85 317.96L505.08 317.68M505.08 317.68L506.35 317.77M506.35 317.77L507.52 318.24M507.52 318.24L508.51 319.02M508.51 319.02L509.22 320.07M509.22 320.07L509.6 321.28M509.6 321.28L509.6 322.54M509.6 322.54L509.22 323.75M509.22 323.75L508.51 324.79M508.51 324.79L507.52 325.58M507.52 325.58L506.35 326.04M506.35 326.04L505.08 326.14M505.08 326.14L503.85 325.86M503.85 325.86L502.76 325.23M502.76 325.23L501.9 324.3M501.9 324.3L501.35 323.16M501.35 323.16L501.16 321.91"
fill="none" stroke="black" stroke-width="2"/>
<path d="M516.64 296.7L516.78 295.5M516.78 295.5L516.59 294.31M516.59 294.31L516.06 293.23M516.06 293.23L515.25 292.33M515.25 292.33L514.22 291.7M514.22 291.7L513.06 291.38M513.06 291.38L511.85 291.41M511.85 291.41L510.7 291.77M510.7 291.77L509.7 292.45M509.7 292.45L508.93 293.37M508.93 293.37L508.45 294.48"
fill="none" stroke="black" stroke-width="2"/>
<path d="M505.71 316.57L505.71 168.11"
fill="none" stroke="black" stroke-width="2"/>
<path d="M512.35 292.07L512.35 162.08"
fill="none" stroke="black" stroke-width="2"/>
<path d="M506.01 316.57L505.92 316.41M505.92 316.41L505.71 316.35M505.71 316.35L505.49 316.41M505.49 316.41L505.4 316.57M505.4 316.57L505.49 316.72M505.49 316.72L505.71 316.79M505.71 316.79L505.92 316.72M505.92 316.72L506.01 316.57"
fill="none" stroke="black" stroke-width="2"/>
<path d="M512.66 292.07L512.57 291.92M512.57 291.92L512.35 291.85M512.35 291.85L512.14 291.92M512.14 291.92L512.05 292.07M512.05 292.07L512.14 292.23M512.14 292.23L512.35 292.29M512.35 292.29L512.57 292.23M512.57 292.23L512.66 292.07"
fill="none" stroke="black" stroke-width="2"/>
<path d="M571.18 295.78L564.04 322.1"
fill="none" stroke="black" stroke-width="2"/>
<path d="M562.99 293.56L555.85 319.88"
fill="none" stroke="black" stroke-width="2"/>
<path d="M555.7 320.99L555.89 319.74M555.89 319.74L556.44 318.6M556.44 318.6L557.3 317.67M557.3 317.67L558.39 317.04M558.39 317.04L559.62 316.76M559.62 316.76L560.89 316.85M560.89 316.85L562.06 317.31M562.06 317.31L563.05 318.1M563.05 318.1L563.76 319.15M563.76 319.15L564.14 320.35M564.14 320.35L564.14 321.62M564.14 321.62L563.76 322.83M563.76 322.83L563.05 323.87M563.05 323.87L562.06 324.66M562.06 324.66L560.89 325.12M560.89 325.12L559.62 325.22M559.62 325.22L558.39 324.93M558.39 324.93L557.3 324.3M557.3 324.3L556.44 323.38M556.44 323.38L555.89 322.24M555.89 322.24L555.7 320.99"
fill="none" stroke="black" stroke-width="2"/>
<path d="M571.18 295.78L571.32 294.58M571.32 294.58L571.13 293.39M571.13 293.39L570.6 292.3M570.6 292.3L569.79 291.41M569.79 291.41L568.76 290.77M568.76 290.77L567.6 290.46M567.6 290.46L566.39 290.48M566.39 290.48L565.24 290.85M565.24 290.85L564.24 291.52M564.24 291.52L563.47 292.45M563.47 292.45L562.99 293.56"
fill="none" stroke="black" stroke-width="2"/>
<path d="M560.24 315.64L560.24 167.04"
fill="none" stroke="black" stroke-width="2"/>
<path d="M566.89 291.15L566.89 161.58"
fill="none" stroke="black" stroke-width="2"/>
<path d="M560.55 315.64L560.46 315.49M560.46 315.49L560.24 315.42M560.24 315.42L560.03 315.49M560.03 315.49L559.94 315.64M559.94 315.64L560.03 315.8M560.03 315.8L560.24 315.87M560.24 315.87L560.46 315.8M560.46 315.8L560.55 315.64"
fill="none" stroke="black" stroke-width="2"/>
<path d="M567.2 291.15L567.11 290.99M567.11 290.99L566.89 290.93M566.89 290.93L566.68 290.99M566.68 290.99L566.59 291.15M566.59 291.15L566.68 291.31M566.68 291.31L566.89 291.37M566.89 291.37L567.11 291.31M567.11 291.31L567.2 291.15"
fill="none" stroke="black" stroke-width="2"/>
<path d="M624.82 296.7L617.68 323.02"
fill="none" stroke="black" stroke-width="2"/>
<path d="M616.63 294.48L609.49 320.8"
fill="none" stroke="black" stroke-width="2"/>
<path d="M609.34 321.91L609.53 320.66M609.53 320.66L610.08 319.52M610.08 319.52L610.94 318.59M610.94 318.59L612.03 317.96M612.03 317.96L613.26 317.68M613.26 317.68L614.53 317.77M614.53 317.77L615.7 318.24M615.7 318.24L616.69 319.02M616.69 319.02L617.4 320.07M617.4 320.07L617.78 321.28M617.78 321.28L617.78 322.54M617.78 322.54L617.4 323.75M617.4 323.75L616.69 324.79M616.69 324.79L615.7 325.58M615.7 325.58L614.53 326.04M614.53 326.04L613.26 326.14M613.26 326.14L612.03 325.86M612.03 325.86L610.94 325.23M610.94 325.23L610.08 324.3M610.08 324.3L609.53 323.16M609.53 323.16L609.34 321.91"
fill="none" stroke="black" stroke-width="2"/>
<path d="M624.82 296.7L624.96 295.5M624.96 295.5L624.77 294.31M624.77 294.31L624.24 293.23M624.24 293.23L623.43 292.33M623.43 292.33L622.4 291.7M622.4 291.7L621.24 291.38M621.24 291.38L620.03 291.41M620.03 291.41L618.88 291.77M618.88 291.77L617.88 292.45M617.88 292.45L617.11 293.37M617.11 293.37L616.63 294.48"
fill="none" stroke="black" stroke-width="2"/>
<path d="M613.88 316.57L613.88 165.55"
fill="none" stroke="black" stroke-width="2"/>
<path d="M620.53 292.07L620.53 160.87"
fill="none" stroke="black" stroke-width="2"/>
<path d="M614.19 316.57L614.1 316.41M614.1 316.41L613.88 316.35M613.88 316.35L613.67 316.41M613.67 316.41L613.58 316.57M613.58 316.57L613.67 316.72M613.67 316.72L613.88 316.79M613.88 316.79L614.1 316.72M614.1 316.72L614.19 316.57"
fill="none" stroke="black" stroke-width="2"/>
<path d="M620.84 292.07L620.75 291.92M620.75 291.92L620.53 291.85M620.53 291.85L620.32 291.92M620.32 291.92L620.23 292.07M620.23 292.07L620.32 292.23M620.32 292.23L620.53 292.29M620.53 292.29L620.75 292.23M620.75 292.23L620.84 292.07"
fill="none" stroke="black" stroke-width="2"/>
<path d="M679.36 295.78L672.22 322.1"
fill="none" stroke="black" stroke-width="2"/>
<path d="M671.17 293.56L664.03 319.88"
fill="none" stroke="black" stroke-width="2"/>
<path d="M663.88 320.99L664.07 319.74M664.07 319.74L664.62 318.6M664.62 318.6L665.48 317.67M665.48 317.67L666.57 317.04M666.57 317.04L667.8 316.76M667.8 316.76L669.07 316.85M669.07 316.85L670.24 317.31M670.24 317.31L671.23 318.1M671.23 318.1L671.94 319.15M671.94 319.15L672.32 320.35M672.32 320.35L672.32 321.62M672.32 321.62L671.94 322.83M671.94 322.83L671.23 323.87M671.23 323.87L670.24 324.66M670.24 324.66L669.07 325.12M669.07 325.12L667.8 325.22M667.8 325.22L666.57 324.93M666.57 324.93L665.48 324.3M665.48 324.3L664.62 323.38M664.62 323.38L664.07 322.24M664.07 322.24L663.88 320.99"
fill="none" stroke="black" stroke-width="2"/>
<path d="M679.36 295.78L679.5 294.58M679.5 294.58L679.31 293.39M679.31 293.39L678.78 292.3M678.78 292.3L677.97 291.41M677.97 291.41L676.94 290.77M676.94 290.77L675.78 290.46M675.78 290.46L674.57 290.48M674.57 290.48L673.42 290.85M673.42 290.85L672.42 291.52M672.42 291.52L671.65 292.45M671.65 292.45L671.17 293.56"
fill="none" stroke="black" stroke-width="2"/>
<path d="M668.42 315.64L668.42 163.58"
fill="none" stroke="black" stroke-width="2"/>
<path d="M675.07 291.15L675.07 159.95"
fill="none" stroke="black" stroke-width="2"/>
<path d="M668.73 315.64L668.64 315.49M668.64 315.49L668.42 315.42M668.42 315.42L668.21 315.49M668.21 315.49L668.12 315.64M668.12 315.64L668.21 315.8M668.21 315.8L668.42 315.87M668.42 315.87L668.64 315.8M668.64 315.8L668.73 315.64"
fill="none" stroke="black" stroke-width="2"/>
<path d="M675.38 291.15L675.29 290.99M675.29 290.99L675.07 290.93M675.07 290.93L674.86 290.99M674.86 290.99L674.77 291.15M674.77 291.15L674.86 291.31M674.86 291.31L675.07 291.37M675.07 291.37L675.29 291.31M675.29 291.31L675.38 291.15"
fill="none" stroke="black" stroke-width="2"/>
</svg>
