<?xml version="1.0" encoding="UTF-8"?>
<svg xmlns="http://www.w3.org/2000/svg" width="800.000" height="600.000" viewBox="0.0 0.0 800.000 600.000" version="1.1">
  <title>Produce by Acme CAD Converter</title>
  <desc>Produce by Acme CAD Converter</desc>
<path d="M3.1 80.51L3.1 519.49"
fill="none" stroke="RGB(237,31,36)" stroke-width="0"/>
<path d="M2.26 251.86L51.93 254.57M51.93 254.57L101.62 256.91M101.62 256.91L151.33 258.86M151.33 258.86L201.05 260.43M201.05 260.43L250.78 261.61M250.78 261.61L300.52 262.41M300.52 262.41L350.26 262.83M350.26 262.83L400 262.86M400 262.86L449.75 262.5M449.75 262.5L499.49 261.77M499.49 261.77L549.22 260.65M549.22 260.65L598.94 259.14M598.94 259.14L648.65 257.25M648.65 257.25L698.34 254.98M698.34 254.98L748.01 252.33M748.01 252.33L797.66 249.29"
fill="none" stroke="RGB(2,158,33)" stroke-width="2"/>
<path d="M2.92 247.93L82.39 250.01M82.39 250.01L161.87 251.59M161.87 251.59L241.36 252.67M241.36 252.67L320.85 253.26M320.85 253.26L400.34 253.35M400.34 253.35L479.83 252.95M479.83 252.95L559.32 252.05M559.32 252.05L638.81 250.66M638.81 250.66L718.28 248.77M718.28 248.77L797.74 246.39"
fill="none" stroke="RGB(2,158,33)" stroke-width="2"/>
<path d="M139.46 295.75L132.31 322.09"
fill="none" stroke="black" stroke-width="2"/>
<path d="M131.26 293.52L124.12 319.87"
fill="none" stroke="black" stroke-width="2"/>
<path d="M123.97 320.98L124.16 319.73M124.16 319.73L124.71 318.59M124.71 318.59L125.57 317.66M125.57 317.66L126.66 317.03M126.66 317.03L127.9 316.74M127.9 316.74L129.16 316.84M129.16 316.84L130.34 317.3M130.34 317.3L131.33 318.09M131.33 318.09L132.04 319.14M132.04 319.14L132.41 320.35M132.41 320.35L132.41 321.61M132.41 321.61L132.04 322.82M132.04 322.82L131.33 323.87M131.33 323.87L130.34 324.66M130.34 324.66L129.16 325.12M129.16 325.12L127.9 325.21M127.9 325.21L126.66 324.93M126.66 324.93L125.57 324.3M125.57 324.3L124.71 323.37M124.71 323.37L124.16 322.23M124.16 322.23L123.97 320.98"
fill="none" stroke="black" stroke-width="2"/>
<path d="M139.46 295.75L139.61 294.55M139.61 294.55L139.41 293.35M139.41 293.35L138.89 292.27M138.89 292.27L138.07 291.37M138.07 291.37L137.04 290.74M137.04 290.74L135.88 290.42M135.88 290.42L134.67 290.45M134.67 290.45L133.52 290.81M133.52 290.81L132.51 291.48M132.51 291.48L131.74 292.41M131.74 292.41L131.26 293.52"
fill="none" stroke="black" stroke-width="2"/>
<path d="M128.52 315.63L128.52 258.01"
fill="none" stroke="black" stroke-width="2"/>
<path d="M135.17 291.11L135.17 251.11"
fill="none" stroke="black" stroke-width="2"/>
<path d="M128.82 315.63L128.73 315.48M128.73 315.48L128.52 315.41M128.52 315.41L128.3 315.48M128.3 315.48L128.21 315.63M128.21 315.63L128.3 315.79M128.3 315.79L128.52 315.85M128.52 315.85L128.73 315.79M128.73 315.79L128.82 315.63"
fill="none" stroke="black" stroke-width="2"/>
<path d="M135.48 291.11L135.39 290.96M135.39 290.96L135.17 290.89M135.17 290.89L134.96 290.96M134.96 290.96L134.87 291.11M134.87 291.11L134.96 291.27M134.96 291.27L135.17 291.33M135.17 291.33L135.39 291.27M135.39 291.27L135.48 291.11"
fill="none" stroke="black" stroke-width="2"/>
<path d="M190.8 296.7L183.66 323.04"
fill="none" stroke="black" stroke-width="2"/>
<path d="M182.61 294.48L175.46 320.82"
fill="none" stroke="black" stroke-width="2"/>
<path d="M175.31 321.93L175.5 320.68M175.5 320.68L176.05 319.54M176.05 319.54L176.91 318.61M176.91 318.61L178.01 317.98M178.01 317.98L179.24 317.7M179.24 317.7L180.5 317.79M180.5 317.79L181.68 318.25M181.68 318.25L182.67 319.04M182.67 319.04L183.39 320.09M183.39 320.09L183.76 321.3M183.76 321.3L183.76 322.56M183.76 322.56L183.39 323.77M183.39 323.77L182.67 324.82M182.67 324.82L181.68 325.61M181.68 325.61L180.5 326.07M180.5 326.07L179.24 326.17M179.24 326.17L178.01 325.88M178.01 325.88L176.91 325.25M176.91 325.25L176.05 324.32M176.05 324.32L175.5 323.18M175.5 323.18L175.31 321.93"
fill="none" stroke="black" stroke-width="2"/>
<path d="M190.8 296.7L190.95 295.5M190.95 295.5L190.76 294.31M190.76 294.31L190.23 293.22M190.23 293.22L189.42 292.32M189.42 292.32L188.39 291.69M188.39 291.69L187.22 291.37M187.22 291.37L186.01 291.4M186.01 291.4L184.86 291.76M184.86 291.76L183.86 292.44M183.86 292.44L183.09 293.37M183.09 293.37L182.61 294.48"
fill="none" stroke="black" stroke-width="2"/>
<path d="M179.86 316.58L179.86 259.81"
fill="none" stroke="black" stroke-width="2"/>
<path d="M186.52 292.07L186.52 251.98"
fill="none" stroke="black" stroke-width="2"/>
<path d="M180.17 316.58L180.08 316.43M180.08 316.43L179.86 316.36M179.86 316.36L179.65 316.43M179.65 316.43L179.56 316.58M179.56 316.58L179.65 316.74M179.65 316.74L179.86 316.81M179.86 316.81L180.08 316.74M180.08 316.74L180.17 316.58"
fill="none" stroke="black" stroke-width="2"/>
<path d="M186.82 292.07L186.73 291.91M186.73 291.91L186.52 291.84M186.52 291.84L186.3 291.91M186.3 291.91L186.21 292.07M186.21 292.07L186.3 292.22M186.3 292.22L186.52 292.29M186.52 292.29L186.73 292.22M186.73 292.22L186.82 292.07"
fill="none" stroke="black" stroke-width="2"/>
<path d="M245.4 295.77L238.25 322.12"
fill="none" stroke="black" stroke-width="2"/>
<path d="M237.2 293.55L230.06 319.9"
fill="none" stroke="black" stroke-width="2"/>
<path d="M229.91 321.01L230.1 319.76M230.1 319.76L230.65 318.62M230.65 318.62L231.51 317.69M231.51 317.69L232.6 317.05M232.6 317.05L233.84 316.77M233.84 316.77L235.1 316.87M235.1 316.87L236.28 317.33M236.28 317.33L237.27 318.12M237.27 318.12L237.98 319.16M237.98 319.16L238.35 320.37M238.35 320.37L238.35 321.64M238.35 321.64L237.98 322.85M237.98 322.85L237.27 323.89M237.27 323.89L236.28 324.68M236.28 324.68L235.1 325.15M235.1 325.15L233.84 325.24M233.84 325.24L232.6 324.96M232.6 324.96L231.51 324.33M231.51 324.33L230.65 323.4M230.65 323.4L230.1 322.26M230.1 322.26L229.91 321.01"
fill="none" stroke="black" stroke-width="2"/>
<path d="M245.4 295.77L245.55 294.58M245.55 294.58L245.35 293.38M245.35 293.38L244.83 292.29M244.83 292.29L244.02 291.4M244.02 291.4L242.98 290.77M242.98 290.77L241.82 290.45M241.82 290.45L240.61 290.47M240.61 290.47L239.46 290.84M239.46 290.84L238.45 291.51M238.45 291.51L237.68 292.44M237.68 292.44L237.2 293.55"
fill="none" stroke="black" stroke-width="2"/>
<path d="M234.46 315.66L234.46 261.27"
fill="none" stroke="black" stroke-width="2"/>
<path d="M241.11 291.14L241.11 252.67"
fill="none" stroke="black" stroke-width="2"/>
<path d="M234.76 315.66L234.67 315.5M234.67 315.5L234.46 315.44M234.46 315.44L234.24 315.5M234.24 315.5L234.15 315.66M234.15 315.66L234.24 315.82M234.24 315.82L234.46 315.88M234.46 315.88L234.67 315.82M234.67 315.82L234.76 315.66"
fill="none" stroke="black" stroke-width="2"/>
<path d="M241.42 291.14L241.33 290.98M241.33 290.98L241.11 290.92M241.11 290.92L240.9 290.98M240.9 290.98L240.81 291.14M240.81 291.14L240.9 291.3M240.9 291.3L241.11 291.36M241.11 291.36L241.33 291.3M241.33 291.3L241.42 291.14"
fill="none" stroke="black" stroke-width="2"/>
<path d="M300.91 295.75L293.76 322.09"
fill="none" stroke="black" stroke-width="2"/>
<path d="M292.71 293.52L285.57 319.87"
fill="none" stroke="black" stroke-width="2"/>
<path d="M285.42 320.98L285.61 319.73M285.61 319.73L286.16 318.59M286.16 318.59L287.02 317.66M287.02 317.66L288.11 317.03M288.11 317.03L289.35 316.74M289.35 316.74L290.61 316.84M290.61 316.84L291.79 317.3M291.79 317.3L292.78 318.09M292.78 318.09L293.49 319.14M293.49 319.14L293.86 320.35M293.86 320.35L293.86 321.61M293.86 321.61L293.49 322.82M293.49 322.82L292.78 323.87M292.78 323.87L291.79 324.66M291.79 324.66L290.61 325.12M290.61 325.12L289.35 325.21M289.35 325.21L288.11 324.93M288.11 324.93L287.02 324.3M287.02 324.3L286.16 323.37M286.16 323.37L285.61 322.23M285.61 322.23L285.42 320.98"
fill="none" stroke="black" stroke-width="2"/>
<path d="M300.91 295.75L301.06 294.55M301.06 294.55L300.86 293.35M300.86 293.35L300.34 292.27M300.34 292.27L299.53 291.37M299.53 291.37L298.5 290.74M298.5 290.74L297.33 290.42M297.33 290.42L296.12 290.45M296.12 290.45L294.97 290.81M294.97 290.81L293.97 291.48M293.97 291.48L293.19 292.41M293.19 292.41L292.71 293.52"
fill="none" stroke="black" stroke-width="2"/>
<path d="M289.97 315.63L289.97 262.27"
fill="none" stroke="black" stroke-width="2"/>
<path d="M296.62 291.11L296.62 253.13"
fill="none" stroke="black" stroke-width="2"/>
<path d="M290.27 315.63L290.18 315.48M290.18 315.48L289.97 315.41M289.97 315.41L289.75 315.48M289.75 315.48L289.66 315.63M289.66 315.63L289.75 315.79M289.75 315.79L289.97 315.85M289.97 315.85L290.18 315.79M290.18 315.79L290.27 315.63"
fill="none" stroke="black" stroke-width="2"/>
<path d="M296.93 291.11L296.84 290.96M296.84 290.96L296.62 290.89M296.62 290.89L296.41 290.96M296.41 290.96L296.32 291.11M296.32 291.11L296.41 291.27M296.41 291.27L296.62 291.33M296.62 291.33L296.84 291.27M296.84 291.27L296.93 291.11"
fill="none" stroke="black" stroke-width="2"/>
<path d="M352.26 296.7L345.11 323.04"
fill="none" stroke="black" stroke-width="2"/>
<path d="M344.06 294.48L336.91 320.82"
fill="none" stroke="black" stroke-width="2"/>
<path d="M336.76 321.93L336.95 320.68M336.95 320.68L337.5 319.54M337.5 319.54L338.36 318.61M338.36 318.61L339.46 317.98M339.46 317.98L340.69 317.7M340.69 317.7L341.96 317.79M341.96 317.79L343.13 318.25M343.13 318.25L344.12 319.04M344.12 319.04L344.84 320.09M344.84 320.09L345.21 321.3M345.21 321.3L345.21 322.56M345.21 322.56L344.84 323.77M344.84 323.77L344.12 324.82M344.12 324.82L343.13 325.61M343.13 325.61L341.96 326.07M341.96 326.07L340.69 326.17M340.69 326.17L339.46 325.88M339.46 325.88L338.36 325.25M338.36 325.25L337.5 324.32M337.5 324.32L336.95 323.18M336.95 323.18L336.76 321.93"
fill="none" stroke="black" stroke-width="2"/>
<path d="M352.26 296.7L352.4 295.5M352.4 295.5L352.21 294.31M352.21 294.31L351.68 293.22M351.68 293.22L350.87 292.32M350.87 292.32L349.84 291.69M349.84 291.69L348.68 291.37M348.68 291.37L347.47 291.4M347.47 291.4L346.31 291.76M346.31 291.76L345.31 292.44M345.31 292.44L344.54 293.37M344.54 293.37L344.06 294.48"
fill="none" stroke="black" stroke-width="2"/>
<path d="M341.31 316.58L341.31 262.78"
fill="none" stroke="black" stroke-width="2"/>
<path d="M347.97 292.07L347.97 253.35"
fill="none" stroke="black" stroke-width="2"/>
<path d="M341.62 316.58L341.53 316.43M341.53 316.43L341.31 316.36M341.31 316.36L341.1 316.43M341.1 316.43L341.01 316.58M341.01 316.58L341.1 316.74M341.1 316.74L341.31 316.81M341.31 316.81L341.53 316.74M341.53 316.74L341.62 316.58"
fill="none" stroke="black" stroke-width="2"/>
<path d="M348.27 292.07L348.19 291.91M348.19 291.91L347.97 291.84M347.97 291.84L347.75 291.91M347.75 291.91L347.67 292.07M347.67 292.07L347.75 292.22M347.75 292.22L347.97 292.29M347.97 292.29L348.19 292.22M348.19 292.22L348.27 292.07"
fill="none" stroke="black" stroke-width="2"/>
<path d="M406.85 295.77L399.7 322.12"
fill="none" stroke="black" stroke-width="2"/>
<path d="M398.65 293.55L391.51 319.9"
fill="none" stroke="black" stroke-width="2"/>
<path d="M391.36 321.01L391.55 319.76M391.55 319.76L392.1 318.62M392.1 318.62L392.96 317.69M392.96 317.69L394.05 317.05M394.05 317.05L395.29 316.77M395.29 316.77L396.55 316.87M396.55 316.87L397.73 317.33M397.73 317.33L398.72 318.12M398.72 318.12L399.43 319.16M399.43 319.16L399.81 320.37M399.81 320.37L399.81 321.64M399.81 321.64L399.43 322.85M399.43 322.85L398.72 323.89M398.72 323.89L397.73 324.68M397.73 324.68L396.55 325.15M396.55 325.15L395.29 325.24M395.29 325.24L394.05 324.96M394.05 324.96L392.96 324.33M392.96 324.33L392.1 323.4M392.1 323.4L391.55 322.26M391.55 322.26L391.36 321.01"
fill="none" stroke="black" stroke-width="2"/>
<path d="M406.85 295.77L407 294.58M407 294.58L406.8 293.38M406.8 293.38L406.28 292.29M406.28 292.29L405.47 291.4M405.47 291.4L404.44 290.77M404.44 290.77L403.27 290.45M403.27 290.45L402.06 290.47M402.06 290.47L400.91 290.84M400.91 290.84L399.91 291.51M399.91 291.51L399.13 292.44M399.13 292.44L398.65 293.55"
fill="none" stroke="black" stroke-width="2"/>
<path d="M395.91 315.66L395.91 262.87"
fill="none" stroke="black" stroke-width="2"/>
<path d="M402.57 291.14L402.57 253.35"
fill="none" stroke="black" stroke-width="2"/>
<path d="M396.21 315.66L396.13 315.5M396.13 315.5L395.91 315.44M395.91 315.44L395.69 315.5M395.69 315.5L395.6 315.66M395.6 315.66L395.69 315.82M395.69 315.82L395.91 315.88M395.91 315.88L396.13 315.82M396.13 315.82L396.21 315.66"
fill="none" stroke="black" stroke-width="2"/>
<path d="M402.87 291.14L402.78 290.98M402.78 290.98L402.57 290.92M402.57 290.92L402.35 290.98M402.35 290.98L402.26 291.14M402.26 291.14L402.35 291.3M402.35 291.3L402.57 291.36M402.57 291.36L402.78 291.3M402.78 291.3L402.87 291.14"
fill="none" stroke="black" stroke-width="2"/>
<path d="M459.4 295.75L452.25 322.09"
fill="none" stroke="black" stroke-width="2"/>
<path d="M451.2 293.52L444.06 319.87"
fill="none" stroke="black" stroke-width="2"/>
<path d="M443.91 320.98L444.1 319.73M444.1 319.73L444.65 318.59M444.65 318.59L445.51 317.66M445.51 317.66L446.6 317.03M446.6 317.03L447.84 316.74M447.84 316.74L449.1 316.84M449.1 316.84L450.28 317.3M450.28 317.3L451.27 318.09M451.27 318.09L451.98 319.14M451.98 319.14L452.35 320.35M452.35 320.35L452.35 321.61M452.35 321.61L451.98 322.82M451.98 322.82L451.27 323.87M451.27 323.87L450.28 324.66M450.28 324.66L449.1 325.12M449.1 325.12L447.84 325.21M447.84 325.21L446.6 324.93M446.6 324.93L445.51 324.3M445.51 324.3L444.65 323.37M444.65 323.37L444.1 322.23M444.1 322.23L443.91 320.98"
fill="none" stroke="black" stroke-width="2"/>
<path d="M459.4 295.75L459.55 294.55M459.55 294.55L459.35 293.35M459.35 293.35L458.83 292.27M458.83 292.27L458.02 291.37M458.02 291.37L456.99 290.74M456.99 290.74L455.82 290.42M455.82 290.42L454.61 290.45M454.61 290.45L453.46 290.81M453.46 290.81L452.46 291.48M452.46 291.48L451.68 292.41M451.68 292.41L451.2 293.52"
fill="none" stroke="black" stroke-width="2"/>
<path d="M448.46 315.63L448.46 262.52"
fill="none" stroke="black" stroke-width="2"/>
<path d="M455.11 291.11L455.11 253.13"
fill="none" stroke="black" stroke-width="2"/>
<path d="M448.76 315.63L448.67 315.48M448.67 315.48L448.46 315.41M448.46 315.41L448.24 315.48M448.24 315.48L448.15 315.63M448.15 315.63L448.24 315.79M448.24 315.79L448.46 315.85M448.46 315.85L448.67 315.79M448.67 315.79L448.76 315.63"
fill="none" stroke="black" stroke-width="2"/>
<path d="M455.42 291.11L455.33 290.96M455.33 290.96L455.11 290.89M455.11 290.89L454.9 290.96M454.9 290.96L454.81 291.11M454.81 291.11L454.9 291.27M454.9 291.27L455.11 291.33M455.11 291.33L455.33 291.27M455.33 291.27L455.42 291.11"
fill="none" stroke="black" stroke-width="2"/>
<path d="M510.75 296.7L503.6 323.04"
fill="none" stroke="black" stroke-width="2"/>
<path d="M502.55 294.48L495.4 320.82"
fill="none" stroke="black" stroke-width="2"/>
<path d="M495.25 321.93L495.44 320.68M495.44 320.68L495.99 319.54M495.99 319.54L496.85 318.61M496.85 318.61L497.95 317.98M497.95 317.98L499.18 317.7M499.18 317.7L500.45 317.79M500.45 317.79L501.62 318.25M501.62 318.25L502.61 319.04M502.61 319.04L503.33 320.09M503.33 320.09L503.7 321.3M503.7 321.3L503.7 322.56M503.7 322.56L503.33 323.77M503.33 323.77L502.61 324.82M502.61 324.82L501.62 325.61M501.62 325.61L500.45 326.07M500.45 326.07L499.18 326.17M499.18 326.17L497.95 325.88M497.95 325.88L496.85 325.25M496.85 325.25L495.99 324.32M495.99 324.32L495.44 323.18M495.44 323.18L495.25 321.93"
fill="none" stroke="black" stroke-width="2"/>
<path d="M510.75 296.7L510.89 295.5M510.89 295.5L510.7 294.31M510.7 294.31L510.17 293.22M510.17 293.22L509.36 292.32M509.36 292.32L508.33 291.69M508.33 291.69L507.17 291.37M507.17 291.37L505.96 291.4M505.96 291.4L504.8 291.76M504.8 291.76L503.8 292.44M503.8 292.44L503.03 293.37M503.03 293.37L502.55 294.48"
fill="none" stroke="black" stroke-width="2"/>
<path d="M499.8 316.58L499.8 261.76"
fill="none" stroke="black" stroke-width="2"/>
<path d="M506.46 292.07L506.46 252.7"
fill="none" stroke="black" stroke-width="2"/>
<path d="M500.11 316.58L500.02 316.43M500.02 316.43L499.8 316.36M499.8 316.36L499.59 316.43M499.59 316.43L499.5 316.58M499.5 316.58L499.59 316.74M499.59 316.74L499.8 316.81M499.8 316.81L500.02 316.74M500.02 316.74L500.11 316.58"
fill="none" stroke="black" stroke-width="2"/>
<path d="M506.76 292.07L506.68 291.91M506.68 291.91L506.46 291.84M506.46 291.84L506.24 291.91M506.24 291.91L506.16 292.07M506.16 292.07L506.24 292.22M506.24 292.22L506.46 292.29M506.46 292.29L506.68 292.22M506.68 292.22L506.76 292.07"
fill="none" stroke="black" stroke-width="2"/>
<path d="M565.34 295.77L558.19 322.12"
fill="none" stroke="black" stroke-width="2"/>
<path d="M557.14 293.55L550 319.9"
fill="none" stroke="black" stroke-width="2"/>
<path d="M549.85 321.01L550.04 319.76M550.04 319.76L550.59 318.62M550.59 318.62L551.45 317.69M551.45 317.69L552.54 317.05M552.54 317.05L553.78 316.77M553.78 316.77L555.04 316.87M555.04 316.87L556.22 317.33M556.22 317.33L557.21 318.12M557.21 318.12L557.92 319.16M557.92 319.16L558.3 320.37M558.3 320.37L558.3 321.64M558.3 321.64L557.92 322.85M557.92 322.85L557.21 323.89M557.21 323.89L556.22 324.68M556.22 324.68L555.04 325.15M555.04 325.15L553.78 325.24M553.78 325.24L552.54 324.96M552.54 324.96L551.45 324.33M551.45 324.33L550.59 323.4M550.59 323.4L550.04 322.26M550.04 322.26L549.85 321.01"
fill="none" stroke="black" stroke-width="2"/>
<path d="M565.34 295.77L565.49 294.58M565.49 294.58L565.29 293.38M565.29 293.38L564.77 292.29M564.77 292.29L563.96 291.4M563.96 291.4L562.93 290.77M562.93 290.77L561.76 290.45M561.76 290.45L560.55 290.47M560.55 290.47L559.4 290.84M559.4 290.84L558.4 291.51M558.4 291.51L557.62 292.44M557.62 292.44L557.14 293.55"
fill="none" stroke="black" stroke-width="2"/>
<path d="M554.4 315.66L554.4 260.51"
fill="none" stroke="black" stroke-width="2"/>
<path d="M561.06 291.14L561.06 252.03"
fill="none" stroke="black" stroke-width="2"/>
<path d="M554.7 315.66L554.62 315.5M554.62 315.5L554.4 315.44M554.4 315.44L554.18 315.5M554.18 315.5L554.09 315.66M554.09 315.66L554.18 315.82M554.18 315.82L554.4 315.88M554.4 315.88L554.62 315.82M554.62 315.82L554.7 315.66"
fill="none" stroke="black" stroke-width="2"/>
<path d="M561.36 291.14L561.27 290.98M561.27 290.98L561.06 290.92M561.06 290.92L560.84 290.98M560.84 290.98L560.75 291.14M560.75 291.14L560.84 291.3M560.84 291.3L561.06 291.36M561.06 291.36L561.27 291.3M561.27 291.3L561.36 291.14"
fill="none" stroke="black" stroke-width="2"/>
<path d="M619.04 296.7L611.89 323.04"
fill="none" stroke="black" stroke-width="2"/>
<path d="M610.84 294.48L603.69 320.82"
fill="none" stroke="black" stroke-width="2"/>
<path d="M603.54 321.93L603.73 320.68M603.73 320.68L604.28 319.54M604.28 319.54L605.14 318.61M605.14 318.61L606.24 317.98M606.24 317.98L607.47 317.7M607.47 317.7L608.73 317.79M608.73 317.79L609.91 318.25M609.91 318.25L610.9 319.04M610.9 319.04L611.62 320.09M611.62 320.09L611.99 321.3M611.99 321.3L611.99 322.56M611.99 322.56L611.62 323.77M611.62 323.77L610.9 324.82M610.9 324.82L609.91 325.61M609.91 325.61L608.73 326.07M608.73 326.07L607.47 326.17M607.47 326.17L606.24 325.88M606.24 325.88L605.14 325.25M605.14 325.25L604.28 324.32M604.28 324.32L603.73 323.18M603.73 323.18L603.54 321.93"
fill="none" stroke="black" stroke-width="2"/>
<path d="M619.04 296.7L619.18 295.5M619.18 295.5L618.99 294.31M618.99 294.31L618.46 293.22M618.46 293.22L617.65 292.32M617.65 292.32L616.62 291.69M616.62 291.69L615.45 291.37M615.45 291.37L614.25 291.4M614.25 291.4L613.09 291.76M613.09 291.76L612.09 292.44M612.09 292.44L611.32 293.37M611.32 293.37L610.84 294.48"
fill="none" stroke="black" stroke-width="2"/>
<path d="M608.09 316.58L608.09 258.82"
fill="none" stroke="black" stroke-width="2"/>
<path d="M614.75 292.07L614.75 251.13"
fill="none" stroke="black" stroke-width="2"/>
<path d="M608.4 316.58L608.31 316.43M608.31 316.43L608.09 316.36M608.09 316.36L607.88 316.43M607.88 316.43L607.79 316.58M607.79 316.58L607.88 316.74M607.88 316.74L608.09 316.81M608.09 316.81L608.31 316.74M608.31 316.74L608.4 316.58"
fill="none" stroke="black" stroke-width="2"/>
<path d="M615.05 292.07L614.96 291.91M614.96 291.91L614.75 291.84M614.75 291.84L614.53 291.91M614.53 291.91L614.44 292.07M614.44 292.07L614.53 292.22M614.53 292.22L614.75 292.29M614.75 292.29L614.96 292.22M614.96 292.22L615.05 292.07"
fill="none" stroke="black" stroke-width="2"/>
<path d="M673.63 295.77L666.48 322.12"
fill="none" stroke="black" stroke-width="2"/>
<path d="M665.43 293.55L658.29 319.9"
fill="none" stroke="black" stroke-width="2"/>
<path d="M658.14 321.01L658.33 319.76M658.33 319.76L658.88 318.62M658.88 318.62L659.74 317.69M659.74 317.69L660.83 317.05M660.83 317.05L662.07 316.77M662.07 316.77L663.33 316.87M663.33 316.87L664.51 317.33M664.51 317.33L665.5 318.12M665.5 318.12L666.21 319.16M666.21 319.16L666.58 320.37M666.58 320.37L666.58 321.64M666.58 321.64L666.21 322.85M666.21 322.85L665.5 323.89M665.5 323.89L664.51 324.68M664.51 324.68L663.33 325.15M663.33 325.15L662.07 325.24M662.07 325.24L660.83 324.96M660.83 324.96L659.74 324.33M659.74 324.33L658.88 323.4M658.88 323.4L658.33 322.26M658.33 322.26L658.14 321.01"
fill="none" stroke="black" stroke-width="2"/>
<path d="M673.63 295.77L673.78 294.58M673.78 294.58L673.58 293.38M673.58 293.38L673.06 292.29M673.06 292.29L672.25 291.4M672.25 291.4L671.22 290.77M671.22 290.77L670.05 290.45M670.05 290.45L668.84 290.47M668.84 290.47L667.69 290.84M667.69 290.84L666.68 291.51M666.68 291.51L665.91 292.44M665.91 292.44L665.43 293.55"
fill="none" stroke="black" stroke-width="2"/>
<path d="M662.69 315.66L662.69 256.65"
fill="none" stroke="black" stroke-width="2"/>
<path d="M669.34 291.14L669.34 249.99"
fill="none" stroke="black" stroke-width="2"/>
<path d="M662.99 315.66L662.9 315.5M662.9 315.5L662.69 315.44M662.69 315.44L662.47 315.5M662.47 315.5L662.38 315.66M662.38 315.66L662.47 315.82M662.47 315.82L662.69 315.88M662.69 315.88L662.9 315.82M662.9 315.82L662.99 315.66"
fill="none" stroke="black" stroke-width="2"/>
<path d="M669.65 291.14L669.56 290.98M669.56 290.98L669.34 290.92M669.34 290.92L669.13 290.98M669.13 290.98L669.04 291.14M669.04 291.14L669.13 291.3M669.13 291.3L669.34 291.36M669.34 291.36L669.56 291.3M669.56 291.3L669.65 291.14"
fill="none" stroke="black" stroke-width="2"/>
</svg>
