<?xml version="1.0" encoding="UTF-8"?>
<svg xmlns="http://www.w3.org/2000/svg" width="800.000" height="600.000" viewBox="0.0 0.0 800.000 600.000" version="1.1">
  <title>Produce by Acme CAD Converter</title>
  <desc>Produce by Acme CAD Converter</desc>
<path d="M2.26 80.73L2.26 519.27"
fill="none" stroke="RGB(237,31,36)" stroke-width="0"/>
<path d="M157.55 324.33L283.86 324.33"
fill="none" stroke="black" stroke-width="2"/>
<path d="M157.45 313.53L156.66 313.88M156.66 313.88L155.94 314.59M155.94 314.59L155.36 315.61M155.36 315.61L154.95 316.87M154.95 316.87L154.75 318.28M154.75 318.28L154.76 319.74M154.76 319.74L154.99 321.14M154.99 321.14L155.42 322.37M155.42 322.37L156.02 323.36M156.02 323.36L156.75 324.03M156.75 324.03L157.55 324.33"
fill="none" stroke="black" stroke-width="2"/>
<path d="M157.98 324.33L158.78 324.03M158.78 324.03L159.5 323.36M159.5 323.36L160.1 322.37M160.1 322.37L160.53 321.14M160.53 321.14L160.76 319.74M160.76 319.74L160.78 318.28M160.78 318.28L160.57 316.87M160.57 316.87L160.17 315.61M160.17 315.61L159.58 314.59M159.58 314.59L158.87 313.88M158.87 313.88L158.08 313.53"
fill="none" stroke="black" stroke-width="2"/>
<path d="M157.45 313.53L283.96 313.53"
fill="none" stroke="black" stroke-width="2"/>
<path d="M283.86 324.33L284.66 324.03M284.66 324.03L285.39 323.36M285.39 323.36L285.99 322.37M285.99 322.37L286.42 321.14M286.42 321.14L286.65 319.74M286.65 319.74L286.66 318.28M286.66 318.28L286.46 316.87M286.46 316.87L286.05 315.61M286.05 315.61L285.47 314.59M285.47 314.59L284.75 313.88M284.75 313.88L283.96 313.53"
fill="none" stroke="black" stroke-width="2"/>
<path d="M160.8 318.97L160.8 318.87"
fill="none" stroke="black" stroke-width="2"/>
<path d="M160.8 313.53L160.8 259.02"
fill="none" stroke="black" stroke-width="2"/>
<path d="M160.8 270.81L160.8 270.71"
fill="none" stroke="black" stroke-width="2"/>
<path d="M280.61 313.53L280.61 302.25"
fill="none" stroke="black" stroke-width="2"/>
<path d="M280.61 291.45L280.61 288.51"
fill="none" stroke="black" stroke-width="2"/>
<path d="M280.61 277.72L280.61 259.02"
fill="none" stroke="black" stroke-width="2"/>
<path d="M2.82 156.6L91.13 158.87M91.13 158.87L179.45 160.58M179.45 160.58L267.78 161.75M267.78 161.75L356.11 162.36M356.11 162.36L444.44 162.41M444.44 162.41L532.78 161.92M532.78 161.92L621.11 160.87M621.11 160.87L709.43 159.26M709.43 159.26L797.74 157.1"
fill="none" stroke="RGB(2,158,33)" stroke-width="2"/>
<path d="M157.55 247.18L283.86 247.18"
fill="none" stroke="black" stroke-width="2"/>
<path d="M157.45 236.39L156.66 236.73M156.66 236.73L155.94 237.44M155.94 237.44L155.36 238.46M155.36 238.46L154.95 239.72M154.95 239.72L154.75 241.14M154.75 241.14L154.76 242.59M154.76 242.59L154.99 243.99M154.99 243.99L155.42 245.23M155.42 245.23L156.02 246.22M156.02 246.22L156.75 246.88M156.75 246.88L157.55 247.18"
fill="none" stroke="black" stroke-width="2"/>
<path d="M157.98 247.18L158.78 246.88M158.78 246.88L159.5 246.22M159.5 246.22L160.1 245.23M160.1 245.23L160.53 243.99M160.53 243.99L160.76 242.59M160.76 242.59L160.78 241.14M160.78 241.14L160.57 239.72M160.57 239.72L160.17 238.46M160.17 238.46L159.58 237.44M159.58 237.44L158.87 236.73M158.87 236.73L158.08 236.39"
fill="none" stroke="black" stroke-width="2"/>
<path d="M157.45 236.39L283.96 236.39"
fill="none" stroke="black" stroke-width="2"/>
<path d="M283.86 247.18L284.66 246.88M284.66 246.88L285.39 246.22M285.39 246.22L285.99 245.23M285.99 245.23L286.42 243.99M286.42 243.99L286.65 242.59M286.65 242.59L286.66 241.14M286.66 241.14L286.46 239.72M286.46 239.72L286.05 238.46M286.05 238.46L285.47 237.44M285.47 237.44L284.75 236.73M284.75 236.73L283.96 236.39"
fill="none" stroke="black" stroke-width="2"/>
<path d="M160.8 270.81L160.8 270.71"
fill="none" stroke="black" stroke-width="2"/>
<path d="M280.61 248.23L280.61 247.18"
fill="none" stroke="black" stroke-width="2"/>
<path d="M280.61 236.39L280.61 211.36"
fill="none" stroke="black" stroke-width="2"/>
<path d="M280.61 200.57L280.61 194.22"
fill="none" stroke="black" stroke-width="2"/>
<path d="M280.61 183.43L280.61 161.87"
fill="none" stroke="black" stroke-width="2"/>
<path d="M275.39 288.51L401.7 288.51"
fill="none" stroke="black" stroke-width="2"/>
<path d="M275.29 277.72L274.5 278.06M274.5 278.06L273.79 278.77M273.79 278.77L273.2 279.79M273.2 279.79L272.8 281.05M272.8 281.05L272.59 282.47M272.59 282.47L272.61 283.92M272.61 283.92L272.84 285.32M272.84 285.32L273.27 286.56M273.27 286.56L273.87 287.55M273.87 287.55L274.59 288.21M274.59 288.21L275.39 288.51"
fill="none" stroke="black" stroke-width="2"/>
<path d="M275.82 288.51L276.62 288.21M276.62 288.21L277.35 287.55M277.35 287.55L277.95 286.56M277.95 286.56L278.38 285.32M278.38 285.32L278.61 283.92M278.61 283.92L278.62 282.47M278.62 282.47L278.42 281.05M278.42 281.05L278.01 279.79M278.01 279.79L277.43 278.77M277.43 278.77L276.71 278.06M276.71 278.06L275.92 277.72"
fill="none" stroke="black" stroke-width="2"/>
<path d="M275.29 277.72L401.8 277.72"
fill="none" stroke="black" stroke-width="2"/>
<path d="M401.7 288.51L402.5 288.21M402.5 288.21L403.23 287.55M403.23 287.55L403.83 286.56M403.83 286.56L404.26 285.32M404.26 285.32L404.49 283.92M404.49 283.92L404.5 282.47M404.5 282.47L404.3 281.05M404.3 281.05L403.89 279.79M403.89 279.79L403.31 278.77M403.31 278.77L402.6 278.06M402.6 278.06L401.8 277.72"
fill="none" stroke="black" stroke-width="2"/>
<path d="M278.64 283.16L278.64 283.06"
fill="none" stroke="black" stroke-width="2"/>
<path d="M278.64 206.01L278.64 205.91"
fill="none" stroke="black" stroke-width="2"/>
<path d="M275.39 211.36L401.7 211.36"
fill="none" stroke="black" stroke-width="2"/>
<path d="M275.29 200.57L274.5 200.91M274.5 200.91L273.79 201.62M273.79 201.62L273.2 202.65M273.2 202.65L272.8 203.91M272.8 203.91L272.59 205.32M272.59 205.32L272.61 206.78M272.61 206.78L272.84 208.17M272.84 208.17L273.27 209.41M273.27 209.41L273.87 210.4M273.87 210.4L274.59 211.07M274.59 211.07L275.39 211.36"
fill="none" stroke="black" stroke-width="2"/>
<path d="M275.82 211.36L276.62 211.07M276.62 211.07L277.35 210.4M277.35 210.4L277.95 209.41M277.95 209.41L278.38 208.17M278.38 208.17L278.61 206.78M278.61 206.78L278.62 205.32M278.62 205.32L278.42 203.91M278.42 203.91L278.01 202.65M278.01 202.65L277.43 201.62M277.43 201.62L276.71 200.91M276.71 200.91L275.92 200.57"
fill="none" stroke="black" stroke-width="2"/>
<path d="M275.29 200.57L401.8 200.57"
fill="none" stroke="black" stroke-width="2"/>
<path d="M401.7 211.36L402.5 211.07M402.5 211.07L403.23 210.4M403.23 210.4L403.83 209.41M403.83 209.41L404.26 208.17M404.26 208.17L404.49 206.78M404.49 206.78L404.5 205.32M404.5 205.32L404.3 203.91M404.3 203.91L403.89 202.65M403.89 202.65L403.31 201.62M403.31 201.62L402.6 200.91M402.6 200.91L401.8 200.57"
fill="none" stroke="black" stroke-width="2"/>
<path d="M278.64 206.01L278.64 205.91"
fill="none" stroke="black" stroke-width="2"/>
<path d="M392.85 324.33L519.16 324.33"
fill="none" stroke="black" stroke-width="2"/>
<path d="M392.75 313.53L391.96 313.88M391.96 313.88L391.24 314.59M391.24 314.59L390.66 315.61M390.66 315.61L390.25 316.87M390.25 316.87L390.05 318.28M390.05 318.28L390.06 319.74M390.06 319.74L390.29 321.14M390.29 321.14L390.72 322.37M390.72 322.37L391.32 323.36M391.32 323.36L392.05 324.03M392.05 324.03L392.85 324.33"
fill="none" stroke="black" stroke-width="2"/>
<path d="M393.28 324.33L394.08 324.03M394.08 324.03L394.8 323.36M394.8 323.36L395.4 322.37M395.4 322.37L395.83 321.14M395.83 321.14L396.06 319.74M396.06 319.74L396.08 318.28M396.08 318.28L395.87 316.87M395.87 316.87L395.47 315.61M395.47 315.61L394.88 314.59M394.88 314.59L394.17 313.88M394.17 313.88L393.38 313.53"
fill="none" stroke="black" stroke-width="2"/>
<path d="M392.75 313.53L519.26 313.53"
fill="none" stroke="black" stroke-width="2"/>
<path d="M519.16 324.33L519.96 324.03M519.96 324.03L520.69 323.36M520.69 323.36L521.29 322.37M521.29 322.37L521.72 321.14M521.72 321.14L521.95 319.74M521.95 319.74L521.96 318.28M521.96 318.28L521.75 316.87M521.75 316.87L521.35 315.61M521.35 315.61L520.77 314.59M520.77 314.59L520.05 313.88M520.05 313.88L519.26 313.53"
fill="none" stroke="black" stroke-width="2"/>
<path d="M396.1 318.97L396.1 318.87"
fill="none" stroke="black" stroke-width="2"/>
<path d="M396.1 313.53L396.1 302.25"
fill="none" stroke="black" stroke-width="2"/>
<path d="M396.1 291.45L396.1 288.51"
fill="none" stroke="black" stroke-width="2"/>
<path d="M396.1 277.72L396.1 259.02"
fill="none" stroke="black" stroke-width="2"/>
<path d="M396.1 248.23L396.1 247.18"
fill="none" stroke="black" stroke-width="2"/>
<path d="M515.91 313.53L515.91 302.25"
fill="none" stroke="black" stroke-width="2"/>
<path d="M515.91 291.45L515.91 288.51"
fill="none" stroke="black" stroke-width="2"/>
<path d="M515.91 277.72L515.91 259.02"
fill="none" stroke="black" stroke-width="2"/>
<path d="M392.85 247.18L519.16 247.18"
fill="none" stroke="black" stroke-width="2"/>
<path d="M392.75 236.39L391.96 236.73M391.96 236.73L391.24 237.44M391.24 237.44L390.66 238.46M390.66 238.46L390.25 239.72M390.25 239.72L390.05 241.14M390.05 241.14L390.06 242.59M390.06 242.59L390.29 243.99M390.29 243.99L390.72 245.23M390.72 245.23L391.32 246.22M391.32 246.22L392.05 246.88M392.05 246.88L392.85 247.18"
fill="none" stroke="black" stroke-width="2"/>
<path d="M393.28 247.18L394.08 246.88M394.08 246.88L394.8 246.22M394.8 246.22L395.4 245.23M395.4 245.23L395.83 243.99M395.83 243.99L396.06 242.59M396.06 242.59L396.08 241.14M396.08 241.14L395.87 239.72M395.87 239.72L395.47 238.46M395.47 238.46L394.88 237.44M394.88 237.44L394.17 236.73M394.17 236.73L393.38 236.39"
fill="none" stroke="black" stroke-width="2"/>
<path d="M392.75 236.39L519.26 236.39"
fill="none" stroke="black" stroke-width="2"/>
<path d="M519.16 247.18L519.96 246.88M519.96 246.88L520.69 246.22M520.69 246.22L521.29 245.23M521.29 245.23L521.72 243.99M521.72 243.99L521.95 242.59M521.95 242.59L521.96 241.14M521.96 241.14L521.75 239.72M521.75 239.72L521.35 238.46M521.35 238.46L520.77 237.44M520.77 237.44L520.05 236.73M520.05 236.73L519.26 236.39"
fill="none" stroke="black" stroke-width="2"/>
<path d="M396.1 248.23L396.1 247.18"
fill="none" stroke="black" stroke-width="2"/>
<path d="M396.1 241.83L396.1 241.73"
fill="none" stroke="black" stroke-width="2"/>
<path d="M396.1 236.39L396.1 211.36"
fill="none" stroke="black" stroke-width="2"/>
<path d="M396.1 200.57L396.1 194.22"
fill="none" stroke="black" stroke-width="2"/>
<path d="M396.1 183.43L396.1 162.45"
fill="none" stroke="black" stroke-width="2"/>
<path d="M515.91 248.23L515.91 247.18"
fill="none" stroke="black" stroke-width="2"/>
<path d="M515.91 236.39L515.91 211.36"
fill="none" stroke="black" stroke-width="2"/>
<path d="M515.91 200.57L515.91 194.22"
fill="none" stroke="black" stroke-width="2"/>
<path d="M515.91 183.43L515.91 162.05"
fill="none" stroke="black" stroke-width="2"/>
<path d="M509.74 288.51L636.05 288.51"
fill="none" stroke="black" stroke-width="2"/>
<path d="M509.64 277.72L508.85 278.06M508.85 278.06L508.13 278.77M508.13 278.77L507.55 279.79M507.55 279.79L507.14 281.05M507.14 281.05L506.94 282.47M506.94 282.47L506.95 283.92M506.95 283.92L507.18 285.32M507.18 285.32L507.61 286.56M507.61 286.56L508.21 287.55M508.21 287.55L508.94 288.21M508.94 288.21L509.74 288.51"
fill="none" stroke="black" stroke-width="2"/>
<path d="M510.17 288.51L510.97 288.21M510.97 288.21L511.69 287.55M511.69 287.55L512.29 286.56M512.29 286.56L512.72 285.32M512.72 285.32L512.95 283.92M512.95 283.92L512.97 282.47M512.97 282.47L512.76 281.05M512.76 281.05L512.36 279.79M512.36 279.79L511.77 278.77M511.77 278.77L511.06 278.06M511.06 278.06L510.27 277.72"
fill="none" stroke="black" stroke-width="2"/>
<path d="M509.64 277.72L636.15 277.72"
fill="none" stroke="black" stroke-width="2"/>
<path d="M636.05 288.51L636.85 288.21M636.85 288.21L637.58 287.55M637.58 287.55L638.18 286.56M638.18 286.56L638.61 285.32M638.61 285.32L638.84 283.92M638.84 283.92L638.85 282.47M638.85 282.47L638.64 281.05M638.64 281.05L638.24 279.79M638.24 279.79L637.66 278.77M637.66 278.77L636.94 278.06M636.94 278.06L636.15 277.72"
fill="none" stroke="black" stroke-width="2"/>
<path d="M512.99 283.16L512.99 283.06"
fill="none" stroke="black" stroke-width="2"/>
<path d="M632.8 277.72L632.8 211.36"
fill="none" stroke="black" stroke-width="2"/>
<path d="M632.8 200.57L632.8 194.22"
fill="none" stroke="black" stroke-width="2"/>
<path d="M509.74 211.36L636.05 211.36"
fill="none" stroke="black" stroke-width="2"/>
<path d="M509.64 200.57L508.85 200.91M508.85 200.91L508.13 201.62M508.13 201.62L507.55 202.65M507.55 202.65L507.14 203.91M507.14 203.91L506.94 205.32M506.94 205.32L506.95 206.78M506.95 206.78L507.18 208.17M507.18 208.17L507.61 209.41M507.61 209.41L508.21 210.4M508.21 210.4L508.94 211.07M508.94 211.07L509.74 211.36"
fill="none" stroke="black" stroke-width="2"/>
<path d="M510.17 211.36L510.97 211.07M510.97 211.07L511.69 210.4M511.69 210.4L512.29 209.41M512.29 209.41L512.72 208.17M512.72 208.17L512.95 206.78M512.95 206.78L512.97 205.32M512.97 205.32L512.76 203.91M512.76 203.91L512.36 202.65M512.36 202.65L511.77 201.62M511.77 201.62L511.06 200.91M511.06 200.91L510.27 200.57"
fill="none" stroke="black" stroke-width="2"/>
<path d="M509.64 200.57L636.15 200.57"
fill="none" stroke="black" stroke-width="2"/>
<path d="M636.05 211.36L636.85 211.07M636.85 211.07L637.58 210.4M637.58 210.4L638.18 209.41M638.18 209.41L638.61 208.17M638.61 208.17L638.84 206.78M638.84 206.78L638.85 205.32M638.85 205.32L638.64 203.91M638.64 203.91L638.24 202.65M638.24 202.65L637.66 201.62M637.66 201.62L636.94 200.91M636.94 200.91L636.15 200.57"
fill="none" stroke="black" stroke-width="2"/>
<path d="M632.8 183.43L632.8 160.68"
fill="none" stroke="black" stroke-width="2"/>
<path d="M160.8 259.02L160.8 247.18"
fill="none" stroke="black" stroke-width="2"/>
<path d="M160.8 236.39L160.8 160.27"
fill="none" stroke="black" stroke-width="2"/>
<path d="M280.61 302.25L280.61 291.45"
fill="none" stroke="black" stroke-width="2"/>
<path d="M280.61 259.02L280.61 248.23"
fill="none" stroke="black" stroke-width="2"/>
<path d="M280.61 194.22L280.61 183.43"
fill="none" stroke="black" stroke-width="2"/>
<path d="M396.1 194.22L396.1 183.43"
fill="none" stroke="black" stroke-width="2"/>
<path d="M396.1 259.02L396.1 248.23"
fill="none" stroke="black" stroke-width="2"/>
<path d="M396.1 302.25L396.1 289.98"
fill="none" stroke="black" stroke-width="2"/>
<path d="M515.91 302.25L515.91 291.45"
fill="none" stroke="black" stroke-width="2"/>
<path d="M515.91 259.02L515.91 247.7"
fill="none" stroke="black" stroke-width="2"/>
<path d="M515.91 194.22L515.91 183.43"
fill="none" stroke="black" stroke-width="2"/>
<path d="M632.8 194.22L632.8 183.43"
fill="none" stroke="black" stroke-width="2"/>
</svg>
