<?xml version="1.0" encoding="UTF-8"?>
<svg xmlns="http://www.w3.org/2000/svg" width="800.000" height="600.000" viewBox="0.0 0.0 800.000 600.000" version="1.1">
  <title>Produce by Acme CAD Converter</title>
  <desc>Produce by Acme CAD Converter</desc>
<path d="M2.26 80.25L2.26 519.75"
fill="none" stroke="black" stroke-width="0"/>
<path d="M2.7 316.01L68.92 318.37M68.92 318.37L135.16 320.32M135.16 320.32L201.41 321.86M201.41 321.86L267.67 322.99M267.67 322.99L333.94 323.71M333.94 323.71L400.2 324.02M400.2 324.02L466.47 323.92M466.47 323.92L532.74 323.4M532.74 323.4L599 322.48M599 322.48L665.26 321.15M665.26 321.15L731.5 319.41M731.5 319.41L797.74 317.26"
fill="none" stroke="RGB(2,158,33)" stroke-width="2"/>
<path d="M2.26 300L68.49 302.36M68.49 302.36L134.73 304.31M134.73 304.31L200.98 305.85M200.98 305.85L267.24 306.98M267.24 306.98L333.5 307.7M333.5 307.7L399.77 308M399.77 308L466.04 307.9M466.04 307.9L532.31 307.39M532.31 307.39L598.57 306.47M598.57 306.47L664.82 305.14M664.82 305.14L731.07 303.4M731.07 303.4L797.3 301.25"
fill="none" stroke="RGB(2,158,33)" stroke-width="2"/>
<path d="M125.14 320.07L129.08 319.21M129.08 319.21L132.93 318.04M132.93 318.04L136.67 316.54M136.67 316.54L140.27 314.74M140.27 314.74L143.71 312.64M143.71 312.64L146.96 310.27M146.96 310.27L150.01 307.63M150.01 307.63L152.82 304.75"
fill="none" stroke="black" stroke-width="2"/>
<path d="M152.82 304.75L154.7 307.62M154.7 307.62L156.85 310.29M156.85 310.29L159.27 312.74M159.27 312.74L161.92 314.92M161.92 314.92L164.78 316.83M164.78 316.83L167.81 318.44M167.81 318.44L170.99 319.74M170.99 319.74L174.28 320.72M174.28 320.72L177.66 321.35"
fill="none" stroke="black" stroke-width="2"/>
<path d="M177.66 321.35L181.62 320.55M181.62 320.55L185.49 319.4M185.49 319.4L189.25 317.92M189.25 317.92L192.86 316.11M192.86 316.11L196.3 313.98M196.3 313.98L199.54 311.56M199.54 311.56L202.55 308.87M202.55 308.87L205.3 305.92"
fill="none" stroke="black" stroke-width="2"/>
<path d="M205.3 305.92L207.12 308.85M207.12 308.85L209.24 311.57M209.24 311.57L211.65 314.04M211.65 314.04L214.3 316.25M214.3 316.25L217.18 318.15M217.18 318.15L220.25 319.73M220.25 319.73L223.46 320.97M223.46 320.97L226.8 321.86M226.8 321.86L230.21 322.38"
fill="none" stroke="black" stroke-width="2"/>
<path d="M230.21 322.38L233.78 321.81M233.78 321.81L237.29 320.92M237.29 320.92L240.71 319.73M240.71 319.73L244.01 318.24M244.01 318.24L247.17 316.47M247.17 316.47L250.15 314.42M250.15 314.42L252.95 312.13M252.95 312.13L255.53 309.59M255.53 309.59L257.88 306.84"
fill="none" stroke="black" stroke-width="2"/>
<path d="M257.88 306.84L259.38 309.59M259.38 309.59L261.16 312.16M261.16 312.16L263.21 314.52M263.21 314.52L265.51 316.65M265.51 316.65L268.03 318.51M268.03 318.51L270.74 320.08M270.74 320.08L273.6 321.35M273.6 321.35L276.58 322.3M276.58 322.3L279.65 322.91M279.65 322.91L282.77 323.19"
fill="none" stroke="black" stroke-width="2"/>
<path d="M282.77 323.19L286.41 322.82M286.41 322.82L289.98 322.08M289.98 322.08L293.47 320.97M293.47 320.97L296.81 319.5M296.81 319.5L299.99 317.69M299.99 317.69L302.96 315.56M302.96 315.56L305.69 313.13M305.69 313.13L308.16 310.43M308.16 310.43L310.33 307.49"
fill="none" stroke="black" stroke-width="2"/>
<path d="M310.33 307.49L311.65 310.38M311.65 310.38L313.33 313.08M313.33 313.08L315.33 315.55M315.33 315.55L317.62 317.76M317.62 317.76L320.17 319.65M320.17 319.65L322.94 321.22M322.94 321.22L325.89 322.42M325.89 322.42L328.96 323.25M328.96 323.25L332.11 323.69M332.11 323.69L335.29 323.73"
fill="none" stroke="black" stroke-width="2"/>
<path d="M335.29 323.73L338.65 323.69M338.65 323.69L341.98 323.27M341.98 323.27L345.24 322.47M345.24 322.47L348.39 321.32M348.39 321.32L351.39 319.81M351.39 319.81L354.2 317.98M354.2 317.98L356.78 315.84M356.78 315.84L359.11 313.42M359.11 313.42L361.15 310.76M361.15 310.76L362.88 307.88"
fill="none" stroke="black" stroke-width="2"/>
<path d="M362.88 307.88L364.64 310.84M364.64 310.84L366.73 313.57M366.73 313.57L369.11 316.04M369.11 316.04L371.76 318.22M371.76 318.22L374.65 320.09M374.65 320.09L377.73 321.61M377.73 321.61L380.96 322.77M380.96 322.77L384.31 323.56M384.31 323.56L387.72 323.95"
fill="none" stroke="black" stroke-width="2"/>
<path d="M387.72 323.95L391.03 323.75M391.03 323.75L394.3 323.21M394.3 323.21L397.5 322.36M397.5 322.36L400.6 321.18M400.6 321.18L403.56 319.7M403.56 319.7L406.36 317.93M406.36 317.93L408.97 315.89M408.97 315.89L411.36 313.6M411.36 313.6L413.51 311.08M413.51 311.08L415.4 308.36"
fill="none" stroke="black" stroke-width="2"/>
<path d="M415.4 308.36L417.16 311.27M417.16 311.27L419.26 313.96M419.26 313.96L421.65 316.39M421.65 316.39L424.31 318.52M424.31 318.52L427.2 320.33M427.2 320.33L430.28 321.79M430.28 321.79L433.51 322.87M433.51 322.87L436.85 323.58M436.85 323.58L440.24 323.89"
fill="none" stroke="black" stroke-width="2"/>
<path d="M440.24 323.89L443.83 323.27M443.83 323.27L447.35 322.34M447.35 322.34L450.77 321.11M450.77 321.11L454.07 319.58M454.07 319.58L457.23 317.77M457.23 317.77L460.21 315.68M460.21 315.68L463 313.34M463 313.34L465.58 310.77M465.58 310.77L467.91 307.98"
fill="none" stroke="black" stroke-width="2"/>
<path d="M467.91 307.98L469.72 310.86M469.72 310.86L471.84 313.53M471.84 313.53L474.25 315.94M474.25 315.94L476.91 318.07M476.91 318.07L479.78 319.89M479.78 319.89L482.85 321.38M482.85 321.38L486.06 322.52M486.06 322.52L489.37 323.29M489.37 323.29L492.76 323.69"
fill="none" stroke="black" stroke-width="2"/>
<path d="M492.76 323.69L496.11 323.49M496.11 323.49L499.43 322.93M499.43 322.93L502.67 322.03M502.67 322.03L505.8 320.8M505.8 320.8L508.78 319.24M508.78 319.24L511.59 317.39M511.59 317.39L514.18 315.25M514.18 315.25L516.54 312.84M516.54 312.84L518.63 310.21M518.63 310.21L520.43 307.37"
fill="none" stroke="black" stroke-width="2"/>
<path d="M520.43 307.37L522.33 310.17M522.33 310.17L524.51 312.76M524.51 312.76L526.95 315.12M526.95 315.12L529.6 317.21M529.6 317.21L532.46 319.02M532.46 319.02L535.49 320.54M535.49 320.54L538.66 321.74M538.66 321.74L541.93 322.61M541.93 322.61L545.27 323.14"
fill="none" stroke="black" stroke-width="2"/>
<path d="M545.27 323.14L548.92 322.64M548.92 322.64L552.51 321.78M552.51 321.78L555.99 320.57M555.99 320.57L559.34 319.02M559.34 319.02L562.51 317.15M562.51 317.15L565.49 314.98M565.49 314.98L568.24 312.52M568.24 312.52L570.73 309.81M570.73 309.81L572.95 306.86"
fill="none" stroke="black" stroke-width="2"/>
<path d="M572.95 306.86L575.23 309.85M575.23 309.85L577.82 312.6M577.82 312.6L580.66 315.06M580.66 315.06L583.75 317.22M583.75 317.22L587.04 319.05M587.04 319.05L590.5 320.53M590.5 320.53L594.1 321.66M594.1 321.66L597.79 322.41"
fill="none" stroke="black" stroke-width="2"/>
<path d="M597.79 322.41L601.41 321.83M601.41 321.83L604.97 320.93M604.97 320.93L608.43 319.69M608.43 319.69L611.75 318.14M611.75 318.14L614.92 316.29M614.92 316.29L617.9 314.14M617.9 314.14L620.66 311.73M620.66 311.73L623.19 309.07M623.19 309.07L625.46 306.19"
fill="none" stroke="black" stroke-width="2"/>
<path d="M625.46 306.19L627.79 309.12M627.79 309.12L630.4 311.8M630.4 311.8L633.26 314.2M633.26 314.2L636.34 316.31M636.34 316.31L639.63 318.11M639.63 318.11L643.07 319.56M643.07 319.56L646.64 320.67M646.64 320.67L650.3 321.41"
fill="none" stroke="black" stroke-width="2"/>
<path d="M650.3 321.41L653.65 321.11M653.65 321.11L656.94 320.47M656.94 320.47L660.16 319.51M660.16 319.51L663.26 318.24M663.26 318.24L666.23 316.67M666.23 316.67L669.02 314.81M669.02 314.81L671.62 312.68M671.62 312.68L673.99 310.31M673.99 310.31L676.12 307.72M676.12 307.72L677.98 304.92"
fill="none" stroke="black" stroke-width="2"/>
</svg>
