<?xml version="1.0" encoding="UTF-8"?>
<svg xmlns="http://www.w3.org/2000/svg" width="800.000" height="600.000" viewBox="0.0 0.0 800.000 600.000" version="1.1">
  <title>Produce by Acme CAD Converter</title>
  <desc>Produce by Acme CAD Converter</desc>
<path d="M2.26 80.73L2.26 519.27"
fill="none" stroke="RGB(237,31,36)" stroke-width="0"/>
<path d="M2.82 156.6L47.41 159.18M47.41 159.18L92.01 161.45M92.01 161.45L136.62 163.43M136.62 163.43L181.25 165.1M181.25 165.1L225.88 166.46"
fill="none" stroke="RGB(2,158,33)" stroke-width="2"/>
<path d="M236.06 166.73L277.03 167.65M277.03 167.65L318 168.32"
fill="none" stroke="RGB(2,158,33)" stroke-width="2"/>
<path d="M328.18 168.45L369.14 168.79M369.14 168.79L410.11 168.89"
fill="none" stroke="RGB(2,158,33)" stroke-width="2"/>
<path d="M420.29 168.87L458.44 168.67M458.44 168.67L496.58 168.24"
fill="none" stroke="RGB(2,158,33)" stroke-width="2"/>
<path d="M506.76 168.09L545.85 167.37M545.85 167.37L584.94 166.41"
fill="none" stroke="RGB(2,158,33)" stroke-width="2"/>
<path d="M595.12 166.12L645.8 164.45M645.8 164.45L696.46 162.39M696.46 162.39L747.11 159.94M747.11 159.94L797.74 157.1"
fill="none" stroke="RGB(2,158,33)" stroke-width="2"/>
<path d="M2.82 156.6L65.78 158.27M65.78 158.27L128.73 159.67M128.73 159.67L191.7 160.78"
fill="none" stroke="RGB(2,158,33)" stroke-width="2"/>
<path d="M201.88 160.93L226.32 161.27"
fill="none" stroke="RGB(2,158,33)" stroke-width="2"/>
<path d="M235.75 161.39L283.81 161.9"
fill="none" stroke="RGB(2,158,33)" stroke-width="2"/>
<path d="M293.99 161.99L318 162.16"
fill="none" stroke="RGB(2,158,33)" stroke-width="2"/>
<path d="M328.18 162.22L375.93 162.42"
fill="none" stroke="RGB(2,158,33)" stroke-width="2"/>
<path d="M386.11 162.44L410.19 162.46"
fill="none" stroke="RGB(2,158,33)" stroke-width="2"/>
<path d="M420.22 162.45L462.4 162.36"
fill="none" stroke="RGB(2,158,33)" stroke-width="2"/>
<path d="M472.58 162.32L496.59 162.19"
fill="none" stroke="RGB(2,158,33)" stroke-width="2"/>
<path d="M506.76 162.12L550.75 161.75"
fill="none" stroke="RGB(2,158,33)" stroke-width="2"/>
<path d="M560.93 161.64L585.28 161.36"
fill="none" stroke="RGB(2,158,33)" stroke-width="2"/>
<path d="M594.65 161.24L662.35 160.19M662.35 160.19L730.05 158.81M730.05 158.81L797.74 157.1"
fill="none" stroke="RGB(2,158,33)" stroke-width="2"/>
<path d="M191.7 323.86L191.7 159.17"
fill="none" stroke="black" stroke-width="2"/>
<path d="M201.88 323.86L201.88 159.17"
fill="none" stroke="black" stroke-width="2"/>
<path d="M191.7 159.17L191.89 159.73M191.89 159.73L192.44 160.24M192.44 160.24L193.31 160.68M193.31 160.68L194.45 161M194.45 161L195.75 161.19M195.75 161.19L197.13 161.23M197.13 161.23L198.49 161.11M198.49 161.11L199.72 160.86M199.72 160.86L200.74 160.47M200.74 160.47L201.46 159.99M201.46 159.99L201.83 159.45M201.83 159.45L201.83 158.89M201.83 158.89L201.46 158.35M201.46 158.35L200.74 157.87M200.74 157.87L199.72 157.49M199.72 157.49L198.49 157.23M198.49 157.23L197.13 157.11M197.13 157.11L195.75 157.15M195.75 157.15L194.45 157.34M194.45 157.34L193.31 157.66M193.31 157.66L192.44 158.1M192.44 158.1L191.89 158.62M191.89 158.62L191.7 159.17"
fill="none" stroke="black" stroke-width="2"/>
<path d="M191.7 323.86L191.87 324.39M191.87 324.39L192.38 324.89M192.38 324.89L193.19 325.32M193.19 325.32L194.24 325.65M194.24 325.65L195.47 325.85M195.47 325.85L196.79 325.92M196.79 325.92L198.1 325.85M198.1 325.85L199.33 325.65M199.33 325.65L200.39 325.32M200.39 325.32L201.19 324.89M201.19 324.89L201.7 324.39M201.7 324.39L201.88 323.86"
fill="none" stroke="black" stroke-width="2"/>
<path d="M181.52 323.86L181.69 324.39M181.69 324.39L182.2 324.89M182.2 324.89L183.01 325.32M183.01 325.32L184.06 325.65M184.06 325.65L185.29 325.85M185.29 325.85L186.61 325.92M186.61 325.92L187.92 325.85M187.92 325.85L189.15 325.65M189.15 325.65L190.21 325.32M190.21 325.32L191.02 324.89M191.02 324.89L191.52 324.39M191.52 324.39L191.7 323.86"
fill="none" stroke="black" stroke-width="2"/>
<path d="M181.52 323.86L181.52 297.93"
fill="none" stroke="black" stroke-width="2"/>
<path d="M181.52 297.93L181.71 298.49M181.71 298.49L182.26 299M182.26 299L183.13 299.44M183.13 299.44L184.27 299.76M184.27 299.76L185.57 299.95M185.57 299.95L186.95 299.99M186.95 299.99L188.31 299.87M188.31 299.87L189.54 299.62M189.54 299.62L190.56 299.23M190.56 299.23L191.28 298.75M191.28 298.75L191.65 298.21M191.65 298.21L191.65 297.65M191.65 297.65L191.28 297.11M191.28 297.11L190.56 296.63M190.56 296.63L189.54 296.25M189.54 296.25L188.31 295.99M188.31 295.99L186.95 295.87M186.95 295.87L185.57 295.91M185.57 295.91L184.27 296.1M184.27 296.1L183.13 296.42M183.13 296.42L182.26 296.86M182.26 296.86L181.71 297.38M181.71 297.38L181.52 297.93"
fill="none" stroke="black" stroke-width="2"/>
<path d="M236.06 326.79L236.06 162.1"
fill="none" stroke="black" stroke-width="2"/>
<path d="M225.88 326.79L225.88 162.1"
fill="none" stroke="black" stroke-width="2"/>
<path d="M236.06 162.1L235.87 162.66M235.87 162.66L235.32 163.18M235.32 163.18L234.45 163.61M234.45 163.61L233.31 163.94M233.31 163.94L232.01 164.12M232.01 164.12L230.62 164.16M230.62 164.16L229.27 164.05M229.27 164.05L228.04 163.79M228.04 163.79L227.02 163.41M227.02 163.41L226.3 162.93M226.3 162.93L225.93 162.39M225.93 162.39L225.93 161.82M225.93 161.82L226.3 161.28M226.3 161.28L227.02 160.8M227.02 160.8L228.04 160.42M228.04 160.42L229.27 160.16M229.27 160.16L230.62 160.05M230.62 160.05L232.01 160.09M232.01 160.09L233.31 160.27M233.31 160.27L234.45 160.6M234.45 160.6L235.32 161.03M235.32 161.03L235.87 161.55M235.87 161.55L236.06 162.1"
fill="none" stroke="black" stroke-width="2"/>
<path d="M236.06 326.79L235.89 327.33M235.89 327.33L235.38 327.82M235.38 327.82L234.57 328.25M234.57 328.25L233.52 328.58M233.52 328.58L232.29 328.79M232.29 328.79L230.97 328.86M230.97 328.86L229.65 328.79M229.65 328.79L228.43 328.58M228.43 328.58L227.37 328.25M227.37 328.25L226.56 327.82M226.56 327.82L226.06 327.33M226.06 327.33L225.88 326.79"
fill="none" stroke="black" stroke-width="2"/>
<path d="M246.24 326.79L246.07 327.33M246.07 327.33L245.56 327.82M245.56 327.82L244.75 328.25M244.75 328.25L243.7 328.58M243.7 328.58L242.47 328.79M242.47 328.79L241.15 328.86M241.15 328.86L239.83 328.79M239.83 328.79L238.61 328.58M238.61 328.58L237.55 328.25M237.55 328.25L236.74 327.82M236.74 327.82L236.23 327.33M236.23 327.33L236.06 326.79"
fill="none" stroke="black" stroke-width="2"/>
<path d="M246.24 326.79L246.24 300.87"
fill="none" stroke="black" stroke-width="2"/>
<path d="M246.24 300.87L246.05 301.42M246.05 301.42L245.5 301.94M245.5 301.94L244.63 302.37M244.63 302.37L243.49 302.7M243.49 302.7L242.19 302.88M242.19 302.88L240.8 302.92M240.8 302.92L239.45 302.81M239.45 302.81L238.22 302.55M238.22 302.55L237.2 302.17M237.2 302.17L236.48 301.69M236.48 301.69L236.11 301.15M236.11 301.15L236.11 300.58M236.11 300.58L236.48 300.04M236.48 300.04L237.2 299.56M237.2 299.56L238.22 299.18M238.22 299.18L239.45 298.92M239.45 298.92L240.8 298.81M240.8 298.81L242.19 298.85M242.19 298.85L243.49 299.03M243.49 299.03L244.63 299.36M244.63 299.36L245.5 299.79M245.5 299.79L246.05 300.31M246.05 300.31L246.24 300.87"
fill="none" stroke="black" stroke-width="2"/>
<path d="M283.81 323.86L283.81 159.17"
fill="none" stroke="black" stroke-width="2"/>
<path d="M293.99 323.86L293.99 159.17"
fill="none" stroke="black" stroke-width="2"/>
<path d="M283.81 159.17L284 159.73M284 159.73L284.55 160.24M284.55 160.24L285.43 160.68M285.43 160.68L286.56 161M286.56 161L287.87 161.19M287.87 161.19L289.25 161.23M289.25 161.23L290.61 161.11M290.61 161.11L291.84 160.86M291.84 160.86L292.85 160.47M292.85 160.47L293.57 159.99M293.57 159.99L293.94 159.45M293.94 159.45L293.94 158.89M293.94 158.89L293.57 158.35M293.57 158.35L292.85 157.87M292.85 157.87L291.84 157.49M291.84 157.49L290.61 157.23M290.61 157.23L289.25 157.11M289.25 157.11L287.87 157.15M287.87 157.15L286.56 157.34M286.56 157.34L285.43 157.66M285.43 157.66L284.55 158.1M284.55 158.1L284 158.62M284 158.62L283.81 159.17"
fill="none" stroke="black" stroke-width="2"/>
<path d="M283.81 323.86L283.98 324.39M283.98 324.39L284.49 324.89M284.49 324.89L285.3 325.32M285.3 325.32L286.36 325.65M286.36 325.65L287.58 325.85M287.58 325.85L288.9 325.92M288.9 325.92L290.22 325.85M290.22 325.85L291.45 325.65M291.45 325.65L292.5 325.32M292.5 325.32L293.31 324.89M293.31 324.89L293.82 324.39M293.82 324.39L293.99 323.86"
fill="none" stroke="black" stroke-width="2"/>
<path d="M273.63 323.86L273.81 324.39M273.81 324.39L274.31 324.89M274.31 324.89L275.12 325.32M275.12 325.32L276.18 325.65M276.18 325.65L277.4 325.85M277.4 325.85L278.72 325.92M278.72 325.92L280.04 325.85M280.04 325.85L281.27 325.65M281.27 325.65L282.32 325.32M282.32 325.32L283.13 324.89M283.13 324.89L283.64 324.39M283.64 324.39L283.81 323.86"
fill="none" stroke="black" stroke-width="2"/>
<path d="M273.63 323.86L273.63 297.93"
fill="none" stroke="black" stroke-width="2"/>
<path d="M273.63 297.93L273.82 298.49M273.82 298.49L274.37 299M274.37 299L275.25 299.44M275.25 299.44L276.38 299.76M276.38 299.76L277.69 299.95M277.69 299.95L279.07 299.99M279.07 299.99L280.43 299.87M280.43 299.87L281.66 299.62M281.66 299.62L282.67 299.23M282.67 299.23L283.39 298.75M283.39 298.75L283.76 298.21M283.76 298.21L283.76 297.65M283.76 297.65L283.39 297.11M283.39 297.11L282.67 296.63M282.67 296.63L281.66 296.25M281.66 296.25L280.43 295.99M280.43 295.99L279.07 295.87M279.07 295.87L277.69 295.91M277.69 295.91L276.38 296.1M276.38 296.1L275.25 296.42M275.25 296.42L274.37 296.86M274.37 296.86L273.82 297.38M273.82 297.38L273.63 297.93"
fill="none" stroke="black" stroke-width="2"/>
<path d="M328.18 326.79L328.18 162.1"
fill="none" stroke="black" stroke-width="2"/>
<path d="M318 326.79L318 162.1"
fill="none" stroke="black" stroke-width="2"/>
<path d="M328.18 162.1L327.99 162.66M327.99 162.66L327.43 163.18M327.43 163.18L326.56 163.61M326.56 163.61L325.43 163.94M325.43 163.94L324.12 164.12M324.12 164.12L322.74 164.16M322.74 164.16L321.38 164.05M321.38 164.05L320.15 163.79M320.15 163.79L319.14 163.41M319.14 163.41L318.42 162.93M318.42 162.93L318.04 162.39M318.04 162.39L318.04 161.82M318.04 161.82L318.42 161.28M318.42 161.28L319.14 160.8M319.14 160.8L320.15 160.42M320.15 160.42L321.38 160.16M321.38 160.16L322.74 160.05M322.74 160.05L324.12 160.09M324.12 160.09L325.43 160.27M325.43 160.27L326.56 160.6M326.56 160.6L327.43 161.03M327.43 161.03L327.99 161.55M327.99 161.55L328.18 162.1"
fill="none" stroke="black" stroke-width="2"/>
<path d="M328.18 326.79L328 327.33M328 327.33L327.49 327.82M327.49 327.82L326.69 328.25M326.69 328.25L325.63 328.58M325.63 328.58L324.4 328.79M324.4 328.79L323.09 328.86M323.09 328.86L321.77 328.79M321.77 328.79L320.54 328.58M320.54 328.58L319.49 328.25M319.49 328.25L318.68 327.82M318.68 327.82L318.17 327.33M318.17 327.33L318 326.79"
fill="none" stroke="black" stroke-width="2"/>
<path d="M338.36 326.79L338.18 327.33M338.18 327.33L337.67 327.82M337.67 327.82L336.86 328.25M336.86 328.25L335.81 328.58M335.81 328.58L334.58 328.79M334.58 328.79L333.27 328.86M333.27 328.86L331.95 328.79M331.95 328.79L330.72 328.58M330.72 328.58L329.67 328.25M329.67 328.25L328.86 327.82M328.86 327.82L328.35 327.33M328.35 327.33L328.18 326.79"
fill="none" stroke="black" stroke-width="2"/>
<path d="M338.36 326.79L338.36 300.87"
fill="none" stroke="black" stroke-width="2"/>
<path d="M338.36 300.87L338.17 301.42M338.17 301.42L337.61 301.94M337.61 301.94L336.74 302.37M336.74 302.37L335.61 302.7M335.61 302.7L334.3 302.88M334.3 302.88L332.92 302.92M332.92 302.92L331.56 302.81M331.56 302.81L330.33 302.55M330.33 302.55L329.32 302.17M329.32 302.17L328.6 301.69M328.6 301.69L328.22 301.15M328.22 301.15L328.22 300.58M328.22 300.58L328.6 300.04M328.6 300.04L329.32 299.56M329.32 299.56L330.33 299.18M330.33 299.18L331.56 298.92M331.56 298.92L332.92 298.81M332.92 298.81L334.3 298.85M334.3 298.85L335.61 299.03M335.61 299.03L336.74 299.36M336.74 299.36L337.61 299.79M337.61 299.79L338.17 300.31M338.17 300.31L338.36 300.87"
fill="none" stroke="black" stroke-width="2"/>
<path d="M375.93 323.86L375.93 159.17"
fill="none" stroke="black" stroke-width="2"/>
<path d="M386.11 323.86L386.11 159.17"
fill="none" stroke="black" stroke-width="2"/>
<path d="M375.93 159.17L376.11 159.73M376.11 159.73L376.67 160.24M376.67 160.24L377.54 160.68M377.54 160.68L378.67 161M378.67 161L379.98 161.19M379.98 161.19L381.36 161.23M381.36 161.23L382.72 161.11M382.72 161.11L383.95 160.86M383.95 160.86L384.96 160.47M384.96 160.47L385.68 159.99M385.68 159.99L386.06 159.45M386.06 159.45L386.06 158.89M386.06 158.89L385.68 158.35M385.68 158.35L384.96 157.87M384.96 157.87L383.95 157.49M383.95 157.49L382.72 157.23M382.72 157.23L381.36 157.11M381.36 157.11L379.98 157.15M379.98 157.15L378.67 157.34M378.67 157.34L377.54 157.66M377.54 157.66L376.67 158.1M376.67 158.1L376.11 158.62M376.11 158.62L375.93 159.17"
fill="none" stroke="black" stroke-width="2"/>
<path d="M375.93 323.86L376.1 324.39M376.1 324.39L376.61 324.89M376.61 324.89L377.42 325.32M377.42 325.32L378.47 325.65M378.47 325.65L379.7 325.85M379.7 325.85L381.02 325.92M381.02 325.92L382.33 325.85M382.33 325.85L383.56 325.65M383.56 325.65L384.62 325.32M384.62 325.32L385.42 324.89M385.42 324.89L385.93 324.39M385.93 324.39L386.11 323.86"
fill="none" stroke="black" stroke-width="2"/>
<path d="M365.75 323.86L365.92 324.39M365.92 324.39L366.43 324.89M366.43 324.89L367.24 325.32M367.24 325.32L368.29 325.65M368.29 325.65L369.52 325.85M369.52 325.85L370.84 325.92M370.84 325.92L372.15 325.85M372.15 325.85L373.38 325.65M373.38 325.65L374.44 325.32M374.44 325.32L375.24 324.89M375.24 324.89L375.75 324.39M375.75 324.39L375.93 323.86"
fill="none" stroke="black" stroke-width="2"/>
<path d="M365.75 323.86L365.75 297.93"
fill="none" stroke="black" stroke-width="2"/>
<path d="M365.75 297.93L365.94 298.49M365.94 298.49L366.49 299M366.49 299L367.36 299.44M367.36 299.44L368.49 299.76M368.49 299.76L369.8 299.95M369.8 299.95L371.18 299.99M371.18 299.99L372.54 299.87M372.54 299.87L373.77 299.62M373.77 299.62L374.78 299.23M374.78 299.23L375.5 298.75M375.5 298.75L375.88 298.21M375.88 298.21L375.88 297.65M375.88 297.65L375.5 297.11M375.5 297.11L374.78 296.63M374.78 296.63L373.77 296.25M373.77 296.25L372.54 295.99M372.54 295.99L371.18 295.87M371.18 295.87L369.8 295.91M369.8 295.91L368.49 296.1M368.49 296.1L367.36 296.42M367.36 296.42L366.49 296.86M366.49 296.86L365.94 297.38M365.94 297.38L365.75 297.93"
fill="none" stroke="black" stroke-width="2"/>
<path d="M420.29 326.79L420.29 162.1"
fill="none" stroke="black" stroke-width="2"/>
<path d="M410.11 326.79L410.11 162.1"
fill="none" stroke="black" stroke-width="2"/>
<path d="M420.29 162.1L420.1 162.66M420.1 162.66L419.55 163.18M419.55 163.18L418.67 163.61M418.67 163.61L417.54 163.94M417.54 163.94L416.24 164.12M416.24 164.12L414.85 164.16M414.85 164.16L413.5 164.05M413.5 164.05L412.27 163.79M412.27 163.79L411.25 163.41M411.25 163.41L410.53 162.93M410.53 162.93L410.16 162.39M410.16 162.39L410.16 161.82M410.16 161.82L410.53 161.28M410.53 161.28L411.25 160.8M411.25 160.8L412.27 160.42M412.27 160.42L413.5 160.16M413.5 160.16L414.85 160.05M414.85 160.05L416.24 160.09M416.24 160.09L417.54 160.27M417.54 160.27L418.67 160.6M418.67 160.6L419.55 161.03M419.55 161.03L420.1 161.55M420.1 161.55L420.29 162.1"
fill="none" stroke="black" stroke-width="2"/>
<path d="M420.29 326.79L420.12 327.33M420.12 327.33L419.61 327.82M419.61 327.82L418.8 328.25M418.8 328.25L417.75 328.58M417.75 328.58L416.52 328.79M416.52 328.79L415.2 328.86M415.2 328.86L413.88 328.79M413.88 328.79L412.66 328.58M412.66 328.58L411.6 328.25M411.6 328.25L410.79 327.82M410.79 327.82L410.28 327.33M410.28 327.33L410.11 326.79"
fill="none" stroke="black" stroke-width="2"/>
<path d="M430.47 326.79L430.3 327.33M430.3 327.33L429.79 327.82M429.79 327.82L428.98 328.25M428.98 328.25L427.93 328.58M427.93 328.58L426.7 328.79M426.7 328.79L425.38 328.86M425.38 328.86L424.06 328.79M424.06 328.79L422.84 328.58M422.84 328.58L421.78 328.25M421.78 328.25L420.97 327.82M420.97 327.82L420.46 327.33M420.46 327.33L420.29 326.79"
fill="none" stroke="black" stroke-width="2"/>
<path d="M430.47 326.79L430.47 300.87"
fill="none" stroke="black" stroke-width="2"/>
<path d="M430.47 300.87L430.28 301.42M430.28 301.42L429.73 301.94M429.73 301.94L428.85 302.37M428.85 302.37L427.72 302.7M427.72 302.7L426.42 302.88M426.42 302.88L425.03 302.92M425.03 302.92L423.68 302.81M423.68 302.81L422.45 302.55M422.45 302.55L421.43 302.17M421.43 302.17L420.71 301.69M420.71 301.69L420.34 301.15M420.34 301.15L420.34 300.58M420.34 300.58L420.71 300.04M420.71 300.04L421.43 299.56M421.43 299.56L422.45 299.18M422.45 299.18L423.68 298.92M423.68 298.92L425.03 298.81M425.03 298.81L426.42 298.85M426.42 298.85L427.72 299.03M427.72 299.03L428.85 299.36M428.85 299.36L429.73 299.79M429.73 299.79L430.28 300.31M430.28 300.31L430.47 300.87"
fill="none" stroke="black" stroke-width="2"/>
<path d="M462.4 323.86L462.4 159.17"
fill="none" stroke="black" stroke-width="2"/>
<path d="M472.58 323.86L472.58 159.17"
fill="none" stroke="black" stroke-width="2"/>
<path d="M462.4 159.17L462.59 159.73M462.59 159.73L463.14 160.24M463.14 160.24L464.01 160.68M464.01 160.68L465.15 161M465.15 161L466.45 161.19M466.45 161.19L467.84 161.23M467.84 161.23L469.19 161.11M469.19 161.11L470.42 160.86M470.42 160.86L471.44 160.47M471.44 160.47L472.16 159.99M472.16 159.99L472.53 159.45M472.53 159.45L472.53 158.89M472.53 158.89L472.16 158.35M472.16 158.35L471.44 157.87M471.44 157.87L470.42 157.49M470.42 157.49L469.19 157.23M469.19 157.23L467.84 157.11M467.84 157.11L466.45 157.15M466.45 157.15L465.15 157.34M465.15 157.34L464.01 157.66M464.01 157.66L463.14 158.1M463.14 158.1L462.59 158.62M462.59 158.62L462.4 159.17"
fill="none" stroke="black" stroke-width="2"/>
<path d="M462.4 323.86L462.57 324.39M462.57 324.39L463.08 324.89M463.08 324.89L463.89 325.32M463.89 325.32L464.94 325.65M464.94 325.65L466.17 325.85M466.17 325.85L467.49 325.92M467.49 325.92L468.81 325.85M468.81 325.85L470.03 325.65M470.03 325.65L471.09 325.32M471.09 325.32L471.9 324.89M471.9 324.89L472.4 324.39M472.4 324.39L472.58 323.86"
fill="none" stroke="black" stroke-width="2"/>
<path d="M452.22 323.86L452.39 324.39M452.39 324.39L452.9 324.89M452.9 324.89L453.71 325.32M453.71 325.32L454.76 325.65M454.76 325.65L455.99 325.85M455.99 325.85L457.31 325.92M457.31 325.92L458.63 325.85M458.63 325.85L459.85 325.65M459.85 325.65L460.91 325.32M460.91 325.32L461.72 324.89M461.72 324.89L462.23 324.39M462.23 324.39L462.4 323.86"
fill="none" stroke="black" stroke-width="2"/>
<path d="M452.22 323.86L452.22 297.93"
fill="none" stroke="black" stroke-width="2"/>
<path d="M452.22 297.93L452.41 298.49M452.41 298.49L452.96 299M452.96 299L453.83 299.44M453.83 299.44L454.97 299.76M454.97 299.76L456.27 299.95M456.27 299.95L457.66 299.99M457.66 299.99L459.01 299.87M459.01 299.87L460.24 299.62M460.24 299.62L461.26 299.23M461.26 299.23L461.98 298.75M461.98 298.75L462.35 298.21M462.35 298.21L462.35 297.65M462.35 297.65L461.98 297.11M461.98 297.11L461.26 296.63M461.26 296.63L460.24 296.25M460.24 296.25L459.01 295.99M459.01 295.99L457.66 295.87M457.66 295.87L456.27 295.91M456.27 295.91L454.97 296.1M454.97 296.1L453.83 296.42M453.83 296.42L452.96 296.86M452.96 296.86L452.41 297.38M452.41 297.38L452.22 297.93"
fill="none" stroke="black" stroke-width="2"/>
<path d="M506.76 326.79L506.76 162.1"
fill="none" stroke="black" stroke-width="2"/>
<path d="M496.58 326.79L496.58 162.1"
fill="none" stroke="black" stroke-width="2"/>
<path d="M506.76 162.1L506.57 162.66M506.57 162.66L506.02 163.18M506.02 163.18L505.15 163.61M505.15 163.61L504.01 163.94M504.01 163.94L502.71 164.12M502.71 164.12L501.33 164.16M501.33 164.16L499.97 164.05M499.97 164.05L498.74 163.79M498.74 163.79L497.72 163.41M497.72 163.41L497 162.93M497 162.93L496.63 162.39M496.63 162.39L496.63 161.82M496.63 161.82L497 161.28M497 161.28L497.72 160.8M497.72 160.8L498.74 160.42M498.74 160.42L499.97 160.16M499.97 160.16L501.33 160.05M501.33 160.05L502.71 160.09M502.71 160.09L504.01 160.27M504.01 160.27L505.15 160.6M505.15 160.6L506.02 161.03M506.02 161.03L506.57 161.55M506.57 161.55L506.76 162.1"
fill="none" stroke="black" stroke-width="2"/>
<path d="M506.76 326.79L506.59 327.33M506.59 327.33L506.08 327.82M506.08 327.82L505.27 328.25M505.27 328.25L504.22 328.58M504.22 328.58L502.99 328.79M502.99 328.79L501.67 328.86M501.67 328.86L500.36 328.79M500.36 328.79L499.13 328.58M499.13 328.58L498.07 328.25M498.07 328.25L497.26 327.82M497.26 327.82L496.76 327.33M496.76 327.33L496.58 326.79"
fill="none" stroke="black" stroke-width="2"/>
<path d="M516.94 326.79L516.77 327.33M516.77 327.33L516.26 327.82M516.26 327.82L515.45 328.25M515.45 328.25L514.4 328.58M514.4 328.58L513.17 328.79M513.17 328.79L511.85 328.86M511.85 328.86L510.54 328.79M510.54 328.79L509.31 328.58M509.31 328.58L508.25 328.25M508.25 328.25L507.44 327.82M507.44 327.82L506.94 327.33M506.94 327.33L506.76 326.79"
fill="none" stroke="black" stroke-width="2"/>
<path d="M516.94 326.79L516.94 300.87"
fill="none" stroke="black" stroke-width="2"/>
<path d="M516.94 300.87L516.75 301.42M516.75 301.42L516.2 301.94M516.2 301.94L515.33 302.37M515.33 302.37L514.19 302.7M514.19 302.7L512.89 302.88M512.89 302.88L511.51 302.92M511.51 302.92L510.15 302.81M510.15 302.81L508.92 302.55M508.92 302.55L507.9 302.17M507.9 302.17L507.18 301.69M507.18 301.69L506.81 301.15M506.81 301.15L506.81 300.58M506.81 300.58L507.18 300.04M507.18 300.04L507.9 299.56M507.9 299.56L508.92 299.18M508.92 299.18L510.15 298.92M510.15 298.92L511.51 298.81M511.51 298.81L512.89 298.85M512.89 298.85L514.19 299.03M514.19 299.03L515.33 299.36M515.33 299.36L516.2 299.79M516.2 299.79L516.75 300.31M516.75 300.31L516.94 300.87"
fill="none" stroke="black" stroke-width="2"/>
<path d="M550.75 323.86L550.75 159.17"
fill="none" stroke="black" stroke-width="2"/>
<path d="M560.93 323.86L560.93 159.17"
fill="none" stroke="black" stroke-width="2"/>
<path d="M550.75 159.17L550.94 159.73M550.94 159.73L551.49 160.24M551.49 160.24L552.37 160.68M552.37 160.68L553.5 161M553.5 161L554.81 161.19M554.81 161.19L556.19 161.23M556.19 161.23L557.55 161.11M557.55 161.11L558.78 160.86M558.78 160.86L559.79 160.47M559.79 160.47L560.51 159.99M560.51 159.99L560.89 159.45M560.89 159.45L560.89 158.89M560.89 158.89L560.51 158.35M560.51 158.35L559.79 157.87M559.79 157.87L558.78 157.49M558.78 157.49L557.55 157.23M557.55 157.23L556.19 157.11M556.19 157.11L554.81 157.15M554.81 157.15L553.5 157.34M553.5 157.34L552.37 157.66M552.37 157.66L551.49 158.1M551.49 158.1L550.94 158.62M550.94 158.62L550.75 159.17"
fill="none" stroke="black" stroke-width="2"/>
<path d="M550.75 323.86L550.93 324.39M550.93 324.39L551.44 324.89M551.44 324.89L552.24 325.32M552.24 325.32L553.3 325.65M553.3 325.65L554.53 325.85M554.53 325.85L555.84 325.92M555.84 325.92L557.16 325.85M557.16 325.85L558.39 325.65M558.39 325.65L559.44 325.32M559.44 325.32L560.25 324.89M560.25 324.89L560.76 324.39M560.76 324.39L560.93 323.86"
fill="none" stroke="black" stroke-width="2"/>
<path d="M540.57 323.86L540.75 324.39M540.75 324.39L541.26 324.89M541.26 324.89L542.07 325.32M542.07 325.32L543.12 325.65M543.12 325.65L544.35 325.85M544.35 325.85L545.66 325.92M545.66 325.92L546.98 325.85M546.98 325.85L548.21 325.65M548.21 325.65L549.26 325.32M549.26 325.32L550.07 324.89M550.07 324.89L550.58 324.39M550.58 324.39L550.75 323.86"
fill="none" stroke="black" stroke-width="2"/>
<path d="M540.57 323.86L540.57 297.93"
fill="none" stroke="black" stroke-width="2"/>
<path d="M540.57 297.93L540.76 298.49M540.76 298.49L541.32 299M541.32 299L542.19 299.44M542.19 299.44L543.32 299.76M543.32 299.76L544.63 299.95M544.63 299.95L546.01 299.99M546.01 299.99L547.37 299.87M547.37 299.87L548.6 299.62M548.6 299.62L549.61 299.23M549.61 299.23L550.33 298.75M550.33 298.75L550.71 298.21M550.71 298.21L550.71 297.65M550.71 297.65L550.33 297.11M550.33 297.11L549.61 296.63M549.61 296.63L548.6 296.25M548.6 296.25L547.37 295.99M547.37 295.99L546.01 295.87M546.01 295.87L544.63 295.91M544.63 295.91L543.32 296.1M543.32 296.1L542.19 296.42M542.19 296.42L541.32 296.86M541.32 296.86L540.76 297.38M540.76 297.38L540.57 297.93"
fill="none" stroke="black" stroke-width="2"/>
<path d="M595.12 326.79L595.12 162.1"
fill="none" stroke="black" stroke-width="2"/>
<path d="M584.94 326.79L584.94 162.1"
fill="none" stroke="black" stroke-width="2"/>
<path d="M595.12 162.1L594.93 162.66M594.93 162.66L594.38 163.18M594.38 163.18L593.5 163.61M593.5 163.61L592.37 163.94M592.37 163.94L591.06 164.12M591.06 164.12L589.68 164.16M589.68 164.16L588.32 164.05M588.32 164.05L587.09 163.79M587.09 163.79L586.08 163.41M586.08 163.41L585.36 162.93M585.36 162.93L584.99 162.39M584.99 162.39L584.99 161.82M584.99 161.82L585.36 161.28M585.36 161.28L586.08 160.8M586.08 160.8L587.09 160.42M587.09 160.42L588.32 160.16M588.32 160.16L589.68 160.05M589.68 160.05L591.06 160.09M591.06 160.09L592.37 160.27M592.37 160.27L593.5 160.6M593.5 160.6L594.38 161.03M594.38 161.03L594.93 161.55M594.93 161.55L595.12 162.1"
fill="none" stroke="black" stroke-width="2"/>
<path d="M595.12 326.79L594.94 327.33M594.94 327.33L594.44 327.82M594.44 327.82L593.63 328.25M593.63 328.25L592.57 328.58M592.57 328.58L591.35 328.79M591.35 328.79L590.03 328.86M590.03 328.86L588.71 328.79M588.71 328.79L587.48 328.58M587.48 328.58L586.43 328.25M586.43 328.25L585.62 327.82M585.62 327.82L585.11 327.33M585.11 327.33L584.94 326.79"
fill="none" stroke="black" stroke-width="2"/>
<path d="M605.3 326.79L605.12 327.33M605.12 327.33L604.62 327.82M604.62 327.82L603.81 328.25M603.81 328.25L602.75 328.58M602.75 328.58L601.53 328.79M601.53 328.79L600.21 328.86M600.21 328.86L598.89 328.79M598.89 328.79L597.66 328.58M597.66 328.58L596.61 328.25M596.61 328.25L595.8 327.82M595.8 327.82L595.29 327.33M595.29 327.33L595.12 326.79"
fill="none" stroke="black" stroke-width="2"/>
<path d="M605.3 326.79L605.3 300.87"
fill="none" stroke="black" stroke-width="2"/>
<path d="M605.3 300.87L605.11 301.42M605.11 301.42L604.56 301.94M604.56 301.94L603.68 302.37M603.68 302.37L602.55 302.7M602.55 302.7L601.24 302.88M601.24 302.88L599.86 302.92M599.86 302.92L598.5 302.81M598.5 302.81L597.27 302.55M597.27 302.55L596.26 302.17M596.26 302.17L595.54 301.69M595.54 301.69L595.17 301.15M595.17 301.15L595.17 300.58M595.17 300.58L595.54 300.04M595.54 300.04L596.26 299.56M596.26 299.56L597.27 299.18M597.27 299.18L598.5 298.92M598.5 298.92L599.86 298.81M599.86 298.81L601.24 298.85M601.24 298.85L602.55 299.03M602.55 299.03L603.68 299.36M603.68 299.36L604.56 299.79M604.56 299.79L605.11 300.31M605.11 300.31L605.3 300.87"
fill="none" stroke="black" stroke-width="2"/>
</svg>
