<?xml version="1.0" encoding="UTF-8"?>
<svg xmlns="http://www.w3.org/2000/svg" width="800.000" height="600.000" viewBox="0.0 0.0 800.000 600.000" version="1.1">
  <title>Produce by Acme CAD Converter</title>
  <desc>Produce by Acme CAD Converter</desc>
<path d="M3.1 80.51L3.1 519.49"
fill="none" stroke="RGB(237,31,36)" stroke-width="0"/>
<path d="M63.64 316.33L63.82 315.12M63.82 315.12L64.36 314.01M64.36 314.01L65.19 313.11M65.19 313.11L66.25 312.5M66.25 312.5L67.45 312.23M67.45 312.23L68.67 312.32M68.67 312.32L69.81 312.77M69.81 312.77L70.77 313.53M70.77 313.53L71.46 314.54M71.46 314.54L71.83 315.72M71.83 315.72L71.83 316.94M71.83 316.94L71.46 318.11M71.46 318.11L70.77 319.13M70.77 319.13L69.81 319.89M69.81 319.89L68.67 320.34M68.67 320.34L67.45 320.43M67.45 320.43L66.25 320.16M66.25 320.16L65.19 319.55M65.19 319.55L64.36 318.65M64.36 318.65L63.82 317.54M63.82 317.54L63.64 316.33"
fill="none" stroke="black" stroke-width="2"/>
<path d="M96.63 297.45L97.41 296.57M97.41 296.57L97.91 295.52M97.91 295.52L98.1 294.36M98.1 294.36L97.95 293.2M97.95 293.2L97.48 292.12M97.48 292.12L96.73 291.23M96.73 291.23L95.75 290.58M95.75 290.58L94.63 290.23M94.63 290.23L93.46 290.21M93.46 290.21L92.33 290.53M92.33 290.53L91.34 291.15"
fill="none" stroke="black" stroke-width="2"/>
<path d="M70.4 319.48L80.55 310.95"
fill="none" stroke="black" stroke-width="2"/>
<path d="M95.05 298.77L96.63 297.45"
fill="none" stroke="black" stroke-width="2"/>
<path d="M65.11 313.18L71.01 308.22"
fill="none" stroke="black" stroke-width="2"/>
<path d="M83.18 298L91.34 291.15"
fill="none" stroke="black" stroke-width="2"/>
<path d="M83.36 297.97L80.24 298.58M80.24 298.58L77.18 299.45M77.18 299.45L74.2 300.59M74.2 300.59L71.34 301.98"
fill="none" stroke="black" stroke-width="2"/>
<path d="M71.34 301.98L70.45 302.65M70.45 302.65L69.81 303.57M69.81 303.57L69.47 304.63M69.47 304.63L69.48 305.75M69.48 305.75L69.82 306.82M69.82 306.82L70.47 307.72"
fill="none" stroke="black" stroke-width="2"/>
<path d="M70.47 307.72L71.65 308.7M71.65 308.7L73.01 309.4M73.01 309.4L74.48 309.81"
fill="none" stroke="black" stroke-width="2"/>
<path d="M96.26 315.04L89.08 312.96M89.08 312.96L81.82 311.22M81.82 311.22L74.48 309.81"
fill="none" stroke="black" stroke-width="2"/>
<path d="M96.26 315.04L100.9 316.31M100.9 316.31L105.62 317.25M105.62 317.25L110.4 317.84M110.4 317.84L115.21 318.08M115.21 318.08L120.02 317.97M120.02 317.97L124.81 317.51M124.81 317.51L129.56 316.71M129.56 316.71L134.24 315.56"
fill="none" stroke="black" stroke-width="2"/>
<path d="M149.57 313.64L145.69 313.68M145.69 313.68L141.83 314.01M141.83 314.01L138 314.64M138 314.64L134.24 315.56"
fill="none" stroke="black" stroke-width="2"/>
<path d="M149.57 313.64L152.57 313.55M152.57 313.55L155.55 313.11M155.55 313.11L158.45 312.33M158.45 312.33L161.24 311.21"
fill="none" stroke="black" stroke-width="2"/>
<path d="M161.24 311.21L162.02 310.67M162.02 310.67L162.57 309.91M162.57 309.91L162.85 309.01M162.85 309.01L162.82 308.07M162.82 308.07L162.48 307.19M162.48 307.19L161.87 306.47M161.87 306.47L161.07 305.98"
fill="none" stroke="black" stroke-width="2"/>
<path d="M161.07 305.98L157.66 304.81M157.66 304.81L154.17 303.94M154.17 303.94L150.61 303.37"
fill="none" stroke="black" stroke-width="2"/>
<path d="M143.47 300.24L145.06 301.41M145.06 301.41L146.81 302.34M146.81 302.34L148.67 303M148.67 303L150.61 303.37"
fill="none" stroke="black" stroke-width="2"/>
<path d="M143.47 300.24L141.46 298.74M141.46 298.74L139.26 297.53M139.26 297.53L136.92 296.64M136.92 296.64L134.47 296.09M134.47 296.09L131.97 295.88"
fill="none" stroke="black" stroke-width="2"/>
<path d="M131.97 295.88L118.03 295.71"
fill="none" stroke="black" stroke-width="2"/>
<path d="M118.03 295.71L114.76 295.8M114.76 295.8L111.51 296.15M111.51 296.15L108.3 296.76M108.3 296.76L105.14 297.63"
fill="none" stroke="black" stroke-width="2"/>
<path d="M96.94 298.82L99.71 298.72M99.71 298.72L102.46 298.32M102.46 298.32L105.14 297.63"
fill="none" stroke="black" stroke-width="2"/>
<path d="M83.36 297.97L90.14 298.54M90.14 298.54L96.94 298.82"
fill="none" stroke="black" stroke-width="2"/>
<path d="M128.93 323.33L129.11 322.11M129.11 322.11L129.64 321.01M129.64 321.01L130.48 320.11M130.48 320.11L131.54 319.5M131.54 319.5L132.73 319.22M132.73 319.22L133.96 319.32M133.96 319.32L135.1 319.76M135.1 319.76L136.06 320.53M136.06 320.53L136.75 321.54M136.75 321.54L137.11 322.71M137.11 322.71L137.11 323.94M137.11 323.94L136.75 325.11M136.75 325.11L136.06 326.13M136.06 326.13L135.1 326.89M135.1 326.89L133.96 327.34M133.96 327.34L132.73 327.43M132.73 327.43L131.54 327.16M131.54 327.16L130.48 326.54M130.48 326.54L129.64 325.64M129.64 325.64L129.11 324.54M129.11 324.54L128.93 323.33"
fill="none" stroke="black" stroke-width="2"/>
<path d="M161.92 304.44L162.7 303.57M162.7 303.57L163.2 302.51M163.2 302.51L163.39 301.36M163.39 301.36L163.24 300.19M163.24 300.19L162.77 299.12M162.77 299.12L162.01 298.22M162.01 298.22L161.04 297.58M161.04 297.58L159.92 297.23M159.92 297.23L158.75 297.21M158.75 297.21L157.62 297.52M157.62 297.52L156.62 298.14"
fill="none" stroke="black" stroke-width="2"/>
<path d="M135.69 326.48L150.96 313.65"
fill="none" stroke="black" stroke-width="2"/>
<path d="M160.39 305.73L161.92 304.44"
fill="none" stroke="black" stroke-width="2"/>
<path d="M130.4 320.18L136.63 314.94"
fill="none" stroke="black" stroke-width="2"/>
<path d="M150.43 303.35L156.62 298.14"
fill="none" stroke="black" stroke-width="2"/>
<path d="M69.53 310.67L69.55 310.64M69.55 310.64L69.59 310.62M69.59 310.62L69.63 310.64M69.63 310.64L69.65 310.67M69.65 310.67L69.63 310.71M69.63 310.71L69.59 310.73M69.59 310.73L69.55 310.71M69.55 310.71L69.53 310.67"
fill="none" stroke="black" stroke-width="2"/>
<path d="M93.01 290.95L93.03 290.91M93.03 290.91L93.07 290.9M93.07 290.9L93.11 290.91M93.11 290.91L93.12 290.95M93.12 290.95L93.11 290.99M93.11 290.99L93.07 291.01M93.07 291.01L93.03 290.99M93.03 290.99L93.01 290.95"
fill="none" stroke="black" stroke-width="2"/>
<path d="M134.82 317.67L134.84 317.63M134.84 317.63L134.88 317.62M134.88 317.62L134.92 317.63M134.92 317.63L134.93 317.67M134.93 317.67L134.92 317.71M134.92 317.71L134.88 317.73M134.88 317.73L134.84 317.71M134.84 317.71L134.82 317.67"
fill="none" stroke="black" stroke-width="2"/>
<path d="M158.3 297.95L158.32 297.91M158.32 297.91L158.35 297.89M158.35 297.89L158.39 297.91M158.39 297.91L158.41 297.95M158.41 297.95L158.39 297.99M158.39 297.99L158.35 298M158.35 298L158.32 297.99M158.32 297.99L158.3 297.95"
fill="none" stroke="black" stroke-width="2"/>
<path d="M69.44 305.42L152.89 313.52"
fill="none" stroke="black" stroke-width="2"/>
<path d="M78.98 298.9L162.36 307"
fill="none" stroke="black" stroke-width="2"/>
<path d="M69.59 310.67L69.59 255.45"
fill="none" stroke="black" stroke-width="2"/>
<path d="M93.07 290.95L93.07 250.25"
fill="none" stroke="black" stroke-width="2"/>
<path d="M134.88 317.67L134.88 258.26"
fill="none" stroke="black" stroke-width="2"/>
<path d="M158.35 297.95L158.35 251.53"
fill="none" stroke="black" stroke-width="2"/>
<path d="M203.86 316.33L204.04 315.12M204.04 315.12L204.57 314.01M204.57 314.01L205.41 313.11M205.41 313.11L206.47 312.5M206.47 312.5L207.66 312.23M207.66 312.23L208.89 312.32M208.89 312.32L210.03 312.77M210.03 312.77L210.99 313.53M210.99 313.53L211.68 314.54M211.68 314.54L212.04 315.72M212.04 315.72L212.04 316.94M212.04 316.94L211.68 318.11M211.68 318.11L210.99 319.13M210.99 319.13L210.03 319.89M210.03 319.89L208.89 320.34M208.89 320.34L207.66 320.43M207.66 320.43L206.47 320.16M206.47 320.16L205.41 319.55M205.41 319.55L204.57 318.65M204.57 318.65L204.04 317.54M204.04 317.54L203.86 316.33"
fill="none" stroke="black" stroke-width="2"/>
<path d="M236.85 297.45L237.63 296.57M237.63 296.57L238.13 295.52M238.13 295.52L238.31 294.36M238.31 294.36L238.17 293.2M238.17 293.2L237.69 292.12M237.69 292.12L236.94 291.23M236.94 291.23L235.97 290.58M235.97 290.58L234.85 290.23M234.85 290.23L233.68 290.21M233.68 290.21L232.55 290.53M232.55 290.53L231.55 291.15"
fill="none" stroke="black" stroke-width="2"/>
<path d="M210.62 319.48L220.77 310.95"
fill="none" stroke="black" stroke-width="2"/>
<path d="M235.27 298.77L236.85 297.45"
fill="none" stroke="black" stroke-width="2"/>
<path d="M205.32 313.18L211.23 308.22"
fill="none" stroke="black" stroke-width="2"/>
<path d="M223.39 298L231.55 291.15"
fill="none" stroke="black" stroke-width="2"/>
<path d="M223.58 297.97L220.45 298.58M220.45 298.58L217.39 299.45M217.39 299.45L214.42 300.59M214.42 300.59L211.56 301.98"
fill="none" stroke="black" stroke-width="2"/>
<path d="M211.56 301.98L210.67 302.65M210.67 302.65L210.02 303.57M210.02 303.57L209.69 304.63M209.69 304.63L209.69 305.75M209.69 305.75L210.04 306.82M210.04 306.82L210.69 307.72"
fill="none" stroke="black" stroke-width="2"/>
<path d="M210.69 307.72L211.86 308.7M211.86 308.7L213.22 309.4M213.22 309.4L214.69 309.81"
fill="none" stroke="black" stroke-width="2"/>
<path d="M236.47 315.04L229.29 312.96M229.29 312.96L222.03 311.22M222.03 311.22L214.69 309.81"
fill="none" stroke="black" stroke-width="2"/>
<path d="M236.47 315.04L241.11 316.31M241.11 316.31L245.84 317.25M245.84 317.25L250.61 317.84M250.61 317.84L255.42 318.08M255.42 318.08L260.24 317.97M260.24 317.97L265.03 317.51M265.03 317.51L269.78 316.71M269.78 316.71L274.45 315.56"
fill="none" stroke="black" stroke-width="2"/>
<path d="M289.78 313.64L285.91 313.68M285.91 313.68L282.04 314.01M282.04 314.01L278.22 314.64M278.22 314.64L274.45 315.56"
fill="none" stroke="black" stroke-width="2"/>
<path d="M289.78 313.64L292.79 313.55M292.79 313.55L295.76 313.11M295.76 313.11L298.67 312.33M298.67 312.33L301.46 311.21"
fill="none" stroke="black" stroke-width="2"/>
<path d="M301.46 311.21L302.23 310.67M302.23 310.67L302.79 309.91M302.79 309.91L303.06 309.01M303.06 309.01L303.03 308.07M303.03 308.07L302.7 307.19M302.7 307.19L302.09 306.47M302.09 306.47L301.28 305.98"
fill="none" stroke="black" stroke-width="2"/>
<path d="M301.28 305.98L297.88 304.81M297.88 304.81L294.38 303.94M294.38 303.94L290.83 303.37"
fill="none" stroke="black" stroke-width="2"/>
<path d="M283.68 300.24L285.27 301.41M285.27 301.41L287.02 302.34M287.02 302.34L288.89 303M288.89 303L290.83 303.37"
fill="none" stroke="black" stroke-width="2"/>
<path d="M283.68 300.24L281.67 298.74M281.67 298.74L279.48 297.53M279.48 297.53L277.13 296.64M277.13 296.64L274.68 296.09M274.68 296.09L272.19 295.88"
fill="none" stroke="black" stroke-width="2"/>
<path d="M272.19 295.88L258.25 295.71"
fill="none" stroke="black" stroke-width="2"/>
<path d="M258.25 295.71L254.98 295.8M254.98 295.8L251.73 296.15M251.73 296.15L248.51 296.76M248.51 296.76L245.36 297.63"
fill="none" stroke="black" stroke-width="2"/>
<path d="M237.16 298.82L239.93 298.72M239.93 298.72L242.67 298.32M242.67 298.32L245.36 297.63"
fill="none" stroke="black" stroke-width="2"/>
<path d="M223.58 297.97L230.36 298.54M230.36 298.54L237.16 298.82"
fill="none" stroke="black" stroke-width="2"/>
<path d="M269.14 323.33L269.33 322.11M269.33 322.11L269.86 321.01M269.86 321.01L270.69 320.11M270.69 320.11L271.75 319.5M271.75 319.5L272.95 319.22M272.95 319.22L274.17 319.32M274.17 319.32L275.31 319.76M275.31 319.76L276.27 320.53M276.27 320.53L276.96 321.54M276.96 321.54L277.33 322.71M277.33 322.71L277.33 323.94M277.33 323.94L276.96 325.11M276.96 325.11L276.27 326.13M276.27 326.13L275.31 326.89M275.31 326.89L274.17 327.34M274.17 327.34L272.95 327.43M272.95 327.43L271.75 327.16M271.75 327.16L270.69 326.54M270.69 326.54L269.86 325.64M269.86 325.64L269.33 324.54M269.33 324.54L269.14 323.33"
fill="none" stroke="black" stroke-width="2"/>
<path d="M302.13 304.44L302.91 303.57M302.91 303.57L303.42 302.51M303.42 302.51L303.6 301.36M303.6 301.36L303.45 300.19M303.45 300.19L302.98 299.12M302.98 299.12L302.23 298.22M302.23 298.22L301.25 297.58M301.25 297.58L300.13 297.23M300.13 297.23L298.96 297.21M298.96 297.21L297.83 297.52M297.83 297.52L296.84 298.14"
fill="none" stroke="black" stroke-width="2"/>
<path d="M275.9 326.48L291.18 313.65"
fill="none" stroke="black" stroke-width="2"/>
<path d="M300.61 305.73L302.13 304.44"
fill="none" stroke="black" stroke-width="2"/>
<path d="M270.61 320.18L276.84 314.94"
fill="none" stroke="black" stroke-width="2"/>
<path d="M290.64 303.35L296.84 298.14"
fill="none" stroke="black" stroke-width="2"/>
<path d="M209.75 310.67L209.77 310.64M209.77 310.64L209.8 310.62M209.8 310.62L209.84 310.64M209.84 310.64L209.86 310.67M209.86 310.67L209.84 310.71M209.84 310.71L209.8 310.73M209.8 310.73L209.77 310.71M209.77 310.71L209.75 310.67"
fill="none" stroke="black" stroke-width="2"/>
<path d="M233.23 290.95L233.24 290.91M233.24 290.91L233.28 290.9M233.28 290.9L233.32 290.91M233.32 290.91L233.34 290.95M233.34 290.95L233.32 290.99M233.32 290.99L233.28 291.01M233.28 291.01L233.24 290.99M233.24 290.99L233.23 290.95"
fill="none" stroke="black" stroke-width="2"/>
<path d="M275.04 317.67L275.05 317.63M275.05 317.63L275.09 317.62M275.09 317.62L275.13 317.63M275.13 317.63L275.15 317.67M275.15 317.67L275.13 317.71M275.13 317.71L275.09 317.73M275.09 317.73L275.05 317.71M275.05 317.71L275.04 317.67"
fill="none" stroke="black" stroke-width="2"/>
<path d="M298.51 297.95L298.53 297.91M298.53 297.91L298.57 297.89M298.57 297.89L298.61 297.91M298.61 297.91L298.63 297.95M298.63 297.95L298.61 297.99M298.61 297.99L298.57 298M298.57 298L298.53 297.99M298.53 297.99L298.51 297.95"
fill="none" stroke="black" stroke-width="2"/>
<path d="M209.65 305.42L293.1 313.52"
fill="none" stroke="black" stroke-width="2"/>
<path d="M219.19 298.9L302.58 307"
fill="none" stroke="black" stroke-width="2"/>
<path d="M209.8 310.67L209.8 260.66"
fill="none" stroke="black" stroke-width="2"/>
<path d="M233.28 290.95L233.28 252.58"
fill="none" stroke="black" stroke-width="2"/>
<path d="M275.09 317.67L275.09 262.05"
fill="none" stroke="black" stroke-width="2"/>
<path d="M298.57 297.95L298.57 253.14"
fill="none" stroke="black" stroke-width="2"/>
<path d="M348.99 316.33L349.17 315.12M349.17 315.12L349.71 314.01M349.71 314.01L350.54 313.11M350.54 313.11L351.6 312.5M351.6 312.5L352.8 312.23M352.8 312.23L354.02 312.32M354.02 312.32L355.16 312.77M355.16 312.77L356.12 313.53M356.12 313.53L356.81 314.54M356.81 314.54L357.18 315.72M357.18 315.72L357.18 316.94M357.18 316.94L356.81 318.11M356.81 318.11L356.12 319.13M356.12 319.13L355.16 319.89M355.16 319.89L354.02 320.34M354.02 320.34L352.8 320.43M352.8 320.43L351.6 320.16M351.6 320.16L350.54 319.55M350.54 319.55L349.71 318.65M349.71 318.65L349.17 317.54M349.17 317.54L348.99 316.33"
fill="none" stroke="black" stroke-width="2"/>
<path d="M381.98 297.45L382.76 296.57M382.76 296.57L383.26 295.52M383.26 295.52L383.45 294.36M383.45 294.36L383.3 293.2M383.3 293.2L382.83 292.12M382.83 292.12L382.08 291.23M382.08 291.23L381.1 290.58M381.1 290.58L379.98 290.23M379.98 290.23L378.81 290.21M378.81 290.21L377.68 290.53M377.68 290.53L376.69 291.15"
fill="none" stroke="black" stroke-width="2"/>
<path d="M355.75 319.48L365.9 310.95"
fill="none" stroke="black" stroke-width="2"/>
<path d="M380.4 298.77L381.98 297.45"
fill="none" stroke="black" stroke-width="2"/>
<path d="M350.46 313.18L356.36 308.22"
fill="none" stroke="black" stroke-width="2"/>
<path d="M368.53 298L376.69 291.15"
fill="none" stroke="black" stroke-width="2"/>
<path d="M368.71 297.97L365.59 298.58M365.59 298.58L362.53 299.45M362.53 299.45L359.55 300.59M359.55 300.59L356.69 301.98"
fill="none" stroke="black" stroke-width="2"/>
<path d="M356.69 301.98L355.8 302.65M355.8 302.65L355.16 303.57M355.16 303.57L354.82 304.63M354.82 304.63L354.83 305.75M354.83 305.75L355.17 306.82M355.17 306.82L355.82 307.72"
fill="none" stroke="black" stroke-width="2"/>
<path d="M355.82 307.72L357 308.7M357 308.7L358.36 309.4M358.36 309.4L359.83 309.81"
fill="none" stroke="black" stroke-width="2"/>
<path d="M381.61 315.04L374.43 312.96M374.43 312.96L367.16 311.22M367.16 311.22L359.83 309.81"
fill="none" stroke="black" stroke-width="2"/>
<path d="M381.61 315.04L386.25 316.31M386.25 316.31L390.97 317.25M390.97 317.25L395.75 317.84M395.75 317.84L400.56 318.08M400.56 318.08L405.37 317.97M405.37 317.97L410.16 317.51M410.16 317.51L414.91 316.71M414.91 316.71L419.59 315.56"
fill="none" stroke="black" stroke-width="2"/>
<path d="M434.92 313.64L431.04 313.68M431.04 313.68L427.18 314.01M427.18 314.01L423.35 314.64M423.35 314.64L419.59 315.56"
fill="none" stroke="black" stroke-width="2"/>
<path d="M434.92 313.64L437.92 313.55M437.92 313.55L440.9 313.11M440.9 313.11L443.8 312.33M443.8 312.33L446.59 311.21"
fill="none" stroke="black" stroke-width="2"/>
<path d="M446.59 311.21L447.37 310.67M447.37 310.67L447.92 309.91M447.92 309.91L448.2 309.01M448.2 309.01L448.17 308.07M448.17 308.07L447.83 307.19M447.83 307.19L447.22 306.47M447.22 306.47L446.42 305.98"
fill="none" stroke="black" stroke-width="2"/>
<path d="M446.42 305.98L443.01 304.81M443.01 304.81L439.52 303.94M439.52 303.94L435.96 303.37"
fill="none" stroke="black" stroke-width="2"/>
<path d="M428.82 300.24L430.41 301.41M430.41 301.41L432.16 302.34M432.16 302.34L434.02 303M434.02 303L435.96 303.37"
fill="none" stroke="black" stroke-width="2"/>
<path d="M428.82 300.24L426.81 298.74M426.81 298.74L424.61 297.53M424.61 297.53L422.27 296.64M422.27 296.64L419.82 296.09M419.82 296.09L417.32 295.88"
fill="none" stroke="black" stroke-width="2"/>
<path d="M417.32 295.88L403.38 295.71"
fill="none" stroke="black" stroke-width="2"/>
<path d="M403.38 295.71L400.11 295.8M400.11 295.8L396.86 296.15M396.86 296.15L393.65 296.76M393.65 296.76L390.49 297.63"
fill="none" stroke="black" stroke-width="2"/>
<path d="M382.29 298.82L385.06 298.72M385.06 298.72L387.81 298.32M387.81 298.32L390.49 297.63"
fill="none" stroke="black" stroke-width="2"/>
<path d="M368.71 297.97L375.49 298.54M375.49 298.54L382.29 298.82"
fill="none" stroke="black" stroke-width="2"/>
<path d="M414.28 323.33L414.46 322.11M414.46 322.11L414.99 321.01M414.99 321.01L415.83 320.11M415.83 320.11L416.89 319.5M416.89 319.5L418.08 319.22M418.08 319.22L419.31 319.32M419.31 319.32L420.45 319.76M420.45 319.76L421.41 320.53M421.41 320.53L422.1 321.54M422.1 321.54L422.46 322.71M422.46 322.71L422.46 323.94M422.46 323.94L422.1 325.11M422.1 325.11L421.41 326.13M421.41 326.13L420.45 326.89M420.45 326.89L419.31 327.34M419.31 327.34L418.08 327.43M418.08 327.43L416.89 327.16M416.89 327.16L415.83 326.54M415.83 326.54L414.99 325.64M414.99 325.64L414.46 324.54M414.46 324.54L414.28 323.33"
fill="none" stroke="black" stroke-width="2"/>
<path d="M447.27 304.44L448.05 303.57M448.05 303.57L448.55 302.51M448.55 302.51L448.74 301.36M448.74 301.36L448.59 300.19M448.59 300.19L448.12 299.12M448.12 299.12L447.36 298.22M447.36 298.22L446.39 297.58M446.39 297.58L445.27 297.23M445.27 297.23L444.1 297.21M444.1 297.21L442.97 297.52M442.97 297.52L441.97 298.14"
fill="none" stroke="black" stroke-width="2"/>
<path d="M421.04 326.48L436.31 313.65"
fill="none" stroke="black" stroke-width="2"/>
<path d="M445.74 305.73L447.27 304.44"
fill="none" stroke="black" stroke-width="2"/>
<path d="M415.75 320.18L421.98 314.94"
fill="none" stroke="black" stroke-width="2"/>
<path d="M435.78 303.35L441.97 298.14"
fill="none" stroke="black" stroke-width="2"/>
<path d="M354.88 310.67L354.9 310.64M354.9 310.64L354.94 310.62M354.94 310.62L354.98 310.64M354.98 310.64L355 310.67M355 310.67L354.98 310.71M354.98 310.71L354.94 310.73M354.94 310.73L354.9 310.71M354.9 310.71L354.88 310.67"
fill="none" stroke="black" stroke-width="2"/>
<path d="M378.36 290.95L378.38 290.91M378.38 290.91L378.42 290.9M378.42 290.9L378.46 290.91M378.46 290.91L378.47 290.95M378.47 290.95L378.46 290.99M378.46 290.99L378.42 291.01M378.42 291.01L378.38 290.99M378.38 290.99L378.36 290.95"
fill="none" stroke="black" stroke-width="2"/>
<path d="M420.17 317.67L420.19 317.63M420.19 317.63L420.23 317.62M420.23 317.62L420.27 317.63M420.27 317.63L420.28 317.67M420.28 317.67L420.27 317.71M420.27 317.71L420.23 317.73M420.23 317.73L420.19 317.71M420.19 317.71L420.17 317.67"
fill="none" stroke="black" stroke-width="2"/>
<path d="M443.65 297.95L443.67 297.91M443.67 297.91L443.7 297.89M443.7 297.89L443.74 297.91M443.74 297.91L443.76 297.95M443.76 297.95L443.74 297.99M443.74 297.99L443.7 298M443.7 298L443.67 297.99M443.67 297.99L443.65 297.95"
fill="none" stroke="black" stroke-width="2"/>
<path d="M354.79 305.42L438.24 313.52"
fill="none" stroke="black" stroke-width="2"/>
<path d="M364.33 298.9L447.71 307"
fill="none" stroke="black" stroke-width="2"/>
<path d="M354.94 310.67L354.94 262.85"
fill="none" stroke="black" stroke-width="2"/>
<path d="M378.42 290.95L378.42 253.37"
fill="none" stroke="black" stroke-width="2"/>
<path d="M420.23 317.67L420.23 262.76"
fill="none" stroke="black" stroke-width="2"/>
<path d="M443.7 297.95L443.7 253.19"
fill="none" stroke="black" stroke-width="2"/>
<path d="M490.85 316.33L491.03 315.12M491.03 315.12L491.56 314.01M491.56 314.01L492.4 313.11M492.4 313.11L493.46 312.5M493.46 312.5L494.65 312.23M494.65 312.23L495.88 312.32M495.88 312.32L497.02 312.77M497.02 312.77L497.98 313.53M497.98 313.53L498.67 314.54M498.67 314.54L499.03 315.72M499.03 315.72L499.03 316.94M499.03 316.94L498.67 318.11M498.67 318.11L497.98 319.13M497.98 319.13L497.02 319.89M497.02 319.89L495.88 320.34M495.88 320.34L494.65 320.43M494.65 320.43L493.46 320.16M493.46 320.16L492.4 319.55M492.4 319.55L491.56 318.65M491.56 318.65L491.03 317.54M491.03 317.54L490.85 316.33"
fill="none" stroke="black" stroke-width="2"/>
<path d="M523.84 297.45L524.62 296.57M524.62 296.57L525.12 295.52M525.12 295.52L525.3 294.36M525.3 294.36L525.15 293.2M525.15 293.2L524.68 292.12M524.68 292.12L523.93 291.23M523.93 291.23L522.96 290.58M522.96 290.58L521.84 290.23M521.84 290.23L520.67 290.21M520.67 290.21L519.54 290.53M519.54 290.53L518.54 291.15"
fill="none" stroke="black" stroke-width="2"/>
<path d="M497.61 319.48L507.76 310.95"
fill="none" stroke="black" stroke-width="2"/>
<path d="M522.26 298.77L523.84 297.45"
fill="none" stroke="black" stroke-width="2"/>
<path d="M492.31 313.18L498.22 308.22"
fill="none" stroke="black" stroke-width="2"/>
<path d="M510.38 298L518.54 291.15"
fill="none" stroke="black" stroke-width="2"/>
<path d="M510.57 297.97L507.44 298.58M507.44 298.58L504.38 299.45M504.38 299.45L501.41 300.59M501.41 300.59L498.55 301.98"
fill="none" stroke="black" stroke-width="2"/>
<path d="M498.55 301.98L497.66 302.65M497.66 302.65L497.01 303.57M497.01 303.57L496.68 304.63M496.68 304.63L496.68 305.75M496.68 305.75L497.03 306.82M497.03 306.82L497.68 307.72"
fill="none" stroke="black" stroke-width="2"/>
<path d="M497.68 307.72L498.85 308.7M498.85 308.7L500.21 309.4M500.21 309.4L501.68 309.81"
fill="none" stroke="black" stroke-width="2"/>
<path d="M523.46 315.04L516.28 312.96M516.28 312.96L509.02 311.22M509.02 311.22L501.68 309.81"
fill="none" stroke="black" stroke-width="2"/>
<path d="M523.46 315.04L528.1 316.31M528.1 316.31L532.83 317.25M532.83 317.25L537.6 317.84M537.6 317.84L542.41 318.08M542.41 318.08L547.23 317.97M547.23 317.97L552.02 317.51M552.02 317.51L556.77 316.71M556.77 316.71L561.44 315.56"
fill="none" stroke="black" stroke-width="2"/>
<path d="M576.77 313.64L572.9 313.68M572.9 313.68L569.03 314.01M569.03 314.01L565.21 314.64M565.21 314.64L561.44 315.56"
fill="none" stroke="black" stroke-width="2"/>
<path d="M576.77 313.64L579.78 313.55M579.78 313.55L582.75 313.11M582.75 313.11L585.66 312.33M585.66 312.33L588.45 311.21"
fill="none" stroke="black" stroke-width="2"/>
<path d="M588.45 311.21L589.22 310.67M589.22 310.67L589.78 309.91M589.78 309.91L590.05 309.01M590.05 309.01L590.02 308.07M590.02 308.07L589.69 307.19M589.69 307.19L589.08 306.47M589.08 306.47L588.27 305.98"
fill="none" stroke="black" stroke-width="2"/>
<path d="M588.27 305.98L584.87 304.81M584.87 304.81L581.37 303.94M581.37 303.94L577.82 303.37"
fill="none" stroke="black" stroke-width="2"/>
<path d="M570.67 300.24L572.26 301.41M572.26 301.41L574.01 302.34M574.01 302.34L575.88 303M575.88 303L577.82 303.37"
fill="none" stroke="black" stroke-width="2"/>
<path d="M570.67 300.24L568.66 298.74M568.66 298.74L566.47 297.53M566.47 297.53L564.12 296.64M564.12 296.64L561.67 296.09M561.67 296.09L559.18 295.88"
fill="none" stroke="black" stroke-width="2"/>
<path d="M559.18 295.88L545.24 295.71"
fill="none" stroke="black" stroke-width="2"/>
<path d="M545.24 295.71L541.97 295.8M541.97 295.8L538.71 296.15M538.71 296.15L535.5 296.76M535.5 296.76L532.35 297.63"
fill="none" stroke="black" stroke-width="2"/>
<path d="M524.15 298.82L526.92 298.72M526.92 298.72L529.66 298.32M529.66 298.32L532.35 297.63"
fill="none" stroke="black" stroke-width="2"/>
<path d="M510.57 297.97L517.35 298.54M517.35 298.54L524.15 298.82"
fill="none" stroke="black" stroke-width="2"/>
<path d="M556.13 323.33L556.31 322.11M556.31 322.11L556.85 321.01M556.85 321.01L557.68 320.11M557.68 320.11L558.74 319.5M558.74 319.5L559.94 319.22M559.94 319.22L561.16 319.32M561.16 319.32L562.3 319.76M562.3 319.76L563.26 320.53M563.26 320.53L563.95 321.54M563.95 321.54L564.32 322.71M564.32 322.71L564.32 323.94M564.32 323.94L563.95 325.11M563.95 325.11L563.26 326.13M563.26 326.13L562.3 326.89M562.3 326.89L561.16 327.34M561.16 327.34L559.94 327.43M559.94 327.43L558.74 327.16M558.74 327.16L557.68 326.54M557.68 326.54L556.85 325.64M556.85 325.64L556.31 324.54M556.31 324.54L556.13 323.33"
fill="none" stroke="black" stroke-width="2"/>
<path d="M589.12 304.44L589.9 303.57M589.9 303.57L590.41 302.51M590.41 302.51L590.59 301.36M590.59 301.36L590.44 300.19M590.44 300.19L589.97 299.12M589.97 299.12L589.22 298.22M589.22 298.22L588.24 297.58M588.24 297.58L587.12 297.23M587.12 297.23L585.95 297.21M585.95 297.21L584.82 297.52M584.82 297.52L583.83 298.14"
fill="none" stroke="black" stroke-width="2"/>
<path d="M562.89 326.48L578.17 313.65"
fill="none" stroke="black" stroke-width="2"/>
<path d="M587.6 305.73L589.12 304.44"
fill="none" stroke="black" stroke-width="2"/>
<path d="M557.6 320.18L563.83 314.94"
fill="none" stroke="black" stroke-width="2"/>
<path d="M577.63 303.35L583.83 298.14"
fill="none" stroke="black" stroke-width="2"/>
<path d="M496.74 310.67L496.76 310.64M496.76 310.64L496.79 310.62M496.79 310.62L496.83 310.64M496.83 310.64L496.85 310.67M496.85 310.67L496.83 310.71M496.83 310.71L496.79 310.73M496.79 310.73L496.76 310.71M496.76 310.71L496.74 310.67"
fill="none" stroke="black" stroke-width="2"/>
<path d="M520.22 290.95L520.23 290.91M520.23 290.91L520.27 290.9M520.27 290.9L520.31 290.91M520.31 290.91L520.33 290.95M520.33 290.95L520.31 290.99M520.31 290.99L520.27 291.01M520.27 291.01L520.23 290.99M520.23 290.99L520.22 290.95"
fill="none" stroke="black" stroke-width="2"/>
<path d="M562.03 317.67L562.04 317.63M562.04 317.63L562.08 317.62M562.08 317.62L562.12 317.63M562.12 317.63L562.14 317.67M562.14 317.67L562.12 317.71M562.12 317.71L562.08 317.73M562.08 317.73L562.04 317.71M562.04 317.71L562.03 317.67"
fill="none" stroke="black" stroke-width="2"/>
<path d="M585.5 297.95L585.52 297.91M585.52 297.91L585.56 297.89M585.56 297.89L585.6 297.91M585.6 297.91L585.61 297.95M585.61 297.95L585.6 297.99M585.6 297.99L585.56 298M585.56 298L585.52 297.99M585.52 297.99L585.5 297.95"
fill="none" stroke="black" stroke-width="2"/>
<path d="M496.64 305.42L580.09 313.52"
fill="none" stroke="black" stroke-width="2"/>
<path d="M506.18 298.9L589.57 307"
fill="none" stroke="black" stroke-width="2"/>
<path d="M496.79 310.67L496.79 261.82"
fill="none" stroke="black" stroke-width="2"/>
<path d="M520.27 290.95L520.27 252.55"
fill="none" stroke="black" stroke-width="2"/>
<path d="M562.08 317.67L562.08 260.3"
fill="none" stroke="black" stroke-width="2"/>
<path d="M585.56 297.95L585.56 251.65"
fill="none" stroke="black" stroke-width="2"/>
<path d="M626.12 316.33L626.3 315.12M626.3 315.12L626.83 314.01M626.83 314.01L627.67 313.11M627.67 313.11L628.73 312.5M628.73 312.5L629.93 312.23M629.93 312.23L631.15 312.32M631.15 312.32L632.29 312.77M632.29 312.77L633.25 313.53M633.25 313.53L633.94 314.54M633.94 314.54L634.3 315.72M634.3 315.72L634.3 316.94M634.3 316.94L633.94 318.11M633.94 318.11L633.25 319.13M633.25 319.13L632.29 319.89M632.29 319.89L631.15 320.34M631.15 320.34L629.93 320.43M629.93 320.43L628.73 320.16M628.73 320.16L627.67 319.55M627.67 319.55L626.83 318.65M626.83 318.65L626.3 317.54M626.3 317.54L626.12 316.33"
fill="none" stroke="black" stroke-width="2"/>
<path d="M659.11 297.45L659.89 296.57M659.89 296.57L660.39 295.52M660.39 295.52L660.58 294.36M660.58 294.36L660.43 293.2M660.43 293.2L659.96 292.12M659.96 292.12L659.2 291.23M659.2 291.23L658.23 290.58M658.23 290.58L657.11 290.23M657.11 290.23L655.94 290.21M655.94 290.21L654.81 290.53M654.81 290.53L653.82 291.15"
fill="none" stroke="black" stroke-width="2"/>
<path d="M632.88 319.48L643.03 310.95"
fill="none" stroke="black" stroke-width="2"/>
<path d="M657.53 298.77L659.11 297.45"
fill="none" stroke="black" stroke-width="2"/>
<path d="M627.59 313.18L633.49 308.22"
fill="none" stroke="black" stroke-width="2"/>
<path d="M645.65 298L653.82 291.15"
fill="none" stroke="black" stroke-width="2"/>
<path d="M645.84 297.97L642.72 298.58M642.72 298.58L639.66 299.45M639.66 299.45L636.68 300.59M636.68 300.59L633.82 301.98"
fill="none" stroke="black" stroke-width="2"/>
<path d="M633.82 301.98L632.93 302.65M632.93 302.65L632.29 303.57M632.29 303.57L631.95 304.63M631.95 304.63L631.96 305.75M631.96 305.75L632.3 306.82M632.3 306.82L632.95 307.72"
fill="none" stroke="black" stroke-width="2"/>
<path d="M632.95 307.72L634.13 308.7M634.13 308.7L635.48 309.4M635.48 309.4L636.96 309.81"
fill="none" stroke="black" stroke-width="2"/>
<path d="M658.73 315.04L651.56 312.96M651.56 312.96L644.29 311.22M644.29 311.22L636.96 309.81"
fill="none" stroke="black" stroke-width="2"/>
<path d="M658.73 315.04L663.38 316.31M663.38 316.31L668.1 317.25M668.1 317.25L672.88 317.84M672.88 317.84L677.69 318.08M677.69 318.08L682.5 317.97M682.5 317.97L687.29 317.51M687.29 317.51L692.04 316.71M692.04 316.71L696.71 315.56"
fill="none" stroke="black" stroke-width="2"/>
<path d="M712.05 313.64L708.17 313.68M708.17 313.68L704.31 314.01M704.31 314.01L700.48 314.64M700.48 314.64L696.71 315.56"
fill="none" stroke="black" stroke-width="2"/>
<path d="M712.05 313.64L715.05 313.55M715.05 313.55L718.03 313.11M718.03 313.11L720.93 312.33M720.93 312.33L723.72 311.21"
fill="none" stroke="black" stroke-width="2"/>
<path d="M723.72 311.21L724.49 310.67M724.49 310.67L725.05 309.91M725.05 309.91L725.33 309.01M725.33 309.01L725.3 308.07M725.3 308.07L724.96 307.19M724.96 307.19L724.35 306.47M724.35 306.47L723.55 305.98"
fill="none" stroke="black" stroke-width="2"/>
<path d="M723.55 305.98L720.14 304.81M720.14 304.81L716.65 303.94M716.65 303.94L713.09 303.37"
fill="none" stroke="black" stroke-width="2"/>
<path d="M705.95 300.24L707.54 301.41M707.54 301.41L709.28 302.34M709.28 302.34L711.15 303M711.15 303L713.09 303.37"
fill="none" stroke="black" stroke-width="2"/>
<path d="M705.95 300.24L703.94 298.74M703.94 298.74L701.74 297.53M701.74 297.53L699.39 296.64M699.39 296.64L696.95 296.09M696.95 296.09L694.45 295.88"
fill="none" stroke="black" stroke-width="2"/>
<path d="M694.45 295.88L680.51 295.71"
fill="none" stroke="black" stroke-width="2"/>
<path d="M680.51 295.71L677.24 295.8M677.24 295.8L673.99 296.15M673.99 296.15L670.77 296.76M670.77 296.76L667.62 297.63"
fill="none" stroke="black" stroke-width="2"/>
<path d="M659.42 298.82L662.19 298.72M662.19 298.72L664.94 298.32M664.94 298.32L667.62 297.63"
fill="none" stroke="black" stroke-width="2"/>
<path d="M645.84 297.97L652.62 298.54M652.62 298.54L659.42 298.82"
fill="none" stroke="black" stroke-width="2"/>
<path d="M691.41 323.33L691.59 322.11M691.59 322.11L692.12 321.01M692.12 321.01L692.96 320.11M692.96 320.11L694.02 319.5M694.02 319.5L695.21 319.22M695.21 319.22L696.44 319.32M696.44 319.32L697.58 319.76M697.58 319.76L698.54 320.53M698.54 320.53L699.23 321.54M699.23 321.54L699.59 322.71M699.59 322.71L699.59 323.94M699.59 323.94L699.23 325.11M699.23 325.11L698.54 326.13M698.54 326.13L697.58 326.89M697.58 326.89L696.44 327.34M696.44 327.34L695.21 327.43M695.21 327.43L694.02 327.16M694.02 327.16L692.96 326.54M692.96 326.54L692.12 325.64M692.12 325.64L691.59 324.54M691.59 324.54L691.41 323.33"
fill="none" stroke="black" stroke-width="2"/>
<path d="M724.4 304.44L725.18 303.57M725.18 303.57L725.68 302.51M725.68 302.51L725.86 301.36M725.86 301.36L725.71 300.19M725.71 300.19L725.24 299.12M725.24 299.12L724.49 298.22M724.49 298.22L723.52 297.58M723.52 297.58L722.4 297.23M722.4 297.23L721.23 297.21M721.23 297.21L720.1 297.52M720.1 297.52L719.1 298.14"
fill="none" stroke="black" stroke-width="2"/>
<path d="M698.17 326.48L713.44 313.65"
fill="none" stroke="black" stroke-width="2"/>
<path d="M722.87 305.73L724.4 304.44"
fill="none" stroke="black" stroke-width="2"/>
<path d="M692.87 320.18L699.1 314.94"
fill="none" stroke="black" stroke-width="2"/>
<path d="M712.91 303.35L719.1 298.14"
fill="none" stroke="black" stroke-width="2"/>
<path d="M632.01 310.67L632.03 310.64M632.03 310.64L632.07 310.62M632.07 310.62L632.11 310.64M632.11 310.64L632.12 310.67M632.12 310.67L632.11 310.71M632.11 310.71L632.07 310.73M632.07 310.73L632.03 310.71M632.03 310.71L632.01 310.67"
fill="none" stroke="black" stroke-width="2"/>
<path d="M655.49 290.95L655.51 290.91M655.51 290.91L655.55 290.9M655.55 290.9L655.59 290.91M655.59 290.91L655.6 290.95M655.6 290.95L655.59 290.99M655.59 290.99L655.55 291.01M655.55 291.01L655.51 290.99M655.51 290.99L655.49 290.95"
fill="none" stroke="black" stroke-width="2"/>
<path d="M697.3 317.67L697.32 317.63M697.32 317.63L697.35 317.62M697.35 317.62L697.39 317.63M697.39 317.63L697.41 317.67M697.41 317.67L697.39 317.71M697.39 317.71L697.35 317.73M697.35 317.73L697.32 317.71M697.32 317.71L697.3 317.67"
fill="none" stroke="black" stroke-width="2"/>
<path d="M720.78 297.95L720.79 297.91M720.79 297.91L720.83 297.89M720.83 297.89L720.87 297.91M720.87 297.91L720.89 297.95M720.89 297.95L720.87 297.99M720.87 297.99L720.83 298M720.83 298L720.79 297.99M720.79 297.99L720.78 297.95"
fill="none" stroke="black" stroke-width="2"/>
<path d="M631.92 305.42L715.37 313.52"
fill="none" stroke="black" stroke-width="2"/>
<path d="M641.45 298.9L724.84 307"
fill="none" stroke="black" stroke-width="2"/>
<path d="M632.07 310.67L632.07 257.93"
fill="none" stroke="black" stroke-width="2"/>
<path d="M655.55 290.95L655.55 250.3"
fill="none" stroke="black" stroke-width="2"/>
<path d="M697.35 317.67L697.35 255.03"
fill="none" stroke="black" stroke-width="2"/>
<path d="M720.83 297.95L720.83 248.7"
fill="none" stroke="black" stroke-width="2"/>
<path d="M2.26 251.86L51.93 254.57M51.93 254.57L101.62 256.91M101.62 256.91L151.33 258.86M151.33 258.86L201.05 260.43M201.05 260.43L250.78 261.61M250.78 261.61L300.52 262.41M300.52 262.41L350.26 262.83M350.26 262.83L400 262.86M400 262.86L449.75 262.5M449.75 262.5L499.49 261.77M499.49 261.77L549.22 260.65M549.22 260.65L598.94 259.14M598.94 259.14L648.65 257.25M648.65 257.25L698.34 254.98M698.34 254.98L748.01 252.33M748.01 252.33L797.66 249.29"
fill="none" stroke="RGB(2,158,33)" stroke-width="2"/>
<path d="M2.92 247.93L82.39 250.01M82.39 250.01L161.87 251.59M161.87 251.59L241.36 252.67M241.36 252.67L320.85 253.26M320.85 253.26L400.34 253.35M400.34 253.35L479.83 252.95M479.83 252.95L559.32 252.05M559.32 252.05L638.81 250.66M638.81 250.66L718.28 248.77M718.28 248.77L797.74 246.39"
fill="none" stroke="RGB(2,158,33)" stroke-width="2"/>
</svg>
