<?xml version="1.0" encoding="UTF-8"?>
<svg xmlns="http://www.w3.org/2000/svg" width="800.000" height="600.000" viewBox="0.0 0.0 800.000 600.000" version="1.1">
  <title>Produce by Acme CAD Converter</title>
  <desc>Produce by Acme CAD Converter</desc>
<path d="M5.2 315.98L66.15 317.83M66.15 317.83L127.12 319.3M127.12 319.3L188.09 320.38M188.09 320.38L249.07 321.08M249.07 321.08L310.05 321.4M310.05 321.4L371.03 321.34M371.03 321.34L432.02 320.89M432.02 320.89L492.99 320.07M492.99 320.07L553.96 318.86M553.96 318.86L614.93 317.27M614.93 317.27L675.88 315.29M675.88 315.29L736.81 312.94M736.81 312.94L797.74 310.2"
fill="none" stroke="RGB(2,158,33)" stroke-width="2"/>
<path d="M3.23 256.66L44.91 259.82M44.91 259.82L86.6 262.61M86.6 262.61L128.32 265.05M128.32 265.05L170.06 267.13M170.06 267.13L211.82 268.85M211.82 268.85L253.59 270.21M253.59 270.21L295.37 271.21M295.37 271.21L337.15 271.85M337.15 271.85L378.94 272.13M378.94 272.13L420.74 272.05M420.74 272.05L462.52 271.6M462.52 271.6L504.31 270.8M504.31 270.8L546.08 269.64M546.08 269.64L587.85 268.12M587.85 268.12L629.6 266.24M629.6 266.24L671.33 264M671.33 264L713.04 261.4M713.04 261.4L754.72 258.44M754.72 258.44L796.38 255.12"
fill="none" stroke="RGB(2,158,33)" stroke-width="2"/>
<path d="M2.26 80.65L2.26 519.35"
fill="none" stroke="black" stroke-width="0"/>
</svg>
