<?xml version="1.0" encoding="UTF-8"?>
<svg xmlns="http://www.w3.org/2000/svg" width="800.000" height="600.000" viewBox="0.0 0.0 800.000 600.000" version="1.1">
  <title>Produce by Acme CAD Converter</title>
  <desc>Produce by Acme CAD Converter</desc>
<path d="M2.26 251.86L51.93 254.57M51.93 254.57L101.62 256.91M101.62 256.91L151.33 258.86M151.33 258.86L201.05 260.43M201.05 260.43L250.78 261.61M250.78 261.61L300.52 262.41M300.52 262.41L350.26 262.83M350.26 262.83L400 262.86M400 262.86L449.75 262.5M449.75 262.5L499.49 261.77M499.49 261.77L549.22 260.65M549.22 260.65L598.94 259.14M598.94 259.14L648.65 257.25M648.65 257.25L698.34 254.98M698.34 254.98L748.01 252.33M748.01 252.33L797.66 249.29"
fill="none" stroke="RGB(2,158,33)" stroke-width="2"/>
<path d="M3.1 80.51L3.1 519.49"
fill="none" stroke="black" stroke-width="0"/>
<path d="M2.92 247.93L82.39 250.01M82.39 250.01L161.87 251.59M161.87 251.59L241.36 252.67M241.36 252.67L320.85 253.26M320.85 253.26L400.34 253.35M400.34 253.35L479.83 252.95M479.83 252.95L559.32 252.05M559.32 252.05L638.81 250.66M638.81 250.66L718.28 248.77M718.28 248.77L797.74 246.39"
fill="none" stroke="RGB(2,158,33)" stroke-width="2"/>
<path d="M81.25 256L82.72 262.6M82.72 262.6L84.23 268.9M84.23 268.9L85.8 274.88M85.8 274.88L87.41 280.54M87.41 280.54L89.06 285.86M89.06 285.86L90.75 290.85M90.75 290.85L92.48 295.49M92.48 295.49L94.24 299.77M94.24 299.77L96.03 303.69M96.03 303.69L97.85 307.24M97.85 307.24L99.7 310.42M99.7 310.42L101.58 313.22M101.58 313.22L103.47 315.64M103.47 315.64L105.38 317.67M105.38 317.67L107.3 319.31M107.3 319.31L109.24 320.56M109.24 320.56L111.19 321.42M111.19 321.42L113.14 321.88M113.14 321.88L115.09 321.94M115.09 321.94L117.04 321.61M117.04 321.61L118.99 320.88M118.99 320.88L120.93 319.76M120.93 319.76L122.87 318.24M122.87 318.24L124.79 316.34M124.79 316.34L126.69 314.05M126.69 314.05L128.58 311.37M128.58 311.37L130.44 308.31M130.44 308.31L132.28 304.88M132.28 304.88L134.1 301.08M134.1 301.08L135.88 296.91M135.88 296.91L137.63 292.39M137.63 292.39L139.35 287.51M139.35 287.51L141.03 282.29M141.03 282.29L142.67 276.74M142.67 276.74L144.26 270.86M144.26 270.86L145.81 264.67M145.81 264.67L147.31 258.16M147.31 258.16L148.76 251.36"
fill="none" stroke="black" stroke-width="2"/>
<path d="M163.69 259.29L165.13 265.77M165.13 265.77L166.61 271.96M166.61 271.96L168.15 277.84M168.15 277.84L169.72 283.41M169.72 283.41L171.34 288.67M171.34 288.67L173 293.6M173 293.6L174.69 298.19M174.69 298.19L176.41 302.44M176.41 302.44L178.17 306.34M178.17 306.34L179.96 309.89M179.96 309.89L181.77 313.08M181.77 313.08L183.6 315.9M183.6 315.9L185.45 318.36M185.45 318.36L187.33 320.45M187.33 320.45L189.21 322.16M189.21 322.16L191.11 323.49M191.11 323.49L193.02 324.45M193.02 324.45L194.93 325.02M194.93 325.02L196.85 325.21M196.85 325.21L198.76 325.02M198.76 325.02L200.68 324.45M200.68 324.45L202.59 323.5M202.59 323.5L204.49 322.17M204.49 322.17L206.38 320.46M206.38 320.46L208.26 318.37M208.26 318.37L210.12 315.92M210.12 315.92L211.96 313.1M211.96 313.1L213.78 309.91M213.78 309.91L215.58 306.36M215.58 306.36L217.34 302.46M217.34 302.46L219.08 298.21M219.08 298.21L220.79 293.62M220.79 293.62L222.46 288.7M222.46 288.7L224.09 283.45M224.09 283.45L225.68 277.88M225.68 277.88L227.23 271.99M227.23 271.99L228.73 265.81M228.73 265.81L230.19 259.33M230.19 259.33L231.6 252.56"
fill="none" stroke="black" stroke-width="2"/>
<path d="M244.7 261.49L246.14 267.91M246.14 267.91L247.64 274.05M247.64 274.05L249.17 279.88M249.17 279.88L250.75 285.4M250.75 285.4L252.37 290.6M252.37 290.6L254.03 295.47M254.03 295.47L255.73 300.01M255.73 300.01L257.45 304.2M257.45 304.2L259.21 308.05M259.21 308.05L261 311.55M261 311.55L262.81 314.68M262.81 314.68L264.64 317.46M264.64 317.46L266.49 319.86M266.49 319.86L268.36 321.9M268.36 321.9L270.25 323.56M270.25 323.56L272.14 324.84M272.14 324.84L274.05 325.75M274.05 325.75L275.96 326.28M275.96 326.28L277.87 326.43M277.87 326.43L279.79 326.19M279.79 326.19L281.7 325.58M281.7 325.58L283.6 324.59M283.6 324.59L285.5 323.22M285.5 323.22L287.39 321.47M287.39 321.47L289.26 319.35M289.26 319.35L291.11 316.86M291.11 316.86L292.95 314M292.95 314L294.76 310.79M294.76 310.79L296.55 307.21M296.55 307.21L298.31 303.28M298.31 303.28L300.05 299.01M300.05 299.01L301.75 294.4M301.75 294.4L303.41 289.45M303.41 289.45L305.03 284.18M305.03 284.18L306.62 278.59M306.62 278.59L308.16 272.69M308.16 272.69L309.66 266.49M309.66 266.49L311.11 259.99M311.11 259.99L312.52 253.22"
fill="none" stroke="black" stroke-width="2"/>
<path d="M326.77 262.68L328.23 269.14M328.23 269.14L329.72 275.31M329.72 275.31L331.27 281.18M331.27 281.18L332.86 286.73M332.86 286.73L334.49 291.96M334.49 291.96L336.15 296.85M336.15 296.85L337.86 301.41M337.86 301.41L339.59 305.62M339.59 305.62L341.36 309.48M341.36 309.48L343.15 312.99M343.15 312.99L344.97 316.13M344.97 316.13L346.82 318.91M346.82 318.91L348.68 321.31M348.68 321.31L350.56 323.34M350.56 323.34L352.46 324.99M352.46 324.99L354.36 326.26M354.36 326.26L356.28 327.15M356.28 327.15L358.2 327.66M358.2 327.66L360.12 327.78M360.12 327.78L362.05 327.51M362.05 327.51L363.97 326.87M363.97 326.87L365.88 325.84M365.88 325.84L367.79 324.43M367.79 324.43L369.68 322.63M369.68 322.63L371.56 320.47M371.56 320.47L373.43 317.92M373.43 317.92L375.27 315.01M375.27 315.01L377.09 311.74M377.09 311.74L378.88 308.1M378.88 308.1L380.65 304.11M380.65 304.11L382.39 299.77M382.39 299.77L384.09 295.08M384.09 295.08L385.76 290.06M385.76 290.06L387.39 284.72M387.39 284.72L388.97 279.05M388.97 279.05L390.52 273.07M390.52 273.07L392.02 266.79M392.02 266.79L393.47 260.22M393.47 260.22L394.87 253.36"
fill="none" stroke="black" stroke-width="2"/>
<path d="M408.2 262.83L409.65 269.29M409.65 269.29L411.15 275.46M411.15 275.46L412.7 281.32M412.7 281.32L414.29 286.87M414.29 286.87L415.92 292.09M415.92 292.09L417.59 296.98M417.59 296.98L419.29 301.53M419.29 301.53L421.03 305.74M421.03 305.74L422.8 309.59M422.8 309.59L424.6 313.09M424.6 313.09L426.42 316.22M426.42 316.22L428.27 318.99M428.27 318.99L430.13 321.38M430.13 321.38L432.02 323.4M432.02 323.4L433.91 325.04M433.91 325.04L435.82 326.3M435.82 326.3L437.74 327.18M437.74 327.18L439.66 327.67M439.66 327.67L441.59 327.78M441.59 327.78L443.51 327.5M443.51 327.5L445.43 326.83M445.43 326.83L447.35 325.79M447.35 325.79L449.26 324.36M449.26 324.36L451.15 322.55M451.15 322.55L453.03 320.36M453.03 320.36L454.9 317.8M454.9 317.8L456.74 314.87M456.74 314.87L458.56 311.58M458.56 311.58L460.36 307.92M460.36 307.92L462.12 303.91M462.12 303.91L463.86 299.55M463.86 299.55L465.56 294.84M465.56 294.84L467.23 289.81M467.23 289.81L468.86 284.44M468.86 284.44L470.44 278.75M470.44 278.75L471.99 272.75M471.99 272.75L473.48 266.45M473.48 266.45L474.93 259.85M474.93 259.85L476.33 252.98"
fill="none" stroke="black" stroke-width="2"/>
<path d="M490.86 261.92L492.31 268.41M492.31 268.41L493.81 274.6M493.81 274.6L495.36 280.47M495.36 280.47L496.95 286.04M496.95 286.04L498.59 291.28M498.59 291.28L500.26 296.18M500.26 296.18L501.97 300.75M501.97 300.75L503.71 304.97M503.71 304.97L505.48 308.84M505.48 308.84L507.28 312.34M507.28 312.34L509.1 315.49M509.1 315.49L510.95 318.26M510.95 318.26L512.82 320.67M512.82 320.67L514.71 322.69M514.71 322.69L516.61 324.34M516.61 324.34L518.52 325.6M518.52 325.6L520.44 326.48M520.44 326.48L522.36 326.97M522.36 326.97L524.29 327.08M524.29 327.08L526.22 326.8M526.22 326.8L528.14 326.14M528.14 326.14L530.06 325.09M530.06 325.09L531.97 323.65M531.97 323.65L533.87 321.84M533.87 321.84L535.76 319.65M535.76 319.65L537.62 317.08M537.62 317.08L539.47 314.14M539.47 314.14L541.29 310.83M541.29 310.83L543.09 307.16M543.09 307.16L544.86 303.14M544.86 303.14L546.6 298.77M546.6 298.77L548.3 294.05M548.3 294.05L549.97 288.99M549.97 288.99L551.6 283.61M551.6 283.61L553.19 277.9M553.19 277.9L554.73 271.89M554.73 271.89L556.23 265.57M556.23 265.57L557.68 258.95M557.68 258.95L559.08 252.06"
fill="none" stroke="black" stroke-width="2"/>
<path d="M570.67 260.05L572.13 266.57M572.13 266.57L573.63 272.8M573.63 272.8L575.18 278.72M575.18 278.72L576.77 284.32M576.77 284.32L578.4 289.6M578.4 289.6L580.08 294.54M580.08 294.54L581.79 299.14M581.79 299.14L583.53 303.4M583.53 303.4L585.3 307.29M585.3 307.29L587.11 310.83M587.11 310.83L588.94 314.01M588.94 314.01L590.79 316.81M590.79 316.81L592.66 319.24M592.66 319.24L594.55 321.29M594.55 321.29L596.45 322.96M596.45 322.96L598.37 324.24M598.37 324.24L600.29 325.14M600.29 325.14L602.22 325.65M602.22 325.65L604.16 325.77M604.16 325.77L606.09 325.51M606.09 325.51L608.02 324.85M608.02 324.85L609.94 323.81M609.94 323.81L611.86 322.39M611.86 322.39L613.76 320.58M613.76 320.58L615.65 318.39M615.65 318.39L617.52 315.82M617.52 315.82L619.38 312.88M619.38 312.88L621.2 309.58M621.2 309.58L623.01 305.9M623.01 305.9L624.78 301.87M624.78 301.87L626.52 297.49M626.52 297.49L628.23 292.76M628.23 292.76L629.91 287.7M629.91 287.7L631.54 282.3M631.54 282.3L633.13 276.58M633.13 276.58L634.68 270.54M634.68 270.54L636.18 264.21M636.18 264.21L637.63 257.57M637.63 257.57L639.04 250.66"
fill="none" stroke="black" stroke-width="2"/>
<path d="M652.14 257.11L653.6 263.78M653.6 263.78L655.1 270.15M655.1 270.15L656.66 276.21M656.66 276.21L658.25 281.94M658.25 281.94L659.9 287.35M659.9 287.35L661.58 292.41M661.58 292.41L663.3 297.14M663.3 297.14L665.05 301.5M665.05 301.5L666.84 305.51M666.84 305.51L668.65 309.15M668.65 309.15L670.5 312.42M670.5 312.42L672.36 315.31M672.36 315.31L674.25 317.82M674.25 317.82L676.16 319.94M676.16 319.94L678.08 321.67M678.08 321.67L680.01 323.02M680.01 323.02L681.96 323.97M681.96 323.97L683.91 324.52M683.91 324.52L685.86 324.68M685.86 324.68L687.81 324.44M687.81 324.44L689.76 323.81M689.76 323.81L691.7 322.78M691.7 322.78L693.64 321.35M693.64 321.35L695.56 319.54M695.56 319.54L697.47 317.34M697.47 317.34L699.36 314.75M699.36 314.75L701.23 311.78M701.23 311.78L703.08 308.44M703.08 308.44L704.9 304.73M704.9 304.73L706.69 300.65M706.69 300.65L708.45 296.21M708.45 296.21L710.18 291.41M710.18 291.41L711.87 286.28M711.87 286.28L713.51 280.81M713.51 280.81L715.12 275M715.12 275L716.68 268.88M716.68 268.88L718.19 262.45M718.19 262.45L719.65 255.72M719.65 255.72L721.06 248.7"
fill="none" stroke="black" stroke-width="2"/>
</svg>
