<?xml version="1.0" encoding="UTF-8"?>
<svg xmlns="http://www.w3.org/2000/svg" width="800.000" height="600.000" viewBox="0.0 0.0 800.000 600.000" version="1.1">
  <title>Produce by Acme CAD Converter</title>
  <desc>Produce by Acme CAD Converter</desc>
<path d="M2.26 80.28L2.26 519.72"
fill="none" stroke="black" stroke-width="0"/>
<path d="M2.26 156.32L51.93 159.17M51.93 159.17L101.61 161.65M101.61 161.65L151.32 163.75M151.32 163.75L201.03 165.48M201.03 165.48L250.76 166.83M250.76 166.83L300.5 167.8M300.5 167.8L350.25 168.4M350.25 168.4L399.99 168.62M399.99 168.62L449.74 168.46M449.74 168.46L499.48 167.93M499.48 167.93L549.22 167.03M549.22 167.03L598.95 165.75M598.95 165.75L648.67 164.09M648.67 164.09L698.38 162.05M698.38 162.05L748.07 159.64M748.07 159.64L797.74 156.86"
fill="none" stroke="RGB(2,158,33)" stroke-width="2"/>
<path d="M71.49 160.05L72.22 169.33M72.22 169.33L73.02 178.45M73.02 178.45L73.88 187.4M73.88 187.4L74.81 196.16M74.81 196.16L75.81 204.73M75.81 204.73L76.87 213.09M76.87 213.09L78 221.22M78 221.22L79.18 229.12M79.18 229.12L80.43 236.78M80.43 236.78L81.73 244.17M81.73 244.17L83.09 251.29M83.09 251.29L84.5 258.14M84.5 258.14L85.96 264.69M85.96 264.69L87.48 270.94M87.48 270.94L89.03 276.88M89.03 276.88L90.64 282.49M90.64 282.49L92.28 287.78M92.28 287.78L93.96 292.73M93.96 292.73L95.68 297.34M95.68 297.34L97.43 301.6M97.43 301.6L99.22 305.5M99.22 305.5L101.03 309.03M101.03 309.03L102.87 312.2M102.87 312.2L104.73 314.99M104.73 314.99L106.62 317.4M106.62 317.4L108.52 319.43M108.52 319.43L110.43 321.08M110.43 321.08L112.36 322.34M112.36 322.34L114.29 323.2M114.29 323.2L116.23 323.68M116.23 323.68L118.18 323.77M118.18 323.77L120.12 323.46M120.12 323.46L122.06 322.77M122.06 322.77L123.99 321.68M123.99 321.68L125.91 320.2M125.91 320.2L127.83 318.34M127.83 318.34L129.72 316.09M129.72 316.09L131.6 313.47M131.6 313.47L133.46 310.47M133.46 310.47L135.29 307.09M135.29 307.09L137.1 303.35M137.1 303.35L138.88 299.25M138.88 299.25L140.63 294.8M140.63 294.8L142.34 290M142.34 290L144.01 284.86M144.01 284.86L145.65 279.38M145.65 279.38L147.24 273.58M147.24 273.58L148.79 267.47M148.79 267.47L150.29 261.05M150.29 261.05L151.75 254.33M151.75 254.33L153.15 247.33M153.15 247.33L154.49 240.06M154.49 240.06L155.78 232.52M155.78 232.52L157.02 224.72M157.02 224.72L158.19 216.69M158.19 216.69L159.31 208.43M159.31 208.43L160.35 199.95M160.35 199.95L161.34 191.27M161.34 191.27L162.26 182.4M162.26 182.4L163.11 173.35M163.11 173.35L163.89 164.14"
fill="none" stroke="black" stroke-width="2"/>
<path d="M182.69 164.88L183.49 174.09M183.49 174.09L184.35 183.13M184.35 183.13L185.28 191.98M185.28 191.98L186.28 200.63M186.28 200.63L187.34 209.07M187.34 209.07L188.47 217.29M188.47 217.29L189.66 225.26M189.66 225.26L190.91 232.99M190.91 232.99L192.22 240.46M192.22 240.46L193.58 247.65M193.58 247.65L195 254.56M195 254.56L196.47 261.17M196.47 261.17L197.99 267.48M197.99 267.48L199.56 273.47M199.56 273.47L201.18 279.14M201.18 279.14L202.83 284.47M202.83 284.47L204.53 289.46M204.53 289.46L206.26 294.11M206.26 294.11L208.02 298.39M208.02 298.39L209.82 302.31M209.82 302.31L211.65 305.87M211.65 305.87L213.5 309.05M213.5 309.05L215.38 311.84M215.38 311.84L217.28 314.26M217.28 314.26L219.19 316.28M219.19 316.28L221.12 317.92M221.12 317.92L223.06 319.16M223.06 319.16L225.01 320.01M225.01 320.01L226.97 320.46M226.97 320.46L228.92 320.51M228.92 320.51L230.88 320.17M230.88 320.17L232.83 319.42M232.83 319.42L234.78 318.29M234.78 318.29L236.72 316.75M236.72 316.75L238.64 314.83M238.64 314.83L240.55 312.52M240.55 312.52L242.44 309.82M242.44 309.82L244.31 306.74M244.31 306.74L246.15 303.29M246.15 303.29L247.97 299.46M247.97 299.46L249.75 295.27M249.75 295.27L251.51 290.72M251.51 290.72L253.23 285.82M253.23 285.82L254.91 280.58M254.91 280.58L256.55 275M256.55 275L258.14 269.09M258.14 269.09L259.69 262.87M259.69 262.87L261.19 256.33M261.19 256.33L262.65 249.5M262.65 249.5L264.04 242.38M264.04 242.38L265.39 234.99M265.39 234.99L266.67 227.33M266.67 227.33L267.9 219.41M267.9 219.41L269.07 211.26M269.07 211.26L270.17 202.88M270.17 202.88L271.21 194.28M271.21 194.28L272.19 185.48M272.19 185.48L273.09 176.49M273.09 176.49L273.93 167.33"
fill="none" stroke="black" stroke-width="2"/>
<path d="M292.87 167.66L293.6 177.01M293.6 177.01L294.4 186.2M294.4 186.2L295.27 195.22M295.27 195.22L296.21 204.05M296.21 204.05L297.21 212.69M297.21 212.69L298.28 221.11M298.28 221.11L299.41 229.3M299.41 229.3L300.61 237.26M300.61 237.26L301.86 244.96M301.86 244.96L303.18 252.4M303.18 252.4L304.54 259.57M304.54 259.57L305.97 266.45M305.97 266.45L307.44 273.04M307.44 273.04L308.97 279.32M308.97 279.32L310.54 285.28M310.54 285.28L312.15 290.92M312.15 290.92L313.81 296.22M313.81 296.22L315.51 301.18M315.51 301.18L317.25 305.8M317.25 305.8L319.01 310.05M319.01 310.05L320.81 313.94M320.81 313.94L322.64 317.46M322.64 317.46L324.5 320.61M324.5 320.61L326.38 323.37M326.38 323.37L328.28 325.76M328.28 325.76L330.19 327.75M330.19 327.75L332.12 329.35M332.12 329.35L334.06 330.56M334.06 330.56L336.01 331.38M336.01 331.38L337.97 331.79M337.97 331.79L339.92 331.81M339.92 331.81L341.88 331.43M341.88 331.43L343.83 330.66M343.83 330.66L345.78 329.49M345.78 329.49L347.71 327.93M347.71 327.93L349.64 325.97M349.64 325.97L351.54 323.63M351.54 323.63L353.43 320.9M353.43 320.9L355.3 317.79M355.3 317.79L357.14 314.31M357.14 314.31L358.95 310.45M358.95 310.45L360.74 306.23M360.74 306.23L362.49 301.66M362.49 301.66L364.2 296.73M364.2 296.73L365.88 291.46M365.88 291.46L367.52 285.85M367.52 285.85L369.11 279.92M369.11 279.92L370.65 273.67M370.65 273.67L372.15 267.12M372.15 267.12L373.6 260.26M373.6 260.26L374.99 253.12M374.99 253.12L376.33 245.71M376.33 245.71L377.61 238.03M377.61 238.03L378.84 230.1M378.84 230.1L380 221.93M380 221.93L381.1 213.53M381.1 213.53L382.13 204.92M382.13 204.92L383.1 196.1M383.1 196.1L384 187.1M384 187.1L384.83 177.93M384.83 177.93L385.59 168.59"
fill="none" stroke="black" stroke-width="2"/>
<path d="M407.22 168.62L408 177.81M408 177.81L408.84 186.83M408.84 186.83L409.76 195.67M409.76 195.67L410.74 204.31M410.74 204.31L411.78 212.75M411.78 212.75L412.89 220.97M412.89 220.97L414.06 228.96M414.06 228.96L415.3 236.7M415.3 236.7L416.58 244.19M416.58 244.19L417.93 251.4M417.93 251.4L419.33 258.34M419.33 258.34L420.78 264.99M420.78 264.99L422.28 271.34M422.28 271.34L423.83 277.38M423.83 277.38L425.42 283.09M425.42 283.09L427.06 288.49M427.06 288.49L428.73 293.54M428.73 293.54L430.45 298.25M430.45 298.25L432.2 302.61M432.2 302.61L433.98 306.61M433.98 306.61L435.79 310.25M435.79 310.25L437.62 313.52M437.62 313.52L439.48 316.42M439.48 316.42L441.36 318.93M441.36 318.93L443.26 321.07M443.26 321.07L445.18 322.81M445.18 322.81L447.11 324.17M447.11 324.17L449.04 325.14M449.04 325.14L450.99 325.71M450.99 325.71L452.93 325.9M452.93 325.9L454.88 325.69M454.88 325.69L456.82 325.08M456.82 325.08L458.76 324.09M458.76 324.09L460.69 322.7M460.69 322.7L462.61 320.92M462.61 320.92L464.52 318.76M464.52 318.76L466.4 316.22M466.4 316.22L468.27 313.3M468.27 313.3L470.11 310M470.11 310L471.93 306.33M471.93 306.33L473.72 302.3M473.72 302.3L475.48 297.92M475.48 297.92L477.2 293.18M477.2 293.18L478.89 288.1M478.89 288.1L480.54 282.69M480.54 282.69L482.14 276.94M482.14 276.94L483.7 270.88M483.7 270.88L485.22 264.51M485.22 264.51L486.68 257.84M486.68 257.84L488.1 250.89M488.1 250.89L489.46 243.65M489.46 243.65L490.77 236.14M490.77 236.14L492.01 228.38M492.01 228.38L493.2 220.38M493.2 220.38L494.33 212.14M494.33 212.14L495.39 203.69M495.39 203.69L496.39 195.03M496.39 195.03L497.32 186.17M497.32 186.17L498.19 177.14M498.19 177.14L498.99 167.94"
fill="none" stroke="black" stroke-width="2"/>
<path d="M517.57 167.65L518.3 176.87M518.3 176.87L519.09 185.94M519.09 185.94L519.95 194.84M519.95 194.84L520.88 203.55M520.88 203.55L521.87 212.08M521.87 212.08L522.92 220.39M522.92 220.39L524.04 228.49M524.04 228.49L525.22 236.35M525.22 236.35L526.45 243.97M526.45 243.97L527.75 251.33M527.75 251.33L529.1 258.43M529.1 258.43L530.5 265.25M530.5 265.25L531.95 271.78M531.95 271.78L533.45 278.01M533.45 278.01L534.99 283.94M534.99 283.94L536.58 289.55M536.58 289.55L538.21 294.83M538.21 294.83L539.88 299.79M539.88 299.79L541.59 304.4M541.59 304.4L543.33 308.67M543.33 308.67L545.1 312.58M545.1 312.58L546.9 316.13M546.9 316.13L548.73 319.32M548.73 319.32L550.58 322.14M550.58 322.14L552.45 324.59M552.45 324.59L554.34 326.66M554.34 326.66L556.24 328.35M556.24 328.35L558.15 329.65M558.15 329.65L560.08 330.57M560.08 330.57L562 331.11M562 331.11L563.94 331.25M563.94 331.25L565.87 331.01M565.87 331.01L567.8 330.39M567.8 330.39L569.72 329.37M569.72 329.37L571.64 327.97M571.64 327.97L573.54 326.19M573.54 326.19L575.43 324.03M575.43 324.03L577.3 321.5M577.3 321.5L579.15 318.59M579.15 318.59L580.98 315.31M580.98 315.31L582.79 311.67M582.79 311.67L584.56 307.67M584.56 307.67L586.31 303.32M586.31 303.32L588.02 298.62M588.02 298.62L589.69 293.59M589.69 293.59L591.33 288.22M591.33 288.22L592.92 282.53M592.92 282.53L594.47 276.53M594.47 276.53L595.98 270.23M595.98 270.23L597.44 263.62M597.44 263.62L598.84 256.74M598.84 256.74L600.2 249.58M600.2 249.58L601.5 242.15M601.5 242.15L602.74 234.47M602.74 234.47L603.93 226.55M603.93 226.55L605.05 218.4M605.05 218.4L606.11 210.03M606.11 210.03L607.11 201.46M607.11 201.46L608.05 192.7M608.05 192.7L608.91 183.76M608.91 183.76L609.72 174.65M609.72 174.65L610.45 165.4"
fill="none" stroke="black" stroke-width="2"/>
<path d="M628.74 164.8L629.5 173.98M629.5 173.98L630.33 183.01M630.33 183.01L631.22 191.86M631.22 191.86L632.18 200.52M632.18 200.52L633.21 208.98M633.21 208.98L634.3 217.22M634.3 217.22L635.45 225.24M635.45 225.24L636.66 233.01M636.66 233.01L637.93 240.53M637.93 240.53L639.26 247.79M639.26 247.79L640.64 254.78M640.64 254.78L642.07 261.48M642.07 261.48L643.55 267.88M643.55 267.88L645.08 273.98M645.08 273.98L646.66 279.77M646.66 279.77L648.28 285.23M648.28 285.23L649.94 290.36M649.94 290.36L651.63 295.15M651.63 295.15L653.36 299.6M653.36 299.6L655.13 303.69M655.13 303.69L656.92 307.42M656.92 307.42L658.75 310.79M658.75 310.79L660.59 313.79M660.59 313.79L662.46 316.41M662.46 316.41L664.35 318.65M664.35 318.65L666.25 320.52M666.25 320.52L668.17 321.99M668.17 321.99L670.1 323.08M670.1 323.08L672.03 323.78M672.03 323.78L673.97 324.09M673.97 324.09L675.91 324.01M675.91 324.01L677.85 323.54M677.85 323.54L679.78 322.68M679.78 322.68L681.71 321.44M681.71 321.44L683.62 319.8M683.62 319.8L685.53 317.78M685.53 317.78L687.41 315.38M687.41 315.38L689.28 312.61M689.28 312.61L691.12 309.46M691.12 309.46L692.95 305.94M692.95 305.94L694.74 302.06M694.74 302.06L696.5 297.82M696.5 297.82L698.23 293.23M698.23 293.23L699.93 288.3M699.93 288.3L701.58 283.04M701.58 283.04L703.2 277.44M703.2 277.44L704.77 271.53M704.77 271.53L706.3 265.3M706.3 265.3L707.78 258.77M707.78 258.77L709.21 251.96M709.21 251.96L710.59 244.86M710.59 244.86L711.91 237.49M711.91 237.49L713.18 229.86M713.18 229.86L714.39 221.99M714.39 221.99L715.54 213.88M715.54 213.88L716.62 205.55M716.62 205.55L717.65 197M717.65 197L718.61 188.27M718.61 188.27L719.5 179.34M719.5 179.34L720.32 170.25M720.32 170.25L721.08 161"
fill="none" stroke="black" stroke-width="2"/>
</svg>
