<?xml version="1.0" encoding="UTF-8"?>
<svg xmlns="http://www.w3.org/2000/svg" width="800.000" height="600.000" viewBox="0.0 0.0 800.000 600.000" version="1.1">
  <title>Produce by Acme CAD Converter</title>
  <desc>Produce by Acme CAD Converter</desc>
<path d="M2.26 80.73L2.26 519.27"
fill="none" stroke="black" stroke-width="0"/>
<path d="M2.82 156.6L52.46 159.45M52.46 159.45L102.11 161.93M102.11 161.93L151.77 164.03M151.77 164.03L201.46 165.75M201.46 165.75L251.15 167.1M251.15 167.1L300.85 168.07M300.85 168.07L350.56 168.67M350.56 168.67L400.27 168.89M400.27 168.89L449.98 168.73M449.98 168.73L499.69 168.2M499.69 168.2L549.4 167.29M549.4 167.29L599.09 166.01M599.09 166.01L648.78 164.34M648.78 164.34L698.45 162.31M698.45 162.31L748.1 159.89M748.1 159.89L797.74 157.1"
fill="none" stroke="RGB(2,158,33)" stroke-width="2"/>
<path d="M2.82 156.6L91.13 158.87M91.13 158.87L179.45 160.58M179.45 160.58L267.78 161.75M267.78 161.75L356.11 162.36M356.11 162.36L444.44 162.41M444.44 162.41L532.78 161.92M532.78 161.92L621.11 160.87M621.11 160.87L709.43 159.26M709.43 159.26L797.74 157.1"
fill="none" stroke="RGB(2,158,33)" stroke-width="2"/>
<path d="M72.18 160.34L72.91 169.67M72.91 169.67L73.72 178.83M73.72 178.83L74.59 187.82M74.59 187.82L75.52 196.63M75.52 196.63L76.53 205.24M76.53 205.24L77.6 213.63M77.6 213.63L78.73 221.8M78.73 221.8L79.93 229.73M79.93 229.73L81.19 237.4M81.19 237.4L82.5 244.82M82.5 244.82L83.87 251.96M83.87 251.96L85.29 258.81M85.29 258.81L86.77 265.37M86.77 265.37L88.29 271.62M88.29 271.62L89.86 277.56M89.86 277.56L91.48 283.17M91.48 283.17L93.13 288.44M93.13 288.44L94.83 293.38M94.83 293.38L96.56 297.96M96.56 297.96L98.33 302.19M98.33 302.19L100.13 306.05M100.13 306.05L101.96 309.55M101.96 309.55L103.81 312.67M103.81 312.67L105.69 315.41M105.69 315.41L107.58 317.77M107.58 317.77L109.49 319.74M109.49 319.74L111.42 321.31M111.42 321.31L113.36 322.5M113.36 322.5L115.31 323.29M115.31 323.29L117.26 323.69M117.26 323.69L119.21 323.68M119.21 323.68L121.16 323.29M121.16 323.29L123.11 322.49M123.11 322.49L125.05 321.3M125.05 321.3L126.98 319.72M126.98 319.72L128.9 317.75M128.9 317.75L130.8 315.39M130.8 315.39L132.69 312.64M132.69 312.64L134.55 309.52M134.55 309.52L136.38 306.02M136.38 306.02L138.19 302.15M138.19 302.15L139.97 297.92M139.97 297.92L141.72 293.34M141.72 293.34L143.43 288.4M143.43 288.4L145.1 283.12M145.1 283.12L146.73 277.51M146.73 277.51L148.32 271.57M148.32 271.57L149.86 265.31M149.86 265.31L151.35 258.75M151.35 258.75L152.79 251.9M152.79 251.9L154.18 244.75M154.18 244.75L155.51 237.34M155.51 237.34L156.79 229.66M156.79 229.66L158 221.73M158 221.73L159.16 213.56M159.16 213.56L160.25 205.16M160.25 205.16L161.28 196.55M161.28 196.55L162.24 187.75M162.24 187.75L163.14 178.75M163.14 178.75L163.96 169.59M163.96 169.59L164.72 160.26"
fill="none" stroke="black" stroke-width="2"/>
<path d="M182.8 160.64L183.55 169.83M183.55 169.83L184.37 178.85M184.37 178.85L185.25 187.7M185.25 187.7L186.21 196.37M186.21 196.37L187.23 204.83M187.23 204.83L188.31 213.08M188.31 213.08L189.45 221.1M189.45 221.1L190.66 228.89M190.66 228.89L191.92 236.42M191.92 236.42L193.24 243.69M193.24 243.69L194.61 250.69M194.61 250.69L196.04 257.4M196.04 257.4L197.51 263.82M197.51 263.82L199.04 269.94M199.04 269.94L200.6 275.75M200.6 275.75L202.22 281.23M202.22 281.23L203.87 286.38M203.87 286.38L205.56 291.19M205.56 291.19L207.29 295.66M207.29 295.66L209.05 299.78M209.05 299.78L210.83 303.54M210.83 303.54L212.65 306.93M212.65 306.93L214.49 309.95M214.49 309.95L216.36 312.6M216.36 312.6L218.24 314.88M218.24 314.88L220.14 316.77M220.14 316.77L222.05 318.27M222.05 318.27L223.97 319.39M223.97 319.39L225.9 320.13M225.9 320.13L227.84 320.47M227.84 320.47L229.78 320.42M229.78 320.42L231.71 319.98M231.71 319.98L233.64 319.16M233.64 319.16L235.57 317.94M235.57 317.94L237.48 316.34M237.48 316.34L239.38 314.36M239.38 314.36L241.26 311.99M241.26 311.99L243.13 309.25M243.13 309.25L244.98 306.14M244.98 306.14L246.8 302.65M246.8 302.65L248.59 298.81M248.59 298.81L250.35 294.6M250.35 294.6L252.08 290.05M252.08 290.05L253.78 285.15M253.78 285.15L255.43 279.92M255.43 279.92L257.05 274.36M257.05 274.36L258.62 268.48M258.62 268.48L260.15 262.29M260.15 262.29L261.63 255.79M261.63 255.79L263.06 249.01M263.06 249.01L264.44 241.94M264.44 241.94L265.77 234.61M265.77 234.61L267.04 227.01M267.04 227.01L268.25 219.17M268.25 219.17L269.4 211.09M269.4 211.09L270.49 202.78M270.49 202.78L271.52 194.27M271.52 194.27L272.48 185.56M272.48 185.56L273.37 176.66M273.37 176.66L274.2 167.6"
fill="none" stroke="black" stroke-width="2"/>
<path d="M293.11 167.93L293.83 177.21M293.83 177.21L294.62 186.34M294.62 186.34L295.48 195.29M295.48 195.29L296.41 204.06M296.41 204.06L297.41 212.64M297.41 212.64L298.47 221M298.47 221L299.59 229.15M299.59 229.15L300.77 237.05M300.77 237.05L302.02 244.71M302.02 244.71L303.32 252.11M303.32 252.11L304.67 259.24M304.67 259.24L306.08 266.09M306.08 266.09L307.54 272.65M307.54 272.65L309.05 278.9M309.05 278.9L310.61 284.85M310.61 284.85L312.21 290.47M312.21 290.47L313.85 295.76M313.85 295.76L315.53 300.72M315.53 300.72L317.25 305.33M317.25 305.33L319.01 309.59M319.01 309.59L320.79 313.5M320.79 313.5L322.6 317.03M322.6 317.03L324.44 320.2M324.44 320.2L326.3 322.99M326.3 322.99L328.19 325.41M328.19 325.41L330.08 327.44M330.08 327.44L332 329.09M332 329.09L333.92 330.34M333.92 330.34L335.86 331.21M335.86 331.21L337.8 331.69M337.8 331.69L339.74 331.77M339.74 331.77L341.68 331.46M341.68 331.46L343.62 330.76M343.62 330.76L345.55 329.67M345.55 329.67L347.48 328.19M347.48 328.19L349.39 326.32M349.39 326.32L351.28 324.07M351.28 324.07L353.16 321.44M353.16 321.44L355.02 318.43M355.02 318.43L356.85 315.05M356.85 315.05L358.66 311.3M358.66 311.3L360.44 307.19M360.44 307.19L362.18 302.73M362.18 302.73L363.89 297.92M363.89 297.92L365.57 292.77M365.57 292.77L367.2 287.28M367.2 287.28L368.79 281.48M368.79 281.48L370.34 275.35M370.34 275.35L371.84 268.92M371.84 268.92L373.29 262.2M373.29 262.2L374.69 255.19M374.69 255.19L376.03 247.9M376.03 247.9L377.32 240.35M377.32 240.35L378.55 232.55M378.55 232.55L379.72 224.5M379.72 224.5L380.83 216.23M380.83 216.23L381.87 207.75M381.87 207.75L382.86 199.06M382.86 199.06L383.77 190.18M383.77 190.18L384.62 181.13M384.62 181.13L385.4 171.91M385.4 171.91L386.1 162.55"
fill="none" stroke="black" stroke-width="2"/>
<path d="M406.73 162.45L407.45 171.68M407.45 171.68L408.24 180.75M408.24 180.75L409.1 189.66M409.1 189.66L410.03 198.38M410.03 198.38L411.02 206.91M411.02 206.91L412.08 215.23M412.08 215.23L413.19 223.33M413.19 223.33L414.37 231.19M414.37 231.19L415.61 238.82M415.61 238.82L416.91 246.18M416.91 246.18L418.26 253.28M418.26 253.28L419.66 260.09M419.66 260.09L421.11 266.62M421.11 266.62L422.61 272.85M422.61 272.85L424.16 278.77M424.16 278.77L425.75 284.38M425.75 284.38L427.39 289.66M427.39 289.66L429.06 294.6M429.06 294.6L430.77 299.21M430.77 299.21L432.51 303.46M432.51 303.46L434.28 307.36M434.28 307.36L436.09 310.9M436.09 310.9L437.91 314.08M437.91 314.08L439.77 316.88M439.77 316.88L441.64 319.31M441.64 319.31L443.53 321.36M443.53 321.36L445.43 323.03M445.43 323.03L447.35 324.31M447.35 324.31L449.27 325.21M449.27 325.21L451.2 325.72M451.2 325.72L453.13 325.84M453.13 325.84L455.07 325.57M455.07 325.57L457 324.91M457 324.91L458.92 323.87M458.92 323.87L460.84 322.44M460.84 322.44L462.74 320.63M462.74 320.63L464.63 318.44M464.63 318.44L466.5 315.87M466.5 315.87L468.35 312.92M468.35 312.92L470.18 309.61M470.18 309.61L471.98 305.93M471.98 305.93L473.76 301.9M473.76 301.9L475.5 297.51M475.5 297.51L477.21 292.77M477.21 292.77L478.88 287.7M478.88 287.7L480.51 282.3M480.51 282.3L482.1 276.57M482.1 276.57L483.65 270.54M483.65 270.54L485.15 264.19M485.15 264.19L486.6 257.55M486.6 257.55L488 250.63M488 250.63L489.35 243.43M489.35 243.43L490.65 235.97M490.65 235.97L491.88 228.25M491.88 228.25L493.06 220.3M493.06 220.3L494.18 212.11M494.18 212.11L495.23 203.71M495.23 203.71L496.22 195.11M496.22 195.11L497.15 186.32M497.15 186.32L498.01 177.35M498.01 177.35L498.8 168.21"
fill="none" stroke="black" stroke-width="2"/>
<path d="M517.35 167.92L518.08 177.2M518.08 177.2L518.87 186.32M518.87 186.32L519.74 195.27M519.74 195.27L520.67 204.03M520.67 204.03L521.67 212.6M521.67 212.6L522.74 220.95M522.74 220.95L523.87 229.09M523.87 229.09L525.05 236.98M525.05 236.98L526.3 244.63M526.3 244.63L527.61 252.02M527.61 252.02L528.97 259.13M528.97 259.13L530.38 265.97M530.38 265.97L531.85 272.51M531.85 272.51L533.36 278.74M533.36 278.74L534.92 284.67M534.92 284.67L536.53 290.27M536.53 290.27L538.17 295.55M538.17 295.55L539.86 300.48M539.86 300.48L541.58 305.07M541.58 305.07L543.34 309.31M543.34 309.31L545.12 313.18M545.12 313.18L546.94 316.7M546.94 316.7L548.78 319.84M548.78 319.84L550.65 322.6M550.65 322.6L552.53 324.99M552.53 324.99L554.43 326.99M554.43 326.99L556.35 328.61M556.35 328.61L558.28 329.83M558.28 329.83L560.21 330.67M560.21 330.67L562.15 331.11M562.15 331.11L564.1 331.17M564.1 331.17L566.04 330.82M566.04 330.82L567.98 330.09M567.98 330.09L569.91 328.97M569.91 328.97L571.84 327.45M571.84 327.45L573.75 325.55M573.75 325.55L575.65 323.26M575.65 323.26L577.52 320.6M577.52 320.6L579.38 317.55M579.38 317.55L581.21 314.14M581.21 314.14L583.02 310.36M583.02 310.36L584.79 306.21M584.79 306.21L586.54 301.72M586.54 301.72L588.25 296.87M588.25 296.87L589.92 291.69M589.92 291.69L591.55 286.17M591.55 286.17L593.14 280.33M593.14 280.33L594.68 274.17M594.68 274.17L596.17 267.71M596.17 267.71L597.62 260.95M597.62 260.95L599.01 253.91M599.01 253.91L600.35 246.59M600.35 246.59L601.64 239.01M601.64 239.01L602.86 231.18M602.86 231.18L604.03 223.11M604.03 223.11L605.13 214.81M605.13 214.81L606.17 206.29M606.17 206.29L607.15 197.58M607.15 197.58L608.06 188.68M608.06 188.68L608.9 179.6M608.9 179.6L609.67 170.36M609.67 170.36L610.37 160.98"
fill="none" stroke="black" stroke-width="2"/>
<path d="M627.96 160.76L628.69 170.07M628.69 170.07L629.49 179.22M629.49 179.22L630.36 188.2M630.36 188.2L631.3 196.99M631.3 196.99L632.3 205.59M632.3 205.59L633.37 213.97M633.37 213.97L634.5 222.13M634.5 222.13L635.7 230.04M635.7 230.04L636.95 237.71M636.95 237.71L638.26 245.12M638.26 245.12L639.63 252.25M639.63 252.25L641.05 259.09M641.05 259.09L642.52 265.64M642.52 265.64L644.04 271.89M644.04 271.89L645.61 277.82M645.61 277.82L647.22 283.43M647.22 283.43L648.88 288.7M648.88 288.7L650.57 293.63M650.57 293.63L652.3 298.22M652.3 298.22L654.07 302.44M654.07 302.44L655.86 306.31M655.86 306.31L657.69 309.81M657.69 309.81L659.54 312.93M659.54 312.93L661.41 315.68M661.41 315.68L663.3 318.04M663.3 318.04L665.21 320.02M665.21 320.02L667.14 321.6M667.14 321.6L669.07 322.8M669.07 322.8L671.02 323.6M671.02 323.6L672.96 324.01M672.96 324.01L674.91 324.02M674.91 324.02L676.86 323.63M676.86 323.63L678.81 322.85M678.81 322.85L680.75 321.68M680.75 321.68L682.68 320.11M682.68 320.11L684.59 318.16M684.59 318.16L686.49 315.82M686.49 315.82L688.38 313.09M688.38 313.09L690.24 309.99M690.24 309.99L692.07 306.51M692.07 306.51L693.88 302.67M693.88 302.67L695.66 298.46M695.66 298.46L697.4 293.9M697.4 293.9L699.11 288.98M699.11 288.98L700.78 283.73M700.78 283.73L702.41 278.14M702.41 278.14L704 272.23M704 272.23L705.54 266M705.54 266L707.03 259.47M707.03 259.47L708.47 252.64M708.47 252.64L709.86 245.52M709.86 245.52L711.2 238.13M711.2 238.13L712.48 230.48M712.48 230.48L713.7 222.57M713.7 222.57L714.85 214.43M714.85 214.43L715.95 206.06M715.95 206.06L716.98 197.48M716.98 197.48L717.95 188.7M717.95 188.7L718.85 179.73M718.85 179.73L719.67 170.58M719.67 170.58L720.43 161.28"
fill="none" stroke="black" stroke-width="2"/>
</svg>
