<?xml version="1.0" encoding="UTF-8"?>
<svg xmlns="http://www.w3.org/2000/svg" width="800.000" height="600.000" viewBox="0.0 0.0 800.000 600.000" version="1.1">
  <title>Produce by Acme CAD Converter</title>
  <desc>Produce by Acme CAD Converter</desc>
<path d="M2.26 80.73L2.26 519.27"
fill="none" stroke="black" stroke-width="0"/>
<path d="M2.82 156.6L52.46 159.45M52.46 159.45L102.11 161.93M102.11 161.93L151.77 164.03M151.77 164.03L201.46 165.75M201.46 165.75L251.15 167.1M251.15 167.1L300.85 168.07M300.85 168.07L350.56 168.67M350.56 168.67L400.27 168.89M400.27 168.89L449.98 168.73M449.98 168.73L499.69 168.2M499.69 168.2L549.4 167.29M549.4 167.29L599.09 166.01M599.09 166.01L648.78 164.34M648.78 164.34L698.45 162.31M698.45 162.31L748.1 159.89M748.1 159.89L797.74 157.1"
fill="none" stroke="RGB(2,158,33)" stroke-width="2"/>
<path d="M2.82 156.6L91.13 158.87M91.13 158.87L179.45 160.58M179.45 160.58L267.78 161.75M267.78 161.75L356.11 162.36M356.11 162.36L444.44 162.41M444.44 162.41L532.78 161.92M532.78 161.92L621.11 160.87M621.11 160.87L709.43 159.26M709.43 159.26L797.74 157.1"
fill="none" stroke="RGB(2,158,33)" stroke-width="2"/>
<path d="M72.18 160.34L72.91 169.6M72.91 169.6L73.7 178.7M73.7 178.7L74.57 187.63M74.57 187.63L75.5 196.38M75.5 196.38L76.49 204.93M76.49 204.93L77.55 213.27M77.55 213.27L78.68 221.39M78.68 221.39L79.86 229.27M79.86 229.27L81.1 236.91M81.1 236.91L82.4 244.29M82.4 244.29L83.76 251.39M83.76 251.39L85.17 258.22M85.17 258.22L86.62 264.76M86.62 264.76L88.13 271M88.13 271L89.69 276.92M89.69 276.92L91.29 282.53M91.29 282.53L92.93 287.81M92.93 287.81L94.61 292.75M94.61 292.75L96.32 297.35M96.32 297.35L98.07 301.6M98.07 301.6L99.85 305.49M99.85 305.49L101.66 309.01M101.66 309.01L103.5 312.17M103.5 312.17L105.36 314.96M105.36 314.96L107.23 317.37M107.23 317.37L109.13 319.39M109.13 319.39L111.04 321.03M111.04 321.03L112.96 322.29M112.96 322.29L114.89 323.16M114.89 323.16L116.83 323.63M116.83 323.63L118.77 323.72M118.77 323.72L120.71 323.41M120.71 323.41L122.64 322.72M122.64 322.72L124.57 321.63M124.57 321.63L126.49 320.16M126.49 320.16L128.4 318.3M128.4 318.3L130.29 316.06M130.29 316.06L132.17 313.44M132.17 313.44L134.02 310.45M134.02 310.45L135.85 307.08M135.85 307.08L137.66 303.35M137.66 303.35L139.43 299.26M139.43 299.26L141.18 294.81M141.18 294.81L142.88 290.02M142.88 290.02L144.56 284.89M144.56 284.89L146.19 279.42M146.19 279.42L147.78 273.64M147.78 273.64L149.32 267.54M149.32 267.54L150.82 261.13M150.82 261.13L152.27 254.43M152.27 254.43L153.67 247.44M153.67 247.44L155.01 240.18M155.01 240.18L156.3 232.65M156.3 232.65L157.53 224.88M157.53 224.88L158.7 216.86M158.7 216.86L159.81 208.62M159.81 208.62L160.86 200.15M160.86 200.15L161.85 191.49M161.85 191.49L162.76 182.64M162.76 182.64L163.61 173.61M163.61 173.61L164.39 164.42"
fill="none" stroke="black" stroke-width="2"/>
<path d="M182.8 160.64L183.56 169.92M183.56 169.92L184.38 179.04M184.38 179.04L185.28 187.98M185.28 187.98L186.25 196.73M186.25 196.73L187.28 205.27M187.28 205.27L188.38 213.59M188.38 213.59L189.54 221.68M189.54 221.68L190.76 229.53M190.76 229.53L192.04 237.12M192.04 237.12L193.38 244.44M193.38 244.44L194.77 251.48M194.77 251.48L196.22 258.23M196.22 258.23L197.72 264.68M197.72 264.68L199.26 270.81M199.26 270.81L200.86 276.63M200.86 276.63L202.49 282.11M202.49 282.11L204.17 287.26M204.17 287.26L205.88 292.06M205.88 292.06L207.63 296.51M207.63 296.51L209.42 300.6M209.42 300.6L211.23 304.31M211.23 304.31L213.07 307.66M213.07 307.66L214.94 310.63M214.94 310.63L216.83 313.21M216.83 313.21L218.74 315.41M218.74 315.41L220.66 317.22M220.66 317.22L222.59 318.63M222.59 318.63L224.54 319.65M224.54 319.65L226.49 320.27M226.49 320.27L228.45 320.5M228.45 320.5L230.4 320.32M230.4 320.32L232.36 319.75M232.36 319.75L234.31 318.78M234.31 318.78L236.25 317.42M236.25 317.42L238.18 315.66M238.18 315.66L240.09 313.51M240.09 313.51L241.99 310.97M241.99 310.97L243.87 308.05M243.87 308.05L245.72 304.76M245.72 304.76L247.55 301.08M247.55 301.08L249.35 297.04M249.35 297.04L251.12 292.64M251.12 292.64L252.85 287.89M252.85 287.89L254.54 282.78M254.54 282.78L256.2 277.34M256.2 277.34L257.81 271.56M257.81 271.56L259.38 265.47M259.38 265.47L260.9 259.06M260.9 259.06L262.37 252.34M262.37 252.34L263.79 245.34M263.79 245.34L265.16 238.05M265.16 238.05L266.47 230.5M266.47 230.5L267.72 222.68M267.72 222.68L268.91 214.62M268.91 214.62L270.04 206.33M270.04 206.33L271.1 197.81M271.1 197.81L272.1 189.09M272.1 189.09L273.03 180.17M273.03 180.17L273.89 171.08M273.89 171.08L274.69 161.82"
fill="none" stroke="black" stroke-width="2"/>
<path d="M293.11 167.93L293.83 177.26M293.83 177.26L294.63 186.44M294.63 186.44L295.5 195.44M295.5 195.44L296.43 204.25M296.43 204.25L297.44 212.87M297.44 212.87L298.5 221.27M298.5 221.27L299.63 229.45M299.63 229.45L300.83 237.39M300.83 237.39L302.08 245.08M302.08 245.08L303.39 252.5M303.39 252.5L304.76 259.65M304.76 259.65L306.18 266.52M306.18 266.52L307.65 273.09M307.65 273.09L309.17 279.36M309.17 279.36L310.74 285.31M310.74 285.31L312.35 290.94M312.35 290.94L314 296.23M314 296.23L315.7 301.18M315.7 301.18L317.43 305.78M317.43 305.78L319.2 310.03M319.2 310.03L320.99 313.91M320.99 313.91L322.82 317.43M322.82 317.43L324.67 320.57M324.67 320.57L326.54 323.33M326.54 323.33L328.44 325.7M328.44 325.7L330.35 327.69M330.35 327.69L332.28 329.29M332.28 329.29L334.21 330.5M334.21 330.5L336.16 331.31M336.16 331.31L338.11 331.73M338.11 331.73L340.06 331.75M340.06 331.75L342.02 331.37M342.02 331.37L343.96 330.6M343.96 330.6L345.91 329.43M345.91 329.43L347.84 327.87M347.84 327.87L349.76 325.92M349.76 325.92L351.66 323.58M351.66 323.58L353.54 320.86M353.54 320.86L355.4 317.75M355.4 317.75L357.24 314.28M357.24 314.28L359.05 310.43M359.05 310.43L360.83 306.22M360.83 306.22L362.58 301.65M362.58 301.65L364.29 296.74M364.29 296.74L365.96 291.48M365.96 291.48L367.6 285.88M367.6 285.88L369.19 279.96M369.19 279.96L370.73 273.73M370.73 273.73L372.22 267.18M372.22 267.18L373.67 260.35M373.67 260.35L375.06 253.22M375.06 253.22L376.4 245.82M376.4 245.82L377.67 238.16M377.67 238.16L378.89 230.24M378.89 230.24L380.05 222.09M380.05 222.09L381.15 213.71M381.15 213.71L382.18 205.11M382.18 205.11L383.15 196.32M383.15 196.32L384.05 187.33M384.05 187.33L384.88 178.18M384.88 178.18L385.64 168.86"
fill="none" stroke="black" stroke-width="2"/>
<path d="M406.73 162.45L407.46 171.78M407.46 171.78L408.26 180.95M408.26 180.95L409.13 189.94M409.13 189.94L410.07 198.75M410.07 198.75L411.08 207.36M411.08 207.36L412.15 215.76M412.15 215.76L413.28 223.93M413.28 223.93L414.48 231.86M414.48 231.86L415.73 239.54M415.73 239.54L417.05 246.95M417.05 246.95L418.42 254.09M418.42 254.09L419.84 260.95M419.84 260.95L421.32 267.51M421.32 267.51L422.84 273.76M422.84 273.76L424.41 279.7M424.41 279.7L426.03 285.31M426.03 285.31L427.69 290.58M427.69 290.58L429.38 295.52M429.38 295.52L431.12 300.1M431.12 300.1L432.89 304.33M432.89 304.33L434.69 308.19M434.69 308.19L436.51 311.68M436.51 311.68L438.37 314.8M438.37 314.8L440.25 317.54M440.25 317.54L442.14 319.89M442.14 319.89L444.06 321.86M444.06 321.86L445.98 323.44M445.98 323.44L447.92 324.62M447.92 324.62L449.87 325.41M449.87 325.41L451.82 325.8M451.82 325.8L453.77 325.79M453.77 325.79L455.73 325.39M455.73 325.39L457.68 324.59M457.68 324.59L459.62 323.4M459.62 323.4L461.55 321.81M461.55 321.81L463.47 319.83M463.47 319.83L465.37 317.46M465.37 317.46L467.26 314.71M467.26 314.71L469.12 311.58M469.12 311.58L470.95 308.08M470.95 308.08L472.76 304.21M472.76 304.21L474.54 299.97M474.54 299.97L476.29 295.37M476.29 295.37L478 290.43M478 290.43L479.67 285.14M479.67 285.14L481.3 279.52M481.3 279.52L482.89 273.58M482.89 273.58L484.43 267.32M484.43 267.32L485.92 260.75M485.92 260.75L487.36 253.88M487.36 253.88L488.75 246.73M488.75 246.73L490.08 239.31M490.08 239.31L491.35 231.62M491.35 231.62L492.57 223.69M492.57 223.69L493.73 215.51M493.73 215.51L494.82 207.11M494.82 207.11L495.84 198.49M495.84 198.49L496.81 189.68M496.81 189.68L497.7 180.67M497.7 180.67L498.52 171.5M498.52 171.5L499.28 162.17"
fill="none" stroke="black" stroke-width="2"/>
<path d="M517.35 167.92L518.08 177.27M518.08 177.27L518.89 186.46M518.89 186.46L519.76 195.48M519.76 195.48L520.71 204.32M520.71 204.32L521.72 212.95M521.72 212.95L522.79 221.36M522.79 221.36L523.93 229.55M523.93 229.55L525.13 237.49M525.13 237.49L526.4 245.18M526.4 245.18L527.72 252.61M527.72 252.61L529.09 259.76M529.09 259.76L530.52 266.62M530.52 266.62L532.01 273.19M532.01 273.19L533.54 279.44M533.54 279.44L535.12 285.38M535.12 285.38L536.74 290.99M536.74 290.99L538.41 296.26M538.41 296.26L540.11 301.18M540.11 301.18L541.85 305.76M541.85 305.76L543.63 309.97M543.63 309.97L545.44 313.82M545.44 313.82L547.27 317.29M547.27 317.29L549.13 320.39M549.13 320.39L551.02 323.1M551.02 323.1L552.92 325.43M552.92 325.43L554.84 327.37M554.84 327.37L556.78 328.91M556.78 328.91L558.72 330.06M558.72 330.06L560.68 330.81M560.68 330.81L562.63 331.16M562.63 331.16L564.59 331.12M564.59 331.12L566.55 330.67M566.55 330.67L568.51 329.82M568.51 329.82L570.45 328.58M570.45 328.58L572.39 326.94M572.39 326.94L574.31 324.91M574.31 324.91L576.22 322.49M576.22 322.49L578.11 319.69M578.11 319.69L579.97 316.5M579.97 316.5L581.81 312.93M581.81 312.93L583.62 309M583.62 309L585.4 304.7M585.4 304.7L587.15 300.04M587.15 300.04L588.85 295.03M588.85 295.03L590.53 289.68M590.53 289.68L592.15 283.99M592.15 283.99L593.74 277.98M593.74 277.98L595.28 271.65M595.28 271.65L596.76 265.02M596.76 265.02L598.2 258.09M598.2 258.09L599.58 250.87M599.58 250.87L600.91 243.38M600.91 243.38L602.18 235.62M602.18 235.62L603.39 227.62M603.39 227.62L604.54 219.38M604.54 219.38L605.62 210.91M605.62 210.91L606.64 202.23M606.64 202.23L607.59 193.35M607.59 193.35L608.47 184.29M608.47 184.29L609.29 175.06M609.29 175.06L610.03 165.67"
fill="none" stroke="black" stroke-width="2"/>
<path d="M627.96 160.76L628.69 170.11M628.69 170.11L629.5 179.29M629.5 179.29L630.37 188.31M630.37 188.31L631.31 197.13M631.31 197.13L632.32 205.76M632.32 205.76L633.4 214.17M633.4 214.17L634.54 222.35M634.54 222.35L635.74 230.29M635.74 230.29L637 237.98M637 237.98L638.32 245.4M638.32 245.4L639.69 252.55M639.69 252.55L641.12 259.41M641.12 259.41L642.6 265.97M642.6 265.97L644.13 272.23M644.13 272.23L645.71 278.16M645.71 278.16L647.33 283.77M647.33 283.77L648.99 289.04M648.99 289.04L650.69 293.97M650.69 293.97L652.43 298.55M652.43 298.55L654.21 302.76M654.21 302.76L656.01 306.61M656.01 306.61L657.85 310.09M657.85 310.09L659.71 313.2M659.71 313.2L661.59 315.92M661.59 315.92L663.49 318.25M663.49 318.25L665.41 320.2M665.41 320.2L667.34 321.75M667.34 321.75L669.29 322.91M669.29 322.91L671.24 323.67M671.24 323.67L673.2 324.03M673.2 324.03L675.15 323.99M675.15 323.99L677.11 323.56M677.11 323.56L679.06 322.72M679.06 322.72L681.01 321.49M681.01 321.49L682.94 319.87M682.94 319.87L684.87 317.85M684.87 317.85L686.77 315.44M686.77 315.44L688.66 312.65M688.66 312.65L690.52 309.48M690.52 309.48L692.36 305.93M692.36 305.93L694.17 302.01M694.17 302.01L695.95 297.73M695.95 297.73L697.69 293.09M697.69 293.09L699.4 288.09M699.4 288.09L701.07 282.76M701.07 282.76L702.7 277.09M702.7 277.09L704.29 271.09M704.29 271.09L705.83 264.78M705.83 264.78L707.32 258.17M707.32 258.17L708.75 251.25M708.75 251.25L710.14 244.05M710.14 244.05L711.47 236.58M711.47 236.58L712.74 228.84M712.74 228.84L713.95 220.85M713.95 220.85L715.1 212.63M715.1 212.63L716.18 204.18M716.18 204.18L717.2 195.52M717.2 195.52L718.16 186.66M718.16 186.66L719.04 177.61M719.04 177.61L719.86 168.39M719.86 168.39L720.61 159.02"
fill="none" stroke="black" stroke-width="2"/>
</svg>
