<?xml version="1.0" encoding="UTF-8"?>
<svg xmlns="http://www.w3.org/2000/svg" width="800.000" height="600.000" viewBox="0.0 0.0 800.000 600.000" version="1.1">
  <title>Produce by Acme CAD Converter</title>
  <desc>Produce by Acme CAD Converter</desc>
<path d="M2.26 80.73L2.26 519.27"
fill="none" stroke="RGB(237,31,36)" stroke-width="0"/>
<path d="M2.82 156.6L91.13 158.87M91.13 158.87L179.45 160.58M179.45 160.58L267.78 161.75M267.78 161.75L356.11 162.36M356.11 162.36L444.44 162.41M444.44 162.41L532.78 161.92M532.78 161.92L621.11 160.87M621.11 160.87L709.43 159.26M709.43 159.26L797.74 157.1"
fill="none" stroke="RGB(2,158,33)" stroke-width="2"/>
<path d="M128.48 191L212.22 191"
fill="none" stroke="black" stroke-width="2"/>
<path d="M128.48 197.54L212.22 197.54"
fill="none" stroke="black" stroke-width="2"/>
<path d="M128.48 191L128 191.2M128 191.2L127.58 191.77M127.58 191.77L127.27 192.64M127.27 192.64L127.1 193.71M127.1 193.71L127.1 194.84M127.1 194.84L127.27 195.91M127.27 195.91L127.58 196.78M127.58 196.78L128 197.35M128 197.35L128.48 197.54M128.48 197.54L128.95 197.35M128.95 197.35L129.37 196.78M129.37 196.78L129.68 195.91M129.68 195.91L129.85 194.84M129.85 194.84L129.85 193.71M129.85 193.71L129.68 192.64M129.68 192.64L129.37 191.77M129.37 191.77L128.95 191.2M128.95 191.2L128.48 191"
fill="none" stroke="black" stroke-width="2"/>
<path d="M212.22 197.54L212.7 197.35M212.7 197.35L213.11 196.78M213.11 196.78L213.43 195.91M213.43 195.91L213.59 194.84M213.59 194.84L213.59 193.71M213.59 193.71L213.43 192.64M213.43 192.64L213.11 191.77M213.11 191.77L212.7 191.2M212.7 191.2L212.22 191"
fill="none" stroke="black" stroke-width="2"/>
<path d="M134.03 197.54L134.03 302.33"
fill="none" stroke="black" stroke-width="2"/>
<path d="M206.03 197.54L206.03 302.33"
fill="none" stroke="black" stroke-width="2"/>
<path d="M170.1 197.54L170.1 302.33"
fill="none" stroke="black" stroke-width="2"/>
<path d="M159.41 197.54L159.41 302.33"
fill="none" stroke="black" stroke-width="2"/>
<path d="M146.05 197.54L146.05 302.33"
fill="none" stroke="black" stroke-width="2"/>
<path d="M180.79 197.54L180.79 302.33"
fill="none" stroke="black" stroke-width="2"/>
<path d="M193.26 197.54L193.26 302.33"
fill="none" stroke="black" stroke-width="2"/>
<path d="M132.17 300.36L208.42 300.36"
fill="none" stroke="black" stroke-width="2"/>
<path d="M132.17 286.36L208.42 286.36"
fill="none" stroke="black" stroke-width="2"/>
<path d="M132.17 272.08L208.42 272.08"
fill="none" stroke="black" stroke-width="2"/>
<path d="M132.17 258.93L208.42 258.93"
fill="none" stroke="black" stroke-width="2"/>
<path d="M132.17 244.65L208.42 244.65"
fill="none" stroke="black" stroke-width="2"/>
<path d="M132.17 230.66L208.42 230.66"
fill="none" stroke="black" stroke-width="2"/>
<path d="M132.04 216.29L208.42 216.29"
fill="none" stroke="black" stroke-width="2"/>
<path d="M132.17 201.26L208.42 201.26"
fill="none" stroke="black" stroke-width="2"/>
<path d="M133.83 201.26L133.89 201.12M133.89 201.12L134.03 201.07M134.03 201.07L134.17 201.12M134.17 201.12L134.22 201.26M134.22 201.26L134.17 201.4M134.17 201.4L134.03 201.46M134.03 201.46L133.89 201.4M133.89 201.4L133.83 201.26"
fill="none" stroke="black" stroke-width="2"/>
<path d="M145.86 201.26L145.91 201.12M145.91 201.12L146.05 201.07M146.05 201.07L146.19 201.12M146.19 201.12L146.25 201.26M146.25 201.26L146.19 201.4M146.19 201.4L146.05 201.46M146.05 201.46L145.91 201.4M145.91 201.4L145.86 201.26"
fill="none" stroke="black" stroke-width="2"/>
<path d="M159.22 201.26L159.27 201.12M159.27 201.12L159.41 201.07M159.41 201.07L159.55 201.12M159.55 201.12L159.61 201.26M159.61 201.26L159.55 201.4M159.55 201.4L159.41 201.46M159.41 201.46L159.27 201.4M159.27 201.4L159.22 201.26"
fill="none" stroke="black" stroke-width="2"/>
<path d="M169.91 201.26L169.96 201.12M169.96 201.12L170.1 201.07M170.1 201.07L170.24 201.12M170.24 201.12L170.3 201.26M170.3 201.26L170.24 201.4M170.24 201.4L170.1 201.46M170.1 201.46L169.96 201.4M169.96 201.4L169.91 201.26"
fill="none" stroke="black" stroke-width="2"/>
<path d="M180.59 201.26L180.65 201.12M180.65 201.12L180.79 201.07M180.79 201.07L180.93 201.12M180.93 201.12L180.99 201.26M180.99 201.26L180.93 201.4M180.93 201.4L180.79 201.46M180.79 201.46L180.65 201.4M180.65 201.4L180.59 201.26"
fill="none" stroke="black" stroke-width="2"/>
<path d="M193.06 201.26L193.12 201.12M193.12 201.12L193.26 201.07M193.26 201.07L193.4 201.12M193.4 201.12L193.46 201.26M193.46 201.26L193.4 201.4M193.4 201.4L193.26 201.46M193.26 201.46L193.12 201.4M193.12 201.4L193.06 201.26"
fill="none" stroke="black" stroke-width="2"/>
<path d="M205.83 201.26L205.89 201.12M205.89 201.12L206.03 201.07M206.03 201.07L206.17 201.12M206.17 201.12L206.23 201.26M206.23 201.26L206.17 201.4M206.17 201.4L206.03 201.46M206.03 201.46L205.89 201.4M205.89 201.4L205.83 201.26"
fill="none" stroke="black" stroke-width="2"/>
<path d="M133.83 216.29L133.89 216.15M133.89 216.15L134.03 216.1M134.03 216.1L134.17 216.15M134.17 216.15L134.22 216.29M134.22 216.29L134.17 216.43M134.17 216.43L134.03 216.49M134.03 216.49L133.89 216.43M133.89 216.43L133.83 216.29"
fill="none" stroke="black" stroke-width="2"/>
<path d="M145.86 216.29L145.91 216.15M145.91 216.15L146.05 216.1M146.05 216.1L146.19 216.15M146.19 216.15L146.25 216.29M146.25 216.29L146.19 216.43M146.19 216.43L146.05 216.49M146.05 216.49L145.91 216.43M145.91 216.43L145.86 216.29"
fill="none" stroke="black" stroke-width="2"/>
<path d="M159.22 216.29L159.27 216.15M159.27 216.15L159.41 216.1M159.41 216.1L159.55 216.15M159.55 216.15L159.61 216.29M159.61 216.29L159.55 216.43M159.55 216.43L159.41 216.49M159.41 216.49L159.27 216.43M159.27 216.43L159.22 216.29"
fill="none" stroke="black" stroke-width="2"/>
<path d="M169.91 216.29L169.96 216.15M169.96 216.15L170.1 216.1M170.1 216.1L170.24 216.15M170.24 216.15L170.3 216.29M170.3 216.29L170.24 216.43M170.24 216.43L170.1 216.49M170.1 216.49L169.96 216.43M169.96 216.43L169.91 216.29"
fill="none" stroke="black" stroke-width="2"/>
<path d="M180.59 216.29L180.65 216.15M180.65 216.15L180.79 216.1M180.79 216.1L180.93 216.15M180.93 216.15L180.99 216.29M180.99 216.29L180.93 216.43M180.93 216.43L180.79 216.49M180.79 216.49L180.65 216.43M180.65 216.43L180.59 216.29"
fill="none" stroke="black" stroke-width="2"/>
<path d="M193.06 216.29L193.12 216.15M193.12 216.15L193.26 216.1M193.26 216.1L193.4 216.15M193.4 216.15L193.46 216.29M193.46 216.29L193.4 216.43M193.4 216.43L193.26 216.49M193.26 216.49L193.12 216.43M193.12 216.43L193.06 216.29"
fill="none" stroke="black" stroke-width="2"/>
<path d="M205.83 216.29L205.89 216.15M205.89 216.15L206.03 216.1M206.03 216.1L206.17 216.15M206.17 216.15L206.23 216.29M206.23 216.29L206.17 216.43M206.17 216.43L206.03 216.49M206.03 216.49L205.89 216.43M205.89 216.43L205.83 216.29"
fill="none" stroke="black" stroke-width="2"/>
<path d="M133.83 230.66L133.89 230.52M133.89 230.52L134.03 230.46M134.03 230.46L134.17 230.52M134.17 230.52L134.22 230.66M134.22 230.66L134.17 230.8M134.17 230.8L134.03 230.85M134.03 230.85L133.89 230.8M133.89 230.8L133.83 230.66"
fill="none" stroke="black" stroke-width="2"/>
<path d="M145.86 230.66L145.91 230.52M145.91 230.52L146.05 230.46M146.05 230.46L146.19 230.52M146.19 230.52L146.25 230.66M146.25 230.66L146.19 230.8M146.19 230.8L146.05 230.85M146.05 230.85L145.91 230.8M145.91 230.8L145.86 230.66"
fill="none" stroke="black" stroke-width="2"/>
<path d="M159.22 230.66L159.27 230.52M159.27 230.52L159.41 230.46M159.41 230.46L159.55 230.52M159.55 230.52L159.61 230.66M159.61 230.66L159.55 230.8M159.55 230.8L159.41 230.85M159.41 230.85L159.27 230.8M159.27 230.8L159.22 230.66"
fill="none" stroke="black" stroke-width="2"/>
<path d="M169.91 230.66L169.96 230.52M169.96 230.52L170.1 230.46M170.1 230.46L170.24 230.52M170.24 230.52L170.3 230.66M170.3 230.66L170.24 230.8M170.24 230.8L170.1 230.85M170.1 230.85L169.96 230.8M169.96 230.8L169.91 230.66"
fill="none" stroke="black" stroke-width="2"/>
<path d="M180.59 230.66L180.65 230.52M180.65 230.52L180.79 230.46M180.79 230.46L180.93 230.52M180.93 230.52L180.99 230.66M180.99 230.66L180.93 230.8M180.93 230.8L180.79 230.85M180.79 230.85L180.65 230.8M180.65 230.8L180.59 230.66"
fill="none" stroke="black" stroke-width="2"/>
<path d="M193.06 230.66L193.12 230.52M193.12 230.52L193.26 230.46M193.26 230.46L193.4 230.52M193.4 230.52L193.46 230.66M193.46 230.66L193.4 230.8M193.4 230.8L193.26 230.85M193.26 230.85L193.12 230.8M193.12 230.8L193.06 230.66"
fill="none" stroke="black" stroke-width="2"/>
<path d="M205.83 230.66L205.89 230.52M205.89 230.52L206.03 230.46M206.03 230.46L206.17 230.52M206.17 230.52L206.23 230.66M206.23 230.66L206.17 230.8M206.17 230.8L206.03 230.85M206.03 230.85L205.89 230.8M205.89 230.8L205.83 230.66"
fill="none" stroke="black" stroke-width="2"/>
<path d="M133.83 244.65L133.89 244.51M133.89 244.51L134.03 244.46M134.03 244.46L134.17 244.51M134.17 244.51L134.22 244.65M134.22 244.65L134.17 244.79M134.17 244.79L134.03 244.85M134.03 244.85L133.89 244.79M133.89 244.79L133.83 244.65"
fill="none" stroke="black" stroke-width="2"/>
<path d="M145.86 244.65L145.91 244.51M145.91 244.51L146.05 244.46M146.05 244.46L146.19 244.51M146.19 244.51L146.25 244.65M146.25 244.65L146.19 244.79M146.19 244.79L146.05 244.85M146.05 244.85L145.91 244.79M145.91 244.79L145.86 244.65"
fill="none" stroke="black" stroke-width="2"/>
<path d="M159.22 244.65L159.27 244.51M159.27 244.51L159.41 244.46M159.41 244.46L159.55 244.51M159.55 244.51L159.61 244.65M159.61 244.65L159.55 244.79M159.55 244.79L159.41 244.85M159.41 244.85L159.27 244.79M159.27 244.79L159.22 244.65"
fill="none" stroke="black" stroke-width="2"/>
<path d="M169.91 244.65L169.96 244.51M169.96 244.51L170.1 244.46M170.1 244.46L170.24 244.51M170.24 244.51L170.3 244.65M170.3 244.65L170.24 244.79M170.24 244.79L170.1 244.85M170.1 244.85L169.96 244.79M169.96 244.79L169.91 244.65"
fill="none" stroke="black" stroke-width="2"/>
<path d="M180.59 244.65L180.65 244.51M180.65 244.51L180.79 244.46M180.79 244.46L180.93 244.51M180.93 244.51L180.99 244.65M180.99 244.65L180.93 244.79M180.93 244.79L180.79 244.85M180.79 244.85L180.65 244.79M180.65 244.79L180.59 244.65"
fill="none" stroke="black" stroke-width="2"/>
<path d="M193.06 244.65L193.12 244.51M193.12 244.51L193.26 244.46M193.26 244.46L193.4 244.51M193.4 244.51L193.46 244.65M193.46 244.65L193.4 244.79M193.4 244.79L193.26 244.85M193.26 244.85L193.12 244.79M193.12 244.79L193.06 244.65"
fill="none" stroke="black" stroke-width="2"/>
<path d="M205.83 244.65L205.89 244.51M205.89 244.51L206.03 244.46M206.03 244.46L206.17 244.51M206.17 244.51L206.23 244.65M206.23 244.65L206.17 244.79M206.17 244.79L206.03 244.85M206.03 244.85L205.89 244.79M205.89 244.79L205.83 244.65"
fill="none" stroke="black" stroke-width="2"/>
<path d="M133.83 258.93L133.89 258.79M133.89 258.79L134.03 258.73M134.03 258.73L134.17 258.79M134.17 258.79L134.22 258.93M134.22 258.93L134.17 259.07M134.17 259.07L134.03 259.13M134.03 259.13L133.89 259.07M133.89 259.07L133.83 258.93"
fill="none" stroke="black" stroke-width="2"/>
<path d="M145.86 258.93L145.91 258.79M145.91 258.79L146.05 258.73M146.05 258.73L146.19 258.79M146.19 258.79L146.25 258.93M146.25 258.93L146.19 259.07M146.19 259.07L146.05 259.13M146.05 259.13L145.91 259.07M145.91 259.07L145.86 258.93"
fill="none" stroke="black" stroke-width="2"/>
<path d="M159.22 258.93L159.27 258.79M159.27 258.79L159.41 258.73M159.41 258.73L159.55 258.79M159.55 258.79L159.61 258.93M159.61 258.93L159.55 259.07M159.55 259.07L159.41 259.13M159.41 259.13L159.27 259.07M159.27 259.07L159.22 258.93"
fill="none" stroke="black" stroke-width="2"/>
<path d="M169.91 258.93L169.96 258.79M169.96 258.79L170.1 258.73M170.1 258.73L170.24 258.79M170.24 258.79L170.3 258.93M170.3 258.93L170.24 259.07M170.24 259.07L170.1 259.13M170.1 259.13L169.96 259.07M169.96 259.07L169.91 258.93"
fill="none" stroke="black" stroke-width="2"/>
<path d="M180.59 258.93L180.65 258.79M180.65 258.79L180.79 258.73M180.79 258.73L180.93 258.79M180.93 258.79L180.99 258.93M180.99 258.93L180.93 259.07M180.93 259.07L180.79 259.13M180.79 259.13L180.65 259.07M180.65 259.07L180.59 258.93"
fill="none" stroke="black" stroke-width="2"/>
<path d="M193.06 258.93L193.12 258.79M193.12 258.79L193.26 258.73M193.26 258.73L193.4 258.79M193.4 258.79L193.46 258.93M193.46 258.93L193.4 259.07M193.4 259.07L193.26 259.13M193.26 259.13L193.12 259.07M193.12 259.07L193.06 258.93"
fill="none" stroke="black" stroke-width="2"/>
<path d="M205.83 258.93L205.89 258.79M205.89 258.79L206.03 258.73M206.03 258.73L206.17 258.79M206.17 258.79L206.23 258.93M206.23 258.93L206.17 259.07M206.17 259.07L206.03 259.13M206.03 259.13L205.89 259.07M205.89 259.07L205.83 258.93"
fill="none" stroke="black" stroke-width="2"/>
<path d="M133.83 272.08L133.89 271.95M133.89 271.95L134.03 271.89M134.03 271.89L134.17 271.95M134.17 271.95L134.22 272.08M134.22 272.08L134.17 272.22M134.17 272.22L134.03 272.28M134.03 272.28L133.89 272.22M133.89 272.22L133.83 272.08"
fill="none" stroke="black" stroke-width="2"/>
<path d="M145.86 272.08L145.91 271.95M145.91 271.95L146.05 271.89M146.05 271.89L146.19 271.95M146.19 271.95L146.25 272.08M146.25 272.08L146.19 272.22M146.19 272.22L146.05 272.28M146.05 272.28L145.91 272.22M145.91 272.22L145.86 272.08"
fill="none" stroke="black" stroke-width="2"/>
<path d="M159.22 272.08L159.27 271.95M159.27 271.95L159.41 271.89M159.41 271.89L159.55 271.95M159.55 271.95L159.61 272.08M159.61 272.08L159.55 272.22M159.55 272.22L159.41 272.28M159.41 272.28L159.27 272.22M159.27 272.22L159.22 272.08"
fill="none" stroke="black" stroke-width="2"/>
<path d="M169.91 272.08L169.96 271.95M169.96 271.95L170.1 271.89M170.1 271.89L170.24 271.95M170.24 271.95L170.3 272.08M170.3 272.08L170.24 272.22M170.24 272.22L170.1 272.28M170.1 272.28L169.96 272.22M169.96 272.22L169.91 272.08"
fill="none" stroke="black" stroke-width="2"/>
<path d="M180.59 272.08L180.65 271.95M180.65 271.95L180.79 271.89M180.79 271.89L180.93 271.95M180.93 271.95L180.99 272.08M180.99 272.08L180.93 272.22M180.93 272.22L180.79 272.28M180.79 272.28L180.65 272.22M180.65 272.22L180.59 272.08"
fill="none" stroke="black" stroke-width="2"/>
<path d="M193.06 272.08L193.12 271.95M193.12 271.95L193.26 271.89M193.26 271.89L193.4 271.95M193.4 271.95L193.46 272.08M193.46 272.08L193.4 272.22M193.4 272.22L193.26 272.28M193.26 272.28L193.12 272.22M193.12 272.22L193.06 272.08"
fill="none" stroke="black" stroke-width="2"/>
<path d="M205.83 272.08L205.89 271.95M205.89 271.95L206.03 271.89M206.03 271.89L206.17 271.95M206.17 271.95L206.23 272.08M206.23 272.08L206.17 272.22M206.17 272.22L206.03 272.28M206.03 272.28L205.89 272.22M205.89 272.22L205.83 272.08"
fill="none" stroke="black" stroke-width="2"/>
<path d="M133.83 286.36L133.89 286.22M133.89 286.22L134.03 286.16M134.03 286.16L134.17 286.22M134.17 286.22L134.22 286.36M134.22 286.36L134.17 286.5M134.17 286.5L134.03 286.56M134.03 286.56L133.89 286.5M133.89 286.5L133.83 286.36"
fill="none" stroke="black" stroke-width="2"/>
<path d="M145.86 286.36L145.91 286.22M145.91 286.22L146.05 286.16M146.05 286.16L146.19 286.22M146.19 286.22L146.25 286.36M146.25 286.36L146.19 286.5M146.19 286.5L146.05 286.56M146.05 286.56L145.91 286.5M145.91 286.5L145.86 286.36"
fill="none" stroke="black" stroke-width="2"/>
<path d="M159.22 286.36L159.27 286.22M159.27 286.22L159.41 286.16M159.41 286.16L159.55 286.22M159.55 286.22L159.61 286.36M159.61 286.36L159.55 286.5M159.55 286.5L159.41 286.56M159.41 286.56L159.27 286.5M159.27 286.5L159.22 286.36"
fill="none" stroke="black" stroke-width="2"/>
<path d="M169.91 286.36L169.96 286.22M169.96 286.22L170.1 286.16M170.1 286.16L170.24 286.22M170.24 286.22L170.3 286.36M170.3 286.36L170.24 286.5M170.24 286.5L170.1 286.56M170.1 286.56L169.96 286.5M169.96 286.5L169.91 286.36"
fill="none" stroke="black" stroke-width="2"/>
<path d="M180.59 286.36L180.65 286.22M180.65 286.22L180.79 286.16M180.79 286.16L180.93 286.22M180.93 286.22L180.99 286.36M180.99 286.36L180.93 286.5M180.93 286.5L180.79 286.56M180.79 286.56L180.65 286.5M180.65 286.5L180.59 286.36"
fill="none" stroke="black" stroke-width="2"/>
<path d="M193.06 286.36L193.12 286.22M193.12 286.22L193.26 286.16M193.26 286.16L193.4 286.22M193.4 286.22L193.46 286.36M193.46 286.36L193.4 286.5M193.4 286.5L193.26 286.56M193.26 286.56L193.12 286.5M193.12 286.5L193.06 286.36"
fill="none" stroke="black" stroke-width="2"/>
<path d="M205.83 286.36L205.89 286.22M205.89 286.22L206.03 286.16M206.03 286.16L206.17 286.22M206.17 286.22L206.23 286.36M206.23 286.36L206.17 286.5M206.17 286.5L206.03 286.56M206.03 286.56L205.89 286.5M205.89 286.5L205.83 286.36"
fill="none" stroke="black" stroke-width="2"/>
<path d="M133.83 300.36L133.89 300.22M133.89 300.22L134.03 300.16M134.03 300.16L134.17 300.22M134.17 300.22L134.22 300.36M134.22 300.36L134.17 300.5M134.17 300.5L134.03 300.55M134.03 300.55L133.89 300.5M133.89 300.5L133.83 300.36"
fill="none" stroke="black" stroke-width="2"/>
<path d="M145.86 300.36L145.91 300.22M145.91 300.22L146.05 300.16M146.05 300.16L146.19 300.22M146.19 300.22L146.25 300.36M146.25 300.36L146.19 300.5M146.19 300.5L146.05 300.55M146.05 300.55L145.91 300.5M145.91 300.5L145.86 300.36"
fill="none" stroke="black" stroke-width="2"/>
<path d="M159.22 300.36L159.27 300.22M159.27 300.22L159.41 300.16M159.41 300.16L159.55 300.22M159.55 300.22L159.61 300.36M159.61 300.36L159.55 300.5M159.55 300.5L159.41 300.55M159.41 300.55L159.27 300.5M159.27 300.5L159.22 300.36"
fill="none" stroke="black" stroke-width="2"/>
<path d="M169.91 300.36L169.96 300.22M169.96 300.22L170.1 300.16M170.1 300.16L170.24 300.22M170.24 300.22L170.3 300.36M170.3 300.36L170.24 300.5M170.24 300.5L170.1 300.55M170.1 300.55L169.96 300.5M169.96 300.5L169.91 300.36"
fill="none" stroke="black" stroke-width="2"/>
<path d="M180.59 300.36L180.65 300.22M180.65 300.22L180.79 300.16M180.79 300.16L180.93 300.22M180.93 300.22L180.99 300.36M180.99 300.36L180.93 300.5M180.93 300.5L180.79 300.55M180.79 300.55L180.65 300.5M180.65 300.5L180.59 300.36"
fill="none" stroke="black" stroke-width="2"/>
<path d="M193.06 300.36L193.12 300.22M193.12 300.22L193.26 300.16M193.26 300.16L193.4 300.22M193.4 300.22L193.46 300.36M193.46 300.36L193.4 300.5M193.4 300.5L193.26 300.55M193.26 300.55L193.12 300.5M193.12 300.5L193.06 300.36"
fill="none" stroke="black" stroke-width="2"/>
<path d="M205.83 300.36L205.89 300.22M205.89 300.22L206.03 300.16M206.03 300.16L206.17 300.22M206.17 300.22L206.23 300.36M206.23 300.36L206.17 300.5M206.17 300.5L206.03 300.55M206.03 300.55L205.89 300.5M205.89 300.5L205.83 300.36"
fill="none" stroke="black" stroke-width="2"/>
<path d="M139.84 192.34L139.84 159.88"
fill="none" stroke="black" stroke-width="2"/>
<path d="M201.3 192.63L201.3 160.92"
fill="none" stroke="black" stroke-width="2"/>
<path d="M239.62 191L323.36 191"
fill="none" stroke="black" stroke-width="2"/>
<path d="M239.62 197.54L323.36 197.54"
fill="none" stroke="black" stroke-width="2"/>
<path d="M239.62 191L239.14 191.2M239.14 191.2L238.72 191.77M238.72 191.77L238.41 192.64M238.41 192.64L238.25 193.71M238.25 193.71L238.25 194.84M238.25 194.84L238.41 195.91M238.41 195.91L238.72 196.78M238.72 196.78L239.14 197.35M239.14 197.35L239.62 197.54M239.62 197.54L240.1 197.35M240.1 197.35L240.52 196.78M240.52 196.78L240.83 195.91M240.83 195.91L240.99 194.84M240.99 194.84L240.99 193.71M240.99 193.71L240.83 192.64M240.83 192.64L240.52 191.77M240.52 191.77L240.1 191.2M240.1 191.2L239.62 191"
fill="none" stroke="black" stroke-width="2"/>
<path d="M323.36 197.54L323.84 197.35M323.84 197.35L324.26 196.78M324.26 196.78L324.57 195.91M324.57 195.91L324.73 194.84M324.73 194.84L324.73 193.71M324.73 193.71L324.57 192.64M324.57 192.64L324.26 191.77M324.26 191.77L323.84 191.2M323.84 191.2L323.36 191"
fill="none" stroke="black" stroke-width="2"/>
<path d="M245.17 197.54L245.17 302.33"
fill="none" stroke="black" stroke-width="2"/>
<path d="M317.17 197.54L317.17 302.33"
fill="none" stroke="black" stroke-width="2"/>
<path d="M281.25 197.54L281.25 302.33"
fill="none" stroke="black" stroke-width="2"/>
<path d="M270.56 197.54L270.56 302.33"
fill="none" stroke="black" stroke-width="2"/>
<path d="M257.2 197.54L257.2 302.33"
fill="none" stroke="black" stroke-width="2"/>
<path d="M291.93 197.54L291.93 302.33"
fill="none" stroke="black" stroke-width="2"/>
<path d="M304.4 197.54L304.4 302.33"
fill="none" stroke="black" stroke-width="2"/>
<path d="M243.31 300.36L319.56 300.36"
fill="none" stroke="black" stroke-width="2"/>
<path d="M243.31 286.36L319.56 286.36"
fill="none" stroke="black" stroke-width="2"/>
<path d="M243.31 272.08L319.56 272.08"
fill="none" stroke="black" stroke-width="2"/>
<path d="M243.31 258.93L319.56 258.93"
fill="none" stroke="black" stroke-width="2"/>
<path d="M243.31 244.65L319.56 244.65"
fill="none" stroke="black" stroke-width="2"/>
<path d="M243.31 230.66L319.56 230.66"
fill="none" stroke="black" stroke-width="2"/>
<path d="M243.18 216.29L319.56 216.29"
fill="none" stroke="black" stroke-width="2"/>
<path d="M243.31 201.26L319.56 201.26"
fill="none" stroke="black" stroke-width="2"/>
<path d="M244.97 201.26L245.03 201.12M245.03 201.12L245.17 201.07M245.17 201.07L245.31 201.12M245.31 201.12L245.37 201.26M245.37 201.26L245.31 201.4M245.31 201.4L245.17 201.46M245.17 201.46L245.03 201.4M245.03 201.4L244.97 201.26"
fill="none" stroke="black" stroke-width="2"/>
<path d="M257 201.26L257.06 201.12M257.06 201.12L257.2 201.07M257.2 201.07L257.34 201.12M257.34 201.12L257.39 201.26M257.39 201.26L257.34 201.4M257.34 201.4L257.2 201.46M257.2 201.46L257.06 201.4M257.06 201.4L257 201.26"
fill="none" stroke="black" stroke-width="2"/>
<path d="M270.36 201.26L270.42 201.12M270.42 201.12L270.56 201.07M270.56 201.07L270.7 201.12M270.7 201.12L270.75 201.26M270.75 201.26L270.7 201.4M270.7 201.4L270.56 201.46M270.56 201.46L270.42 201.4M270.42 201.4L270.36 201.26"
fill="none" stroke="black" stroke-width="2"/>
<path d="M281.05 201.26L281.11 201.12M281.11 201.12L281.25 201.07M281.25 201.07L281.38 201.12M281.38 201.12L281.44 201.26M281.44 201.26L281.38 201.4M281.38 201.4L281.25 201.46M281.25 201.46L281.11 201.4M281.11 201.4L281.05 201.26"
fill="none" stroke="black" stroke-width="2"/>
<path d="M291.74 201.26L291.8 201.12M291.8 201.12L291.93 201.07M291.93 201.07L292.07 201.12M292.07 201.12L292.13 201.26M292.13 201.26L292.07 201.4M292.07 201.4L291.93 201.46M291.93 201.46L291.8 201.4M291.8 201.4L291.74 201.26"
fill="none" stroke="black" stroke-width="2"/>
<path d="M304.21 201.26L304.27 201.12M304.27 201.12L304.4 201.07M304.4 201.07L304.54 201.12M304.54 201.12L304.6 201.26M304.6 201.26L304.54 201.4M304.54 201.4L304.4 201.46M304.4 201.46L304.27 201.4M304.27 201.4L304.21 201.26"
fill="none" stroke="black" stroke-width="2"/>
<path d="M316.98 201.26L317.04 201.12M317.04 201.12L317.17 201.07M317.17 201.07L317.31 201.12M317.31 201.12L317.37 201.26M317.37 201.26L317.31 201.4M317.31 201.4L317.17 201.46M317.17 201.46L317.04 201.4M317.04 201.4L316.98 201.26"
fill="none" stroke="black" stroke-width="2"/>
<path d="M244.97 216.29L245.03 216.15M245.03 216.15L245.17 216.1M245.17 216.1L245.31 216.15M245.31 216.15L245.37 216.29M245.37 216.29L245.31 216.43M245.31 216.43L245.17 216.49M245.17 216.49L245.03 216.43M245.03 216.43L244.97 216.29"
fill="none" stroke="black" stroke-width="2"/>
<path d="M257 216.29L257.06 216.15M257.06 216.15L257.2 216.1M257.2 216.1L257.34 216.15M257.34 216.15L257.39 216.29M257.39 216.29L257.34 216.43M257.34 216.43L257.2 216.49M257.2 216.49L257.06 216.43M257.06 216.43L257 216.29"
fill="none" stroke="black" stroke-width="2"/>
<path d="M270.36 216.29L270.42 216.15M270.42 216.15L270.56 216.1M270.56 216.1L270.7 216.15M270.7 216.15L270.75 216.29M270.75 216.29L270.7 216.43M270.7 216.43L270.56 216.49M270.56 216.49L270.42 216.43M270.42 216.43L270.36 216.29"
fill="none" stroke="black" stroke-width="2"/>
<path d="M281.05 216.29L281.11 216.15M281.11 216.15L281.25 216.1M281.25 216.1L281.38 216.15M281.38 216.15L281.44 216.29M281.44 216.29L281.38 216.43M281.38 216.43L281.25 216.49M281.25 216.49L281.11 216.43M281.11 216.43L281.05 216.29"
fill="none" stroke="black" stroke-width="2"/>
<path d="M291.74 216.29L291.8 216.15M291.8 216.15L291.93 216.1M291.93 216.1L292.07 216.15M292.07 216.15L292.13 216.29M292.13 216.29L292.07 216.43M292.07 216.43L291.93 216.49M291.93 216.49L291.8 216.43M291.8 216.43L291.74 216.29"
fill="none" stroke="black" stroke-width="2"/>
<path d="M304.21 216.29L304.27 216.15M304.27 216.15L304.4 216.1M304.4 216.1L304.54 216.15M304.54 216.15L304.6 216.29M304.6 216.29L304.54 216.43M304.54 216.43L304.4 216.49M304.4 216.49L304.27 216.43M304.27 216.43L304.21 216.29"
fill="none" stroke="black" stroke-width="2"/>
<path d="M316.98 216.29L317.04 216.15M317.04 216.15L317.17 216.1M317.17 216.1L317.31 216.15M317.31 216.15L317.37 216.29M317.37 216.29L317.31 216.43M317.31 216.43L317.17 216.49M317.17 216.49L317.04 216.43M317.04 216.43L316.98 216.29"
fill="none" stroke="black" stroke-width="2"/>
<path d="M244.97 230.66L245.03 230.52M245.03 230.52L245.17 230.46M245.17 230.46L245.31 230.52M245.31 230.52L245.37 230.66M245.37 230.66L245.31 230.8M245.31 230.8L245.17 230.85M245.17 230.85L245.03 230.8M245.03 230.8L244.97 230.66"
fill="none" stroke="black" stroke-width="2"/>
<path d="M257 230.66L257.06 230.52M257.06 230.52L257.2 230.46M257.2 230.46L257.34 230.52M257.34 230.52L257.39 230.66M257.39 230.66L257.34 230.8M257.34 230.8L257.2 230.85M257.2 230.85L257.06 230.8M257.06 230.8L257 230.66"
fill="none" stroke="black" stroke-width="2"/>
<path d="M270.36 230.66L270.42 230.52M270.42 230.52L270.56 230.46M270.56 230.46L270.7 230.52M270.7 230.52L270.75 230.66M270.75 230.66L270.7 230.8M270.7 230.8L270.56 230.85M270.56 230.85L270.42 230.8M270.42 230.8L270.36 230.66"
fill="none" stroke="black" stroke-width="2"/>
<path d="M281.05 230.66L281.11 230.52M281.11 230.52L281.25 230.46M281.25 230.46L281.38 230.52M281.38 230.52L281.44 230.66M281.44 230.66L281.38 230.8M281.38 230.8L281.25 230.85M281.25 230.85L281.11 230.8M281.11 230.8L281.05 230.66"
fill="none" stroke="black" stroke-width="2"/>
<path d="M291.74 230.66L291.8 230.52M291.8 230.52L291.93 230.46M291.93 230.46L292.07 230.52M292.07 230.52L292.13 230.66M292.13 230.66L292.07 230.8M292.07 230.8L291.93 230.85M291.93 230.85L291.8 230.8M291.8 230.8L291.74 230.66"
fill="none" stroke="black" stroke-width="2"/>
<path d="M304.21 230.66L304.27 230.52M304.27 230.52L304.4 230.46M304.4 230.46L304.54 230.52M304.54 230.52L304.6 230.66M304.6 230.66L304.54 230.8M304.54 230.8L304.4 230.85M304.4 230.85L304.27 230.8M304.27 230.8L304.21 230.66"
fill="none" stroke="black" stroke-width="2"/>
<path d="M316.98 230.66L317.04 230.52M317.04 230.52L317.17 230.46M317.17 230.46L317.31 230.52M317.31 230.52L317.37 230.66M317.37 230.66L317.31 230.8M317.31 230.8L317.17 230.85M317.17 230.85L317.04 230.8M317.04 230.8L316.98 230.66"
fill="none" stroke="black" stroke-width="2"/>
<path d="M244.97 244.65L245.03 244.51M245.03 244.51L245.17 244.46M245.17 244.46L245.31 244.51M245.31 244.51L245.37 244.65M245.37 244.65L245.31 244.79M245.31 244.79L245.17 244.85M245.17 244.85L245.03 244.79M245.03 244.79L244.97 244.65"
fill="none" stroke="black" stroke-width="2"/>
<path d="M257 244.65L257.06 244.51M257.06 244.51L257.2 244.46M257.2 244.46L257.34 244.51M257.34 244.51L257.39 244.65M257.39 244.65L257.34 244.79M257.34 244.79L257.2 244.85M257.2 244.85L257.06 244.79M257.06 244.79L257 244.65"
fill="none" stroke="black" stroke-width="2"/>
<path d="M270.36 244.65L270.42 244.51M270.42 244.51L270.56 244.46M270.56 244.46L270.7 244.51M270.7 244.51L270.75 244.65M270.75 244.65L270.7 244.79M270.7 244.79L270.56 244.85M270.56 244.85L270.42 244.79M270.42 244.79L270.36 244.65"
fill="none" stroke="black" stroke-width="2"/>
<path d="M281.05 244.65L281.11 244.51M281.11 244.51L281.25 244.46M281.25 244.46L281.38 244.51M281.38 244.51L281.44 244.65M281.44 244.65L281.38 244.79M281.38 244.79L281.25 244.85M281.25 244.85L281.11 244.79M281.11 244.79L281.05 244.65"
fill="none" stroke="black" stroke-width="2"/>
<path d="M291.74 244.65L291.8 244.51M291.8 244.51L291.93 244.46M291.93 244.46L292.07 244.51M292.07 244.51L292.13 244.65M292.13 244.65L292.07 244.79M292.07 244.79L291.93 244.85M291.93 244.85L291.8 244.79M291.8 244.79L291.74 244.65"
fill="none" stroke="black" stroke-width="2"/>
<path d="M304.21 244.65L304.27 244.51M304.27 244.51L304.4 244.46M304.4 244.46L304.54 244.51M304.54 244.51L304.6 244.65M304.6 244.65L304.54 244.79M304.54 244.79L304.4 244.85M304.4 244.85L304.27 244.79M304.27 244.79L304.21 244.65"
fill="none" stroke="black" stroke-width="2"/>
<path d="M316.98 244.65L317.04 244.51M317.04 244.51L317.17 244.46M317.17 244.46L317.31 244.51M317.31 244.51L317.37 244.65M317.37 244.65L317.31 244.79M317.31 244.79L317.17 244.85M317.17 244.85L317.04 244.79M317.04 244.79L316.98 244.65"
fill="none" stroke="black" stroke-width="2"/>
<path d="M244.97 258.93L245.03 258.79M245.03 258.79L245.17 258.73M245.17 258.73L245.31 258.79M245.31 258.79L245.37 258.93M245.37 258.93L245.31 259.07M245.31 259.07L245.17 259.13M245.17 259.13L245.03 259.07M245.03 259.07L244.97 258.93"
fill="none" stroke="black" stroke-width="2"/>
<path d="M257 258.93L257.06 258.79M257.06 258.79L257.2 258.73M257.2 258.73L257.34 258.79M257.34 258.79L257.39 258.93M257.39 258.93L257.34 259.07M257.34 259.07L257.2 259.13M257.2 259.13L257.06 259.07M257.06 259.07L257 258.93"
fill="none" stroke="black" stroke-width="2"/>
<path d="M270.36 258.93L270.42 258.79M270.42 258.79L270.56 258.73M270.56 258.73L270.7 258.79M270.7 258.79L270.75 258.93M270.75 258.93L270.7 259.07M270.7 259.07L270.56 259.13M270.56 259.13L270.42 259.07M270.42 259.07L270.36 258.93"
fill="none" stroke="black" stroke-width="2"/>
<path d="M281.05 258.93L281.11 258.79M281.11 258.79L281.25 258.73M281.25 258.73L281.38 258.79M281.38 258.79L281.44 258.93M281.44 258.93L281.38 259.07M281.38 259.07L281.25 259.13M281.25 259.13L281.11 259.07M281.11 259.07L281.05 258.93"
fill="none" stroke="black" stroke-width="2"/>
<path d="M291.74 258.93L291.8 258.79M291.8 258.79L291.93 258.73M291.93 258.73L292.07 258.79M292.07 258.79L292.13 258.93M292.13 258.93L292.07 259.07M292.07 259.07L291.93 259.13M291.93 259.13L291.8 259.07M291.8 259.07L291.74 258.93"
fill="none" stroke="black" stroke-width="2"/>
<path d="M304.21 258.93L304.27 258.79M304.27 258.79L304.4 258.73M304.4 258.73L304.54 258.79M304.54 258.79L304.6 258.93M304.6 258.93L304.54 259.07M304.54 259.07L304.4 259.13M304.4 259.13L304.27 259.07M304.27 259.07L304.21 258.93"
fill="none" stroke="black" stroke-width="2"/>
<path d="M316.98 258.93L317.04 258.79M317.04 258.79L317.17 258.73M317.17 258.73L317.31 258.79M317.31 258.79L317.37 258.93M317.37 258.93L317.31 259.07M317.31 259.07L317.17 259.13M317.17 259.13L317.04 259.07M317.04 259.07L316.98 258.93"
fill="none" stroke="black" stroke-width="2"/>
<path d="M244.97 272.08L245.03 271.95M245.03 271.95L245.17 271.89M245.17 271.89L245.31 271.95M245.31 271.95L245.37 272.08M245.37 272.08L245.31 272.22M245.31 272.22L245.17 272.28M245.17 272.28L245.03 272.22M245.03 272.22L244.97 272.08"
fill="none" stroke="black" stroke-width="2"/>
<path d="M257 272.08L257.06 271.95M257.06 271.95L257.2 271.89M257.2 271.89L257.34 271.95M257.34 271.95L257.39 272.08M257.39 272.08L257.34 272.22M257.34 272.22L257.2 272.28M257.2 272.28L257.06 272.22M257.06 272.22L257 272.08"
fill="none" stroke="black" stroke-width="2"/>
<path d="M270.36 272.08L270.42 271.95M270.42 271.95L270.56 271.89M270.56 271.89L270.7 271.95M270.7 271.95L270.75 272.08M270.75 272.08L270.7 272.22M270.7 272.22L270.56 272.28M270.56 272.28L270.42 272.22M270.42 272.22L270.36 272.08"
fill="none" stroke="black" stroke-width="2"/>
<path d="M281.05 272.08L281.11 271.95M281.11 271.95L281.25 271.89M281.25 271.89L281.38 271.95M281.38 271.95L281.44 272.08M281.44 272.08L281.38 272.22M281.38 272.22L281.25 272.28M281.25 272.28L281.11 272.22M281.11 272.22L281.05 272.08"
fill="none" stroke="black" stroke-width="2"/>
<path d="M291.74 272.08L291.8 271.95M291.8 271.95L291.93 271.89M291.93 271.89L292.07 271.95M292.07 271.95L292.13 272.08M292.13 272.08L292.07 272.22M292.07 272.22L291.93 272.28M291.93 272.28L291.8 272.22M291.8 272.22L291.74 272.08"
fill="none" stroke="black" stroke-width="2"/>
<path d="M304.21 272.08L304.27 271.95M304.27 271.95L304.4 271.89M304.4 271.89L304.54 271.95M304.54 271.95L304.6 272.08M304.6 272.08L304.54 272.22M304.54 272.22L304.4 272.28M304.4 272.28L304.27 272.22M304.27 272.22L304.21 272.08"
fill="none" stroke="black" stroke-width="2"/>
<path d="M316.98 272.08L317.04 271.95M317.04 271.95L317.17 271.89M317.17 271.89L317.31 271.95M317.31 271.95L317.37 272.08M317.37 272.08L317.31 272.22M317.31 272.22L317.17 272.28M317.17 272.28L317.04 272.22M317.04 272.22L316.98 272.08"
fill="none" stroke="black" stroke-width="2"/>
<path d="M244.97 286.36L245.03 286.22M245.03 286.22L245.17 286.16M245.17 286.16L245.31 286.22M245.31 286.22L245.37 286.36M245.37 286.36L245.31 286.5M245.31 286.5L245.17 286.56M245.17 286.56L245.03 286.5M245.03 286.5L244.97 286.36"
fill="none" stroke="black" stroke-width="2"/>
<path d="M257 286.36L257.06 286.22M257.06 286.22L257.2 286.16M257.2 286.16L257.34 286.22M257.34 286.22L257.39 286.36M257.39 286.36L257.34 286.5M257.34 286.5L257.2 286.56M257.2 286.56L257.06 286.5M257.06 286.5L257 286.36"
fill="none" stroke="black" stroke-width="2"/>
<path d="M270.36 286.36L270.42 286.22M270.42 286.22L270.56 286.16M270.56 286.16L270.7 286.22M270.7 286.22L270.75 286.36M270.75 286.36L270.7 286.5M270.7 286.5L270.56 286.56M270.56 286.56L270.42 286.5M270.42 286.5L270.36 286.36"
fill="none" stroke="black" stroke-width="2"/>
<path d="M281.05 286.36L281.11 286.22M281.11 286.22L281.25 286.16M281.25 286.16L281.38 286.22M281.38 286.22L281.44 286.36M281.44 286.36L281.38 286.5M281.38 286.5L281.25 286.56M281.25 286.56L281.11 286.5M281.11 286.5L281.05 286.36"
fill="none" stroke="black" stroke-width="2"/>
<path d="M291.74 286.36L291.8 286.22M291.8 286.22L291.93 286.16M291.93 286.16L292.07 286.22M292.07 286.22L292.13 286.36M292.13 286.36L292.07 286.5M292.07 286.5L291.93 286.56M291.93 286.56L291.8 286.5M291.8 286.5L291.74 286.36"
fill="none" stroke="black" stroke-width="2"/>
<path d="M304.21 286.36L304.27 286.22M304.27 286.22L304.4 286.16M304.4 286.16L304.54 286.22M304.54 286.22L304.6 286.36M304.6 286.36L304.54 286.5M304.54 286.5L304.4 286.56M304.4 286.56L304.27 286.5M304.27 286.5L304.21 286.36"
fill="none" stroke="black" stroke-width="2"/>
<path d="M316.98 286.36L317.04 286.22M317.04 286.22L317.17 286.16M317.17 286.16L317.31 286.22M317.31 286.22L317.37 286.36M317.37 286.36L317.31 286.5M317.31 286.5L317.17 286.56M317.17 286.56L317.04 286.5M317.04 286.5L316.98 286.36"
fill="none" stroke="black" stroke-width="2"/>
<path d="M244.97 300.36L245.03 300.22M245.03 300.22L245.17 300.16M245.17 300.16L245.31 300.22M245.31 300.22L245.37 300.36M245.37 300.36L245.31 300.5M245.31 300.5L245.17 300.55M245.17 300.55L245.03 300.5M245.03 300.5L244.97 300.36"
fill="none" stroke="black" stroke-width="2"/>
<path d="M257 300.36L257.06 300.22M257.06 300.22L257.2 300.16M257.2 300.16L257.34 300.22M257.34 300.22L257.39 300.36M257.39 300.36L257.34 300.5M257.34 300.5L257.2 300.55M257.2 300.55L257.06 300.5M257.06 300.5L257 300.36"
fill="none" stroke="black" stroke-width="2"/>
<path d="M270.36 300.36L270.42 300.22M270.42 300.22L270.56 300.16M270.56 300.16L270.7 300.22M270.7 300.22L270.75 300.36M270.75 300.36L270.7 300.5M270.7 300.5L270.56 300.55M270.56 300.55L270.42 300.5M270.42 300.5L270.36 300.36"
fill="none" stroke="black" stroke-width="2"/>
<path d="M281.05 300.36L281.11 300.22M281.11 300.22L281.25 300.16M281.25 300.16L281.38 300.22M281.38 300.22L281.44 300.36M281.44 300.36L281.38 300.5M281.38 300.5L281.25 300.55M281.25 300.55L281.11 300.5M281.11 300.5L281.05 300.36"
fill="none" stroke="black" stroke-width="2"/>
<path d="M291.74 300.36L291.8 300.22M291.8 300.22L291.93 300.16M291.93 300.16L292.07 300.22M292.07 300.22L292.13 300.36M292.13 300.36L292.07 300.5M292.07 300.5L291.93 300.55M291.93 300.55L291.8 300.5M291.8 300.5L291.74 300.36"
fill="none" stroke="black" stroke-width="2"/>
<path d="M304.21 300.36L304.27 300.22M304.27 300.22L304.4 300.16M304.4 300.16L304.54 300.22M304.54 300.22L304.6 300.36M304.6 300.36L304.54 300.5M304.54 300.5L304.4 300.55M304.4 300.55L304.27 300.5M304.27 300.5L304.21 300.36"
fill="none" stroke="black" stroke-width="2"/>
<path d="M316.98 300.36L317.04 300.22M317.04 300.22L317.17 300.16M317.17 300.16L317.31 300.22M317.31 300.22L317.37 300.36M317.37 300.36L317.31 300.5M317.31 300.5L317.17 300.55M317.17 300.55L317.04 300.5M317.04 300.5L316.98 300.36"
fill="none" stroke="black" stroke-width="2"/>
<path d="M250.99 192.34L250.99 161.57"
fill="none" stroke="black" stroke-width="2"/>
<path d="M312.44 192.63L312.44 162.12"
fill="none" stroke="black" stroke-width="2"/>
<path d="M350.76 191L434.5 191"
fill="none" stroke="black" stroke-width="2"/>
<path d="M350.76 197.54L434.5 197.54"
fill="none" stroke="black" stroke-width="2"/>
<path d="M350.76 191L350.29 191.2M350.29 191.2L349.87 191.77M349.87 191.77L349.56 192.64M349.56 192.64L349.39 193.71M349.39 193.71L349.39 194.84M349.39 194.84L349.56 195.91M349.56 195.91L349.87 196.78M349.87 196.78L350.29 197.35M350.29 197.35L350.76 197.54M350.76 197.54L351.24 197.35M351.24 197.35L351.66 196.78M351.66 196.78L351.97 195.91M351.97 195.91L352.14 194.84M352.14 194.84L352.14 193.71M352.14 193.71L351.97 192.64M351.97 192.64L351.66 191.77M351.66 191.77L351.24 191.2M351.24 191.2L350.76 191"
fill="none" stroke="black" stroke-width="2"/>
<path d="M434.5 197.54L434.98 197.35M434.98 197.35L435.4 196.78M435.4 196.78L435.71 195.91M435.71 195.91L435.88 194.84M435.88 194.84L435.88 193.71M435.88 193.71L435.71 192.64M435.71 192.64L435.4 191.77M435.4 191.77L434.98 191.2M434.98 191.2L434.5 191"
fill="none" stroke="black" stroke-width="2"/>
<path d="M356.31 197.54L356.31 302.33"
fill="none" stroke="black" stroke-width="2"/>
<path d="M428.32 197.54L428.32 302.33"
fill="none" stroke="black" stroke-width="2"/>
<path d="M392.39 197.54L392.39 302.33"
fill="none" stroke="black" stroke-width="2"/>
<path d="M381.7 197.54L381.7 302.33"
fill="none" stroke="black" stroke-width="2"/>
<path d="M368.34 197.54L368.34 302.33"
fill="none" stroke="black" stroke-width="2"/>
<path d="M403.08 197.54L403.08 302.33"
fill="none" stroke="black" stroke-width="2"/>
<path d="M415.55 197.54L415.55 302.33"
fill="none" stroke="black" stroke-width="2"/>
<path d="M354.45 300.36L430.71 300.36"
fill="none" stroke="black" stroke-width="2"/>
<path d="M354.45 286.36L430.71 286.36"
fill="none" stroke="black" stroke-width="2"/>
<path d="M354.45 272.08L430.71 272.08"
fill="none" stroke="black" stroke-width="2"/>
<path d="M354.45 258.93L430.71 258.93"
fill="none" stroke="black" stroke-width="2"/>
<path d="M354.45 244.65L430.71 244.65"
fill="none" stroke="black" stroke-width="2"/>
<path d="M354.45 230.66L430.71 230.66"
fill="none" stroke="black" stroke-width="2"/>
<path d="M354.32 216.29L430.71 216.29"
fill="none" stroke="black" stroke-width="2"/>
<path d="M354.45 201.26L430.71 201.26"
fill="none" stroke="black" stroke-width="2"/>
<path d="M356.12 201.26L356.18 201.12M356.18 201.12L356.31 201.07M356.31 201.07L356.45 201.12M356.45 201.12L356.51 201.26M356.51 201.26L356.45 201.4M356.45 201.4L356.31 201.46M356.31 201.46L356.18 201.4M356.18 201.4L356.12 201.26"
fill="none" stroke="black" stroke-width="2"/>
<path d="M368.14 201.26L368.2 201.12M368.2 201.12L368.34 201.07M368.34 201.07L368.48 201.12M368.48 201.12L368.54 201.26M368.54 201.26L368.48 201.4M368.48 201.4L368.34 201.46M368.34 201.46L368.2 201.4M368.2 201.4L368.14 201.26"
fill="none" stroke="black" stroke-width="2"/>
<path d="M381.5 201.26L381.56 201.12M381.56 201.12L381.7 201.07M381.7 201.07L381.84 201.12M381.84 201.12L381.9 201.26M381.9 201.26L381.84 201.4M381.84 201.4L381.7 201.46M381.7 201.46L381.56 201.4M381.56 201.4L381.5 201.26"
fill="none" stroke="black" stroke-width="2"/>
<path d="M392.19 201.26L392.25 201.12M392.25 201.12L392.39 201.07M392.39 201.07L392.53 201.12M392.53 201.12L392.59 201.26M392.59 201.26L392.53 201.4M392.53 201.4L392.39 201.46M392.39 201.46L392.25 201.4M392.25 201.4L392.19 201.26"
fill="none" stroke="black" stroke-width="2"/>
<path d="M402.88 201.26L402.94 201.12M402.94 201.12L403.08 201.07M403.08 201.07L403.22 201.12M403.22 201.12L403.27 201.26M403.27 201.26L403.22 201.4M403.22 201.4L403.08 201.46M403.08 201.46L402.94 201.4M402.94 201.4L402.88 201.26"
fill="none" stroke="black" stroke-width="2"/>
<path d="M415.35 201.26L415.41 201.12M415.41 201.12L415.55 201.07M415.55 201.07L415.69 201.12M415.69 201.12L415.74 201.26M415.74 201.26L415.69 201.4M415.69 201.4L415.55 201.46M415.55 201.46L415.41 201.4M415.41 201.4L415.35 201.26"
fill="none" stroke="black" stroke-width="2"/>
<path d="M428.12 201.26L428.18 201.12M428.18 201.12L428.32 201.07M428.32 201.07L428.46 201.12M428.46 201.12L428.51 201.26M428.51 201.26L428.46 201.4M428.46 201.4L428.32 201.46M428.32 201.46L428.18 201.4M428.18 201.4L428.12 201.26"
fill="none" stroke="black" stroke-width="2"/>
<path d="M356.12 216.29L356.18 216.15M356.18 216.15L356.31 216.1M356.31 216.1L356.45 216.15M356.45 216.15L356.51 216.29M356.51 216.29L356.45 216.43M356.45 216.43L356.31 216.49M356.31 216.49L356.18 216.43M356.18 216.43L356.12 216.29"
fill="none" stroke="black" stroke-width="2"/>
<path d="M368.14 216.29L368.2 216.15M368.2 216.15L368.34 216.1M368.34 216.1L368.48 216.15M368.48 216.15L368.54 216.29M368.54 216.29L368.48 216.43M368.48 216.43L368.34 216.49M368.34 216.49L368.2 216.43M368.2 216.43L368.14 216.29"
fill="none" stroke="black" stroke-width="2"/>
<path d="M381.5 216.29L381.56 216.15M381.56 216.15L381.7 216.1M381.7 216.1L381.84 216.15M381.84 216.15L381.9 216.29M381.9 216.29L381.84 216.43M381.84 216.43L381.7 216.49M381.7 216.49L381.56 216.43M381.56 216.43L381.5 216.29"
fill="none" stroke="black" stroke-width="2"/>
<path d="M392.19 216.29L392.25 216.15M392.25 216.15L392.39 216.1M392.39 216.1L392.53 216.15M392.53 216.15L392.59 216.29M392.59 216.29L392.53 216.43M392.53 216.43L392.39 216.49M392.39 216.49L392.25 216.43M392.25 216.43L392.19 216.29"
fill="none" stroke="black" stroke-width="2"/>
<path d="M402.88 216.29L402.94 216.15M402.94 216.15L403.08 216.1M403.08 216.1L403.22 216.15M403.22 216.15L403.27 216.29M403.27 216.29L403.22 216.43M403.22 216.43L403.08 216.49M403.08 216.49L402.94 216.43M402.94 216.43L402.88 216.29"
fill="none" stroke="black" stroke-width="2"/>
<path d="M415.35 216.29L415.41 216.15M415.41 216.15L415.55 216.1M415.55 216.1L415.69 216.15M415.69 216.15L415.74 216.29M415.74 216.29L415.69 216.43M415.69 216.43L415.55 216.49M415.55 216.49L415.41 216.43M415.41 216.43L415.35 216.29"
fill="none" stroke="black" stroke-width="2"/>
<path d="M428.12 216.29L428.18 216.15M428.18 216.15L428.32 216.1M428.32 216.1L428.46 216.15M428.46 216.15L428.51 216.29M428.51 216.29L428.46 216.43M428.46 216.43L428.32 216.49M428.32 216.49L428.18 216.43M428.18 216.43L428.12 216.29"
fill="none" stroke="black" stroke-width="2"/>
<path d="M356.12 230.66L356.18 230.52M356.18 230.52L356.31 230.46M356.31 230.46L356.45 230.52M356.45 230.52L356.51 230.66M356.51 230.66L356.45 230.8M356.45 230.8L356.31 230.85M356.31 230.85L356.18 230.8M356.18 230.8L356.12 230.66"
fill="none" stroke="black" stroke-width="2"/>
<path d="M368.14 230.66L368.2 230.52M368.2 230.52L368.34 230.46M368.34 230.46L368.48 230.52M368.48 230.52L368.54 230.66M368.54 230.66L368.48 230.8M368.48 230.8L368.34 230.85M368.34 230.85L368.2 230.8M368.2 230.8L368.14 230.66"
fill="none" stroke="black" stroke-width="2"/>
<path d="M381.5 230.66L381.56 230.52M381.56 230.52L381.7 230.46M381.7 230.46L381.84 230.52M381.84 230.52L381.9 230.66M381.9 230.66L381.84 230.8M381.84 230.8L381.7 230.85M381.7 230.85L381.56 230.8M381.56 230.8L381.5 230.66"
fill="none" stroke="black" stroke-width="2"/>
<path d="M392.19 230.66L392.25 230.52M392.25 230.52L392.39 230.46M392.39 230.46L392.53 230.52M392.53 230.52L392.59 230.66M392.59 230.66L392.53 230.8M392.53 230.8L392.39 230.85M392.39 230.85L392.25 230.8M392.25 230.8L392.19 230.66"
fill="none" stroke="black" stroke-width="2"/>
<path d="M402.88 230.66L402.94 230.52M402.94 230.52L403.08 230.46M403.08 230.46L403.22 230.52M403.22 230.52L403.27 230.66M403.27 230.66L403.22 230.8M403.22 230.8L403.08 230.85M403.08 230.85L402.94 230.8M402.94 230.8L402.88 230.66"
fill="none" stroke="black" stroke-width="2"/>
<path d="M415.35 230.66L415.41 230.52M415.41 230.52L415.55 230.46M415.55 230.46L415.69 230.52M415.69 230.52L415.74 230.66M415.74 230.66L415.69 230.8M415.69 230.8L415.55 230.85M415.55 230.85L415.41 230.8M415.41 230.8L415.35 230.66"
fill="none" stroke="black" stroke-width="2"/>
<path d="M428.12 230.66L428.18 230.52M428.18 230.52L428.32 230.46M428.32 230.46L428.46 230.52M428.46 230.52L428.51 230.66M428.51 230.66L428.46 230.8M428.46 230.8L428.32 230.85M428.32 230.85L428.18 230.8M428.18 230.8L428.12 230.66"
fill="none" stroke="black" stroke-width="2"/>
<path d="M356.12 244.65L356.18 244.51M356.18 244.51L356.31 244.46M356.31 244.46L356.45 244.51M356.45 244.51L356.51 244.65M356.51 244.65L356.45 244.79M356.45 244.79L356.31 244.85M356.31 244.85L356.18 244.79M356.18 244.79L356.12 244.65"
fill="none" stroke="black" stroke-width="2"/>
<path d="M368.14 244.65L368.2 244.51M368.2 244.51L368.34 244.46M368.34 244.46L368.48 244.51M368.48 244.51L368.54 244.65M368.54 244.65L368.48 244.79M368.48 244.79L368.34 244.85M368.34 244.85L368.2 244.79M368.2 244.79L368.14 244.65"
fill="none" stroke="black" stroke-width="2"/>
<path d="M381.5 244.65L381.56 244.51M381.56 244.51L381.7 244.46M381.7 244.46L381.84 244.51M381.84 244.51L381.9 244.65M381.9 244.65L381.84 244.79M381.84 244.79L381.7 244.85M381.7 244.85L381.56 244.79M381.56 244.79L381.5 244.65"
fill="none" stroke="black" stroke-width="2"/>
<path d="M392.19 244.65L392.25 244.51M392.25 244.51L392.39 244.46M392.39 244.46L392.53 244.51M392.53 244.51L392.59 244.65M392.59 244.65L392.53 244.79M392.53 244.79L392.39 244.85M392.39 244.85L392.25 244.79M392.25 244.79L392.19 244.65"
fill="none" stroke="black" stroke-width="2"/>
<path d="M402.88 244.65L402.94 244.51M402.94 244.51L403.08 244.46M403.08 244.46L403.22 244.51M403.22 244.51L403.27 244.65M403.27 244.65L403.22 244.79M403.22 244.79L403.08 244.85M403.08 244.85L402.94 244.79M402.94 244.79L402.88 244.65"
fill="none" stroke="black" stroke-width="2"/>
<path d="M415.35 244.65L415.41 244.51M415.41 244.51L415.55 244.46M415.55 244.46L415.69 244.51M415.69 244.51L415.74 244.65M415.74 244.65L415.69 244.79M415.69 244.79L415.55 244.85M415.55 244.85L415.41 244.79M415.41 244.79L415.35 244.65"
fill="none" stroke="black" stroke-width="2"/>
<path d="M428.12 244.65L428.18 244.51M428.18 244.51L428.32 244.46M428.32 244.46L428.46 244.51M428.46 244.51L428.51 244.65M428.51 244.65L428.46 244.79M428.46 244.79L428.32 244.85M428.32 244.85L428.18 244.79M428.18 244.79L428.12 244.65"
fill="none" stroke="black" stroke-width="2"/>
<path d="M356.12 258.93L356.18 258.79M356.18 258.79L356.31 258.73M356.31 258.73L356.45 258.79M356.45 258.79L356.51 258.93M356.51 258.93L356.45 259.07M356.45 259.07L356.31 259.13M356.31 259.13L356.18 259.07M356.18 259.07L356.12 258.93"
fill="none" stroke="black" stroke-width="2"/>
<path d="M368.14 258.93L368.2 258.79M368.2 258.79L368.34 258.73M368.34 258.73L368.48 258.79M368.48 258.79L368.54 258.93M368.54 258.93L368.48 259.07M368.48 259.07L368.34 259.13M368.34 259.13L368.2 259.07M368.2 259.07L368.14 258.93"
fill="none" stroke="black" stroke-width="2"/>
<path d="M381.5 258.93L381.56 258.79M381.56 258.79L381.7 258.73M381.7 258.73L381.84 258.79M381.84 258.79L381.9 258.93M381.9 258.93L381.84 259.07M381.84 259.07L381.7 259.13M381.7 259.13L381.56 259.07M381.56 259.07L381.5 258.93"
fill="none" stroke="black" stroke-width="2"/>
<path d="M392.19 258.93L392.25 258.79M392.25 258.79L392.39 258.73M392.39 258.73L392.53 258.79M392.53 258.79L392.59 258.93M392.59 258.93L392.53 259.07M392.53 259.07L392.39 259.13M392.39 259.13L392.25 259.07M392.25 259.07L392.19 258.93"
fill="none" stroke="black" stroke-width="2"/>
<path d="M402.88 258.93L402.94 258.79M402.94 258.79L403.08 258.73M403.08 258.73L403.22 258.79M403.22 258.79L403.27 258.93M403.27 258.93L403.22 259.07M403.22 259.07L403.08 259.13M403.08 259.13L402.94 259.07M402.94 259.07L402.88 258.93"
fill="none" stroke="black" stroke-width="2"/>
<path d="M415.35 258.93L415.41 258.79M415.41 258.79L415.55 258.73M415.55 258.73L415.69 258.79M415.69 258.79L415.74 258.93M415.74 258.93L415.69 259.07M415.69 259.07L415.55 259.13M415.55 259.13L415.41 259.07M415.41 259.07L415.35 258.93"
fill="none" stroke="black" stroke-width="2"/>
<path d="M428.12 258.93L428.18 258.79M428.18 258.79L428.32 258.73M428.32 258.73L428.46 258.79M428.46 258.79L428.51 258.93M428.51 258.93L428.46 259.07M428.46 259.07L428.32 259.13M428.32 259.13L428.18 259.07M428.18 259.07L428.12 258.93"
fill="none" stroke="black" stroke-width="2"/>
<path d="M356.12 272.08L356.18 271.95M356.18 271.95L356.31 271.89M356.31 271.89L356.45 271.95M356.45 271.95L356.51 272.08M356.51 272.08L356.45 272.22M356.45 272.22L356.31 272.28M356.31 272.28L356.18 272.22M356.18 272.22L356.12 272.08"
fill="none" stroke="black" stroke-width="2"/>
<path d="M368.14 272.08L368.2 271.95M368.2 271.95L368.34 271.89M368.34 271.89L368.48 271.95M368.48 271.95L368.54 272.08M368.54 272.08L368.48 272.22M368.48 272.22L368.34 272.28M368.34 272.28L368.2 272.22M368.2 272.22L368.14 272.08"
fill="none" stroke="black" stroke-width="2"/>
<path d="M381.5 272.08L381.56 271.95M381.56 271.95L381.7 271.89M381.7 271.89L381.84 271.95M381.84 271.95L381.9 272.08M381.9 272.08L381.84 272.22M381.84 272.22L381.7 272.28M381.7 272.28L381.56 272.22M381.56 272.22L381.5 272.08"
fill="none" stroke="black" stroke-width="2"/>
<path d="M392.19 272.08L392.25 271.95M392.25 271.95L392.39 271.89M392.39 271.89L392.53 271.95M392.53 271.95L392.59 272.08M392.59 272.08L392.53 272.22M392.53 272.22L392.39 272.28M392.39 272.28L392.25 272.22M392.25 272.22L392.19 272.08"
fill="none" stroke="black" stroke-width="2"/>
<path d="M402.88 272.08L402.94 271.95M402.94 271.95L403.08 271.89M403.08 271.89L403.22 271.95M403.22 271.95L403.27 272.08M403.27 272.08L403.22 272.22M403.22 272.22L403.08 272.28M403.08 272.28L402.94 272.22M402.94 272.22L402.88 272.08"
fill="none" stroke="black" stroke-width="2"/>
<path d="M415.35 272.08L415.41 271.95M415.41 271.95L415.55 271.89M415.55 271.89L415.69 271.95M415.69 271.95L415.74 272.08M415.74 272.08L415.69 272.22M415.69 272.22L415.55 272.28M415.55 272.28L415.41 272.22M415.41 272.22L415.35 272.08"
fill="none" stroke="black" stroke-width="2"/>
<path d="M428.12 272.08L428.18 271.95M428.18 271.95L428.32 271.89M428.32 271.89L428.46 271.95M428.46 271.95L428.51 272.08M428.51 272.08L428.46 272.22M428.46 272.22L428.32 272.28M428.32 272.28L428.18 272.22M428.18 272.22L428.12 272.08"
fill="none" stroke="black" stroke-width="2"/>
<path d="M356.12 286.36L356.18 286.22M356.18 286.22L356.31 286.16M356.31 286.16L356.45 286.22M356.45 286.22L356.51 286.36M356.51 286.36L356.45 286.5M356.45 286.5L356.31 286.56M356.31 286.56L356.18 286.5M356.18 286.5L356.12 286.36"
fill="none" stroke="black" stroke-width="2"/>
<path d="M368.14 286.36L368.2 286.22M368.2 286.22L368.34 286.16M368.34 286.16L368.48 286.22M368.48 286.22L368.54 286.36M368.54 286.36L368.48 286.5M368.48 286.5L368.34 286.56M368.34 286.56L368.2 286.5M368.2 286.5L368.14 286.36"
fill="none" stroke="black" stroke-width="2"/>
<path d="M381.5 286.36L381.56 286.22M381.56 286.22L381.7 286.16M381.7 286.16L381.84 286.22M381.84 286.22L381.9 286.36M381.9 286.36L381.84 286.5M381.84 286.5L381.7 286.56M381.7 286.56L381.56 286.5M381.56 286.5L381.5 286.36"
fill="none" stroke="black" stroke-width="2"/>
<path d="M392.19 286.36L392.25 286.22M392.25 286.22L392.39 286.16M392.39 286.16L392.53 286.22M392.53 286.22L392.59 286.36M392.59 286.36L392.53 286.5M392.53 286.5L392.39 286.56M392.39 286.56L392.25 286.5M392.25 286.5L392.19 286.36"
fill="none" stroke="black" stroke-width="2"/>
<path d="M402.88 286.36L402.94 286.22M402.94 286.22L403.08 286.16M403.08 286.16L403.22 286.22M403.22 286.22L403.27 286.36M403.27 286.36L403.22 286.5M403.22 286.5L403.08 286.56M403.08 286.56L402.94 286.5M402.94 286.5L402.88 286.36"
fill="none" stroke="black" stroke-width="2"/>
<path d="M415.35 286.36L415.41 286.22M415.41 286.22L415.55 286.16M415.55 286.16L415.69 286.22M415.69 286.22L415.74 286.36M415.74 286.36L415.69 286.5M415.69 286.5L415.55 286.56M415.55 286.56L415.41 286.5M415.41 286.5L415.35 286.36"
fill="none" stroke="black" stroke-width="2"/>
<path d="M428.12 286.36L428.18 286.22M428.18 286.22L428.32 286.16M428.32 286.16L428.46 286.22M428.46 286.22L428.51 286.36M428.51 286.36L428.46 286.5M428.46 286.5L428.32 286.56M428.32 286.56L428.18 286.5M428.18 286.5L428.12 286.36"
fill="none" stroke="black" stroke-width="2"/>
<path d="M356.12 300.36L356.18 300.22M356.18 300.22L356.31 300.16M356.31 300.16L356.45 300.22M356.45 300.22L356.51 300.36M356.51 300.36L356.45 300.5M356.45 300.5L356.31 300.55M356.31 300.55L356.18 300.5M356.18 300.5L356.12 300.36"
fill="none" stroke="black" stroke-width="2"/>
<path d="M368.14 300.36L368.2 300.22M368.2 300.22L368.34 300.16M368.34 300.16L368.48 300.22M368.48 300.22L368.54 300.36M368.54 300.36L368.48 300.5M368.48 300.5L368.34 300.55M368.34 300.55L368.2 300.5M368.2 300.5L368.14 300.36"
fill="none" stroke="black" stroke-width="2"/>
<path d="M381.5 300.36L381.56 300.22M381.56 300.22L381.7 300.16M381.7 300.16L381.84 300.22M381.84 300.22L381.9 300.36M381.9 300.36L381.84 300.5M381.84 300.5L381.7 300.55M381.7 300.55L381.56 300.5M381.56 300.5L381.5 300.36"
fill="none" stroke="black" stroke-width="2"/>
<path d="M392.19 300.36L392.25 300.22M392.25 300.22L392.39 300.16M392.39 300.16L392.53 300.22M392.53 300.22L392.59 300.36M392.59 300.36L392.53 300.5M392.53 300.5L392.39 300.55M392.39 300.55L392.25 300.5M392.25 300.5L392.19 300.36"
fill="none" stroke="black" stroke-width="2"/>
<path d="M402.88 300.36L402.94 300.22M402.94 300.22L403.08 300.16M403.08 300.16L403.22 300.22M403.22 300.22L403.27 300.36M403.27 300.36L403.22 300.5M403.22 300.5L403.08 300.55M403.08 300.55L402.94 300.5M402.94 300.5L402.88 300.36"
fill="none" stroke="black" stroke-width="2"/>
<path d="M415.35 300.36L415.41 300.22M415.41 300.22L415.55 300.16M415.55 300.16L415.69 300.22M415.69 300.22L415.74 300.36M415.74 300.36L415.69 300.5M415.69 300.5L415.55 300.55M415.55 300.55L415.41 300.5M415.41 300.5L415.35 300.36"
fill="none" stroke="black" stroke-width="2"/>
<path d="M428.12 300.36L428.18 300.22M428.18 300.22L428.32 300.16M428.32 300.16L428.46 300.22M428.46 300.22L428.51 300.36M428.51 300.36L428.46 300.5M428.46 300.5L428.32 300.55M428.32 300.55L428.18 300.5M428.18 300.5L428.12 300.36"
fill="none" stroke="black" stroke-width="2"/>
<path d="M362.13 192.34L362.13 162.38"
fill="none" stroke="black" stroke-width="2"/>
<path d="M423.58 192.63L423.58 162.45"
fill="none" stroke="black" stroke-width="2"/>
<path d="M465.85 191L549.59 191"
fill="none" stroke="black" stroke-width="2"/>
<path d="M465.85 197.54L549.59 197.54"
fill="none" stroke="black" stroke-width="2"/>
<path d="M465.85 191L465.37 191.2M465.37 191.2L464.95 191.77M464.95 191.77L464.64 192.64M464.64 192.64L464.47 193.71M464.47 193.71L464.47 194.84M464.47 194.84L464.64 195.91M464.64 195.91L464.95 196.78M464.95 196.78L465.37 197.35M465.37 197.35L465.85 197.54M465.85 197.54L466.32 197.35M466.32 197.35L466.74 196.78M466.74 196.78L467.06 195.91M467.06 195.91L467.22 194.84M467.22 194.84L467.22 193.71M467.22 193.71L467.06 192.64M467.06 192.64L466.74 191.77M466.74 191.77L466.32 191.2M466.32 191.2L465.85 191"
fill="none" stroke="black" stroke-width="2"/>
<path d="M549.59 197.54L550.07 197.35M550.07 197.35L550.49 196.78M550.49 196.78L550.8 195.91M550.8 195.91L550.96 194.84M550.96 194.84L550.96 193.71M550.96 193.71L550.8 192.64M550.8 192.64L550.49 191.77M550.49 191.77L550.07 191.2M550.07 191.2L549.59 191"
fill="none" stroke="black" stroke-width="2"/>
<path d="M471.4 197.54L471.4 302.33"
fill="none" stroke="black" stroke-width="2"/>
<path d="M543.4 197.54L543.4 302.33"
fill="none" stroke="black" stroke-width="2"/>
<path d="M507.47 197.54L507.47 302.33"
fill="none" stroke="black" stroke-width="2"/>
<path d="M496.78 197.54L496.78 302.33"
fill="none" stroke="black" stroke-width="2"/>
<path d="M483.42 197.54L483.42 302.33"
fill="none" stroke="black" stroke-width="2"/>
<path d="M518.16 197.54L518.16 302.33"
fill="none" stroke="black" stroke-width="2"/>
<path d="M530.63 197.54L530.63 302.33"
fill="none" stroke="black" stroke-width="2"/>
<path d="M469.54 300.36L545.79 300.36"
fill="none" stroke="black" stroke-width="2"/>
<path d="M469.54 286.36L545.79 286.36"
fill="none" stroke="black" stroke-width="2"/>
<path d="M469.54 272.08L545.79 272.08"
fill="none" stroke="black" stroke-width="2"/>
<path d="M469.54 258.93L545.79 258.93"
fill="none" stroke="black" stroke-width="2"/>
<path d="M469.54 244.65L545.79 244.65"
fill="none" stroke="black" stroke-width="2"/>
<path d="M469.54 230.66L545.79 230.66"
fill="none" stroke="black" stroke-width="2"/>
<path d="M469.41 216.29L545.79 216.29"
fill="none" stroke="black" stroke-width="2"/>
<path d="M469.54 201.26L545.79 201.26"
fill="none" stroke="black" stroke-width="2"/>
<path d="M471.2 201.26L471.26 201.12M471.26 201.12L471.4 201.07M471.4 201.07L471.54 201.12M471.54 201.12L471.6 201.26M471.6 201.26L471.54 201.4M471.54 201.4L471.4 201.46M471.4 201.46L471.26 201.4M471.26 201.4L471.2 201.26"
fill="none" stroke="black" stroke-width="2"/>
<path d="M483.23 201.26L483.29 201.12M483.29 201.12L483.42 201.07M483.42 201.07L483.56 201.12M483.56 201.12L483.62 201.26M483.62 201.26L483.56 201.4M483.56 201.4L483.42 201.46M483.42 201.46L483.29 201.4M483.29 201.4L483.23 201.26"
fill="none" stroke="black" stroke-width="2"/>
<path d="M496.59 201.26L496.65 201.12M496.65 201.12L496.78 201.07M496.78 201.07L496.92 201.12M496.92 201.12L496.98 201.26M496.98 201.26L496.92 201.4M496.92 201.4L496.78 201.46M496.78 201.46L496.65 201.4M496.65 201.4L496.59 201.26"
fill="none" stroke="black" stroke-width="2"/>
<path d="M507.28 201.26L507.33 201.12M507.33 201.12L507.47 201.07M507.47 201.07L507.61 201.12M507.61 201.12L507.67 201.26M507.67 201.26L507.61 201.4M507.61 201.4L507.47 201.46M507.47 201.46L507.33 201.4M507.33 201.4L507.28 201.26"
fill="none" stroke="black" stroke-width="2"/>
<path d="M517.97 201.26L518.02 201.12M518.02 201.12L518.16 201.07M518.16 201.07L518.3 201.12M518.3 201.12L518.36 201.26M518.36 201.26L518.3 201.4M518.3 201.4L518.16 201.46M518.16 201.46L518.02 201.4M518.02 201.4L517.97 201.26"
fill="none" stroke="black" stroke-width="2"/>
<path d="M530.44 201.26L530.49 201.12M530.49 201.12L530.63 201.07M530.63 201.07L530.77 201.12M530.77 201.12L530.83 201.26M530.83 201.26L530.77 201.4M530.77 201.4L530.63 201.46M530.63 201.46L530.49 201.4M530.49 201.4L530.44 201.26"
fill="none" stroke="black" stroke-width="2"/>
<path d="M543.21 201.26L543.26 201.12M543.26 201.12L543.4 201.07M543.4 201.07L543.54 201.12M543.54 201.12L543.6 201.26M543.6 201.26L543.54 201.4M543.54 201.4L543.4 201.46M543.4 201.46L543.26 201.4M543.26 201.4L543.21 201.26"
fill="none" stroke="black" stroke-width="2"/>
<path d="M471.2 216.29L471.26 216.15M471.26 216.15L471.4 216.1M471.4 216.1L471.54 216.15M471.54 216.15L471.6 216.29M471.6 216.29L471.54 216.43M471.54 216.43L471.4 216.49M471.4 216.49L471.26 216.43M471.26 216.43L471.2 216.29"
fill="none" stroke="black" stroke-width="2"/>
<path d="M483.23 216.29L483.29 216.15M483.29 216.15L483.42 216.1M483.42 216.1L483.56 216.15M483.56 216.15L483.62 216.29M483.62 216.29L483.56 216.43M483.56 216.43L483.42 216.49M483.42 216.49L483.29 216.43M483.29 216.43L483.23 216.29"
fill="none" stroke="black" stroke-width="2"/>
<path d="M496.59 216.29L496.65 216.15M496.65 216.15L496.78 216.1M496.78 216.1L496.92 216.15M496.92 216.15L496.98 216.29M496.98 216.29L496.92 216.43M496.92 216.43L496.78 216.49M496.78 216.49L496.65 216.43M496.65 216.43L496.59 216.29"
fill="none" stroke="black" stroke-width="2"/>
<path d="M507.28 216.29L507.33 216.15M507.33 216.15L507.47 216.1M507.47 216.1L507.61 216.15M507.61 216.15L507.67 216.29M507.67 216.29L507.61 216.43M507.61 216.43L507.47 216.49M507.47 216.49L507.33 216.43M507.33 216.43L507.28 216.29"
fill="none" stroke="black" stroke-width="2"/>
<path d="M517.97 216.29L518.02 216.15M518.02 216.15L518.16 216.1M518.16 216.1L518.3 216.15M518.3 216.15L518.36 216.29M518.36 216.29L518.3 216.43M518.3 216.43L518.16 216.49M518.16 216.49L518.02 216.43M518.02 216.43L517.97 216.29"
fill="none" stroke="black" stroke-width="2"/>
<path d="M530.44 216.29L530.49 216.15M530.49 216.15L530.63 216.1M530.63 216.1L530.77 216.15M530.77 216.15L530.83 216.29M530.83 216.29L530.77 216.43M530.77 216.43L530.63 216.49M530.63 216.49L530.49 216.43M530.49 216.43L530.44 216.29"
fill="none" stroke="black" stroke-width="2"/>
<path d="M543.21 216.29L543.26 216.15M543.26 216.15L543.4 216.1M543.4 216.1L543.54 216.15M543.54 216.15L543.6 216.29M543.6 216.29L543.54 216.43M543.54 216.43L543.4 216.49M543.4 216.49L543.26 216.43M543.26 216.43L543.21 216.29"
fill="none" stroke="black" stroke-width="2"/>
<path d="M471.2 230.66L471.26 230.52M471.26 230.52L471.4 230.46M471.4 230.46L471.54 230.52M471.54 230.52L471.6 230.66M471.6 230.66L471.54 230.8M471.54 230.8L471.4 230.85M471.4 230.85L471.26 230.8M471.26 230.8L471.2 230.66"
fill="none" stroke="black" stroke-width="2"/>
<path d="M483.23 230.66L483.29 230.52M483.29 230.52L483.42 230.46M483.42 230.46L483.56 230.52M483.56 230.52L483.62 230.66M483.62 230.66L483.56 230.8M483.56 230.8L483.42 230.85M483.42 230.85L483.29 230.8M483.29 230.8L483.23 230.66"
fill="none" stroke="black" stroke-width="2"/>
<path d="M496.59 230.66L496.65 230.52M496.65 230.52L496.78 230.46M496.78 230.46L496.92 230.52M496.92 230.52L496.98 230.66M496.98 230.66L496.92 230.8M496.92 230.8L496.78 230.85M496.78 230.85L496.65 230.8M496.65 230.8L496.59 230.66"
fill="none" stroke="black" stroke-width="2"/>
<path d="M507.28 230.66L507.33 230.52M507.33 230.52L507.47 230.46M507.47 230.46L507.61 230.52M507.61 230.52L507.67 230.66M507.67 230.66L507.61 230.8M507.61 230.8L507.47 230.85M507.47 230.85L507.33 230.8M507.33 230.8L507.28 230.66"
fill="none" stroke="black" stroke-width="2"/>
<path d="M517.97 230.66L518.02 230.52M518.02 230.52L518.16 230.46M518.16 230.46L518.3 230.52M518.3 230.52L518.36 230.66M518.36 230.66L518.3 230.8M518.3 230.8L518.16 230.85M518.16 230.85L518.02 230.8M518.02 230.8L517.97 230.66"
fill="none" stroke="black" stroke-width="2"/>
<path d="M530.44 230.66L530.49 230.52M530.49 230.52L530.63 230.46M530.63 230.46L530.77 230.52M530.77 230.52L530.83 230.66M530.83 230.66L530.77 230.8M530.77 230.8L530.63 230.85M530.63 230.85L530.49 230.8M530.49 230.8L530.44 230.66"
fill="none" stroke="black" stroke-width="2"/>
<path d="M543.21 230.66L543.26 230.52M543.26 230.52L543.4 230.46M543.4 230.46L543.54 230.52M543.54 230.52L543.6 230.66M543.6 230.66L543.54 230.8M543.54 230.8L543.4 230.85M543.4 230.85L543.26 230.8M543.26 230.8L543.21 230.66"
fill="none" stroke="black" stroke-width="2"/>
<path d="M471.2 244.65L471.26 244.51M471.26 244.51L471.4 244.46M471.4 244.46L471.54 244.51M471.54 244.51L471.6 244.65M471.6 244.65L471.54 244.79M471.54 244.79L471.4 244.85M471.4 244.85L471.26 244.79M471.26 244.79L471.2 244.65"
fill="none" stroke="black" stroke-width="2"/>
<path d="M483.23 244.65L483.29 244.51M483.29 244.51L483.42 244.46M483.42 244.46L483.56 244.51M483.56 244.51L483.62 244.65M483.62 244.65L483.56 244.79M483.56 244.79L483.42 244.85M483.42 244.85L483.29 244.79M483.29 244.79L483.23 244.65"
fill="none" stroke="black" stroke-width="2"/>
<path d="M496.59 244.65L496.65 244.51M496.65 244.51L496.78 244.46M496.78 244.46L496.92 244.51M496.92 244.51L496.98 244.65M496.98 244.65L496.92 244.79M496.92 244.79L496.78 244.85M496.78 244.85L496.65 244.79M496.65 244.79L496.59 244.65"
fill="none" stroke="black" stroke-width="2"/>
<path d="M507.28 244.65L507.33 244.51M507.33 244.51L507.47 244.46M507.47 244.46L507.61 244.51M507.61 244.51L507.67 244.65M507.67 244.65L507.61 244.79M507.61 244.79L507.47 244.85M507.47 244.85L507.33 244.79M507.33 244.79L507.28 244.65"
fill="none" stroke="black" stroke-width="2"/>
<path d="M517.97 244.65L518.02 244.51M518.02 244.51L518.16 244.46M518.16 244.46L518.3 244.51M518.3 244.51L518.36 244.65M518.36 244.65L518.3 244.79M518.3 244.79L518.16 244.85M518.16 244.85L518.02 244.79M518.02 244.79L517.97 244.65"
fill="none" stroke="black" stroke-width="2"/>
<path d="M530.44 244.65L530.49 244.51M530.49 244.51L530.63 244.46M530.63 244.46L530.77 244.51M530.77 244.51L530.83 244.65M530.83 244.65L530.77 244.79M530.77 244.79L530.63 244.85M530.63 244.85L530.49 244.79M530.49 244.79L530.44 244.65"
fill="none" stroke="black" stroke-width="2"/>
<path d="M543.21 244.65L543.26 244.51M543.26 244.51L543.4 244.46M543.4 244.46L543.54 244.51M543.54 244.51L543.6 244.65M543.6 244.65L543.54 244.79M543.54 244.79L543.4 244.85M543.4 244.85L543.26 244.79M543.26 244.79L543.21 244.65"
fill="none" stroke="black" stroke-width="2"/>
<path d="M471.2 258.93L471.26 258.79M471.26 258.79L471.4 258.73M471.4 258.73L471.54 258.79M471.54 258.79L471.6 258.93M471.6 258.93L471.54 259.07M471.54 259.07L471.4 259.13M471.4 259.13L471.26 259.07M471.26 259.07L471.2 258.93"
fill="none" stroke="black" stroke-width="2"/>
<path d="M483.23 258.93L483.29 258.79M483.29 258.79L483.42 258.73M483.42 258.73L483.56 258.79M483.56 258.79L483.62 258.93M483.62 258.93L483.56 259.07M483.56 259.07L483.42 259.13M483.42 259.13L483.29 259.07M483.29 259.07L483.23 258.93"
fill="none" stroke="black" stroke-width="2"/>
<path d="M496.59 258.93L496.65 258.79M496.65 258.79L496.78 258.73M496.78 258.73L496.92 258.79M496.92 258.79L496.98 258.93M496.98 258.93L496.92 259.07M496.92 259.07L496.78 259.13M496.78 259.13L496.65 259.07M496.65 259.07L496.59 258.93"
fill="none" stroke="black" stroke-width="2"/>
<path d="M507.28 258.93L507.33 258.79M507.33 258.79L507.47 258.73M507.47 258.73L507.61 258.79M507.61 258.79L507.67 258.93M507.67 258.93L507.61 259.07M507.61 259.07L507.47 259.13M507.47 259.13L507.33 259.07M507.33 259.07L507.28 258.93"
fill="none" stroke="black" stroke-width="2"/>
<path d="M517.97 258.93L518.02 258.79M518.02 258.79L518.16 258.73M518.16 258.73L518.3 258.79M518.3 258.79L518.36 258.93M518.36 258.93L518.3 259.07M518.3 259.07L518.16 259.13M518.16 259.13L518.02 259.07M518.02 259.07L517.97 258.93"
fill="none" stroke="black" stroke-width="2"/>
<path d="M530.44 258.93L530.49 258.79M530.49 258.79L530.63 258.73M530.63 258.73L530.77 258.79M530.77 258.79L530.83 258.93M530.83 258.93L530.77 259.07M530.77 259.07L530.63 259.13M530.63 259.13L530.49 259.07M530.49 259.07L530.44 258.93"
fill="none" stroke="black" stroke-width="2"/>
<path d="M543.21 258.93L543.26 258.79M543.26 258.79L543.4 258.73M543.4 258.73L543.54 258.79M543.54 258.79L543.6 258.93M543.6 258.93L543.54 259.07M543.54 259.07L543.4 259.13M543.4 259.13L543.26 259.07M543.26 259.07L543.21 258.93"
fill="none" stroke="black" stroke-width="2"/>
<path d="M471.2 272.08L471.26 271.95M471.26 271.95L471.4 271.89M471.4 271.89L471.54 271.95M471.54 271.95L471.6 272.08M471.6 272.08L471.54 272.22M471.54 272.22L471.4 272.28M471.4 272.28L471.26 272.22M471.26 272.22L471.2 272.08"
fill="none" stroke="black" stroke-width="2"/>
<path d="M483.23 272.08L483.29 271.95M483.29 271.95L483.42 271.89M483.42 271.89L483.56 271.95M483.56 271.95L483.62 272.08M483.62 272.08L483.56 272.22M483.56 272.22L483.42 272.28M483.42 272.28L483.29 272.22M483.29 272.22L483.23 272.08"
fill="none" stroke="black" stroke-width="2"/>
<path d="M496.59 272.08L496.65 271.95M496.65 271.95L496.78 271.89M496.78 271.89L496.92 271.95M496.92 271.95L496.98 272.08M496.98 272.08L496.92 272.22M496.92 272.22L496.78 272.28M496.78 272.28L496.65 272.22M496.65 272.22L496.59 272.08"
fill="none" stroke="black" stroke-width="2"/>
<path d="M507.28 272.08L507.33 271.95M507.33 271.95L507.47 271.89M507.47 271.89L507.61 271.95M507.61 271.95L507.67 272.08M507.67 272.08L507.61 272.22M507.61 272.22L507.47 272.28M507.47 272.28L507.33 272.22M507.33 272.22L507.28 272.08"
fill="none" stroke="black" stroke-width="2"/>
<path d="M517.97 272.08L518.02 271.95M518.02 271.95L518.16 271.89M518.16 271.89L518.3 271.95M518.3 271.95L518.36 272.08M518.36 272.08L518.3 272.22M518.3 272.22L518.16 272.28M518.16 272.28L518.02 272.22M518.02 272.22L517.97 272.08"
fill="none" stroke="black" stroke-width="2"/>
<path d="M530.44 272.08L530.49 271.95M530.49 271.95L530.63 271.89M530.63 271.89L530.77 271.95M530.77 271.95L530.83 272.08M530.83 272.08L530.77 272.22M530.77 272.22L530.63 272.28M530.63 272.28L530.49 272.22M530.49 272.22L530.44 272.08"
fill="none" stroke="black" stroke-width="2"/>
<path d="M543.21 272.08L543.26 271.95M543.26 271.95L543.4 271.89M543.4 271.89L543.54 271.95M543.54 271.95L543.6 272.08M543.6 272.08L543.54 272.22M543.54 272.22L543.4 272.28M543.4 272.28L543.26 272.22M543.26 272.22L543.21 272.08"
fill="none" stroke="black" stroke-width="2"/>
<path d="M471.2 286.36L471.26 286.22M471.26 286.22L471.4 286.16M471.4 286.16L471.54 286.22M471.54 286.22L471.6 286.36M471.6 286.36L471.54 286.5M471.54 286.5L471.4 286.56M471.4 286.56L471.26 286.5M471.26 286.5L471.2 286.36"
fill="none" stroke="black" stroke-width="2"/>
<path d="M483.23 286.36L483.29 286.22M483.29 286.22L483.42 286.16M483.42 286.16L483.56 286.22M483.56 286.22L483.62 286.36M483.62 286.36L483.56 286.5M483.56 286.5L483.42 286.56M483.42 286.56L483.29 286.5M483.29 286.5L483.23 286.36"
fill="none" stroke="black" stroke-width="2"/>
<path d="M496.59 286.36L496.65 286.22M496.65 286.22L496.78 286.16M496.78 286.16L496.92 286.22M496.92 286.22L496.98 286.36M496.98 286.36L496.92 286.5M496.92 286.5L496.78 286.56M496.78 286.56L496.65 286.5M496.65 286.5L496.59 286.36"
fill="none" stroke="black" stroke-width="2"/>
<path d="M507.28 286.36L507.33 286.22M507.33 286.22L507.47 286.16M507.47 286.16L507.61 286.22M507.61 286.22L507.67 286.36M507.67 286.36L507.61 286.5M507.61 286.5L507.47 286.56M507.47 286.56L507.33 286.5M507.33 286.5L507.28 286.36"
fill="none" stroke="black" stroke-width="2"/>
<path d="M517.97 286.36L518.02 286.22M518.02 286.22L518.16 286.16M518.16 286.16L518.3 286.22M518.3 286.22L518.36 286.36M518.36 286.36L518.3 286.5M518.3 286.5L518.16 286.56M518.16 286.56L518.02 286.5M518.02 286.5L517.97 286.36"
fill="none" stroke="black" stroke-width="2"/>
<path d="M530.44 286.36L530.49 286.22M530.49 286.22L530.63 286.16M530.63 286.16L530.77 286.22M530.77 286.22L530.83 286.36M530.83 286.36L530.77 286.5M530.77 286.5L530.63 286.56M530.63 286.56L530.49 286.5M530.49 286.5L530.44 286.36"
fill="none" stroke="black" stroke-width="2"/>
<path d="M543.21 286.36L543.26 286.22M543.26 286.22L543.4 286.16M543.4 286.16L543.54 286.22M543.54 286.22L543.6 286.36M543.6 286.36L543.54 286.5M543.54 286.5L543.4 286.56M543.4 286.56L543.26 286.5M543.26 286.5L543.21 286.36"
fill="none" stroke="black" stroke-width="2"/>
<path d="M471.2 300.36L471.26 300.22M471.26 300.22L471.4 300.16M471.4 300.16L471.54 300.22M471.54 300.22L471.6 300.36M471.6 300.36L471.54 300.5M471.54 300.5L471.4 300.55M471.4 300.55L471.26 300.5M471.26 300.5L471.2 300.36"
fill="none" stroke="black" stroke-width="2"/>
<path d="M483.23 300.36L483.29 300.22M483.29 300.22L483.42 300.16M483.42 300.16L483.56 300.22M483.56 300.22L483.62 300.36M483.62 300.36L483.56 300.5M483.56 300.5L483.42 300.55M483.42 300.55L483.29 300.5M483.29 300.5L483.23 300.36"
fill="none" stroke="black" stroke-width="2"/>
<path d="M496.59 300.36L496.65 300.22M496.65 300.22L496.78 300.16M496.78 300.16L496.92 300.22M496.92 300.22L496.98 300.36M496.98 300.36L496.92 300.5M496.92 300.5L496.78 300.55M496.78 300.55L496.65 300.5M496.65 300.5L496.59 300.36"
fill="none" stroke="black" stroke-width="2"/>
<path d="M507.28 300.36L507.33 300.22M507.33 300.22L507.47 300.16M507.47 300.16L507.61 300.22M507.61 300.22L507.67 300.36M507.67 300.36L507.61 300.5M507.61 300.5L507.47 300.55M507.47 300.55L507.33 300.5M507.33 300.5L507.28 300.36"
fill="none" stroke="black" stroke-width="2"/>
<path d="M517.97 300.36L518.02 300.22M518.02 300.22L518.16 300.16M518.16 300.16L518.3 300.22M518.3 300.22L518.36 300.36M518.36 300.36L518.3 300.5M518.3 300.5L518.16 300.55M518.16 300.55L518.02 300.5M518.02 300.5L517.97 300.36"
fill="none" stroke="black" stroke-width="2"/>
<path d="M530.44 300.36L530.49 300.22M530.49 300.22L530.63 300.16M530.63 300.16L530.77 300.22M530.77 300.22L530.83 300.36M530.83 300.36L530.77 300.5M530.77 300.5L530.63 300.55M530.63 300.55L530.49 300.5M530.49 300.5L530.44 300.36"
fill="none" stroke="black" stroke-width="2"/>
<path d="M543.21 300.36L543.26 300.22M543.26 300.22L543.4 300.16M543.4 300.16L543.54 300.22M543.54 300.22L543.6 300.36M543.6 300.36L543.54 300.5M543.54 300.5L543.4 300.55M543.4 300.55L543.26 300.5M543.26 300.5L543.21 300.36"
fill="none" stroke="black" stroke-width="2"/>
<path d="M477.21 192.34L477.21 162.29"
fill="none" stroke="black" stroke-width="2"/>
<path d="M538.67 192.63L538.67 161.86"
fill="none" stroke="black" stroke-width="2"/>
<path d="M580.93 191L664.67 191"
fill="none" stroke="black" stroke-width="2"/>
<path d="M580.93 197.54L664.67 197.54"
fill="none" stroke="black" stroke-width="2"/>
<path d="M580.93 191L580.46 191.2M580.46 191.2L580.04 191.77M580.04 191.77L579.72 192.64M579.72 192.64L579.56 193.71M579.56 193.71L579.56 194.84M579.56 194.84L579.72 195.91M579.72 195.91L580.04 196.78M580.04 196.78L580.46 197.35M580.46 197.35L580.93 197.54M580.93 197.54L581.41 197.35M581.41 197.35L581.83 196.78M581.83 196.78L582.14 195.91M582.14 195.91L582.31 194.84M582.31 194.84L582.31 193.71M582.31 193.71L582.14 192.64M582.14 192.64L581.83 191.77M581.83 191.77L581.41 191.2M581.41 191.2L580.93 191"
fill="none" stroke="black" stroke-width="2"/>
<path d="M664.67 197.54L665.15 197.35M665.15 197.35L665.57 196.78M665.57 196.78L665.88 195.91M665.88 195.91L666.05 194.84M666.05 194.84L666.05 193.71M666.05 193.71L665.88 192.64M665.88 192.64L665.57 191.77M665.57 191.77L665.15 191.2M665.15 191.2L664.67 191"
fill="none" stroke="black" stroke-width="2"/>
<path d="M586.48 197.54L586.48 302.33"
fill="none" stroke="black" stroke-width="2"/>
<path d="M658.49 197.54L658.49 302.33"
fill="none" stroke="black" stroke-width="2"/>
<path d="M622.56 197.54L622.56 302.33"
fill="none" stroke="black" stroke-width="2"/>
<path d="M611.87 197.54L611.87 302.33"
fill="none" stroke="black" stroke-width="2"/>
<path d="M598.51 197.54L598.51 302.33"
fill="none" stroke="black" stroke-width="2"/>
<path d="M633.25 197.54L633.25 302.33"
fill="none" stroke="black" stroke-width="2"/>
<path d="M645.72 197.54L645.72 302.33"
fill="none" stroke="black" stroke-width="2"/>
<path d="M584.62 300.36L660.88 300.36"
fill="none" stroke="black" stroke-width="2"/>
<path d="M584.62 286.36L660.88 286.36"
fill="none" stroke="black" stroke-width="2"/>
<path d="M584.62 272.08L660.88 272.08"
fill="none" stroke="black" stroke-width="2"/>
<path d="M584.62 258.93L660.88 258.93"
fill="none" stroke="black" stroke-width="2"/>
<path d="M584.62 244.65L660.88 244.65"
fill="none" stroke="black" stroke-width="2"/>
<path d="M584.62 230.66L660.88 230.66"
fill="none" stroke="black" stroke-width="2"/>
<path d="M584.49 216.29L660.88 216.29"
fill="none" stroke="black" stroke-width="2"/>
<path d="M584.62 201.26L660.88 201.26"
fill="none" stroke="black" stroke-width="2"/>
<path d="M586.29 201.26L586.34 201.12M586.34 201.12L586.48 201.07M586.48 201.07L586.62 201.12M586.62 201.12L586.68 201.26M586.68 201.26L586.62 201.4M586.62 201.4L586.48 201.46M586.48 201.46L586.34 201.4M586.34 201.4L586.29 201.26"
fill="none" stroke="black" stroke-width="2"/>
<path d="M598.31 201.26L598.37 201.12M598.37 201.12L598.51 201.07M598.51 201.07L598.65 201.12M598.65 201.12L598.71 201.26M598.71 201.26L598.65 201.4M598.65 201.4L598.51 201.46M598.51 201.46L598.37 201.4M598.37 201.4L598.31 201.26"
fill="none" stroke="black" stroke-width="2"/>
<path d="M611.67 201.26L611.73 201.12M611.73 201.12L611.87 201.07M611.87 201.07L612.01 201.12M612.01 201.12L612.07 201.26M612.07 201.26L612.01 201.4M612.01 201.4L611.87 201.46M611.87 201.46L611.73 201.4M611.73 201.4L611.67 201.26"
fill="none" stroke="black" stroke-width="2"/>
<path d="M622.36 201.26L622.42 201.12M622.42 201.12L622.56 201.07M622.56 201.07L622.7 201.12M622.7 201.12L622.75 201.26M622.75 201.26L622.7 201.4M622.7 201.4L622.56 201.46M622.56 201.46L622.42 201.4M622.42 201.4L622.36 201.26"
fill="none" stroke="black" stroke-width="2"/>
<path d="M633.05 201.26L633.11 201.12M633.11 201.12L633.25 201.07M633.25 201.07L633.39 201.12M633.39 201.12L633.44 201.26M633.44 201.26L633.39 201.4M633.39 201.4L633.25 201.46M633.25 201.46L633.11 201.4M633.11 201.4L633.05 201.26"
fill="none" stroke="black" stroke-width="2"/>
<path d="M645.52 201.26L645.58 201.12M645.58 201.12L645.72 201.07M645.72 201.07L645.86 201.12M645.86 201.12L645.91 201.26M645.91 201.26L645.86 201.4M645.86 201.4L645.72 201.46M645.72 201.46L645.58 201.4M645.58 201.4L645.52 201.26"
fill="none" stroke="black" stroke-width="2"/>
<path d="M658.29 201.26L658.35 201.12M658.35 201.12L658.49 201.07M658.49 201.07L658.63 201.12M658.63 201.12L658.68 201.26M658.68 201.26L658.63 201.4M658.63 201.4L658.49 201.46M658.49 201.46L658.35 201.4M658.35 201.4L658.29 201.26"
fill="none" stroke="black" stroke-width="2"/>
<path d="M586.29 216.29L586.34 216.15M586.34 216.15L586.48 216.1M586.48 216.1L586.62 216.15M586.62 216.15L586.68 216.29M586.68 216.29L586.62 216.43M586.62 216.43L586.48 216.49M586.48 216.49L586.34 216.43M586.34 216.43L586.29 216.29"
fill="none" stroke="black" stroke-width="2"/>
<path d="M598.31 216.29L598.37 216.15M598.37 216.15L598.51 216.1M598.51 216.1L598.65 216.15M598.65 216.15L598.71 216.29M598.71 216.29L598.65 216.43M598.65 216.43L598.51 216.49M598.51 216.49L598.37 216.43M598.37 216.43L598.31 216.29"
fill="none" stroke="black" stroke-width="2"/>
<path d="M611.67 216.29L611.73 216.15M611.73 216.15L611.87 216.1M611.87 216.1L612.01 216.15M612.01 216.15L612.07 216.29M612.07 216.29L612.01 216.43M612.01 216.43L611.87 216.49M611.87 216.49L611.73 216.43M611.73 216.43L611.67 216.29"
fill="none" stroke="black" stroke-width="2"/>
<path d="M622.36 216.29L622.42 216.15M622.42 216.15L622.56 216.1M622.56 216.1L622.7 216.15M622.7 216.15L622.75 216.29M622.75 216.29L622.7 216.43M622.7 216.43L622.56 216.49M622.56 216.49L622.42 216.43M622.42 216.43L622.36 216.29"
fill="none" stroke="black" stroke-width="2"/>
<path d="M633.05 216.29L633.11 216.15M633.11 216.15L633.25 216.1M633.25 216.1L633.39 216.15M633.39 216.15L633.44 216.29M633.44 216.29L633.39 216.43M633.39 216.43L633.25 216.49M633.25 216.49L633.11 216.43M633.11 216.43L633.05 216.29"
fill="none" stroke="black" stroke-width="2"/>
<path d="M645.52 216.29L645.58 216.15M645.58 216.15L645.72 216.1M645.72 216.1L645.86 216.15M645.86 216.15L645.91 216.29M645.91 216.29L645.86 216.43M645.86 216.43L645.72 216.49M645.72 216.49L645.58 216.43M645.58 216.43L645.52 216.29"
fill="none" stroke="black" stroke-width="2"/>
<path d="M658.29 216.29L658.35 216.15M658.35 216.15L658.49 216.1M658.49 216.1L658.63 216.15M658.63 216.15L658.68 216.29M658.68 216.29L658.63 216.43M658.63 216.43L658.49 216.49M658.49 216.49L658.35 216.43M658.35 216.43L658.29 216.29"
fill="none" stroke="black" stroke-width="2"/>
<path d="M586.29 230.66L586.34 230.52M586.34 230.52L586.48 230.46M586.48 230.46L586.62 230.52M586.62 230.52L586.68 230.66M586.68 230.66L586.62 230.8M586.62 230.8L586.48 230.85M586.48 230.85L586.34 230.8M586.34 230.8L586.29 230.66"
fill="none" stroke="black" stroke-width="2"/>
<path d="M598.31 230.66L598.37 230.52M598.37 230.52L598.51 230.46M598.51 230.46L598.65 230.52M598.65 230.52L598.71 230.66M598.71 230.66L598.65 230.8M598.65 230.8L598.51 230.85M598.51 230.85L598.37 230.8M598.37 230.8L598.31 230.66"
fill="none" stroke="black" stroke-width="2"/>
<path d="M611.67 230.66L611.73 230.52M611.73 230.52L611.87 230.46M611.87 230.46L612.01 230.52M612.01 230.52L612.07 230.66M612.07 230.66L612.01 230.8M612.01 230.8L611.87 230.85M611.87 230.85L611.73 230.8M611.73 230.8L611.67 230.66"
fill="none" stroke="black" stroke-width="2"/>
<path d="M622.36 230.66L622.42 230.52M622.42 230.52L622.56 230.46M622.56 230.46L622.7 230.52M622.7 230.52L622.75 230.66M622.75 230.66L622.7 230.8M622.7 230.8L622.56 230.85M622.56 230.85L622.42 230.8M622.42 230.8L622.36 230.66"
fill="none" stroke="black" stroke-width="2"/>
<path d="M633.05 230.66L633.11 230.52M633.11 230.52L633.25 230.46M633.25 230.46L633.39 230.52M633.39 230.52L633.44 230.66M633.44 230.66L633.39 230.8M633.39 230.8L633.25 230.85M633.25 230.85L633.11 230.8M633.11 230.8L633.05 230.66"
fill="none" stroke="black" stroke-width="2"/>
<path d="M645.52 230.66L645.58 230.52M645.58 230.52L645.72 230.46M645.72 230.46L645.86 230.52M645.86 230.52L645.91 230.66M645.91 230.66L645.86 230.8M645.86 230.8L645.72 230.85M645.72 230.85L645.58 230.8M645.58 230.8L645.52 230.66"
fill="none" stroke="black" stroke-width="2"/>
<path d="M658.29 230.66L658.35 230.52M658.35 230.52L658.49 230.46M658.49 230.46L658.63 230.52M658.63 230.52L658.68 230.66M658.68 230.66L658.63 230.8M658.63 230.8L658.49 230.85M658.49 230.85L658.35 230.8M658.35 230.8L658.29 230.66"
fill="none" stroke="black" stroke-width="2"/>
<path d="M586.29 244.65L586.34 244.51M586.34 244.51L586.48 244.46M586.48 244.46L586.62 244.51M586.62 244.51L586.68 244.65M586.68 244.65L586.62 244.79M586.62 244.79L586.48 244.85M586.48 244.85L586.34 244.79M586.34 244.79L586.29 244.65"
fill="none" stroke="black" stroke-width="2"/>
<path d="M598.31 244.65L598.37 244.51M598.37 244.51L598.51 244.46M598.51 244.46L598.65 244.51M598.65 244.51L598.71 244.65M598.71 244.65L598.65 244.79M598.65 244.79L598.51 244.85M598.51 244.85L598.37 244.79M598.37 244.79L598.31 244.65"
fill="none" stroke="black" stroke-width="2"/>
<path d="M611.67 244.65L611.73 244.51M611.73 244.51L611.87 244.46M611.87 244.46L612.01 244.51M612.01 244.51L612.07 244.65M612.07 244.65L612.01 244.79M612.01 244.79L611.87 244.85M611.87 244.85L611.73 244.79M611.73 244.79L611.67 244.65"
fill="none" stroke="black" stroke-width="2"/>
<path d="M622.36 244.65L622.42 244.51M622.42 244.51L622.56 244.46M622.56 244.46L622.7 244.51M622.7 244.51L622.75 244.65M622.75 244.65L622.7 244.79M622.7 244.79L622.56 244.85M622.56 244.85L622.42 244.79M622.42 244.79L622.36 244.65"
fill="none" stroke="black" stroke-width="2"/>
<path d="M633.05 244.65L633.11 244.51M633.11 244.51L633.25 244.46M633.25 244.46L633.39 244.51M633.39 244.51L633.44 244.65M633.44 244.65L633.39 244.79M633.39 244.79L633.25 244.85M633.25 244.85L633.11 244.79M633.11 244.79L633.05 244.65"
fill="none" stroke="black" stroke-width="2"/>
<path d="M645.52 244.65L645.58 244.51M645.58 244.51L645.72 244.46M645.72 244.46L645.86 244.51M645.86 244.51L645.91 244.65M645.91 244.65L645.86 244.79M645.86 244.79L645.72 244.85M645.72 244.85L645.58 244.79M645.58 244.79L645.52 244.65"
fill="none" stroke="black" stroke-width="2"/>
<path d="M658.29 244.65L658.35 244.51M658.35 244.51L658.49 244.46M658.49 244.46L658.63 244.51M658.63 244.51L658.68 244.65M658.68 244.65L658.63 244.79M658.63 244.79L658.49 244.85M658.49 244.85L658.35 244.79M658.35 244.79L658.29 244.65"
fill="none" stroke="black" stroke-width="2"/>
<path d="M586.29 258.93L586.34 258.79M586.34 258.79L586.48 258.73M586.48 258.73L586.62 258.79M586.62 258.79L586.68 258.93M586.68 258.93L586.62 259.07M586.62 259.07L586.48 259.13M586.48 259.13L586.34 259.07M586.34 259.07L586.29 258.93"
fill="none" stroke="black" stroke-width="2"/>
<path d="M598.31 258.93L598.37 258.79M598.37 258.79L598.51 258.73M598.51 258.73L598.65 258.79M598.65 258.79L598.71 258.93M598.71 258.93L598.65 259.07M598.65 259.07L598.51 259.13M598.51 259.13L598.37 259.07M598.37 259.07L598.31 258.93"
fill="none" stroke="black" stroke-width="2"/>
<path d="M611.67 258.93L611.73 258.79M611.73 258.79L611.87 258.73M611.87 258.73L612.01 258.79M612.01 258.79L612.07 258.93M612.07 258.93L612.01 259.07M612.01 259.07L611.87 259.13M611.87 259.13L611.73 259.07M611.73 259.07L611.67 258.93"
fill="none" stroke="black" stroke-width="2"/>
<path d="M622.36 258.93L622.42 258.79M622.42 258.79L622.56 258.73M622.56 258.73L622.7 258.79M622.7 258.79L622.75 258.93M622.75 258.93L622.7 259.07M622.7 259.07L622.56 259.13M622.56 259.13L622.42 259.07M622.42 259.07L622.36 258.93"
fill="none" stroke="black" stroke-width="2"/>
<path d="M633.05 258.93L633.11 258.79M633.11 258.79L633.25 258.73M633.25 258.73L633.39 258.79M633.39 258.79L633.44 258.93M633.44 258.93L633.39 259.07M633.39 259.07L633.25 259.13M633.25 259.13L633.11 259.07M633.11 259.07L633.05 258.93"
fill="none" stroke="black" stroke-width="2"/>
<path d="M645.52 258.93L645.58 258.79M645.58 258.79L645.72 258.73M645.72 258.73L645.86 258.79M645.86 258.79L645.91 258.93M645.91 258.93L645.86 259.07M645.86 259.07L645.72 259.13M645.72 259.13L645.58 259.07M645.58 259.07L645.52 258.93"
fill="none" stroke="black" stroke-width="2"/>
<path d="M658.29 258.93L658.35 258.79M658.35 258.79L658.49 258.73M658.49 258.73L658.63 258.79M658.63 258.79L658.68 258.93M658.68 258.93L658.63 259.07M658.63 259.07L658.49 259.13M658.49 259.13L658.35 259.07M658.35 259.07L658.29 258.93"
fill="none" stroke="black" stroke-width="2"/>
<path d="M586.29 272.08L586.34 271.95M586.34 271.95L586.48 271.89M586.48 271.89L586.62 271.95M586.62 271.95L586.68 272.08M586.68 272.08L586.62 272.22M586.62 272.22L586.48 272.28M586.48 272.28L586.34 272.22M586.34 272.22L586.29 272.08"
fill="none" stroke="black" stroke-width="2"/>
<path d="M598.31 272.08L598.37 271.95M598.37 271.95L598.51 271.89M598.51 271.89L598.65 271.95M598.65 271.95L598.71 272.08M598.71 272.08L598.65 272.22M598.65 272.22L598.51 272.28M598.51 272.28L598.37 272.22M598.37 272.22L598.31 272.08"
fill="none" stroke="black" stroke-width="2"/>
<path d="M611.67 272.08L611.73 271.95M611.73 271.95L611.87 271.89M611.87 271.89L612.01 271.95M612.01 271.95L612.07 272.08M612.07 272.08L612.01 272.22M612.01 272.22L611.87 272.28M611.87 272.28L611.73 272.22M611.73 272.22L611.67 272.08"
fill="none" stroke="black" stroke-width="2"/>
<path d="M622.36 272.08L622.42 271.95M622.42 271.95L622.56 271.89M622.56 271.89L622.7 271.95M622.7 271.95L622.75 272.08M622.75 272.08L622.7 272.22M622.7 272.22L622.56 272.28M622.56 272.28L622.42 272.22M622.42 272.22L622.36 272.08"
fill="none" stroke="black" stroke-width="2"/>
<path d="M633.05 272.08L633.11 271.95M633.11 271.95L633.25 271.89M633.25 271.89L633.39 271.95M633.39 271.95L633.44 272.08M633.44 272.08L633.39 272.22M633.39 272.22L633.25 272.28M633.25 272.28L633.11 272.22M633.11 272.22L633.05 272.08"
fill="none" stroke="black" stroke-width="2"/>
<path d="M645.52 272.08L645.58 271.95M645.58 271.95L645.72 271.89M645.72 271.89L645.86 271.95M645.86 271.95L645.91 272.08M645.91 272.08L645.86 272.22M645.86 272.22L645.72 272.28M645.72 272.28L645.58 272.22M645.58 272.22L645.52 272.08"
fill="none" stroke="black" stroke-width="2"/>
<path d="M658.29 272.08L658.35 271.95M658.35 271.95L658.49 271.89M658.49 271.89L658.63 271.95M658.63 271.95L658.68 272.08M658.68 272.08L658.63 272.22M658.63 272.22L658.49 272.28M658.49 272.28L658.35 272.22M658.35 272.22L658.29 272.08"
fill="none" stroke="black" stroke-width="2"/>
<path d="M586.29 286.36L586.34 286.22M586.34 286.22L586.48 286.16M586.48 286.16L586.62 286.22M586.62 286.22L586.68 286.36M586.68 286.36L586.62 286.5M586.62 286.5L586.48 286.56M586.48 286.56L586.34 286.5M586.34 286.5L586.29 286.36"
fill="none" stroke="black" stroke-width="2"/>
<path d="M598.31 286.36L598.37 286.22M598.37 286.22L598.51 286.16M598.51 286.16L598.65 286.22M598.65 286.22L598.71 286.36M598.71 286.36L598.65 286.5M598.65 286.5L598.51 286.56M598.51 286.56L598.37 286.5M598.37 286.5L598.31 286.36"
fill="none" stroke="black" stroke-width="2"/>
<path d="M611.67 286.36L611.73 286.22M611.73 286.22L611.87 286.16M611.87 286.16L612.01 286.22M612.01 286.22L612.07 286.36M612.07 286.36L612.01 286.5M612.01 286.5L611.87 286.56M611.87 286.56L611.73 286.5M611.73 286.5L611.67 286.36"
fill="none" stroke="black" stroke-width="2"/>
<path d="M622.36 286.36L622.42 286.22M622.42 286.22L622.56 286.16M622.56 286.16L622.7 286.22M622.7 286.22L622.75 286.36M622.75 286.36L622.7 286.5M622.7 286.5L622.56 286.56M622.56 286.56L622.42 286.5M622.42 286.5L622.36 286.36"
fill="none" stroke="black" stroke-width="2"/>
<path d="M633.05 286.36L633.11 286.22M633.11 286.22L633.25 286.16M633.25 286.16L633.39 286.22M633.39 286.22L633.44 286.36M633.44 286.36L633.39 286.5M633.39 286.5L633.25 286.56M633.25 286.56L633.11 286.5M633.11 286.5L633.05 286.36"
fill="none" stroke="black" stroke-width="2"/>
<path d="M645.52 286.36L645.58 286.22M645.58 286.22L645.72 286.16M645.72 286.16L645.86 286.22M645.86 286.22L645.91 286.36M645.91 286.36L645.86 286.5M645.86 286.5L645.72 286.56M645.72 286.56L645.58 286.5M645.58 286.5L645.52 286.36"
fill="none" stroke="black" stroke-width="2"/>
<path d="M658.29 286.36L658.35 286.22M658.35 286.22L658.49 286.16M658.49 286.16L658.63 286.22M658.63 286.22L658.68 286.36M658.68 286.36L658.63 286.5M658.63 286.5L658.49 286.56M658.49 286.56L658.35 286.5M658.35 286.5L658.29 286.36"
fill="none" stroke="black" stroke-width="2"/>
<path d="M586.29 300.36L586.34 300.22M586.34 300.22L586.48 300.16M586.48 300.16L586.62 300.22M586.62 300.22L586.68 300.36M586.68 300.36L586.62 300.5M586.62 300.5L586.48 300.55M586.48 300.55L586.34 300.5M586.34 300.5L586.29 300.36"
fill="none" stroke="black" stroke-width="2"/>
<path d="M598.31 300.36L598.37 300.22M598.37 300.22L598.51 300.16M598.51 300.16L598.65 300.22M598.65 300.22L598.71 300.36M598.71 300.36L598.65 300.5M598.65 300.5L598.51 300.55M598.51 300.55L598.37 300.5M598.37 300.5L598.31 300.36"
fill="none" stroke="black" stroke-width="2"/>
<path d="M611.67 300.36L611.73 300.22M611.73 300.22L611.87 300.16M611.87 300.16L612.01 300.22M612.01 300.22L612.07 300.36M612.07 300.36L612.01 300.5M612.01 300.5L611.87 300.55M611.87 300.55L611.73 300.5M611.73 300.5L611.67 300.36"
fill="none" stroke="black" stroke-width="2"/>
<path d="M622.36 300.36L622.42 300.22M622.42 300.22L622.56 300.16M622.56 300.16L622.7 300.22M622.7 300.22L622.75 300.36M622.75 300.36L622.7 300.5M622.7 300.5L622.56 300.55M622.56 300.55L622.42 300.5M622.42 300.5L622.36 300.36"
fill="none" stroke="black" stroke-width="2"/>
<path d="M633.05 300.36L633.11 300.22M633.11 300.22L633.25 300.16M633.25 300.16L633.39 300.22M633.39 300.22L633.44 300.36M633.44 300.36L633.39 300.5M633.39 300.5L633.25 300.55M633.25 300.55L633.11 300.5M633.11 300.5L633.05 300.36"
fill="none" stroke="black" stroke-width="2"/>
<path d="M645.52 300.36L645.58 300.22M645.58 300.22L645.72 300.16M645.72 300.16L645.86 300.22M645.86 300.22L645.91 300.36M645.91 300.36L645.86 300.5M645.86 300.5L645.72 300.55M645.72 300.55L645.58 300.5M645.58 300.5L645.52 300.36"
fill="none" stroke="black" stroke-width="2"/>
<path d="M658.29 300.36L658.35 300.22M658.35 300.22L658.49 300.16M658.49 300.16L658.63 300.22M658.63 300.22L658.68 300.36M658.68 300.36L658.63 300.5M658.63 300.5L658.49 300.55M658.49 300.55L658.35 300.5M658.35 300.5L658.29 300.36"
fill="none" stroke="black" stroke-width="2"/>
<path d="M592.3 192.34L592.3 161.27"
fill="none" stroke="black" stroke-width="2"/>
<path d="M653.75 192.63L653.75 160.34"
fill="none" stroke="black" stroke-width="2"/>
</svg>
