<?xml version="1.0" encoding="UTF-8"?>
<svg xmlns="http://www.w3.org/2000/svg" width="800.000" height="600.000" viewBox="0.0 0.0 800.000 600.000" version="1.1">
  <title>Produce by Acme CAD Converter</title>
  <desc>Produce by Acme CAD Converter</desc>
<path d="M2.26 80.73L2.26 519.27"
fill="none" stroke="RGB(237,31,36)" stroke-width="0"/>
<path d="M2.82 156.6L51.37 159.39M51.37 159.39L99.94 161.83M99.94 161.83L148.52 163.9"
fill="none" stroke="RGB(2,158,33)" stroke-width="2"/>
<path d="M158.52 164.28L193.31 165.49M193.31 165.49L228.1 166.52M228.1 166.52L262.9 167.36"
fill="none" stroke="RGB(2,158,33)" stroke-width="2"/>
<path d="M273.08 167.58L321.08 168.36M321.08 168.36L369.08 168.79"
fill="none" stroke="RGB(2,158,33)" stroke-width="2"/>
<path d="M379.26 168.84L427.89 168.85M427.89 168.85L476.51 168.49"
fill="none" stroke="RGB(2,158,33)" stroke-width="2"/>
<path d="M486.69 168.38L536.4 167.56M536.4 167.56L586.11 166.38"
fill="none" stroke="RGB(2,158,33)" stroke-width="2"/>
<path d="M596.29 166.09L646.67 164.42M646.67 164.42L697.05 162.37M697.05 162.37L747.4 159.93M747.4 159.93L797.74 157.1"
fill="none" stroke="RGB(2,158,33)" stroke-width="2"/>
<path d="M2.82 156.6L69.13 158.35M69.13 158.35L135.43 159.8M135.43 159.8L201.75 160.93"
fill="none" stroke="RGB(2,158,33)" stroke-width="2"/>
<path d="M211.93 161.08L264.88 161.72"
fill="none" stroke="RGB(2,158,33)" stroke-width="2"/>
<path d="M271.3 161.78L316.31 162.15"
fill="none" stroke="RGB(2,158,33)" stroke-width="2"/>
<path d="M326.49 162.21L369.65 162.4"
fill="none" stroke="RGB(2,158,33)" stroke-width="2"/>
<path d="M378.72 162.42L422.49 162.45"
fill="none" stroke="RGB(2,158,33)" stroke-width="2"/>
<path d="M432.67 162.44L477.23 162.29"
fill="none" stroke="RGB(2,158,33)" stroke-width="2"/>
<path d="M485.9 162.25L529.92 161.94"
fill="none" stroke="RGB(2,158,33)" stroke-width="2"/>
<path d="M540.1 161.85L589.81 161.3M589.81 161.3L639.51 160.58"
fill="none" stroke="RGB(2,158,33)" stroke-width="2"/>
<path d="M649.69 160.41L723.72 158.95M723.72 158.95L797.74 157.1"
fill="none" stroke="RGB(2,158,33)" stroke-width="2"/>
<path d="M158.52 328.04L158.52 323.89"
fill="none" stroke="black" stroke-width="2"/>
<path d="M158.52 320.23L158.52 163.35"
fill="none" stroke="black" stroke-width="2"/>
<path d="M148.34 328.04L148.34 163.35"
fill="none" stroke="black" stroke-width="2"/>
<path d="M158.52 163.35L158.33 163.91M158.33 163.91L157.78 164.42M157.78 164.42L156.9 164.86M156.9 164.86L155.77 165.18M155.77 165.18L154.46 165.37M154.46 165.37L153.08 165.41M153.08 165.41L151.72 165.29M151.72 165.29L150.49 165.03M150.49 165.03L149.48 164.65M149.48 164.65L148.76 164.17M148.76 164.17L148.39 163.63M148.39 163.63L148.39 163.07M148.39 163.07L148.76 162.53M148.76 162.53L149.48 162.05M149.48 162.05L150.49 161.66M150.49 161.66L151.72 161.41M151.72 161.41L153.08 161.29M153.08 161.29L154.46 161.33M154.46 161.33L155.77 161.52M155.77 161.52L156.9 161.84M156.9 161.84L157.78 162.28M157.78 162.28L158.33 162.79M158.33 162.79L158.52 163.35"
fill="none" stroke="black" stroke-width="2"/>
<path d="M158.52 328.04L158.35 328.57M158.35 328.57L157.84 329.07M157.84 329.07L157.03 329.5M157.03 329.5L155.97 329.82M155.97 329.82L154.75 330.03M154.75 330.03L153.43 330.1M153.43 330.1L152.11 330.03M152.11 330.03L150.88 329.82M150.88 329.82L149.83 329.5M149.83 329.5L149.02 329.07M149.02 329.07L148.51 328.57M148.51 328.57L148.34 328.04"
fill="none" stroke="black" stroke-width="2"/>
<path d="M163.74 326.39L154.92 322.17"
fill="none" stroke="black" stroke-width="2"/>
<path d="M148.34 319.02L141.23 315.63"
fill="none" stroke="black" stroke-width="2"/>
<path d="M165.35 323.5L158.52 320.23"
fill="none" stroke="black" stroke-width="2"/>
<path d="M148.34 315.36L142.84 312.73"
fill="none" stroke="black" stroke-width="2"/>
<path d="M163.74 326.39L164.44 326.56M164.44 326.56L165.16 326.36M165.16 326.36L165.74 325.84M165.74 325.84L166.05 325.11M166.05 325.11L166.01 324.34M166.01 324.34L165.64 323.72M165.64 323.72L165.02 323.37M165.02 323.37L164.29 323.39M164.29 323.39L163.62 323.76M163.62 323.76L163.16 324.41M163.16 324.41L163.02 325.18M163.02 325.18L163.23 325.89M163.23 325.89L163.74 326.39"
fill="none" stroke="black" stroke-width="2"/>
<path d="M142.84 312.73L142.18 312.56M142.18 312.56L141.48 312.74M141.48 312.74L140.9 313.21M140.9 313.21L140.57 313.9M140.57 313.9L140.54 314.64M140.54 314.64L140.83 315.29M140.83 315.29L141.38 315.7"
fill="none" stroke="black" stroke-width="2"/>
<path d="M156.55 319.3L155.87 319.18M155.87 319.18L155.17 319.4M155.17 319.4L154.62 319.91M154.62 319.91L154.33 320.62M154.33 320.62L154.35 321.36M154.35 321.36L154.7 321.98M154.7 321.98L155.28 322.35"
fill="none" stroke="black" stroke-width="2"/>
<path d="M158.52 320.23L156.55 319.3"
fill="none" stroke="black" stroke-width="2"/>
<path d="M201.75 321.97L201.75 317.83"
fill="none" stroke="black" stroke-width="2"/>
<path d="M201.75 314.16L201.75 157.28"
fill="none" stroke="black" stroke-width="2"/>
<path d="M211.93 321.97L211.93 157.28"
fill="none" stroke="black" stroke-width="2"/>
<path d="M201.75 157.28L201.94 157.84M201.94 157.84L202.49 158.35M202.49 158.35L203.36 158.79M203.36 158.79L204.49 159.11M204.49 159.11L205.8 159.3M205.8 159.3L207.18 159.34M207.18 159.34L208.54 159.22M208.54 159.22L209.77 158.97M209.77 158.97L210.78 158.58M210.78 158.58L211.5 158.1M211.5 158.1L211.88 157.56M211.88 157.56L211.88 157M211.88 157L211.5 156.46M211.5 156.46L210.78 155.98M210.78 155.98L209.77 155.6M209.77 155.6L208.54 155.34M208.54 155.34L207.18 155.22M207.18 155.22L205.8 155.26M205.8 155.26L204.49 155.45M204.49 155.45L203.36 155.77M203.36 155.77L202.49 156.21M202.49 156.21L201.94 156.72M201.94 156.72L201.75 157.28"
fill="none" stroke="black" stroke-width="2"/>
<path d="M201.75 321.97L201.92 322.5M201.92 322.5L202.43 323M202.43 323L203.24 323.43M203.24 323.43L204.29 323.76M204.29 323.76L205.52 323.96M205.52 323.96L206.84 324.03M206.84 324.03L208.15 323.96M208.15 323.96L209.38 323.76M209.38 323.76L210.44 323.43M210.44 323.43L211.24 323M211.24 323L211.75 322.5M211.75 322.5L211.93 321.97"
fill="none" stroke="black" stroke-width="2"/>
<path d="M196.52 320.33L205.35 316.1"
fill="none" stroke="black" stroke-width="2"/>
<path d="M211.93 312.96L219.03 309.56"
fill="none" stroke="black" stroke-width="2"/>
<path d="M194.91 317.43L201.75 314.16"
fill="none" stroke="black" stroke-width="2"/>
<path d="M211.93 309.29L217.42 306.67"
fill="none" stroke="black" stroke-width="2"/>
<path d="M196.52 320.33L195.83 320.5M195.83 320.5L195.11 320.3M195.11 320.3L194.53 319.77M194.53 319.77L194.22 319.04M194.22 319.04L194.25 318.28M194.25 318.28L194.63 317.65M194.63 317.65L195.25 317.3M195.25 317.3L195.98 317.32M195.98 317.32L196.65 317.69M196.65 317.69L197.1 318.34M197.1 318.34L197.24 319.11M197.24 319.11L197.03 319.82M197.03 319.82L196.52 320.33"
fill="none" stroke="black" stroke-width="2"/>
<path d="M217.42 306.67L218.09 306.5M218.09 306.5L218.79 306.67M218.79 306.67L219.36 307.15M219.36 307.15L219.7 307.83M219.7 307.83L219.73 308.57M219.73 308.57L219.43 309.22M219.43 309.22L218.88 309.63"
fill="none" stroke="black" stroke-width="2"/>
<path d="M203.71 313.23L204.4 313.11M204.4 313.11L205.09 313.33M205.09 313.33L205.64 313.85M205.64 313.85L205.94 314.55M205.94 314.55L205.91 315.29M205.91 315.29L205.57 315.91M205.57 315.91L204.98 316.28"
fill="none" stroke="black" stroke-width="2"/>
<path d="M201.75 314.16L203.71 313.23"
fill="none" stroke="black" stroke-width="2"/>
<path d="M273.08 328.04L273.08 323.89"
fill="none" stroke="black" stroke-width="2"/>
<path d="M273.08 320.23L273.08 163.35"
fill="none" stroke="black" stroke-width="2"/>
<path d="M262.9 328.04L262.9 163.35"
fill="none" stroke="black" stroke-width="2"/>
<path d="M273.08 163.35L272.9 163.91M272.9 163.91L272.34 164.42M272.34 164.42L271.47 164.86M271.47 164.86L270.34 165.18M270.34 165.18L269.03 165.37M269.03 165.37L267.65 165.41M267.65 165.41L266.29 165.29M266.29 165.29L265.06 165.03M265.06 165.03L264.05 164.65M264.05 164.65L263.33 164.17M263.33 164.17L262.95 163.63M262.95 163.63L262.95 163.07M262.95 163.07L263.33 162.53M263.33 162.53L264.05 162.05M264.05 162.05L265.06 161.66M265.06 161.66L266.29 161.41M266.29 161.41L267.65 161.29M267.65 161.29L269.03 161.33M269.03 161.33L270.34 161.52M270.34 161.52L271.47 161.84M271.47 161.84L272.34 162.28M272.34 162.28L272.9 162.79M272.9 162.79L273.08 163.35"
fill="none" stroke="black" stroke-width="2"/>
<path d="M273.08 328.04L272.91 328.57M272.91 328.57L272.4 329.07M272.4 329.07L271.59 329.5M271.59 329.5L270.54 329.82M270.54 329.82L269.31 330.03M269.31 330.03L267.99 330.1M267.99 330.1L266.68 330.03M266.68 330.03L265.45 329.82M265.45 329.82L264.39 329.5M264.39 329.5L263.59 329.07M263.59 329.07L263.08 328.57M263.08 328.57L262.9 328.04"
fill="none" stroke="black" stroke-width="2"/>
<path d="M278.31 326.39L269.48 322.17"
fill="none" stroke="black" stroke-width="2"/>
<path d="M262.9 319.02L255.8 315.63"
fill="none" stroke="black" stroke-width="2"/>
<path d="M279.92 323.5L273.08 320.23"
fill="none" stroke="black" stroke-width="2"/>
<path d="M262.9 315.36L257.41 312.73"
fill="none" stroke="black" stroke-width="2"/>
<path d="M278.31 326.39L279 326.56M279 326.56L279.72 326.36M279.72 326.36L280.31 325.84M280.31 325.84L280.61 325.11M280.61 325.11L280.58 324.34M280.58 324.34L280.2 323.72M280.2 323.72L279.58 323.37M279.58 323.37L278.85 323.39M278.85 323.39L278.18 323.76M278.18 323.76L277.73 324.41M277.73 324.41L277.59 325.18M277.59 325.18L277.8 325.89M277.8 325.89L278.31 326.39"
fill="none" stroke="black" stroke-width="2"/>
<path d="M257.41 312.73L256.74 312.56M256.74 312.56L256.04 312.74M256.04 312.74L255.47 313.21M255.47 313.21L255.13 313.9M255.13 313.9L255.11 314.64M255.11 314.64L255.4 315.29M255.4 315.29L255.95 315.7"
fill="none" stroke="black" stroke-width="2"/>
<path d="M271.12 319.3L270.43 319.18M270.43 319.18L269.74 319.4M269.74 319.4L269.19 319.91M269.19 319.91L268.89 320.62M268.89 320.62L268.92 321.36M268.92 321.36L269.26 321.98M269.26 321.98L269.85 322.35"
fill="none" stroke="black" stroke-width="2"/>
<path d="M273.08 320.23L271.12 319.3"
fill="none" stroke="black" stroke-width="2"/>
<path d="M316.31 321.97L316.31 317.83"
fill="none" stroke="black" stroke-width="2"/>
<path d="M316.31 314.16L316.31 157.28"
fill="none" stroke="black" stroke-width="2"/>
<path d="M326.49 321.97L326.49 157.28"
fill="none" stroke="black" stroke-width="2"/>
<path d="M316.31 157.28L316.5 157.84M316.5 157.84L317.05 158.35M317.05 158.35L317.93 158.79M317.93 158.79L319.06 159.11M319.06 159.11L320.37 159.3M320.37 159.3L321.75 159.34M321.75 159.34L323.11 159.22M323.11 159.22L324.34 158.97M324.34 158.97L325.35 158.58M325.35 158.58L326.07 158.1M326.07 158.1L326.44 157.56M326.44 157.56L326.44 157M326.44 157L326.07 156.46M326.07 156.46L325.35 155.98M325.35 155.98L324.34 155.6M324.34 155.6L323.11 155.34M323.11 155.34L321.75 155.22M321.75 155.22L320.37 155.26M320.37 155.26L319.06 155.45M319.06 155.45L317.93 155.77M317.93 155.77L317.05 156.21M317.05 156.21L316.5 156.72M316.5 156.72L316.31 157.28"
fill="none" stroke="black" stroke-width="2"/>
<path d="M316.31 321.97L316.48 322.5M316.48 322.5L316.99 323M316.99 323L317.8 323.43M317.8 323.43L318.86 323.76M318.86 323.76L320.08 323.96M320.08 323.96L321.4 324.03M321.4 324.03L322.72 323.96M322.72 323.96L323.95 323.76M323.95 323.76L325 323.43M325 323.43L325.81 323M325.81 323L326.32 322.5M326.32 322.5L326.49 321.97"
fill="none" stroke="black" stroke-width="2"/>
<path d="M311.09 320.33L319.91 316.1"
fill="none" stroke="black" stroke-width="2"/>
<path d="M326.49 312.96L333.6 309.56"
fill="none" stroke="black" stroke-width="2"/>
<path d="M309.48 317.43L316.31 314.16"
fill="none" stroke="black" stroke-width="2"/>
<path d="M326.49 309.29L331.99 306.67"
fill="none" stroke="black" stroke-width="2"/>
<path d="M311.09 320.33L310.39 320.5M310.39 320.5L309.67 320.3M309.67 320.3L309.09 319.77M309.09 319.77L308.78 319.04M308.78 319.04L308.82 318.28M308.82 318.28L309.19 317.65M309.19 317.65L309.81 317.3M309.81 317.3L310.54 317.32M310.54 317.32L311.21 317.69M311.21 317.69L311.67 318.34M311.67 318.34L311.81 319.11M311.81 319.11L311.6 319.82M311.6 319.82L311.09 320.33"
fill="none" stroke="black" stroke-width="2"/>
<path d="M331.99 306.67L332.65 306.5M332.65 306.5L333.35 306.67M333.35 306.67L333.93 307.15M333.93 307.15L334.27 307.83M334.27 307.83L334.29 308.57M334.29 308.57L334 309.22M334 309.22L333.45 309.63"
fill="none" stroke="black" stroke-width="2"/>
<path d="M318.28 313.23L318.96 313.11M318.96 313.11L319.66 313.33M319.66 313.33L320.21 313.85M320.21 313.85L320.5 314.55M320.5 314.55L320.48 315.29M320.48 315.29L320.13 315.91M320.13 315.91L319.55 316.28"
fill="none" stroke="black" stroke-width="2"/>
<path d="M316.31 314.16L318.28 313.23"
fill="none" stroke="black" stroke-width="2"/>
<path d="M379.26 328.04L379.26 323.89"
fill="none" stroke="black" stroke-width="2"/>
<path d="M379.26 320.23L379.26 163.35"
fill="none" stroke="black" stroke-width="2"/>
<path d="M369.08 328.04L369.08 163.35"
fill="none" stroke="black" stroke-width="2"/>
<path d="M379.26 163.35L379.07 163.91M379.07 163.91L378.52 164.42M378.52 164.42L377.65 164.86M377.65 164.86L376.52 165.18M376.52 165.18L375.21 165.37M375.21 165.37L373.83 165.41M373.83 165.41L372.47 165.29M372.47 165.29L371.24 165.03M371.24 165.03L370.23 164.65M370.23 164.65L369.5 164.17M369.5 164.17L369.13 163.63M369.13 163.63L369.13 163.07M369.13 163.07L369.5 162.53M369.5 162.53L370.23 162.05M370.23 162.05L371.24 161.66M371.24 161.66L372.47 161.41M372.47 161.41L373.83 161.29M373.83 161.29L375.21 161.33M375.21 161.33L376.52 161.52M376.52 161.52L377.65 161.84M377.65 161.84L378.52 162.28M378.52 162.28L379.07 162.79M379.07 162.79L379.26 163.35"
fill="none" stroke="black" stroke-width="2"/>
<path d="M379.26 328.04L379.09 328.57M379.09 328.57L378.58 329.07M378.58 329.07L377.77 329.5M377.77 329.5L376.72 329.82M376.72 329.82L375.49 330.03M375.49 330.03L374.17 330.1M374.17 330.1L372.86 330.03M372.86 330.03L371.63 329.82M371.63 329.82L370.57 329.5M370.57 329.5L369.77 329.07M369.77 329.07L369.26 328.57M369.26 328.57L369.08 328.04"
fill="none" stroke="black" stroke-width="2"/>
<path d="M384.49 326.39L375.66 322.17"
fill="none" stroke="black" stroke-width="2"/>
<path d="M369.08 319.02L361.98 315.63"
fill="none" stroke="black" stroke-width="2"/>
<path d="M386.1 323.5L379.26 320.23"
fill="none" stroke="black" stroke-width="2"/>
<path d="M369.08 315.36L363.59 312.73"
fill="none" stroke="black" stroke-width="2"/>
<path d="M384.49 326.39L385.18 326.56M385.18 326.56L385.9 326.36M385.9 326.36L386.48 325.84M386.48 325.84L386.79 325.11M386.79 325.11L386.76 324.34M386.76 324.34L386.38 323.72M386.38 323.72L385.76 323.37M385.76 323.37L385.03 323.39M385.03 323.39L384.36 323.76M384.36 323.76L383.91 324.41M383.91 324.41L383.77 325.18M383.77 325.18L383.98 325.89M383.98 325.89L384.49 326.39"
fill="none" stroke="black" stroke-width="2"/>
<path d="M363.59 312.73L362.92 312.56M362.92 312.56L362.22 312.74M362.22 312.74L361.65 313.21M361.65 313.21L361.31 313.9M361.31 313.9L361.28 314.64M361.28 314.64L361.58 315.29M361.58 315.29L362.13 315.7"
fill="none" stroke="black" stroke-width="2"/>
<path d="M377.3 319.3L376.61 319.18M376.61 319.18L375.92 319.4M375.92 319.4L375.37 319.91M375.37 319.91L375.07 320.62M375.07 320.62L375.1 321.36M375.1 321.36L375.44 321.98M375.44 321.98L376.03 322.35"
fill="none" stroke="black" stroke-width="2"/>
<path d="M379.26 320.23L377.3 319.3"
fill="none" stroke="black" stroke-width="2"/>
<path d="M422.49 321.97L422.49 317.83"
fill="none" stroke="black" stroke-width="2"/>
<path d="M422.49 314.16L422.49 157.28"
fill="none" stroke="black" stroke-width="2"/>
<path d="M432.67 321.97L432.67 157.28"
fill="none" stroke="black" stroke-width="2"/>
<path d="M422.49 157.28L422.68 157.84M422.68 157.84L423.23 158.35M423.23 158.35L424.11 158.79M424.11 158.79L425.24 159.11M425.24 159.11L426.55 159.3M426.55 159.3L427.93 159.34M427.93 159.34L429.29 159.22M429.29 159.22L430.52 158.97M430.52 158.97L431.53 158.58M431.53 158.58L432.25 158.1M432.25 158.1L432.62 157.56M432.62 157.56L432.62 157M432.62 157L432.25 156.46M432.25 156.46L431.53 155.98M431.53 155.98L430.52 155.6M430.52 155.6L429.29 155.34M429.29 155.34L427.93 155.22M427.93 155.22L426.55 155.26M426.55 155.26L425.24 155.45M425.24 155.45L424.11 155.77M424.11 155.77L423.23 156.21M423.23 156.21L422.68 156.72M422.68 156.72L422.49 157.28"
fill="none" stroke="black" stroke-width="2"/>
<path d="M422.49 321.97L422.66 322.5M422.66 322.5L423.17 323M423.17 323L423.98 323.43M423.98 323.43L425.04 323.76M425.04 323.76L426.26 323.96M426.26 323.96L427.58 324.03M427.58 324.03L428.9 323.96M428.9 323.96L430.13 323.76M430.13 323.76L431.18 323.43M431.18 323.43L431.99 323M431.99 323L432.5 322.5M432.5 322.5L432.67 321.97"
fill="none" stroke="black" stroke-width="2"/>
<path d="M417.27 320.33L426.09 316.1"
fill="none" stroke="black" stroke-width="2"/>
<path d="M432.67 312.96L439.78 309.56"
fill="none" stroke="black" stroke-width="2"/>
<path d="M415.66 317.43L422.49 314.16"
fill="none" stroke="black" stroke-width="2"/>
<path d="M432.67 309.29L438.17 306.67"
fill="none" stroke="black" stroke-width="2"/>
<path d="M417.27 320.33L416.57 320.5M416.57 320.5L415.85 320.3M415.85 320.3L415.27 319.77M415.27 319.77L414.96 319.04M414.96 319.04L415 318.28M415 318.28L415.37 317.65M415.37 317.65L415.99 317.3M415.99 317.3L416.72 317.32M416.72 317.32L417.39 317.69M417.39 317.69L417.85 318.34M417.85 318.34L417.99 319.11M417.99 319.11L417.78 319.82M417.78 319.82L417.27 320.33"
fill="none" stroke="black" stroke-width="2"/>
<path d="M438.17 306.67L438.83 306.5M438.83 306.5L439.53 306.67M439.53 306.67L440.11 307.15M440.11 307.15L440.44 307.83M440.44 307.83L440.47 308.57M440.47 308.57L440.18 309.22M440.18 309.22L439.63 309.63"
fill="none" stroke="black" stroke-width="2"/>
<path d="M424.46 313.23L425.14 313.11M425.14 313.11L425.83 313.33M425.83 313.33L426.39 313.85M426.39 313.85L426.68 314.55M426.68 314.55L426.66 315.29M426.66 315.29L426.31 315.91M426.31 315.91L425.73 316.28"
fill="none" stroke="black" stroke-width="2"/>
<path d="M422.49 314.16L424.46 313.23"
fill="none" stroke="black" stroke-width="2"/>
<path d="M486.69 328.04L486.69 323.89"
fill="none" stroke="black" stroke-width="2"/>
<path d="M486.69 320.23L486.69 163.35"
fill="none" stroke="black" stroke-width="2"/>
<path d="M476.51 328.04L476.51 163.35"
fill="none" stroke="black" stroke-width="2"/>
<path d="M486.69 163.35L486.5 163.91M486.5 163.91L485.95 164.42M485.95 164.42L485.07 164.86M485.07 164.86L483.94 165.18M483.94 165.18L482.63 165.37M482.63 165.37L481.25 165.41M481.25 165.41L479.89 165.29M479.89 165.29L478.66 165.03M478.66 165.03L477.65 164.65M477.65 164.65L476.93 164.17M476.93 164.17L476.56 163.63M476.56 163.63L476.56 163.07M476.56 163.07L476.93 162.53M476.93 162.53L477.65 162.05M477.65 162.05L478.66 161.66M478.66 161.66L479.89 161.41M479.89 161.41L481.25 161.29M481.25 161.29L482.63 161.33M482.63 161.33L483.94 161.52M483.94 161.52L485.07 161.84M485.07 161.84L485.95 162.28M485.95 162.28L486.5 162.79M486.5 162.79L486.69 163.35"
fill="none" stroke="black" stroke-width="2"/>
<path d="M486.69 328.04L486.51 328.57M486.51 328.57L486.01 329.07M486.01 329.07L485.2 329.5M485.2 329.5L484.14 329.82M484.14 329.82L482.92 330.03M482.92 330.03L481.6 330.1M481.6 330.1L480.28 330.03M480.28 330.03L479.05 329.82M479.05 329.82L478 329.5M478 329.5L477.19 329.07M477.19 329.07L476.68 328.57M476.68 328.57L476.51 328.04"
fill="none" stroke="black" stroke-width="2"/>
<path d="M491.91 326.39L483.09 322.17"
fill="none" stroke="black" stroke-width="2"/>
<path d="M476.51 319.02L469.4 315.63"
fill="none" stroke="black" stroke-width="2"/>
<path d="M493.52 323.5L486.69 320.23"
fill="none" stroke="black" stroke-width="2"/>
<path d="M476.51 315.36L471.01 312.73"
fill="none" stroke="black" stroke-width="2"/>
<path d="M491.91 326.39L492.61 326.56M492.61 326.56L493.33 326.36M493.33 326.36L493.91 325.84M493.91 325.84L494.22 325.11M494.22 325.11L494.18 324.34M494.18 324.34L493.81 323.72M493.81 323.72L493.19 323.37M493.19 323.37L492.46 323.39M492.46 323.39L491.79 323.76M491.79 323.76L491.33 324.41M491.33 324.41L491.19 325.18M491.19 325.18L491.4 325.89M491.4 325.89L491.91 326.39"
fill="none" stroke="black" stroke-width="2"/>
<path d="M471.01 312.73L470.35 312.56M470.35 312.56L469.65 312.74M469.65 312.74L469.07 313.21M469.07 313.21L468.73 313.9M468.73 313.9L468.71 314.64M468.71 314.64L469 315.29M469 315.29L469.55 315.7"
fill="none" stroke="black" stroke-width="2"/>
<path d="M484.72 319.3L484.04 319.18M484.04 319.18L483.34 319.4M483.34 319.4L482.79 319.91M482.79 319.91L482.5 320.62M482.5 320.62L482.52 321.36M482.52 321.36L482.87 321.98M482.87 321.98L483.45 322.35"
fill="none" stroke="black" stroke-width="2"/>
<path d="M486.69 320.23L484.72 319.3"
fill="none" stroke="black" stroke-width="2"/>
<path d="M529.92 321.97L529.92 317.83"
fill="none" stroke="black" stroke-width="2"/>
<path d="M529.92 314.16L529.92 157.28"
fill="none" stroke="black" stroke-width="2"/>
<path d="M540.1 321.97L540.1 157.28"
fill="none" stroke="black" stroke-width="2"/>
<path d="M529.92 157.28L530.1 157.84M530.1 157.84L530.66 158.35M530.66 158.35L531.53 158.79M531.53 158.79L532.66 159.11M532.66 159.11L533.97 159.3M533.97 159.3L535.35 159.34M535.35 159.34L536.71 159.22M536.71 159.22L537.94 158.97M537.94 158.97L538.95 158.58M538.95 158.58L539.67 158.1M539.67 158.1L540.05 157.56M540.05 157.56L540.05 157M540.05 157L539.67 156.46M539.67 156.46L538.95 155.98M538.95 155.98L537.94 155.6M537.94 155.6L536.71 155.34M536.71 155.34L535.35 155.22M535.35 155.22L533.97 155.26M533.97 155.26L532.66 155.45M532.66 155.45L531.53 155.77M531.53 155.77L530.66 156.21M530.66 156.21L530.1 156.72M530.1 156.72L529.92 157.28"
fill="none" stroke="black" stroke-width="2"/>
<path d="M529.92 321.97L530.09 322.5M530.09 322.5L530.6 323M530.6 323L531.41 323.43M531.41 323.43L532.46 323.76M532.46 323.76L533.69 323.96M533.69 323.96L535.01 324.03M535.01 324.03L536.32 323.96M536.32 323.96L537.55 323.76M537.55 323.76L538.6 323.43M538.6 323.43L539.41 323M539.41 323L539.92 322.5M539.92 322.5L540.1 321.97"
fill="none" stroke="black" stroke-width="2"/>
<path d="M524.69 320.33L533.52 316.1"
fill="none" stroke="black" stroke-width="2"/>
<path d="M540.1 312.96L547.2 309.56"
fill="none" stroke="black" stroke-width="2"/>
<path d="M523.08 317.43L529.92 314.16"
fill="none" stroke="black" stroke-width="2"/>
<path d="M540.1 309.29L545.59 306.67"
fill="none" stroke="black" stroke-width="2"/>
<path d="M524.69 320.33L524 320.5M524 320.5L523.28 320.3M523.28 320.3L522.69 319.77M522.69 319.77L522.39 319.04M522.39 319.04L522.42 318.28M522.42 318.28L522.8 317.65M522.8 317.65L523.42 317.3M523.42 317.3L524.15 317.32M524.15 317.32L524.82 317.69M524.82 317.69L525.27 318.34M525.27 318.34L525.41 319.11M525.41 319.11L525.2 319.82M525.2 319.82L524.69 320.33"
fill="none" stroke="black" stroke-width="2"/>
<path d="M545.59 306.67L546.26 306.5M546.26 306.5L546.96 306.67M546.96 306.67L547.53 307.15M547.53 307.15L547.87 307.83M547.87 307.83L547.89 308.57M547.89 308.57L547.6 309.22M547.6 309.22L547.05 309.63"
fill="none" stroke="black" stroke-width="2"/>
<path d="M531.88 313.23L532.57 313.11M532.57 313.11L533.26 313.33M533.26 313.33L533.81 313.85M533.81 313.85L534.11 314.55M534.11 314.55L534.08 315.29M534.08 315.29L533.74 315.91M533.74 315.91L533.15 316.28"
fill="none" stroke="black" stroke-width="2"/>
<path d="M529.92 314.16L531.88 313.23"
fill="none" stroke="black" stroke-width="2"/>
<path d="M596.29 328.04L596.29 323.89"
fill="none" stroke="black" stroke-width="2"/>
<path d="M596.29 320.23L596.29 163.35"
fill="none" stroke="black" stroke-width="2"/>
<path d="M586.11 328.04L586.11 163.35"
fill="none" stroke="black" stroke-width="2"/>
<path d="M596.29 163.35L596.1 163.91M596.1 163.91L595.54 164.42M595.54 164.42L594.67 164.86M594.67 164.86L593.54 165.18M593.54 165.18L592.23 165.37M592.23 165.37L590.85 165.41M590.85 165.41L589.49 165.29M589.49 165.29L588.26 165.03M588.26 165.03L587.25 164.65M587.25 164.65L586.53 164.17M586.53 164.17L586.15 163.63M586.15 163.63L586.15 163.07M586.15 163.07L586.53 162.53M586.53 162.53L587.25 162.05M587.25 162.05L588.26 161.66M588.26 161.66L589.49 161.41M589.49 161.41L590.85 161.29M590.85 161.29L592.23 161.33M592.23 161.33L593.54 161.52M593.54 161.52L594.67 161.84M594.67 161.84L595.54 162.28M595.54 162.28L596.1 162.79M596.1 162.79L596.29 163.35"
fill="none" stroke="black" stroke-width="2"/>
<path d="M596.29 328.04L596.11 328.57M596.11 328.57L595.6 329.07M595.6 329.07L594.79 329.5M594.79 329.5L593.74 329.82M593.74 329.82L592.51 330.03M592.51 330.03L591.2 330.1M591.2 330.1L589.88 330.03M589.88 330.03L588.65 329.82M588.65 329.82L587.6 329.5M587.6 329.5L586.79 329.07M586.79 329.07L586.28 328.57M586.28 328.57L586.11 328.04"
fill="none" stroke="black" stroke-width="2"/>
<path d="M601.51 326.39L592.69 322.17"
fill="none" stroke="black" stroke-width="2"/>
<path d="M586.11 319.02L579 315.63"
fill="none" stroke="black" stroke-width="2"/>
<path d="M603.12 323.5L596.29 320.23"
fill="none" stroke="black" stroke-width="2"/>
<path d="M586.11 315.36L580.61 312.73"
fill="none" stroke="black" stroke-width="2"/>
<path d="M601.51 326.39L602.21 326.56M602.21 326.56L602.93 326.36M602.93 326.36L603.51 325.84M603.51 325.84L603.81 325.11M603.81 325.11L603.78 324.34M603.78 324.34L603.41 323.72M603.41 323.72L602.79 323.37M602.79 323.37L602.06 323.39M602.06 323.39L601.39 323.76M601.39 323.76L600.93 324.41M600.93 324.41L600.79 325.18M600.79 325.18L601 325.89M601 325.89L601.51 326.39"
fill="none" stroke="black" stroke-width="2"/>
<path d="M580.61 312.73L579.94 312.56M579.94 312.56L579.25 312.74M579.25 312.74L578.67 313.21M578.67 313.21L578.33 313.9M578.33 313.9L578.31 314.64M578.31 314.64L578.6 315.29M578.6 315.29L579.15 315.7"
fill="none" stroke="black" stroke-width="2"/>
<path d="M594.32 319.3L593.63 319.18M593.63 319.18L592.94 319.4M592.94 319.4L592.39 319.91M592.39 319.91L592.09 320.62M592.09 320.62L592.12 321.36M592.12 321.36L592.46 321.98M592.46 321.98L593.05 322.35"
fill="none" stroke="black" stroke-width="2"/>
<path d="M596.29 320.23L594.32 319.3"
fill="none" stroke="black" stroke-width="2"/>
<path d="M639.51 321.97L639.51 317.83"
fill="none" stroke="black" stroke-width="2"/>
<path d="M639.51 314.16L639.51 157.28"
fill="none" stroke="black" stroke-width="2"/>
<path d="M649.69 321.97L649.69 157.28"
fill="none" stroke="black" stroke-width="2"/>
<path d="M639.51 157.28L639.7 157.84M639.7 157.84L640.25 158.35M640.25 158.35L641.13 158.79M641.13 158.79L642.26 159.11M642.26 159.11L643.57 159.3M643.57 159.3L644.95 159.34M644.95 159.34L646.31 159.22M646.31 159.22L647.54 158.97M647.54 158.97L648.55 158.58M648.55 158.58L649.27 158.1M649.27 158.1L649.65 157.56M649.65 157.56L649.65 157M649.65 157L649.27 156.46M649.27 156.46L648.55 155.98M648.55 155.98L647.54 155.6M647.54 155.6L646.31 155.34M646.31 155.34L644.95 155.22M644.95 155.22L643.57 155.26M643.57 155.26L642.26 155.45M642.26 155.45L641.13 155.77M641.13 155.77L640.25 156.21M640.25 156.21L639.7 156.72M639.7 156.72L639.51 157.28"
fill="none" stroke="black" stroke-width="2"/>
<path d="M639.51 321.97L639.69 322.5M639.69 322.5L640.2 323M640.2 323L641 323.43M641 323.43L642.06 323.76M642.06 323.76L643.29 323.96M643.29 323.96L644.6 324.03M644.6 324.03L645.92 323.96M645.92 323.96L647.15 323.76M647.15 323.76L648.2 323.43M648.2 323.43L649.01 323M649.01 323L649.52 322.5M649.52 322.5L649.69 321.97"
fill="none" stroke="black" stroke-width="2"/>
<path d="M634.29 320.33L643.11 316.1"
fill="none" stroke="black" stroke-width="2"/>
<path d="M649.69 312.96L656.8 309.56"
fill="none" stroke="black" stroke-width="2"/>
<path d="M632.68 317.43L639.51 314.16"
fill="none" stroke="black" stroke-width="2"/>
<path d="M649.69 309.29L655.19 306.67"
fill="none" stroke="black" stroke-width="2"/>
<path d="M634.29 320.33L633.59 320.5M633.59 320.5L632.87 320.3M632.87 320.3L632.29 319.77M632.29 319.77L631.98 319.04M631.98 319.04L632.02 318.28M632.02 318.28L632.39 317.65M632.39 317.65L633.01 317.3M633.01 317.3L633.74 317.32M633.74 317.32L634.41 317.69M634.41 317.69L634.87 318.34M634.87 318.34L635.01 319.11M635.01 319.11L634.8 319.82M634.8 319.82L634.29 320.33"
fill="none" stroke="black" stroke-width="2"/>
<path d="M655.19 306.67L655.86 306.5M655.86 306.5L656.55 306.67M656.55 306.67L657.13 307.15M657.13 307.15L657.47 307.83M657.47 307.83L657.49 308.57M657.49 308.57L657.2 309.22M657.2 309.22L656.65 309.63"
fill="none" stroke="black" stroke-width="2"/>
<path d="M641.48 313.23L642.16 313.11M642.16 313.11L642.86 313.33M642.86 313.33L643.41 313.85M643.41 313.85L643.71 314.55M643.71 314.55L643.68 315.29M643.68 315.29L643.34 315.91M643.34 315.91L642.75 316.28"
fill="none" stroke="black" stroke-width="2"/>
<path d="M639.51 314.16L641.48 313.23"
fill="none" stroke="black" stroke-width="2"/>
</svg>
