<?xml version="1.0" encoding="UTF-8"?>
<svg xmlns="http://www.w3.org/2000/svg" width="800.000" height="600.000" viewBox="0.0 0.0 800.000 600.000" version="1.1">
  <title>Produce by Acme CAD Converter</title>
  <desc>Produce by Acme CAD Converter</desc>
<path d="M2.26 80.73L2.26 519.27"
fill="none" stroke="RGB(237,31,36)" stroke-width="0"/>
<path d="M2.82 156.6L73.75 158.46M73.75 158.46L144.68 159.97"
fill="none" stroke="RGB(2,158,33)" stroke-width="2"/>
<path d="M154.86 160.16L200.81 160.92"
fill="none" stroke="RGB(2,158,33)" stroke-width="2"/>
<path d="M210.9 161.06L261.19 161.68"
fill="none" stroke="RGB(2,158,33)" stroke-width="2"/>
<path d="M271.37 161.78L322.5 162.19"
fill="none" stroke="RGB(2,158,33)" stroke-width="2"/>
<path d="M332.68 162.25L387.26 162.44"
fill="none" stroke="RGB(2,158,33)" stroke-width="2"/>
<path d="M397.43 162.45L452.51 162.39"
fill="none" stroke="RGB(2,158,33)" stroke-width="2"/>
<path d="M462.69 162.36L522.17 162.01"
fill="none" stroke="RGB(2,158,33)" stroke-width="2"/>
<path d="M532.01 161.92L589.09 161.31"
fill="none" stroke="RGB(2,158,33)" stroke-width="2"/>
<path d="M599.27 161.18L657.97 160.26"
fill="none" stroke="RGB(2,158,33)" stroke-width="2"/>
<path d="M668.02 160.08L732.88 158.74M732.88 158.74L797.74 157.1"
fill="none" stroke="RGB(2,158,33)" stroke-width="2"/>
<path d="M144.68 323.65L144.68 319.5"
fill="none" stroke="black" stroke-width="2"/>
<path d="M144.68 315.84L144.68 158.96"
fill="none" stroke="black" stroke-width="2"/>
<path d="M154.86 323.65L154.86 158.96"
fill="none" stroke="black" stroke-width="2"/>
<path d="M144.68 158.96L144.87 159.51M144.87 159.51L145.42 160.03M145.42 160.03L146.3 160.46M146.3 160.46L147.43 160.79M147.43 160.79L148.74 160.98M148.74 160.98L150.12 161.01M150.12 161.01L151.48 160.9M151.48 160.9L152.71 160.64M152.71 160.64L153.72 160.26M153.72 160.26L154.44 159.78M154.44 159.78L154.81 159.24M154.81 159.24L154.81 158.68M154.81 158.68L154.44 158.14M154.44 158.14L153.72 157.66M153.72 157.66L152.71 157.27M152.71 157.27L151.48 157.01M151.48 157.01L150.12 156.9M150.12 156.9L148.74 156.94M148.74 156.94L147.43 157.13M147.43 157.13L146.3 157.45M146.3 157.45L145.42 157.89M145.42 157.89L144.87 158.4M144.87 158.4L144.68 158.96"
fill="none" stroke="black" stroke-width="2"/>
<path d="M144.68 323.65L144.86 324.18M144.86 324.18L145.36 324.68M145.36 324.68L146.17 325.1M146.17 325.1L147.23 325.43M147.23 325.43L148.45 325.64M148.45 325.64L149.77 325.71M149.77 325.71L151.09 325.64M151.09 325.64L152.32 325.43M152.32 325.43L153.37 325.1M153.37 325.1L154.18 324.68M154.18 324.68L154.69 324.18M154.69 324.18L154.86 323.65"
fill="none" stroke="black" stroke-width="2"/>
<path d="M139.46 322L148.28 317.78"
fill="none" stroke="black" stroke-width="2"/>
<path d="M154.86 314.63L161.97 311.23"
fill="none" stroke="black" stroke-width="2"/>
<path d="M137.85 319.11L144.68 315.84"
fill="none" stroke="black" stroke-width="2"/>
<path d="M154.86 310.97L160.36 308.34"
fill="none" stroke="black" stroke-width="2"/>
<path d="M139.46 322L138.76 322.17M138.76 322.17L138.04 321.97M138.04 321.97L137.46 321.45M137.46 321.45L137.15 320.72M137.15 320.72L137.19 319.95M137.19 319.95L137.56 319.32M137.56 319.32L138.18 318.98M138.18 318.98L138.91 318.99M138.91 318.99L139.58 319.37M139.58 319.37L140.04 320.01M140.04 320.01L140.18 320.78M140.18 320.78L139.97 321.5M139.97 321.5L139.46 322"
fill="none" stroke="black" stroke-width="2"/>
<path d="M160.36 308.34L161.03 308.17M161.03 308.17L161.72 308.34M161.72 308.34L162.3 308.82M162.3 308.82L162.64 309.5M162.64 309.5L162.66 310.25M162.66 310.25L162.37 310.89M162.37 310.89L161.82 311.3"
fill="none" stroke="black" stroke-width="2"/>
<path d="M146.65 314.91L147.33 314.78M147.33 314.78L148.03 315M148.03 315L148.58 315.52M148.58 315.52L148.87 316.23M148.87 316.23L148.85 316.97M148.85 316.97L148.51 317.59M148.51 317.59L147.92 317.95"
fill="none" stroke="black" stroke-width="2"/>
<path d="M144.68 315.84L146.65 314.91"
fill="none" stroke="black" stroke-width="2"/>
<path d="M200.81 325.36L200.81 321.22"
fill="none" stroke="black" stroke-width="2"/>
<path d="M200.81 317.56L200.81 160.67"
fill="none" stroke="black" stroke-width="2"/>
<path d="M210.99 325.36L210.99 160.67"
fill="none" stroke="black" stroke-width="2"/>
<path d="M200.81 160.67L201 161.23M201 161.23L201.55 161.74M201.55 161.74L202.42 162.18M202.42 162.18L203.56 162.5M203.56 162.5L204.86 162.69M204.86 162.69L206.25 162.73M206.25 162.73L207.6 162.61M207.6 162.61L208.83 162.36M208.83 162.36L209.85 161.97M209.85 161.97L210.57 161.49M210.57 161.49L210.94 160.95M210.94 160.95L210.94 160.39M210.94 160.39L210.57 159.85M210.57 159.85L209.85 159.37M209.85 159.37L208.83 158.99M208.83 158.99L207.6 158.73M207.6 158.73L206.25 158.61M206.25 158.61L204.86 158.65M204.86 158.65L203.56 158.84M203.56 158.84L202.42 159.16M202.42 159.16L201.55 159.6M201.55 159.6L201 160.12M201 160.12L200.81 160.67"
fill="none" stroke="black" stroke-width="2"/>
<path d="M200.81 325.36L200.98 325.89M200.98 325.89L201.49 326.39M201.49 326.39L202.3 326.82M202.3 326.82L203.35 327.15M203.35 327.15L204.58 327.35M204.58 327.35L205.9 327.42M205.9 327.42L207.22 327.35M207.22 327.35L208.44 327.15M208.44 327.15L209.5 326.82M209.5 326.82L210.31 326.39M210.31 326.39L210.81 325.89M210.81 325.89L210.99 325.36"
fill="none" stroke="black" stroke-width="2"/>
<path d="M195.58 323.72L204.41 319.49"
fill="none" stroke="black" stroke-width="2"/>
<path d="M210.99 316.35L218.09 312.95"
fill="none" stroke="black" stroke-width="2"/>
<path d="M193.97 320.82L200.81 317.56"
fill="none" stroke="black" stroke-width="2"/>
<path d="M210.99 312.69L216.48 310.06"
fill="none" stroke="black" stroke-width="2"/>
<path d="M195.58 323.72L194.89 323.89M194.89 323.89L194.17 323.69M194.17 323.69L193.59 323.16M193.59 323.16L193.28 322.43M193.28 322.43L193.32 321.67M193.32 321.67L193.69 321.04M193.69 321.04L194.31 320.69M194.31 320.69L195.04 320.71M195.04 320.71L195.71 321.08M195.71 321.08L196.17 321.73M196.17 321.73L196.3 322.5M196.3 322.5L196.1 323.22M196.1 323.22L195.58 323.72"
fill="none" stroke="black" stroke-width="2"/>
<path d="M216.48 310.06L217.15 309.89M217.15 309.89L217.85 310.06M217.85 310.06L218.43 310.54M218.43 310.54L218.76 311.22M218.76 311.22L218.79 311.96M218.79 311.96L218.49 312.61M218.49 312.61L217.95 313.02"
fill="none" stroke="black" stroke-width="2"/>
<path d="M202.78 316.63L203.46 316.5M203.46 316.5L204.15 316.72M204.15 316.72L204.71 317.24M204.71 317.24L205 317.94M205 317.94L204.97 318.69M204.97 318.69L204.63 319.3M204.63 319.3L204.05 319.67"
fill="none" stroke="black" stroke-width="2"/>
<path d="M200.81 317.56L202.78 316.63"
fill="none" stroke="black" stroke-width="2"/>
<path d="M261.19 326.29L261.19 322.14"
fill="none" stroke="black" stroke-width="2"/>
<path d="M261.19 318.48L261.19 161.6"
fill="none" stroke="black" stroke-width="2"/>
<path d="M271.37 326.29L271.37 161.6"
fill="none" stroke="black" stroke-width="2"/>
<path d="M261.19 161.6L261.38 162.16M261.38 162.16L261.93 162.67M261.93 162.67L262.81 163.11M262.81 163.11L263.94 163.43M263.94 163.43L265.24 163.62M265.24 163.62L266.63 163.66M266.63 163.66L267.98 163.54M267.98 163.54L269.22 163.28M269.22 163.28L270.23 162.9M270.23 162.9L270.95 162.42M270.95 162.42L271.32 161.88M271.32 161.88L271.32 161.32M271.32 161.32L270.95 160.78M270.95 160.78L270.23 160.3M270.23 160.3L269.22 159.91M269.22 159.91L267.98 159.66M267.98 159.66L266.63 159.54M266.63 159.54L265.24 159.58M265.24 159.58L263.94 159.77M263.94 159.77L262.81 160.09M262.81 160.09L261.93 160.53M261.93 160.53L261.38 161.04M261.38 161.04L261.19 161.6"
fill="none" stroke="black" stroke-width="2"/>
<path d="M261.19 326.29L261.36 326.82M261.36 326.82L261.87 327.32M261.87 327.32L262.68 327.75M262.68 327.75L263.73 328.07M263.73 328.07L264.96 328.28M264.96 328.28L266.28 328.35M266.28 328.35L267.6 328.28M267.6 328.28L268.82 328.07M268.82 328.07L269.88 327.75M269.88 327.75L270.69 327.32M270.69 327.32L271.2 326.82M271.2 326.82L271.37 326.29"
fill="none" stroke="black" stroke-width="2"/>
<path d="M255.97 324.64L264.79 320.42"
fill="none" stroke="black" stroke-width="2"/>
<path d="M271.37 317.28L278.47 313.88"
fill="none" stroke="black" stroke-width="2"/>
<path d="M254.36 321.75L261.19 318.48"
fill="none" stroke="black" stroke-width="2"/>
<path d="M271.37 313.61L276.87 310.98"
fill="none" stroke="black" stroke-width="2"/>
<path d="M255.97 324.64L255.27 324.81M255.27 324.81L254.55 324.61M254.55 324.61L253.97 324.09M253.97 324.09L253.66 323.36M253.66 323.36L253.7 322.59M253.7 322.59L254.07 321.97M254.07 321.97L254.69 321.62M254.69 321.62L255.42 321.64M255.42 321.64L256.09 322.01M256.09 322.01L256.55 322.66M256.55 322.66L256.69 323.43M256.69 323.43L256.48 324.14M256.48 324.14L255.97 324.64"
fill="none" stroke="black" stroke-width="2"/>
<path d="M276.87 310.98L277.53 310.81M277.53 310.81L278.23 310.99M278.23 310.99L278.81 311.46M278.81 311.46L279.14 312.15M279.14 312.15L279.17 312.89M279.17 312.89L278.88 313.54M278.88 313.54L278.33 313.95"
fill="none" stroke="black" stroke-width="2"/>
<path d="M263.16 317.55L263.84 317.43M263.84 317.43L264.53 317.65M264.53 317.65L265.09 318.16M265.09 318.16L265.38 318.87M265.38 318.87L265.36 319.61M265.36 319.61L265.01 320.23M265.01 320.23L264.43 320.6"
fill="none" stroke="black" stroke-width="2"/>
<path d="M261.19 318.48L263.16 317.55"
fill="none" stroke="black" stroke-width="2"/>
<path d="M322.5 326.29L322.5 322.14"
fill="none" stroke="black" stroke-width="2"/>
<path d="M322.5 318.48L322.5 161.6"
fill="none" stroke="black" stroke-width="2"/>
<path d="M332.68 326.29L332.68 161.6"
fill="none" stroke="black" stroke-width="2"/>
<path d="M322.5 161.6L322.69 162.16M322.69 162.16L323.24 162.67M323.24 162.67L324.11 163.11M324.11 163.11L325.25 163.43M325.25 163.43L326.55 163.62M326.55 163.62L327.94 163.66M327.94 163.66L329.29 163.54M329.29 163.54L330.52 163.28M330.52 163.28L331.54 162.9M331.54 162.9L332.26 162.42M332.26 162.42L332.63 161.88M332.63 161.88L332.63 161.32M332.63 161.32L332.26 160.78M332.26 160.78L331.54 160.3M331.54 160.3L330.52 159.91M330.52 159.91L329.29 159.66M329.29 159.66L327.94 159.54M327.94 159.54L326.55 159.58M326.55 159.58L325.25 159.77M325.25 159.77L324.11 160.09M324.11 160.09L323.24 160.53M323.24 160.53L322.69 161.04M322.69 161.04L322.5 161.6"
fill="none" stroke="black" stroke-width="2"/>
<path d="M322.5 326.29L322.67 326.82M322.67 326.82L323.18 327.32M323.18 327.32L323.99 327.75M323.99 327.75L325.04 328.07M325.04 328.07L326.27 328.28M326.27 328.28L327.59 328.35M327.59 328.35L328.91 328.28M328.91 328.28L330.13 328.07M330.13 328.07L331.19 327.75M331.19 327.75L332 327.32M332 327.32L332.5 326.82M332.5 326.82L332.68 326.29"
fill="none" stroke="black" stroke-width="2"/>
<path d="M317.27 324.64L326.1 320.42"
fill="none" stroke="black" stroke-width="2"/>
<path d="M332.68 317.28L339.78 313.88"
fill="none" stroke="black" stroke-width="2"/>
<path d="M315.66 321.75L322.5 318.48"
fill="none" stroke="black" stroke-width="2"/>
<path d="M332.68 313.61L338.17 310.98"
fill="none" stroke="black" stroke-width="2"/>
<path d="M317.27 324.64L316.58 324.81M316.58 324.81L315.86 324.61M315.86 324.61L315.28 324.09M315.28 324.09L314.97 323.36M314.97 323.36L315.01 322.59M315.01 322.59L315.38 321.97M315.38 321.97L316 321.62M316 321.62L316.73 321.64M316.73 321.64L317.4 322.01M317.4 322.01L317.86 322.66M317.86 322.66L317.99 323.43M317.99 323.43L317.79 324.14M317.79 324.14L317.27 324.64"
fill="none" stroke="black" stroke-width="2"/>
<path d="M338.17 310.98L338.84 310.81M338.84 310.81L339.54 310.99M339.54 310.99L340.12 311.46M340.12 311.46L340.45 312.15M340.45 312.15L340.48 312.89M340.48 312.89L340.18 313.54M340.18 313.54L339.64 313.95"
fill="none" stroke="black" stroke-width="2"/>
<path d="M324.47 317.55L325.15 317.43M325.15 317.43L325.84 317.65M325.84 317.65L326.4 318.16M326.4 318.16L326.69 318.87M326.69 318.87L326.66 319.61M326.66 319.61L326.32 320.23M326.32 320.23L325.74 320.6"
fill="none" stroke="black" stroke-width="2"/>
<path d="M322.5 318.48L324.47 317.55"
fill="none" stroke="black" stroke-width="2"/>
<path d="M387.25 327.06L387.25 322.91"
fill="none" stroke="black" stroke-width="2"/>
<path d="M387.25 319.25L387.25 162.37"
fill="none" stroke="black" stroke-width="2"/>
<path d="M397.43 327.06L397.43 162.37"
fill="none" stroke="black" stroke-width="2"/>
<path d="M387.25 162.37L387.44 162.92M387.44 162.92L388 163.44M388 163.44L388.87 163.87M388.87 163.87L390 164.2M390 164.2L391.31 164.39M391.31 164.39L392.69 164.42M392.69 164.42L394.05 164.31M394.05 164.31L395.28 164.05M395.28 164.05L396.29 163.67M396.29 163.67L397.01 163.19M397.01 163.19L397.39 162.65M397.39 162.65L397.39 162.09M397.39 162.09L397.01 161.55M397.01 161.55L396.29 161.07M396.29 161.07L395.28 160.68M395.28 160.68L394.05 160.42M394.05 160.42L392.69 160.31M392.69 160.31L391.31 160.35M391.31 160.35L390 160.54M390 160.54L388.87 160.86M388.87 160.86L388 161.3M388 161.3L387.44 161.81M387.44 161.81L387.25 162.37"
fill="none" stroke="black" stroke-width="2"/>
<path d="M387.25 327.06L387.43 327.59M387.43 327.59L387.94 328.09M387.94 328.09L388.75 328.51M388.75 328.51L389.8 328.84M389.8 328.84L391.03 329.05M391.03 329.05L392.34 329.12M392.34 329.12L393.66 329.05M393.66 329.05L394.89 328.84M394.89 328.84L395.94 328.51M395.94 328.51L396.75 328.09M396.75 328.09L397.26 327.59M397.26 327.59L397.43 327.06"
fill="none" stroke="black" stroke-width="2"/>
<path d="M382.03 325.41L390.85 321.19"
fill="none" stroke="black" stroke-width="2"/>
<path d="M397.43 318.04L404.54 314.64"
fill="none" stroke="black" stroke-width="2"/>
<path d="M380.42 322.52L387.25 319.25"
fill="none" stroke="black" stroke-width="2"/>
<path d="M397.43 314.38L402.93 311.75"
fill="none" stroke="black" stroke-width="2"/>
<path d="M382.03 325.41L381.33 325.58M381.33 325.58L380.61 325.38M380.61 325.38L380.03 324.86M380.03 324.86L379.73 324.13M379.73 324.13L379.76 323.36M379.76 323.36L380.13 322.73M380.13 322.73L380.75 322.39M380.75 322.39L381.48 322.4M381.48 322.4L382.15 322.78M382.15 322.78L382.61 323.42M382.61 323.42L382.75 324.19M382.75 324.19L382.54 324.91M382.54 324.91L382.03 325.41"
fill="none" stroke="black" stroke-width="2"/>
<path d="M402.93 311.75L403.6 311.58M403.6 311.58L404.29 311.75M404.29 311.75L404.87 312.23M404.87 312.23L405.21 312.92M405.21 312.92L405.23 313.66M405.23 313.66L404.94 314.3M404.94 314.3L404.39 314.71"
fill="none" stroke="black" stroke-width="2"/>
<path d="M389.22 318.32L389.91 318.19M389.91 318.19L390.6 318.41M390.6 318.41L391.15 318.93M391.15 318.93L391.45 319.64M391.45 319.64L391.42 320.38M391.42 320.38L391.08 321M391.08 321L390.49 321.36"
fill="none" stroke="black" stroke-width="2"/>
<path d="M387.25 319.25L389.22 318.32"
fill="none" stroke="black" stroke-width="2"/>
<path d="M452.51 327.06L452.51 322.91"
fill="none" stroke="black" stroke-width="2"/>
<path d="M452.51 319.25L452.51 162.37"
fill="none" stroke="black" stroke-width="2"/>
<path d="M462.69 327.06L462.69 162.37"
fill="none" stroke="black" stroke-width="2"/>
<path d="M452.51 162.37L452.7 162.92M452.7 162.92L453.26 163.44M453.26 163.44L454.13 163.87M454.13 163.87L455.26 164.2M455.26 164.2L456.57 164.39M456.57 164.39L457.95 164.42M457.95 164.42L459.31 164.31M459.31 164.31L460.54 164.05M460.54 164.05L461.55 163.67M461.55 163.67L462.27 163.19M462.27 163.19L462.65 162.65M462.65 162.65L462.65 162.09M462.65 162.09L462.27 161.55M462.27 161.55L461.55 161.07M461.55 161.07L460.54 160.68M460.54 160.68L459.31 160.42M459.31 160.42L457.95 160.31M457.95 160.31L456.57 160.35M456.57 160.35L455.26 160.54M455.26 160.54L454.13 160.86M454.13 160.86L453.26 161.3M453.26 161.3L452.7 161.81M452.7 161.81L452.51 162.37"
fill="none" stroke="black" stroke-width="2"/>
<path d="M452.51 327.06L452.69 327.59M452.69 327.59L453.2 328.09M453.2 328.09L454.01 328.51M454.01 328.51L455.06 328.84M455.06 328.84L456.29 329.05M456.29 329.05L457.6 329.12M457.6 329.12L458.92 329.05M458.92 329.05L460.15 328.84M460.15 328.84L461.2 328.51M461.2 328.51L462.01 328.09M462.01 328.09L462.52 327.59M462.52 327.59L462.69 327.06"
fill="none" stroke="black" stroke-width="2"/>
<path d="M447.29 325.41L456.11 321.19"
fill="none" stroke="black" stroke-width="2"/>
<path d="M462.69 318.04L469.8 314.64"
fill="none" stroke="black" stroke-width="2"/>
<path d="M445.68 322.52L452.51 319.25"
fill="none" stroke="black" stroke-width="2"/>
<path d="M462.69 314.38L468.19 311.75"
fill="none" stroke="black" stroke-width="2"/>
<path d="M447.29 325.41L446.59 325.58M446.59 325.58L445.87 325.38M445.87 325.38L445.29 324.86M445.29 324.86L444.99 324.13M444.99 324.13L445.02 323.36M445.02 323.36L445.39 322.73M445.39 322.73L446.02 322.39M446.02 322.39L446.74 322.4M446.74 322.4L447.41 322.78M447.41 322.78L447.87 323.42M447.87 323.42L448.01 324.19M448.01 324.19L447.8 324.91M447.8 324.91L447.29 325.41"
fill="none" stroke="black" stroke-width="2"/>
<path d="M468.19 311.75L468.86 311.58M468.86 311.58L469.55 311.75M469.55 311.75L470.13 312.23M470.13 312.23L470.47 312.92M470.47 312.92L470.49 313.66M470.49 313.66L470.2 314.3M470.2 314.3L469.65 314.71"
fill="none" stroke="black" stroke-width="2"/>
<path d="M454.48 318.32L455.17 318.19M455.17 318.19L455.86 318.41M455.86 318.41L456.41 318.93M456.41 318.93L456.71 319.64M456.71 319.64L456.68 320.38M456.68 320.38L456.34 321M456.34 321L455.75 321.36"
fill="none" stroke="black" stroke-width="2"/>
<path d="M452.51 319.25L454.48 318.32"
fill="none" stroke="black" stroke-width="2"/>
<path d="M521.97 326.13L521.97 321.98"
fill="none" stroke="black" stroke-width="2"/>
<path d="M521.97 318.32L521.97 161.44"
fill="none" stroke="black" stroke-width="2"/>
<path d="M532.15 326.13L532.15 161.44"
fill="none" stroke="black" stroke-width="2"/>
<path d="M521.97 161.44L522.16 161.99M522.16 161.99L522.71 162.51M522.71 162.51L523.59 162.94M523.59 162.94L524.72 163.27M524.72 163.27L526.03 163.46M526.03 163.46L527.41 163.49M527.41 163.49L528.77 163.38M528.77 163.38L530 163.12M530 163.12L531.01 162.74M531.01 162.74L531.73 162.26M531.73 162.26L532.1 161.72M532.1 161.72L532.1 161.16M532.1 161.16L531.73 160.61M531.73 160.61L531.01 160.13M531.01 160.13L530 159.75M530 159.75L528.77 159.49M528.77 159.49L527.41 159.38M527.41 159.38L526.03 159.42M526.03 159.42L524.72 159.61M524.72 159.61L523.59 159.93M523.59 159.93L522.71 160.36M522.71 160.36L522.16 160.88M522.16 160.88L521.97 161.44"
fill="none" stroke="black" stroke-width="2"/>
<path d="M521.97 326.13L522.14 326.66M522.14 326.66L522.65 327.16M522.65 327.16L523.46 327.58M523.46 327.58L524.52 327.91M524.52 327.91L525.74 328.12M525.74 328.12L527.06 328.19M527.06 328.19L528.38 328.12M528.38 328.12L529.61 327.91M529.61 327.91L530.66 327.58M530.66 327.58L531.47 327.16M531.47 327.16L531.98 326.66M531.98 326.66L532.15 326.13"
fill="none" stroke="black" stroke-width="2"/>
<path d="M516.75 324.48L525.57 320.26"
fill="none" stroke="black" stroke-width="2"/>
<path d="M532.15 317.11L539.26 313.71"
fill="none" stroke="black" stroke-width="2"/>
<path d="M515.14 321.59L521.97 318.32"
fill="none" stroke="black" stroke-width="2"/>
<path d="M532.15 313.45L537.65 310.82"
fill="none" stroke="black" stroke-width="2"/>
<path d="M516.75 324.48L516.05 324.65M516.05 324.65L515.33 324.45M515.33 324.45L514.75 323.93M514.75 323.93L514.44 323.2M514.44 323.2L514.48 322.43M514.48 322.43L514.85 321.8M514.85 321.8L515.47 321.46M515.47 321.46L516.2 321.47M516.2 321.47L516.87 321.85M516.87 321.85L517.33 322.49M517.33 322.49L517.47 323.26M517.47 323.26L517.26 323.98M517.26 323.98L516.75 324.48"
fill="none" stroke="black" stroke-width="2"/>
<path d="M537.65 310.82L538.31 310.65M538.31 310.65L539.01 310.82M539.01 310.82L539.59 311.3M539.59 311.3L539.93 311.98M539.93 311.98L539.95 312.73M539.95 312.73L539.66 313.37M539.66 313.37L539.11 313.78"
fill="none" stroke="black" stroke-width="2"/>
<path d="M523.94 317.39L524.62 317.26M524.62 317.26L525.32 317.48M525.32 317.48L525.87 318M525.87 318L526.16 318.71M526.16 318.71L526.14 319.45M526.14 319.45L525.79 320.07M525.79 320.07L525.21 320.43"
fill="none" stroke="black" stroke-width="2"/>
<path d="M521.97 318.32L523.94 317.39"
fill="none" stroke="black" stroke-width="2"/>
<path d="M589.09 325.19L589.09 321.05"
fill="none" stroke="black" stroke-width="2"/>
<path d="M589.09 317.39L589.09 160.51"
fill="none" stroke="black" stroke-width="2"/>
<path d="M599.27 325.19L599.27 160.51"
fill="none" stroke="black" stroke-width="2"/>
<path d="M589.09 160.51L589.28 161.06M589.28 161.06L589.83 161.58M589.83 161.58L590.71 162.01M590.71 162.01L591.84 162.34M591.84 162.34L593.15 162.52M593.15 162.52L594.53 162.56M594.53 162.56L595.89 162.45M595.89 162.45L597.12 162.19M597.12 162.19L598.13 161.81M598.13 161.81L598.85 161.33M598.85 161.33L599.22 160.79M599.22 160.79L599.22 160.22M599.22 160.22L598.85 159.68M598.85 159.68L598.13 159.2M598.13 159.2L597.12 158.82M597.12 158.82L595.89 158.56M595.89 158.56L594.53 158.45M594.53 158.45L593.15 158.49M593.15 158.49L591.84 158.67M591.84 158.67L590.71 159M590.71 159L589.83 159.43M589.83 159.43L589.28 159.95M589.28 159.95L589.09 160.51"
fill="none" stroke="black" stroke-width="2"/>
<path d="M589.09 325.19L589.27 325.73M589.27 325.73L589.77 326.23M589.77 326.23L590.58 326.65M590.58 326.65L591.64 326.98M591.64 326.98L592.86 327.19M592.86 327.19L594.18 327.26M594.18 327.26L595.5 327.19M595.5 327.19L596.73 326.98M596.73 326.98L597.78 326.65M597.78 326.65L598.59 326.23M598.59 326.23L599.1 325.73M599.1 325.73L599.27 325.19"
fill="none" stroke="black" stroke-width="2"/>
<path d="M583.87 323.55L592.69 319.33"
fill="none" stroke="black" stroke-width="2"/>
<path d="M599.27 316.18L606.38 312.78"
fill="none" stroke="black" stroke-width="2"/>
<path d="M582.26 320.66L589.09 317.39"
fill="none" stroke="black" stroke-width="2"/>
<path d="M599.27 312.52L604.77 309.89"
fill="none" stroke="black" stroke-width="2"/>
<path d="M583.87 323.55L583.17 323.72M583.17 323.72L582.45 323.52M582.45 323.52L581.87 323M581.87 323L581.56 322.27M581.56 322.27L581.6 321.5M581.6 321.5L581.97 320.87M581.97 320.87L582.59 320.53M582.59 320.53L583.32 320.54M583.32 320.54L583.99 320.92M583.99 320.92L584.45 321.56M584.45 321.56L584.59 322.33M584.59 322.33L584.38 323.05M584.38 323.05L583.87 323.55"
fill="none" stroke="black" stroke-width="2"/>
<path d="M604.77 309.89L605.44 309.72M605.44 309.72L606.13 309.89M606.13 309.89L606.71 310.37M606.71 310.37L607.05 311.05M607.05 311.05L607.07 311.8M607.07 311.8L606.78 312.44M606.78 312.44L606.23 312.85"
fill="none" stroke="black" stroke-width="2"/>
<path d="M591.06 316.46L591.74 316.33M591.74 316.33L592.44 316.55M592.44 316.55L592.99 317.07M592.99 317.07L593.28 317.78M593.28 317.78L593.26 318.52M593.26 318.52L592.92 319.14M592.92 319.14L592.33 319.5"
fill="none" stroke="black" stroke-width="2"/>
<path d="M589.09 317.39L591.06 316.46"
fill="none" stroke="black" stroke-width="2"/>
<path d="M657.87 324.54L657.87 320.4"
fill="none" stroke="black" stroke-width="2"/>
<path d="M657.87 316.74L657.87 159.86"
fill="none" stroke="black" stroke-width="2"/>
<path d="M668.05 324.54L668.05 159.86"
fill="none" stroke="black" stroke-width="2"/>
<path d="M657.87 159.86L658.06 160.41M658.06 160.41L658.62 160.93M658.62 160.93L659.49 161.36M659.49 161.36L660.62 161.69M660.62 161.69L661.93 161.87M661.93 161.87L663.31 161.91M663.31 161.91L664.67 161.8M664.67 161.8L665.9 161.54M665.9 161.54L666.91 161.16M666.91 161.16L667.63 160.68M667.63 160.68L668.01 160.14M668.01 160.14L668.01 159.58M668.01 159.58L667.63 159.03M667.63 159.03L666.91 158.55M666.91 158.55L665.9 158.17M665.9 158.17L664.67 157.91M664.67 157.91L663.31 157.8M663.31 157.8L661.93 157.84M661.93 157.84L660.62 158.03M660.62 158.03L659.49 158.35M659.49 158.35L658.62 158.78M658.62 158.78L658.06 159.3M658.06 159.3L657.87 159.86"
fill="none" stroke="black" stroke-width="2"/>
<path d="M657.87 324.54L658.05 325.08M658.05 325.08L658.56 325.58M658.56 325.58L659.37 326M659.37 326L660.42 326.33M660.42 326.33L661.65 326.54M661.65 326.54L662.96 326.61M662.96 326.61L664.28 326.54M664.28 326.54L665.51 326.33M665.51 326.33L666.56 326M666.56 326L667.37 325.58M667.37 325.58L667.88 325.08M667.88 325.08L668.05 324.54"
fill="none" stroke="black" stroke-width="2"/>
<path d="M652.65 322.9L661.47 318.68"
fill="none" stroke="black" stroke-width="2"/>
<path d="M668.05 315.53L675.16 312.13"
fill="none" stroke="black" stroke-width="2"/>
<path d="M651.04 320.01L657.87 316.74"
fill="none" stroke="black" stroke-width="2"/>
<path d="M668.05 311.87L673.55 309.24"
fill="none" stroke="black" stroke-width="2"/>
<path d="M652.65 322.9L651.95 323.07M651.95 323.07L651.23 322.87M651.23 322.87L650.65 322.35M650.65 322.35L650.35 321.62M650.35 321.62L650.38 320.85M650.38 320.85L650.75 320.22M650.75 320.22L651.37 319.88M651.37 319.88L652.1 319.89M652.1 319.89L652.77 320.27M652.77 320.27L653.23 320.91M653.23 320.91L653.37 321.68M653.37 321.68L653.16 322.4M653.16 322.4L652.65 322.9"
fill="none" stroke="black" stroke-width="2"/>
<path d="M673.55 309.24L674.22 309.07M674.22 309.07L674.91 309.24M674.91 309.24L675.49 309.72M675.49 309.72L675.83 310.4M675.83 310.4L675.85 311.15M675.85 311.15L675.56 311.79M675.56 311.79L675.01 312.2"
fill="none" stroke="black" stroke-width="2"/>
<path d="M659.84 315.81L660.53 315.68M660.53 315.68L661.22 315.9M661.22 315.9L661.77 316.42M661.77 316.42L662.07 317.13M662.07 317.13L662.04 317.87M662.04 317.87L661.7 318.49M661.7 318.49L661.11 318.85"
fill="none" stroke="black" stroke-width="2"/>
<path d="M657.87 316.74L659.84 315.81"
fill="none" stroke="black" stroke-width="2"/>
</svg>
