<?xml version="1.0" encoding="UTF-8"?>
<svg xmlns="http://www.w3.org/2000/svg" width="800.000" height="600.000" viewBox="0.0 0.0 800.000 600.000" version="1.1">
  <title>Produce by Acme CAD Converter</title>
  <desc>Produce by Acme CAD Converter</desc>
<path d="M2.26 80.73L2.26 519.27"
fill="none" stroke="RGB(237,31,36)" stroke-width="0"/>
<path d="M2.82 156.6L52.46 159.45M52.46 159.45L102.11 161.93M102.11 161.93L151.77 164.03M151.77 164.03L201.46 165.75M201.46 165.75L251.15 167.1M251.15 167.1L300.85 168.07M300.85 168.07L350.56 168.67M350.56 168.67L400.27 168.89M400.27 168.89L449.98 168.73M449.98 168.73L499.69 168.2M499.69 168.2L549.4 167.29M549.4 167.29L599.09 166.01M599.09 166.01L648.78 164.34M648.78 164.34L698.45 162.31M698.45 162.31L748.1 159.89M748.1 159.89L797.74 157.1"
fill="none" stroke="RGB(2,158,33)" stroke-width="2"/>
<path d="M2.82 156.6L91.13 158.87M91.13 158.87L179.45 160.58M179.45 160.58L267.78 161.75M267.78 161.75L356.11 162.36M356.11 162.36L444.44 162.41M444.44 162.41L532.78 161.92M532.78 161.92L621.11 160.87M621.11 160.87L709.43 159.26M709.43 159.26L797.74 157.1"
fill="none" stroke="RGB(2,158,33)" stroke-width="2"/>
<path d="M142.3 273.21L135.16 299.53"
fill="none" stroke="black" stroke-width="2"/>
<path d="M134.11 270.99L126.97 297.31"
fill="none" stroke="black" stroke-width="2"/>
<path d="M126.82 298.42L127.01 297.17M127.01 297.17L127.56 296.03M127.56 296.03L128.42 295.1M128.42 295.1L129.51 294.47M129.51 294.47L130.75 294.19M130.75 294.19L132.01 294.28M132.01 294.28L133.18 294.75M133.18 294.75L134.17 295.53M134.17 295.53L134.89 296.58M134.89 296.58L135.26 297.79M135.26 297.79L135.26 299.05M135.26 299.05L134.89 300.26M134.89 300.26L134.17 301.3M134.17 301.3L133.18 302.09M133.18 302.09L132.01 302.55M132.01 302.55L130.75 302.65M130.75 302.65L129.51 302.37M129.51 302.37L128.42 301.73M128.42 301.73L127.56 300.81M127.56 300.81L127.01 299.67M127.01 299.67L126.82 298.42"
fill="none" stroke="black" stroke-width="2"/>
<path d="M142.3 273.21L142.44 272.01M142.44 272.01L142.25 270.82M142.25 270.82L141.72 269.74M141.72 269.74L140.91 268.84M140.91 268.84L139.89 268.21M139.89 268.21L138.72 267.89M138.72 267.89L137.51 267.92M137.51 267.92L136.36 268.28M136.36 268.28L135.36 268.95M135.36 268.95L134.59 269.88M134.59 269.88L134.11 270.99"
fill="none" stroke="black" stroke-width="2"/>
<path d="M131.37 293.08L131.37 163.21"
fill="none" stroke="black" stroke-width="2"/>
<path d="M138.02 268.58L138.02 159.85"
fill="none" stroke="black" stroke-width="2"/>
<path d="M131.67 293.08L131.58 292.92M131.58 292.92L131.37 292.86M131.37 292.86L131.15 292.92M131.15 292.92L131.06 293.08M131.06 293.08L131.15 293.23M131.15 293.23L131.37 293.3M131.37 293.3L131.58 293.23M131.58 293.23L131.67 293.08"
fill="none" stroke="black" stroke-width="2"/>
<path d="M138.32 268.58L138.23 268.43M138.23 268.43L138.02 268.36M138.02 268.36L137.8 268.43M137.8 268.43L137.71 268.58M137.71 268.58L137.8 268.74M137.8 268.74L138.02 268.8M138.02 268.8L138.23 268.74M138.23 268.74L138.32 268.58"
fill="none" stroke="black" stroke-width="2"/>
<path d="M198.42 290.4L191.28 316.72"
fill="none" stroke="black" stroke-width="2"/>
<path d="M190.23 288.18L183.09 314.5"
fill="none" stroke="black" stroke-width="2"/>
<path d="M182.94 315.61L183.13 314.36M183.13 314.36L183.68 313.22M183.68 313.22L184.54 312.3M184.54 312.3L185.63 311.66M185.63 311.66L186.87 311.38M186.87 311.38L188.13 311.48M188.13 311.48L189.3 311.94M189.3 311.94L190.29 312.73M190.29 312.73L191.01 313.77M191.01 313.77L191.38 314.98M191.38 314.98L191.38 316.24M191.38 316.24L191.01 317.45M191.01 317.45L190.29 318.5M190.29 318.5L189.3 319.28M189.3 319.28L188.13 319.75M188.13 319.75L186.87 319.84M186.87 319.84L185.63 319.56M185.63 319.56L184.54 318.93M184.54 318.93L183.68 318M183.68 318L183.13 316.86M183.13 316.86L182.94 315.61"
fill="none" stroke="black" stroke-width="2"/>
<path d="M198.42 290.4L198.56 289.21M198.56 289.21L198.37 288.02M198.37 288.02L197.84 286.93M197.84 286.93L197.03 286.03M197.03 286.03L196 285.4M196 285.4L194.84 285.08M194.84 285.08L193.63 285.11M193.63 285.11L192.48 285.47M192.48 285.47L191.48 286.15M191.48 286.15L190.71 287.08M190.71 287.08L190.23 288.18"
fill="none" stroke="black" stroke-width="2"/>
<path d="M187.49 310.27L187.48 272.34"
fill="none" stroke="black" stroke-width="2"/>
<path d="M194.14 285.78L194.14 249.2"
fill="none" stroke="black" stroke-width="2"/>
<path d="M187.79 310.27L187.7 310.11M187.7 310.11L187.49 310.05M187.49 310.05L187.27 310.11M187.27 310.11L187.18 310.27M187.18 310.27L187.27 310.43M187.27 310.43L187.49 310.49M187.49 310.49L187.7 310.43M187.7 310.43L187.79 310.27"
fill="none" stroke="black" stroke-width="2"/>
<path d="M194.44 285.78L194.35 285.62M194.35 285.62L194.14 285.55M194.14 285.55L193.92 285.62M193.92 285.62L193.83 285.78M193.83 285.78L193.92 285.93M193.92 285.93L194.14 286M194.14 286L194.35 285.93M194.35 285.93L194.44 285.78"
fill="none" stroke="black" stroke-width="2"/>
<path d="M187.49 262.96L187.49 165.3"
fill="none" stroke="black" stroke-width="2"/>
<path d="M192.41 227.05L192.41 160.79"
fill="none" stroke="black" stroke-width="2"/>
<path d="M195.14 241.63L191.54 268.66"
fill="none" stroke="black" stroke-width="2"/>
<path d="M186.73 240.51L183.13 267.54"
fill="none" stroke="black" stroke-width="2"/>
<path d="M183.1 268.1L183.28 266.85M183.28 266.85L183.83 265.71M183.83 265.71L184.69 264.78M184.69 264.78L185.79 264.15M185.79 264.15L187.02 263.87M187.02 263.87L188.28 263.96M188.28 263.96L189.46 264.42M189.46 264.42L190.45 265.21M190.45 265.21L191.16 266.26M191.16 266.26L191.53 267.47M191.53 267.47L191.53 268.73M191.53 268.73L191.16 269.94M191.16 269.94L190.45 270.98M190.45 270.98L189.46 271.77M189.46 271.77L188.28 272.23M188.28 272.23L187.02 272.33M187.02 272.33L185.79 272.05M185.79 272.05L184.69 271.41M184.69 271.41L183.83 270.49M183.83 270.49L183.28 269.35M183.28 269.35L183.1 268.1"
fill="none" stroke="black" stroke-width="2"/>
<path d="M196.62 230.56L196.61 229.35M196.61 229.35L196.25 228.19M196.25 228.19L195.59 227.19M195.59 227.19L194.67 226.4M194.67 226.4L193.57 225.91M193.57 225.91L192.37 225.75M192.37 225.75L191.18 225.94M191.18 225.94L190.08 226.45M190.08 226.45L189.18 227.25M189.18 227.25L188.54 228.27M188.54 228.27L188.21 229.44"
fill="none" stroke="black" stroke-width="2"/>
<path d="M195.14 241.63L196.62 230.56"
fill="none" stroke="black" stroke-width="2"/>
<path d="M186.73 240.51L188.21 229.44"
fill="none" stroke="black" stroke-width="2"/>
<path d="M187.79 262.96L187.7 262.81M187.7 262.81L187.49 262.74M187.49 262.74L187.27 262.81M187.27 262.81L187.18 262.96M187.18 262.96L187.27 263.12M187.27 263.12L187.49 263.19M187.49 263.19L187.7 263.12M187.7 263.12L187.79 262.96"
fill="none" stroke="black" stroke-width="2"/>
<path d="M192.72 227.05L192.63 226.89M192.63 226.89L192.41 226.83M192.41 226.83L192.2 226.89M192.2 226.89L192.11 227.05M192.11 227.05L192.2 227.2M192.2 227.2L192.41 227.27M192.41 227.27L192.63 227.2M192.63 227.2L192.72 227.05"
fill="none" stroke="black" stroke-width="2"/>
<path d="M257.21 273.71L250.07 300.03"
fill="none" stroke="black" stroke-width="2"/>
<path d="M249.02 271.49L241.88 297.81"
fill="none" stroke="black" stroke-width="2"/>
<path d="M241.74 298.92L241.92 297.67M241.92 297.67L242.47 296.53M242.47 296.53L243.33 295.6M243.33 295.6L244.43 294.97M244.43 294.97L245.66 294.69M245.66 294.69L246.92 294.78M246.92 294.78L248.1 295.24M248.1 295.24L249.09 296.03M249.09 296.03L249.8 297.08M249.8 297.08L250.17 298.29M250.17 298.29L250.17 299.55M250.17 299.55L249.8 300.76M249.8 300.76L249.09 301.8M249.09 301.8L248.1 302.59M248.1 302.59L246.92 303.05M246.92 303.05L245.66 303.15M245.66 303.15L244.43 302.87M244.43 302.87L243.33 302.23M243.33 302.23L242.47 301.31M242.47 301.31L241.92 300.17M241.92 300.17L241.74 298.92"
fill="none" stroke="black" stroke-width="2"/>
<path d="M257.21 273.71L257.36 272.51M257.36 272.51L257.16 271.32M257.16 271.32L256.64 270.23M256.64 270.23L255.83 269.34M255.83 269.34L254.8 268.71M254.8 268.71L253.63 268.39M253.63 268.39L252.43 268.42M252.43 268.42L251.28 268.78M251.28 268.78L250.27 269.45M250.27 269.45L249.5 270.38M249.5 270.38L249.02 271.49"
fill="none" stroke="black" stroke-width="2"/>
<path d="M246.28 293.58L246.28 166.98"
fill="none" stroke="black" stroke-width="2"/>
<path d="M252.93 269.08L252.93 161.59"
fill="none" stroke="black" stroke-width="2"/>
<path d="M246.59 293.58L246.5 293.42M246.5 293.42L246.28 293.35M246.28 293.35L246.07 293.42M246.07 293.42L245.98 293.58M245.98 293.58L246.07 293.73M246.07 293.73L246.28 293.8M246.28 293.8L246.5 293.73M246.5 293.73L246.59 293.58"
fill="none" stroke="black" stroke-width="2"/>
<path d="M253.23 269.08L253.15 268.93M253.15 268.93L252.93 268.86M252.93 268.86L252.72 268.93M252.72 268.93L252.63 269.08M252.63 269.08L252.72 269.24M252.72 269.24L252.93 269.3M252.93 269.3L253.15 269.24M253.15 269.24L253.23 269.08"
fill="none" stroke="black" stroke-width="2"/>
<path d="M313.33 290.9L306.19 317.22"
fill="none" stroke="black" stroke-width="2"/>
<path d="M305.14 288.68L298 315"
fill="none" stroke="black" stroke-width="2"/>
<path d="M297.86 316.11L298.04 314.86M298.04 314.86L298.59 313.72M298.59 313.72L299.45 312.79M299.45 312.79L300.55 312.16M300.55 312.16L301.78 311.88M301.78 311.88L303.04 311.97M303.04 311.97L304.22 312.44M304.22 312.44L305.21 313.23M305.21 313.23L305.92 314.27M305.92 314.27L306.29 315.48M306.29 315.48L306.29 316.74M306.29 316.74L305.92 317.95M305.92 317.95L305.21 319M305.21 319L304.22 319.78M304.22 319.78L303.04 320.25M303.04 320.25L301.78 320.34M301.78 320.34L300.55 320.06M300.55 320.06L299.45 319.43M299.45 319.43L298.59 318.5M298.59 318.5L298.04 317.36M298.04 317.36L297.86 316.11"
fill="none" stroke="black" stroke-width="2"/>
<path d="M313.33 290.9L313.48 289.71M313.48 289.71L313.28 288.51M313.28 288.51L312.76 287.43M312.76 287.43L311.95 286.53M311.95 286.53L310.92 285.9M310.92 285.9L309.75 285.58M309.75 285.58L308.55 285.61M308.55 285.61L307.4 285.97M307.4 285.97L306.39 286.65M306.39 286.65L305.62 287.57M305.62 287.57L305.14 288.68"
fill="none" stroke="black" stroke-width="2"/>
<path d="M302.4 310.77L302.39 272.84"
fill="none" stroke="black" stroke-width="2"/>
<path d="M309.05 286.27L309.05 249.7"
fill="none" stroke="black" stroke-width="2"/>
<path d="M302.71 310.77L302.62 310.61M302.62 310.61L302.4 310.55M302.4 310.55L302.19 310.61M302.19 310.61L302.1 310.77M302.1 310.77L302.19 310.93M302.19 310.93L302.4 310.99M302.4 310.99L302.62 310.93M302.62 310.93L302.71 310.77"
fill="none" stroke="black" stroke-width="2"/>
<path d="M309.35 286.27L309.27 286.12M309.27 286.12L309.05 286.05M309.05 286.05L308.83 286.12M308.83 286.12L308.75 286.27M308.75 286.27L308.83 286.43M308.83 286.43L309.05 286.5M309.05 286.5L309.27 286.43M309.27 286.43L309.35 286.27"
fill="none" stroke="black" stroke-width="2"/>
<path d="M302.4 263.46L302.4 168.1"
fill="none" stroke="black" stroke-width="2"/>
<path d="M307.33 227.55L307.33 162.09"
fill="none" stroke="black" stroke-width="2"/>
<path d="M310.06 242.13L306.46 269.16"
fill="none" stroke="black" stroke-width="2"/>
<path d="M301.65 241.01L298.05 268.04"
fill="none" stroke="black" stroke-width="2"/>
<path d="M298.01 268.6L298.2 267.35M298.2 267.35L298.75 266.21M298.75 266.21L299.61 265.28M299.61 265.28L300.7 264.65M300.7 264.65L301.94 264.37M301.94 264.37L303.2 264.46M303.2 264.46L304.37 264.92M304.37 264.92L305.36 265.71M305.36 265.71L306.07 266.76M306.07 266.76L306.45 267.96M306.45 267.96L306.45 269.23M306.45 269.23L306.07 270.44M306.07 270.44L305.36 271.48M305.36 271.48L304.37 272.27M304.37 272.27L303.2 272.73M303.2 272.73L301.94 272.83M301.94 272.83L300.7 272.55M300.7 272.55L299.61 271.91M299.61 271.91L298.75 270.99M298.75 270.99L298.2 269.85M298.2 269.85L298.01 268.6"
fill="none" stroke="black" stroke-width="2"/>
<path d="M311.53 231.06L311.52 229.85M311.52 229.85L311.17 228.69M311.17 228.69L310.5 227.68M310.5 227.68L309.58 226.9M309.58 226.9L308.48 226.41M308.48 226.41L307.28 226.25M307.28 226.25L306.09 226.44M306.09 226.44L305 226.95M305 226.95L304.09 227.75M304.09 227.75L303.45 228.77M303.45 228.77L303.12 229.94"
fill="none" stroke="black" stroke-width="2"/>
<path d="M310.06 242.13L311.53 231.06"
fill="none" stroke="black" stroke-width="2"/>
<path d="M301.65 241.01L303.12 229.94"
fill="none" stroke="black" stroke-width="2"/>
<path d="M302.71 263.46L302.62 263.31M302.62 263.31L302.4 263.24M302.4 263.24L302.19 263.31M302.19 263.31L302.1 263.46M302.1 263.46L302.19 263.62M302.19 263.62L302.4 263.68M302.4 263.68L302.62 263.62M302.62 263.62L302.71 263.46"
fill="none" stroke="black" stroke-width="2"/>
<path d="M307.63 227.55L307.54 227.39M307.54 227.39L307.33 227.32M307.33 227.32L307.11 227.39M307.11 227.39L307.02 227.55M307.02 227.55L307.11 227.7M307.11 227.7L307.33 227.77M307.33 227.77L307.54 227.7M307.54 227.7L307.63 227.55"
fill="none" stroke="black" stroke-width="2"/>
<path d="M373.8 274.35L366.66 300.67"
fill="none" stroke="black" stroke-width="2"/>
<path d="M365.61 272.13L358.47 298.45"
fill="none" stroke="black" stroke-width="2"/>
<path d="M358.32 299.56L358.51 298.31M358.51 298.31L359.06 297.17M359.06 297.17L359.92 296.24M359.92 296.24L361.01 295.61M361.01 295.61L362.24 295.33M362.24 295.33L363.5 295.42M363.5 295.42L364.68 295.89M364.68 295.89L365.67 296.68M365.67 296.68L366.38 297.72M366.38 297.72L366.76 298.93M366.76 298.93L366.76 300.19M366.76 300.19L366.38 301.4M366.38 301.4L365.67 302.45M365.67 302.45L364.68 303.23M364.68 303.23L363.5 303.7M363.5 303.7L362.24 303.79M362.24 303.79L361.01 303.51M361.01 303.51L359.92 302.88M359.92 302.88L359.06 301.95M359.06 301.95L358.51 300.81M358.51 300.81L358.32 299.56"
fill="none" stroke="black" stroke-width="2"/>
<path d="M373.8 274.35L373.94 273.16M373.94 273.16L373.75 271.96M373.75 271.96L373.22 270.88M373.22 270.88L372.41 269.98M372.41 269.98L371.38 269.35M371.38 269.35L370.22 269.03M370.22 269.03L369.01 269.06M369.01 269.06L367.86 269.42M367.86 269.42L366.86 270.1M366.86 270.1L366.09 271.02M366.09 271.02L365.61 272.13"
fill="none" stroke="black" stroke-width="2"/>
<path d="M362.86 294.22L362.86 168.76"
fill="none" stroke="black" stroke-width="2"/>
<path d="M369.51 269.72L369.51 162.4"
fill="none" stroke="black" stroke-width="2"/>
<path d="M363.17 294.22L363.08 294.06M363.08 294.06L362.86 294M362.86 294L362.65 294.06M362.65 294.06L362.56 294.22M362.56 294.22L362.65 294.38M362.65 294.38L362.86 294.44M362.86 294.44L363.08 294.38M363.08 294.38L363.17 294.22"
fill="none" stroke="black" stroke-width="2"/>
<path d="M369.82 269.72L369.73 269.57M369.73 269.57L369.51 269.5M369.51 269.5L369.3 269.57M369.3 269.57L369.21 269.72M369.21 269.72L369.3 269.88M369.3 269.88L369.51 269.95M369.51 269.95L369.73 269.88M369.73 269.88L369.82 269.72"
fill="none" stroke="black" stroke-width="2"/>
<path d="M429.91 291.55L422.77 317.86"
fill="none" stroke="black" stroke-width="2"/>
<path d="M421.73 289.33L414.59 315.64"
fill="none" stroke="black" stroke-width="2"/>
<path d="M414.44 316.75L414.63 315.5M414.63 315.5L415.18 314.36M415.18 314.36L416.04 313.44M416.04 313.44L417.13 312.8M417.13 312.8L418.36 312.52M418.36 312.52L419.62 312.62M419.62 312.62L420.8 313.08M420.8 313.08L421.79 313.87M421.79 313.87L422.5 314.91M422.5 314.91L422.88 316.12M422.88 316.12L422.88 317.39M422.88 317.39L422.5 318.59M422.5 318.59L421.79 319.64M421.79 319.64L420.8 320.43M420.8 320.43L419.62 320.89M419.62 320.89L418.36 320.98M418.36 320.98L417.13 320.7M417.13 320.7L416.04 320.07M416.04 320.07L415.18 319.14M415.18 319.14L414.63 318M414.63 318L414.44 316.75"
fill="none" stroke="black" stroke-width="2"/>
<path d="M429.91 291.55L430.06 290.35M430.06 290.35L429.87 289.16M429.87 289.16L429.34 288.07M429.34 288.07L428.53 287.17M428.53 287.17L427.5 286.54M427.5 286.54L426.34 286.23M426.34 286.23L425.13 286.25M425.13 286.25L423.98 286.61M423.98 286.61L422.98 287.29M422.98 287.29L422.2 288.22M422.2 288.22L421.73 289.33"
fill="none" stroke="black" stroke-width="2"/>
<path d="M418.98 311.41L418.98 273.48"
fill="none" stroke="black" stroke-width="2"/>
<path d="M425.63 286.92L425.63 250.34"
fill="none" stroke="black" stroke-width="2"/>
<path d="M419.29 311.41L419.2 311.26M419.2 311.26L418.98 311.19M418.98 311.19L418.77 311.26M418.77 311.26L418.68 311.41M418.68 311.41L418.77 311.57M418.77 311.57L418.98 311.63M418.98 311.63L419.2 311.57M419.2 311.57L419.29 311.41"
fill="none" stroke="black" stroke-width="2"/>
<path d="M425.94 286.92L425.85 286.76M425.85 286.76L425.63 286.7M425.63 286.7L425.42 286.76M425.42 286.76L425.33 286.92M425.33 286.92L425.42 287.07M425.42 287.07L425.63 287.14M425.63 287.14L425.85 287.07M425.85 287.07L425.94 286.92"
fill="none" stroke="black" stroke-width="2"/>
<path d="M418.98 264.11L418.98 168.87"
fill="none" stroke="black" stroke-width="2"/>
<path d="M423.91 228.19L423.91 162.45"
fill="none" stroke="black" stroke-width="2"/>
<path d="M426.64 242.77L423.04 269.8"
fill="none" stroke="black" stroke-width="2"/>
<path d="M418.23 241.65L414.63 268.68"
fill="none" stroke="black" stroke-width="2"/>
<path d="M414.59 269.24L414.78 267.99M414.78 267.99L415.33 266.85M415.33 266.85L416.19 265.92M416.19 265.92L417.29 265.29M417.29 265.29L418.52 265.01M418.52 265.01L419.78 265.1M419.78 265.1L420.96 265.57M420.96 265.57L421.94 266.35M421.94 266.35L422.66 267.4M422.66 267.4L423.03 268.61M423.03 268.61L423.03 269.87M423.03 269.87L422.66 271.08M422.66 271.08L421.94 272.12M421.94 272.12L420.96 272.91M420.96 272.91L419.78 273.38M419.78 273.38L418.52 273.47M418.52 273.47L417.29 273.19M417.29 273.19L416.19 272.56M416.19 272.56L415.33 271.63M415.33 271.63L414.78 270.49M414.78 270.49L414.59 269.24"
fill="none" stroke="black" stroke-width="2"/>
<path d="M428.12 231.7L428.1 230.49M428.1 230.49L427.75 229.34M427.75 229.34L427.09 228.33M427.09 228.33L426.17 227.55M426.17 227.55L425.06 227.06M425.06 227.06L423.87 226.9M423.87 226.9L422.67 227.08M422.67 227.08L421.58 227.59M421.58 227.59L420.68 228.39M420.68 228.39L420.03 229.42M420.03 229.42L419.71 230.58"
fill="none" stroke="black" stroke-width="2"/>
<path d="M426.64 242.77L428.12 231.7"
fill="none" stroke="black" stroke-width="2"/>
<path d="M418.23 241.65L419.71 230.58"
fill="none" stroke="black" stroke-width="2"/>
<path d="M419.29 264.11L419.2 263.95M419.2 263.95L418.98 263.88M418.98 263.88L418.77 263.95M418.77 263.95L418.68 264.11M418.68 264.11L418.77 264.26M418.77 264.26L418.98 264.33M418.98 264.33L419.2 264.26M419.2 264.26L419.29 264.11"
fill="none" stroke="black" stroke-width="2"/>
<path d="M424.22 228.19L424.13 228.03M424.13 228.03L423.91 227.97M423.91 227.97L423.7 228.03M423.7 228.03L423.61 228.19M423.61 228.19L423.7 228.34M423.7 228.34L423.91 228.41M423.91 228.41L424.13 228.34M424.13 228.34L424.22 228.19"
fill="none" stroke="black" stroke-width="2"/>
<path d="M485.51 273.85L478.37 300.17"
fill="none" stroke="black" stroke-width="2"/>
<path d="M477.32 271.63L470.18 297.95"
fill="none" stroke="black" stroke-width="2"/>
<path d="M470.04 299.06L470.22 297.81M470.22 297.81L470.77 296.67M470.77 296.67L471.63 295.74M471.63 295.74L472.73 295.11M472.73 295.11L473.96 294.83M473.96 294.83L475.22 294.92M475.22 294.92L476.4 295.39M476.4 295.39L477.39 296.17M477.39 296.17L478.1 297.22M478.1 297.22L478.47 298.43M478.47 298.43L478.47 299.69M478.47 299.69L478.1 300.9M478.1 300.9L477.39 301.94M477.39 301.94L476.4 302.73M476.4 302.73L475.22 303.19M475.22 303.19L473.96 303.29M473.96 303.29L472.73 303.01M472.73 303.01L471.63 302.38M471.63 302.38L470.77 301.45M470.77 301.45L470.22 300.31M470.22 300.31L470.04 299.06"
fill="none" stroke="black" stroke-width="2"/>
<path d="M485.51 273.85L485.66 272.65M485.66 272.65L485.46 271.46M485.46 271.46L484.94 270.38M484.94 270.38L484.13 269.48M484.13 269.48L483.1 268.85M483.1 268.85L481.93 268.53M481.93 268.53L480.73 268.56M480.73 268.56L479.58 268.92M479.58 268.92L478.57 269.59M478.57 269.59L477.8 270.52M477.8 270.52L477.32 271.63"
fill="none" stroke="black" stroke-width="2"/>
<path d="M474.58 293.72L474.58 168.52"
fill="none" stroke="black" stroke-width="2"/>
<path d="M481.23 269.22L481.23 162.27"
fill="none" stroke="black" stroke-width="2"/>
<path d="M474.89 293.72L474.8 293.56M474.8 293.56L474.58 293.5M474.58 293.5L474.37 293.56M474.37 293.56L474.28 293.72M474.28 293.72L474.37 293.87M474.37 293.87L474.58 293.94M474.58 293.94L474.8 293.87M474.8 293.87L474.89 293.72"
fill="none" stroke="black" stroke-width="2"/>
<path d="M481.54 269.22L481.45 269.07M481.45 269.07L481.23 269M481.23 269L481.02 269.07M481.02 269.07L480.93 269.22M480.93 269.22L481.02 269.38M481.02 269.38L481.23 269.44M481.23 269.44L481.45 269.38M481.45 269.38L481.54 269.22"
fill="none" stroke="black" stroke-width="2"/>
<path d="M541.63 291.05L534.49 317.36"
fill="none" stroke="black" stroke-width="2"/>
<path d="M533.44 288.82L526.3 315.14"
fill="none" stroke="black" stroke-width="2"/>
<path d="M526.16 316.25L526.34 315M526.34 315L526.89 313.86M526.89 313.86L527.75 312.94M527.75 312.94L528.85 312.3M528.85 312.3L530.08 312.02M530.08 312.02L531.34 312.12M531.34 312.12L532.52 312.58M532.52 312.58L533.51 313.37M533.51 313.37L534.22 314.41M534.22 314.41L534.59 315.62M534.59 315.62L534.59 316.88M534.59 316.88L534.22 318.09M534.22 318.09L533.51 319.14M533.51 319.14L532.52 319.93M532.52 319.93L531.34 320.39M531.34 320.39L530.08 320.48M530.08 320.48L528.85 320.2M528.85 320.2L527.75 319.57M527.75 319.57L526.89 318.64M526.89 318.64L526.34 317.5M526.34 317.5L526.16 316.25"
fill="none" stroke="black" stroke-width="2"/>
<path d="M541.63 291.05L541.78 289.85M541.78 289.85L541.58 288.66M541.58 288.66L541.06 287.57M541.06 287.57L540.25 286.67M540.25 286.67L539.22 286.04M539.22 286.04L538.05 285.72M538.05 285.72L536.85 285.75M536.85 285.75L535.7 286.11M535.7 286.11L534.69 286.79M534.69 286.79L533.92 287.72M533.92 287.72L533.44 288.82"
fill="none" stroke="black" stroke-width="2"/>
<path d="M530.7 310.91L530.69 272.98"
fill="none" stroke="black" stroke-width="2"/>
<path d="M537.35 286.42L537.35 249.84"
fill="none" stroke="black" stroke-width="2"/>
<path d="M531.01 310.91L530.92 310.75M530.92 310.75L530.7 310.69M530.7 310.69L530.49 310.75M530.49 310.75L530.4 310.91M530.4 310.91L530.49 311.07M530.49 311.07L530.7 311.13M530.7 311.13L530.92 311.07M530.92 311.07L531.01 310.91"
fill="none" stroke="black" stroke-width="2"/>
<path d="M537.65 286.42L537.57 286.26M537.57 286.26L537.35 286.19M537.35 286.19L537.13 286.26M537.13 286.26L537.05 286.42M537.05 286.42L537.13 286.57M537.13 286.57L537.35 286.64M537.35 286.64L537.57 286.57M537.57 286.57L537.65 286.42"
fill="none" stroke="black" stroke-width="2"/>
<path d="M530.7 263.6L530.7 167.68"
fill="none" stroke="black" stroke-width="2"/>
<path d="M535.63 227.69L535.63 161.89"
fill="none" stroke="black" stroke-width="2"/>
<path d="M538.36 242.27L534.76 269.3"
fill="none" stroke="black" stroke-width="2"/>
<path d="M529.95 241.15L526.35 268.18"
fill="none" stroke="black" stroke-width="2"/>
<path d="M526.31 268.74L526.5 267.49M526.5 267.49L527.05 266.35M527.05 266.35L527.91 265.42M527.91 265.42L529 264.79M529 264.79L530.24 264.51M530.24 264.51L531.5 264.6M531.5 264.6L532.67 265.07M532.67 265.07L533.66 265.85M533.66 265.85L534.37 266.9M534.37 266.9L534.75 268.11M534.75 268.11L534.75 269.37M534.75 269.37L534.37 270.58M534.37 270.58L533.66 271.62M533.66 271.62L532.67 272.41M532.67 272.41L531.5 272.87M531.5 272.87L530.24 272.97M530.24 272.97L529 272.69M529 272.69L527.91 272.06M527.91 272.06L527.05 271.13M527.05 271.13L526.5 269.99M526.5 269.99L526.31 268.74"
fill="none" stroke="black" stroke-width="2"/>
<path d="M539.83 231.2L539.82 229.99M539.82 229.99L539.47 228.84M539.47 228.84L538.81 227.83M538.81 227.83L537.88 227.05M537.88 227.05L536.78 226.56M536.78 226.56L535.58 226.4M535.58 226.4L534.39 226.58M534.39 226.58L533.3 227.09M533.3 227.09L532.39 227.89M532.39 227.89L531.75 228.92M531.75 228.92L531.42 230.08"
fill="none" stroke="black" stroke-width="2"/>
<path d="M538.36 242.27L539.83 231.2"
fill="none" stroke="black" stroke-width="2"/>
<path d="M529.95 241.15L531.42 230.08"
fill="none" stroke="black" stroke-width="2"/>
<path d="M531.01 263.6L530.92 263.45M530.92 263.45L530.7 263.38M530.7 263.38L530.49 263.45M530.49 263.45L530.4 263.6M530.4 263.6L530.49 263.76M530.49 263.76L530.7 263.83M530.7 263.83L530.92 263.76M530.92 263.76L531.01 263.6"
fill="none" stroke="black" stroke-width="2"/>
<path d="M535.93 227.69L535.84 227.53M535.84 227.53L535.63 227.47M535.63 227.47L535.41 227.53M535.41 227.53L535.32 227.69M535.32 227.69L535.41 227.84M535.41 227.84L535.63 227.91M535.63 227.91L535.84 227.84M535.84 227.84L535.93 227.69"
fill="none" stroke="black" stroke-width="2"/>
<path d="M603.24 272.85L596.1 299.17"
fill="none" stroke="black" stroke-width="2"/>
<path d="M595.05 270.63L587.91 296.95"
fill="none" stroke="black" stroke-width="2"/>
<path d="M587.77 298.06L587.95 296.81M587.95 296.81L588.5 295.67M588.5 295.67L589.36 294.74M589.36 294.74L590.46 294.11M590.46 294.11L591.69 293.83M591.69 293.83L592.95 293.92M592.95 293.92L594.13 294.39M594.13 294.39L595.12 295.17M595.12 295.17L595.83 296.22M595.83 296.22L596.2 297.43M596.2 297.43L596.2 298.69M596.2 298.69L595.83 299.9M595.83 299.9L595.12 300.94M595.12 300.94L594.13 301.73M594.13 301.73L592.95 302.19M592.95 302.19L591.69 302.29M591.69 302.29L590.46 302.01M590.46 302.01L589.36 301.37M589.36 301.37L588.5 300.45M588.5 300.45L587.95 299.31M587.95 299.31L587.77 298.06"
fill="none" stroke="black" stroke-width="2"/>
<path d="M603.24 272.85L603.39 271.65M603.39 271.65L603.19 270.46M603.19 270.46L602.67 269.37M602.67 269.37L601.86 268.48M601.86 268.48L600.83 267.85M600.83 267.85L599.66 267.53M599.66 267.53L598.46 267.56M598.46 267.56L597.31 267.92M597.31 267.92L596.3 268.59M596.3 268.59L595.53 269.52M595.53 269.52L595.05 270.63"
fill="none" stroke="black" stroke-width="2"/>
<path d="M592.31 292.72L592.31 166.2"
fill="none" stroke="black" stroke-width="2"/>
<path d="M598.96 268.22L598.96 161.18"
fill="none" stroke="black" stroke-width="2"/>
<path d="M592.62 292.72L592.53 292.56M592.53 292.56L592.31 292.5M592.31 292.5L592.1 292.56M592.1 292.56L592.01 292.72M592.01 292.72L592.1 292.87M592.1 292.87L592.31 292.94M592.31 292.94L592.53 292.87M592.53 292.87L592.62 292.72"
fill="none" stroke="black" stroke-width="2"/>
<path d="M599.26 268.22L599.17 268.07M599.17 268.07L598.96 268M598.96 268L598.74 268.07M598.74 268.07L598.66 268.22M598.66 268.22L598.74 268.38M598.74 268.38L598.96 268.44M598.96 268.44L599.17 268.38M599.17 268.38L599.26 268.22"
fill="none" stroke="black" stroke-width="2"/>
<path d="M659.36 290.04L652.22 316.36"
fill="none" stroke="black" stroke-width="2"/>
<path d="M651.17 287.82L644.03 314.14"
fill="none" stroke="black" stroke-width="2"/>
<path d="M643.88 315.25L644.07 314M644.07 314L644.62 312.86M644.62 312.86L645.48 311.93M645.48 311.93L646.58 311.3M646.58 311.3L647.81 311.02M647.81 311.02L649.07 311.12M649.07 311.12L650.25 311.58M650.25 311.58L651.24 312.37M651.24 312.37L651.95 313.41M651.95 313.41L652.32 314.62M652.32 314.62L652.32 315.88M652.32 315.88L651.95 317.09M651.95 317.09L651.24 318.14M651.24 318.14L650.25 318.92M650.25 318.92L649.07 319.39M649.07 319.39L647.81 319.48M647.81 319.48L646.58 319.2M646.58 319.2L645.48 318.57M645.48 318.57L644.62 317.64M644.62 317.64L644.07 316.5M644.07 316.5L643.88 315.25"
fill="none" stroke="black" stroke-width="2"/>
<path d="M659.36 290.04L659.51 288.85M659.51 288.85L659.31 287.66M659.31 287.66L658.79 286.57M658.79 286.57L657.98 285.67M657.98 285.67L656.95 285.04M656.95 285.04L655.78 284.72M655.78 284.72L654.58 284.75M654.58 284.75L653.42 285.11M653.42 285.11L652.42 285.79M652.42 285.79L651.65 286.72M651.65 286.72L651.17 287.82"
fill="none" stroke="black" stroke-width="2"/>
<path d="M648.43 309.91L648.42 271.98"
fill="none" stroke="black" stroke-width="2"/>
<path d="M655.08 285.42L655.08 248.84"
fill="none" stroke="black" stroke-width="2"/>
<path d="M648.73 309.91L648.65 309.75M648.65 309.75L648.43 309.69M648.43 309.69L648.22 309.75M648.22 309.75L648.13 309.91M648.13 309.91L648.22 310.07M648.22 310.07L648.43 310.13M648.43 310.13L648.65 310.07M648.65 310.07L648.73 309.91"
fill="none" stroke="black" stroke-width="2"/>
<path d="M655.38 285.42L655.29 285.26M655.29 285.26L655.08 285.19M655.08 285.19L654.86 285.26M654.86 285.26L654.77 285.42M654.77 285.42L654.86 285.57M654.86 285.57L655.08 285.64M655.08 285.64L655.29 285.57M655.29 285.57L655.38 285.42"
fill="none" stroke="black" stroke-width="2"/>
<path d="M648.43 262.6L648.43 164.36"
fill="none" stroke="black" stroke-width="2"/>
<path d="M653.36 226.69L653.36 160.34"
fill="none" stroke="black" stroke-width="2"/>
<path d="M656.09 241.27L652.49 268.3"
fill="none" stroke="black" stroke-width="2"/>
<path d="M647.68 240.15L644.08 267.18"
fill="none" stroke="black" stroke-width="2"/>
<path d="M644.04 267.74L644.23 266.49M644.23 266.49L644.78 265.35M644.78 265.35L645.64 264.42M645.64 264.42L646.73 263.79M646.73 263.79L647.96 263.51M647.96 263.51L649.23 263.6M649.23 263.6L650.4 264.06M650.4 264.06L651.39 264.85M651.39 264.85L652.1 265.9M652.1 265.9L652.48 267.11M652.48 267.11L652.48 268.37M652.48 268.37L652.1 269.58M652.1 269.58L651.39 270.62M651.39 270.62L650.4 271.41M650.4 271.41L649.23 271.87M649.23 271.87L647.96 271.97M647.96 271.97L646.73 271.69M646.73 271.69L645.64 271.05M645.64 271.05L644.78 270.13M644.78 270.13L644.23 268.99M644.23 268.99L644.04 267.74"
fill="none" stroke="black" stroke-width="2"/>
<path d="M657.56 230.2L657.55 228.99M657.55 228.99L657.2 227.83M657.2 227.83L656.53 226.83M656.53 226.83L655.61 226.04M655.61 226.04L654.51 225.55M654.51 225.55L653.31 225.39M653.31 225.39L652.12 225.58M652.12 225.58L651.03 226.09M651.03 226.09L650.12 226.89M650.12 226.89L649.48 227.91M649.48 227.91L649.15 229.08"
fill="none" stroke="black" stroke-width="2"/>
<path d="M656.09 241.27L657.56 230.2"
fill="none" stroke="black" stroke-width="2"/>
<path d="M647.68 240.15L649.15 229.08"
fill="none" stroke="black" stroke-width="2"/>
<path d="M648.73 262.6L648.65 262.45M648.65 262.45L648.43 262.38M648.43 262.38L648.22 262.45M648.22 262.45L648.13 262.6M648.13 262.6L648.22 262.76M648.22 262.76L648.43 262.83M648.43 262.83L648.65 262.76M648.65 262.76L648.73 262.6"
fill="none" stroke="black" stroke-width="2"/>
<path d="M653.66 226.69L653.57 226.53M653.57 226.53L653.36 226.47M653.36 226.47L653.14 226.53M653.14 226.53L653.05 226.69M653.05 226.69L653.14 226.84M653.14 226.84L653.36 226.91M653.36 226.91L653.57 226.84M653.57 226.84L653.66 226.69"
fill="none" stroke="black" stroke-width="2"/>
</svg>
