<?xml version="1.0" encoding="UTF-8"?>
<svg xmlns="http://www.w3.org/2000/svg" width="800.000" height="600.000" viewBox="0.0 0.0 800.000 600.000" version="1.1">
  <title>Produce by Acme CAD Converter</title>
  <desc>Produce by Acme CAD Converter</desc>
<path d="M2.26 80.25L2.26 519.75"
fill="none" stroke="black" stroke-width="0"/>
<path d="M2.7 316.01L65.97 318.27M65.97 318.27L129.25 320.16"
fill="none" stroke="RGB(2,158,33)" stroke-width="2"/>
<path d="M137.81 320.39L177.02 321.34"
fill="none" stroke="RGB(2,158,33)" stroke-width="2"/>
<path d="M185.59 321.53L216.44 322.15"
fill="none" stroke="RGB(2,158,33)" stroke-width="2"/>
<path d="M225.01 322.31L260.33 322.88"
fill="none" stroke="RGB(2,158,33)" stroke-width="2"/>
<path d="M268.91 323.01L307.72 323.47"
fill="none" stroke="RGB(2,158,33)" stroke-width="2"/>
<path d="M316.3 323.56L360.33 323.88"
fill="none" stroke="RGB(2,158,33)" stroke-width="2"/>
<path d="M368.91 323.92L411.87 324.03"
fill="none" stroke="RGB(2,158,33)" stroke-width="2"/>
<path d="M420.46 324.03L466.38 323.92"
fill="none" stroke="RGB(2,158,33)" stroke-width="2"/>
<path d="M474.98 323.87L519.33 323.54"
fill="none" stroke="RGB(2,158,33)" stroke-width="2"/>
<path d="M527.93 323.46L578.39 322.81"
fill="none" stroke="RGB(2,158,33)" stroke-width="2"/>
<path d="M587 322.68L639.24 321.72"
fill="none" stroke="RGB(2,158,33)" stroke-width="2"/>
<path d="M647.86 321.54L697.82 320.35M697.82 320.35L747.78 318.92M747.78 318.92L797.74 317.26"
fill="none" stroke="RGB(2,158,33)" stroke-width="2"/>
<path d="M2.26 300L66.92 302.31M66.92 302.31L131.59 304.22"
fill="none" stroke="RGB(2,158,33)" stroke-width="2"/>
<path d="M140.15 304.45L179.36 305.39"
fill="none" stroke="RGB(2,158,33)" stroke-width="2"/>
<path d="M187.92 305.58L218.78 306.19"
fill="none" stroke="RGB(2,158,33)" stroke-width="2"/>
<path d="M227.26 306.34L262.67 306.91"
fill="none" stroke="RGB(2,158,33)" stroke-width="2"/>
<path d="M271.25 307.03L310.06 307.49"
fill="none" stroke="RGB(2,158,33)" stroke-width="2"/>
<path d="M318.64 307.57L362.67 307.88"
fill="none" stroke="RGB(2,158,33)" stroke-width="2"/>
<path d="M371.26 307.92L414.22 308.02"
fill="none" stroke="RGB(2,158,33)" stroke-width="2"/>
<path d="M422.81 308.02L468.73 307.89"
fill="none" stroke="RGB(2,158,33)" stroke-width="2"/>
<path d="M477.33 307.84L521.68 307.5"
fill="none" stroke="RGB(2,158,33)" stroke-width="2"/>
<path d="M530.2 307.41L580.74 306.76"
fill="none" stroke="RGB(2,158,33)" stroke-width="2"/>
<path d="M589.36 306.62L641.59 305.65"
fill="none" stroke="RGB(2,158,33)" stroke-width="2"/>
<path d="M650.21 305.47L699.25 304.29M699.25 304.29L748.28 302.88M748.28 302.88L797.3 301.25"
fill="none" stroke="RGB(2,158,33)" stroke-width="2"/>
<path d="M138.39 316.44L134.43 343.48"
fill="none" stroke="black" stroke-width="2"/>
<path d="M129.98 315.2L126.01 342.24"
fill="none" stroke="black" stroke-width="2"/>
<path d="M125.97 342.86L126.16 341.61M126.16 341.61L126.71 340.46M126.71 340.46L127.57 339.54M127.57 339.54L128.67 338.9M128.67 338.9L129.9 338.62M129.9 338.62L131.17 338.71M131.17 338.71L132.35 339.18M132.35 339.18L133.34 339.97M133.34 339.97L134.05 341.01M134.05 341.01L134.43 342.23M134.43 342.23L134.43 343.49M134.43 343.49L134.05 344.7M134.05 344.7L133.34 345.75M133.34 345.75L132.35 346.54M132.35 346.54L131.17 347M131.17 347L129.9 347.1M129.9 347.1L128.67 346.82M128.67 346.82L127.57 346.18M127.57 346.18L126.71 345.25M126.71 345.25L126.16 344.11M126.16 344.11L125.97 342.86"
fill="none" stroke="black" stroke-width="2"/>
<path d="M140.37 302.92L140.38 301.71M140.38 301.71L140.04 300.55M140.04 300.55L139.39 299.53M139.39 299.53L138.48 298.73M138.48 298.73L137.38 298.23M137.38 298.23L136.18 298.05M136.18 298.05L134.98 298.22M134.98 298.22L133.88 298.72M133.88 298.72L132.96 299.51M132.96 299.51L132.3 300.52M132.3 300.52L131.96 301.68"
fill="none" stroke="black" stroke-width="2"/>
<path d="M140.37 302.92L138.39 316.44"
fill="none" stroke="black" stroke-width="2"/>
<path d="M131.96 301.68L129.98 315.2"
fill="none" stroke="black" stroke-width="2"/>
<path d="M189.16 297.18L185.19 324.22"
fill="none" stroke="black" stroke-width="2"/>
<path d="M180.74 295.95L176.78 322.99"
fill="none" stroke="black" stroke-width="2"/>
<path d="M176.73 323.6L176.92 322.35M176.92 322.35L177.47 321.21M177.47 321.21L178.33 320.28M178.33 320.28L179.43 319.65M179.43 319.65L180.67 319.36M180.67 319.36L181.93 319.46M181.93 319.46L183.11 319.92M183.11 319.92L184.1 320.71M184.1 320.71L184.82 321.76M184.82 321.76L185.19 322.97M185.19 322.97L185.19 324.24M185.19 324.24L184.82 325.45M184.82 325.45L184.1 326.49M184.1 326.49L183.11 327.28M183.11 327.28L181.93 327.75M181.93 327.75L180.67 327.84M180.67 327.84L179.43 327.56M179.43 327.56L178.33 326.93M178.33 326.93L177.47 326M177.47 326L176.92 324.86M176.92 324.86L176.73 323.6"
fill="none" stroke="black" stroke-width="2"/>
<path d="M191.14 283.66L191.14 282.45M191.14 282.45L190.8 281.29M190.8 281.29L190.15 280.27M190.15 280.27L189.24 279.47M189.24 279.47L188.14 278.97M188.14 278.97L186.94 278.79M186.94 278.79L185.74 278.96M185.74 278.96L184.64 279.46M184.64 279.46L183.73 280.25M183.73 280.25L183.07 281.27M183.07 281.27L182.72 282.43"
fill="none" stroke="black" stroke-width="2"/>
<path d="M191.14 283.66L189.16 297.18"
fill="none" stroke="black" stroke-width="2"/>
<path d="M182.72 282.43L180.74 295.95"
fill="none" stroke="black" stroke-width="2"/>
<path d="M225.24 320.72L221.28 347.75"
fill="none" stroke="black" stroke-width="2"/>
<path d="M216.83 319.48L212.86 346.52"
fill="none" stroke="black" stroke-width="2"/>
<path d="M212.82 347.14L213.01 345.89M213.01 345.89L213.56 344.74M213.56 344.74L214.42 343.81M214.42 343.81L215.52 343.18M215.52 343.18L216.75 342.9M216.75 342.9L218.02 342.99M218.02 342.99L219.2 343.46M219.2 343.46L220.19 344.25M220.19 344.25L220.9 345.29M220.9 345.29L221.27 346.5M221.27 346.5L221.27 347.77M221.27 347.77L220.9 348.98M220.9 348.98L220.19 350.03M220.19 350.03L219.2 350.82M219.2 350.82L218.02 351.28M218.02 351.28L216.75 351.38M216.75 351.38L215.52 351.1M215.52 351.1L214.42 350.46M214.42 350.46L213.56 349.53M213.56 349.53L213.01 348.39M213.01 348.39L212.82 347.14"
fill="none" stroke="black" stroke-width="2"/>
<path d="M227.22 307.2L227.23 305.99M227.23 305.99L226.89 304.82M226.89 304.82L226.24 303.8M226.24 303.8L225.32 303.01M225.32 303.01L224.23 302.5M224.23 302.5L223.03 302.33M223.03 302.33L221.83 302.5M221.83 302.5L220.73 303M220.73 303L219.81 303.79M219.81 303.79L219.15 304.8M219.15 304.8L218.81 305.96"
fill="none" stroke="black" stroke-width="2"/>
<path d="M227.22 307.2L225.24 320.72"
fill="none" stroke="black" stroke-width="2"/>
<path d="M218.81 305.96L216.83 319.48"
fill="none" stroke="black" stroke-width="2"/>
<path d="M272.34 299.63L268.37 326.66"
fill="none" stroke="black" stroke-width="2"/>
<path d="M263.92 298.39L259.96 325.43"
fill="none" stroke="black" stroke-width="2"/>
<path d="M259.91 326.05L260.1 324.8M260.1 324.8L260.65 323.65M260.65 323.65L261.52 322.72M261.52 322.72L262.61 322.09M262.61 322.09L263.85 321.81M263.85 321.81L265.11 321.9M265.11 321.9L266.29 322.37M266.29 322.37L267.28 323.16M267.28 323.16L268 324.2M268 324.2L268.37 325.41M268.37 325.41L268.37 326.68M268.37 326.68L268 327.89M268 327.89L267.28 328.94M267.28 328.94L266.29 329.73M266.29 329.73L265.11 330.19M265.11 330.19L263.85 330.29M263.85 330.29L262.61 330.01M262.61 330.01L261.52 329.37M261.52 329.37L260.65 328.44M260.65 328.44L260.1 327.3M260.1 327.3L259.91 326.05"
fill="none" stroke="black" stroke-width="2"/>
<path d="M274.32 286.11L274.32 284.9M274.32 284.9L273.98 283.73M273.98 283.73L273.33 282.71M273.33 282.71L272.42 281.92M272.42 281.92L271.32 281.41M271.32 281.41L270.12 281.24M270.12 281.24L268.93 281.41M268.93 281.41L267.82 281.91M267.82 281.91L266.91 282.7M266.91 282.7L266.25 283.71M266.25 283.71L265.91 284.87"
fill="none" stroke="black" stroke-width="2"/>
<path d="M274.32 286.11L272.34 299.63"
fill="none" stroke="black" stroke-width="2"/>
<path d="M265.91 284.87L263.92 298.39"
fill="none" stroke="black" stroke-width="2"/>
<path d="M316.63 321.3L312.67 348.34"
fill="none" stroke="black" stroke-width="2"/>
<path d="M308.22 320.07L304.25 347.11"
fill="none" stroke="black" stroke-width="2"/>
<path d="M304.21 347.72L304.4 346.47M304.4 346.47L304.95 345.33M304.95 345.33L305.81 344.4M305.81 344.4L306.91 343.77M306.91 343.77L308.14 343.49M308.14 343.49L309.41 343.58M309.41 343.58L310.59 344.04M310.59 344.04L311.58 344.83M311.58 344.83L312.29 345.88M312.29 345.88L312.66 347.09M312.66 347.09L312.66 348.36M312.66 348.36L312.29 349.57M312.29 349.57L311.58 350.62M311.58 350.62L310.59 351.41M310.59 351.41L309.41 351.87M309.41 351.87L308.14 351.96M308.14 351.96L306.91 351.68M306.91 351.68L305.81 351.05M305.81 351.05L304.95 350.12M304.95 350.12L304.4 348.98M304.4 348.98L304.21 347.72"
fill="none" stroke="black" stroke-width="2"/>
<path d="M318.61 307.78L318.62 306.57M318.62 306.57L318.28 305.41M318.28 305.41L317.63 304.39M317.63 304.39L316.71 303.6M316.71 303.6L315.61 303.09M315.61 303.09L314.42 302.91M314.42 302.91L313.22 303.08M313.22 303.08L312.12 303.58M312.12 303.58L311.2 304.37M311.2 304.37L310.54 305.39M310.54 305.39L310.2 306.55"
fill="none" stroke="black" stroke-width="2"/>
<path d="M318.61 307.78L316.63 321.3"
fill="none" stroke="black" stroke-width="2"/>
<path d="M310.2 306.55L308.22 320.07"
fill="none" stroke="black" stroke-width="2"/>
<path d="M372.46 299.77L368.49 326.81"
fill="none" stroke="black" stroke-width="2"/>
<path d="M364.04 298.54L360.08 325.57"
fill="none" stroke="black" stroke-width="2"/>
<path d="M360.03 326.19L360.22 324.94M360.22 324.94L360.77 323.8M360.77 323.8L361.63 322.87M361.63 322.87L362.73 322.23M362.73 322.23L363.97 321.95M363.97 321.95L365.23 322.05M365.23 322.05L366.41 322.51M366.41 322.51L367.4 323.3M367.4 323.3L368.12 324.35M368.12 324.35L368.49 325.56M368.49 325.56L368.49 326.82M368.49 326.82L368.12 328.04M368.12 328.04L367.4 329.08M367.4 329.08L366.41 329.87M366.41 329.87L365.23 330.34M365.23 330.34L363.97 330.43M363.97 330.43L362.73 330.15M362.73 330.15L361.63 329.51M361.63 329.51L360.77 328.59M360.77 328.59L360.22 327.44M360.22 327.44L360.03 326.19"
fill="none" stroke="black" stroke-width="2"/>
<path d="M374.44 286.25L374.44 285.04M374.44 285.04L374.1 283.88M374.1 283.88L373.45 282.86M373.45 282.86L372.54 282.06M372.54 282.06L371.44 281.56M371.44 281.56L370.24 281.38M370.24 281.38L369.04 281.55M369.04 281.55L367.94 282.05M367.94 282.05L367.03 282.84M367.03 282.84L366.37 283.86M366.37 283.86L366.02 285.02"
fill="none" stroke="black" stroke-width="2"/>
<path d="M374.44 286.25L372.46 299.77"
fill="none" stroke="black" stroke-width="2"/>
<path d="M366.02 285.02L364.04 298.54"
fill="none" stroke="black" stroke-width="2"/>
<path d="M420.93 320.81L416.97 347.85"
fill="none" stroke="black" stroke-width="2"/>
<path d="M412.52 319.58L408.56 346.62"
fill="none" stroke="black" stroke-width="2"/>
<path d="M408.51 347.23L408.7 345.98M408.7 345.98L409.25 344.84M409.25 344.84L410.11 343.91M410.11 343.91L411.21 343.28M411.21 343.28L412.45 343M412.45 343L413.71 343.09M413.71 343.09L414.89 343.55M414.89 343.55L415.88 344.34M415.88 344.34L416.59 345.39M416.59 345.39L416.97 346.6M416.97 346.6L416.97 347.87M416.97 347.87L416.59 349.08M416.59 349.08L415.88 350.13M415.88 350.13L414.89 350.92M414.89 350.92L413.71 351.38M413.71 351.38L412.45 351.47M412.45 351.47L411.21 351.19M411.21 351.19L410.11 350.56M410.11 350.56L409.25 349.63M409.25 349.63L408.7 348.49M408.7 348.49L408.51 347.23"
fill="none" stroke="black" stroke-width="2"/>
<path d="M422.92 307.29L422.92 306.08M422.92 306.08L422.58 304.92M422.58 304.92L421.93 303.9M421.93 303.9L421.02 303.11M421.02 303.11L419.92 302.6M419.92 302.6L418.72 302.42M418.72 302.42L417.52 302.59M417.52 302.59L416.42 303.09M416.42 303.09L415.5 303.88M415.5 303.88L414.85 304.9M414.85 304.9L414.5 306.06"
fill="none" stroke="black" stroke-width="2"/>
<path d="M422.92 307.29L420.93 320.81"
fill="none" stroke="black" stroke-width="2"/>
<path d="M414.5 306.06L412.52 319.58"
fill="none" stroke="black" stroke-width="2"/>
<path d="M478.22 301.73L474.26 328.77"
fill="none" stroke="black" stroke-width="2"/>
<path d="M469.81 300.49L465.85 327.53"
fill="none" stroke="black" stroke-width="2"/>
<path d="M465.8 328.15L465.99 326.9M465.99 326.9L466.54 325.75M466.54 325.75L467.4 324.83M467.4 324.83L468.5 324.19M468.5 324.19L469.74 323.91M469.74 323.91L471 324M471 324L472.18 324.47M472.18 324.47L473.17 325.26M473.17 325.26L473.88 326.3M473.88 326.3L474.26 327.52M474.26 327.52L474.26 328.78M474.26 328.78L473.88 329.99M473.88 329.99L473.17 331.04M473.17 331.04L472.18 331.83M472.18 331.83L471 332.29M471 332.29L469.74 332.39M469.74 332.39L468.5 332.11M468.5 332.11L467.4 331.47M467.4 331.47L466.54 330.54M466.54 330.54L465.99 329.4M465.99 329.4L465.8 328.15"
fill="none" stroke="black" stroke-width="2"/>
<path d="M480.21 288.21L480.21 287M480.21 287L479.87 285.83M479.87 285.83L479.22 284.82M479.22 284.82L478.31 284.02M478.31 284.02L477.21 283.51M477.21 283.51L476.01 283.34M476.01 283.34L474.81 283.51M474.81 283.51L473.71 284.01M473.71 284.01L472.79 284.8M472.79 284.8L472.14 285.81M472.14 285.81L471.79 286.97"
fill="none" stroke="black" stroke-width="2"/>
<path d="M480.21 288.21L478.22 301.73"
fill="none" stroke="black" stroke-width="2"/>
<path d="M471.79 286.97L469.81 300.49"
fill="none" stroke="black" stroke-width="2"/>
<path d="M528.18 321.79L524.21 348.83"
fill="none" stroke="black" stroke-width="2"/>
<path d="M519.76 320.56L515.8 347.6"
fill="none" stroke="black" stroke-width="2"/>
<path d="M515.75 348.21L515.94 346.96M515.94 346.96L516.49 345.82M516.49 345.82L517.36 344.89M517.36 344.89L518.45 344.26M518.45 344.26L519.69 343.98M519.69 343.98L520.95 344.07M520.95 344.07L522.13 344.53M522.13 344.53L523.12 345.32M523.12 345.32L523.84 346.37M523.84 346.37L524.21 347.58M524.21 347.58L524.21 348.85M524.21 348.85L523.84 350.06M523.84 350.06L523.12 351.11M523.12 351.11L522.13 351.9M522.13 351.9L520.95 352.36M520.95 352.36L519.69 352.45M519.69 352.45L518.45 352.17M518.45 352.17L517.36 351.54M517.36 351.54L516.49 350.61M516.49 350.61L515.94 349.47M515.94 349.47L515.75 348.21"
fill="none" stroke="black" stroke-width="2"/>
<path d="M530.16 308.27L530.16 307.06M530.16 307.06L529.82 305.9M529.82 305.9L529.17 304.88M529.17 304.88L528.26 304.09M528.26 304.09L527.16 303.58M527.16 303.58L525.96 303.41M525.96 303.41L524.77 303.57M524.77 303.57L523.66 304.07M523.66 304.07L522.75 304.86M522.75 304.86L522.09 305.88M522.09 305.88L521.75 307.04"
fill="none" stroke="black" stroke-width="2"/>
<path d="M530.16 308.27L528.18 321.79"
fill="none" stroke="black" stroke-width="2"/>
<path d="M521.75 307.04L519.76 320.56"
fill="none" stroke="black" stroke-width="2"/>
<path d="M590.36 299.76L586.4 326.8"
fill="none" stroke="black" stroke-width="2"/>
<path d="M581.95 298.53L577.99 325.57"
fill="none" stroke="black" stroke-width="2"/>
<path d="M577.94 326.18L578.13 324.93M578.13 324.93L578.68 323.79M578.68 323.79L579.54 322.86M579.54 322.86L580.64 322.23M580.64 322.23L581.87 321.95M581.87 321.95L583.14 322.04M583.14 322.04L584.32 322.5M584.32 322.5L585.31 323.29M585.31 323.29L586.02 324.34M586.02 324.34L586.4 325.55M586.4 325.55L586.4 326.82M586.4 326.82L586.02 328.03M586.02 328.03L585.31 329.08M585.31 329.08L584.32 329.87M584.32 329.87L583.14 330.33M583.14 330.33L581.87 330.42M581.87 330.42L580.64 330.14M580.64 330.14L579.54 329.51M579.54 329.51L578.68 328.58M578.68 328.58L578.13 327.44M578.13 327.44L577.94 326.18"
fill="none" stroke="black" stroke-width="2"/>
<path d="M592.35 286.24L592.35 285.03M592.35 285.03L592.01 283.87M592.01 283.87L591.36 282.85M591.36 282.85L590.45 282.06M590.45 282.06L589.35 281.55M589.35 281.55L588.15 281.38M588.15 281.38L586.95 281.54M586.95 281.54L585.85 282.04M585.85 282.04L584.93 282.83M584.93 282.83L584.28 283.85M584.28 283.85L583.93 285.01"
fill="none" stroke="black" stroke-width="2"/>
<path d="M592.35 286.24L590.36 299.76"
fill="none" stroke="black" stroke-width="2"/>
<path d="M583.93 285.01L581.95 298.53"
fill="none" stroke="black" stroke-width="2"/>
<path d="M648.25 318.88L644.28 345.92"
fill="none" stroke="black" stroke-width="2"/>
<path d="M639.83 317.65L635.87 344.69"
fill="none" stroke="black" stroke-width="2"/>
<path d="M635.82 345.3L636.01 344.05M636.01 344.05L636.56 342.91M636.56 342.91L637.42 341.98M637.42 341.98L638.52 341.35M638.52 341.35L639.76 341.07M639.76 341.07L641.02 341.16M641.02 341.16L642.2 341.62M642.2 341.62L643.19 342.41M643.19 342.41L643.91 343.46M643.91 343.46L644.28 344.67M644.28 344.67L644.28 345.94M644.28 345.94L643.91 347.15M643.91 347.15L643.19 348.2M643.19 348.2L642.2 348.99M642.2 348.99L641.02 349.45M641.02 349.45L639.76 349.54M639.76 349.54L638.52 349.26M638.52 349.26L637.42 348.63M637.42 348.63L636.56 347.7M636.56 347.7L636.01 346.56M636.01 346.56L635.82 345.3"
fill="none" stroke="black" stroke-width="2"/>
<path d="M650.23 305.36L650.23 304.15M650.23 304.15L649.89 302.99M649.89 302.99L649.24 301.97M649.24 301.97L648.33 301.18M648.33 301.18L647.23 300.67M647.23 300.67L646.03 300.49M646.03 300.49L644.84 300.66M644.84 300.66L643.73 301.16M643.73 301.16L642.82 301.95M642.82 301.95L642.16 302.97M642.16 302.97L641.82 304.13"
fill="none" stroke="black" stroke-width="2"/>
<path d="M650.23 305.36L648.25 318.88"
fill="none" stroke="black" stroke-width="2"/>
<path d="M641.82 304.13L639.83 317.65"
fill="none" stroke="black" stroke-width="2"/>
</svg>
