<?xml version="1.0" encoding="UTF-8"?>
<svg xmlns="http://www.w3.org/2000/svg" width="800.000" height="600.000" viewBox="0.0 0.0 800.000 600.000" version="1.1">
  <title>Produce by Acme CAD Converter</title>
  <desc>Produce by Acme CAD Converter</desc>
<path d="M2.26 80.73L2.26 519.27"
fill="none" stroke="RGB(237,31,36)" stroke-width="0"/>
<path d="M112.19 188.19L112.19 162.38"
fill="none" stroke="black" stroke-width="2"/>
<path d="M681.51 188.19L681.51 163.04"
fill="none" stroke="black" stroke-width="2"/>
<path d="M692.09 188.19L692.09 204.11"
fill="none" stroke="black" stroke-width="2"/>
<path d="M692.09 204.11L100.25 204.11M100.25 204.11L100.25 188.19M100.25 188.19L692.09 188.19"
fill="none" stroke="black" stroke-width="2"/>
<path d="M128.02 196.15L128.22 194.92M128.22 194.92L128.78 193.81M128.78 193.81L129.66 192.93M129.66 192.93L130.77 192.37M130.77 192.37L132 192.17M132 192.17L133.23 192.37M133.23 192.37L134.34 192.93M134.34 192.93L135.22 193.81M135.22 193.81L135.79 194.92M135.79 194.92L135.98 196.15M135.98 196.15L135.79 197.38M135.79 197.38L135.22 198.49M135.22 198.49L134.34 199.37M134.34 199.37L133.23 199.94M133.23 199.94L132 200.13M132 200.13L130.77 199.94M130.77 199.94L129.66 199.37M129.66 199.37L128.78 198.49M128.78 198.49L128.22 197.38M128.22 197.38L128.02 196.15"
fill="none" stroke="black" stroke-width="2"/>
<path d="M167.82 196.15L168.02 194.92M168.02 194.92L168.58 193.81M168.58 193.81L169.46 192.93M169.46 192.93L170.57 192.37M170.57 192.37L171.8 192.17M171.8 192.17L173.03 192.37M173.03 192.37L174.14 192.93M174.14 192.93L175.02 193.81M175.02 193.81L175.59 194.92M175.59 194.92L175.78 196.15M175.78 196.15L175.59 197.38M175.59 197.38L175.02 198.49M175.02 198.49L174.14 199.37M174.14 199.37L173.03 199.94M173.03 199.94L171.8 200.13M171.8 200.13L170.57 199.94M170.57 199.94L169.46 199.37M169.46 199.37L168.58 198.49M168.58 198.49L168.02 197.38M168.02 197.38L167.82 196.15"
fill="none" stroke="black" stroke-width="2"/>
<path d="M207.62 196.15L207.82 194.92M207.82 194.92L208.38 193.81M208.38 193.81L209.26 192.93M209.26 192.93L210.37 192.37M210.37 192.37L211.6 192.17M211.6 192.17L212.83 192.37M212.83 192.37L213.94 192.93M213.94 192.93L214.82 193.81M214.82 193.81L215.39 194.92M215.39 194.92L215.58 196.15M215.58 196.15L215.39 197.38M215.39 197.38L214.82 198.49M214.82 198.49L213.94 199.37M213.94 199.37L212.83 199.94M212.83 199.94L211.6 200.13M211.6 200.13L210.37 199.94M210.37 199.94L209.26 199.37M209.26 199.37L208.38 198.49M208.38 198.49L207.82 197.38M207.82 197.38L207.62 196.15"
fill="none" stroke="black" stroke-width="2"/>
<path d="M247.42 196.15L247.62 194.92M247.62 194.92L248.18 193.81M248.18 193.81L249.07 192.93M249.07 192.93L250.17 192.37M250.17 192.37L251.4 192.17M251.4 192.17L252.63 192.37M252.63 192.37L253.74 192.93M253.74 192.93L254.62 193.81M254.62 193.81L255.19 194.92M255.19 194.92L255.38 196.15M255.38 196.15L255.19 197.38M255.19 197.38L254.62 198.49M254.62 198.49L253.74 199.37M253.74 199.37L252.63 199.94M252.63 199.94L251.4 200.13M251.4 200.13L250.17 199.94M250.17 199.94L249.07 199.37M249.07 199.37L248.18 198.49M248.18 198.49L247.62 197.38M247.62 197.38L247.42 196.15"
fill="none" stroke="black" stroke-width="2"/>
<path d="M287.23 196.15L287.42 194.92M287.42 194.92L287.99 193.81M287.99 193.81L288.87 192.93M288.87 192.93L289.98 192.37M289.98 192.37L291.21 192.17M291.21 192.17L292.44 192.37M292.44 192.37L293.55 192.93M293.55 192.93L294.43 193.81M294.43 193.81L294.99 194.92M294.99 194.92L295.19 196.15M295.19 196.15L294.99 197.38M294.99 197.38L294.43 198.49M294.43 198.49L293.55 199.37M293.55 199.37L292.44 199.94M292.44 199.94L291.21 200.13M291.21 200.13L289.98 199.94M289.98 199.94L288.87 199.37M288.87 199.37L287.99 198.49M287.99 198.49L287.42 197.38M287.42 197.38L287.23 196.15"
fill="none" stroke="black" stroke-width="2"/>
<path d="M500.77 196.15L500.96 194.92M500.96 194.92L501.53 193.81M501.53 193.81L502.41 192.93M502.41 192.93L503.52 192.37M503.52 192.37L504.75 192.17M504.75 192.17L505.98 192.37M505.98 192.37L507.09 192.93M507.09 192.93L507.97 193.81M507.97 193.81L508.53 194.92M508.53 194.92L508.73 196.15M508.73 196.15L508.53 197.38M508.53 197.38L507.97 198.49M507.97 198.49L507.09 199.37M507.09 199.37L505.98 199.94M505.98 199.94L504.75 200.13M504.75 200.13L503.52 199.94M503.52 199.94L502.41 199.37M502.41 199.37L501.53 198.49M501.53 198.49L500.96 197.38M500.96 197.38L500.77 196.15"
fill="none" stroke="black" stroke-width="2"/>
<path d="M540.57 196.15L540.76 194.92M540.76 194.92L541.33 193.81M541.33 193.81L542.21 192.93M542.21 192.93L543.32 192.37M543.32 192.37L544.55 192.17M544.55 192.17L545.78 192.37M545.78 192.37L546.89 192.93M546.89 192.93L547.77 193.81M547.77 193.81L548.33 194.92M548.33 194.92L548.53 196.15M548.53 196.15L548.33 197.38M548.33 197.38L547.77 198.49M547.77 198.49L546.89 199.37M546.89 199.37L545.78 199.94M545.78 199.94L544.55 200.13M544.55 200.13L543.32 199.94M543.32 199.94L542.21 199.37M542.21 199.37L541.33 198.49M541.33 198.49L540.76 197.38M540.76 197.38L540.57 196.15"
fill="none" stroke="black" stroke-width="2"/>
<path d="M578.06 196.15L578.26 194.92M578.26 194.92L578.82 193.81M578.82 193.81L579.7 192.93M579.7 192.93L580.81 192.37M580.81 192.37L582.04 192.17M582.04 192.17L583.27 192.37M583.27 192.37L584.38 192.93M584.38 192.93L585.26 193.81M585.26 193.81L585.83 194.92M585.83 194.92L586.02 196.15M586.02 196.15L585.83 197.38M585.83 197.38L585.26 198.49M585.26 198.49L584.38 199.37M584.38 199.37L583.27 199.94M583.27 199.94L582.04 200.13M582.04 200.13L580.81 199.94M580.81 199.94L579.7 199.37M579.7 199.37L578.82 198.49M578.82 198.49L578.26 197.38M578.26 197.38L578.06 196.15"
fill="none" stroke="black" stroke-width="2"/>
<path d="M617.86 196.15L618.06 194.92M618.06 194.92L618.62 193.81M618.62 193.81L619.51 192.93M619.51 192.93L620.61 192.37M620.61 192.37L621.84 192.17M621.84 192.17L623.07 192.37M623.07 192.37L624.18 192.93M624.18 192.93L625.06 193.81M625.06 193.81L625.63 194.92M625.63 194.92L625.82 196.15M625.82 196.15L625.63 197.38M625.63 197.38L625.06 198.49M625.06 198.49L624.18 199.37M624.18 199.37L623.07 199.94M623.07 199.94L621.84 200.13M621.84 200.13L620.61 199.94M620.61 199.94L619.51 199.37M619.51 199.37L618.62 198.49M618.62 198.49L618.06 197.38M618.06 197.38L617.86 196.15"
fill="none" stroke="black" stroke-width="2"/>
<path d="M657.67 196.15L657.86 194.92M657.86 194.92L658.43 193.81M658.43 193.81L659.31 192.93M659.31 192.93L660.42 192.37M660.42 192.37L661.65 192.17M661.65 192.17L662.88 192.37M662.88 192.37L663.99 192.93M663.99 192.93L664.87 193.81M664.87 193.81L665.43 194.92M665.43 194.92L665.63 196.15M665.63 196.15L665.43 197.38M665.43 197.38L664.87 198.49M664.87 198.49L663.99 199.37M663.99 199.37L662.88 199.94M662.88 199.94L661.65 200.13M661.65 200.13L660.42 199.94M660.42 199.94L659.31 199.37M659.31 199.37L658.43 198.49M658.43 198.49L657.86 197.38M657.86 197.38L657.67 196.15"
fill="none" stroke="black" stroke-width="2"/>
<path d="M335.27 196.15L335.47 194.92M335.47 194.92L336.03 193.81M336.03 193.81L336.91 192.93M336.91 192.93L338.02 192.37M338.02 192.37L339.25 192.17M339.25 192.17L340.48 192.37M340.48 192.37L341.59 192.93M341.59 192.93L342.47 193.81M342.47 193.81L343.04 194.92M343.04 194.92L343.23 196.15M343.23 196.15L343.04 197.38M343.04 197.38L342.47 198.49M342.47 198.49L341.59 199.37M341.59 199.37L340.48 199.94M340.48 199.94L339.25 200.13M339.25 200.13L338.02 199.94M338.02 199.94L336.91 199.37M336.91 199.37L336.03 198.49M336.03 198.49L335.47 197.38M335.47 197.38L335.27 196.15"
fill="none" stroke="black" stroke-width="2"/>
<path d="M375.07 196.15L375.27 194.92M375.27 194.92L375.83 193.81M375.83 193.81L376.72 192.93M376.72 192.93L377.82 192.37M377.82 192.37L379.05 192.17M379.05 192.17L380.28 192.37M380.28 192.37L381.39 192.93M381.39 192.93L382.27 193.81M382.27 193.81L382.84 194.92M382.84 194.92L383.03 196.15M383.03 196.15L382.84 197.38M382.84 197.38L382.27 198.49M382.27 198.49L381.39 199.37M381.39 199.37L380.28 199.94M380.28 199.94L379.05 200.13M379.05 200.13L377.82 199.94M377.82 199.94L376.72 199.37M376.72 199.37L375.83 198.49M375.83 198.49L375.27 197.38M375.27 197.38L375.07 196.15"
fill="none" stroke="black" stroke-width="2"/>
<path d="M412.57 196.15L412.77 194.92M412.77 194.92L413.33 193.81M413.33 193.81L414.21 192.93M414.21 192.93L415.32 192.37M415.32 192.37L416.55 192.17M416.55 192.17L417.78 192.37M417.78 192.37L418.89 192.93M418.89 192.93L419.77 193.81M419.77 193.81L420.34 194.92M420.34 194.92L420.53 196.15M420.53 196.15L420.34 197.38M420.34 197.38L419.77 198.49M419.77 198.49L418.89 199.37M418.89 199.37L417.78 199.94M417.78 199.94L416.55 200.13M416.55 200.13L415.32 199.94M415.32 199.94L414.21 199.37M414.21 199.37L413.33 198.49M413.33 198.49L412.77 197.38M412.77 197.38L412.57 196.15"
fill="none" stroke="black" stroke-width="2"/>
<path d="M452.37 196.15L452.57 194.92M452.57 194.92L453.13 193.81M453.13 193.81L454.01 192.93M454.01 192.93L455.12 192.37M455.12 192.37L456.35 192.17M456.35 192.17L457.58 192.37M457.58 192.37L458.69 192.93M458.69 192.93L459.57 193.81M459.57 193.81L460.14 194.92M460.14 194.92L460.33 196.15M460.33 196.15L460.14 197.38M460.14 197.38L459.57 198.49M459.57 198.49L458.69 199.37M458.69 199.37L457.58 199.94M457.58 199.94L456.35 200.13M456.35 200.13L455.12 199.94M455.12 199.94L454.01 199.37M454.01 199.37L453.13 198.49M453.13 198.49L452.57 197.38M452.57 197.38L452.37 196.15"
fill="none" stroke="black" stroke-width="2"/>
<path d="M2.82 156.6L52.46 159.45M52.46 159.45L102.11 161.93M102.11 161.93L151.77 164.03M151.77 164.03L201.46 165.75M201.46 165.75L251.15 167.1M251.15 167.1L300.85 168.07M300.85 168.07L350.56 168.67M350.56 168.67L400.27 168.89M400.27 168.89L449.98 168.73M449.98 168.73L499.69 168.2M499.69 168.2L549.4 167.29M549.4 167.29L599.09 166.01M599.09 166.01L648.78 164.34M648.78 164.34L698.45 162.31M698.45 162.31L748.1 159.89M748.1 159.89L797.74 157.1"
fill="none" stroke="RGB(2,158,33)" stroke-width="2"/>
<path d="M2.82 156.6L91.13 158.87M91.13 158.87L179.45 160.58M179.45 160.58L267.78 161.75M267.78 161.75L356.11 162.36M356.11 162.36L444.44 162.41M444.44 162.41L532.78 161.92M532.78 161.92L621.11 160.87M621.11 160.87L709.43 159.26M709.43 159.26L797.74 157.1"
fill="none" stroke="RGB(2,158,33)" stroke-width="2"/>
</svg>
