<?xml version="1.0" encoding="UTF-8"?>
<svg xmlns="http://www.w3.org/2000/svg" width="800.000" height="600.000" viewBox="0.0 0.0 800.000 600.000" version="1.1">
  <title>Produce by Acme CAD Converter</title>
  <desc>Produce by Acme CAD Converter</desc>
<path d="M2.26 80.28L2.26 519.72"
fill="none" stroke="RGB(237,31,36)" stroke-width="0"/>
<path d="M2.26 240.36L59.06 242.77M59.06 242.77L115.86 244.77M115.86 244.77L172.68 246.38M172.68 246.38L229.51 247.59M229.51 247.59L286.35 248.41M286.35 248.41L343.19 248.82M343.19 248.82L400.03 248.84M400.03 248.84L456.87 248.46M456.87 248.46L513.71 247.69M513.71 247.69L570.54 246.51M570.54 246.51L627.36 244.94M627.36 244.94L684.17 242.97M684.17 242.97L740.96 240.6M740.96 240.6L797.74 237.84"
fill="none" stroke="RGB(248,153,30)" stroke-width="2"/>
</svg>
