<?xml version="1.0" encoding="UTF-8"?>
<svg xmlns="http://www.w3.org/2000/svg" width="800.000" height="600.000" viewBox="0.0 0.0 800.000 600.000" version="1.1">
  <title>Produce by Acme CAD Converter</title>
  <desc>Produce by Acme CAD Converter</desc>
<path d="M2.26 80.73L2.26 519.27"
fill="none" stroke="RGB(237,31,36)" stroke-width="0"/>
<path d="M2.82 156.6L52.46 159.45M52.46 159.45L102.11 161.93M102.11 161.93L151.77 164.03M151.77 164.03L201.46 165.75M201.46 165.75L251.15 167.1M251.15 167.1L300.85 168.07M300.85 168.07L350.56 168.67M350.56 168.67L400.27 168.89M400.27 168.89L449.98 168.73M449.98 168.73L499.69 168.2M499.69 168.2L549.4 167.29M549.4 167.29L599.09 166.01M599.09 166.01L648.78 164.34M648.78 164.34L698.45 162.31M698.45 162.31L748.1 159.89M748.1 159.89L797.74 157.1"
fill="none" stroke="RGB(2,158,33)" stroke-width="2"/>
<path d="M2.82 367.54L52.46 370.39M52.46 370.39L102.11 372.87M102.11 372.87L151.77 374.97M151.77 374.97L201.46 376.69M201.46 376.69L251.15 378.04M251.15 378.04L300.85 379.02M300.85 379.02L350.56 379.61M350.56 379.61L400.27 379.83M400.27 379.83L449.98 379.68M449.98 379.68L499.69 379.14M499.69 379.14L549.4 378.23M549.4 378.23L599.09 376.95M599.09 376.95L648.78 375.29M648.78 375.29L698.45 373.25M698.45 373.25L748.1 370.84M748.1 370.84L797.74 368.05"
fill="none" stroke="RGB(2,158,33)" stroke-width="2"/>
<path d="M126.77 163.02L126.77 373.96"
fill="none" stroke="black" stroke-width="2"/>
<path d="M155.16 164.16L155.16 375.1"
fill="none" stroke="black" stroke-width="2"/>
<path d="M183.54 165.17L183.54 376.12"
fill="none" stroke="black" stroke-width="2"/>
<path d="M211.93 166.07L211.93 377.01"
fill="none" stroke="black" stroke-width="2"/>
<path d="M240.31 166.84L240.31 377.78"
fill="none" stroke="black" stroke-width="2"/>
<path d="M268.69 167.49L268.69 378.43"
fill="none" stroke="black" stroke-width="2"/>
<path d="M297.08 168.01L297.08 378.95"
fill="none" stroke="black" stroke-width="2"/>
<path d="M325.46 168.41L325.46 379.36"
fill="none" stroke="black" stroke-width="2"/>
<path d="M353.85 168.69L353.85 379.64"
fill="none" stroke="black" stroke-width="2"/>
<path d="M382.23 168.85L382.23 379.8"
fill="none" stroke="black" stroke-width="2"/>
<path d="M410.62 168.89L410.62 379.83"
fill="none" stroke="black" stroke-width="2"/>
<path d="M439 168.8L439 379.74"
fill="none" stroke="black" stroke-width="2"/>
<path d="M467.38 168.59L467.38 379.53"
fill="none" stroke="black" stroke-width="2"/>
<path d="M495.77 168.26L495.77 379.2"
fill="none" stroke="black" stroke-width="2"/>
<path d="M524.15 167.8L524.15 378.74"
fill="none" stroke="black" stroke-width="2"/>
<path d="M552.54 167.22L552.54 378.16"
fill="none" stroke="black" stroke-width="2"/>
<path d="M580.92 166.52L580.92 377.46"
fill="none" stroke="black" stroke-width="2"/>
<path d="M609.3 165.69L609.3 376.64"
fill="none" stroke="black" stroke-width="2"/>
<path d="M637.69 164.75L637.69 375.69"
fill="none" stroke="black" stroke-width="2"/>
<path d="M666.07 163.68L666.07 374.62"
fill="none" stroke="black" stroke-width="2"/>
<path d="M126.77 187.06L175.78 188.92M175.78 188.92L224.8 190.42M224.8 190.42L273.82 191.56M273.82 191.56L322.86 192.33M322.86 192.33L371.9 192.73M371.9 192.73L420.94 192.77M420.94 192.77L469.98 192.45M469.98 192.45L519.01 191.76M519.01 191.76L568.04 190.71M568.04 190.71L617.06 189.3M617.06 189.3L666.07 187.52"
fill="none" stroke="black" stroke-width="2"/>
<path d="M126.77 213.77L175.78 215.63M175.78 215.63L224.8 217.13M224.8 217.13L273.82 218.26M273.82 218.26L322.86 219.03M322.86 219.03L371.9 219.44M371.9 219.44L420.94 219.48M420.94 219.48L469.98 219.15M469.98 219.15L519.01 218.47M519.01 218.47L568.04 217.42M568.04 217.42L617.06 216M617.06 216L666.07 214.22"
fill="none" stroke="black" stroke-width="2"/>
<path d="M126.77 241.55L175.78 243.41M175.78 243.41L224.8 244.91M224.8 244.91L273.82 246.05M273.82 246.05L322.86 246.82M322.86 246.82L371.9 247.22M371.9 247.22L420.94 247.26M420.94 247.26L469.98 246.94M469.98 246.94L519.01 246.25M519.01 246.25L568.04 245.2M568.04 245.2L617.06 243.79M617.06 243.79L666.07 242.01"
fill="none" stroke="black" stroke-width="2"/>
<path d="M126.77 268.38L175.78 270.24M175.78 270.24L224.8 271.74M224.8 271.74L273.82 272.87M273.82 272.87L322.86 273.64M322.86 273.64L371.9 274.05M371.9 274.05L420.94 274.09M420.94 274.09L469.98 273.76M469.98 273.76L519.01 273.08M519.01 273.08L568.04 272.03M568.04 272.03L617.06 270.61M617.06 270.61L666.07 268.83"
fill="none" stroke="black" stroke-width="2"/>
<path d="M126.77 295.52L175.78 297.38M175.78 297.38L224.8 298.88M224.8 298.88L273.82 300.01M273.82 300.01L322.86 300.78M322.86 300.78L371.9 301.19M371.9 301.19L420.94 301.23M420.94 301.23L469.98 300.91M469.98 300.91L519.01 300.22M519.01 300.22L568.04 299.17M568.04 299.17L617.06 297.75M617.06 297.75L666.07 295.98"
fill="none" stroke="black" stroke-width="2"/>
<path d="M126.77 323.64L175.78 325.5M175.78 325.5L224.8 327M224.8 327L273.82 328.14M273.82 328.14L322.86 328.91M322.86 328.91L371.9 329.31M371.9 329.31L420.94 329.35M420.94 329.35L469.98 329.03M469.98 329.03L519.01 328.34M519.01 328.34L568.04 327.29M568.04 327.29L617.06 325.88M617.06 325.88L666.07 324.1"
fill="none" stroke="black" stroke-width="2"/>
<path d="M126.77 350.82L175.78 352.68M175.78 352.68L224.8 354.18M224.8 354.18L273.82 355.31M273.82 355.31L322.86 356.08M322.86 356.08L371.9 356.49M371.9 356.49L420.94 356.53M420.94 356.53L469.98 356.21M469.98 356.21L519.01 355.52M519.01 355.52L568.04 354.47M568.04 354.47L617.06 353.05M617.06 353.05L666.07 351.27"
fill="none" stroke="black" stroke-width="2"/>
</svg>
