<?xml version="1.0" encoding="UTF-8"?>
<svg xmlns="http://www.w3.org/2000/svg" width="800.000" height="600.000" viewBox="0.0 0.0 800.000 600.000" version="1.1">
  <title>Produce by Acme CAD Converter</title>
  <desc>Produce by Acme CAD Converter</desc>
<path d="M4.12 80.79L4.12 519.21"
fill="none" stroke="RGB(237,31,36)" stroke-width="0"/>
<path d="M101.34 332.71L146.92 335.19M146.92 335.19L192.53 337.27M192.53 337.27L238.15 338.96M238.15 338.96L283.78 340.25M283.78 340.25L329.42 341.15M329.42 341.15L375.07 341.65M375.07 341.65L420.72 341.75M420.72 341.75L466.37 341.46M466.37 341.46L512.02 340.77M512.02 340.77L557.66 339.68M557.66 339.68L603.28 338.2M603.28 338.2L648.89 336.32M648.89 336.32L694.49 334.04M694.49 334.04L693.98 254.66M693.98 254.66L693.98 254.66M693.98 254.66L644.58 256.82M644.58 256.82L595.17 258.6M595.17 258.6L545.74 259.98M545.74 259.98L496.3 260.97M496.3 260.97L446.85 261.57M446.85 261.57L397.4 261.78M397.4 261.78L347.95 261.6M347.95 261.6L298.51 261.03M298.51 261.03L249.07 260.07M249.07 260.07L199.64 258.71M199.64 258.71L150.22 256.97M150.22 256.97L100.81 254.83M100.81 254.83L101.34 332.71"
fill="none" stroke="black" stroke-width="2"/>
<path d="M2.26 325.3L46.37 328.69M46.37 328.69L90.51 331.69M90.51 331.69L134.67 334.3M134.67 334.3L178.86 336.52M178.86 336.52L223.06 338.35M223.06 338.35L267.27 339.79M267.27 339.79L311.5 340.83M311.5 340.83L355.74 341.49M355.74 341.49L399.98 341.75M399.98 341.75L444.21 341.63M444.21 341.63L488.45 341.11M488.45 341.11L532.68 340.2M532.68 340.2L576.9 338.9M576.9 338.9L621.11 337.21M621.11 337.21L665.3 335.13M665.3 335.13L709.47 332.66M709.47 332.66L753.62 329.79M753.62 329.79L797.74 326.54"
fill="none" stroke="RGB(2,158,33)" stroke-width="2"/>
<path d="M112.37 248.36L664.21 248.36M112.39 258.71L664.07 258.71M112.41 269.05L663.94 269.05M112.43 279.39L663.8 279.39M112.46 289.74L663.66 289.74M112.48 300.08L663.52 300.08M112.5 310.42L663.39 310.42M119.88 314.75L119.88 242.66M130.23 315.11L130.23 242.96M140.57 315.47L140.57 243.26M150.92 315.83L150.92 243.56M161.26 316.19L161.26 243.86M171.61 316.49L171.61 244.1M181.95 316.79L181.95 244.33M192.3 317.08L192.3 244.56M202.64 317.37L202.64 244.79M212.99 317.66L212.99 245.01M223.33 317.89L223.33 245.18M233.68 318.11L233.68 245.34M244.02 318.33L244.02 245.5M254.37 318.56L254.37 245.66M264.71 318.77L264.71 245.81M275.06 318.92L275.06 245.9M285.4 319.08L285.4 245.99M295.75 319.23L295.75 246.09M306.1 319.39L306.1 246.18M316.44 319.52L316.44 246.25M326.79 319.61L326.79 246.27M337.13 319.69L337.13 246.3M347.48 319.78L347.48 246.32M357.82 319.87L357.82 246.35M368.17 319.92L368.17 246.34M378.51 319.94L378.51 246.29M388.86 319.95L388.86 246.25M399.2 319.97L399.2 246.21M409.55 319.99L409.55 246.16M419.89 319.96L419.89 246.07M430.24 319.91L430.24 245.96M440.58 319.86L440.58 245.85M450.93 319.81L450.93 245.74M461.27 319.76L461.27 245.62M471.62 319.65L471.62 245.46M481.97 319.53L481.97 245.28M492.31 319.41L492.31 245.1M502.66 319.29L502.66 244.91M513 319.18L513 244.73M523.35 318.99L523.35 244.49M533.69 318.8L533.69 244.24M544.04 318.61L544.04 243.99M554.38 318.43L554.38 243.74M564.73 318.23L564.73 243.48M575.07 317.97L575.07 243.17M585.42 317.71L585.42 242.85M595.76 317.46L595.76 242.53M606.11 317.2L606.11 242.21M616.45 316.92L616.45 241.88M626.8 316.6L626.8 241.49M637.14 316.27L637.14 241.1M647.49 315.95L647.49 240.72M657.83 315.62L657.83 240.33"
fill="none" stroke="RGB(106,106,106)" stroke-width="2"/>
<path d="M100.81 254.83L150.22 256.97M150.22 256.97L199.64 258.71M199.64 258.71L249.07 260.07M249.07 260.07L298.51 261.03M298.51 261.03L347.95 261.6M347.95 261.6L397.4 261.78M397.4 261.78L446.85 261.57M446.85 261.57L496.3 260.97M496.3 260.97L545.74 259.98M545.74 259.98L595.17 258.6M595.17 258.6L644.58 256.82M644.58 256.82L693.98 254.66M693.98 254.66L664.32 240.09M664.32 240.09L664.32 240.09M664.32 240.09L614.17 241.96M614.17 241.96L564 243.51M564 243.51L513.82 244.72M513.82 244.72L463.64 245.6M463.64 245.6L413.45 246.15M413.45 246.15L363.26 246.36M363.26 246.36L313.07 246.24M313.07 246.24L262.89 245.79M262.89 245.79L212.7 245.01M212.7 245.01L162.52 243.89M162.52 243.89L112.35 242.45M112.35 242.45L100.81 254.83"
fill="none" stroke="black" stroke-width="2"/>
<path d="M689.1 252.26L686.99 254.96M681.8 248.67L676.53 255.42M674.51 245.09L666.07 255.88M667.21 241.51L655.62 256.34M658.03 240.32L645.16 256.8M647.63 240.71L634.77 257.17M637.23 241.1L624.38 257.55M626.82 241.49L613.99 257.92M616.42 241.88L603.6 258.29M606.06 242.21L593.22 258.65M595.71 242.53L582.89 258.94M585.37 242.85L572.57 259.23M575.02 243.17L562.25 259.52M564.67 243.49L551.92 259.8M554.38 243.74L541.62 260.06M544.08 243.99L531.36 260.27M533.79 244.24L521.1 260.47M523.5 244.49L510.84 260.68M513.21 244.73L500.58 260.88M502.97 244.91L490.36 261.04M492.73 245.09L480.17 261.17M482.49 245.27L469.97 261.29M472.25 245.45L459.78 261.41M462.02 245.62L449.58 261.54M451.84 245.73L439.43 261.6M441.65 245.84L429.3 261.65M431.46 245.95L419.17 261.69M421.28 246.06L409.03 261.73M411.11 246.16L398.9 261.77M400.97 246.2L388.82 261.75M390.84 246.24L378.75 261.71M380.71 246.29L368.68 261.68M370.58 246.33L358.61 261.64M360.46 246.35L348.54 261.6M350.38 246.33L338.53 261.49M340.3 246.31L328.52 261.38M330.22 246.28L318.51 261.26M320.14 246.26L308.51 261.14M310.07 246.22L298.5 261.03M300.04 246.13L288.55 260.83M290.01 246.04L278.6 260.64M279.99 245.95L268.65 260.45M269.96 245.86L258.71 260.25M259.94 245.75L248.76 260.06M249.97 245.59L238.87 259.79M239.99 245.43L228.99 259.52M230.01 245.28L219.1 259.25M220.04 245.12L209.21 258.97M210.07 244.95L199.33 258.7M200.15 244.73L189.5 258.35M190.22 244.51L179.67 258.01M180.29 244.29L169.84 257.66M170.37 244.07L160.02 257.31M160.45 243.83L150.19 256.97M150.57 243.55L140.42 256.55M140.7 243.27L130.65 256.12M130.82 242.98L120.88 255.7M120.95 242.7L111.11 255.28M104.21 251.19L101.34 254.86M688.96 252.19L692.22 254.74M660.71 240.22L679.98 255.27M648.38 240.68L667.74 255.81M636.04 241.15L655.5 256.34M623.71 241.61L643.25 256.87M611.35 242.05L630.89 257.31M598.91 242.43L618.53 257.76M586.48 242.82L606.17 258.2M574.04 243.2L593.8 258.63M561.59 243.57L581.32 258.98M549.05 243.87L568.84 259.33M536.51 244.17L556.36 259.68M523.97 244.47L543.87 260.02M511.41 244.76L531.26 260.27M498.77 244.98L518.66 260.52M486.13 245.2L506.06 260.77M473.49 245.43L493.43 261M460.82 245.63L480.7 261.16M448.07 245.77L467.97 261.31M435.33 245.91L455.25 261.47M422.58 246.05L442.48 261.59M409.8 246.16L429.62 261.64M396.94 246.22L416.76 261.7M384.09 246.27L403.91 261.75M371.23 246.33L390.99 261.76M358.34 246.35L378 261.71M345.37 246.32L365.01 261.66M332.41 246.29L352.03 261.61M319.44 246.26L338.95 261.5M306.42 246.18L325.83 261.34M293.34 246.07L312.71 261.19M280.27 245.95L299.59 261.04M267.19 245.83L286.35 260.79M254.04 245.65L273.09 260.53M240.85 245.45L259.83 260.28M227.66 245.24L246.55 260M214.47 245.04L233.16 259.63M201.19 244.75L219.76 259.26M187.88 244.46L206.36 258.9M174.58 244.16L192.9 258.47M161.26 243.86L179.36 258M147.84 243.47L165.82 257.52M134.42 243.08L152.29 257.04M121 242.7L138.63 256.47M110.42 244.53L124.94 255.88M104.97 250.37L111.26 255.29"
fill="none" stroke="black" stroke-width="2"/>
<path d="M4.12 309.75L56.99 312.27M56.99 312.27L109.88 314.43M109.88 314.43L162.78 316.24M162.78 316.24L215.69 317.7M215.69 317.7L268.6 318.8M268.6 318.8L321.53 319.56M321.53 319.56L374.45 319.96M374.45 319.96L427.38 320.02M427.38 320.02L480.31 319.72M480.31 319.72L533.24 319.07M533.24 319.07L586.16 318.07M586.16 318.07L639.07 316.72M639.07 316.72L691.97 315.02M691.97 315.02L744.86 312.96M744.86 312.96L797.74 310.56"
fill="none" stroke="RGB(2,158,33)" stroke-width="2"/>
<path d="M2.32 249.42L51.98 252.35M51.98 252.35L101.66 254.89M101.66 254.89L151.36 257.04M151.36 257.04L201.08 258.79M201.08 258.79L250.8 260.14M250.8 260.14L300.54 261.1M300.54 261.1L350.29 261.66M350.29 261.66L400.03 261.83M400.03 261.83L449.78 261.6M449.78 261.6L499.52 260.97M499.52 260.97L549.26 259.95M549.26 259.95L598.99 258.54M598.99 258.54L648.7 256.73M648.7 256.73L698.4 254.52M698.4 254.52L748.08 251.92M748.08 251.92L797.74 248.92"
fill="none" stroke="RGB(2,158,33)" stroke-width="2"/>
<path d="M4.12 237.94L57 240.35M57 240.35L109.9 242.37M109.9 242.37L162.81 244M162.81 244L215.73 245.24M215.73 245.24L268.66 246.09M268.66 246.09L321.59 246.56M321.59 246.56L374.53 246.63M374.53 246.63L427.46 246.31M427.46 246.31L480.39 245.61M480.39 245.61L533.32 244.51M533.32 244.51L586.23 243.03M586.23 243.03L639.13 241.15M639.13 241.15L692.02 238.89M692.02 238.89L744.89 236.24M744.89 236.24L797.74 233.2"
fill="none" stroke="RGB(2,158,33)" stroke-width="2"/>
<path d="M101.34 332.71L146.92 335.19M146.92 335.19L192.53 337.27M192.53 337.27L238.15 338.96M238.15 338.96L283.78 340.25M283.78 340.25L329.42 341.15M329.42 341.15L375.07 341.65M375.07 341.65L420.72 341.75M420.72 341.75L466.37 341.46M466.37 341.46L512.02 340.77M512.02 340.77L557.66 339.68M557.66 339.68L603.28 338.2M603.28 338.2L648.89 336.32M648.89 336.32L694.49 334.04M694.49 334.04L663.32 315.45M663.32 315.45L663.32 315.45M663.32 315.45L613.26 317.02M613.26 317.02L563.19 318.27M563.19 318.27L513.11 319.17M513.11 319.17L463.03 319.75M463.03 319.75L412.95 320M412.95 320L362.86 319.91M362.86 319.91L312.78 319.49M312.78 319.49L262.7 318.74M262.7 318.74L212.63 317.65M212.63 317.65L162.56 316.24M162.56 316.24L112.51 314.49M112.51 314.49L101.34 332.71"
fill="none" stroke="black" stroke-width="2"/>
<path d="M112.51 314.49L162.56 316.24M162.56 316.24L212.63 317.65M212.63 317.65L262.7 318.74M262.7 318.74L312.78 319.49M312.78 319.49L362.86 319.91M362.86 319.91L412.95 320M412.95 320L463.03 319.75M463.03 319.75L513.11 319.17M513.11 319.17L563.19 318.27M563.19 318.27L613.26 317.02M613.26 317.02L663.32 315.45M663.32 315.45L664.32 240.09M664.32 240.09L664.32 240.09M664.32 240.09L614.17 241.96M614.17 241.96L564 243.51M564 243.51L513.82 244.72M513.82 244.72L463.64 245.6M463.64 245.6L413.45 246.15M413.45 246.15L363.26 246.36M363.26 246.36L313.07 246.24M313.07 246.24L262.89 245.79M262.89 245.79L212.7 245.01M212.7 245.01L162.52 243.89M162.52 243.89L112.35 242.45M112.35 242.45L112.51 314.49"
fill="none" stroke="black" stroke-width="2"/>
<path d="M692.04 332.58L690.76 334.23M685.15 328.47L680.25 334.75M678.26 324.36L669.74 335.28M671.38 320.26L659.23 335.8M664.49 316.15L648.72 336.32M654.72 315.72L638.29 336.75M644.37 316.05L627.85 337.18M634.02 316.37L617.42 337.61M623.66 316.7L606.98 338.04M613.31 317.02L596.6 338.41M603.01 317.28L586.23 338.75M592.71 317.53L575.87 339.09M582.42 317.79L565.51 339.42M572.12 318.04L555.16 339.74M561.83 318.29L544.87 339.98M551.58 318.48L534.58 340.23M541.34 318.66L524.29 340.47M531.09 318.85L514 340.72M520.85 319.03L503.77 340.89M510.62 319.2L493.55 341.05M500.43 319.32L483.33 341.2M490.24 319.44L473.11 341.36M480.05 319.55L462.92 341.48M469.86 319.67L452.77 341.55M459.69 319.77L442.62 341.61M449.55 319.82L432.47 341.68M439.41 319.87L422.32 341.74M429.27 319.92L412.22 341.73M419.14 319.97L402.14 341.71M409.02 319.99L392.06 341.69M398.93 319.97L381.98 341.67M388.85 319.95L371.92 341.62M378.76 319.94L361.91 341.51M368.68 319.92L351.9 341.4M358.62 319.87L341.88 341.29M348.58 319.79L331.87 341.18M338.55 319.7L321.91 341M328.52 319.62L311.96 340.81M318.48 319.54L302.01 340.61M308.47 319.42L292.07 340.42M298.49 319.27L282.13 340.21M288.51 319.12L272.25 339.93M278.53 318.98L262.37 339.65M268.55 318.83L252.49 339.37M258.58 318.65L242.61 339.09M248.65 318.43L232.77 338.76M238.72 318.22L222.95 338.4M228.79 318L213.14 338.04M218.86 317.79L203.32 337.67M208.95 317.55L193.51 337.31M199.07 317.27L183.75 336.87M189.19 316.99L174 336.43M179.31 316.71L164.25 335.98M169.43 316.43L154.5 335.53M159.56 316.13L144.77 335.07M149.73 315.79L135.08 334.54M139.9 315.45L125.39 334.02M130.07 315.11L115.71 333.49M120.24 314.76L106.02 332.96M663.2 315.46L687.45 334.39M650.78 315.85L675.3 335M638.35 316.24L663.15 335.6M625.93 316.63L651 336.21M613.5 317.02L638.74 336.73M600.97 317.33L626.46 337.24M588.45 317.64L614.19 337.75M575.92 317.95L601.89 338.24M563.39 318.26L589.48 338.64M550.76 318.49L577.07 339.05M538.13 318.72L564.67 339.45M525.49 318.95L552.2 339.81M512.86 319.18L539.66 340.11M500.12 319.32L527.11 340.41M487.38 319.47L514.57 340.71M474.65 319.62L501.92 340.92M461.9 319.76L489.24 341.11M449.05 319.82L476.56 341.3M436.21 319.88L463.85 341.47M423.36 319.94L451.03 341.56M410.5 319.99L438.21 341.64M397.54 319.97L425.39 341.72M384.59 319.95L412.48 341.73M371.63 319.92L399.51 341.7M358.64 319.87L386.55 341.68M345.57 319.76L373.57 341.63M332.51 319.65L360.46 341.49M319.44 319.54L347.35 341.35M306.32 319.39L334.24 341.2M293.14 319.19L321.04 340.99M279.96 319L307.78 340.73M266.79 318.8L294.52 340.47M253.53 318.54L281.23 340.18M240.23 318.25L267.82 339.8M226.94 317.96L254.41 339.42M213.65 317.68L241 339.04M200.24 317.3L227.46 338.57M186.83 316.93L213.89 338.06M173.42 316.55L200.32 337.56M159.99 316.15L186.69 337.01M146.46 315.68L172.96 336.38M132.93 315.21L159.23 335.75M119.4 314.73L145.48 335.11M110.45 317.84L131.59 334.35M106.27 324.67L117.69 333.6M102.08 331.5L103.8 332.84"
fill="none" stroke="black" stroke-width="2"/>
<path d="M100.86 262.31L694.03 262.31M100.93 272.66L694.1 272.66M101 283L694.16 283M101.07 293.34L694.23 293.34M101.14 303.69L694.3 303.69M101.21 314.03L694.36 314.03M101.28 324.38L694.43 324.38M138.31 334.72L680.89 334.72M104.74 332.89L104.74 255M115.08 333.45L115.08 255.45M125.43 334.02L125.43 255.9M135.77 334.58L135.77 256.34M146.12 335.14L146.12 256.79M156.46 335.62L156.46 257.19M166.81 336.1L166.81 257.55M177.16 336.57L177.16 257.92M187.5 337.04L187.5 258.28M197.85 337.47L197.85 258.65M208.19 337.85L208.19 258.95M218.54 338.24L218.54 259.23M228.88 338.62L228.88 259.51M239.23 338.99L239.23 259.8M249.57 339.29L249.57 260.08M259.92 339.58L259.92 260.28M270.26 339.87L270.26 260.48M280.61 340.16L280.61 260.68M290.95 340.4L290.95 260.88M301.3 340.6L301.3 261.06M311.64 340.8L311.64 261.18M321.99 341L321.99 261.3M332.33 341.18L332.33 261.42M342.68 341.3L342.68 261.54M353.02 341.41L353.02 261.62M363.37 341.52L363.37 261.66M373.72 341.63L373.72 261.69M384.06 341.67L384.06 261.73M394.41 341.69L394.41 261.77M404.75 341.72L404.75 261.75M415.1 341.74L415.1 261.71M425.44 341.72L425.44 261.66M435.79 341.66L435.79 261.62M446.13 341.59L446.13 261.57M456.48 341.52L456.48 261.45M466.82 341.45L466.82 261.33M477.17 341.29L477.17 261.2M487.51 341.14L487.51 261.08M497.86 340.98L497.86 260.94M508.2 340.83L508.2 260.73M518.55 340.61L518.55 260.52M528.89 340.37L528.89 260.32M539.24 340.12L539.24 260.11M549.59 339.87L549.59 259.87M559.93 339.61L559.93 259.58M570.28 339.27L570.28 259.29M580.62 338.93L580.62 259M590.97 338.6L590.97 258.71M601.31 338.26L601.31 258.37M611.66 337.85L611.66 258M622 337.42L622 257.63M632.35 337L632.35 257.26M642.69 336.57L642.69 256.89M653.04 336.11L653.04 256.45M663.38 335.59L663.38 256M673.73 335.08L673.73 255.55M684.07 334.56L684.07 255.09M694.42 334.04L694.42 323.08"
fill="none" stroke="RGB(106,106,106)" stroke-width="2"/>
</svg>
