<?xml version="1.0" encoding="UTF-8"?>
<svg xmlns="http://www.w3.org/2000/svg" width="800.000" height="600.000" viewBox="0.0 0.0 800.000 600.000" version="1.1">
  <title>Produce by Acme CAD Converter</title>
  <desc>Produce by Acme CAD Converter</desc>
<path d="M2.26 80.69L2.26 519.31"
fill="none" stroke="RGB(237,31,36)" stroke-width="0"/>
<path d="M695.04 318.19L794.83 318.19"
fill="none" stroke="black" stroke-width="2"/>
<path d="M695.04 304.53L794.88 304.53"
fill="none" stroke="black" stroke-width="2"/>
<path d="M794.83 318.19L795.48 318.03M795.48 318.03L796.09 317.54M796.09 317.54L796.64 316.74M796.64 316.74L797.1 315.67M797.1 315.67L797.44 314.37M797.44 314.37L797.66 312.93M797.66 312.93L797.74 311.4M797.74 311.4L797.67 309.87M797.67 309.87L797.46 308.42M797.46 308.42L797.12 307.12M797.12 307.12L796.66 306.03M796.66 306.03L796.12 305.21M796.12 305.21L795.51 304.7M795.51 304.7L794.87 304.53"
fill="none" stroke="black" stroke-width="2"/>
<path d="M695.04 182.26L794.83 182.26"
fill="none" stroke="black" stroke-width="2"/>
<path d="M695.04 168.6L794.88 168.6"
fill="none" stroke="black" stroke-width="2"/>
<path d="M794.83 182.26L795.48 182.1M795.48 182.1L796.09 181.61M796.09 181.61L796.64 180.81M796.64 180.81L797.1 179.73M797.1 179.73L797.44 178.44M797.44 178.44L797.66 176.99M797.66 176.99L797.74 175.47M797.74 175.47L797.67 173.94M797.67 173.94L797.46 172.49M797.46 172.49L797.12 171.19M797.12 171.19L796.66 170.1M796.66 170.1L796.12 169.28M796.12 169.28L795.51 168.77M795.51 168.77L794.87 168.6"
fill="none" stroke="black" stroke-width="2"/>
<path d="M112.69 318.19L6.93 318.19"
fill="none" stroke="black" stroke-width="2"/>
<path d="M112.69 304.53L6.93 304.53"
fill="none" stroke="black" stroke-width="2"/>
<path d="M112.69 182.26L6.93 182.26"
fill="none" stroke="black" stroke-width="2"/>
<path d="M112.69 168.6L6.93 168.6"
fill="none" stroke="black" stroke-width="2"/>
<path d="M7.02 182.26L7.71 182.06M7.71 182.06L8.35 181.47M8.35 181.47L8.92 180.54M8.92 180.54L9.38 179.31M9.38 179.31L9.7 177.85M9.7 177.85L9.86 176.25M9.86 176.25L9.86 174.6M9.86 174.6L9.7 173.01M9.7 173.01L9.38 171.55M9.38 171.55L8.92 170.32M8.92 170.32L8.35 169.38M8.35 169.38L7.71 168.8M7.71 168.8L7.02 168.6M7.02 168.6L6.33 168.8M6.33 168.8L5.69 169.38M5.69 169.38L5.12 170.32M5.12 170.32L4.66 171.55M4.66 171.55L4.34 173.01M4.34 173.01L4.18 174.6M4.18 174.6L4.18 176.25M4.18 176.25L4.34 177.85M4.34 177.85L4.66 179.31M4.66 179.31L5.12 180.54M5.12 180.54L5.69 181.47M5.69 181.47L6.33 182.06M6.33 182.06L7.02 182.26"
fill="none" stroke="black" stroke-width="2"/>
<path d="M7.02 318.19L7.71 317.99M7.71 317.99L8.35 317.41M8.35 317.41L8.92 316.47M8.92 316.47L9.38 315.24M9.38 315.24L9.7 313.78M9.7 313.78L9.86 312.18M9.86 312.18L9.86 310.54M9.86 310.54L9.7 308.94M9.7 308.94L9.38 307.48M9.38 307.48L8.92 306.25M8.92 306.25L8.35 305.31M8.35 305.31L7.71 304.73M7.71 304.73L7.02 304.53M7.02 304.53L6.33 304.73M6.33 304.73L5.69 305.31M5.69 305.31L5.12 306.25M5.12 306.25L4.66 307.48M4.66 307.48L4.34 308.94M4.34 308.94L4.18 310.54M4.18 310.54L4.18 312.18M4.18 312.18L4.34 313.78M4.34 313.78L4.66 315.24M4.66 315.24L5.12 316.47M5.12 316.47L5.69 317.41M5.69 317.41L6.33 317.99M6.33 317.99L7.02 318.19"
fill="none" stroke="black" stroke-width="2"/>
<path d="M112.69 156.84L112.69 329.32"
fill="none" stroke="black" stroke-width="2"/>
<path d="M112.69 156.84L128.46 156.84"
fill="none" stroke="black" stroke-width="2"/>
<path d="M128.46 156.84L128.46 329.32"
fill="none" stroke="black" stroke-width="2"/>
<path d="M112.69 329.32L128.46 329.32"
fill="none" stroke="black" stroke-width="2"/>
<path d="M128.46 329.32L129.82 326.87"
fill="none" stroke="black" stroke-width="2"/>
<path d="M129.82 154.39L129.82 326.87"
fill="none" stroke="black" stroke-width="2"/>
<path d="M112.69 156.84L114.05 154.39"
fill="none" stroke="black" stroke-width="2"/>
<path d="M114.05 154.39L129.82 154.39"
fill="none" stroke="black" stroke-width="2"/>
<path d="M129.82 154.39L128.46 156.84"
fill="none" stroke="black" stroke-width="2"/>
<path d="M129.82 156.84L129.82 329.32"
fill="none" stroke="black" stroke-width="2"/>
<path d="M129.82 156.84L145.59 156.84"
fill="none" stroke="black" stroke-width="2"/>
<path d="M145.59 156.84L145.59 329.32"
fill="none" stroke="black" stroke-width="2"/>
<path d="M129.82 329.32L145.59 329.32"
fill="none" stroke="black" stroke-width="2"/>
<path d="M145.59 329.32L146.95 326.87"
fill="none" stroke="black" stroke-width="2"/>
<path d="M146.95 154.39L146.95 326.87"
fill="none" stroke="black" stroke-width="2"/>
<path d="M129.82 156.84L131.17 154.39"
fill="none" stroke="black" stroke-width="2"/>
<path d="M131.17 154.39L146.95 154.39"
fill="none" stroke="black" stroke-width="2"/>
<path d="M146.95 154.39L145.59 156.84"
fill="none" stroke="black" stroke-width="2"/>
<path d="M146.95 156.84L146.95 329.32"
fill="none" stroke="black" stroke-width="2"/>
<path d="M146.95 156.84L162.72 156.84"
fill="none" stroke="black" stroke-width="2"/>
<path d="M162.72 156.84L162.72 329.32"
fill="none" stroke="black" stroke-width="2"/>
<path d="M146.95 329.32L162.72 329.32"
fill="none" stroke="black" stroke-width="2"/>
<path d="M162.72 329.32L164.07 326.87"
fill="none" stroke="black" stroke-width="2"/>
<path d="M164.07 154.39L164.07 326.87"
fill="none" stroke="black" stroke-width="2"/>
<path d="M146.95 156.84L148.3 154.39"
fill="none" stroke="black" stroke-width="2"/>
<path d="M148.3 154.39L164.07 154.39"
fill="none" stroke="black" stroke-width="2"/>
<path d="M164.07 154.39L162.72 156.84"
fill="none" stroke="black" stroke-width="2"/>
<path d="M164.07 156.84L164.07 329.32"
fill="none" stroke="black" stroke-width="2"/>
<path d="M164.07 156.84L179.84 156.84"
fill="none" stroke="black" stroke-width="2"/>
<path d="M179.84 156.84L179.84 329.32"
fill="none" stroke="black" stroke-width="2"/>
<path d="M164.07 329.32L179.84 329.32"
fill="none" stroke="black" stroke-width="2"/>
<path d="M179.84 329.32L181.2 326.87"
fill="none" stroke="black" stroke-width="2"/>
<path d="M181.2 154.39L181.2 326.87"
fill="none" stroke="black" stroke-width="2"/>
<path d="M164.07 156.84L165.43 154.39"
fill="none" stroke="black" stroke-width="2"/>
<path d="M165.43 154.39L181.2 154.39"
fill="none" stroke="black" stroke-width="2"/>
<path d="M181.2 154.39L179.84 156.84"
fill="none" stroke="black" stroke-width="2"/>
<path d="M181.2 156.84L181.2 329.32"
fill="none" stroke="black" stroke-width="2"/>
<path d="M181.2 156.84L196.97 156.84"
fill="none" stroke="black" stroke-width="2"/>
<path d="M196.97 156.84L196.97 329.32"
fill="none" stroke="black" stroke-width="2"/>
<path d="M181.2 329.32L196.97 329.32"
fill="none" stroke="black" stroke-width="2"/>
<path d="M196.97 329.32L198.33 326.87"
fill="none" stroke="black" stroke-width="2"/>
<path d="M198.33 154.39L198.33 326.87"
fill="none" stroke="black" stroke-width="2"/>
<path d="M181.2 156.84L182.56 154.39"
fill="none" stroke="black" stroke-width="2"/>
<path d="M182.56 154.39L198.33 154.39"
fill="none" stroke="black" stroke-width="2"/>
<path d="M198.33 154.39L196.97 156.84"
fill="none" stroke="black" stroke-width="2"/>
<path d="M198.33 156.84L198.33 329.32"
fill="none" stroke="black" stroke-width="2"/>
<path d="M198.33 156.84L214.1 156.84"
fill="none" stroke="black" stroke-width="2"/>
<path d="M214.1 156.84L214.1 329.32"
fill="none" stroke="black" stroke-width="2"/>
<path d="M198.33 329.32L214.1 329.32"
fill="none" stroke="black" stroke-width="2"/>
<path d="M214.1 329.32L215.46 326.87"
fill="none" stroke="black" stroke-width="2"/>
<path d="M215.46 154.39L215.46 326.87"
fill="none" stroke="black" stroke-width="2"/>
<path d="M198.33 156.84L199.69 154.39"
fill="none" stroke="black" stroke-width="2"/>
<path d="M199.69 154.39L215.46 154.39"
fill="none" stroke="black" stroke-width="2"/>
<path d="M215.46 154.39L214.1 156.84"
fill="none" stroke="black" stroke-width="2"/>
<path d="M215.46 156.84L215.46 329.32"
fill="none" stroke="black" stroke-width="2"/>
<path d="M215.46 156.84L231.23 156.84"
fill="none" stroke="black" stroke-width="2"/>
<path d="M231.23 156.84L231.23 329.32"
fill="none" stroke="black" stroke-width="2"/>
<path d="M215.46 329.32L231.23 329.32"
fill="none" stroke="black" stroke-width="2"/>
<path d="M231.23 329.32L232.59 326.87"
fill="none" stroke="black" stroke-width="2"/>
<path d="M232.59 154.39L232.59 326.87"
fill="none" stroke="black" stroke-width="2"/>
<path d="M215.46 156.84L216.81 154.39"
fill="none" stroke="black" stroke-width="2"/>
<path d="M216.81 154.39L232.59 154.39"
fill="none" stroke="black" stroke-width="2"/>
<path d="M232.59 154.39L231.23 156.84"
fill="none" stroke="black" stroke-width="2"/>
<path d="M232.59 156.84L232.59 329.32"
fill="none" stroke="black" stroke-width="2"/>
<path d="M232.59 156.84L248.36 156.84"
fill="none" stroke="black" stroke-width="2"/>
<path d="M248.36 156.84L248.36 329.32"
fill="none" stroke="black" stroke-width="2"/>
<path d="M232.59 329.32L248.36 329.32"
fill="none" stroke="black" stroke-width="2"/>
<path d="M248.36 329.32L249.71 326.87"
fill="none" stroke="black" stroke-width="2"/>
<path d="M249.71 154.39L249.71 326.87"
fill="none" stroke="black" stroke-width="2"/>
<path d="M232.59 156.84L233.94 154.39"
fill="none" stroke="black" stroke-width="2"/>
<path d="M233.94 154.39L249.71 154.39"
fill="none" stroke="black" stroke-width="2"/>
<path d="M249.71 154.39L248.36 156.84"
fill="none" stroke="black" stroke-width="2"/>
<path d="M249.71 156.84L249.71 329.32"
fill="none" stroke="black" stroke-width="2"/>
<path d="M249.71 156.84L265.48 156.84"
fill="none" stroke="black" stroke-width="2"/>
<path d="M265.48 156.84L265.48 329.32"
fill="none" stroke="black" stroke-width="2"/>
<path d="M249.71 329.32L265.48 329.32"
fill="none" stroke="black" stroke-width="2"/>
<path d="M265.48 329.32L266.84 326.87"
fill="none" stroke="black" stroke-width="2"/>
<path d="M266.84 154.39L266.84 326.87"
fill="none" stroke="black" stroke-width="2"/>
<path d="M249.71 156.84L251.07 154.39"
fill="none" stroke="black" stroke-width="2"/>
<path d="M251.07 154.39L266.84 154.39"
fill="none" stroke="black" stroke-width="2"/>
<path d="M266.84 154.39L265.48 156.84"
fill="none" stroke="black" stroke-width="2"/>
<path d="M266.84 156.84L266.84 329.32"
fill="none" stroke="black" stroke-width="2"/>
<path d="M266.84 156.84L282.61 156.84"
fill="none" stroke="black" stroke-width="2"/>
<path d="M282.61 156.84L282.61 329.32"
fill="none" stroke="black" stroke-width="2"/>
<path d="M266.84 329.32L282.61 329.32"
fill="none" stroke="black" stroke-width="2"/>
<path d="M282.61 329.32L283.97 326.87"
fill="none" stroke="black" stroke-width="2"/>
<path d="M283.97 154.39L283.97 326.87"
fill="none" stroke="black" stroke-width="2"/>
<path d="M266.84 156.84L268.2 154.39"
fill="none" stroke="black" stroke-width="2"/>
<path d="M268.2 154.39L283.97 154.39"
fill="none" stroke="black" stroke-width="2"/>
<path d="M283.97 154.39L282.61 156.84"
fill="none" stroke="black" stroke-width="2"/>
<path d="M283.97 156.84L283.97 329.32"
fill="none" stroke="black" stroke-width="2"/>
<path d="M283.97 156.84L299.74 156.84"
fill="none" stroke="black" stroke-width="2"/>
<path d="M299.74 156.84L299.74 329.32"
fill="none" stroke="black" stroke-width="2"/>
<path d="M283.97 329.32L299.74 329.32"
fill="none" stroke="black" stroke-width="2"/>
<path d="M299.74 329.32L301.1 326.87"
fill="none" stroke="black" stroke-width="2"/>
<path d="M301.1 154.39L301.1 326.87"
fill="none" stroke="black" stroke-width="2"/>
<path d="M283.97 156.84L285.33 154.39"
fill="none" stroke="black" stroke-width="2"/>
<path d="M285.33 154.39L301.1 154.39"
fill="none" stroke="black" stroke-width="2"/>
<path d="M301.1 154.39L299.74 156.84"
fill="none" stroke="black" stroke-width="2"/>
<path d="M301.1 156.84L301.1 329.32"
fill="none" stroke="black" stroke-width="2"/>
<path d="M301.1 156.84L316.87 156.84"
fill="none" stroke="black" stroke-width="2"/>
<path d="M316.87 156.84L316.87 329.32"
fill="none" stroke="black" stroke-width="2"/>
<path d="M301.1 329.32L316.87 329.32"
fill="none" stroke="black" stroke-width="2"/>
<path d="M316.87 329.32L318.22 326.87"
fill="none" stroke="black" stroke-width="2"/>
<path d="M318.22 154.39L318.22 326.87"
fill="none" stroke="black" stroke-width="2"/>
<path d="M301.1 156.84L302.45 154.39"
fill="none" stroke="black" stroke-width="2"/>
<path d="M302.45 154.39L318.22 154.39"
fill="none" stroke="black" stroke-width="2"/>
<path d="M318.22 154.39L316.87 156.84"
fill="none" stroke="black" stroke-width="2"/>
<path d="M318.22 156.84L318.22 329.32"
fill="none" stroke="black" stroke-width="2"/>
<path d="M318.22 156.84L334 156.84"
fill="none" stroke="black" stroke-width="2"/>
<path d="M334 156.84L334 329.32"
fill="none" stroke="black" stroke-width="2"/>
<path d="M318.22 329.32L334 329.32"
fill="none" stroke="black" stroke-width="2"/>
<path d="M334 329.32L335.35 326.87"
fill="none" stroke="black" stroke-width="2"/>
<path d="M335.35 154.39L335.35 326.87"
fill="none" stroke="black" stroke-width="2"/>
<path d="M318.22 156.84L319.58 154.39"
fill="none" stroke="black" stroke-width="2"/>
<path d="M319.58 154.39L335.35 154.39"
fill="none" stroke="black" stroke-width="2"/>
<path d="M335.35 154.39L334 156.84"
fill="none" stroke="black" stroke-width="2"/>
<path d="M335.35 156.84L335.35 329.32"
fill="none" stroke="black" stroke-width="2"/>
<path d="M335.35 156.84L351.12 156.84"
fill="none" stroke="black" stroke-width="2"/>
<path d="M351.12 156.84L351.12 329.32"
fill="none" stroke="black" stroke-width="2"/>
<path d="M335.35 329.32L351.12 329.32"
fill="none" stroke="black" stroke-width="2"/>
<path d="M351.12 329.32L352.48 326.87"
fill="none" stroke="black" stroke-width="2"/>
<path d="M352.48 154.39L352.48 326.87"
fill="none" stroke="black" stroke-width="2"/>
<path d="M335.35 156.84L336.71 154.39"
fill="none" stroke="black" stroke-width="2"/>
<path d="M336.71 154.39L352.48 154.39"
fill="none" stroke="black" stroke-width="2"/>
<path d="M352.48 154.39L351.12 156.84"
fill="none" stroke="black" stroke-width="2"/>
<path d="M352.48 156.84L352.48 329.32"
fill="none" stroke="black" stroke-width="2"/>
<path d="M352.48 156.84L368.25 156.84"
fill="none" stroke="black" stroke-width="2"/>
<path d="M368.25 156.84L368.25 329.32"
fill="none" stroke="black" stroke-width="2"/>
<path d="M352.48 329.32L368.25 329.32"
fill="none" stroke="black" stroke-width="2"/>
<path d="M368.25 329.32L369.61 326.87"
fill="none" stroke="black" stroke-width="2"/>
<path d="M369.61 154.39L369.61 326.87"
fill="none" stroke="black" stroke-width="2"/>
<path d="M352.48 156.84L353.84 154.39"
fill="none" stroke="black" stroke-width="2"/>
<path d="M353.84 154.39L369.61 154.39"
fill="none" stroke="black" stroke-width="2"/>
<path d="M369.61 154.39L368.25 156.84"
fill="none" stroke="black" stroke-width="2"/>
<path d="M369.61 156.84L369.61 329.32"
fill="none" stroke="black" stroke-width="2"/>
<path d="M369.61 156.84L385.38 156.84"
fill="none" stroke="black" stroke-width="2"/>
<path d="M385.38 156.84L385.38 329.32"
fill="none" stroke="black" stroke-width="2"/>
<path d="M369.61 329.32L385.38 329.32"
fill="none" stroke="black" stroke-width="2"/>
<path d="M385.38 329.32L386.74 326.87"
fill="none" stroke="black" stroke-width="2"/>
<path d="M386.74 154.39L386.74 326.87"
fill="none" stroke="black" stroke-width="2"/>
<path d="M369.61 156.84L370.97 154.39"
fill="none" stroke="black" stroke-width="2"/>
<path d="M370.97 154.39L386.74 154.39"
fill="none" stroke="black" stroke-width="2"/>
<path d="M386.74 154.39L385.38 156.84"
fill="none" stroke="black" stroke-width="2"/>
<path d="M386.74 156.84L386.74 329.32"
fill="none" stroke="black" stroke-width="2"/>
<path d="M386.74 156.84L402.51 156.84"
fill="none" stroke="black" stroke-width="2"/>
<path d="M402.51 156.84L402.51 329.32"
fill="none" stroke="black" stroke-width="2"/>
<path d="M386.74 329.32L402.51 329.32"
fill="none" stroke="black" stroke-width="2"/>
<path d="M402.51 329.32L403.86 326.87"
fill="none" stroke="black" stroke-width="2"/>
<path d="M403.86 154.39L403.86 326.87"
fill="none" stroke="black" stroke-width="2"/>
<path d="M386.74 156.84L388.09 154.39"
fill="none" stroke="black" stroke-width="2"/>
<path d="M388.09 154.39L403.86 154.39"
fill="none" stroke="black" stroke-width="2"/>
<path d="M403.86 154.39L402.51 156.84"
fill="none" stroke="black" stroke-width="2"/>
<path d="M403.86 156.84L403.86 329.32"
fill="none" stroke="black" stroke-width="2"/>
<path d="M403.86 156.84L419.64 156.84"
fill="none" stroke="black" stroke-width="2"/>
<path d="M419.64 156.84L419.64 329.32"
fill="none" stroke="black" stroke-width="2"/>
<path d="M403.86 329.32L419.64 329.32"
fill="none" stroke="black" stroke-width="2"/>
<path d="M419.64 329.32L420.99 326.87"
fill="none" stroke="black" stroke-width="2"/>
<path d="M420.99 154.39L420.99 326.87"
fill="none" stroke="black" stroke-width="2"/>
<path d="M403.86 156.84L405.22 154.39"
fill="none" stroke="black" stroke-width="2"/>
<path d="M405.22 154.39L420.99 154.39"
fill="none" stroke="black" stroke-width="2"/>
<path d="M420.99 154.39L419.64 156.84"
fill="none" stroke="black" stroke-width="2"/>
<path d="M420.99 156.84L420.99 329.32"
fill="none" stroke="black" stroke-width="2"/>
<path d="M420.99 156.84L436.76 156.84"
fill="none" stroke="black" stroke-width="2"/>
<path d="M436.76 156.84L436.76 329.32"
fill="none" stroke="black" stroke-width="2"/>
<path d="M420.99 329.32L436.76 329.32"
fill="none" stroke="black" stroke-width="2"/>
<path d="M436.76 329.32L438.12 326.87"
fill="none" stroke="black" stroke-width="2"/>
<path d="M438.12 154.39L438.12 326.87"
fill="none" stroke="black" stroke-width="2"/>
<path d="M420.99 156.84L422.35 154.39"
fill="none" stroke="black" stroke-width="2"/>
<path d="M422.35 154.39L438.12 154.39"
fill="none" stroke="black" stroke-width="2"/>
<path d="M438.12 154.39L436.76 156.84"
fill="none" stroke="black" stroke-width="2"/>
<path d="M438.12 156.84L438.12 329.32"
fill="none" stroke="black" stroke-width="2"/>
<path d="M438.12 156.84L453.89 156.84"
fill="none" stroke="black" stroke-width="2"/>
<path d="M453.89 156.84L453.89 329.32"
fill="none" stroke="black" stroke-width="2"/>
<path d="M438.12 329.32L453.89 329.32"
fill="none" stroke="black" stroke-width="2"/>
<path d="M453.89 329.32L455.25 326.87"
fill="none" stroke="black" stroke-width="2"/>
<path d="M455.25 154.39L455.25 326.87"
fill="none" stroke="black" stroke-width="2"/>
<path d="M438.12 156.84L439.48 154.39"
fill="none" stroke="black" stroke-width="2"/>
<path d="M439.48 154.39L455.25 154.39"
fill="none" stroke="black" stroke-width="2"/>
<path d="M455.25 154.39L453.89 156.84"
fill="none" stroke="black" stroke-width="2"/>
<path d="M455.25 156.84L455.25 329.32"
fill="none" stroke="black" stroke-width="2"/>
<path d="M455.25 156.84L471.02 156.84"
fill="none" stroke="black" stroke-width="2"/>
<path d="M471.02 156.84L471.02 329.32"
fill="none" stroke="black" stroke-width="2"/>
<path d="M455.25 329.32L471.02 329.32"
fill="none" stroke="black" stroke-width="2"/>
<path d="M471.02 329.32L472.38 326.87"
fill="none" stroke="black" stroke-width="2"/>
<path d="M472.38 154.39L472.38 326.87"
fill="none" stroke="black" stroke-width="2"/>
<path d="M455.25 156.84L456.6 154.39"
fill="none" stroke="black" stroke-width="2"/>
<path d="M456.6 154.39L472.38 154.39"
fill="none" stroke="black" stroke-width="2"/>
<path d="M472.38 154.39L471.02 156.84"
fill="none" stroke="black" stroke-width="2"/>
<path d="M472.38 156.84L472.38 329.32"
fill="none" stroke="black" stroke-width="2"/>
<path d="M472.38 156.84L488.15 156.84"
fill="none" stroke="black" stroke-width="2"/>
<path d="M488.15 156.84L488.15 329.32"
fill="none" stroke="black" stroke-width="2"/>
<path d="M472.38 329.32L488.15 329.32"
fill="none" stroke="black" stroke-width="2"/>
<path d="M488.15 329.32L489.5 326.87"
fill="none" stroke="black" stroke-width="2"/>
<path d="M489.5 154.39L489.5 326.87"
fill="none" stroke="black" stroke-width="2"/>
<path d="M472.38 156.84L473.73 154.39"
fill="none" stroke="black" stroke-width="2"/>
<path d="M473.73 154.39L489.5 154.39"
fill="none" stroke="black" stroke-width="2"/>
<path d="M489.5 154.39L488.15 156.84"
fill="none" stroke="black" stroke-width="2"/>
<path d="M489.5 156.84L489.5 329.32"
fill="none" stroke="black" stroke-width="2"/>
<path d="M489.5 156.84L505.27 156.84"
fill="none" stroke="black" stroke-width="2"/>
<path d="M505.27 156.84L505.27 329.32"
fill="none" stroke="black" stroke-width="2"/>
<path d="M489.5 329.32L505.27 329.32"
fill="none" stroke="black" stroke-width="2"/>
<path d="M505.27 329.32L506.63 326.87"
fill="none" stroke="black" stroke-width="2"/>
<path d="M506.63 154.39L506.63 326.87"
fill="none" stroke="black" stroke-width="2"/>
<path d="M489.5 156.84L490.86 154.39"
fill="none" stroke="black" stroke-width="2"/>
<path d="M490.86 154.39L506.63 154.39"
fill="none" stroke="black" stroke-width="2"/>
<path d="M506.63 154.39L505.27 156.84"
fill="none" stroke="black" stroke-width="2"/>
<path d="M506.63 156.84L506.63 329.32"
fill="none" stroke="black" stroke-width="2"/>
<path d="M506.63 156.84L522.4 156.84"
fill="none" stroke="black" stroke-width="2"/>
<path d="M522.4 156.84L522.4 329.32"
fill="none" stroke="black" stroke-width="2"/>
<path d="M506.63 329.32L522.4 329.32"
fill="none" stroke="black" stroke-width="2"/>
<path d="M522.4 329.32L523.76 326.87"
fill="none" stroke="black" stroke-width="2"/>
<path d="M523.76 154.39L523.76 326.87"
fill="none" stroke="black" stroke-width="2"/>
<path d="M506.63 156.84L507.99 154.39"
fill="none" stroke="black" stroke-width="2"/>
<path d="M507.99 154.39L523.76 154.39"
fill="none" stroke="black" stroke-width="2"/>
<path d="M523.76 154.39L522.4 156.84"
fill="none" stroke="black" stroke-width="2"/>
<path d="M523.76 156.84L523.76 329.32"
fill="none" stroke="black" stroke-width="2"/>
<path d="M523.76 156.84L539.53 156.84"
fill="none" stroke="black" stroke-width="2"/>
<path d="M539.53 156.84L539.53 329.32"
fill="none" stroke="black" stroke-width="2"/>
<path d="M523.76 329.32L539.53 329.32"
fill="none" stroke="black" stroke-width="2"/>
<path d="M539.53 329.32L540.89 326.87"
fill="none" stroke="black" stroke-width="2"/>
<path d="M540.89 154.39L540.89 326.87"
fill="none" stroke="black" stroke-width="2"/>
<path d="M523.76 156.84L525.12 154.39"
fill="none" stroke="black" stroke-width="2"/>
<path d="M525.12 154.39L540.89 154.39"
fill="none" stroke="black" stroke-width="2"/>
<path d="M540.89 154.39L539.53 156.84"
fill="none" stroke="black" stroke-width="2"/>
<path d="M540.89 156.84L540.89 329.32"
fill="none" stroke="black" stroke-width="2"/>
<path d="M540.89 156.84L556.66 156.84"
fill="none" stroke="black" stroke-width="2"/>
<path d="M556.66 156.84L556.66 329.32"
fill="none" stroke="black" stroke-width="2"/>
<path d="M540.89 329.32L556.66 329.32"
fill="none" stroke="black" stroke-width="2"/>
<path d="M556.66 329.32L558.02 326.87"
fill="none" stroke="black" stroke-width="2"/>
<path d="M558.02 154.39L558.02 326.87"
fill="none" stroke="black" stroke-width="2"/>
<path d="M540.89 156.84L542.24 154.39"
fill="none" stroke="black" stroke-width="2"/>
<path d="M542.24 154.39L558.02 154.39"
fill="none" stroke="black" stroke-width="2"/>
<path d="M558.02 154.39L556.66 156.84"
fill="none" stroke="black" stroke-width="2"/>
<path d="M558.02 156.84L558.02 329.32"
fill="none" stroke="black" stroke-width="2"/>
<path d="M558.02 156.84L573.79 156.84"
fill="none" stroke="black" stroke-width="2"/>
<path d="M573.79 156.84L573.79 329.32"
fill="none" stroke="black" stroke-width="2"/>
<path d="M558.02 329.32L573.79 329.32"
fill="none" stroke="black" stroke-width="2"/>
<path d="M573.79 329.32L575.14 326.87"
fill="none" stroke="black" stroke-width="2"/>
<path d="M575.14 154.39L575.14 326.87"
fill="none" stroke="black" stroke-width="2"/>
<path d="M558.02 156.84L559.37 154.39"
fill="none" stroke="black" stroke-width="2"/>
<path d="M559.37 154.39L575.14 154.39"
fill="none" stroke="black" stroke-width="2"/>
<path d="M575.14 154.39L573.79 156.84"
fill="none" stroke="black" stroke-width="2"/>
<path d="M575.14 156.84L575.14 329.32"
fill="none" stroke="black" stroke-width="2"/>
<path d="M575.14 156.84L590.91 156.84"
fill="none" stroke="black" stroke-width="2"/>
<path d="M590.91 156.84L590.91 329.32"
fill="none" stroke="black" stroke-width="2"/>
<path d="M575.14 329.32L590.91 329.32"
fill="none" stroke="black" stroke-width="2"/>
<path d="M590.91 329.32L592.27 326.87"
fill="none" stroke="black" stroke-width="2"/>
<path d="M592.27 154.39L592.27 326.87"
fill="none" stroke="black" stroke-width="2"/>
<path d="M575.14 156.84L576.5 154.39"
fill="none" stroke="black" stroke-width="2"/>
<path d="M576.5 154.39L592.27 154.39"
fill="none" stroke="black" stroke-width="2"/>
<path d="M592.27 154.39L590.91 156.84"
fill="none" stroke="black" stroke-width="2"/>
<path d="M592.27 156.84L592.27 329.32"
fill="none" stroke="black" stroke-width="2"/>
<path d="M592.27 156.84L608.04 156.84"
fill="none" stroke="black" stroke-width="2"/>
<path d="M608.04 156.84L608.04 329.32"
fill="none" stroke="black" stroke-width="2"/>
<path d="M592.27 329.32L608.04 329.32"
fill="none" stroke="black" stroke-width="2"/>
<path d="M608.04 329.32L609.4 326.87"
fill="none" stroke="black" stroke-width="2"/>
<path d="M609.4 154.39L609.4 326.87"
fill="none" stroke="black" stroke-width="2"/>
<path d="M592.27 156.84L593.63 154.39"
fill="none" stroke="black" stroke-width="2"/>
<path d="M593.63 154.39L609.4 154.39"
fill="none" stroke="black" stroke-width="2"/>
<path d="M609.4 154.39L608.04 156.84"
fill="none" stroke="black" stroke-width="2"/>
<path d="M609.4 156.84L609.4 329.32"
fill="none" stroke="black" stroke-width="2"/>
<path d="M609.4 156.84L625.17 156.84"
fill="none" stroke="black" stroke-width="2"/>
<path d="M625.17 156.84L625.17 329.32"
fill="none" stroke="black" stroke-width="2"/>
<path d="M609.4 329.32L625.17 329.32"
fill="none" stroke="black" stroke-width="2"/>
<path d="M625.17 329.32L626.53 326.87"
fill="none" stroke="black" stroke-width="2"/>
<path d="M626.53 154.39L626.53 326.87"
fill="none" stroke="black" stroke-width="2"/>
<path d="M609.4 156.84L610.76 154.39"
fill="none" stroke="black" stroke-width="2"/>
<path d="M610.76 154.39L626.53 154.39"
fill="none" stroke="black" stroke-width="2"/>
<path d="M626.53 154.39L625.17 156.84"
fill="none" stroke="black" stroke-width="2"/>
<path d="M626.53 156.84L626.53 329.32"
fill="none" stroke="black" stroke-width="2"/>
<path d="M626.53 156.84L642.3 156.84"
fill="none" stroke="black" stroke-width="2"/>
<path d="M642.3 156.84L642.3 329.32"
fill="none" stroke="black" stroke-width="2"/>
<path d="M626.53 329.32L642.3 329.32"
fill="none" stroke="black" stroke-width="2"/>
<path d="M642.3 329.32L643.65 326.87"
fill="none" stroke="black" stroke-width="2"/>
<path d="M643.65 154.39L643.65 326.87"
fill="none" stroke="black" stroke-width="2"/>
<path d="M626.53 156.84L627.88 154.39"
fill="none" stroke="black" stroke-width="2"/>
<path d="M627.88 154.39L643.65 154.39"
fill="none" stroke="black" stroke-width="2"/>
<path d="M643.65 154.39L642.3 156.84"
fill="none" stroke="black" stroke-width="2"/>
<path d="M643.65 156.84L643.65 329.32"
fill="none" stroke="black" stroke-width="2"/>
<path d="M643.65 156.84L659.43 156.84"
fill="none" stroke="black" stroke-width="2"/>
<path d="M659.43 156.84L659.43 329.32"
fill="none" stroke="black" stroke-width="2"/>
<path d="M643.65 329.32L659.43 329.32"
fill="none" stroke="black" stroke-width="2"/>
<path d="M659.43 329.32L660.78 326.87"
fill="none" stroke="black" stroke-width="2"/>
<path d="M660.78 154.39L660.78 326.87"
fill="none" stroke="black" stroke-width="2"/>
<path d="M643.65 156.84L645.01 154.39"
fill="none" stroke="black" stroke-width="2"/>
<path d="M645.01 154.39L660.78 154.39"
fill="none" stroke="black" stroke-width="2"/>
<path d="M660.78 154.39L659.43 156.84"
fill="none" stroke="black" stroke-width="2"/>
<path d="M660.78 156.84L660.78 329.32"
fill="none" stroke="black" stroke-width="2"/>
<path d="M660.78 156.84L676.55 156.84"
fill="none" stroke="black" stroke-width="2"/>
<path d="M676.55 156.84L676.55 329.32"
fill="none" stroke="black" stroke-width="2"/>
<path d="M660.78 329.32L676.55 329.32"
fill="none" stroke="black" stroke-width="2"/>
<path d="M676.55 329.32L677.91 326.87"
fill="none" stroke="black" stroke-width="2"/>
<path d="M677.91 154.39L677.91 326.87"
fill="none" stroke="black" stroke-width="2"/>
<path d="M660.78 156.84L662.14 154.39"
fill="none" stroke="black" stroke-width="2"/>
<path d="M662.14 154.39L677.91 154.39"
fill="none" stroke="black" stroke-width="2"/>
<path d="M677.91 154.39L676.55 156.84"
fill="none" stroke="black" stroke-width="2"/>
<path d="M677.91 156.84L677.91 329.32"
fill="none" stroke="black" stroke-width="2"/>
<path d="M677.91 156.84L693.68 156.84"
fill="none" stroke="black" stroke-width="2"/>
<path d="M693.68 156.84L693.68 329.32"
fill="none" stroke="black" stroke-width="2"/>
<path d="M677.91 329.32L693.68 329.32"
fill="none" stroke="black" stroke-width="2"/>
<path d="M693.68 329.32L695.04 326.87"
fill="none" stroke="black" stroke-width="2"/>
<path d="M695.04 154.39L695.04 326.87"
fill="none" stroke="black" stroke-width="2"/>
<path d="M677.91 156.84L679.27 154.39"
fill="none" stroke="black" stroke-width="2"/>
<path d="M679.27 154.39L695.04 154.39"
fill="none" stroke="black" stroke-width="2"/>
<path d="M695.04 154.39L693.68 156.84"
fill="none" stroke="black" stroke-width="2"/>
<path d="M123.57 242.77L124.47 241.88M124.47 241.88L125.09 240.78M125.09 240.78L125.38 239.55M125.38 239.55L125.33 238.28M125.33 238.28L124.93 237.08M124.93 237.08L124.21 236.04M124.21 236.04L123.24 235.23M123.24 235.23L122.08 234.72M122.08 234.72L120.83 234.54M120.83 234.54L119.58 234.71M119.58 234.71L118.42 235.23M118.42 235.23L117.45 236.03"
fill="none" stroke="black" stroke-width="2"/>
<path d="M115.62 239.69L115.8 238.4M115.8 238.4L116.34 237.22M116.34 237.22L117.2 236.24M117.2 236.24L118.29 235.53M118.29 235.53L119.54 235.16M119.54 235.16L120.84 235.16M120.84 235.16L122.09 235.53M122.09 235.53L123.19 236.24M123.19 236.24L124.04 237.22M124.04 237.22L124.58 238.4M124.58 238.4L124.77 239.69M124.77 239.69L124.58 240.98M124.58 240.98L124.04 242.17M124.04 242.17L123.19 243.15M123.19 243.15L122.09 243.85M122.09 243.85L120.84 244.22M120.84 244.22L119.54 244.22M119.54 244.22L118.29 243.85M118.29 243.85L117.2 243.15M117.2 243.15L116.34 242.17M116.34 242.17L115.8 240.98M115.8 240.98L115.62 239.69"
fill="none" stroke="black" stroke-width="2"/>
<path d="M157.53 225.95L158.42 225.06M158.42 225.06L159.04 223.95M159.04 223.95L159.33 222.72M159.33 222.72L159.28 221.46M159.28 221.46L158.88 220.26M158.88 220.26L158.17 219.21M158.17 219.21L157.19 218.41M157.19 218.41L156.04 217.89M156.04 217.89L154.78 217.72M154.78 217.72L153.53 217.89M153.53 217.89L152.37 218.4M152.37 218.4L151.4 219.21"
fill="none" stroke="black" stroke-width="2"/>
<path d="M149.57 222.87L149.75 221.58M149.75 221.58L150.3 220.4M150.3 220.4L151.15 219.41M151.15 219.41L152.24 218.71M152.24 218.71L153.49 218.34M153.49 218.34L154.8 218.34M154.8 218.34L156.04 218.71M156.04 218.71L157.14 219.41M157.14 219.41L157.99 220.4M157.99 220.4L158.53 221.58M158.53 221.58L158.72 222.87M158.72 222.87L158.53 224.16M158.53 224.16L157.99 225.34M157.99 225.34L157.14 226.33M157.14 226.33L156.04 227.03M156.04 227.03L154.8 227.4M154.8 227.4L153.49 227.4M153.49 227.4L152.24 227.03M152.24 227.03L151.15 226.33M151.15 226.33L150.3 225.34M150.3 225.34L149.75 224.16M149.75 224.16L149.57 222.87"
fill="none" stroke="black" stroke-width="2"/>
<path d="M191.48 214.83L192.38 213.94M192.38 213.94L192.99 212.83M192.99 212.83L193.29 211.6M193.29 211.6L193.23 210.34M193.23 210.34L192.83 209.14M192.83 209.14L192.12 208.09M192.12 208.09L191.15 207.28M191.15 207.28L189.99 206.77M189.99 206.77L188.74 206.6M188.74 206.6L187.48 206.77M187.48 206.77L186.32 207.28M186.32 207.28L185.35 208.09"
fill="none" stroke="black" stroke-width="2"/>
<path d="M183.52 211.75L183.71 210.46M183.71 210.46L184.25 209.28M184.25 209.28L185.1 208.29M185.1 208.29L186.2 207.59M186.2 207.59L187.45 207.22M187.45 207.22L188.75 207.22M188.75 207.22L190 207.59M190 207.59L191.09 208.29M191.09 208.29L191.95 209.28M191.95 209.28L192.49 210.46M192.49 210.46L192.67 211.75M192.67 211.75L192.49 213.04M192.49 213.04L191.95 214.22M191.95 214.22L191.09 215.21M191.09 215.21L190 215.91M190 215.91L188.75 216.28M188.75 216.28L187.45 216.28M187.45 216.28L186.2 215.91M186.2 215.91L185.1 215.21M185.1 215.21L184.25 214.22M184.25 214.22L183.71 213.04M183.71 213.04L183.52 211.75"
fill="none" stroke="black" stroke-width="2"/>
<path d="M226.29 221.1L227.18 220.21M227.18 220.21L227.8 219.11M227.8 219.11L228.1 217.88M228.1 217.88L228.04 216.61M228.04 216.61L227.64 215.41M227.64 215.41L226.93 214.37M226.93 214.37L225.95 213.56M225.95 213.56L224.8 213.05M224.8 213.05L223.54 212.87M223.54 212.87L222.29 213.04M222.29 213.04L221.13 213.55M221.13 213.55L220.16 214.36"
fill="none" stroke="black" stroke-width="2"/>
<path d="M218.33 218.02L218.52 216.73M218.52 216.73L219.06 215.55M219.06 215.55L219.91 214.56M219.91 214.56L221 213.86M221 213.86L222.25 213.49M222.25 213.49L223.56 213.49M223.56 213.49L224.81 213.86M224.81 213.86L225.9 214.56M225.9 214.56L226.75 215.55M226.75 215.55L227.3 216.73M227.3 216.73L227.48 218.02M227.48 218.02L227.3 219.31M227.3 219.31L226.75 220.49M226.75 220.49L225.9 221.48M225.9 221.48L224.81 222.18M224.81 222.18L223.56 222.55M223.56 222.55L222.25 222.55M222.25 222.55L221 222.18M221 222.18L219.91 221.48M219.91 221.48L219.06 220.49M219.06 220.49L218.52 219.31M218.52 219.31L218.33 218.02"
fill="none" stroke="black" stroke-width="2"/>
<path d="M261.38 212.83L262.28 211.94M262.28 211.94L262.9 210.84M262.9 210.84L263.19 209.61M263.19 209.61L263.13 208.34M263.13 208.34L262.73 207.14M262.73 207.14L262.02 206.1M262.02 206.1L261.05 205.29M261.05 205.29L259.89 204.78M259.89 204.78L258.64 204.6M258.64 204.6L257.38 204.77M257.38 204.77L256.23 205.29M256.23 205.29L255.25 206.09"
fill="none" stroke="black" stroke-width="2"/>
<path d="M253.42 209.75L253.61 208.46M253.61 208.46L254.15 207.28M254.15 207.28L255 206.3M255 206.3L256.1 205.59M256.1 205.59L257.35 205.22M257.35 205.22L258.65 205.22M258.65 205.22L259.9 205.59M259.9 205.59L261 206.3M261 206.3L261.85 207.28M261.85 207.28L262.39 208.46M262.39 208.46L262.57 209.75M262.57 209.75L262.39 211.04M262.39 211.04L261.85 212.23M261.85 212.23L261 213.21M261 213.21L259.9 213.91M259.9 213.91L258.65 214.28M258.65 214.28L257.35 214.28M257.35 214.28L256.1 213.91M256.1 213.91L255 213.21M255 213.21L254.15 212.23M254.15 212.23L253.61 211.04M253.61 211.04L253.42 209.75"
fill="none" stroke="black" stroke-width="2"/>
<path d="M311.94 214.67L312.84 213.78M312.84 213.78L313.46 212.67M313.46 212.67L313.75 211.44M313.75 211.44L313.69 210.18M313.69 210.18L313.29 208.98M313.29 208.98L312.58 207.93M312.58 207.93L311.61 207.12M311.61 207.12L310.45 206.61M310.45 206.61L309.2 206.44M309.2 206.44L307.94 206.61M307.94 206.61L306.79 207.12M306.79 207.12L305.81 207.93"
fill="none" stroke="black" stroke-width="2"/>
<path d="M303.98 211.59L304.17 210.3M304.17 210.3L304.71 209.11M304.71 209.11L305.56 208.13M305.56 208.13L306.66 207.43M306.66 207.43L307.91 207.06M307.91 207.06L309.21 207.06M309.21 207.06L310.46 207.43M310.46 207.43L311.56 208.13M311.56 208.13L312.41 209.11M312.41 209.11L312.95 210.3M312.95 210.3L313.13 211.59M313.13 211.59L312.95 212.88M312.95 212.88L312.41 214.06M312.41 214.06L311.56 215.04M311.56 215.04L310.46 215.75M310.46 215.75L309.21 216.12M309.21 216.12L307.91 216.12M307.91 216.12L306.66 215.75M306.66 215.75L305.56 215.04M305.56 215.04L304.71 214.06M304.71 214.06L304.17 212.88M304.17 212.88L303.98 211.59"
fill="none" stroke="black" stroke-width="2"/>
<path d="M363.18 230.58L364.07 229.69M364.07 229.69L364.69 228.59M364.69 228.59L364.99 227.36M364.99 227.36L364.93 226.09M364.93 226.09L364.53 224.89M364.53 224.89L363.82 223.85M363.82 223.85L362.84 223.04M362.84 223.04L361.69 222.53M361.69 222.53L360.43 222.35M360.43 222.35L359.18 222.53M359.18 222.53L358.02 223.04M358.02 223.04L357.05 223.84"
fill="none" stroke="black" stroke-width="2"/>
<path d="M355.22 227.5L355.41 226.21M355.41 226.21L355.95 225.03M355.95 225.03L356.8 224.05M356.8 224.05L357.89 223.34M357.89 223.34L359.14 222.97M359.14 222.97L360.45 222.97M360.45 222.97L361.7 223.34M361.7 223.34L362.79 224.05M362.79 224.05L363.64 225.03M363.64 225.03L364.19 226.21M364.19 226.21L364.37 227.5M364.37 227.5L364.19 228.79M364.19 228.79L363.64 229.98M363.64 229.98L362.79 230.96M362.79 230.96L361.7 231.66M361.7 231.66L360.45 232.03M360.45 232.03L359.14 232.03M359.14 232.03L357.89 231.66M357.89 231.66L356.8 230.96M356.8 230.96L355.95 229.98M355.95 229.98L355.41 228.79M355.41 228.79L355.22 227.5"
fill="none" stroke="black" stroke-width="2"/>
<path d="M397.08 245.24L397.98 244.35M397.98 244.35L398.6 243.24M398.6 243.24L398.89 242.01M398.89 242.01L398.84 240.75M398.84 240.75L398.44 239.55M398.44 239.55L397.72 238.5M397.72 238.5L396.75 237.69M396.75 237.69L395.59 237.18M395.59 237.18L394.34 237M394.34 237L393.09 237.18M393.09 237.18L391.93 237.69M391.93 237.69L390.96 238.5"
fill="none" stroke="black" stroke-width="2"/>
<path d="M389.13 242.16L389.31 240.87M389.31 240.87L389.85 239.68M389.85 239.68L390.71 238.7M390.71 238.7L391.8 238M391.8 238L393.05 237.63M393.05 237.63L394.35 237.63M394.35 237.63L395.6 238M395.6 238L396.7 238.7M396.7 238.7L397.55 239.68M397.55 239.68L398.09 240.87M398.09 240.87L398.28 242.16M398.28 242.16L398.09 243.44M398.09 243.44L397.55 244.63M397.55 244.63L396.7 245.61M396.7 245.61L395.6 246.32M395.6 246.32L394.35 246.68M394.35 246.68L393.05 246.68M393.05 246.68L391.8 246.32M391.8 246.32L390.71 245.61M390.71 245.61L389.85 244.63M389.85 244.63L389.31 243.44M389.31 243.44L389.13 242.16"
fill="none" stroke="black" stroke-width="2"/>
<path d="M413.12 226.46L414.02 225.57M414.02 225.57L414.64 224.47M414.64 224.47L414.93 223.24M414.93 223.24L414.87 221.97M414.87 221.97L414.47 220.77M414.47 220.77L413.76 219.73M413.76 219.73L412.79 218.92M412.79 218.92L411.63 218.41M411.63 218.41L410.38 218.23M410.38 218.23L409.12 218.4M409.12 218.4L407.97 218.91M407.97 218.91L406.99 219.72"
fill="none" stroke="black" stroke-width="2"/>
<path d="M405.16 223.38L405.35 222.09M405.35 222.09L405.89 220.91M405.89 220.91L406.74 219.92M406.74 219.92L407.84 219.22M407.84 219.22L409.09 218.85M409.09 218.85L410.39 218.85M410.39 218.85L411.64 219.22M411.64 219.22L412.74 219.92M412.74 219.92L413.59 220.91M413.59 220.91L414.13 222.09M414.13 222.09L414.31 223.38M414.31 223.38L414.13 224.67M414.13 224.67L413.59 225.85M413.59 225.85L412.74 226.84M412.74 226.84L411.64 227.54M411.64 227.54L410.39 227.91M410.39 227.91L409.09 227.91M409.09 227.91L407.84 227.54M407.84 227.54L406.74 226.84M406.74 226.84L405.89 225.85M405.89 225.85L405.35 224.67M405.35 224.67L405.16 223.38"
fill="none" stroke="black" stroke-width="2"/>
<path d="M466.27 216.39L467.17 215.5M467.17 215.5L467.79 214.39M467.79 214.39L468.08 213.16M468.08 213.16L468.03 211.9M468.03 211.9L467.63 210.7M467.63 210.7L466.91 209.65M466.91 209.65L465.94 208.84M465.94 208.84L464.78 208.33M464.78 208.33L463.53 208.15M463.53 208.15L462.28 208.33M462.28 208.33L461.12 208.84M461.12 208.84L460.15 209.65"
fill="none" stroke="black" stroke-width="2"/>
<path d="M458.32 213.31L458.5 212.02M458.5 212.02L459.04 210.83M459.04 210.83L459.9 209.85M459.9 209.85L460.99 209.15M460.99 209.15L462.24 208.78M462.24 208.78L463.54 208.78M463.54 208.78L464.79 209.15M464.79 209.15L465.89 209.85M465.89 209.85L466.74 210.83M466.74 210.83L467.28 212.02M467.28 212.02L467.47 213.31M467.47 213.31L467.28 214.6M467.28 214.6L466.74 215.78M466.74 215.78L465.89 216.76M465.89 216.76L464.79 217.47M464.79 217.47L463.54 217.83M463.54 217.83L462.24 217.83M462.24 217.83L460.99 217.47M460.99 217.47L459.9 216.76M459.9 216.76L459.04 215.78M459.04 215.78L458.5 214.6M458.5 214.6L458.32 213.31"
fill="none" stroke="black" stroke-width="2"/>
<path d="M518.05 227.38L518.95 226.49M518.95 226.49L519.57 225.38M519.57 225.38L519.86 224.15M519.86 224.15L519.8 222.89M519.8 222.89L519.4 221.69M519.4 221.69L518.69 220.64M518.69 220.64L517.72 219.83M517.72 219.83L516.56 219.32M516.56 219.32L515.31 219.15M515.31 219.15L514.05 219.32M514.05 219.32L512.9 219.83M512.9 219.83L511.92 220.64"
fill="none" stroke="black" stroke-width="2"/>
<path d="M510.09 224.3L510.28 223.01M510.28 223.01L510.82 221.82M510.82 221.82L511.67 220.84M511.67 220.84L512.77 220.14M512.77 220.14L514.02 219.77M514.02 219.77L515.32 219.77M515.32 219.77L516.57 220.14M516.57 220.14L517.66 220.84M517.66 220.84L518.52 221.82M518.52 221.82L519.06 223.01M519.06 223.01L519.24 224.3M519.24 224.3L519.06 225.59M519.06 225.59L518.52 226.77M518.52 226.77L517.66 227.75M517.66 227.75L516.57 228.46M516.57 228.46L515.32 228.82M515.32 228.82L514.02 228.82M514.02 228.82L512.77 228.46M512.77 228.46L511.67 227.75M511.67 227.75L510.82 226.77M510.82 226.77L510.28 225.59M510.28 225.59L510.09 224.3"
fill="none" stroke="black" stroke-width="2"/>
<path d="M567.54 257.6L568.43 256.71M568.43 256.71L569.05 255.61M569.05 255.61L569.34 254.37M569.34 254.37L569.29 253.11M569.29 253.11L568.89 251.91M568.89 251.91L568.17 250.87M568.17 250.87L567.2 250.06M567.2 250.06L566.05 249.54M566.05 249.54L564.79 249.37M564.79 249.37L563.54 249.54M563.54 249.54L562.38 250.05M562.38 250.05L561.41 250.86"
fill="none" stroke="black" stroke-width="2"/>
<path d="M559.58 254.52L559.76 253.23M559.76 253.23L560.31 252.05M560.31 252.05L561.16 251.06M561.16 251.06L562.25 250.36M562.25 250.36L563.5 249.99M563.5 249.99L564.81 249.99M564.81 249.99L566.05 250.36M566.05 250.36L567.15 251.06M567.15 251.06L568 252.05M568 252.05L568.54 253.23M568.54 253.23L568.73 254.52M568.73 254.52L568.54 255.81M568.54 255.81L568 256.99M568 256.99L567.15 257.98M567.15 257.98L566.05 258.68M566.05 258.68L564.81 259.05M564.81 259.05L563.5 259.05M563.5 259.05L562.25 258.68M562.25 258.68L561.16 257.98M561.16 257.98L560.31 256.99M560.31 256.99L559.76 255.81M559.76 255.81L559.58 254.52"
fill="none" stroke="black" stroke-width="2"/>
<path d="M585.82 240.27L586.72 239.38M586.72 239.38L587.34 238.27M587.34 238.27L587.63 237.04M587.63 237.04L587.58 235.78M587.58 235.78L587.18 234.58M587.18 234.58L586.46 233.53M586.46 233.53L585.49 232.72M585.49 232.72L584.33 232.21M584.33 232.21L583.08 232.03M583.08 232.03L581.83 232.21M581.83 232.21L580.67 232.72M580.67 232.72L579.7 233.53"
fill="none" stroke="black" stroke-width="2"/>
<path d="M577.87 237.19L578.05 235.9M578.05 235.9L578.59 234.71M578.59 234.71L579.45 233.73M579.45 233.73L580.54 233.02M580.54 233.02L581.79 232.66M581.79 232.66L583.09 232.66M583.09 232.66L584.34 233.02M584.34 233.02L585.44 233.73M585.44 233.73L586.29 234.71M586.29 234.71L586.83 235.9M586.83 235.9L587.02 237.19M587.02 237.19L586.83 238.47M586.83 238.47L586.29 239.66M586.29 239.66L585.44 240.64M585.44 240.64L584.34 241.35M584.34 241.35L583.09 241.71M583.09 241.71L581.79 241.71M581.79 241.71L580.54 241.35M580.54 241.35L579.45 240.64M579.45 240.64L578.59 239.66M578.59 239.66L578.05 238.47M578.05 238.47L577.87 237.19"
fill="none" stroke="black" stroke-width="2"/>
<path d="M619.79 223.75L620.69 222.86M620.69 222.86L621.31 221.76M621.31 221.76L621.6 220.53M621.6 220.53L621.54 219.26M621.54 219.26L621.14 218.06M621.14 218.06L620.43 217.02M620.43 217.02L619.46 216.21M619.46 216.21L618.3 215.7M618.3 215.7L617.05 215.52M617.05 215.52L615.8 215.69M615.8 215.69L614.64 216.2M614.64 216.2L613.66 217.01"
fill="none" stroke="black" stroke-width="2"/>
<path d="M611.84 220.67L612.02 219.38M612.02 219.38L612.56 218.2M612.56 218.2L613.41 217.21M613.41 217.21L614.51 216.51M614.51 216.51L615.76 216.14M615.76 216.14L617.06 216.14M617.06 216.14L618.31 216.51M618.31 216.51L619.41 217.21M619.41 217.21L620.26 218.2M620.26 218.2L620.8 219.38M620.8 219.38L620.99 220.67M620.99 220.67L620.8 221.96M620.8 221.96L620.26 223.14M620.26 223.14L619.41 224.13M619.41 224.13L618.31 224.83M618.31 224.83L617.06 225.2M617.06 225.2L615.76 225.2M615.76 225.2L614.51 224.83M614.51 224.83L613.41 224.13M613.41 224.13L612.56 223.14M612.56 223.14L612.02 221.96M612.02 221.96L611.84 220.67"
fill="none" stroke="black" stroke-width="2"/>
<path d="M653.76 228.8L654.66 227.91M654.66 227.91L655.27 226.8M655.27 226.8L655.57 225.57M655.57 225.57L655.51 224.31M655.51 224.31L655.11 223.11M655.11 223.11L654.4 222.06M654.4 222.06L653.43 221.25M653.43 221.25L652.27 220.74M652.27 220.74L651.02 220.57M651.02 220.57L649.76 220.74M649.76 220.74L648.6 221.25M648.6 221.25L647.63 222.06"
fill="none" stroke="black" stroke-width="2"/>
<path d="M645.8 225.72L645.99 224.43M645.99 224.43L646.53 223.24M646.53 223.24L647.38 222.26M647.38 222.26L648.48 221.56M648.48 221.56L649.73 221.19M649.73 221.19L651.03 221.19M651.03 221.19L652.28 221.56M652.28 221.56L653.37 222.26M653.37 222.26L654.23 223.24M654.23 223.24L654.77 224.43M654.77 224.43L654.95 225.72M654.95 225.72L654.77 227.01M654.77 227.01L654.23 228.19M654.23 228.19L653.37 229.17M653.37 229.17L652.28 229.88M652.28 229.88L651.03 230.25M651.03 230.25L649.73 230.25M649.73 230.25L648.48 229.88M648.48 229.88L647.38 229.17M647.38 229.17L646.53 228.19M646.53 228.19L645.99 227.01M645.99 227.01L645.8 225.72"
fill="none" stroke="black" stroke-width="2"/>
<path d="M689.1 237.51L690 236.62M690 236.62L690.62 235.52M690.62 235.52L690.91 234.29M690.91 234.29L690.86 233.02M690.86 233.02L690.46 231.82M690.46 231.82L689.74 230.78M689.74 230.78L688.77 229.97M688.77 229.97L687.61 229.46M687.61 229.46L686.36 229.28M686.36 229.28L685.11 229.46M685.11 229.46L683.95 229.97M683.95 229.97L682.98 230.77"
fill="none" stroke="black" stroke-width="2"/>
<path d="M681.15 234.43L681.33 233.14M681.33 233.14L681.87 231.96M681.87 231.96L682.73 230.98M682.73 230.98L683.82 230.27M683.82 230.27L685.07 229.91M685.07 229.91L686.37 229.91M686.37 229.91L687.62 230.27M687.62 230.27L688.72 230.98M688.72 230.98L689.57 231.96M689.57 231.96L690.11 233.14M690.11 233.14L690.3 234.43M690.3 234.43L690.11 235.72M690.11 235.72L689.57 236.91M689.57 236.91L688.72 237.89M688.72 237.89L687.62 238.59M687.62 238.59L686.37 238.96M686.37 238.96L685.07 238.96M685.07 238.96L683.82 238.59M683.82 238.59L682.73 237.89M682.73 237.89L681.87 236.91M681.87 236.91L681.33 235.72M681.33 235.72L681.15 234.43"
fill="none" stroke="black" stroke-width="2"/>
<path d="M141.5 304.95L142.4 304.06M142.4 304.06L143.02 302.95M143.02 302.95L143.31 301.72M143.31 301.72L143.26 300.46M143.26 300.46L142.86 299.26M142.86 299.26L142.14 298.21M142.14 298.21L141.17 297.4M141.17 297.4L140.01 296.89M140.01 296.89L138.76 296.72M138.76 296.72L137.51 296.89M137.51 296.89L136.35 297.4M136.35 297.4L135.38 298.21"
fill="none" stroke="black" stroke-width="2"/>
<path d="M133.55 301.87L133.73 300.58M133.73 300.58L134.27 299.39M134.27 299.39L135.13 298.41M135.13 298.41L136.22 297.71M136.22 297.71L137.47 297.34M137.47 297.34L138.77 297.34M138.77 297.34L140.02 297.71M140.02 297.71L141.12 298.41M141.12 298.41L141.97 299.39M141.97 299.39L142.51 300.58M142.51 300.58L142.7 301.87M142.7 301.87L142.51 303.16M142.51 303.16L141.97 304.34M141.97 304.34L141.12 305.32M141.12 305.32L140.02 306.03M140.02 306.03L138.77 306.39M138.77 306.39L137.47 306.39M137.47 306.39L136.22 306.03M136.22 306.03L135.13 305.32M135.13 305.32L134.27 304.34M134.27 304.34L133.73 303.16M133.73 303.16L133.55 301.87"
fill="none" stroke="black" stroke-width="2"/>
<path d="M175.47 285.22L176.37 284.33M176.37 284.33L176.99 283.23M176.99 283.23L177.28 282M177.28 282L177.22 280.73M177.22 280.73L176.82 279.53M176.82 279.53L176.11 278.49M176.11 278.49L175.14 277.68M175.14 277.68L173.98 277.17M173.98 277.17L172.73 276.99M172.73 276.99L171.47 277.16M171.47 277.16L170.32 277.67M170.32 277.67L169.34 278.48"
fill="none" stroke="black" stroke-width="2"/>
<path d="M167.51 282.14L167.7 280.85M167.7 280.85L168.24 279.67M168.24 279.67L169.09 278.68M169.09 278.68L170.19 277.98M170.19 277.98L171.44 277.61M171.44 277.61L172.74 277.61M172.74 277.61L173.99 277.98M173.99 277.98L175.08 278.68M175.08 278.68L175.94 279.67M175.94 279.67L176.48 280.85M176.48 280.85L176.66 282.14M176.66 282.14L176.48 283.43M176.48 283.43L175.94 284.61M175.94 284.61L175.08 285.6M175.08 285.6L173.99 286.3M173.99 286.3L172.74 286.67M172.74 286.67L171.44 286.67M171.44 286.67L170.19 286.3M170.19 286.3L169.09 285.6M169.09 285.6L168.24 284.61M168.24 284.61L167.7 283.43M167.7 283.43L167.51 282.14"
fill="none" stroke="black" stroke-width="2"/>
<path d="M225.04 294.4L225.94 293.51M225.94 293.51L226.56 292.4M226.56 292.4L226.85 291.17M226.85 291.17L226.8 289.91M226.8 289.91L226.4 288.71M226.4 288.71L225.68 287.66M225.68 287.66L224.71 286.85M224.71 286.85L223.55 286.34M223.55 286.34L222.3 286.16M222.3 286.16L221.05 286.34M221.05 286.34L219.89 286.85M219.89 286.85L218.92 287.66"
fill="none" stroke="black" stroke-width="2"/>
<path d="M217.09 291.32L217.27 290.03M217.27 290.03L217.81 288.84M217.81 288.84L218.67 287.86M218.67 287.86L219.76 287.16M219.76 287.16L221.01 286.79M221.01 286.79L222.31 286.79M222.31 286.79L223.56 287.16M223.56 287.16L224.66 287.86M224.66 287.86L225.51 288.84M225.51 288.84L226.05 290.03M226.05 290.03L226.24 291.32M226.24 291.32L226.05 292.61M226.05 292.61L225.51 293.79M225.51 293.79L224.66 294.77M224.66 294.77L223.56 295.48M223.56 295.48L222.31 295.84M222.31 295.84L221.01 295.84M221.01 295.84L219.76 295.48M219.76 295.48L218.67 294.77M218.67 294.77L217.81 293.79M217.81 293.79L217.27 292.61M217.27 292.61L217.09 291.32"
fill="none" stroke="black" stroke-width="2"/>
<path d="M260.39 297.15L261.28 296.26M261.28 296.26L261.9 295.15M261.9 295.15L262.2 293.92M262.2 293.92L262.14 292.66M262.14 292.66L261.74 291.46M261.74 291.46L261.03 290.41M261.03 290.41L260.05 289.61M260.05 289.61L258.9 289.09M258.9 289.09L257.64 288.92M257.64 288.92L256.39 289.09M256.39 289.09L255.23 289.6M255.23 289.6L254.26 290.41"
fill="none" stroke="black" stroke-width="2"/>
<path d="M252.43 294.07L252.62 292.78M252.62 292.78L253.16 291.6M253.16 291.6L254.01 290.61M254.01 290.61L255.1 289.91M255.1 289.91L256.35 289.54M256.35 289.54L257.66 289.54M257.66 289.54L258.91 289.91M258.91 289.91L260 290.61M260 290.61L260.85 291.6M260.85 291.6L261.4 292.78M261.4 292.78L261.58 294.07M261.58 294.07L261.4 295.36M261.4 295.36L260.85 296.54M260.85 296.54L260 297.53M260 297.53L258.91 298.23M258.91 298.23L257.66 298.6M257.66 298.6L256.35 298.6M256.35 298.6L255.1 298.23M255.1 298.23L254.01 297.53M254.01 297.53L253.16 296.54M253.16 296.54L252.62 295.36M252.62 295.36L252.43 294.07"
fill="none" stroke="black" stroke-width="2"/>
<path d="M293.89 283.39L294.79 282.5M294.79 282.5L295.41 281.39M295.41 281.39L295.7 280.16M295.7 280.16L295.65 278.9M295.65 278.9L295.25 277.7M295.25 277.7L294.53 276.65M294.53 276.65L293.56 275.84M293.56 275.84L292.4 275.33M292.4 275.33L291.15 275.16M291.15 275.16L289.9 275.33M289.9 275.33L288.74 275.84M288.74 275.84L287.77 276.65"
fill="none" stroke="black" stroke-width="2"/>
<path d="M285.94 280.31L286.12 279.02M286.12 279.02L286.66 277.83M286.66 277.83L287.52 276.85M287.52 276.85L288.61 276.15M288.61 276.15L289.86 275.78M289.86 275.78L291.16 275.78M291.16 275.78L292.41 276.15M292.41 276.15L293.51 276.85M293.51 276.85L294.36 277.83M294.36 277.83L294.9 279.02M294.9 279.02L295.09 280.31M295.09 280.31L294.9 281.6M294.9 281.6L294.36 282.78M294.36 282.78L293.51 283.76M293.51 283.76L292.41 284.47M292.41 284.47L291.16 284.83M291.16 284.83L289.86 284.83M289.86 284.83L288.61 284.47M288.61 284.47L287.52 283.76M287.52 283.76L286.66 282.78M286.66 282.78L286.12 281.6M286.12 281.6L285.94 280.31"
fill="none" stroke="black" stroke-width="2"/>
<path d="M344.84 278.8L345.74 277.91M345.74 277.91L346.36 276.81M346.36 276.81L346.65 275.57M346.65 275.57L346.6 274.31M346.6 274.31L346.2 273.11M346.2 273.11L345.48 272.07M345.48 272.07L344.51 271.26M344.51 271.26L343.35 270.74M343.35 270.74L342.1 270.57M342.1 270.57L340.85 270.74M340.85 270.74L339.69 271.25M339.69 271.25L338.72 272.06"
fill="none" stroke="black" stroke-width="2"/>
<path d="M336.89 275.72L337.07 274.43M337.07 274.43L337.61 273.25M337.61 273.25L338.47 272.26M338.47 272.26L339.56 271.56M339.56 271.56L340.81 271.19M340.81 271.19L342.11 271.19M342.11 271.19L343.36 271.56M343.36 271.56L344.46 272.26M344.46 272.26L345.31 273.25M345.31 273.25L345.85 274.43M345.85 274.43L346.04 275.72M346.04 275.72L345.85 277.01M345.85 277.01L345.31 278.19M345.31 278.19L344.46 279.18M344.46 279.18L343.36 279.88M343.36 279.88L342.11 280.25M342.11 280.25L340.81 280.25M340.81 280.25L339.56 279.88M339.56 279.88L338.47 279.18M338.47 279.18L337.61 278.19M337.61 278.19L337.07 277.01M337.07 277.01L336.89 275.72"
fill="none" stroke="black" stroke-width="2"/>
<path d="M380.19 297.61L381.09 296.72M381.09 296.72L381.7 295.61M381.7 295.61L382 294.38M382 294.38L381.94 293.12M381.94 293.12L381.54 291.92M381.54 291.92L380.83 290.87M380.83 290.87L379.86 290.06M379.86 290.06L378.7 289.55M378.7 289.55L377.45 289.38M377.45 289.38L376.19 289.55M376.19 289.55L375.03 290.06M375.03 290.06L374.06 290.87"
fill="none" stroke="black" stroke-width="2"/>
<path d="M372.23 294.53L372.42 293.24M372.42 293.24L372.96 292.05M372.96 292.05L373.81 291.07M373.81 291.07L374.91 290.37M374.91 290.37L376.16 290M376.16 290L377.46 290M377.46 290L378.71 290.37M378.71 290.37L379.8 291.07M379.8 291.07L380.66 292.05M380.66 292.05L381.2 293.24M381.2 293.24L381.38 294.53M381.38 294.53L381.2 295.82M381.2 295.82L380.66 297M380.66 297L379.8 297.98M379.8 297.98L378.71 298.69M378.71 298.69L377.46 299.06M377.46 299.06L376.16 299.06M376.16 299.06L374.91 298.69M374.91 298.69L373.81 297.98M373.81 297.98L372.96 297M372.96 297L372.42 295.82M372.42 295.82L372.23 294.53"
fill="none" stroke="black" stroke-width="2"/>
<path d="M414.61 284.76L415.51 283.87M415.51 283.87L416.13 282.77M416.13 282.77L416.42 281.54M416.42 281.54L416.37 280.27M416.37 280.27L415.97 279.07M415.97 279.07L415.25 278.03M415.25 278.03L414.28 277.22M414.28 277.22L413.12 276.71M413.12 276.71L411.87 276.53M411.87 276.53L410.62 276.71M410.62 276.71L409.46 277.22M409.46 277.22L408.49 278.02"
fill="none" stroke="black" stroke-width="2"/>
<path d="M406.66 281.68L406.84 280.39M406.84 280.39L407.38 279.21M407.38 279.21L408.24 278.23M408.24 278.23L409.33 277.52M409.33 277.52L410.58 277.16M410.58 277.16L411.88 277.16M411.88 277.16L413.13 277.52M413.13 277.52L414.23 278.23M414.23 278.23L415.08 279.21M415.08 279.21L415.62 280.39M415.62 280.39L415.81 281.68M415.81 281.68L415.62 282.97M415.62 282.97L415.08 284.16M415.08 284.16L414.23 285.14M414.23 285.14L413.13 285.84M413.13 285.84L411.88 286.21M411.88 286.21L410.58 286.21M410.58 286.21L409.33 285.84M409.33 285.84L408.24 285.14M408.24 285.14L407.38 284.16M407.38 284.16L406.84 282.97M406.84 282.97L406.66 281.68"
fill="none" stroke="black" stroke-width="2"/>
<path d="M448.58 285.22L449.48 284.33M449.48 284.33L450.1 283.23M450.1 283.23L450.39 282M450.39 282L450.33 280.73M450.33 280.73L449.93 279.53M449.93 279.53L449.22 278.49M449.22 278.49L448.25 277.68M448.25 277.68L447.09 277.17M447.09 277.17L445.84 276.99M445.84 276.99L444.58 277.16M444.58 277.16L443.43 277.67M443.43 277.67L442.45 278.48"
fill="none" stroke="black" stroke-width="2"/>
<path d="M440.62 282.14L440.81 280.85M440.81 280.85L441.35 279.67M441.35 279.67L442.2 278.68M442.2 278.68L443.3 277.98M443.3 277.98L444.55 277.61M444.55 277.61L445.85 277.61M445.85 277.61L447.1 277.98M447.1 277.98L448.2 278.68M448.2 278.68L449.05 279.67M449.05 279.67L449.59 280.85M449.59 280.85L449.77 282.14M449.77 282.14L449.59 283.43M449.59 283.43L449.05 284.61M449.05 284.61L448.2 285.6M448.2 285.6L447.1 286.3M447.1 286.3L445.85 286.67M445.85 286.67L444.55 286.67M444.55 286.67L443.3 286.3M443.3 286.3L442.2 285.6M442.2 285.6L441.35 284.61M441.35 284.61L440.81 283.43M440.81 283.43L440.62 282.14"
fill="none" stroke="black" stroke-width="2"/>
<path d="M482.55 298.53L483.44 297.63M483.44 297.63L484.06 296.53M484.06 296.53L484.36 295.3M484.36 295.3L484.3 294.04M484.3 294.04L483.9 292.84M483.9 292.84L483.19 291.79M483.19 291.79L482.21 290.98M482.21 290.98L481.06 290.47M481.06 290.47L479.8 290.29M479.8 290.29L478.55 290.47M478.55 290.47L477.39 290.98M477.39 290.98L476.42 291.79"
fill="none" stroke="black" stroke-width="2"/>
<path d="M474.59 295.45L474.78 294.16M474.78 294.16L475.32 292.97M475.32 292.97L476.17 291.99M476.17 291.99L477.27 291.28M477.27 291.28L478.51 290.92M478.51 290.92L479.82 290.92M479.82 290.92L481.07 291.28M481.07 291.28L482.16 291.99M482.16 291.99L483.01 292.97M483.01 292.97L483.56 294.16M483.56 294.16L483.74 295.45M483.74 295.45L483.56 296.73M483.56 296.73L483.01 297.92M483.01 297.92L482.16 298.9M482.16 298.9L481.07 299.61M481.07 299.61L479.82 299.97M479.82 299.97L478.51 299.97M478.51 299.97L477.27 299.61M477.27 299.61L476.17 298.9M476.17 298.9L475.32 297.92M475.32 297.92L474.78 296.73M474.78 296.73L474.59 295.45"
fill="none" stroke="black" stroke-width="2"/>
<path d="M516.97 305.87L517.87 304.97M517.87 304.97L518.49 303.87M518.49 303.87L518.78 302.64M518.78 302.64L518.73 301.38M518.73 301.38L518.33 300.18M518.33 300.18L517.61 299.13M517.61 299.13L516.64 298.32M516.64 298.32L515.48 297.81M515.48 297.81L514.23 297.63M514.23 297.63L512.98 297.81M512.98 297.81L511.82 298.32M511.82 298.32L510.85 299.13"
fill="none" stroke="black" stroke-width="2"/>
<path d="M509.02 302.78L509.2 301.5M509.2 301.5L509.74 300.31M509.74 300.31L510.6 299.33M510.6 299.33L511.69 298.62M511.69 298.62L512.94 298.26M512.94 298.26L514.24 298.26M514.24 298.26L515.49 298.62M515.49 298.62L516.59 299.33M516.59 299.33L517.44 300.31M517.44 300.31L517.98 301.5M517.98 301.5L518.17 302.78M518.17 302.78L517.98 304.07M517.98 304.07L517.44 305.26M517.44 305.26L516.59 306.24M516.59 306.24L515.49 306.95M515.49 306.95L514.24 307.31M514.24 307.31L512.94 307.31M512.94 307.31L511.69 306.95M511.69 306.95L510.6 306.24M510.6 306.24L509.74 305.26M509.74 305.26L509.2 304.07M509.2 304.07L509.02 302.78"
fill="none" stroke="black" stroke-width="2"/>
<path d="M551.86 304.95L552.76 304.06M552.76 304.06L553.37 302.95M553.37 302.95L553.67 301.72M553.67 301.72L553.61 300.46M553.61 300.46L553.21 299.26M553.21 299.26L552.5 298.21M552.5 298.21L551.53 297.4M551.53 297.4L550.37 296.89M550.37 296.89L549.12 296.72M549.12 296.72L547.86 296.89M547.86 296.89L546.7 297.4M546.7 297.4L545.73 298.21"
fill="none" stroke="black" stroke-width="2"/>
<path d="M543.9 301.87L544.09 300.58M544.09 300.58L544.63 299.39M544.63 299.39L545.48 298.41M545.48 298.41L546.58 297.71M546.58 297.71L547.83 297.34M547.83 297.34L549.13 297.34M549.13 297.34L550.38 297.71M550.38 297.71L551.47 298.41M551.47 298.41L552.33 299.39M552.33 299.39L552.87 300.58M552.87 300.58L553.05 301.87M553.05 301.87L552.87 303.16M552.87 303.16L552.33 304.34M552.33 304.34L551.47 305.32M551.47 305.32L550.38 306.03M550.38 306.03L549.13 306.39M549.13 306.39L547.83 306.39M547.83 306.39L546.58 306.03M546.58 306.03L545.48 305.32M545.48 305.32L544.63 304.34M544.63 304.34L544.09 303.16M544.09 303.16L543.9 301.87"
fill="none" stroke="black" stroke-width="2"/>
<path d="M585.82 304.49L586.72 303.6M586.72 303.6L587.34 302.49M587.34 302.49L587.63 301.26M587.63 301.26L587.58 300M587.58 300L587.18 298.8M587.18 298.8L586.46 297.75M586.46 297.75L585.49 296.94M585.49 296.94L584.33 296.43M584.33 296.43L583.08 296.26M583.08 296.26L581.83 296.43M581.83 296.43L580.67 296.94M580.67 296.94L579.7 297.75"
fill="none" stroke="black" stroke-width="2"/>
<path d="M577.87 301.41L578.05 300.12M578.05 300.12L578.59 298.94M578.59 298.94L579.45 297.95M579.45 297.95L580.54 297.25M580.54 297.25L581.79 296.88M581.79 296.88L583.09 296.88M583.09 296.88L584.34 297.25M584.34 297.25L585.44 297.95M585.44 297.95L586.29 298.94M586.29 298.94L586.83 300.12M586.83 300.12L587.02 301.41M587.02 301.41L586.83 302.7M586.83 302.7L586.29 303.88M586.29 303.88L585.44 304.87M585.44 304.87L584.34 305.57M584.34 305.57L583.09 305.94M583.09 305.94L581.79 305.94M581.79 305.94L580.54 305.57M580.54 305.57L579.45 304.87M579.45 304.87L578.59 303.88M578.59 303.88L578.05 302.7M578.05 302.7L577.87 301.41"
fill="none" stroke="black" stroke-width="2"/>
<path d="M620.25 292.56L621.15 291.67M621.15 291.67L621.77 290.57M621.77 290.57L622.06 289.34M622.06 289.34L622 288.07M622 288.07L621.6 286.87M621.6 286.87L620.89 285.83M620.89 285.83L619.92 285.02M619.92 285.02L618.76 284.51M618.76 284.51L617.51 284.33M617.51 284.33L616.25 284.5M616.25 284.5L615.1 285.01M615.1 285.01L614.12 285.82"
fill="none" stroke="black" stroke-width="2"/>
<path d="M612.29 289.48L612.48 288.19M612.48 288.19L613.02 287.01M613.02 287.01L613.87 286.02M613.87 286.02L614.97 285.32M614.97 285.32L616.22 284.95M616.22 284.95L617.52 284.95M617.52 284.95L618.77 285.32M618.77 285.32L619.87 286.02M619.87 286.02L620.72 287.01M620.72 287.01L621.26 288.19M621.26 288.19L621.44 289.48M621.44 289.48L621.26 290.77M621.26 290.77L620.72 291.95M620.72 291.95L619.87 292.94M619.87 292.94L618.77 293.64M618.77 293.64L617.52 294.01M617.52 294.01L616.22 294.01M616.22 294.01L614.97 293.64M614.97 293.64L613.87 292.94M613.87 292.94L613.02 291.95M613.02 291.95L612.48 290.77M612.48 290.77L612.29 289.48"
fill="none" stroke="black" stroke-width="2"/>
<path d="M654.22 309.08L655.12 308.19M655.12 308.19L655.73 307.08M655.73 307.08L656.03 305.85M656.03 305.85L655.97 304.59M655.97 304.59L655.57 303.39M655.57 303.39L654.86 302.34M654.86 302.34L653.88 301.53M653.88 301.53L652.73 301.02M652.73 301.02L651.47 300.84M651.47 300.84L650.22 301.02M650.22 301.02L649.06 301.53M649.06 301.53L648.09 302.34"
fill="none" stroke="black" stroke-width="2"/>
<path d="M646.26 306L646.45 304.71M646.45 304.71L646.99 303.52M646.99 303.52L647.84 302.54M647.84 302.54L648.94 301.83M648.94 301.83L650.19 301.47M650.19 301.47L651.49 301.47M651.49 301.47L652.74 301.83M652.74 301.83L653.83 302.54M653.83 302.54L654.69 303.52M654.69 303.52L655.23 304.71M655.23 304.71L655.41 306M655.41 306L655.23 307.28M655.23 307.28L654.69 308.47M654.69 308.47L653.83 309.45M653.83 309.45L652.74 310.16M652.74 310.16L651.49 310.52M651.49 310.52L650.19 310.52M650.19 310.52L648.94 310.16M648.94 310.16L647.84 309.45M647.84 309.45L646.99 308.47M646.99 308.47L646.45 307.28M646.45 307.28L646.26 306"
fill="none" stroke="black" stroke-width="2"/>
<path d="M688.64 307.24L689.54 306.35M689.54 306.35L690.16 305.25M690.16 305.25L690.45 304.02M690.45 304.02L690.4 302.75M690.4 302.75L690 301.55M690 301.55L689.28 300.51M689.28 300.51L688.31 299.7M688.31 299.7L687.15 299.19M687.15 299.19L685.9 299.01M685.9 299.01L684.65 299.18M684.65 299.18L683.49 299.69M683.49 299.69L682.52 300.5"
fill="none" stroke="black" stroke-width="2"/>
<path d="M680.69 304.16L680.87 302.87M680.87 302.87L681.41 301.69M681.41 301.69L682.27 300.7M682.27 300.7L683.36 300M683.36 300L684.61 299.63M684.61 299.63L685.91 299.63M685.91 299.63L687.16 300M687.16 300L688.26 300.7M688.26 300.7L689.11 301.69M689.11 301.69L689.65 302.87M689.65 302.87L689.84 304.16M689.84 304.16L689.65 305.45M689.65 305.45L689.11 306.63M689.11 306.63L688.26 307.62M688.26 307.62L687.16 308.32M687.16 308.32L685.91 308.69M685.91 308.69L684.61 308.69M684.61 308.69L683.36 308.32M683.36 308.32L682.27 307.62M682.27 307.62L681.41 306.63M681.41 306.63L680.87 305.45M680.87 305.45L680.69 304.16"
fill="none" stroke="black" stroke-width="2"/>
<path d="M189.39 292.25L190.1 291.48M190.1 291.48L190.48 290.51M190.48 290.51L190.48 289.47M190.48 289.47L190.1 288.5M190.1 288.5L189.4 287.73M189.4 287.73L188.47 287.26M188.47 287.26L187.44 287.17M187.44 287.17L186.43 287.45M186.43 287.45L185.6 288.08"
fill="none" stroke="black" stroke-width="2"/>
<path d="M184.47 290.34L184.66 289.32M184.66 289.32L185.21 288.43M185.21 288.43L186.04 287.81M186.04 287.81L187.04 287.52M187.04 287.52L188.08 287.62M188.08 287.62L189.01 288.08M189.01 288.08L189.71 288.85M189.71 288.85L190.08 289.82M190.08 289.82L190.08 290.86M190.08 290.86L189.71 291.83M189.71 291.83L189.01 292.6M189.01 292.6L188.08 293.06M188.08 293.06L187.04 293.16M187.04 293.16L186.04 292.87M186.04 292.87L185.21 292.25M185.21 292.25L184.66 291.36M184.66 291.36L184.47 290.34"
fill="none" stroke="black" stroke-width="2"/>
<path d="M241.7 249.54L242.41 248.78M242.41 248.78L242.78 247.81M242.78 247.81L242.79 246.76M242.79 246.76L242.41 245.79M242.41 245.79L241.71 245.02M241.71 245.02L240.78 244.56M240.78 244.56L239.74 244.46M239.74 244.46L238.74 244.75M238.74 244.75L237.91 245.37"
fill="none" stroke="black" stroke-width="2"/>
<path d="M236.78 247.64L236.97 246.61M236.97 246.61L237.52 245.73M237.52 245.73L238.35 245.1M238.35 245.1L239.35 244.82M239.35 244.82L240.38 244.91M240.38 244.91L241.32 245.38M241.32 245.38L242.02 246.15M242.02 246.15L242.39 247.12M242.39 247.12L242.39 248.16M242.39 248.16L242.02 249.13M242.02 249.13L241.32 249.9M241.32 249.9L240.38 250.36M240.38 250.36L239.35 250.45M239.35 250.45L238.35 250.17M238.35 250.17L237.52 249.54M237.52 249.54L236.97 248.66M236.97 248.66L236.78 247.64"
fill="none" stroke="black" stroke-width="2"/>
<path d="M293.27 241.44L293.98 240.68M293.98 240.68L294.36 239.71M294.36 239.71L294.36 238.67M294.36 238.67L293.98 237.69M293.98 237.69L293.28 236.92M293.28 236.92L292.35 236.46M292.35 236.46L291.31 236.36M291.31 236.36L290.31 236.65M290.31 236.65L289.48 237.27"
fill="none" stroke="black" stroke-width="2"/>
<path d="M288.35 239.54L288.54 238.51M288.54 238.51L289.09 237.63M289.09 237.63L289.92 237M289.92 237L290.92 236.72M290.92 236.72L291.96 236.81M291.96 236.81L292.89 237.28M292.89 237.28L293.59 238.05M293.59 238.05L293.96 239.02M293.96 239.02L293.96 240.06M293.96 240.06L293.59 241.03M293.59 241.03L292.89 241.8M292.89 241.8L291.96 242.26M291.96 242.26L290.92 242.36M290.92 242.36L289.92 242.07M289.92 242.07L289.09 241.44M289.09 241.44L288.54 240.56M288.54 240.56L288.35 239.54"
fill="none" stroke="black" stroke-width="2"/>
<path d="M327.78 291.8L328.48 291.03M328.48 291.03L328.86 290.06M328.86 290.06L328.87 289.02M328.87 289.02L328.49 288.05M328.49 288.05L327.79 287.27M327.79 287.27L326.86 286.81M326.86 286.81L325.82 286.71M325.82 286.71L324.82 287M324.82 287L323.99 287.62"
fill="none" stroke="black" stroke-width="2"/>
<path d="M322.86 289.89L323.05 288.87M323.05 288.87L323.6 287.98M323.6 287.98L324.43 287.35M324.43 287.35L325.43 287.07M325.43 287.07L326.46 287.17M326.46 287.17L327.4 287.63M327.4 287.63L328.1 288.4M328.1 288.4L328.47 289.37M328.47 289.37L328.47 290.41M328.47 290.41L328.1 291.38M328.1 291.38L327.4 292.15M327.4 292.15L326.46 292.61M326.46 292.61L325.43 292.71M325.43 292.71L324.43 292.42M324.43 292.42L323.6 291.8M323.6 291.8L323.05 290.91M323.05 290.91L322.86 289.89"
fill="none" stroke="black" stroke-width="2"/>
<path d="M480.65 249.24L481.35 248.47M481.35 248.47L481.73 247.5M481.73 247.5L481.73 246.46M481.73 246.46L481.36 245.49M481.36 245.49L480.66 244.72M480.66 244.72L479.73 244.25M479.73 244.25L478.69 244.15M478.69 244.15L477.69 244.44M477.69 244.44L476.86 245.07"
fill="none" stroke="black" stroke-width="2"/>
<path d="M475.73 247.33L475.92 246.31M475.92 246.31L476.46 245.42M476.46 245.42L477.29 244.8M477.29 244.8L478.3 244.51M478.3 244.51L479.33 244.61M479.33 244.61L480.26 245.07M480.26 245.07L480.96 245.84M480.96 245.84L481.34 246.81M481.34 246.81L481.34 247.85M481.34 247.85L480.96 248.82M480.96 248.82L480.26 249.59M480.26 249.59L479.33 250.05M479.33 250.05L478.3 250.15M478.3 250.15L477.29 249.86M477.29 249.86L476.46 249.24M476.46 249.24L475.92 248.35M475.92 248.35L475.73 247.33"
fill="none" stroke="black" stroke-width="2"/>
<path d="M567 204.61L567.7 203.84M567.7 203.84L568.08 202.87M568.08 202.87L568.08 201.83M568.08 201.83L567.71 200.86M567.71 200.86L567.01 200.09M567.01 200.09L566.07 199.63M566.07 199.63L565.04 199.53M565.04 199.53L564.04 199.81M564.04 199.81L563.2 200.44"
fill="none" stroke="black" stroke-width="2"/>
<path d="M562.07 202.7L562.26 201.68M562.26 201.68L562.81 200.8M562.81 200.8L563.64 200.17M563.64 200.17L564.64 199.89M564.64 199.89L565.68 199.98M565.68 199.98L566.61 200.45M566.61 200.45L567.31 201.21M567.31 201.21L567.69 202.18M567.69 202.18L567.69 203.22M567.69 203.22L567.31 204.19M567.31 204.19L566.61 204.96M566.61 204.96L565.68 205.43M565.68 205.43L564.64 205.52M564.64 205.52L563.64 205.24M563.64 205.24L562.81 204.61M562.81 204.61L562.26 203.73M562.26 203.73L562.07 202.7"
fill="none" stroke="black" stroke-width="2"/>
<path d="M652.86 181.68L653.56 180.91M653.56 180.91L653.94 179.94M653.94 179.94L653.94 178.9M653.94 178.9L653.57 177.93M653.57 177.93L652.87 177.16M652.87 177.16L651.94 176.69M651.94 176.69L650.9 176.6M650.9 176.6L649.9 176.88M649.9 176.88L649.07 177.51"
fill="none" stroke="black" stroke-width="2"/>
<path d="M647.94 179.77L648.13 178.75M648.13 178.75L648.67 177.87M648.67 177.87L649.5 177.24M649.5 177.24L650.51 176.95M650.51 176.95L651.54 177.05M651.54 177.05L652.47 177.51M652.47 177.51L653.17 178.28M653.17 178.28L653.55 179.25M653.55 179.25L653.55 180.29M653.55 180.29L653.17 181.26M653.17 181.26L652.47 182.03M652.47 182.03L651.54 182.49M651.54 182.49L650.51 182.59M650.51 182.59L649.5 182.31M649.5 182.31L648.67 181.68M648.67 181.68L648.13 180.79M648.13 180.79L647.94 179.77"
fill="none" stroke="black" stroke-width="2"/>
</svg>
