<?xml version="1.0" encoding="UTF-8"?>
<svg xmlns="http://www.w3.org/2000/svg" width="800.000" height="600.000" viewBox="0.0 0.0 800.000 600.000" version="1.1">
  <title>Produce by Acme CAD Converter</title>
  <desc>Produce by Acme CAD Converter</desc>
<path d="M4.32 80.35L4.32 519.65"
fill="none" stroke="RGB(237,31,36)" stroke-width="0"/>
<path d="M5.13 318.22L110.65 318.22"
fill="none" stroke="black" stroke-width="2"/>
<path d="M5.13 304.54L110.65 304.54"
fill="none" stroke="black" stroke-width="2"/>
<path d="M5.13 318.22L5.82 318.02M5.82 318.02L6.47 317.43M6.47 317.43L7.03 316.5M7.03 316.5L7.49 315.26M7.49 315.26L7.81 313.8M7.81 313.8L7.98 312.2M7.98 312.2L7.98 310.55M7.98 310.55L7.81 308.95M7.81 308.95L7.49 307.49M7.49 307.49L7.03 306.26M7.03 306.26L6.47 305.32M6.47 305.32L5.82 304.74M5.82 304.74L5.13 304.54M5.13 304.54L4.45 304.74M4.45 304.74L3.8 305.32M3.8 305.32L3.23 306.26M3.23 306.26L2.77 307.49M2.77 307.49L2.45 308.95M2.45 308.95L2.28 310.55M2.28 310.55L2.28 312.2M2.28 312.2L2.45 313.8M2.45 313.8L2.77 315.26M2.77 315.26L3.23 316.5M3.23 316.5L3.8 317.43M3.8 317.43L4.45 318.02M4.45 318.02L5.13 318.22"
fill="none" stroke="black" stroke-width="2"/>
<path d="M17.2 182.08L122.72 182.08"
fill="none" stroke="black" stroke-width="2"/>
<path d="M17.2 168.4L122.72 168.4"
fill="none" stroke="black" stroke-width="2"/>
<path d="M17.2 182.08L17.88 181.88M17.88 181.88L18.53 181.3M18.53 181.3L19.1 180.36M19.1 180.36L19.56 179.12M19.56 179.12L19.88 177.66M19.88 177.66L20.05 176.06M20.05 176.06L20.05 174.42M20.05 174.42L19.88 172.81M19.88 172.81L19.56 171.35M19.56 171.35L19.1 170.12M19.1 170.12L18.53 169.18M18.53 169.18L17.88 168.6M17.88 168.6L17.2 168.4M17.2 168.4L16.51 168.6M16.51 168.6L15.87 169.18M15.87 169.18L15.3 170.12M15.3 170.12L14.84 171.35M14.84 171.35L14.52 172.81M14.52 172.81L14.35 174.42M14.35 174.42L14.35 176.06M14.35 176.06L14.52 177.66M14.52 177.66L14.84 179.12M14.84 179.12L15.3 180.36M15.3 180.36L15.87 181.3M15.87 181.3L16.51 181.88M16.51 181.88L17.2 182.08"
fill="none" stroke="black" stroke-width="2"/>
<path d="M110.65 304.54L118.85 304.54"
fill="none" stroke="black" stroke-width="2"/>
<path d="M649.08 304.54L782.72 304.54"
fill="none" stroke="black" stroke-width="2"/>
<path d="M110.65 318.22L116.35 318.22"
fill="none" stroke="black" stroke-width="2"/>
<path d="M646.57 318.22L782.34 318.21"
fill="none" stroke="black" stroke-width="2"/>
<path d="M122.72 182.08L141.31 182.08"
fill="none" stroke="black" stroke-width="2"/>
<path d="M671.53 182.08L794.78 182.08"
fill="none" stroke="black" stroke-width="2"/>
<path d="M122.72 168.4L143.81 168.4"
fill="none" stroke="black" stroke-width="2"/>
<path d="M674.04 168.4L794.78 168.4"
fill="none" stroke="black" stroke-width="2"/>
<path d="M794.84 182.08L795.49 181.92M795.49 181.92L796.1 181.41M796.1 181.41L796.66 180.59M796.66 180.59L797.12 179.49M797.12 179.49L797.46 178.17M797.46 178.17L797.67 176.71M797.67 176.71L797.74 175.17M797.74 175.17L797.66 173.63M797.66 173.63L797.43 172.17M797.43 172.17L797.08 170.87M797.08 170.87L796.61 169.8M796.61 169.8L796.05 169.01M796.05 169.01L795.43 168.53M795.43 168.53L794.78 168.4"
fill="none" stroke="black" stroke-width="2"/>
<path d="M782.34 318.21L782.99 318.09M782.99 318.09L783.61 317.62M783.61 317.62L784.17 316.84M784.17 316.84L784.64 315.77M784.64 315.77L785 314.48M785 314.48L785.22 313.03M785.22 313.03L785.31 311.49M785.31 311.49L785.25 309.95M785.25 309.95L785.04 308.48M785.04 308.48L784.7 307.16M784.7 307.16L784.24 306.06M784.24 306.06L783.7 305.23M783.7 305.23L783.08 304.71M783.08 304.71L782.44 304.54"
fill="none" stroke="black" stroke-width="2"/>
<path d="M116.05 319.84L144.91 162.39"
fill="none" stroke="black" stroke-width="2"/>
<path d="M144.91 162.39L160.67 162.39"
fill="none" stroke="black" stroke-width="2"/>
<path d="M131.8 319.84L160.67 162.39"
fill="none" stroke="black" stroke-width="2"/>
<path d="M133.61 320.45L162.53 162.73"
fill="none" stroke="black" stroke-width="2"/>
<path d="M133.61 320.45L131.8 319.84"
fill="none" stroke="black" stroke-width="2"/>
<path d="M131.8 319.84L116.05 319.84"
fill="none" stroke="black" stroke-width="2"/>
<path d="M160.67 162.39L162.53 162.73"
fill="none" stroke="black" stroke-width="2"/>
<path d="M133.61 320.45L117.86 320.45"
fill="none" stroke="black" stroke-width="2"/>
<path d="M117.86 320.45L116.05 319.84"
fill="none" stroke="black" stroke-width="2"/>
<path d="M133.72 319.84L162.59 162.39"
fill="none" stroke="black" stroke-width="2"/>
<path d="M162.59 162.39L178.34 162.39"
fill="none" stroke="black" stroke-width="2"/>
<path d="M149.47 319.84L178.34 162.39"
fill="none" stroke="black" stroke-width="2"/>
<path d="M151.28 320.45L180.2 162.73"
fill="none" stroke="black" stroke-width="2"/>
<path d="M151.28 320.45L149.47 319.84"
fill="none" stroke="black" stroke-width="2"/>
<path d="M149.47 319.84L133.72 319.84"
fill="none" stroke="black" stroke-width="2"/>
<path d="M178.34 162.39L180.2 162.73"
fill="none" stroke="black" stroke-width="2"/>
<path d="M151.28 320.45L135.53 320.45"
fill="none" stroke="black" stroke-width="2"/>
<path d="M135.53 320.45L133.72 319.84"
fill="none" stroke="black" stroke-width="2"/>
<path d="M151.4 319.84L180.26 162.39"
fill="none" stroke="black" stroke-width="2"/>
<path d="M180.26 162.39L196.01 162.39"
fill="none" stroke="black" stroke-width="2"/>
<path d="M167.15 319.84L196.01 162.39"
fill="none" stroke="black" stroke-width="2"/>
<path d="M168.96 320.45L197.88 162.73"
fill="none" stroke="black" stroke-width="2"/>
<path d="M168.96 320.45L167.15 319.84"
fill="none" stroke="black" stroke-width="2"/>
<path d="M167.15 319.84L151.4 319.84"
fill="none" stroke="black" stroke-width="2"/>
<path d="M196.01 162.39L197.88 162.73"
fill="none" stroke="black" stroke-width="2"/>
<path d="M168.96 320.45L153.21 320.45"
fill="none" stroke="black" stroke-width="2"/>
<path d="M153.21 320.45L151.4 319.84"
fill="none" stroke="black" stroke-width="2"/>
<path d="M169.07 319.84L197.94 162.39"
fill="none" stroke="black" stroke-width="2"/>
<path d="M197.94 162.39L213.69 162.39"
fill="none" stroke="black" stroke-width="2"/>
<path d="M184.82 319.84L213.69 162.39"
fill="none" stroke="black" stroke-width="2"/>
<path d="M186.63 320.45L215.55 162.73"
fill="none" stroke="black" stroke-width="2"/>
<path d="M186.63 320.45L184.82 319.84"
fill="none" stroke="black" stroke-width="2"/>
<path d="M184.82 319.84L169.07 319.84"
fill="none" stroke="black" stroke-width="2"/>
<path d="M213.69 162.39L215.55 162.73"
fill="none" stroke="black" stroke-width="2"/>
<path d="M186.63 320.45L170.88 320.45"
fill="none" stroke="black" stroke-width="2"/>
<path d="M170.88 320.45L169.07 319.84"
fill="none" stroke="black" stroke-width="2"/>
<path d="M186.75 319.84L215.61 162.39"
fill="none" stroke="black" stroke-width="2"/>
<path d="M215.61 162.39L231.36 162.39"
fill="none" stroke="black" stroke-width="2"/>
<path d="M202.5 319.84L231.36 162.39"
fill="none" stroke="black" stroke-width="2"/>
<path d="M204.31 320.45L233.22 162.73"
fill="none" stroke="black" stroke-width="2"/>
<path d="M204.31 320.45L202.5 319.84"
fill="none" stroke="black" stroke-width="2"/>
<path d="M202.5 319.84L186.75 319.84"
fill="none" stroke="black" stroke-width="2"/>
<path d="M231.36 162.39L233.22 162.73"
fill="none" stroke="black" stroke-width="2"/>
<path d="M204.31 320.45L188.56 320.45"
fill="none" stroke="black" stroke-width="2"/>
<path d="M204.42 319.84L233.29 162.39"
fill="none" stroke="black" stroke-width="2"/>
<path d="M233.29 162.39L249.04 162.39"
fill="none" stroke="black" stroke-width="2"/>
<path d="M220.17 319.84L249.04 162.39"
fill="none" stroke="black" stroke-width="2"/>
<path d="M221.98 320.45L250.9 162.73"
fill="none" stroke="black" stroke-width="2"/>
<path d="M221.98 320.45L220.17 319.84"
fill="none" stroke="black" stroke-width="2"/>
<path d="M220.17 319.84L204.42 319.84"
fill="none" stroke="black" stroke-width="2"/>
<path d="M249.04 162.39L250.9 162.73"
fill="none" stroke="black" stroke-width="2"/>
<path d="M221.98 320.45L206.23 320.45"
fill="none" stroke="black" stroke-width="2"/>
<path d="M206.23 320.45L204.42 319.84"
fill="none" stroke="black" stroke-width="2"/>
<path d="M222.09 319.84L250.96 162.39"
fill="none" stroke="black" stroke-width="2"/>
<path d="M250.96 162.39L266.71 162.39"
fill="none" stroke="black" stroke-width="2"/>
<path d="M237.85 319.84L266.71 162.39"
fill="none" stroke="black" stroke-width="2"/>
<path d="M239.66 320.45L268.57 162.73"
fill="none" stroke="black" stroke-width="2"/>
<path d="M239.66 320.45L237.85 319.84"
fill="none" stroke="black" stroke-width="2"/>
<path d="M237.85 319.84L222.09 319.84"
fill="none" stroke="black" stroke-width="2"/>
<path d="M266.71 162.39L268.57 162.73"
fill="none" stroke="black" stroke-width="2"/>
<path d="M239.66 320.45L223.9 320.45"
fill="none" stroke="black" stroke-width="2"/>
<path d="M223.9 320.45L222.09 319.84"
fill="none" stroke="black" stroke-width="2"/>
<path d="M239.77 319.84L268.63 162.39"
fill="none" stroke="black" stroke-width="2"/>
<path d="M268.63 162.39L284.39 162.39"
fill="none" stroke="black" stroke-width="2"/>
<path d="M255.52 319.84L284.39 162.39"
fill="none" stroke="black" stroke-width="2"/>
<path d="M257.33 320.45L286.25 162.73"
fill="none" stroke="black" stroke-width="2"/>
<path d="M257.33 320.45L255.52 319.84"
fill="none" stroke="black" stroke-width="2"/>
<path d="M255.52 319.84L239.77 319.84"
fill="none" stroke="black" stroke-width="2"/>
<path d="M284.39 162.39L286.25 162.73"
fill="none" stroke="black" stroke-width="2"/>
<path d="M257.33 320.45L241.58 320.45"
fill="none" stroke="black" stroke-width="2"/>
<path d="M241.58 320.45L239.77 319.84"
fill="none" stroke="black" stroke-width="2"/>
<path d="M257.44 319.84L286.31 162.39"
fill="none" stroke="black" stroke-width="2"/>
<path d="M286.31 162.39L302.06 162.39"
fill="none" stroke="black" stroke-width="2"/>
<path d="M273.19 319.84L302.06 162.39"
fill="none" stroke="black" stroke-width="2"/>
<path d="M275 320.45L303.92 162.73"
fill="none" stroke="black" stroke-width="2"/>
<path d="M275 320.45L273.19 319.84"
fill="none" stroke="black" stroke-width="2"/>
<path d="M273.19 319.84L257.44 319.84"
fill="none" stroke="black" stroke-width="2"/>
<path d="M302.06 162.39L303.92 162.73"
fill="none" stroke="black" stroke-width="2"/>
<path d="M275 320.45L259.25 320.45"
fill="none" stroke="black" stroke-width="2"/>
<path d="M275.12 319.84L303.98 162.39"
fill="none" stroke="black" stroke-width="2"/>
<path d="M303.98 162.39L319.73 162.39"
fill="none" stroke="black" stroke-width="2"/>
<path d="M290.87 319.84L319.73 162.39"
fill="none" stroke="black" stroke-width="2"/>
<path d="M292.68 320.45L321.59 162.73"
fill="none" stroke="black" stroke-width="2"/>
<path d="M292.68 320.45L290.87 319.84"
fill="none" stroke="black" stroke-width="2"/>
<path d="M290.87 319.84L275.12 319.84"
fill="none" stroke="black" stroke-width="2"/>
<path d="M319.73 162.39L321.59 162.73"
fill="none" stroke="black" stroke-width="2"/>
<path d="M292.68 320.45L276.93 320.45"
fill="none" stroke="black" stroke-width="2"/>
<path d="M276.93 320.45L275.12 319.84"
fill="none" stroke="black" stroke-width="2"/>
<path d="M292.79 319.84L321.66 162.39"
fill="none" stroke="black" stroke-width="2"/>
<path d="M321.66 162.39L337.41 162.39"
fill="none" stroke="black" stroke-width="2"/>
<path d="M308.54 319.84L337.41 162.39"
fill="none" stroke="black" stroke-width="2"/>
<path d="M310.35 320.45L339.27 162.73"
fill="none" stroke="black" stroke-width="2"/>
<path d="M310.35 320.45L308.54 319.84"
fill="none" stroke="black" stroke-width="2"/>
<path d="M308.54 319.84L292.79 319.84"
fill="none" stroke="black" stroke-width="2"/>
<path d="M337.41 162.39L339.27 162.73"
fill="none" stroke="black" stroke-width="2"/>
<path d="M310.35 320.45L294.6 320.45"
fill="none" stroke="black" stroke-width="2"/>
<path d="M294.6 320.45L292.79 319.84"
fill="none" stroke="black" stroke-width="2"/>
<path d="M310.47 319.84L339.33 162.39"
fill="none" stroke="black" stroke-width="2"/>
<path d="M339.33 162.39L355.08 162.39"
fill="none" stroke="black" stroke-width="2"/>
<path d="M326.22 319.84L355.08 162.39"
fill="none" stroke="black" stroke-width="2"/>
<path d="M328.03 320.45L356.94 162.73"
fill="none" stroke="black" stroke-width="2"/>
<path d="M328.03 320.45L326.22 319.84"
fill="none" stroke="black" stroke-width="2"/>
<path d="M326.22 319.84L310.47 319.84"
fill="none" stroke="black" stroke-width="2"/>
<path d="M355.08 162.39L356.94 162.73"
fill="none" stroke="black" stroke-width="2"/>
<path d="M328.03 320.45L312.28 320.45"
fill="none" stroke="black" stroke-width="2"/>
<path d="M312.28 320.45L310.47 319.84"
fill="none" stroke="black" stroke-width="2"/>
<path d="M328.14 319.84L357.01 162.39"
fill="none" stroke="black" stroke-width="2"/>
<path d="M357.01 162.39L372.76 162.39"
fill="none" stroke="black" stroke-width="2"/>
<path d="M343.89 319.84L372.76 162.39"
fill="none" stroke="black" stroke-width="2"/>
<path d="M345.7 320.45L374.62 162.73"
fill="none" stroke="black" stroke-width="2"/>
<path d="M345.7 320.45L343.89 319.84"
fill="none" stroke="black" stroke-width="2"/>
<path d="M343.89 319.84L328.14 319.84"
fill="none" stroke="black" stroke-width="2"/>
<path d="M372.76 162.39L374.62 162.73"
fill="none" stroke="black" stroke-width="2"/>
<path d="M345.7 320.45L329.95 320.45"
fill="none" stroke="black" stroke-width="2"/>
<path d="M345.81 319.84L374.68 162.39"
fill="none" stroke="black" stroke-width="2"/>
<path d="M374.68 162.39L390.43 162.39"
fill="none" stroke="black" stroke-width="2"/>
<path d="M361.57 319.84L390.43 162.39"
fill="none" stroke="black" stroke-width="2"/>
<path d="M363.38 320.45L392.29 162.73"
fill="none" stroke="black" stroke-width="2"/>
<path d="M363.38 320.45L361.57 319.84"
fill="none" stroke="black" stroke-width="2"/>
<path d="M361.57 319.84L345.81 319.84"
fill="none" stroke="black" stroke-width="2"/>
<path d="M390.43 162.39L392.29 162.73"
fill="none" stroke="black" stroke-width="2"/>
<path d="M363.38 320.45L347.62 320.45"
fill="none" stroke="black" stroke-width="2"/>
<path d="M347.62 320.45L345.81 319.84"
fill="none" stroke="black" stroke-width="2"/>
<path d="M363.49 319.84L392.35 162.39"
fill="none" stroke="black" stroke-width="2"/>
<path d="M392.35 162.39L408.11 162.39"
fill="none" stroke="black" stroke-width="2"/>
<path d="M379.24 319.84L408.11 162.39"
fill="none" stroke="black" stroke-width="2"/>
<path d="M381.05 320.45L409.97 162.73"
fill="none" stroke="black" stroke-width="2"/>
<path d="M381.05 320.45L379.24 319.84"
fill="none" stroke="black" stroke-width="2"/>
<path d="M379.24 319.84L363.49 319.84"
fill="none" stroke="black" stroke-width="2"/>
<path d="M408.11 162.39L409.97 162.73"
fill="none" stroke="black" stroke-width="2"/>
<path d="M381.05 320.45L365.3 320.45"
fill="none" stroke="black" stroke-width="2"/>
<path d="M365.3 320.45L363.49 319.84"
fill="none" stroke="black" stroke-width="2"/>
<path d="M381.16 319.84L410.03 162.39"
fill="none" stroke="black" stroke-width="2"/>
<path d="M410.03 162.39L425.78 162.39"
fill="none" stroke="black" stroke-width="2"/>
<path d="M396.91 319.84L425.78 162.39"
fill="none" stroke="black" stroke-width="2"/>
<path d="M398.72 320.45L427.64 162.73"
fill="none" stroke="black" stroke-width="2"/>
<path d="M398.72 320.45L396.91 319.84"
fill="none" stroke="black" stroke-width="2"/>
<path d="M396.91 319.84L381.16 319.84"
fill="none" stroke="black" stroke-width="2"/>
<path d="M425.78 162.39L427.64 162.73"
fill="none" stroke="black" stroke-width="2"/>
<path d="M398.72 320.45L382.97 320.45"
fill="none" stroke="black" stroke-width="2"/>
<path d="M382.97 320.45L381.16 319.84"
fill="none" stroke="black" stroke-width="2"/>
<path d="M398.84 319.84L427.7 162.39"
fill="none" stroke="black" stroke-width="2"/>
<path d="M427.7 162.39L443.45 162.39"
fill="none" stroke="black" stroke-width="2"/>
<path d="M414.59 319.84L443.45 162.39"
fill="none" stroke="black" stroke-width="2"/>
<path d="M416.4 320.45L445.31 162.73"
fill="none" stroke="black" stroke-width="2"/>
<path d="M416.4 320.45L414.59 319.84"
fill="none" stroke="black" stroke-width="2"/>
<path d="M414.59 319.84L398.84 319.84"
fill="none" stroke="black" stroke-width="2"/>
<path d="M443.45 162.39L445.31 162.73"
fill="none" stroke="black" stroke-width="2"/>
<path d="M416.4 320.45L400.65 320.45"
fill="none" stroke="black" stroke-width="2"/>
<path d="M416.51 319.84L445.38 162.39"
fill="none" stroke="black" stroke-width="2"/>
<path d="M445.38 162.39L461.13 162.39"
fill="none" stroke="black" stroke-width="2"/>
<path d="M432.26 319.84L461.13 162.39"
fill="none" stroke="black" stroke-width="2"/>
<path d="M434.07 320.45L462.99 162.73"
fill="none" stroke="black" stroke-width="2"/>
<path d="M434.07 320.45L432.26 319.84"
fill="none" stroke="black" stroke-width="2"/>
<path d="M432.26 319.84L416.51 319.84"
fill="none" stroke="black" stroke-width="2"/>
<path d="M461.13 162.39L462.99 162.73"
fill="none" stroke="black" stroke-width="2"/>
<path d="M434.07 320.45L418.32 320.45"
fill="none" stroke="black" stroke-width="2"/>
<path d="M418.32 320.45L416.51 319.84"
fill="none" stroke="black" stroke-width="2"/>
<path d="M434.19 319.84L463.05 162.39"
fill="none" stroke="black" stroke-width="2"/>
<path d="M463.05 162.39L478.8 162.39"
fill="none" stroke="black" stroke-width="2"/>
<path d="M449.94 319.84L478.8 162.39"
fill="none" stroke="black" stroke-width="2"/>
<path d="M451.75 320.45L480.66 162.73"
fill="none" stroke="black" stroke-width="2"/>
<path d="M451.75 320.45L449.94 319.84"
fill="none" stroke="black" stroke-width="2"/>
<path d="M449.94 319.84L434.19 319.84"
fill="none" stroke="black" stroke-width="2"/>
<path d="M478.8 162.39L480.66 162.73"
fill="none" stroke="black" stroke-width="2"/>
<path d="M451.75 320.45L436 320.45"
fill="none" stroke="black" stroke-width="2"/>
<path d="M436 320.45L434.19 319.84"
fill="none" stroke="black" stroke-width="2"/>
<path d="M451.86 319.84L480.73 162.39"
fill="none" stroke="black" stroke-width="2"/>
<path d="M480.73 162.39L496.48 162.39"
fill="none" stroke="black" stroke-width="2"/>
<path d="M467.61 319.84L496.48 162.39"
fill="none" stroke="black" stroke-width="2"/>
<path d="M469.42 320.45L498.34 162.73"
fill="none" stroke="black" stroke-width="2"/>
<path d="M469.42 320.45L467.61 319.84"
fill="none" stroke="black" stroke-width="2"/>
<path d="M467.61 319.84L451.86 319.84"
fill="none" stroke="black" stroke-width="2"/>
<path d="M496.48 162.39L498.34 162.73"
fill="none" stroke="black" stroke-width="2"/>
<path d="M469.42 320.45L453.67 320.45"
fill="none" stroke="black" stroke-width="2"/>
<path d="M453.67 320.45L451.86 319.84"
fill="none" stroke="black" stroke-width="2"/>
<path d="M469.53 319.84L498.4 162.39"
fill="none" stroke="black" stroke-width="2"/>
<path d="M498.4 162.39L514.15 162.39"
fill="none" stroke="black" stroke-width="2"/>
<path d="M485.28 319.84L514.15 162.39"
fill="none" stroke="black" stroke-width="2"/>
<path d="M487.1 320.45L516.01 162.73"
fill="none" stroke="black" stroke-width="2"/>
<path d="M487.1 320.45L485.28 319.84"
fill="none" stroke="black" stroke-width="2"/>
<path d="M485.28 319.84L469.53 319.84"
fill="none" stroke="black" stroke-width="2"/>
<path d="M514.15 162.39L516.01 162.73"
fill="none" stroke="black" stroke-width="2"/>
<path d="M487.1 320.45L471.34 320.45"
fill="none" stroke="black" stroke-width="2"/>
<path d="M487.21 319.84L516.07 162.39"
fill="none" stroke="black" stroke-width="2"/>
<path d="M516.07 162.39L531.83 162.39"
fill="none" stroke="black" stroke-width="2"/>
<path d="M502.96 319.84L531.83 162.39"
fill="none" stroke="black" stroke-width="2"/>
<path d="M504.77 320.45L533.69 162.73"
fill="none" stroke="black" stroke-width="2"/>
<path d="M504.77 320.45L502.96 319.84"
fill="none" stroke="black" stroke-width="2"/>
<path d="M502.96 319.84L487.21 319.84"
fill="none" stroke="black" stroke-width="2"/>
<path d="M531.83 162.39L533.69 162.73"
fill="none" stroke="black" stroke-width="2"/>
<path d="M504.77 320.45L489.02 320.45"
fill="none" stroke="black" stroke-width="2"/>
<path d="M489.02 320.45L487.21 319.84"
fill="none" stroke="black" stroke-width="2"/>
<path d="M504.88 319.84L533.75 162.39"
fill="none" stroke="black" stroke-width="2"/>
<path d="M533.75 162.39L549.5 162.39"
fill="none" stroke="black" stroke-width="2"/>
<path d="M520.63 319.84L549.5 162.39"
fill="none" stroke="black" stroke-width="2"/>
<path d="M522.44 320.45L551.36 162.73"
fill="none" stroke="black" stroke-width="2"/>
<path d="M522.44 320.45L520.63 319.84"
fill="none" stroke="black" stroke-width="2"/>
<path d="M520.63 319.84L504.88 319.84"
fill="none" stroke="black" stroke-width="2"/>
<path d="M549.5 162.39L551.36 162.73"
fill="none" stroke="black" stroke-width="2"/>
<path d="M522.44 320.45L506.69 320.45"
fill="none" stroke="black" stroke-width="2"/>
<path d="M506.69 320.45L504.88 319.84"
fill="none" stroke="black" stroke-width="2"/>
<path d="M522.56 319.84L551.42 162.39"
fill="none" stroke="black" stroke-width="2"/>
<path d="M551.42 162.39L567.17 162.39"
fill="none" stroke="black" stroke-width="2"/>
<path d="M538.31 319.84L567.17 162.39"
fill="none" stroke="black" stroke-width="2"/>
<path d="M540.12 320.45L569.03 162.73"
fill="none" stroke="black" stroke-width="2"/>
<path d="M540.12 320.45L538.31 319.84"
fill="none" stroke="black" stroke-width="2"/>
<path d="M538.31 319.84L522.56 319.84"
fill="none" stroke="black" stroke-width="2"/>
<path d="M567.17 162.39L569.03 162.73"
fill="none" stroke="black" stroke-width="2"/>
<path d="M540.12 320.45L524.37 320.45"
fill="none" stroke="black" stroke-width="2"/>
<path d="M524.37 320.45L522.56 319.84"
fill="none" stroke="black" stroke-width="2"/>
<path d="M540.23 319.84L569.1 162.39"
fill="none" stroke="black" stroke-width="2"/>
<path d="M569.1 162.39L584.85 162.39"
fill="none" stroke="black" stroke-width="2"/>
<path d="M555.98 319.84L584.85 162.39"
fill="none" stroke="black" stroke-width="2"/>
<path d="M557.79 320.45L586.71 162.73"
fill="none" stroke="black" stroke-width="2"/>
<path d="M557.79 320.45L555.98 319.84"
fill="none" stroke="black" stroke-width="2"/>
<path d="M555.98 319.84L540.23 319.84"
fill="none" stroke="black" stroke-width="2"/>
<path d="M584.85 162.39L586.71 162.73"
fill="none" stroke="black" stroke-width="2"/>
<path d="M557.79 320.45L542.04 320.45"
fill="none" stroke="black" stroke-width="2"/>
<path d="M557.9 319.84L586.77 162.39"
fill="none" stroke="black" stroke-width="2"/>
<path d="M586.77 162.39L602.52 162.39"
fill="none" stroke="black" stroke-width="2"/>
<path d="M573.66 319.84L602.52 162.39"
fill="none" stroke="black" stroke-width="2"/>
<path d="M575.47 320.45L604.38 162.73"
fill="none" stroke="black" stroke-width="2"/>
<path d="M575.47 320.45L573.66 319.84"
fill="none" stroke="black" stroke-width="2"/>
<path d="M573.66 319.84L557.9 319.84"
fill="none" stroke="black" stroke-width="2"/>
<path d="M602.52 162.39L604.38 162.73"
fill="none" stroke="black" stroke-width="2"/>
<path d="M575.47 320.45L559.72 320.45"
fill="none" stroke="black" stroke-width="2"/>
<path d="M559.72 320.45L557.9 319.84"
fill="none" stroke="black" stroke-width="2"/>
<path d="M575.58 319.84L604.45 162.39"
fill="none" stroke="black" stroke-width="2"/>
<path d="M604.45 162.39L620.2 162.39"
fill="none" stroke="black" stroke-width="2"/>
<path d="M591.33 319.84L620.2 162.39"
fill="none" stroke="black" stroke-width="2"/>
<path d="M593.14 320.45L622.06 162.73"
fill="none" stroke="black" stroke-width="2"/>
<path d="M593.14 320.45L591.33 319.84"
fill="none" stroke="black" stroke-width="2"/>
<path d="M591.33 319.84L575.58 319.84"
fill="none" stroke="black" stroke-width="2"/>
<path d="M620.2 162.39L622.06 162.73"
fill="none" stroke="black" stroke-width="2"/>
<path d="M593.14 320.45L577.39 320.45"
fill="none" stroke="black" stroke-width="2"/>
<path d="M577.39 320.45L575.58 319.84"
fill="none" stroke="black" stroke-width="2"/>
<path d="M593.25 319.84L622.12 162.39"
fill="none" stroke="black" stroke-width="2"/>
<path d="M622.12 162.39L637.87 162.39"
fill="none" stroke="black" stroke-width="2"/>
<path d="M609 319.84L637.87 162.39"
fill="none" stroke="black" stroke-width="2"/>
<path d="M610.82 320.45L639.73 162.73"
fill="none" stroke="black" stroke-width="2"/>
<path d="M610.82 320.45L609 319.84"
fill="none" stroke="black" stroke-width="2"/>
<path d="M609 319.84L593.25 319.84"
fill="none" stroke="black" stroke-width="2"/>
<path d="M637.87 162.39L639.73 162.73"
fill="none" stroke="black" stroke-width="2"/>
<path d="M610.82 320.45L595.06 320.45"
fill="none" stroke="black" stroke-width="2"/>
<path d="M595.06 320.45L593.25 319.84"
fill="none" stroke="black" stroke-width="2"/>
<path d="M610.93 319.84L639.79 162.39"
fill="none" stroke="black" stroke-width="2"/>
<path d="M639.79 162.39L655.54 162.39"
fill="none" stroke="black" stroke-width="2"/>
<path d="M626.68 319.84L655.54 162.39"
fill="none" stroke="black" stroke-width="2"/>
<path d="M628.49 320.45L657.41 162.73"
fill="none" stroke="black" stroke-width="2"/>
<path d="M628.49 320.45L626.68 319.84"
fill="none" stroke="black" stroke-width="2"/>
<path d="M626.68 319.84L610.93 319.84"
fill="none" stroke="black" stroke-width="2"/>
<path d="M655.54 162.39L657.41 162.73"
fill="none" stroke="black" stroke-width="2"/>
<path d="M628.49 320.45L612.74 320.45"
fill="none" stroke="black" stroke-width="2"/>
<path d="M612.74 320.45L610.93 319.84"
fill="none" stroke="black" stroke-width="2"/>
<path d="M628.6 319.84L657.47 162.39"
fill="none" stroke="black" stroke-width="2"/>
<path d="M657.47 162.39L673.22 162.39"
fill="none" stroke="black" stroke-width="2"/>
<path d="M644.35 319.84L673.22 162.39"
fill="none" stroke="black" stroke-width="2"/>
<path d="M646.16 320.45L675.08 162.73"
fill="none" stroke="black" stroke-width="2"/>
<path d="M646.16 320.45L644.35 319.84"
fill="none" stroke="black" stroke-width="2"/>
<path d="M644.35 319.84L628.6 319.84"
fill="none" stroke="black" stroke-width="2"/>
<path d="M673.22 162.39L675.08 162.73"
fill="none" stroke="black" stroke-width="2"/>
<path d="M646.16 320.45L630.41 320.45"
fill="none" stroke="black" stroke-width="2"/>
<path d="M630.41 320.45L628.6 319.84"
fill="none" stroke="black" stroke-width="2"/>
<path d="M134.21 281.44L135.11 280.55M135.11 280.55L135.73 279.44M135.73 279.44L136.02 278.21M136.02 278.21L135.97 276.94M135.97 276.94L135.57 275.74M135.57 275.74L134.85 274.69M134.85 274.69L133.88 273.88M133.88 273.88L132.72 273.37M132.72 273.37L131.47 273.19M131.47 273.19L130.21 273.37M130.21 273.37L129.05 273.88M129.05 273.88L128.08 274.69"
fill="none" stroke="black" stroke-width="2"/>
<path d="M126.25 278.35L126.43 277.06M126.43 277.06L126.97 275.88M126.97 275.88L127.83 274.89M127.83 274.89L128.92 274.19M128.92 274.19L130.18 273.82M130.18 273.82L131.48 273.82M131.48 273.82L132.73 274.19M132.73 274.19L133.83 274.89M133.83 274.89L134.68 275.88M134.68 275.88L135.22 277.06M135.22 277.06L135.41 278.35M135.41 278.35L135.22 279.64M135.22 279.64L134.68 280.83M134.68 280.83L133.83 281.82M133.83 281.82L132.73 282.52M132.73 282.52L131.48 282.89M131.48 282.89L130.18 282.89M130.18 282.89L128.92 282.52M128.92 282.52L127.83 281.82M127.83 281.82L126.97 280.83M126.97 280.83L126.43 279.64M126.43 279.64L126.25 278.35"
fill="none" stroke="black" stroke-width="2"/>
<path d="M171.73 271.09L172.63 270.2M172.63 270.2L173.24 269.09M173.24 269.09L173.54 267.86M173.54 267.86L173.48 266.59M173.48 266.59L173.08 265.39M173.08 265.39L172.37 264.34M172.37 264.34L171.39 263.53M171.39 263.53L170.23 263.02M170.23 263.02L168.98 262.84M168.98 262.84L167.72 263.02M167.72 263.02L166.56 263.53M166.56 263.53L165.59 264.34"
fill="none" stroke="black" stroke-width="2"/>
<path d="M163.76 268L163.94 266.71M163.94 266.71L164.49 265.53M164.49 265.53L165.34 264.54M165.34 264.54L166.44 263.84M166.44 263.84L167.69 263.47M167.69 263.47L168.99 263.47M168.99 263.47L170.24 263.84M170.24 263.84L171.34 264.54M171.34 264.54L172.19 265.53M172.19 265.53L172.74 266.71M172.74 266.71L172.92 268M172.92 268L172.74 269.29M172.74 269.29L172.19 270.48M172.19 270.48L171.34 271.47M171.34 271.47L170.24 272.17M170.24 272.17L168.99 272.54M168.99 272.54L167.69 272.54M167.69 272.54L166.44 272.17M166.44 272.17L165.34 271.47M165.34 271.47L164.49 270.48M164.49 270.48L163.94 269.29M163.94 269.29L163.76 268"
fill="none" stroke="black" stroke-width="2"/>
<path d="M203.26 292.25L204.15 291.36M204.15 291.36L204.77 290.25M204.77 290.25L205.07 289.02M205.07 289.02L205.01 287.75M205.01 287.75L204.61 286.55M204.61 286.55L203.9 285.5M203.9 285.5L202.92 284.69M202.92 284.69L201.76 284.18M201.76 284.18L200.51 284M200.51 284L199.25 284.18M199.25 284.18L198.09 284.69M198.09 284.69L197.12 285.5"
fill="none" stroke="black" stroke-width="2"/>
<path d="M195.29 289.16L195.47 287.87M195.47 287.87L196.01 286.69M196.01 286.69L196.87 285.7M196.87 285.7L197.97 285M197.97 285L199.22 284.63M199.22 284.63L200.52 284.63M200.52 284.63L201.77 285M201.77 285L202.87 285.7M202.87 285.7L203.72 286.69M203.72 286.69L204.27 287.87M204.27 287.87L204.45 289.16M204.45 289.16L204.27 290.45M204.27 290.45L203.72 291.64M203.72 291.64L202.87 292.63M202.87 292.63L201.77 293.33M201.77 293.33L200.52 293.7M200.52 293.7L199.22 293.7M199.22 293.7L197.97 293.33M197.97 293.33L196.87 292.63M196.87 292.63L196.01 291.64M196.01 291.64L195.47 290.45M195.47 290.45L195.29 289.16"
fill="none" stroke="black" stroke-width="2"/>
<path d="M243.99 263.5L244.89 262.61M244.89 262.61L245.51 261.5M245.51 261.5L245.8 260.27M245.8 260.27L245.75 259M245.75 259L245.35 257.8M245.35 257.8L244.63 256.75M244.63 256.75L243.66 255.94M243.66 255.94L242.5 255.43M242.5 255.43L241.24 255.25M241.24 255.25L239.99 255.43M239.99 255.43L238.83 255.94M238.83 255.94L237.85 256.75"
fill="none" stroke="black" stroke-width="2"/>
<path d="M236.02 260.41L236.21 259.12M236.21 259.12L236.75 257.94M236.75 257.94L237.6 256.95M237.6 256.95L238.7 256.25M238.7 256.25L239.95 255.88M239.95 255.88L241.26 255.88M241.26 255.88L242.51 256.25M242.51 256.25L243.6 256.95M243.6 256.95L244.46 257.94M244.46 257.94L245 259.12M245 259.12L245.19 260.41M245.19 260.41L245 261.7M245 261.7L244.46 262.89M244.46 262.89L243.6 263.88M243.6 263.88L242.51 264.58M242.51 264.58L241.26 264.95M241.26 264.95L239.95 264.95M239.95 264.95L238.7 264.58M238.7 264.58L237.6 263.88M237.6 263.88L236.75 262.89M236.75 262.89L236.21 261.7M236.21 261.7L236.02 260.41"
fill="none" stroke="black" stroke-width="2"/>
<path d="M273.65 293.91L274.55 293.02M274.55 293.02L275.17 291.91M275.17 291.91L275.47 290.68M275.47 290.68L275.41 289.41M275.41 289.41L275.01 288.21M275.01 288.21L274.29 287.16M274.29 287.16L273.32 286.35M273.32 286.35L272.16 285.84M272.16 285.84L270.91 285.66M270.91 285.66L269.65 285.84M269.65 285.84L268.49 286.35M268.49 286.35L267.52 287.16"
fill="none" stroke="black" stroke-width="2"/>
<path d="M265.69 290.82L265.87 289.53M265.87 289.53L266.41 288.35M266.41 288.35L267.27 287.36M267.27 287.36L268.36 286.66M268.36 286.66L269.62 286.29M269.62 286.29L270.92 286.29M270.92 286.29L272.17 286.66M272.17 286.66L273.27 287.36M273.27 287.36L274.12 288.35M274.12 288.35L274.66 289.53M274.66 289.53L274.85 290.82M274.85 290.82L274.66 292.11M274.66 292.11L274.12 293.3M274.12 293.3L273.27 294.29M273.27 294.29L272.17 294.99M272.17 294.99L270.92 295.36M270.92 295.36L269.62 295.36M269.62 295.36L268.36 294.99M268.36 294.99L267.27 294.29M267.27 294.29L266.41 293.3M266.41 293.3L265.87 292.11M265.87 292.11L265.69 290.82"
fill="none" stroke="black" stroke-width="2"/>
<path d="M294.72 275.91L295.62 275.01M295.62 275.01L296.24 273.91M296.24 273.91L296.54 272.68M296.54 272.68L296.48 271.41M296.48 271.41L296.08 270.21M296.08 270.21L295.36 269.16M295.36 269.16L294.39 268.35M294.39 268.35L293.23 267.84M293.23 267.84L291.98 267.66M291.98 267.66L290.72 267.84M290.72 267.84L289.56 268.35M289.56 268.35L288.59 269.16"
fill="none" stroke="black" stroke-width="2"/>
<path d="M286.76 272.82L286.94 271.53M286.94 271.53L287.48 270.34M287.48 270.34L288.34 269.36M288.34 269.36L289.43 268.65M289.43 268.65L290.69 268.29M290.69 268.29L291.99 268.29M291.99 268.29L293.24 268.65M293.24 268.65L294.34 269.36M294.34 269.36L295.19 270.34M295.19 270.34L295.73 271.53M295.73 271.53L295.92 272.82M295.92 272.82L295.73 274.11M295.73 274.11L295.19 275.3M295.19 275.3L294.34 276.28M294.34 276.28L293.24 276.99M293.24 276.99L291.99 277.36M291.99 277.36L290.69 277.36M290.69 277.36L289.43 276.99M289.43 276.99L288.34 276.28M288.34 276.28L287.48 275.3M287.48 275.3L286.94 274.11M286.94 274.11L286.76 272.82"
fill="none" stroke="black" stroke-width="2"/>
<path d="M333.81 258.96L334.71 258.06M334.71 258.06L335.33 256.96M335.33 256.96L335.62 255.72M335.62 255.72L335.56 254.46M335.56 254.46L335.16 253.26M335.16 253.26L334.45 252.21M334.45 252.21L333.48 251.4M333.48 251.4L332.32 250.89M332.32 250.89L331.06 250.71M331.06 250.71L329.81 250.89M329.81 250.89L328.65 251.4M328.65 251.4L327.67 252.21"
fill="none" stroke="black" stroke-width="2"/>
<path d="M325.84 255.87L326.03 254.58M326.03 254.58L326.57 253.39M326.57 253.39L327.42 252.41M327.42 252.41L328.52 251.7M328.52 251.7L329.77 251.34M329.77 251.34L331.07 251.34M331.07 251.34L332.33 251.7M332.33 251.7L333.42 252.41M333.42 252.41L334.28 253.39M334.28 253.39L334.82 254.58M334.82 254.58L335 255.87M335 255.87L334.82 257.16M334.82 257.16L334.28 258.35M334.28 258.35L333.42 259.33M333.42 259.33L332.33 260.04M332.33 260.04L331.07 260.4M331.07 260.4L329.77 260.4M329.77 260.4L328.52 260.04M328.52 260.04L327.42 259.33M327.42 259.33L326.57 258.35M326.57 258.35L326.03 257.16M326.03 257.16L325.84 255.87"
fill="none" stroke="black" stroke-width="2"/>
<path d="M365.9 269.8L366.8 268.91M366.8 268.91L367.42 267.8M367.42 267.8L367.71 266.57M367.71 266.57L367.65 265.3M367.65 265.3L367.25 264.1M367.25 264.1L366.54 263.05M366.54 263.05L365.56 262.24M365.56 262.24L364.4 261.73M364.4 261.73L363.15 261.55M363.15 261.55L361.89 261.73M361.89 261.73L360.74 262.24M360.74 262.24L359.76 263.05"
fill="none" stroke="black" stroke-width="2"/>
<path d="M357.93 266.71L358.11 265.42M358.11 265.42L358.66 264.24M358.66 264.24L359.51 263.25M359.51 263.25L360.61 262.55M360.61 262.55L361.86 262.18M361.86 262.18L363.16 262.18M363.16 262.18L364.41 262.55M364.41 262.55L365.51 263.25M365.51 263.25L366.37 264.24M366.37 264.24L366.91 265.42M366.91 265.42L367.09 266.71M367.09 266.71L366.91 268M366.91 268L366.37 269.19M366.37 269.19L365.51 270.17M365.51 270.17L364.41 270.88M364.41 270.88L363.16 271.25M363.16 271.25L361.86 271.25M361.86 271.25L360.61 270.88M360.61 270.88L359.51 270.17M359.51 270.17L358.66 269.19M358.66 269.19L358.11 268M358.11 268L357.93 266.71"
fill="none" stroke="black" stroke-width="2"/>
<path d="M400.99 274.6L401.89 273.7M401.89 273.7L402.51 272.6M402.51 272.6L402.8 271.37M402.8 271.37L402.74 270.1M402.74 270.1L402.34 268.9M402.34 268.9L401.63 267.85M401.63 267.85L400.65 267.04M400.65 267.04L399.5 266.53M399.5 266.53L398.24 266.35M398.24 266.35L396.99 266.53M396.99 266.53L395.83 267.04M395.83 267.04L394.85 267.85"
fill="none" stroke="black" stroke-width="2"/>
<path d="M393.02 271.51L393.21 270.22M393.21 270.22L393.75 269.04M393.75 269.04L394.6 268.05M394.6 268.05L395.7 267.34M395.7 267.34L396.95 266.98M396.95 266.98L398.25 266.98M398.25 266.98L399.5 267.34M399.5 267.34L400.6 268.05M400.6 268.05L401.46 269.04M401.46 269.04L402 270.22M402 270.22L402.18 271.51M402.18 271.51L402 272.8M402 272.8L401.46 273.99M401.46 273.99L400.6 274.97M400.6 274.97L399.5 275.68M399.5 275.68L398.25 276.05M398.25 276.05L396.95 276.05M396.95 276.05L395.7 275.68M395.7 275.68L394.6 274.97M394.6 274.97L393.75 273.99M393.75 273.99L393.21 272.8M393.21 272.8L393.02 271.51"
fill="none" stroke="black" stroke-width="2"/>
<path d="M437.56 267.21L438.46 266.32M438.46 266.32L439.07 265.22M439.07 265.22L439.37 263.98M439.37 263.98L439.31 262.72M439.31 262.72L438.91 261.52M438.91 261.52L438.2 260.47M438.2 260.47L437.22 259.66M437.22 259.66L436.06 259.15M436.06 259.15L434.81 258.97M434.81 258.97L433.55 259.14M433.55 259.14L432.39 259.65M432.39 259.65L431.42 260.46"
fill="none" stroke="black" stroke-width="2"/>
<path d="M429.59 264.13L429.77 262.84M429.77 262.84L430.32 261.65M430.32 261.65L431.17 260.67M431.17 260.67L432.27 259.96M432.27 259.96L433.52 259.59M433.52 259.59L434.82 259.59M434.82 259.59L436.07 259.96M436.07 259.96L437.17 260.67M437.17 260.67L438.02 261.65M438.02 261.65L438.57 262.84M438.57 262.84L438.75 264.13M438.75 264.13L438.57 265.42M438.57 265.42L438.02 266.61M438.02 266.61L437.17 267.59M437.17 267.59L436.07 268.3M436.07 268.3L434.82 268.66M434.82 268.66L433.52 268.66M433.52 268.66L432.27 268.3M432.27 268.3L431.17 267.59M431.17 267.59L430.32 266.61M430.32 266.61L429.77 265.42M429.77 265.42L429.59 264.13"
fill="none" stroke="black" stroke-width="2"/>
<path d="M450.98 291.01L451.88 290.12M451.88 290.12L452.5 289.01M452.5 289.01L452.79 287.78M452.79 287.78L452.73 286.51M452.73 286.51L452.33 285.31M452.33 285.31L451.62 284.26M451.62 284.26L450.65 283.45M450.65 283.45L449.49 282.94M449.49 282.94L448.23 282.76M448.23 282.76L446.98 282.94M446.98 282.94L445.82 283.45M445.82 283.45L444.84 284.26"
fill="none" stroke="black" stroke-width="2"/>
<path d="M443.01 287.92L443.2 286.63M443.2 286.63L443.74 285.45M443.74 285.45L444.59 284.46M444.59 284.46L445.69 283.76M445.69 283.76L446.94 283.39M446.94 283.39L448.24 283.39M448.24 283.39L449.5 283.76M449.5 283.76L450.59 284.46M450.59 284.46L451.45 285.45M451.45 285.45L451.99 286.63M451.99 286.63L452.17 287.92M452.17 287.92L451.99 289.21M451.99 289.21L451.45 290.4M451.45 290.4L450.59 291.39M450.59 291.39L449.5 292.09M449.5 292.09L448.24 292.46M448.24 292.46L446.94 292.46M446.94 292.46L445.69 292.09M445.69 292.09L444.59 291.39M444.59 291.39L443.74 290.4M443.74 290.4L443.2 289.21M443.2 289.21L443.01 287.92"
fill="none" stroke="black" stroke-width="2"/>
<path d="M468.75 293.68L469.65 292.78M469.65 292.78L470.27 291.68M470.27 291.68L470.56 290.45M470.56 290.45L470.51 289.18M470.51 289.18L470.11 287.98M470.11 287.98L469.39 286.93M469.39 286.93L468.42 286.12M468.42 286.12L467.26 285.61M467.26 285.61L466.01 285.43M466.01 285.43L464.75 285.61M464.75 285.61L463.59 286.12M463.59 286.12L462.62 286.93"
fill="none" stroke="black" stroke-width="2"/>
<path d="M460.78 290.59L460.97 289.3M460.97 289.3L461.51 288.11M461.51 288.11L462.37 287.13M462.37 287.13L463.46 286.42M463.46 286.42L464.71 286.06M464.71 286.06L466.02 286.06M466.02 286.06L467.27 286.42M467.27 286.42L468.37 287.13M468.37 287.13L469.22 288.11M469.22 288.11L469.76 289.3M469.76 289.3L469.95 290.59M469.95 290.59L469.76 291.88M469.76 291.88L469.22 293.07M469.22 293.07L468.37 294.05M468.37 294.05L467.27 294.76M467.27 294.76L466.02 295.13M466.02 295.13L464.71 295.13M464.71 295.13L463.46 294.76M463.46 294.76L462.37 294.05M462.37 294.05L461.51 293.07M461.51 293.07L460.97 291.88M460.97 291.88L460.78 290.59"
fill="none" stroke="black" stroke-width="2"/>
<path d="M504.63 285.12L505.53 284.22M505.53 284.22L506.15 283.12M506.15 283.12L506.45 281.89M506.45 281.89L506.39 280.62M506.39 280.62L505.99 279.42M505.99 279.42L505.27 278.37M505.27 278.37L504.3 277.56M504.3 277.56L503.14 277.05M503.14 277.05L501.89 276.87M501.89 276.87L500.63 277.05M500.63 277.05L499.47 277.56M499.47 277.56L498.5 278.37"
fill="none" stroke="black" stroke-width="2"/>
<path d="M496.67 282.03L496.85 280.74M496.85 280.74L497.39 279.55M497.39 279.55L498.25 278.57M498.25 278.57L499.34 277.86M499.34 277.86L500.6 277.5M500.6 277.5L501.9 277.5M501.9 277.5L503.15 277.86M503.15 277.86L504.25 278.57M504.25 278.57L505.1 279.55M505.1 279.55L505.64 280.74M505.64 280.74L505.83 282.03M505.83 282.03L505.64 283.32M505.64 283.32L505.1 284.51M505.1 284.51L504.25 285.49M504.25 285.49L503.15 286.2M503.15 286.2L501.9 286.57M501.9 286.57L500.6 286.57M500.6 286.57L499.34 286.2M499.34 286.2L498.25 285.49M498.25 285.49L497.39 284.51M497.39 284.51L496.85 283.32M496.85 283.32L496.67 282.03"
fill="none" stroke="black" stroke-width="2"/>
<path d="M540.53 283.51L541.43 282.61M541.43 282.61L542.05 281.51M542.05 281.51L542.35 280.28M542.35 280.28L542.29 279.01M542.29 279.01L541.89 277.81M541.89 277.81L541.17 276.76M541.17 276.76L540.2 275.95M540.2 275.95L539.04 275.44M539.04 275.44L537.79 275.26M537.79 275.26L536.53 275.44M536.53 275.44L535.37 275.95M535.37 275.95L534.4 276.76"
fill="none" stroke="black" stroke-width="2"/>
<path d="M532.57 280.42L532.75 279.13M532.75 279.13L533.29 277.95M533.29 277.95L534.15 276.96M534.15 276.96L535.24 276.25M535.24 276.25L536.5 275.89M536.5 275.89L537.8 275.89M537.8 275.89L539.05 276.25M539.05 276.25L540.15 276.96M540.15 276.96L541 277.95M541 277.95L541.54 279.13M541.54 279.13L541.73 280.42M541.73 280.42L541.54 281.71M541.54 281.71L541 282.9M541 282.9L540.15 283.88M540.15 283.88L539.05 284.59M539.05 284.59L537.8 284.96M537.8 284.96L536.5 284.96M536.5 284.96L535.24 284.59M535.24 284.59L534.15 283.88M534.15 283.88L533.29 282.9M533.29 282.9L532.75 281.71M532.75 281.71L532.57 280.42"
fill="none" stroke="black" stroke-width="2"/>
<path d="M575.75 279.43L576.65 278.54M576.65 278.54L577.27 277.43M577.27 277.43L577.56 276.2M577.56 276.2L577.5 274.94M577.5 274.94L577.1 273.73M577.1 273.73L576.39 272.69M576.39 272.69L575.42 271.88M575.42 271.88L574.26 271.36M574.26 271.36L573 271.19M573 271.19L571.75 271.36M571.75 271.36L570.59 271.87M570.59 271.87L569.61 272.68"
fill="none" stroke="black" stroke-width="2"/>
<path d="M567.78 276.35L567.97 275.06M567.97 275.06L568.51 273.87M568.51 273.87L569.36 272.88M569.36 272.88L570.46 272.18M570.46 272.18L571.71 271.81M571.71 271.81L573.01 271.81M573.01 271.81L574.27 272.18M574.27 272.18L575.36 272.88M575.36 272.88L576.22 273.87M576.22 273.87L576.76 275.06M576.76 275.06L576.94 276.35M576.94 276.35L576.76 277.64M576.76 277.64L576.22 278.82M576.22 278.82L575.36 279.81M575.36 279.81L574.27 280.51M574.27 280.51L573.01 280.88M573.01 280.88L571.71 280.88M571.71 280.88L570.46 280.51M570.46 280.51L569.36 279.81M569.36 279.81L568.51 278.82M568.51 278.82L567.97 277.64M567.97 277.64L567.78 276.35"
fill="none" stroke="black" stroke-width="2"/>
<path d="M612.45 275.36L613.34 274.46M613.34 274.46L613.96 273.36M613.96 273.36L614.26 272.13M614.26 272.13L614.2 270.86M614.2 270.86L613.8 269.66M613.8 269.66L613.09 268.61M613.09 268.61L612.11 267.8M612.11 267.8L610.95 267.29M610.95 267.29L609.7 267.11M609.7 267.11L608.44 267.29M608.44 267.29L607.28 267.8M607.28 267.8L606.31 268.61"
fill="none" stroke="black" stroke-width="2"/>
<path d="M604.48 272.27L604.66 270.98M604.66 270.98L605.21 269.8M605.21 269.8L606.06 268.81M606.06 268.81L607.16 268.1M607.16 268.1L608.41 267.74M608.41 267.74L609.71 267.74M609.71 267.74L610.96 268.1M610.96 268.1L612.06 268.81M612.06 268.81L612.91 269.8M612.91 269.8L613.46 270.98M613.46 270.98L613.64 272.27M613.64 272.27L613.46 273.56M613.46 273.56L612.91 274.75M612.91 274.75L612.06 275.73M612.06 275.73L610.96 276.44M610.96 276.44L609.71 276.81M609.71 276.81L608.41 276.81M608.41 276.81L607.16 276.44M607.16 276.44L606.06 275.73M606.06 275.73L605.21 274.75M605.21 274.75L604.66 273.56M604.66 273.56L604.48 272.27"
fill="none" stroke="black" stroke-width="2"/>
<path d="M646.18 287.58L647.08 286.69M647.08 286.69L647.7 285.58M647.7 285.58L647.99 284.35M647.99 284.35L647.93 283.09M647.93 283.09L647.53 281.88M647.53 281.88L646.82 280.84M646.82 280.84L645.84 280.03M645.84 280.03L644.69 279.51M644.69 279.51L643.43 279.34M643.43 279.34L642.18 279.51M642.18 279.51L641.02 280.02M641.02 280.02L640.04 280.83"
fill="none" stroke="black" stroke-width="2"/>
<path d="M638.21 284.5L638.39 283.21M638.39 283.21L638.94 282.02M638.94 282.02L639.79 281.03M639.79 281.03L640.89 280.33M640.89 280.33L642.14 279.96M642.14 279.96L643.44 279.96M643.44 279.96L644.69 280.33M644.69 280.33L645.79 281.03M645.79 281.03L646.65 282.02M646.65 282.02L647.19 283.21M647.19 283.21L647.37 284.5M647.37 284.5L647.19 285.79M647.19 285.79L646.65 286.97M646.65 286.97L645.79 287.96M645.79 287.96L644.69 288.66M644.69 288.66L643.44 289.03M643.44 289.03L642.14 289.03M642.14 289.03L640.89 288.66M640.89 288.66L639.79 287.96M639.79 287.96L638.94 286.97M638.94 286.97L638.39 285.79M638.39 285.79L638.21 284.5"
fill="none" stroke="black" stroke-width="2"/>
<path d="M160.63 230.13L161.53 229.23M161.53 229.23L162.15 228.13M162.15 228.13L162.45 226.89M162.45 226.89L162.39 225.63M162.39 225.63L161.99 224.43M161.99 224.43L161.27 223.38M161.27 223.38L160.3 222.57M160.3 222.57L159.14 222.06M159.14 222.06L157.89 221.88M157.89 221.88L156.63 222.05M156.63 222.05L155.47 222.57M155.47 222.57L154.5 223.38"
fill="none" stroke="black" stroke-width="2"/>
<path d="M152.67 227.04L152.85 225.75M152.85 225.75L153.39 224.56M153.39 224.56L154.25 223.58M154.25 223.58L155.34 222.87M155.34 222.87L156.6 222.5M156.6 222.5L157.9 222.5M157.9 222.5L159.15 222.87M159.15 222.87L160.25 223.58M160.25 223.58L161.1 224.56M161.1 224.56L161.64 225.75M161.64 225.75L161.83 227.04M161.83 227.04L161.64 228.33M161.64 228.33L161.1 229.52M161.1 229.52L160.25 230.5M160.25 230.5L159.15 231.21M159.15 231.21L157.9 231.57M157.9 231.57L156.6 231.57M156.6 231.57L155.34 231.21M155.34 231.21L154.25 230.5M154.25 230.5L153.39 229.52M153.39 229.52L152.85 228.33M152.85 228.33L152.67 227.04"
fill="none" stroke="black" stroke-width="2"/>
<path d="M196.28 233.84L197.18 232.94M197.18 232.94L197.8 231.84M197.8 231.84L198.09 230.61M198.09 230.61L198.04 229.34M198.04 229.34L197.64 228.14M197.64 228.14L196.92 227.09M196.92 227.09L195.95 226.28M195.95 226.28L194.79 225.77M194.79 225.77L193.53 225.59M193.53 225.59L192.28 225.77M192.28 225.77L191.12 226.28M191.12 226.28L190.15 227.09"
fill="none" stroke="black" stroke-width="2"/>
<path d="M188.31 230.75L188.5 229.46M188.5 229.46L189.04 228.27M189.04 228.27L189.89 227.29M189.89 227.29L190.99 226.58M190.99 226.58L192.24 226.22M192.24 226.22L193.55 226.22M193.55 226.22L194.8 226.58M194.8 226.58L195.9 227.29M195.9 227.29L196.75 228.27M196.75 228.27L197.29 229.46M197.29 229.46L197.48 230.75M197.48 230.75L197.29 232.04M197.29 232.04L196.75 233.23M196.75 233.23L195.9 234.21M195.9 234.21L194.8 234.92M194.8 234.92L193.55 235.29M193.55 235.29L192.24 235.29M192.24 235.29L190.99 234.92M190.99 234.92L189.89 234.21M189.89 234.21L189.04 233.23M189.04 233.23L188.5 232.04M188.5 232.04L188.31 230.75"
fill="none" stroke="black" stroke-width="2"/>
<path d="M231.93 229.38L232.83 228.49M232.83 228.49L233.45 227.38M233.45 227.38L233.74 226.15M233.74 226.15L233.69 224.89M233.69 224.89L233.28 223.68M233.28 223.68L232.57 222.64M232.57 222.64L231.6 221.83M231.6 221.83L230.44 221.31M230.44 221.31L229.18 221.14M229.18 221.14L227.93 221.31M227.93 221.31L226.77 221.82M226.77 221.82L225.79 222.63"
fill="none" stroke="black" stroke-width="2"/>
<path d="M223.96 226.3L224.15 225.01M224.15 225.01L224.69 223.82M224.69 223.82L225.54 222.83M225.54 222.83L226.64 222.13M226.64 222.13L227.89 221.76M227.89 221.76L229.2 221.76M229.2 221.76L230.45 222.13M230.45 222.13L231.54 222.83M231.54 222.83L232.4 223.82M232.4 223.82L232.94 225.01M232.94 225.01L233.13 226.3M233.13 226.3L232.94 227.59M232.94 227.59L232.4 228.77M232.4 228.77L231.54 229.76M231.54 229.76L230.45 230.46M230.45 230.46L229.2 230.83M229.2 230.83L227.89 230.83M227.89 230.83L226.64 230.46M226.64 230.46L225.54 229.76M225.54 229.76L224.69 228.77M224.69 228.77L224.15 227.59M224.15 227.59L223.96 226.3"
fill="none" stroke="black" stroke-width="2"/>
<path d="M267.58 232.35L268.48 231.46M268.48 231.46L269.1 230.35M269.1 230.35L269.39 229.12M269.39 229.12L269.33 227.86M269.33 227.86L268.93 226.65M268.93 226.65L268.22 225.61M268.22 225.61L267.24 224.8M267.24 224.8L266.09 224.28M266.09 224.28L264.83 224.11M264.83 224.11L263.58 224.28M263.58 224.28L262.42 224.79M262.42 224.79L261.44 225.6"
fill="none" stroke="black" stroke-width="2"/>
<path d="M259.61 229.27L259.79 227.98M259.79 227.98L260.34 226.79M260.34 226.79L261.19 225.8M261.19 225.8L262.29 225.1M262.29 225.1L263.54 224.73M263.54 224.73L264.84 224.73M264.84 224.73L266.09 225.1M266.09 225.1L267.19 225.8M267.19 225.8L268.05 226.79M268.05 226.79L268.59 227.98M268.59 227.98L268.77 229.27M268.77 229.27L268.59 230.56M268.59 230.56L268.05 231.74M268.05 231.74L267.19 232.73M267.19 232.73L266.09 233.43M266.09 233.43L264.84 233.8M264.84 233.8L263.54 233.8M263.54 233.8L262.29 233.43M262.29 233.43L261.19 232.73M261.19 232.73L260.34 231.74M260.34 231.74L259.79 230.56M259.79 230.56L259.61 229.27"
fill="none" stroke="black" stroke-width="2"/>
<path d="M307.34 204.67L308.24 203.78M308.24 203.78L308.86 202.67M308.86 202.67L309.15 201.44M309.15 201.44L309.1 200.17M309.1 200.17L308.7 198.97M308.7 198.97L307.98 197.92M307.98 197.92L307.01 197.11M307.01 197.11L305.85 196.6M305.85 196.6L304.6 196.43M304.6 196.43L303.34 196.6M303.34 196.6L302.18 197.11M302.18 197.11L301.21 197.92"
fill="none" stroke="black" stroke-width="2"/>
<path d="M299.38 201.58L299.56 200.29M299.56 200.29L300.1 199.11M300.1 199.11L300.96 198.12M300.96 198.12L302.05 197.42M302.05 197.42L303.31 197.05M303.31 197.05L304.61 197.05M304.61 197.05L305.86 197.42M305.86 197.42L306.96 198.12M306.96 198.12L307.81 199.11M307.81 199.11L308.35 200.29M308.35 200.29L308.54 201.58M308.54 201.58L308.35 202.88M308.35 202.88L307.81 204.06M307.81 204.06L306.96 205.05M306.96 205.05L305.86 205.75M305.86 205.75L304.61 206.12M304.61 206.12L303.31 206.12M303.31 206.12L302.05 205.75M302.05 205.75L300.96 205.05M300.96 205.05L300.1 204.06M300.1 204.06L299.56 202.88M299.56 202.88L299.38 201.58"
fill="none" stroke="black" stroke-width="2"/>
<path d="M351.19 213.51L351.38 212.21M351.38 212.21L351.92 211.03M351.92 211.03L352.78 210.04M352.78 210.04L353.87 209.34M353.87 209.34L355.12 208.97M355.12 208.97L356.43 208.97M356.43 208.97L357.68 209.34M357.68 209.34L358.78 210.04M358.78 210.04L359.63 211.03M359.63 211.03L360.17 212.21M360.17 212.21L360.36 213.51M360.36 213.51L360.17 214.8M360.17 214.8L359.63 215.98M359.63 215.98L358.78 216.97M358.78 216.97L357.68 217.67M357.68 217.67L356.43 218.04M356.43 218.04L355.12 218.04M355.12 218.04L353.87 217.67M353.87 217.67L352.78 216.97M352.78 216.97L351.92 215.98M351.92 215.98L351.38 214.8M351.38 214.8L351.19 213.51"
fill="none" stroke="black" stroke-width="2"/>
<path d="M393.73 217.19L394.63 216.29M394.63 216.29L395.25 215.19M395.25 215.19L395.54 213.96M395.54 213.96L395.49 212.69M395.49 212.69L395.09 211.49M395.09 211.49L394.37 210.44M394.37 210.44L393.4 209.63M393.4 209.63L392.24 209.12M392.24 209.12L390.98 208.94M390.98 208.94L389.73 209.12M389.73 209.12L388.57 209.63M388.57 209.63L387.59 210.44"
fill="none" stroke="black" stroke-width="2"/>
<path d="M385.76 214.1L385.95 212.81M385.95 212.81L386.49 211.62M386.49 211.62L387.34 210.64M387.34 210.64L388.44 209.93M388.44 209.93L389.69 209.57M389.69 209.57L391 209.57M391 209.57L392.25 209.93M392.25 209.93L393.35 210.64M393.35 210.64L394.2 211.62M394.2 211.62L394.74 212.81M394.74 212.81L394.93 214.1M394.93 214.1L394.74 215.39M394.74 215.39L394.2 216.58M394.2 216.58L393.35 217.56M393.35 217.56L392.25 218.27M392.25 218.27L391 218.64M391 218.64L389.69 218.64M389.69 218.64L388.44 218.27M388.44 218.27L387.34 217.56M387.34 217.56L386.49 216.58M386.49 216.58L385.95 215.39M385.95 215.39L385.76 214.1"
fill="none" stroke="black" stroke-width="2"/>
<path d="M441.19 203.38L441.38 202.09M441.38 202.09L441.92 200.9M441.92 200.9L442.77 199.92M442.77 199.92L443.87 199.21M443.87 199.21L445.12 198.84M445.12 198.84L446.42 198.84M446.42 198.84L447.68 199.21M447.68 199.21L448.77 199.92M448.77 199.92L449.63 200.9M449.63 200.9L450.17 202.09M450.17 202.09L450.35 203.38M450.35 203.38L450.17 204.67M450.17 204.67L449.63 205.86M449.63 205.86L448.77 206.84M448.77 206.84L447.68 207.55M447.68 207.55L446.42 207.91M446.42 207.91L445.12 207.91M445.12 207.91L443.87 207.55M443.87 207.55L442.77 206.84M442.77 206.84L441.92 205.86M441.92 205.86L441.38 204.67M441.38 204.67L441.19 203.38"
fill="none" stroke="black" stroke-width="2"/>
<path d="M493.89 243.66L494.79 242.77M494.79 242.77L495.41 241.66M495.41 241.66L495.7 240.43M495.7 240.43L495.65 239.16M495.65 239.16L495.24 237.96M495.24 237.96L494.53 236.91M494.53 236.91L493.56 236.1M493.56 236.1L492.4 235.59M492.4 235.59L491.14 235.41M491.14 235.41L489.89 235.59M489.89 235.59L488.73 236.1M488.73 236.1L487.75 236.91"
fill="none" stroke="black" stroke-width="2"/>
<path d="M485.92 240.57L486.11 239.28M486.11 239.28L486.65 238.1M486.65 238.1L487.5 237.11M487.5 237.11L488.6 236.41M488.6 236.41L489.85 236.04M489.85 236.04L491.16 236.04M491.16 236.04L492.41 236.41M492.41 236.41L493.5 237.11M493.5 237.11L494.36 238.1M494.36 238.1L494.9 239.28M494.9 239.28L495.09 240.57M495.09 240.57L494.9 241.86M494.9 241.86L494.36 243.05M494.36 243.05L493.5 244.03M493.5 244.03L492.41 244.74M492.41 244.74L491.16 245.11M491.16 245.11L489.85 245.11M489.85 245.11L488.6 244.74M488.6 244.74L487.5 244.03M487.5 244.03L486.65 243.05M486.65 243.05L486.11 241.86M486.11 241.86L485.92 240.57"
fill="none" stroke="black" stroke-width="2"/>
<path d="M550.61 228.12L551.5 227.22M551.5 227.22L552.12 226.12M552.12 226.12L552.42 224.89M552.42 224.89L552.36 223.62M552.36 223.62L551.96 222.42M551.96 222.42L551.25 221.37M551.25 221.37L550.27 220.56M550.27 220.56L549.11 220.05M549.11 220.05L547.86 219.87M547.86 219.87L546.6 220.05M546.6 220.05L545.44 220.56M545.44 220.56L544.47 221.37"
fill="none" stroke="black" stroke-width="2"/>
<path d="M542.64 225.03L542.82 223.74M542.82 223.74L543.36 222.55M543.36 222.55L544.22 221.57M544.22 221.57L545.32 220.86M545.32 220.86L546.57 220.5M546.57 220.5L547.87 220.5M547.87 220.5L549.12 220.86M549.12 220.86L550.22 221.57M550.22 221.57L551.07 222.55M551.07 222.55L551.62 223.74M551.62 223.74L551.8 225.03M551.8 225.03L551.62 226.32M551.62 226.32L551.07 227.51M551.07 227.51L550.22 228.49M550.22 228.49L549.12 229.2M549.12 229.2L547.87 229.57M547.87 229.57L546.57 229.57M546.57 229.57L545.32 229.2M545.32 229.2L544.22 228.49M544.22 228.49L543.36 227.51M543.36 227.51L542.82 226.32M542.82 226.32L542.64 225.03"
fill="none" stroke="black" stroke-width="2"/>
<path d="M569.71 222.15L570.61 221.26M570.61 221.26L571.23 220.15M571.23 220.15L571.52 218.92M571.52 218.92L571.47 217.65M571.47 217.65L571.07 216.45M571.07 216.45L570.35 215.4M570.35 215.4L569.38 214.59M569.38 214.59L568.22 214.08M568.22 214.08L566.96 213.9M566.96 213.9L565.71 214.08M565.71 214.08L564.55 214.59M564.55 214.59L563.57 215.4"
fill="none" stroke="black" stroke-width="2"/>
<path d="M561.74 219.06L561.93 217.77M561.93 217.77L562.47 216.59M562.47 216.59L563.32 215.6M563.32 215.6L564.42 214.9M564.42 214.9L565.67 214.53M565.67 214.53L566.98 214.53M566.98 214.53L568.23 214.9M568.23 214.9L569.33 215.6M569.33 215.6L570.18 216.59M570.18 216.59L570.72 217.77M570.72 217.77L570.91 219.06M570.91 219.06L570.72 220.35M570.72 220.35L570.18 221.54M570.18 221.54L569.33 222.53M569.33 222.53L568.23 223.23M568.23 223.23L566.98 223.6M566.98 223.6L565.67 223.6M565.67 223.6L564.42 223.23M564.42 223.23L563.32 222.53M563.32 222.53L562.47 221.54M562.47 221.54L561.93 220.35M561.93 220.35L561.74 219.06"
fill="none" stroke="black" stroke-width="2"/>
<path d="M602.55 232.89L603.45 232M603.45 232L604.07 230.89M604.07 230.89L604.36 229.66M604.36 229.66L604.3 228.39M604.3 228.39L603.9 227.19M603.9 227.19L603.19 226.14M603.19 226.14L602.21 225.33M602.21 225.33L601.06 224.82M601.06 224.82L599.8 224.64M599.8 224.64L598.55 224.82M598.55 224.82L597.39 225.33M597.39 225.33L596.41 226.14"
fill="none" stroke="black" stroke-width="2"/>
<path d="M594.58 229.8L594.77 228.51M594.77 228.51L595.31 227.33M595.31 227.33L596.16 226.34M596.16 226.34L597.26 225.64M597.26 225.64L598.51 225.27M598.51 225.27L599.81 225.27M599.81 225.27L601.07 225.64M601.07 225.64L602.16 226.34M602.16 226.34L603.02 227.33M603.02 227.33L603.56 228.51M603.56 228.51L603.74 229.8M603.74 229.8L603.56 231.09M603.56 231.09L603.02 232.28M603.02 232.28L602.16 233.27M602.16 233.27L601.07 233.97M601.07 233.97L599.81 234.34M599.81 234.34L598.51 234.34M598.51 234.34L597.26 233.97M597.26 233.97L596.16 233.27M596.16 233.27L595.31 232.28M595.31 232.28L594.77 231.09M594.77 231.09L594.58 229.8"
fill="none" stroke="black" stroke-width="2"/>
<path d="M656.88 228.12L657.78 227.22M657.78 227.22L658.4 226.12M658.4 226.12L658.69 224.89M658.69 224.89L658.63 223.62M658.63 223.62L658.23 222.42M658.23 222.42L657.52 221.37M657.52 221.37L656.55 220.56M656.55 220.56L655.39 220.05M655.39 220.05L654.13 219.87M654.13 219.87L652.88 220.05M652.88 220.05L651.72 220.56M651.72 220.56L650.74 221.37"
fill="none" stroke="black" stroke-width="2"/>
<path d="M648.91 225.03L649.1 223.74M649.1 223.74L649.64 222.55M649.64 222.55L650.49 221.57M650.49 221.57L651.59 220.86M651.59 220.86L652.84 220.5M652.84 220.5L654.15 220.5M654.15 220.5L655.4 220.86M655.4 220.86L656.49 221.57M656.49 221.57L657.35 222.55M657.35 222.55L657.89 223.74M657.89 223.74L658.08 225.03M658.08 225.03L657.89 226.32M657.89 226.32L657.35 227.51M657.35 227.51L656.49 228.49M656.49 228.49L655.4 229.2M655.4 229.2L654.15 229.57M654.15 229.57L652.84 229.57M652.84 229.57L651.59 229.2M651.59 229.2L650.49 228.49M650.49 228.49L649.64 227.51M649.64 227.51L649.1 226.32M649.1 226.32L648.91 225.03"
fill="none" stroke="black" stroke-width="2"/>
<path d="M186.35 280.66L187.05 279.89M187.05 279.89L187.43 278.92M187.43 278.92L187.44 277.87M187.44 277.87L187.06 276.9M187.06 276.9L186.36 276.13M186.36 276.13L185.43 275.66M185.43 275.66L184.39 275.57M184.39 275.57L183.38 275.85M183.38 275.85L182.55 276.48"
fill="none" stroke="black" stroke-width="2"/>
<path d="M181.42 278.75L181.61 277.72M181.61 277.72L182.16 276.84M182.16 276.84L182.99 276.21M182.99 276.21L183.99 275.92M183.99 275.92L185.03 276.02M185.03 276.02L185.96 276.48M185.96 276.48L186.66 277.25M186.66 277.25L187.04 278.23M187.04 278.23L187.04 279.27M187.04 279.27L186.66 280.24M186.66 280.24L185.96 281.01M185.96 281.01L185.03 281.47M185.03 281.47L183.99 281.57M183.99 281.57L182.99 281.28M182.99 281.28L182.16 280.66M182.16 280.66L181.61 279.77M181.61 279.77L181.42 278.75"
fill="none" stroke="black" stroke-width="2"/>
<path d="M279.95 249.6L280.65 248.83M280.65 248.83L281.03 247.86M281.03 247.86L281.03 246.82M281.03 246.82L280.66 245.85M280.66 245.85L279.96 245.07M279.96 245.07L279.02 244.61M279.02 244.61L277.98 244.51M277.98 244.51L276.98 244.8M276.98 244.8L276.15 245.42"
fill="none" stroke="black" stroke-width="2"/>
<path d="M275.02 247.69L275.21 246.67M275.21 246.67L275.76 245.78M275.76 245.78L276.59 245.15M276.59 245.15L277.59 244.87M277.59 244.87L278.63 244.96M278.63 244.96L279.56 245.43M279.56 245.43L280.26 246.2M280.26 246.2L280.64 247.17M280.64 247.17L280.64 248.21M280.64 248.21L280.26 249.18M280.26 249.18L279.56 249.95M279.56 249.95L278.63 250.42M278.63 250.42L277.59 250.51M277.59 250.51L276.59 250.23M276.59 250.23L275.76 249.6M275.76 249.6L275.21 248.72M275.21 248.72L275.02 247.69"
fill="none" stroke="black" stroke-width="2"/>
<path d="M314.24 254.83L314.95 254.06M314.95 254.06L315.33 253.09M315.33 253.09L315.33 252.04M315.33 252.04L314.95 251.07M314.95 251.07L314.25 250.3M314.25 250.3L313.32 249.83M313.32 249.83L312.28 249.74M312.28 249.74L311.28 250.02M311.28 250.02L310.45 250.65"
fill="none" stroke="black" stroke-width="2"/>
<path d="M309.31 252.92L309.5 251.89M309.5 251.89L310.05 251.01M310.05 251.01L310.88 250.38M310.88 250.38L311.89 250.1M311.89 250.1L312.92 250.19M312.92 250.19L313.86 250.66M313.86 250.66L314.56 251.43M314.56 251.43L314.93 252.4M314.93 252.4L314.93 253.44M314.93 253.44L314.56 254.41M314.56 254.41L313.86 255.18M313.86 255.18L312.92 255.64M312.92 255.64L311.89 255.74M311.89 255.74L310.88 255.46M310.88 255.46L310.05 254.83M310.05 254.83L309.5 253.94M309.5 253.94L309.31 252.92"
fill="none" stroke="black" stroke-width="2"/>
<path d="M385.41 257.78L386.11 257.01M386.11 257.01L386.49 256.04M386.49 256.04L386.49 254.99M386.49 254.99L386.12 254.02M386.12 254.02L385.42 253.25M385.42 253.25L384.49 252.78M384.49 252.78L383.45 252.69M383.45 252.69L382.44 252.97M382.44 252.97L381.61 253.6"
fill="none" stroke="black" stroke-width="2"/>
<path d="M380.48 255.87L380.67 254.84M380.67 254.84L381.22 253.96M381.22 253.96L382.05 253.33M382.05 253.33L383.05 253.05M383.05 253.05L384.09 253.14M384.09 253.14L385.02 253.61M385.02 253.61L385.72 254.38M385.72 254.38L386.1 255.35M386.1 255.35L386.1 256.39M386.1 256.39L385.72 257.36M385.72 257.36L385.02 258.13M385.02 258.13L384.09 258.59M384.09 258.59L383.05 258.69M383.05 258.69L382.05 258.41M382.05 258.41L381.22 257.78M381.22 257.78L380.67 256.89M380.67 256.89L380.48 255.87"
fill="none" stroke="black" stroke-width="2"/>
<path d="M456.73 254.3L457.43 253.53M457.43 253.53L457.81 252.56M457.81 252.56L457.81 251.51M457.81 251.51L457.44 250.54M457.44 250.54L456.74 249.77M456.74 249.77L455.8 249.3M455.8 249.3L454.77 249.21M454.77 249.21L453.76 249.49M453.76 249.49L452.93 250.12"
fill="none" stroke="black" stroke-width="2"/>
<path d="M451.8 252.39L451.99 251.36M451.99 251.36L452.54 250.48M452.54 250.48L453.37 249.85M453.37 249.85L454.37 249.56M454.37 249.56L455.41 249.66M455.41 249.66L456.34 250.12M456.34 250.12L457.04 250.89M457.04 250.89L457.42 251.87M457.42 251.87L457.42 252.91M457.42 252.91L457.04 253.88M457.04 253.88L456.34 254.65M456.34 254.65L455.41 255.11M455.41 255.11L454.37 255.21M454.37 255.21L453.37 254.92M453.37 254.92L452.54 254.3M452.54 254.3L451.99 253.41M451.99 253.41L451.8 252.39"
fill="none" stroke="black" stroke-width="2"/>
<path d="M519.9 289.31L520.6 288.54M520.6 288.54L520.98 287.57M520.98 287.57L520.99 286.53M520.99 286.53L520.61 285.55M520.61 285.55L519.91 284.78M519.91 284.78L518.98 284.32M518.98 284.32L517.94 284.22M517.94 284.22L516.93 284.5M516.93 284.5L516.1 285.13"
fill="none" stroke="black" stroke-width="2"/>
<path d="M514.97 287.4L515.16 286.38M515.16 286.38L515.71 285.49M515.71 285.49L516.54 284.86M516.54 284.86L517.54 284.58M517.54 284.58L518.58 284.67M518.58 284.67L519.51 285.14M519.51 285.14L520.21 285.91M520.21 285.91L520.59 286.88M520.59 286.88L520.59 287.92M520.59 287.92L520.21 288.89M520.21 288.89L519.51 289.66M519.51 289.66L518.58 290.13M518.58 290.13L517.54 290.22M517.54 290.22L516.54 289.94M516.54 289.94L515.71 289.31M515.71 289.31L515.16 288.42M515.16 288.42L514.97 287.4"
fill="none" stroke="black" stroke-width="2"/>
<path d="M640.87 211.94L641.57 211.17M641.57 211.17L641.95 210.2M641.95 210.2L641.95 209.15M641.95 209.15L641.58 208.18M641.58 208.18L640.88 207.41M640.88 207.41L639.94 206.94M639.94 206.94L638.91 206.85M638.91 206.85L637.9 207.13M637.9 207.13L637.07 207.76"
fill="none" stroke="black" stroke-width="2"/>
<path d="M635.94 210.03L636.13 209M636.13 209L636.68 208.12M636.68 208.12L637.51 207.49M637.51 207.49L638.51 207.2M638.51 207.2L639.55 207.3M639.55 207.3L640.48 207.76M640.48 207.76L641.18 208.53M641.18 208.53L641.56 209.51M641.56 209.51L641.56 210.55M641.56 210.55L641.18 211.52M641.18 211.52L640.48 212.29M640.48 212.29L639.55 212.75M639.55 212.75L638.51 212.85M638.51 212.85L637.51 212.56M637.51 212.56L636.68 211.94M636.68 211.94L636.13 211.05M636.13 211.05L635.94 210.03"
fill="none" stroke="black" stroke-width="2"/>
</svg>
