<?xml version="1.0" encoding="UTF-8"?>
<svg xmlns="http://www.w3.org/2000/svg" width="800.000" height="600.000" viewBox="0.0 0.0 800.000 600.000" version="1.1">
  <title>Produce by Acme CAD Converter</title>
  <desc>Produce by Acme CAD Converter</desc>
<path d="M4.31 81.25L4.31 518.75"
fill="none" stroke="RGB(237,31,36)" stroke-width="0"/>
<path d="M5.12 318.14L110.21 318.14"
fill="none" stroke="black" stroke-width="2"/>
<path d="M127.29 318.14L149.6 318.14"
fill="none" stroke="black" stroke-width="2"/>
<path d="M166.68 318.14L190.19 318.14"
fill="none" stroke="black" stroke-width="2"/>
<path d="M207.27 318.14L230.18 318.14"
fill="none" stroke="black" stroke-width="2"/>
<path d="M241.13 318.14L241.37 318.14"
fill="none" stroke="black" stroke-width="2"/>
<path d="M247.26 318.14L269.57 318.14"
fill="none" stroke="black" stroke-width="2"/>
<path d="M286.66 318.14L308.97 318.14"
fill="none" stroke="black" stroke-width="2"/>
<path d="M326.05 318.14L349.56 318.14"
fill="none" stroke="black" stroke-width="2"/>
<path d="M366.64 318.14L389.55 318.14"
fill="none" stroke="black" stroke-width="2"/>
<path d="M406.63 318.14L427.47 318.14"
fill="none" stroke="black" stroke-width="2"/>
<path d="M444.55 318.14L466.86 318.14"
fill="none" stroke="black" stroke-width="2"/>
<path d="M483.95 318.14L507.45 318.14"
fill="none" stroke="black" stroke-width="2"/>
<path d="M524.53 318.14L547.44 318.14"
fill="none" stroke="black" stroke-width="2"/>
<path d="M564.53 318.14L587.64 318.14"
fill="none" stroke="black" stroke-width="2"/>
<path d="M604.73 318.14L628.23 318.14"
fill="none" stroke="black" stroke-width="2"/>
<path d="M645.32 318.14L668.22 318.14"
fill="none" stroke="black" stroke-width="2"/>
<path d="M685.31 318.14L794.84 318.14"
fill="none" stroke="black" stroke-width="2"/>
<path d="M5.12 304.52L110.21 304.52"
fill="none" stroke="black" stroke-width="2"/>
<path d="M127.29 304.52L149.6 304.52"
fill="none" stroke="black" stroke-width="2"/>
<path d="M166.68 304.52L190.19 304.52"
fill="none" stroke="black" stroke-width="2"/>
<path d="M207.27 304.52L230.18 304.52"
fill="none" stroke="black" stroke-width="2"/>
<path d="M247.26 304.52L269.57 304.52"
fill="none" stroke="black" stroke-width="2"/>
<path d="M286.66 304.52L308.97 304.52"
fill="none" stroke="black" stroke-width="2"/>
<path d="M326.05 304.52L349.56 304.52"
fill="none" stroke="black" stroke-width="2"/>
<path d="M366.64 304.52L389.55 304.52"
fill="none" stroke="black" stroke-width="2"/>
<path d="M406.63 304.52L427.47 304.52"
fill="none" stroke="black" stroke-width="2"/>
<path d="M444.55 304.52L466.86 304.52"
fill="none" stroke="black" stroke-width="2"/>
<path d="M483.95 304.52L507.45 304.52"
fill="none" stroke="black" stroke-width="2"/>
<path d="M524.53 304.52L547.44 304.52"
fill="none" stroke="black" stroke-width="2"/>
<path d="M564.53 304.52L587.64 304.52"
fill="none" stroke="black" stroke-width="2"/>
<path d="M604.73 304.52L628.23 304.52"
fill="none" stroke="black" stroke-width="2"/>
<path d="M645.32 304.52L668.22 304.52"
fill="none" stroke="black" stroke-width="2"/>
<path d="M685.31 304.52L794.88 304.52"
fill="none" stroke="black" stroke-width="2"/>
<path d="M5.12 318.14L5.8 317.94M5.8 317.94L6.45 317.36M6.45 317.36L7.02 316.43M7.02 316.43L7.47 315.2M7.47 315.2L7.79 313.75M7.79 313.75L7.96 312.15M7.96 312.15L7.96 310.51M7.96 310.51L7.79 308.91M7.79 308.91L7.47 307.46M7.47 307.46L7.02 306.23M7.02 306.23L6.45 305.3M6.45 305.3L5.8 304.72M5.8 304.72L5.12 304.52M5.12 304.52L4.44 304.72M4.44 304.72L3.79 305.3M3.79 305.3L3.23 306.23M3.23 306.23L2.77 307.46M2.77 307.46L2.45 308.91M2.45 308.91L2.28 310.51M2.28 310.51L2.28 312.15M2.28 312.15L2.45 313.75M2.45 313.75L2.77 315.2M2.77 315.2L3.23 316.43M3.23 316.43L3.79 317.36M3.79 317.36L4.44 317.94M4.44 317.94L5.12 318.14"
fill="none" stroke="black" stroke-width="2"/>
<path d="M794.84 318.14L795.48 317.99M795.48 317.99L796.09 317.5M796.09 317.5L796.64 316.7M796.64 316.7L797.1 315.62M797.1 315.62L797.44 314.33M797.44 314.33L797.66 312.89M797.66 312.89L797.74 311.37M797.74 311.37L797.67 309.85M797.67 309.85L797.46 308.4M797.46 308.4L797.12 307.1M797.12 307.1L796.66 306.01M796.66 306.01L796.12 305.2M796.12 305.2L795.51 304.69M795.51 304.69L794.88 304.52"
fill="none" stroke="black" stroke-width="2"/>
<path d="M5.12 182.56L110.21 182.56"
fill="none" stroke="black" stroke-width="2"/>
<path d="M127.29 182.56L149.6 182.56"
fill="none" stroke="black" stroke-width="2"/>
<path d="M166.68 182.56L190.19 182.56"
fill="none" stroke="black" stroke-width="2"/>
<path d="M207.27 182.56L230.18 182.56"
fill="none" stroke="black" stroke-width="2"/>
<path d="M247.26 182.56L269.57 182.56"
fill="none" stroke="black" stroke-width="2"/>
<path d="M286.66 182.56L308.97 182.56"
fill="none" stroke="black" stroke-width="2"/>
<path d="M326.05 182.56L349.56 182.56"
fill="none" stroke="black" stroke-width="2"/>
<path d="M366.64 182.56L389.55 182.56"
fill="none" stroke="black" stroke-width="2"/>
<path d="M406.63 182.56L427.47 182.56"
fill="none" stroke="black" stroke-width="2"/>
<path d="M444.55 182.56L466.86 182.56"
fill="none" stroke="black" stroke-width="2"/>
<path d="M483.95 182.56L507.45 182.56"
fill="none" stroke="black" stroke-width="2"/>
<path d="M524.53 182.56L547.44 182.56"
fill="none" stroke="black" stroke-width="2"/>
<path d="M564.53 182.56L587.64 182.56"
fill="none" stroke="black" stroke-width="2"/>
<path d="M604.73 182.56L628.23 182.56"
fill="none" stroke="black" stroke-width="2"/>
<path d="M645.32 182.56L668.22 182.56"
fill="none" stroke="black" stroke-width="2"/>
<path d="M685.31 182.56L794.84 182.56"
fill="none" stroke="black" stroke-width="2"/>
<path d="M5.12 168.94L110.21 168.94"
fill="none" stroke="black" stroke-width="2"/>
<path d="M127.29 168.94L149.6 168.94"
fill="none" stroke="black" stroke-width="2"/>
<path d="M166.68 168.94L190.19 168.94"
fill="none" stroke="black" stroke-width="2"/>
<path d="M207.27 168.94L230.18 168.94"
fill="none" stroke="black" stroke-width="2"/>
<path d="M247.26 168.94L269.57 168.94"
fill="none" stroke="black" stroke-width="2"/>
<path d="M286.66 168.94L308.97 168.94"
fill="none" stroke="black" stroke-width="2"/>
<path d="M326.05 168.94L349.56 168.94"
fill="none" stroke="black" stroke-width="2"/>
<path d="M366.64 168.94L389.55 168.94"
fill="none" stroke="black" stroke-width="2"/>
<path d="M406.63 168.94L427.47 168.94"
fill="none" stroke="black" stroke-width="2"/>
<path d="M444.55 168.94L466.86 168.94"
fill="none" stroke="black" stroke-width="2"/>
<path d="M483.95 168.94L507.45 168.94"
fill="none" stroke="black" stroke-width="2"/>
<path d="M524.53 168.94L547.44 168.94"
fill="none" stroke="black" stroke-width="2"/>
<path d="M564.53 168.94L587.64 168.94"
fill="none" stroke="black" stroke-width="2"/>
<path d="M604.73 168.94L628.23 168.94"
fill="none" stroke="black" stroke-width="2"/>
<path d="M645.32 168.94L668.22 168.94"
fill="none" stroke="black" stroke-width="2"/>
<path d="M685.31 168.94L794.88 168.94"
fill="none" stroke="black" stroke-width="2"/>
<path d="M5.12 182.56L5.8 182.36M5.8 182.36L6.45 181.78M6.45 181.78L7.02 180.85M7.02 180.85L7.47 179.62M7.47 179.62L7.79 178.16M7.79 178.16L7.96 176.57M7.96 176.57L7.96 174.93M7.96 174.93L7.79 173.33M7.79 173.33L7.47 171.88M7.47 171.88L7.02 170.65M7.02 170.65L6.45 169.72M6.45 169.72L5.8 169.14M5.8 169.14L5.12 168.94M5.12 168.94L4.44 169.14M4.44 169.14L3.79 169.72M3.79 169.72L3.23 170.65M3.23 170.65L2.77 171.88M2.77 171.88L2.45 173.33M2.45 173.33L2.28 174.93M2.28 174.93L2.28 176.57M2.28 176.57L2.45 178.16M2.45 178.16L2.77 179.62M2.77 179.62L3.23 180.85M3.23 180.85L3.79 181.78M3.79 181.78L4.44 182.36M4.44 182.36L5.12 182.56"
fill="none" stroke="black" stroke-width="2"/>
<path d="M794.84 182.56L795.48 182.41M795.48 182.41L796.09 181.92M796.09 181.92L796.64 181.12M796.64 181.12L797.1 180.04M797.1 180.04L797.44 178.75M797.44 178.75L797.66 177.31M797.66 177.31L797.74 175.79M797.74 175.79L797.67 174.27M797.67 174.27L797.46 172.82M797.46 172.82L797.12 171.52M797.12 171.52L796.66 170.43M796.66 170.43L796.12 169.61M796.12 169.61L795.51 169.11M795.51 169.11L794.88 168.94"
fill="none" stroke="black" stroke-width="2"/>
<path d="M110.21 157.21L110.21 329.25"
fill="none" stroke="black" stroke-width="2"/>
<path d="M110.21 157.21L125.94 157.21"
fill="none" stroke="black" stroke-width="2"/>
<path d="M125.94 157.21L125.94 329.25"
fill="none" stroke="black" stroke-width="2"/>
<path d="M110.21 329.25L125.94 329.25"
fill="none" stroke="black" stroke-width="2"/>
<path d="M125.94 329.25L127.29 326.8"
fill="none" stroke="black" stroke-width="2"/>
<path d="M127.29 154.77L127.29 326.8"
fill="none" stroke="black" stroke-width="2"/>
<path d="M110.21 157.21L111.56 154.77"
fill="none" stroke="black" stroke-width="2"/>
<path d="M111.56 154.77L127.29 154.77"
fill="none" stroke="black" stroke-width="2"/>
<path d="M127.29 154.77L125.94 157.21"
fill="none" stroke="black" stroke-width="2"/>
<path d="M149.6 157.21L149.6 329.25"
fill="none" stroke="black" stroke-width="2"/>
<path d="M149.6 157.21L165.33 157.21"
fill="none" stroke="black" stroke-width="2"/>
<path d="M165.33 157.21L165.33 329.25"
fill="none" stroke="black" stroke-width="2"/>
<path d="M149.6 329.25L165.33 329.25"
fill="none" stroke="black" stroke-width="2"/>
<path d="M165.33 329.25L166.68 326.8"
fill="none" stroke="black" stroke-width="2"/>
<path d="M166.68 154.77L166.68 326.8"
fill="none" stroke="black" stroke-width="2"/>
<path d="M149.6 157.21L150.95 154.77"
fill="none" stroke="black" stroke-width="2"/>
<path d="M150.95 154.77L166.68 154.77"
fill="none" stroke="black" stroke-width="2"/>
<path d="M166.68 154.77L165.33 157.21"
fill="none" stroke="black" stroke-width="2"/>
<path d="M190.19 157.21L190.19 329.25"
fill="none" stroke="black" stroke-width="2"/>
<path d="M190.19 157.21L205.92 157.21"
fill="none" stroke="black" stroke-width="2"/>
<path d="M205.92 157.21L205.92 329.25"
fill="none" stroke="black" stroke-width="2"/>
<path d="M190.19 329.25L205.92 329.25"
fill="none" stroke="black" stroke-width="2"/>
<path d="M205.92 329.25L207.27 326.8"
fill="none" stroke="black" stroke-width="2"/>
<path d="M207.27 154.77L207.27 326.8"
fill="none" stroke="black" stroke-width="2"/>
<path d="M190.19 157.21L191.54 154.77"
fill="none" stroke="black" stroke-width="2"/>
<path d="M191.54 154.77L207.27 154.77"
fill="none" stroke="black" stroke-width="2"/>
<path d="M207.27 154.77L205.92 157.21"
fill="none" stroke="black" stroke-width="2"/>
<path d="M230.18 157.21L230.18 329.25"
fill="none" stroke="black" stroke-width="2"/>
<path d="M230.18 157.21L245.91 157.21"
fill="none" stroke="black" stroke-width="2"/>
<path d="M245.91 157.21L245.91 329.25"
fill="none" stroke="black" stroke-width="2"/>
<path d="M230.18 329.25L245.91 329.25"
fill="none" stroke="black" stroke-width="2"/>
<path d="M245.91 329.25L247.26 326.8"
fill="none" stroke="black" stroke-width="2"/>
<path d="M247.26 154.77L247.26 326.8"
fill="none" stroke="black" stroke-width="2"/>
<path d="M230.18 157.21L231.53 154.77"
fill="none" stroke="black" stroke-width="2"/>
<path d="M231.53 154.77L247.26 154.77"
fill="none" stroke="black" stroke-width="2"/>
<path d="M247.26 154.77L245.91 157.21"
fill="none" stroke="black" stroke-width="2"/>
<path d="M269.57 157.21L269.57 329.25"
fill="none" stroke="black" stroke-width="2"/>
<path d="M269.57 157.21L285.31 157.21"
fill="none" stroke="black" stroke-width="2"/>
<path d="M285.31 157.21L285.31 329.25"
fill="none" stroke="black" stroke-width="2"/>
<path d="M269.57 329.25L285.31 329.25"
fill="none" stroke="black" stroke-width="2"/>
<path d="M285.31 329.25L286.66 326.8"
fill="none" stroke="black" stroke-width="2"/>
<path d="M286.66 154.77L286.66 326.8"
fill="none" stroke="black" stroke-width="2"/>
<path d="M269.57 157.21L270.93 154.77"
fill="none" stroke="black" stroke-width="2"/>
<path d="M270.93 154.77L286.66 154.77"
fill="none" stroke="black" stroke-width="2"/>
<path d="M286.66 154.77L285.31 157.21"
fill="none" stroke="black" stroke-width="2"/>
<path d="M308.97 157.21L308.97 329.25"
fill="none" stroke="black" stroke-width="2"/>
<path d="M308.97 157.21L324.7 157.21"
fill="none" stroke="black" stroke-width="2"/>
<path d="M324.7 157.21L324.7 329.25"
fill="none" stroke="black" stroke-width="2"/>
<path d="M308.97 329.25L324.7 329.25"
fill="none" stroke="black" stroke-width="2"/>
<path d="M324.7 329.25L326.05 326.8"
fill="none" stroke="black" stroke-width="2"/>
<path d="M326.05 154.77L326.05 326.8"
fill="none" stroke="black" stroke-width="2"/>
<path d="M308.97 157.21L310.32 154.77"
fill="none" stroke="black" stroke-width="2"/>
<path d="M310.32 154.77L326.05 154.77"
fill="none" stroke="black" stroke-width="2"/>
<path d="M326.05 154.77L324.7 157.21"
fill="none" stroke="black" stroke-width="2"/>
<path d="M349.56 157.21L349.56 329.25"
fill="none" stroke="black" stroke-width="2"/>
<path d="M349.56 157.21L365.29 157.21"
fill="none" stroke="black" stroke-width="2"/>
<path d="M365.29 157.21L365.29 329.25"
fill="none" stroke="black" stroke-width="2"/>
<path d="M349.56 329.25L365.29 329.25"
fill="none" stroke="black" stroke-width="2"/>
<path d="M365.29 329.25L366.64 326.8"
fill="none" stroke="black" stroke-width="2"/>
<path d="M366.64 154.77L366.64 326.8"
fill="none" stroke="black" stroke-width="2"/>
<path d="M349.56 157.21L350.91 154.77"
fill="none" stroke="black" stroke-width="2"/>
<path d="M350.91 154.77L366.64 154.77"
fill="none" stroke="black" stroke-width="2"/>
<path d="M366.64 154.77L365.29 157.21"
fill="none" stroke="black" stroke-width="2"/>
<path d="M389.55 157.21L389.55 329.25"
fill="none" stroke="black" stroke-width="2"/>
<path d="M389.55 157.21L405.28 157.21"
fill="none" stroke="black" stroke-width="2"/>
<path d="M405.28 157.21L405.28 329.25"
fill="none" stroke="black" stroke-width="2"/>
<path d="M389.55 329.25L405.28 329.25"
fill="none" stroke="black" stroke-width="2"/>
<path d="M405.28 329.25L406.63 326.8"
fill="none" stroke="black" stroke-width="2"/>
<path d="M406.63 154.77L406.63 326.8"
fill="none" stroke="black" stroke-width="2"/>
<path d="M389.55 157.21L390.9 154.77"
fill="none" stroke="black" stroke-width="2"/>
<path d="M390.9 154.77L406.63 154.77"
fill="none" stroke="black" stroke-width="2"/>
<path d="M406.63 154.77L405.28 157.21"
fill="none" stroke="black" stroke-width="2"/>
<path d="M427.47 157.21L427.47 329.25"
fill="none" stroke="black" stroke-width="2"/>
<path d="M427.47 157.21L443.2 157.21"
fill="none" stroke="black" stroke-width="2"/>
<path d="M443.2 157.21L443.2 329.25"
fill="none" stroke="black" stroke-width="2"/>
<path d="M427.47 329.25L443.2 329.25"
fill="none" stroke="black" stroke-width="2"/>
<path d="M443.2 329.25L444.55 326.8"
fill="none" stroke="black" stroke-width="2"/>
<path d="M444.55 154.77L444.55 326.8"
fill="none" stroke="black" stroke-width="2"/>
<path d="M427.47 157.21L428.82 154.77"
fill="none" stroke="black" stroke-width="2"/>
<path d="M428.82 154.77L444.55 154.77"
fill="none" stroke="black" stroke-width="2"/>
<path d="M444.55 154.77L443.2 157.21"
fill="none" stroke="black" stroke-width="2"/>
<path d="M466.86 157.21L466.86 329.25"
fill="none" stroke="black" stroke-width="2"/>
<path d="M466.86 157.21L482.59 157.21"
fill="none" stroke="black" stroke-width="2"/>
<path d="M482.59 157.21L482.59 329.25"
fill="none" stroke="black" stroke-width="2"/>
<path d="M466.86 329.25L482.59 329.25"
fill="none" stroke="black" stroke-width="2"/>
<path d="M482.59 329.25L483.95 326.8"
fill="none" stroke="black" stroke-width="2"/>
<path d="M483.95 154.77L483.95 326.8"
fill="none" stroke="black" stroke-width="2"/>
<path d="M466.86 157.21L468.22 154.77"
fill="none" stroke="black" stroke-width="2"/>
<path d="M468.22 154.77L483.95 154.77"
fill="none" stroke="black" stroke-width="2"/>
<path d="M483.95 154.77L482.59 157.21"
fill="none" stroke="black" stroke-width="2"/>
<path d="M507.45 157.21L507.45 329.25"
fill="none" stroke="black" stroke-width="2"/>
<path d="M507.45 157.21L523.18 157.21"
fill="none" stroke="black" stroke-width="2"/>
<path d="M523.18 157.21L523.18 329.25"
fill="none" stroke="black" stroke-width="2"/>
<path d="M507.45 329.25L523.18 329.25"
fill="none" stroke="black" stroke-width="2"/>
<path d="M523.18 329.25L524.53 326.8"
fill="none" stroke="black" stroke-width="2"/>
<path d="M524.53 154.77L524.53 326.8"
fill="none" stroke="black" stroke-width="2"/>
<path d="M507.45 157.21L508.8 154.77"
fill="none" stroke="black" stroke-width="2"/>
<path d="M508.8 154.77L524.53 154.77"
fill="none" stroke="black" stroke-width="2"/>
<path d="M524.53 154.77L523.18 157.21"
fill="none" stroke="black" stroke-width="2"/>
<path d="M547.44 157.21L547.44 329.25"
fill="none" stroke="black" stroke-width="2"/>
<path d="M547.44 157.21L563.17 157.21"
fill="none" stroke="black" stroke-width="2"/>
<path d="M563.17 157.21L563.17 329.25"
fill="none" stroke="black" stroke-width="2"/>
<path d="M547.44 329.25L563.17 329.25"
fill="none" stroke="black" stroke-width="2"/>
<path d="M563.17 329.25L564.53 326.8"
fill="none" stroke="black" stroke-width="2"/>
<path d="M564.53 154.77L564.53 326.8"
fill="none" stroke="black" stroke-width="2"/>
<path d="M547.44 157.21L548.8 154.77"
fill="none" stroke="black" stroke-width="2"/>
<path d="M548.8 154.77L564.53 154.77"
fill="none" stroke="black" stroke-width="2"/>
<path d="M564.53 154.77L563.17 157.21"
fill="none" stroke="black" stroke-width="2"/>
<path d="M587.64 157.21L587.64 329.25"
fill="none" stroke="black" stroke-width="2"/>
<path d="M587.64 157.21L603.37 157.21"
fill="none" stroke="black" stroke-width="2"/>
<path d="M603.37 157.21L603.37 329.25"
fill="none" stroke="black" stroke-width="2"/>
<path d="M587.64 329.25L603.37 329.25"
fill="none" stroke="black" stroke-width="2"/>
<path d="M603.37 329.25L604.73 326.8"
fill="none" stroke="black" stroke-width="2"/>
<path d="M604.73 154.77L604.73 326.8"
fill="none" stroke="black" stroke-width="2"/>
<path d="M587.64 157.21L589 154.77"
fill="none" stroke="black" stroke-width="2"/>
<path d="M589 154.77L604.73 154.77"
fill="none" stroke="black" stroke-width="2"/>
<path d="M604.73 154.77L603.37 157.21"
fill="none" stroke="black" stroke-width="2"/>
<path d="M628.23 157.21L628.23 329.25"
fill="none" stroke="black" stroke-width="2"/>
<path d="M628.23 157.21L643.96 157.21"
fill="none" stroke="black" stroke-width="2"/>
<path d="M643.96 157.21L643.96 329.25"
fill="none" stroke="black" stroke-width="2"/>
<path d="M628.23 329.25L643.96 329.25"
fill="none" stroke="black" stroke-width="2"/>
<path d="M643.96 329.25L645.32 326.8"
fill="none" stroke="black" stroke-width="2"/>
<path d="M645.32 154.77L645.32 326.8"
fill="none" stroke="black" stroke-width="2"/>
<path d="M628.23 157.21L629.58 154.77"
fill="none" stroke="black" stroke-width="2"/>
<path d="M629.58 154.77L645.32 154.77"
fill="none" stroke="black" stroke-width="2"/>
<path d="M645.32 154.77L643.96 157.21"
fill="none" stroke="black" stroke-width="2"/>
<path d="M668.22 157.21L668.22 329.25"
fill="none" stroke="black" stroke-width="2"/>
<path d="M668.22 157.21L683.95 157.21"
fill="none" stroke="black" stroke-width="2"/>
<path d="M683.95 157.21L683.95 329.25"
fill="none" stroke="black" stroke-width="2"/>
<path d="M668.22 329.25L683.95 329.25"
fill="none" stroke="black" stroke-width="2"/>
<path d="M683.95 329.25L685.31 326.8"
fill="none" stroke="black" stroke-width="2"/>
<path d="M685.31 154.77L685.31 326.8"
fill="none" stroke="black" stroke-width="2"/>
<path d="M668.22 157.21L669.58 154.77"
fill="none" stroke="black" stroke-width="2"/>
<path d="M669.58 154.77L685.31 154.77"
fill="none" stroke="black" stroke-width="2"/>
<path d="M685.31 154.77L683.95 157.21"
fill="none" stroke="black" stroke-width="2"/>
<path d="M119.71 233.18L120.61 232.29M120.61 232.29L121.22 231.19M121.22 231.19L121.51 229.96M121.51 229.96L121.46 228.7M121.46 228.7L121.06 227.5M121.06 227.5L120.35 226.46M120.35 226.46L119.38 225.65M119.38 225.65L118.22 225.14M118.22 225.14L116.97 224.96M116.97 224.96L115.72 225.14M115.72 225.14L114.57 225.65M114.57 225.65L113.6 226.45"
fill="none" stroke="black" stroke-width="2"/>
<path d="M111.78 230.1L111.96 228.82M111.96 228.82L112.5 227.64M112.5 227.64L113.35 226.66M113.35 226.66L114.44 225.95M114.44 225.95L115.69 225.59M115.69 225.59L116.99 225.59M116.99 225.59L118.23 225.95M118.23 225.95L119.33 226.66M119.33 226.66L120.18 227.64M120.18 227.64L120.72 228.82M120.72 228.82L120.9 230.1M120.9 230.1L120.72 231.39M120.72 231.39L120.18 232.57M120.18 232.57L119.33 233.55M119.33 233.55L118.23 234.25M118.23 234.25L116.99 234.62M116.99 234.62L115.69 234.62M115.69 234.62L114.44 234.25M114.44 234.25L113.35 233.55M113.35 233.55L112.5 232.57M112.5 232.57L111.96 231.39M111.96 231.39L111.78 230.1"
fill="none" stroke="black" stroke-width="2"/>
<path d="M119.24 314.91L120.13 314.02M120.13 314.02L120.75 312.92M120.75 312.92L121.04 311.69M121.04 311.69L120.98 310.43M120.98 310.43L120.59 309.24M120.59 309.24L119.87 308.19M119.87 308.19L118.9 307.39M118.9 307.39L117.75 306.88M117.75 306.88L116.5 306.7M116.5 306.7L115.25 306.87M115.25 306.87L114.1 307.38M114.1 307.38L113.13 308.19"
fill="none" stroke="black" stroke-width="2"/>
<path d="M111.3 311.84L111.49 310.55M111.49 310.55L112.03 309.37M112.03 309.37L112.88 308.39M112.88 308.39L113.97 307.69M113.97 307.69L115.21 307.32M115.21 307.32L116.51 307.32M116.51 307.32L117.76 307.69M117.76 307.69L118.85 308.39M118.85 308.39L119.7 309.37M119.7 309.37L120.24 310.55M120.24 310.55L120.43 311.84M120.43 311.84L120.24 313.12M120.24 313.12L119.7 314.3M119.7 314.3L118.85 315.29M118.85 315.29L117.76 315.99M117.76 315.99L116.51 316.35M116.51 316.35L115.21 316.35M115.21 316.35L113.97 315.99M113.97 315.99L112.88 315.29M112.88 315.29L112.03 314.3M112.03 314.3L111.49 313.12M111.49 313.12L111.3 311.84"
fill="none" stroke="black" stroke-width="2"/>
<path d="M122.98 281.83L123.68 281.07M123.68 281.07L124.06 280.1M124.06 280.1L124.06 279.06M124.06 279.06L123.69 278.09M123.69 278.09L122.99 277.33M122.99 277.33L122.06 276.86M122.06 276.86L121.03 276.77M121.03 276.77L120.03 277.05M120.03 277.05L119.2 277.67"
fill="none" stroke="black" stroke-width="2"/>
<path d="M118.07 279.93L118.26 278.91M118.26 278.91L118.81 278.03M118.81 278.03L119.64 277.41M119.64 277.41L120.63 277.12M120.63 277.12L121.67 277.22M121.67 277.22L122.6 277.68M122.6 277.68L123.3 278.45M123.3 278.45L123.67 279.41M123.67 279.41L123.67 280.45M123.67 280.45L123.3 281.42M123.3 281.42L122.6 282.19M122.6 282.19L121.67 282.65M121.67 282.65L120.63 282.74M120.63 282.74L119.64 282.46M119.64 282.46L118.81 281.83M118.81 281.83L118.26 280.95M118.26 280.95L118.07 279.93"
fill="none" stroke="black" stroke-width="2"/>
<path d="M160.42 217.75L161.32 216.86M161.32 216.86L161.93 215.76M161.93 215.76L162.23 214.53M162.23 214.53L162.17 213.27M162.17 213.27L161.77 212.07M161.77 212.07L161.06 211.03M161.06 211.03L160.09 210.23M160.09 210.23L158.94 209.71M158.94 209.71L157.69 209.54M157.69 209.54L156.44 209.71M156.44 209.71L155.28 210.22M155.28 210.22L154.31 211.03"
fill="none" stroke="black" stroke-width="2"/>
<path d="M152.49 214.68L152.67 213.39M152.67 213.39L153.21 212.21M153.21 212.21L154.06 211.23M154.06 211.23L155.15 210.53M155.15 210.53L156.4 210.16M156.4 210.16L157.7 210.16M157.7 210.16L158.95 210.53M158.95 210.53L160.04 211.23M160.04 211.23L160.89 212.21M160.89 212.21L161.43 213.39M161.43 213.39L161.61 214.68M161.61 214.68L161.43 215.96M161.43 215.96L160.89 217.14M160.89 217.14L160.04 218.13M160.04 218.13L158.95 218.83M158.95 218.83L157.7 219.19M157.7 219.19L156.4 219.19M156.4 219.19L155.15 218.83M155.15 218.83L154.06 218.13M154.06 218.13L153.21 217.14M153.21 217.14L152.67 215.96M152.67 215.96L152.49 214.68"
fill="none" stroke="black" stroke-width="2"/>
<path d="M160.04 301.74L160.94 300.85M160.94 300.85L161.55 299.74M161.55 299.74L161.85 298.52M161.85 298.52L161.79 297.26M161.79 297.26L161.39 296.06M161.39 296.06L160.68 295.02M160.68 295.02L159.71 294.21M159.71 294.21L158.56 293.7M158.56 293.7L157.31 293.52M157.31 293.52L156.06 293.7M156.06 293.7L154.9 294.21M154.9 294.21L153.93 295.01"
fill="none" stroke="black" stroke-width="2"/>
<path d="M152.11 298.66L152.29 297.38M152.29 297.38L152.83 296.2M152.83 296.2L153.68 295.21M153.68 295.21L154.77 294.51M154.77 294.51L156.02 294.15M156.02 294.15L157.32 294.15M157.32 294.15L158.57 294.51M158.57 294.51L159.66 295.21M159.66 295.21L160.51 296.2M160.51 296.2L161.05 297.38M161.05 297.38L161.23 298.66M161.23 298.66L161.05 299.95M161.05 299.95L160.51 301.13M160.51 301.13L159.66 302.11M159.66 302.11L158.57 302.81M158.57 302.81L157.32 303.18M157.32 303.18L156.02 303.18M156.02 303.18L154.77 302.81M154.77 302.81L153.68 302.11M153.68 302.11L152.83 301.13M152.83 301.13L152.29 299.95M152.29 299.95L152.11 298.66"
fill="none" stroke="black" stroke-width="2"/>
<path d="M200.4 258.11L201.29 257.22M201.29 257.22L201.91 256.12M201.91 256.12L202.2 254.89M202.2 254.89L202.15 253.63M202.15 253.63L201.75 252.43M201.75 252.43L201.04 251.39M201.04 251.39L200.07 250.58M200.07 250.58L198.91 250.07M198.91 250.07L197.66 249.9M197.66 249.9L196.41 250.07M196.41 250.07L195.26 250.58M195.26 250.58L194.29 251.39"
fill="none" stroke="black" stroke-width="2"/>
<path d="M192.46 255.03L192.65 253.75M192.65 253.75L193.19 252.57M193.19 252.57L194.04 251.59M194.04 251.59L195.13 250.88M195.13 250.88L196.38 250.52M196.38 250.52L197.67 250.52M197.67 250.52L198.92 250.88M198.92 250.88L200.01 251.59M200.01 251.59L200.86 252.57M200.86 252.57L201.4 253.75M201.4 253.75L201.59 255.03M201.59 255.03L201.4 256.32M201.4 256.32L200.86 257.5M200.86 257.5L200.01 258.48M200.01 258.48L198.92 259.18M198.92 259.18L197.67 259.55M197.67 259.55L196.38 259.55M196.38 259.55L195.13 259.18M195.13 259.18L194.04 258.48M194.04 258.48L193.19 257.5M193.19 257.5L192.65 256.32M192.65 256.32L192.46 255.03"
fill="none" stroke="black" stroke-width="2"/>
<path d="M201.01 314.06L201.9 313.17M201.9 313.17L202.52 312.07M202.52 312.07L202.81 310.84M202.81 310.84L202.75 309.58M202.75 309.58L202.35 308.38M202.35 308.38L201.64 307.34M201.64 307.34L200.67 306.53M200.67 306.53L199.52 306.02M199.52 306.02L198.27 305.85M198.27 305.85L197.02 306.02M197.02 306.02L195.86 306.53M195.86 306.53L194.89 307.34"
fill="none" stroke="black" stroke-width="2"/>
<path d="M193.07 310.98L193.25 309.7M193.25 309.7L193.79 308.52M193.79 308.52L194.64 307.54M194.64 307.54L195.74 306.83M195.74 306.83L196.98 306.47M196.98 306.47L198.28 306.47M198.28 306.47L199.53 306.83M199.53 306.83L200.62 307.54M200.62 307.54L201.47 308.52M201.47 308.52L202.01 309.7M202.01 309.7L202.2 310.98M202.2 310.98L202.01 312.27M202.01 312.27L201.47 313.45M201.47 313.45L200.62 314.43M200.62 314.43L199.53 315.13M199.53 315.13L198.28 315.5M198.28 315.5L196.98 315.5M196.98 315.5L195.74 315.13M195.74 315.13L194.64 314.43M194.64 314.43L193.79 313.45M193.79 313.45L193.25 312.27M193.25 312.27L193.07 310.98"
fill="none" stroke="black" stroke-width="2"/>
<path d="M240.56 206.41L241.45 205.52M241.45 205.52L242.07 204.42M242.07 204.42L242.36 203.2M242.36 203.2L242.31 201.94M242.31 201.94L241.91 200.74M241.91 200.74L241.2 199.7M241.2 199.7L240.23 198.89M240.23 198.89L239.07 198.38M239.07 198.38L237.82 198.2M237.82 198.2L236.57 198.38M236.57 198.38L235.42 198.89M235.42 198.89L234.45 199.69"
fill="none" stroke="black" stroke-width="2"/>
<path d="M232.62 203.34L232.81 202.06M232.81 202.06L233.35 200.87M233.35 200.87L234.2 199.89M234.2 199.89L235.29 199.19M235.29 199.19L236.54 198.82M236.54 198.82L237.84 198.82M237.84 198.82L239.08 199.19M239.08 199.19L240.18 199.89M240.18 199.89L241.03 200.87M241.03 200.87L241.57 202.06M241.57 202.06L241.75 203.34M241.75 203.34L241.57 204.63M241.57 204.63L241.03 205.81M241.03 205.81L240.18 206.79M240.18 206.79L239.08 207.49M239.08 207.49L237.84 207.86M237.84 207.86L236.54 207.86M236.54 207.86L235.29 207.49M235.29 207.49L234.2 206.79M234.2 206.79L233.35 205.81M233.35 205.81L232.81 204.63M232.81 204.63L232.62 203.34"
fill="none" stroke="black" stroke-width="2"/>
<path d="M241.17 262.36L242.06 261.47M242.06 261.47L242.68 260.37M242.68 260.37L242.97 259.15M242.97 259.15L242.92 257.89M242.92 257.89L242.52 256.69M242.52 256.69L241.81 255.65M241.81 255.65L240.84 254.84M240.84 254.84L239.68 254.33M239.68 254.33L238.43 254.15M238.43 254.15L237.18 254.33M237.18 254.33L236.03 254.84M236.03 254.84L235.06 255.64"
fill="none" stroke="black" stroke-width="2"/>
<path d="M233.23 259.29L233.42 258.01M233.42 258.01L233.96 256.82M233.96 256.82L234.81 255.84M234.81 255.84L235.9 255.14M235.9 255.14L237.15 254.78M237.15 254.78L238.45 254.78M238.45 254.78L239.69 255.14M239.69 255.14L240.78 255.84M240.78 255.84L241.63 256.82M241.63 256.82L242.17 258.01M242.17 258.01L242.36 259.29M242.36 259.29L242.17 260.58M242.17 260.58L241.63 261.76M241.63 261.76L240.78 262.74M240.78 262.74L239.69 263.44M239.69 263.44L238.45 263.81M238.45 263.81L237.15 263.81M237.15 263.81L235.9 263.44M235.9 263.44L234.81 262.74M234.81 262.74L233.96 261.76M233.96 261.76L233.42 260.58M233.42 260.58L233.23 259.29"
fill="none" stroke="black" stroke-width="2"/>
<path d="M240.56 318.92L241.45 318.03M241.45 318.03L242.07 316.93M242.07 316.93L242.36 315.71M242.36 315.71L242.31 314.44M242.31 314.44L241.91 313.25M241.91 313.25L241.2 312.21M241.2 312.21L240.23 311.4M240.23 311.4L239.07 310.89M239.07 310.89L237.82 310.71M237.82 310.71L236.57 310.89M236.57 310.89L235.42 311.4M235.42 311.4L234.45 312.2"
fill="none" stroke="black" stroke-width="2"/>
<path d="M232.62 315.85L232.81 314.56M232.81 314.56L233.35 313.38M233.35 313.38L234.2 312.4M234.2 312.4L235.29 311.7M235.29 311.7L236.54 311.33M236.54 311.33L237.84 311.33M237.84 311.33L239.08 311.7M239.08 311.7L240.18 312.4M240.18 312.4L241.03 313.38M241.03 313.38L241.57 314.56M241.57 314.56L241.75 315.85M241.75 315.85L241.57 317.14M241.57 317.14L241.03 318.32M241.03 318.32L240.18 319.3M240.18 319.3L239.08 320M239.08 320L237.84 320.37M237.84 320.37L236.54 320.37M236.54 320.37L235.29 320M235.29 320L234.2 319.3M234.2 319.3L233.35 318.32M233.35 318.32L232.81 317.14M232.81 317.14L232.62 315.85"
fill="none" stroke="black" stroke-width="2"/>
<path d="M279.5 230.13L280.4 229.24M280.4 229.24L281.02 228.14M281.02 228.14L281.31 226.91M281.31 226.91L281.25 225.65M281.25 225.65L280.85 224.46M280.85 224.46L280.14 223.41M280.14 223.41L279.17 222.61M279.17 222.61L278.02 222.1M278.02 222.1L276.77 221.92M276.77 221.92L275.52 222.09M275.52 222.09L274.36 222.6M274.36 222.6L273.39 223.41"
fill="none" stroke="black" stroke-width="2"/>
<path d="M271.57 227.06L271.75 225.77M271.75 225.77L272.29 224.59M272.29 224.59L273.14 223.61M273.14 223.61L274.24 222.91M274.24 222.91L275.48 222.54M275.48 222.54L276.78 222.54M276.78 222.54L278.03 222.91M278.03 222.91L279.12 223.61M279.12 223.61L279.97 224.59M279.97 224.59L280.51 225.77M280.51 225.77L280.7 227.06M280.7 227.06L280.51 228.34M280.51 228.34L279.97 229.53M279.97 229.53L279.12 230.51M279.12 230.51L278.03 231.21M278.03 231.21L276.78 231.58M276.78 231.58L275.48 231.58M275.48 231.58L274.24 231.21M274.24 231.21L273.14 230.51M273.14 230.51L272.29 229.53M272.29 229.53L271.75 228.34M271.75 228.34L271.57 227.06"
fill="none" stroke="black" stroke-width="2"/>
<path d="M319.06 289.73L319.95 288.84M319.95 288.84L320.57 287.74M320.57 287.74L320.86 286.51M320.86 286.51L320.81 285.25M320.81 285.25L320.41 284.06M320.41 284.06L319.7 283.01M319.7 283.01L318.73 282.21M318.73 282.21L317.57 281.7M317.57 281.7L316.32 281.52M316.32 281.52L315.07 281.69M315.07 281.69L313.92 282.2M313.92 282.2L312.95 283.01"
fill="none" stroke="black" stroke-width="2"/>
<path d="M311.12 286.66L311.31 285.37M311.31 285.37L311.85 284.19M311.85 284.19L312.7 283.21M312.7 283.21L313.79 282.51M313.79 282.51L315.04 282.14M315.04 282.14L316.34 282.14M316.34 282.14L317.58 282.51M317.58 282.51L318.67 283.21M318.67 283.21L319.53 284.19M319.53 284.19L320.06 285.37M320.06 285.37L320.25 286.66M320.25 286.66L320.06 287.94M320.06 287.94L319.53 289.13M319.53 289.13L318.67 290.11M318.67 290.11L317.58 290.81M317.58 290.81L316.34 291.17M316.34 291.17L315.04 291.17M315.04 291.17L313.79 290.81M313.79 290.81L312.7 290.11M312.7 290.11L311.85 289.13M311.85 289.13L311.31 287.94M311.31 287.94L311.12 286.66"
fill="none" stroke="black" stroke-width="2"/>
<path d="M359.83 224.66L360.72 223.77M360.72 223.77L361.34 222.67M361.34 222.67L361.63 221.44M361.63 221.44L361.58 220.18M361.58 220.18L361.18 218.98M361.18 218.98L360.47 217.94M360.47 217.94L359.5 217.13M359.5 217.13L358.34 216.62M358.34 216.62L357.09 216.45M357.09 216.45L355.84 216.62M355.84 216.62L354.69 217.13M354.69 217.13L353.72 217.94"
fill="none" stroke="black" stroke-width="2"/>
<path d="M351.89 221.59L352.08 220.3M352.08 220.3L352.62 219.12M352.62 219.12L353.47 218.14M353.47 218.14L354.56 217.44M354.56 217.44L355.81 217.07M355.81 217.07L357.11 217.07M357.11 217.07L358.35 217.44M358.35 217.44L359.45 218.14M359.45 218.14L360.3 219.12M360.3 219.12L360.84 220.3M360.84 220.3L361.02 221.59M361.02 221.59L360.84 222.87M360.84 222.87L360.3 224.05M360.3 224.05L359.45 225.03M359.45 225.03L358.35 225.74M358.35 225.74L357.11 226.1M357.11 226.1L355.81 226.1M355.81 226.1L354.56 225.74M354.56 225.74L353.47 225.03M353.47 225.03L352.62 224.05M352.62 224.05L352.08 222.87M352.08 222.87L351.89 221.59"
fill="none" stroke="black" stroke-width="2"/>
<path d="M359.83 273.31L360.72 272.42M360.72 272.42L361.34 271.32M361.34 271.32L361.63 270.09M361.63 270.09L361.58 268.83M361.58 268.83L361.18 267.64M361.18 267.64L360.47 266.59M360.47 266.59L359.5 265.79M359.5 265.79L358.34 265.28M358.34 265.28L357.09 265.1M357.09 265.1L355.84 265.27M355.84 265.27L354.69 265.78M354.69 265.78L353.72 266.59"
fill="none" stroke="black" stroke-width="2"/>
<path d="M351.89 270.24L352.08 268.95M352.08 268.95L352.62 267.77M352.62 267.77L353.47 266.79M353.47 266.79L354.56 266.09M354.56 266.09L355.81 265.72M355.81 265.72L357.11 265.72M357.11 265.72L358.35 266.09M358.35 266.09L359.45 266.79M359.45 266.79L360.3 267.77M360.3 267.77L360.84 268.95M360.84 268.95L361.02 270.24M361.02 270.24L360.84 271.52M360.84 271.52L360.3 272.7M360.3 272.7L359.45 273.69M359.45 273.69L358.35 274.39M358.35 274.39L357.11 274.75M357.11 274.75L355.81 274.75M355.81 274.75L354.56 274.39M354.56 274.39L353.47 273.69M353.47 273.69L352.62 272.7M352.62 272.7L352.08 271.52M352.08 271.52L351.89 270.24"
fill="none" stroke="black" stroke-width="2"/>
<path d="M399.38 317.1L400.28 316.21M400.28 316.21L400.9 315.11M400.9 315.11L401.19 313.88M401.19 313.88L401.13 312.62M401.13 312.62L400.73 311.42M400.73 311.42L400.02 310.38M400.02 310.38L399.05 309.57M399.05 309.57L397.9 309.06M397.9 309.06L396.65 308.89M396.65 308.89L395.4 309.06M395.4 309.06L394.24 309.57M394.24 309.57L393.27 310.38"
fill="none" stroke="black" stroke-width="2"/>
<path d="M391.45 314.03L391.63 312.74M391.63 312.74L392.17 311.56M392.17 311.56L393.02 310.58M393.02 310.58L394.12 309.88M394.12 309.88L395.36 309.51M395.36 309.51L396.66 309.51M396.66 309.51L397.91 309.88M397.91 309.88L399 310.58M399 310.58L399.85 311.56M399.85 311.56L400.39 312.74M400.39 312.74L400.57 314.03M400.57 314.03L400.39 315.31M400.39 315.31L399.85 316.49M399.85 316.49L399 317.47M399 317.47L397.91 318.18M397.91 318.18L396.66 318.54M396.66 318.54L395.36 318.54M395.36 318.54L394.12 318.18M394.12 318.18L393.02 317.47M393.02 317.47L392.17 316.49M392.17 316.49L391.63 315.31M391.63 315.31L391.45 314.03"
fill="none" stroke="black" stroke-width="2"/>
<path d="M399.38 248.99L400.28 248.1M400.28 248.1L400.9 247M400.9 247L401.19 245.77M401.19 245.77L401.13 244.51M401.13 244.51L400.73 243.31M400.73 243.31L400.02 242.27M400.02 242.27L399.05 241.46M399.05 241.46L397.9 240.95M397.9 240.95L396.65 240.77M396.65 240.77L395.4 240.95M395.4 240.95L394.24 241.46M394.24 241.46L393.27 242.26"
fill="none" stroke="black" stroke-width="2"/>
<path d="M391.45 245.91L391.63 244.63M391.63 244.63L392.17 243.45M392.17 243.45L393.02 242.46M393.02 242.46L394.12 241.76M394.12 241.76L395.36 241.4M395.36 241.4L396.66 241.4M396.66 241.4L397.91 241.76M397.91 241.76L399 242.46M399 242.46L399.85 243.45M399.85 243.45L400.39 244.63M400.39 244.63L400.57 245.91M400.57 245.91L400.39 247.2M400.39 247.2L399.85 248.38M399.85 248.38L399 249.36M399 249.36L397.91 250.06M397.91 250.06L396.66 250.43M396.66 250.43L395.36 250.43M395.36 250.43L394.12 250.06M394.12 250.06L393.02 249.36M393.02 249.36L392.17 248.38M392.17 248.38L391.63 247.2M391.63 247.2L391.45 245.91"
fill="none" stroke="black" stroke-width="2"/>
<path d="M437.72 239.86L438.62 238.97M438.62 238.97L439.23 237.87M439.23 237.87L439.52 236.64M439.52 236.64L439.47 235.38M439.47 235.38L439.07 234.19M439.07 234.19L438.36 233.14M438.36 233.14L437.39 232.34M437.39 232.34L436.23 231.83M436.23 231.83L434.98 231.65M434.98 231.65L433.73 231.82M433.73 231.82L432.58 232.33M432.58 232.33L431.61 233.14"
fill="none" stroke="black" stroke-width="2"/>
<path d="M429.78 236.79L429.97 235.5M429.97 235.5L430.51 234.32M430.51 234.32L431.36 233.34M431.36 233.34L432.45 232.64M432.45 232.64L433.7 232.27M433.7 232.27L435 232.27M435 232.27L436.24 232.64M436.24 232.64L437.34 233.34M437.34 233.34L438.19 234.32M438.19 234.32L438.73 235.5M438.73 235.5L438.91 236.79M438.91 236.79L438.73 238.08M438.73 238.08L438.19 239.26M438.19 239.26L437.34 240.24M437.34 240.24L436.24 240.94M436.24 240.94L435 241.31M435 241.31L433.7 241.31M433.7 241.31L432.45 240.94M432.45 240.94L431.36 240.24M431.36 240.24L430.51 239.26M430.51 239.26L429.97 238.08M429.97 238.08L429.78 236.79"
fill="none" stroke="black" stroke-width="2"/>
<path d="M476.06 269.66L476.95 268.77M476.95 268.77L477.57 267.67M477.57 267.67L477.86 266.44M477.86 266.44L477.81 265.18M477.81 265.18L477.41 263.99M477.41 263.99L476.7 262.94M476.7 262.94L475.73 262.14M475.73 262.14L474.57 261.63M474.57 261.63L473.32 261.45M473.32 261.45L472.07 261.62M472.07 261.62L470.92 262.13M470.92 262.13L469.95 262.94"
fill="none" stroke="black" stroke-width="2"/>
<path d="M468.12 266.59L468.31 265.3M468.31 265.3L468.85 264.12M468.85 264.12L469.7 263.14M469.7 263.14L470.79 262.44M470.79 262.44L472.04 262.07M472.04 262.07L473.33 262.07M473.33 262.07L474.58 262.44M474.58 262.44L475.67 263.14M475.67 263.14L476.52 264.12M476.52 264.12L477.06 265.3M477.06 265.3L477.25 266.59M477.25 266.59L477.06 267.87M477.06 267.87L476.52 269.06M476.52 269.06L475.67 270.04M475.67 270.04L474.58 270.74M474.58 270.74L473.33 271.11M473.33 271.11L472.04 271.11M472.04 271.11L470.79 270.74M470.79 270.74L469.7 270.04M469.7 270.04L468.85 269.06M468.85 269.06L468.31 267.87M468.31 267.87L468.12 266.59"
fill="none" stroke="black" stroke-width="2"/>
<path d="M477.88 201.55L478.78 200.66M478.78 200.66L479.39 199.56M479.39 199.56L479.69 198.33M479.69 198.33L479.63 197.07M479.63 197.07L479.23 195.87M479.23 195.87L478.52 194.83M478.52 194.83L477.55 194.02M477.55 194.02L476.4 193.51M476.4 193.51L475.15 193.34M475.15 193.34L473.9 193.51M473.9 193.51L472.74 194.02M472.74 194.02L471.77 194.83"
fill="none" stroke="black" stroke-width="2"/>
<path d="M469.95 198.48L470.13 197.19M470.13 197.19L470.67 196.01M470.67 196.01L471.52 195.03M471.52 195.03L472.61 194.33M472.61 194.33L473.86 193.96M473.86 193.96L475.16 193.96M475.16 193.96L476.41 194.33M476.41 194.33L477.5 195.03M477.5 195.03L478.35 196.01M478.35 196.01L478.89 197.19M478.89 197.19L479.07 198.48M479.07 198.48L478.89 199.76M478.89 199.76L478.35 200.94M478.35 200.94L477.5 201.92M477.5 201.92L476.41 202.63M476.41 202.63L475.16 202.99M475.16 202.99L473.86 202.99M473.86 202.99L472.61 202.63M472.61 202.63L471.52 201.92M471.52 201.92L470.67 200.94M470.67 200.94L470.13 199.76M470.13 199.76L469.95 198.48"
fill="none" stroke="black" stroke-width="2"/>
<path d="M518.05 309.8L518.94 308.91M518.94 308.91L519.56 307.81M519.56 307.81L519.85 306.58M519.85 306.58L519.79 305.32M519.79 305.32L519.4 304.13M519.4 304.13L518.68 303.08M518.68 303.08L517.71 302.28M517.71 302.28L516.56 301.76M516.56 301.76L515.31 301.59M515.31 301.59L514.06 301.76M514.06 301.76L512.91 302.27M512.91 302.27L511.93 303.08"
fill="none" stroke="black" stroke-width="2"/>
<path d="M510.11 306.73L510.29 305.44M510.29 305.44L510.83 304.26M510.83 304.26L511.69 303.28M511.69 303.28L512.78 302.58M512.78 302.58L514.02 302.21M514.02 302.21L515.32 302.21M515.32 302.21L516.57 302.58M516.57 302.58L517.66 303.28M517.66 303.28L518.51 304.26M518.51 304.26L519.05 305.44M519.05 305.44L519.24 306.73M519.24 306.73L519.05 308.01M519.05 308.01L518.51 309.19M518.51 309.19L517.66 310.18M517.66 310.18L516.57 310.88M516.57 310.88L515.32 311.24M515.32 311.24L514.02 311.24M514.02 311.24L512.78 310.88M512.78 310.88L511.69 310.18M511.69 310.18L510.83 309.19M510.83 309.19L510.29 308.01M510.29 308.01L510.11 306.73"
fill="none" stroke="black" stroke-width="2"/>
<path d="M517.44 247.16L518.33 246.27M518.33 246.27L518.95 245.17M518.95 245.17L519.24 243.94M519.24 243.94L519.19 242.68M519.19 242.68L518.79 241.48M518.79 241.48L518.07 240.44M518.07 240.44L517.11 239.64M517.11 239.64L515.95 239.12M515.95 239.12L514.7 238.95M514.7 238.95L513.45 239.12M513.45 239.12L512.3 239.63M512.3 239.63L511.33 240.44"
fill="none" stroke="black" stroke-width="2"/>
<path d="M509.5 244.09L509.69 242.8M509.69 242.8L510.23 241.62M510.23 241.62L511.08 240.64M511.08 240.64L512.17 239.94M512.17 239.94L513.42 239.57M513.42 239.57L514.71 239.57M514.71 239.57L515.96 239.94M515.96 239.94L517.05 240.64M517.05 240.64L517.9 241.62M517.9 241.62L518.44 242.8M518.44 242.8L518.63 244.09M518.63 244.09L518.44 245.37M518.44 245.37L517.9 246.55M517.9 246.55L517.05 247.54M517.05 247.54L515.96 248.24M515.96 248.24L514.71 248.6M514.71 248.6L513.42 248.6M513.42 248.6L512.17 248.24M512.17 248.24L511.08 247.54M511.08 247.54L510.23 246.55M510.23 246.55L509.69 245.37M509.69 245.37L509.5 244.09"
fill="none" stroke="black" stroke-width="2"/>
<path d="M559.41 288.56L560.3 287.67M560.3 287.67L560.92 286.57M560.92 286.57L561.21 285.34M561.21 285.34L561.15 284.08M561.15 284.08L560.76 282.88M560.76 282.88L560.04 281.84M560.04 281.84L559.07 281.03M559.07 281.03L557.92 280.52M557.92 280.52L556.67 280.34M556.67 280.34L555.42 280.52M555.42 280.52L554.27 281.03M554.27 281.03L553.29 281.83"
fill="none" stroke="black" stroke-width="2"/>
<path d="M551.47 285.48L551.66 284.2M551.66 284.2L552.19 283.02M552.19 283.02L553.05 282.03M553.05 282.03L554.14 281.33M554.14 281.33L555.38 280.97M555.38 280.97L556.68 280.97M556.68 280.97L557.93 281.33M557.93 281.33L559.02 282.03M559.02 282.03L559.87 283.02M559.87 283.02L560.41 284.2M560.41 284.2L560.6 285.48M560.6 285.48L560.41 286.77M560.41 286.77L559.87 287.95M559.87 287.95L559.02 288.93M559.02 288.93L557.93 289.63M557.93 289.63L556.68 290M556.68 290L555.38 290M555.38 290L554.14 289.63M554.14 289.63L553.05 288.93M553.05 288.93L552.19 287.95M552.19 287.95L551.66 286.77M551.66 286.77L551.47 285.48"
fill="none" stroke="black" stroke-width="2"/>
<path d="M559.41 204.76L560.3 203.87M560.3 203.87L560.92 202.77M560.92 202.77L561.21 201.54M561.21 201.54L561.15 200.28M561.15 200.28L560.76 199.08M560.76 199.08L560.04 198.04M560.04 198.04L559.07 197.23M559.07 197.23L557.92 196.72M557.92 196.72L556.67 196.54M556.67 196.54L555.42 196.72M555.42 196.72L554.27 197.23M554.27 197.23L553.29 198.03"
fill="none" stroke="black" stroke-width="2"/>
<path d="M551.47 201.68L551.66 200.4M551.66 200.4L552.19 199.22M552.19 199.22L553.05 198.23M553.05 198.23L554.14 197.53M554.14 197.53L555.38 197.17M555.38 197.17L556.68 197.17M556.68 197.17L557.93 197.53M557.93 197.53L559.02 198.23M559.02 198.23L559.87 199.22M559.87 199.22L560.41 200.4M560.41 200.4L560.6 201.68M560.6 201.68L560.41 202.97M560.41 202.97L559.87 204.15M559.87 204.15L559.02 205.13M559.02 205.13L557.93 205.83M557.93 205.83L556.68 206.2M556.68 206.2L555.38 206.2M555.38 206.2L554.14 205.83M554.14 205.83L553.05 205.13M553.05 205.13L552.19 204.15M552.19 204.15L551.66 202.97M551.66 202.97L551.47 201.68"
fill="none" stroke="black" stroke-width="2"/>
<path d="M598.61 241.94L599.5 241.05M599.5 241.05L600.12 239.95M600.12 239.95L600.41 238.72M600.41 238.72L600.36 237.46M600.36 237.46L599.96 236.26M599.96 236.26L599.24 235.22M599.24 235.22L598.27 234.41M598.27 234.41L597.12 233.9M597.12 233.9L595.87 233.73M595.87 233.73L594.62 233.9M594.62 233.9L593.47 234.41M593.47 234.41L592.5 235.22"
fill="none" stroke="black" stroke-width="2"/>
<path d="M590.67 238.87L590.86 237.58M590.86 237.58L591.4 236.4M591.4 236.4L592.25 235.42M592.25 235.42L593.34 234.72M593.34 234.72L594.59 234.35M594.59 234.35L595.88 234.35M595.88 234.35L597.13 234.72M597.13 234.72L598.22 235.42M598.22 235.42L599.07 236.4M599.07 236.4L599.61 237.58M599.61 237.58L599.8 238.87M599.8 238.87L599.61 240.15M599.61 240.15L599.07 241.33M599.07 241.33L598.22 242.31M598.22 242.31L597.13 243.02M597.13 243.02L595.88 243.38M595.88 243.38L594.59 243.38M594.59 243.38L593.34 243.02M593.34 243.02L592.25 242.31M592.25 242.31L591.4 241.33M591.4 241.33L590.86 240.15M590.86 240.15L590.67 238.87"
fill="none" stroke="black" stroke-width="2"/>
<path d="M597.84 312.96L598.74 312.07M598.74 312.07L599.35 310.97M599.35 310.97L599.65 309.74M599.65 309.74L599.59 308.48M599.59 308.48L599.19 307.28M599.19 307.28L598.48 306.24M598.48 306.24L597.51 305.43M597.51 305.43L596.36 304.92M596.36 304.92L595.11 304.74M595.11 304.74L593.86 304.92M593.86 304.92L592.7 305.43M592.7 305.43L591.73 306.23"
fill="none" stroke="black" stroke-width="2"/>
<path d="M589.91 309.88L590.09 308.6M590.09 308.6L590.63 307.42M590.63 307.42L591.48 306.43M591.48 306.43L592.57 305.73M592.57 305.73L593.82 305.37M593.82 305.37L595.12 305.37M595.12 305.37L596.37 305.73M596.37 305.73L597.46 306.43M597.46 306.43L598.31 307.42M598.31 307.42L598.85 308.6M598.85 308.6L599.03 309.88M599.03 309.88L598.85 311.17M598.85 311.17L598.31 312.35M598.31 312.35L597.46 313.33M597.46 313.33L596.37 314.03M596.37 314.03L595.12 314.4M595.12 314.4L593.82 314.4M593.82 314.4L592.57 314.03M592.57 314.03L591.48 313.33M591.48 313.33L590.63 312.35M590.63 312.35L590.09 311.17M590.09 311.17L589.91 309.88"
fill="none" stroke="black" stroke-width="2"/>
<path d="M639.1 272.87L640 271.98M640 271.98L640.61 270.88M640.61 270.88L640.91 269.65M640.91 269.65L640.85 268.39M640.85 268.39L640.45 267.19M640.45 267.19L639.74 266.15M639.74 266.15L638.77 265.34M638.77 265.34L637.62 264.83M637.62 264.83L636.37 264.65M636.37 264.65L635.12 264.83M635.12 264.83L633.96 265.34M633.96 265.34L632.99 266.14"
fill="none" stroke="black" stroke-width="2"/>
<path d="M631.17 269.79L631.35 268.51M631.35 268.51L631.89 267.33M631.89 267.33L632.74 266.34M632.74 266.34L633.83 265.64M633.83 265.64L635.08 265.28M635.08 265.28L636.38 265.28M636.38 265.28L637.63 265.64M637.63 265.64L638.72 266.34M638.72 266.34L639.57 267.33M639.57 267.33L640.11 268.51M640.11 268.51L640.29 269.79M640.29 269.79L640.11 271.08M640.11 271.08L639.57 272.26M639.57 272.26L638.72 273.24M638.72 273.24L637.63 273.94M637.63 273.94L636.38 274.31M636.38 274.31L635.08 274.31M635.08 274.31L633.83 273.94M633.83 273.94L632.74 273.24M632.74 273.24L631.89 272.26M631.89 272.26L631.35 271.08M631.35 271.08L631.17 269.79"
fill="none" stroke="black" stroke-width="2"/>
<path d="M679.22 219.41L680.11 218.52M680.11 218.52L680.73 217.42M680.73 217.42L681.02 216.2M681.02 216.2L680.96 214.94M680.96 214.94L680.57 213.74M680.57 213.74L679.85 212.7M679.85 212.7L678.88 211.89M678.88 211.89L677.73 211.38M677.73 211.38L676.48 211.2M676.48 211.2L675.23 211.38M675.23 211.38L674.08 211.89M674.08 211.89L673.1 212.69"
fill="none" stroke="black" stroke-width="2"/>
<path d="M671.28 216.34L671.47 215.06M671.47 215.06L672.01 213.87M672.01 213.87L672.86 212.89M672.86 212.89L673.95 212.19M673.95 212.19L675.19 211.82M675.19 211.82L676.49 211.82M676.49 211.82L677.74 212.19M677.74 212.19L678.83 212.89M678.83 212.89L679.68 213.87M679.68 213.87L680.22 215.06M680.22 215.06L680.41 216.34M680.41 216.34L680.22 217.63M680.22 217.63L679.68 218.81M679.68 218.81L678.83 219.79M678.83 219.79L677.74 220.49M677.74 220.49L676.49 220.86M676.49 220.86L675.19 220.86M675.19 220.86L673.95 220.49M673.95 220.49L672.86 219.79M672.86 219.79L672.01 218.81M672.01 218.81L671.47 217.63M671.47 217.63L671.28 216.34"
fill="none" stroke="black" stroke-width="2"/>
<path d="M679.22 314.48L680.11 313.59M680.11 313.59L680.73 312.49M680.73 312.49L681.02 311.27M681.02 311.27L680.96 310M680.96 310L680.57 308.81M680.57 308.81L679.85 307.77M679.85 307.77L678.88 306.96M678.88 306.96L677.73 306.45M677.73 306.45L676.48 306.27M676.48 306.27L675.23 306.45M675.23 306.45L674.08 306.95M674.08 306.95L673.1 307.76"
fill="none" stroke="black" stroke-width="2"/>
<path d="M671.28 311.41L671.47 310.12M671.47 310.12L672.01 308.94M672.01 308.94L672.86 307.96M672.86 307.96L673.95 307.26M673.95 307.26L675.19 306.89M675.19 306.89L676.49 306.89M676.49 306.89L677.74 307.26M677.74 307.26L678.83 307.96M678.83 307.96L679.68 308.94M679.68 308.94L680.22 310.12M680.22 310.12L680.41 311.41M680.41 311.41L680.22 312.7M680.22 312.7L679.68 313.88M679.68 313.88L678.83 314.86M678.83 314.86L677.74 315.56M677.74 315.56L676.49 315.93M676.49 315.93L675.19 315.93M675.19 315.93L673.95 315.56M673.95 315.56L672.86 314.86M672.86 314.86L672.01 313.88M672.01 313.88L671.47 312.7M671.47 312.7L671.28 311.41"
fill="none" stroke="black" stroke-width="2"/>
<path d="M276.87 311.06L277.57 310.29M277.57 310.29L277.95 309.32M277.95 309.32L277.95 308.28M277.95 308.28L277.58 307.31M277.58 307.31L276.88 306.55M276.88 306.55L275.95 306.08M275.95 306.08L274.91 305.99M274.91 305.99L273.92 306.27M273.92 306.27L273.09 306.9"
fill="none" stroke="black" stroke-width="2"/>
<path d="M271.96 309.15L272.15 308.13M272.15 308.13L272.69 307.25M272.69 307.25L273.52 306.63M273.52 306.63L274.52 306.34M274.52 306.34L275.55 306.44M275.55 306.44L276.48 306.9M276.48 306.9L277.18 307.67M277.18 307.67L277.56 308.63M277.56 308.63L277.56 309.67M277.56 309.67L277.18 310.64M277.18 310.64L276.48 311.41M276.48 311.41L275.55 311.87M275.55 311.87L274.52 311.96M274.52 311.96L273.52 311.68M273.52 311.68L272.69 311.06M272.69 311.06L272.15 310.17M272.15 310.17L271.96 309.15"
fill="none" stroke="black" stroke-width="2"/>
<path d="M317.65 242.23L318.35 241.47M318.35 241.47L318.73 240.5M318.73 240.5L318.73 239.46M318.73 239.46L318.36 238.49M318.36 238.49L317.66 237.72M317.66 237.72L316.73 237.26M316.73 237.26L315.69 237.16M315.69 237.16L314.69 237.45M314.69 237.45L313.87 238.07"
fill="none" stroke="black" stroke-width="2"/>
<path d="M312.74 240.33L312.93 239.31M312.93 239.31L313.47 238.43M313.47 238.43L314.3 237.8M314.3 237.8L315.3 237.52M315.3 237.52L316.33 237.62M316.33 237.62L317.26 238.08M317.26 238.08L317.96 238.84M317.96 238.84L318.34 239.81M318.34 239.81L318.34 240.85M318.34 240.85L317.96 241.82M317.96 241.82L317.26 242.58M317.26 242.58L316.33 243.05M316.33 243.05L315.3 243.14M315.3 243.14L314.3 242.86M314.3 242.86L313.47 242.23M313.47 242.23L312.93 241.35M312.93 241.35L312.74 240.33"
fill="none" stroke="black" stroke-width="2"/>
<path d="M401.52 271.45L402.22 270.69M402.22 270.69L402.59 269.72M402.59 269.72L402.6 268.68M402.6 268.68L402.22 267.71M402.22 267.71L401.52 266.94M401.52 266.94L400.6 266.48M400.6 266.48L399.56 266.38M399.56 266.38L398.56 266.67M398.56 266.67L397.73 267.29"
fill="none" stroke="black" stroke-width="2"/>
<path d="M396.6 269.55L396.8 268.53M396.8 268.53L397.34 267.65M397.34 267.65L398.17 267.02M398.17 267.02L399.17 266.74M399.17 266.74L400.2 266.84M400.2 266.84L401.13 267.3M401.13 267.3L401.83 268.07M401.83 268.07L402.2 269.03M402.2 269.03L402.2 270.07M402.2 270.07L401.83 271.04M401.83 271.04L401.13 271.8M401.13 271.8L400.2 272.27M400.2 272.27L399.17 272.36M399.17 272.36L398.17 272.08M398.17 272.08L397.34 271.45M397.34 271.45L396.8 270.57M396.8 270.57L396.6 269.55"
fill="none" stroke="black" stroke-width="2"/>
<path d="M438.45 314.9L439.15 314.13M439.15 314.13L439.53 313.17M439.53 313.17L439.53 312.13M439.53 312.13L439.16 311.16M439.16 311.16L438.46 310.39M438.46 310.39L437.53 309.93M437.53 309.93L436.49 309.83M436.49 309.83L435.5 310.11M435.5 310.11L434.67 310.74"
fill="none" stroke="black" stroke-width="2"/>
<path d="M433.54 313L433.73 311.98M433.73 311.98L434.27 311.1M434.27 311.1L435.1 310.47M435.1 310.47L436.1 310.19M436.1 310.19L437.13 310.28M437.13 310.28L438.06 310.75M438.06 310.75L438.76 311.51M438.76 311.51L439.14 312.48M439.14 312.48L439.14 313.52M439.14 313.52L438.76 314.48M438.76 314.48L438.06 315.25M438.06 315.25L437.13 315.71M437.13 315.71L436.1 315.81M436.1 315.81L435.1 315.53M435.1 315.53L434.27 314.9M434.27 314.9L433.73 314.02M433.73 314.02L433.54 313"
fill="none" stroke="black" stroke-width="2"/>
<path d="M473.07 294.91L473.77 294.14M473.77 294.14L474.15 293.17M474.15 293.17L474.15 292.14M474.15 292.14L473.78 291.17M473.78 291.17L473.08 290.4M473.08 290.4L472.15 289.93M472.15 289.93L471.12 289.84M471.12 289.84L470.12 290.12M470.12 290.12L469.29 290.75"
fill="none" stroke="black" stroke-width="2"/>
<path d="M468.16 293.01L468.35 291.99M468.35 291.99L468.9 291.1M468.9 291.1L469.73 290.48M469.73 290.48L470.72 290.19M470.72 290.19L471.76 290.29M471.76 290.29L472.69 290.75M472.69 290.75L473.39 291.52M473.39 291.52L473.76 292.49M473.76 292.49L473.76 293.52M473.76 293.52L473.39 294.49M473.39 294.49L472.69 295.26M472.69 295.26L471.76 295.72M471.76 295.72L470.72 295.82M470.72 295.82L469.73 295.53M469.73 295.53L468.9 294.91M468.9 294.91L468.35 294.03M468.35 294.03L468.16 293.01"
fill="none" stroke="black" stroke-width="2"/>
<path d="M599.64 290.68L600.35 289.91M600.35 289.91L600.72 288.94M600.72 288.94L600.73 287.91M600.73 287.91L600.35 286.94M600.35 286.94L599.65 286.17M599.65 286.17L598.72 285.71M598.72 285.71L597.69 285.61M597.69 285.61L596.69 285.89M596.69 285.89L595.86 286.52"
fill="none" stroke="black" stroke-width="2"/>
<path d="M594.73 288.78L594.92 287.76M594.92 287.76L595.47 286.87M595.47 286.87L596.3 286.25M596.3 286.25L597.3 285.96M597.3 285.96L598.33 286.06M598.33 286.06L599.26 286.52M599.26 286.52L599.96 287.29M599.96 287.29L600.33 288.26M600.33 288.26L600.33 289.29M600.33 289.29L599.96 290.26M599.96 290.26L599.26 291.03M599.26 291.03L598.33 291.49M598.33 291.49L597.3 291.59M597.3 291.59L596.3 291.3M596.3 291.3L595.47 290.68M595.47 290.68L594.92 289.8M594.92 289.8L594.73 288.78"
fill="none" stroke="black" stroke-width="2"/>
<path d="M639.46 326.29L640.16 325.53M640.16 325.53L640.54 324.56M640.54 324.56L640.54 323.52M640.54 323.52L640.16 322.55M640.16 322.55L639.47 321.78M639.47 321.78L638.54 321.32M638.54 321.32L637.5 321.22M637.5 321.22L636.5 321.51M636.5 321.51L635.67 322.13"
fill="none" stroke="black" stroke-width="2"/>
<path d="M634.55 324.39L634.74 323.37M634.74 323.37L635.28 322.49M635.28 322.49L636.11 321.86M636.11 321.86L637.11 321.58M637.11 321.58L638.14 321.68M638.14 321.68L639.07 322.14M639.07 322.14L639.77 322.91M639.77 322.91L640.15 323.87M640.15 323.87L640.15 324.91M640.15 324.91L639.77 325.88M639.77 325.88L639.07 326.64M639.07 326.64L638.14 327.11M638.14 327.11L637.11 327.2M637.11 327.2L636.11 326.92M636.11 326.92L635.28 326.29M635.28 326.29L634.74 325.41M634.74 325.41L634.55 324.39"
fill="none" stroke="black" stroke-width="2"/>
</svg>
