<?xml version="1.0" encoding="UTF-8"?>
<svg xmlns="http://www.w3.org/2000/svg" width="800.000" height="600.000" viewBox="0.0 0.0 800.000 600.000" version="1.1">
  <title>Produce by Acme CAD Converter</title>
  <desc>Produce by Acme CAD Converter</desc>
<path d="M2.26 80.81L2.26 519.19"
fill="none" stroke="RGB(237,31,36)" stroke-width="0"/>
<path d="M328.71 336.67L328.71 299.01"
fill="none" stroke="black" stroke-width="2"/>
<path d="M479.8 279.42L447.57 299.02"
fill="none" stroke="black" stroke-width="2"/>
<path d="M479.8 275.92L447.57 295.53"
fill="none" stroke="black" stroke-width="2"/>
<path d="M447.57 295.53L447.57 299.02"
fill="none" stroke="black" stroke-width="2"/>
<path d="M479.8 275.92L479.8 279.42"
fill="none" stroke="black" stroke-width="2"/>
<path d="M358.03 275.92L325.8 295.53"
fill="none" stroke="black" stroke-width="2"/>
<path d="M325.8 295.53L325.8 299.02"
fill="none" stroke="black" stroke-width="2"/>
<path d="M332.11 336.67L332.11 299.02"
fill="none" stroke="black" stroke-width="2"/>
<path d="M334.4 335.3L334.4 299.02"
fill="none" stroke="black" stroke-width="2"/>
<path d="M332.11 336.67L334.4 335.3"
fill="none" stroke="black" stroke-width="2"/>
<path d="M451.39 280.14L451.39 269.74"
fill="none" stroke="black" stroke-width="2"/>
<path d="M448 280.14L448 269.74"
fill="none" stroke="black" stroke-width="2"/>
<path d="M453.69 278.77L453.69 269.81"
fill="none" stroke="black" stroke-width="2"/>
<path d="M451.39 280.14L453.69 278.77"
fill="none" stroke="black" stroke-width="2"/>
<path d="M479.8 231.31L479.8 269.74"
fill="none" stroke="black" stroke-width="2"/>
<path d="M357.77 231.3L357.77 269.72"
fill="none" stroke="black" stroke-width="2"/>
<path d="M482.79 267.92L479.8 269.74"
fill="none" stroke="black" stroke-width="2"/>
<path d="M482.79 229.5L482.79 267.92"
fill="none" stroke="black" stroke-width="2"/>
<path d="M479.8 231.31L482.79 229.5"
fill="none" stroke="black" stroke-width="2"/>
<path d="M2.26 316.8L130.31 317.7"
fill="none" stroke="RGB(2,158,33)" stroke-width="2"/>
<path d="M148.88 317.8L221.12 318.11"
fill="none" stroke="RGB(2,158,33)" stroke-width="2"/>
<path d="M239.7 318.17L393.78 318.34M393.78 318.34L547.87 317.96"
fill="none" stroke="RGB(2,158,33)" stroke-width="2"/>
<path d="M566.5 317.88L639.71 317.47"
fill="none" stroke="RGB(2,158,33)" stroke-width="2"/>
<path d="M658.36 317.35L797.74 316.16"
fill="none" stroke="RGB(2,158,33)" stroke-width="2"/>
<path d="M479.8 231.31L357.74 231.31"
fill="none" stroke="black" stroke-width="2"/>
<path d="M482.79 229.5L360.73 229.5"
fill="none" stroke="black" stroke-width="2"/>
<path d="M479.8 269.74L357.77 269.74"
fill="none" stroke="black" stroke-width="2"/>
<path d="M479.8 275.92L453.69 275.92"
fill="none" stroke="black" stroke-width="2"/>
<path d="M448 275.92L382.18 275.92"
fill="none" stroke="black" stroke-width="2"/>
<path d="M376.49 275.92L358.03 275.92"
fill="none" stroke="black" stroke-width="2"/>
<path d="M447.57 295.53L325.8 295.53"
fill="none" stroke="black" stroke-width="2"/>
<path d="M447.57 299.02L325.8 299.02"
fill="none" stroke="black" stroke-width="2"/>
<path d="M451.39 280.14L448 280.14"
fill="none" stroke="black" stroke-width="2"/>
<path d="M379.89 280.14L379.89 269.74"
fill="none" stroke="black" stroke-width="2"/>
<path d="M376.49 280.14L376.49 269.74"
fill="none" stroke="black" stroke-width="2"/>
<path d="M382.18 278.77L382.18 269.81"
fill="none" stroke="black" stroke-width="2"/>
<path d="M379.89 280.14L382.18 278.77"
fill="none" stroke="black" stroke-width="2"/>
<path d="M379.89 280.14L376.49 280.14"
fill="none" stroke="black" stroke-width="2"/>
<path d="M332.11 336.67L328.71 336.67"
fill="none" stroke="black" stroke-width="2"/>
<path d="M328.71 336.67L329.18 336.67"
fill="none" stroke="black" stroke-width="2"/>
<path d="M440.34 336.67L440.34 299.01"
fill="none" stroke="black" stroke-width="2"/>
<path d="M443.74 336.67L443.74 299.02"
fill="none" stroke="black" stroke-width="2"/>
<path d="M446.03 335.3L446.03 299.02"
fill="none" stroke="black" stroke-width="2"/>
<path d="M443.74 336.67L446.03 335.3"
fill="none" stroke="black" stroke-width="2"/>
<path d="M443.74 336.67L440.34 336.67"
fill="none" stroke="black" stroke-width="2"/>
<path d="M440.34 336.67L440.81 336.67"
fill="none" stroke="black" stroke-width="2"/>
<path d="M471.61 318.61L471.61 284.4"
fill="none" stroke="black" stroke-width="2"/>
<path d="M475.01 318.61L475.01 282.33"
fill="none" stroke="black" stroke-width="2"/>
<path d="M477.3 317.24L477.3 280.96"
fill="none" stroke="black" stroke-width="2"/>
<path d="M475.01 318.61L477.3 317.24"
fill="none" stroke="black" stroke-width="2"/>
<path d="M475.01 318.61L471.61 318.61"
fill="none" stroke="black" stroke-width="2"/>
<path d="M471.61 318.61L472.08 318.61"
fill="none" stroke="black" stroke-width="2"/>
<path d="M2.26 316.8L43.83 320.22M43.83 320.22L85.42 323.25M85.42 323.25L127.04 325.91"
fill="none" stroke="RGB(2,158,33)" stroke-width="2"/>
<path d="M145.23 326.95L180.74 328.77M180.74 328.77L216.26 330.32"
fill="none" stroke="RGB(2,158,33)" stroke-width="2"/>
<path d="M234.59 331.01L273.06 332.21M273.06 332.21L311.54 333.09M311.54 333.09L350.03 333.65M350.03 333.65L388.52 333.88M388.52 333.88L427.01 333.78M427.01 333.78L465.5 333.36M465.5 333.36L503.99 332.61M503.99 332.61L542.46 331.54"
fill="none" stroke="RGB(2,158,33)" stroke-width="2"/>
<path d="M561.32 330.9L598.51 329.4M598.51 329.4L635.68 327.59"
fill="none" stroke="RGB(2,158,33)" stroke-width="2"/>
<path d="M654.69 326.55L690.48 324.38M690.48 324.38L726.26 321.92M726.26 321.92L762.01 319.18M762.01 319.18L797.74 316.16"
fill="none" stroke="RGB(2,158,33)" stroke-width="2"/>
<path d="M361.06 318.61L361.06 299.02"
fill="none" stroke="black" stroke-width="2"/>
<path d="M364.46 318.61L364.46 299.02"
fill="none" stroke="black" stroke-width="2"/>
<path d="M366.75 317.24L366.75 299.02"
fill="none" stroke="black" stroke-width="2"/>
<path d="M364.46 318.61L366.75 317.24"
fill="none" stroke="black" stroke-width="2"/>
<path d="M364.46 318.61L361.06 318.61"
fill="none" stroke="black" stroke-width="2"/>
<path d="M124.26 332.9L140.36 332.9M140.36 332.9L140.36 339.18M140.36 339.18L124.26 339.18M124.26 339.18L124.26 332.9"
fill="none" stroke="black" stroke-width="2"/>
<path d="M124.26 332.9L135.05 305.81"
fill="none" stroke="black" stroke-width="2"/>
<path d="M140.36 332.9L151.15 305.81"
fill="none" stroke="black" stroke-width="2"/>
<path d="M140.36 339.18L151.15 312.09"
fill="none" stroke="black" stroke-width="2"/>
<path d="M135.05 305.81L151.15 305.81"
fill="none" stroke="black" stroke-width="2"/>
<path d="M151.15 305.81L151.15 312.09"
fill="none" stroke="black" stroke-width="2"/>
<path d="M214.27 335.31L230.38 335.31M230.38 335.31L230.38 341.59M230.38 341.59L214.27 341.59M214.27 341.59L214.27 335.31"
fill="none" stroke="black" stroke-width="2"/>
<path d="M214.27 335.31L225.06 308.21"
fill="none" stroke="black" stroke-width="2"/>
<path d="M230.38 335.31L241.17 308.21"
fill="none" stroke="black" stroke-width="2"/>
<path d="M230.38 341.59L241.17 314.49"
fill="none" stroke="black" stroke-width="2"/>
<path d="M225.06 308.21L241.17 308.21"
fill="none" stroke="black" stroke-width="2"/>
<path d="M241.17 308.21L241.17 314.49"
fill="none" stroke="black" stroke-width="2"/>
<path d="M633.73 332.49L649.83 332.49M649.83 332.49L649.83 338.77M649.83 338.77L633.73 338.77M633.73 338.77L633.73 332.49"
fill="none" stroke="black" stroke-width="2"/>
<path d="M633.73 332.49L644.52 305.39"
fill="none" stroke="black" stroke-width="2"/>
<path d="M649.83 332.49L660.62 305.39"
fill="none" stroke="black" stroke-width="2"/>
<path d="M649.83 338.77L660.62 311.67"
fill="none" stroke="black" stroke-width="2"/>
<path d="M644.52 305.39L660.62 305.39"
fill="none" stroke="black" stroke-width="2"/>
<path d="M660.62 305.39L660.62 311.67"
fill="none" stroke="black" stroke-width="2"/>
<path d="M540.72 335.91L556.82 335.91M556.82 335.91L556.82 342.19M556.82 342.19L540.72 342.19M540.72 342.19L540.72 335.91"
fill="none" stroke="black" stroke-width="2"/>
<path d="M540.72 335.91L551.51 308.82"
fill="none" stroke="black" stroke-width="2"/>
<path d="M556.82 335.91L567.61 308.82"
fill="none" stroke="black" stroke-width="2"/>
<path d="M556.82 342.19L567.61 315.1"
fill="none" stroke="black" stroke-width="2"/>
<path d="M551.51 308.82L567.61 308.82"
fill="none" stroke="black" stroke-width="2"/>
<path d="M567.61 308.82L567.61 315.1"
fill="none" stroke="black" stroke-width="2"/>
</svg>
