<?xml version="1.0" encoding="UTF-8"?>
<svg xmlns="http://www.w3.org/2000/svg" width="800.000" height="600.000" viewBox="0.0 0.0 800.000 600.000" version="1.1">
  <title>Produce by Acme CAD Converter</title>
  <desc>Produce by Acme CAD Converter</desc>
<path d="M2.26 80.73L2.26 519.27"
fill="none" stroke="RGB(237,31,36)" stroke-width="0"/>
<path d="M124.88 81.3L124.88 316.01"
fill="none" stroke="black" stroke-width="0"/>
<path d="M2.82 156.6L91.13 158.87M91.13 158.87L179.45 160.58M179.45 160.58L267.78 161.75M267.78 161.75L356.11 162.36M356.11 162.36L444.44 162.41M444.44 162.41L532.78 161.92M532.78 161.92L621.11 160.87M621.11 160.87L709.43 159.26M709.43 159.26L797.74 157.1"
fill="none" stroke="RGB(2,158,33)" stroke-width="2"/>
<path d="M94.94 336.06L95.12 334.85M95.12 334.85L95.65 333.75M95.65 333.75L96.48 332.85M96.48 332.85L97.54 332.24M97.54 332.24L98.74 331.97M98.74 331.97L99.96 332.06M99.96 332.06L101.1 332.5M101.1 332.5L102.06 333.27M102.06 333.27L102.75 334.28M102.75 334.28L103.11 335.45M103.11 335.45L103.11 336.68M103.11 336.68L102.75 337.85M102.75 337.85L102.06 338.86M102.06 338.86L101.1 339.62M101.1 339.62L99.96 340.07M99.96 340.07L98.74 340.16M98.74 340.16L97.54 339.89M97.54 339.89L96.48 339.28M96.48 339.28L95.65 338.38M95.65 338.38L95.12 337.28M95.12 337.28L94.94 336.06"
fill="none" stroke="black" stroke-width="2"/>
<path d="M127.89 317.2L128.67 316.33M128.67 316.33L129.17 315.27M129.17 315.27L129.36 314.11M129.36 314.11L129.21 312.95M129.21 312.95L128.74 311.88M128.74 311.88L127.99 310.99M127.99 310.99L127.01 310.34M127.01 310.34L125.9 309.99M125.9 309.99L124.73 309.98M124.73 309.98L123.6 310.29M123.6 310.29L122.6 310.91"
fill="none" stroke="black" stroke-width="2"/>
<path d="M101.69 339.21L127.89 317.2"
fill="none" stroke="black" stroke-width="2"/>
<path d="M96.4 332.92L122.6 310.91"
fill="none" stroke="black" stroke-width="2"/>
<path d="M112.15 280.29L124.33 310.71"
fill="none" stroke="black" stroke-width="2"/>
<path d="M112.15 280.29L100.88 330.41"
fill="none" stroke="black" stroke-width="2"/>
<path d="M112.15 280.29L112.15 159.33"
fill="none" stroke="black" stroke-width="2"/>
<path d="M166.04 337.38L166.22 336.17M166.22 336.17L166.75 335.07M166.75 335.07L167.59 334.17M167.59 334.17L168.65 333.56M168.65 333.56L169.84 333.28M169.84 333.28L171.06 333.38M171.06 333.38L172.2 333.82M172.2 333.82L173.16 334.59M173.16 334.59L173.85 335.6M173.85 335.6L174.21 336.77M174.21 336.77L174.21 338M174.21 338L173.85 339.17M173.85 339.17L173.16 340.18M173.16 340.18L172.2 340.94M172.2 340.94L171.06 341.39M171.06 341.39L169.84 341.48M169.84 341.48L168.65 341.21M168.65 341.21L167.59 340.6M167.59 340.6L166.75 339.7M166.75 339.7L166.22 338.59M166.22 338.59L166.04 337.38"
fill="none" stroke="black" stroke-width="2"/>
<path d="M199 318.52L199.77 317.65M199.77 317.65L200.28 316.59M200.28 316.59L200.46 315.43M200.46 315.43L200.31 314.27M200.31 314.27L199.84 313.2M199.84 313.2L199.09 312.31M199.09 312.31L198.12 311.66M198.12 311.66L197 311.31M197 311.31L195.83 311.29M195.83 311.29L194.7 311.61M194.7 311.61L193.71 312.22"
fill="none" stroke="black" stroke-width="2"/>
<path d="M172.79 340.53L199 318.52"
fill="none" stroke="black" stroke-width="2"/>
<path d="M167.5 334.24L193.71 312.22"
fill="none" stroke="black" stroke-width="2"/>
<path d="M183.25 281.61L195.44 312.03"
fill="none" stroke="black" stroke-width="2"/>
<path d="M183.25 281.61L171.98 331.73"
fill="none" stroke="black" stroke-width="2"/>
<path d="M183.25 281.61L183.25 160.65"
fill="none" stroke="black" stroke-width="2"/>
<path d="M237.66 338.35L237.84 337.14M237.84 337.14L238.37 336.03M238.37 336.03L239.21 335.14M239.21 335.14L240.27 334.52M240.27 334.52L241.46 334.25M241.46 334.25L242.69 334.34M242.69 334.34L243.83 334.79M243.83 334.79L244.78 335.55M244.78 335.55L245.47 336.57M245.47 336.57L245.84 337.74M245.84 337.74L245.84 338.96M245.84 338.96L245.47 340.13M245.47 340.13L244.78 341.15M244.78 341.15L243.83 341.91M243.83 341.91L242.69 342.36M242.69 342.36L241.46 342.45M241.46 342.45L240.27 342.18M240.27 342.18L239.21 341.56M239.21 341.56L238.37 340.67M238.37 340.67L237.84 339.56M237.84 339.56L237.66 338.35"
fill="none" stroke="black" stroke-width="2"/>
<path d="M270.62 319.48L271.4 318.61M271.4 318.61L271.9 317.56M271.9 317.56L272.08 316.4M272.08 316.4L271.93 315.24M271.93 315.24L271.46 314.17M271.46 314.17L270.71 313.27M270.71 313.27L269.74 312.63M269.74 312.63L268.62 312.28M268.62 312.28L267.45 312.26M267.45 312.26L266.32 312.57M266.32 312.57L265.33 313.19"
fill="none" stroke="black" stroke-width="2"/>
<path d="M244.42 341.5L270.62 319.48"
fill="none" stroke="black" stroke-width="2"/>
<path d="M239.13 335.2L265.33 313.19"
fill="none" stroke="black" stroke-width="2"/>
<path d="M254.87 282.57L267.06 313"
fill="none" stroke="black" stroke-width="2"/>
<path d="M254.87 282.57L243.6 332.7"
fill="none" stroke="black" stroke-width="2"/>
<path d="M254.87 282.57L254.87 161.61"
fill="none" stroke="black" stroke-width="2"/>
<path d="M306.17 336.06L306.35 334.85M306.35 334.85L306.88 333.75M306.88 333.75L307.71 332.85M307.71 332.85L308.78 332.24M308.78 332.24L309.97 331.97M309.97 331.97L311.19 332.06M311.19 332.06L312.33 332.5M312.33 332.5L313.29 333.27M313.29 333.27L313.98 334.28M313.98 334.28L314.34 335.45M314.34 335.45L314.34 336.68M314.34 336.68L313.98 337.85M313.98 337.85L313.29 338.86M313.29 338.86L312.33 339.62M312.33 339.62L311.19 340.07M311.19 340.07L309.97 340.16M309.97 340.16L308.78 339.89M308.78 339.89L307.71 339.28M307.71 339.28L306.88 338.38M306.88 338.38L306.35 337.28M306.35 337.28L306.17 336.06"
fill="none" stroke="black" stroke-width="2"/>
<path d="M339.12 317.2L339.9 316.33M339.9 316.33L340.41 315.27M340.41 315.27L340.59 314.11M340.59 314.11L340.44 312.95M340.44 312.95L339.97 311.88M339.97 311.88L339.22 310.99M339.22 310.99L338.24 310.34M338.24 310.34L337.13 309.99M337.13 309.99L335.96 309.98M335.96 309.98L334.83 310.29M334.83 310.29L333.83 310.91"
fill="none" stroke="black" stroke-width="2"/>
<path d="M312.92 339.21L339.12 317.2"
fill="none" stroke="black" stroke-width="2"/>
<path d="M307.63 332.92L333.83 310.91"
fill="none" stroke="black" stroke-width="2"/>
<path d="M323.38 280.29L335.56 310.71"
fill="none" stroke="black" stroke-width="2"/>
<path d="M323.38 280.29L312.11 330.41"
fill="none" stroke="black" stroke-width="2"/>
<path d="M323.38 280.29L323.38 159.33"
fill="none" stroke="black" stroke-width="2"/>
<path d="M371.56 339.18L371.74 337.97M371.74 337.97L372.27 336.86M372.27 336.86L373.11 335.97M373.11 335.97L374.17 335.35M374.17 335.35L375.36 335.08M375.36 335.08L376.59 335.17M376.59 335.17L377.73 335.62M377.73 335.62L378.68 336.38M378.68 336.38L379.38 337.4M379.38 337.4L379.74 338.57M379.74 338.57L379.74 339.79M379.74 339.79L379.38 340.96M379.38 340.96L378.68 341.98M378.68 341.98L377.73 342.74M377.73 342.74L376.59 343.19M376.59 343.19L375.36 343.28M375.36 343.28L374.17 343.01M374.17 343.01L373.11 342.39M373.11 342.39L372.27 341.5M372.27 341.5L371.74 340.39M371.74 340.39L371.56 339.18"
fill="none" stroke="black" stroke-width="2"/>
<path d="M404.52 320.32L405.3 319.44M405.3 319.44L405.8 318.39M405.8 318.39L405.98 317.23M405.98 317.23L405.83 316.07M405.83 316.07L405.36 315M405.36 315L404.61 314.1M404.61 314.1L403.64 313.46M403.64 313.46L402.52 313.11M402.52 313.11L401.35 313.09M401.35 313.09L400.22 313.4M400.22 313.4L399.23 314.02"
fill="none" stroke="black" stroke-width="2"/>
<path d="M378.32 342.33L404.52 320.32"
fill="none" stroke="black" stroke-width="2"/>
<path d="M373.03 336.03L399.23 314.02"
fill="none" stroke="black" stroke-width="2"/>
<path d="M388.77 283.4L400.96 313.83"
fill="none" stroke="black" stroke-width="2"/>
<path d="M388.77 283.4L377.5 333.53"
fill="none" stroke="black" stroke-width="2"/>
<path d="M388.77 283.4L388.77 162.44"
fill="none" stroke="black" stroke-width="2"/>
<path d="M444.74 339.1L444.92 337.88M444.92 337.88L445.45 336.78M445.45 336.78L446.29 335.88M446.29 335.88L447.35 335.27M447.35 335.27L448.54 335M448.54 335L449.76 335.09M449.76 335.09L450.91 335.54M450.91 335.54L451.86 336.3M451.86 336.3L452.55 337.31M452.55 337.31L452.91 338.48M452.91 338.48L452.91 339.71M452.91 339.71L452.55 340.88M452.55 340.88L451.86 341.89M451.86 341.89L450.91 342.66M450.91 342.66L449.76 343.1M449.76 343.1L448.54 343.2M448.54 343.2L447.35 342.92M447.35 342.92L446.29 342.31M446.29 342.31L445.45 341.41M445.45 341.41L444.92 340.31M444.92 340.31L444.74 339.1"
fill="none" stroke="black" stroke-width="2"/>
<path d="M477.7 320.23L478.48 319.36M478.48 319.36L478.98 318.3M478.98 318.3L479.16 317.15M479.16 317.15L479.01 315.99M479.01 315.99L478.54 314.92M478.54 314.92L477.79 314.02M477.79 314.02L476.82 313.37M476.82 313.37L475.7 313.03M475.7 313.03L474.53 313.01M474.53 313.01L473.4 313.32M473.4 313.32L472.41 313.94"
fill="none" stroke="black" stroke-width="2"/>
<path d="M451.49 342.24L477.7 320.23"
fill="none" stroke="black" stroke-width="2"/>
<path d="M446.21 335.95L472.41 313.94"
fill="none" stroke="black" stroke-width="2"/>
<path d="M461.95 283.32L474.14 313.74"
fill="none" stroke="black" stroke-width="2"/>
<path d="M461.95 283.32L450.68 333.45"
fill="none" stroke="black" stroke-width="2"/>
<path d="M461.95 283.32L461.95 162.36"
fill="none" stroke="black" stroke-width="2"/>
<path d="M514.8 338.66L514.98 337.45M514.98 337.45L515.52 336.35M515.52 336.35L516.35 335.45M516.35 335.45L517.41 334.83M517.41 334.83L518.61 334.56M518.61 334.56L519.83 334.65M519.83 334.65L520.97 335.1M520.97 335.1L521.93 335.86M521.93 335.86L522.62 336.88M522.62 336.88L522.98 338.05M522.98 338.05L522.98 339.27M522.98 339.27L522.62 340.44M522.62 340.44L521.93 341.46M521.93 341.46L520.97 342.22M520.97 342.22L519.83 342.67M519.83 342.67L518.61 342.76M518.61 342.76L517.41 342.49M517.41 342.49L516.35 341.87M516.35 341.87L515.52 340.98M515.52 340.98L514.98 339.87M514.98 339.87L514.8 338.66"
fill="none" stroke="black" stroke-width="2"/>
<path d="M547.76 319.8L548.54 318.92M548.54 318.92L549.04 317.87M549.04 317.87L549.23 316.71M549.23 316.71L549.08 315.55M549.08 315.55L548.61 314.48M548.61 314.48L547.85 313.58M547.85 313.58L546.88 312.94M546.88 312.94L545.76 312.59M545.76 312.59L544.59 312.57M544.59 312.57L543.46 312.88M543.46 312.88L542.47 313.5"
fill="none" stroke="black" stroke-width="2"/>
<path d="M521.56 341.81L547.76 319.8"
fill="none" stroke="black" stroke-width="2"/>
<path d="M516.27 335.51L542.47 313.5"
fill="none" stroke="black" stroke-width="2"/>
<path d="M532.01 282.88L544.2 313.31"
fill="none" stroke="black" stroke-width="2"/>
<path d="M532.01 282.88L520.74 333.01"
fill="none" stroke="black" stroke-width="2"/>
<path d="M532.01 282.88L532.01 161.92"
fill="none" stroke="black" stroke-width="2"/>
<path d="M589.27 337.82L589.46 336.6M589.46 336.6L589.99 335.5M589.99 335.5L590.82 334.6M590.82 334.6L591.88 333.99M591.88 333.99L593.08 333.72M593.08 333.72L594.3 333.81M594.3 333.81L595.44 334.26M595.44 334.26L596.4 335.02M596.4 335.02L597.09 336.03M597.09 336.03L597.45 337.2M597.45 337.2L597.45 338.43M597.45 338.43L597.09 339.6M597.09 339.6L596.4 340.61M596.4 340.61L595.44 341.37M595.44 341.37L594.3 341.82M594.3 341.82L593.08 341.91M593.08 341.91L591.88 341.64M591.88 341.64L590.82 341.03M590.82 341.03L589.99 340.13M589.99 340.13L589.46 339.03M589.46 339.03L589.27 337.82"
fill="none" stroke="black" stroke-width="2"/>
<path d="M622.23 318.95L623.01 318.08M623.01 318.08L623.51 317.02M623.51 317.02L623.7 315.87M623.7 315.87L623.55 314.71M623.55 314.71L623.08 313.63M623.08 313.63L622.33 312.74M622.33 312.74L621.35 312.09M621.35 312.09L620.23 311.74M620.23 311.74L619.06 311.73M619.06 311.73L617.94 312.04M617.94 312.04L616.94 312.66"
fill="none" stroke="black" stroke-width="2"/>
<path d="M596.03 340.96L622.23 318.95"
fill="none" stroke="black" stroke-width="2"/>
<path d="M590.74 334.67L616.94 312.66"
fill="none" stroke="black" stroke-width="2"/>
<path d="M606.49 282.04L618.67 312.46"
fill="none" stroke="black" stroke-width="2"/>
<path d="M606.49 282.04L595.22 332.17"
fill="none" stroke="black" stroke-width="2"/>
<path d="M606.49 282.04L606.49 161.08"
fill="none" stroke="black" stroke-width="2"/>
<path d="M665.77 336.06L665.96 334.85M665.96 334.85L666.49 333.75M666.49 333.75L667.32 332.85M667.32 332.85L668.38 332.24M668.38 332.24L669.58 331.97M669.58 331.97L670.8 332.06M670.8 332.06L671.94 332.5M671.94 332.5L672.9 333.27M672.9 333.27L673.59 334.28M673.59 334.28L673.95 335.45M673.95 335.45L673.95 336.68M673.95 336.68L673.59 337.85M673.59 337.85L672.9 338.86M672.9 338.86L671.94 339.62M671.94 339.62L670.8 340.07M670.8 340.07L669.58 340.16M669.58 340.16L668.38 339.89M668.38 339.89L667.32 339.28M667.32 339.28L666.49 338.38M666.49 338.38L665.96 337.28M665.96 337.28L665.77 336.06"
fill="none" stroke="black" stroke-width="2"/>
<path d="M698.73 317.2L699.51 316.33M699.51 316.33L700.01 315.27M700.01 315.27L700.2 314.11M700.2 314.11L700.05 312.95M700.05 312.95L699.58 311.88M699.58 311.88L698.83 310.99M698.83 310.99L697.85 310.34M697.85 310.34L696.73 309.99M696.73 309.99L695.56 309.98M695.56 309.98L694.44 310.29M694.44 310.29L693.44 310.91"
fill="none" stroke="black" stroke-width="2"/>
<path d="M672.53 339.21L698.73 317.2"
fill="none" stroke="black" stroke-width="2"/>
<path d="M667.24 332.92L693.44 310.91"
fill="none" stroke="black" stroke-width="2"/>
<path d="M682.99 280.29L695.17 310.71"
fill="none" stroke="black" stroke-width="2"/>
<path d="M682.99 280.29L671.72 330.41"
fill="none" stroke="black" stroke-width="2"/>
<path d="M682.99 280.29L682.99 159.33"
fill="none" stroke="black" stroke-width="2"/>
</svg>
