<?xml version="1.0" encoding="UTF-8"?>
<svg xmlns="http://www.w3.org/2000/svg" width="800.000" height="600.000" viewBox="0.0 0.0 800.000 600.000" version="1.1">
  <title>Produce by Acme CAD Converter</title>
  <desc>Produce by Acme CAD Converter</desc>
<path d="M2.26 80.73L2.26 519.27"
fill="none" stroke="RGB(237,31,36)" stroke-width="0"/>
<path d="M95.19 336.07L95.37 334.86M95.37 334.86L95.91 333.76M95.91 333.76L96.74 332.86M96.74 332.86L97.8 332.25M97.8 332.25L98.99 331.98M98.99 331.98L100.22 332.07M100.22 332.07L101.36 332.52M101.36 332.52L102.32 333.28M102.32 333.28L103.01 334.29M103.01 334.29L103.37 335.46M103.37 335.46L103.37 336.69M103.37 336.69L103.01 337.86M103.01 337.86L102.32 338.87M102.32 338.87L101.36 339.63M101.36 339.63L100.22 340.08M100.22 340.08L98.99 340.17M98.99 340.17L97.8 339.9M97.8 339.9L96.74 339.29M96.74 339.29L95.91 338.39M95.91 338.39L95.37 337.29M95.37 337.29L95.19 336.07"
fill="none" stroke="black" stroke-width="2"/>
<path d="M128.15 317.21L128.93 316.34M128.93 316.34L129.43 315.28M129.43 315.28L129.61 314.13M129.61 314.13L129.47 312.97M129.47 312.97L129 311.89M129 311.89L128.24 311M128.24 311L127.27 310.35M127.27 310.35L126.15 310M126.15 310L124.98 309.99M124.98 309.99L123.85 310.3M123.85 310.3L122.86 310.92"
fill="none" stroke="black" stroke-width="2"/>
<path d="M101.95 339.22L128.15 317.21"
fill="none" stroke="black" stroke-width="2"/>
<path d="M96.66 332.93L122.86 310.92"
fill="none" stroke="black" stroke-width="2"/>
<path d="M112.4 280.3L124.59 310.72"
fill="none" stroke="black" stroke-width="2"/>
<path d="M112.4 280.3L101.13 330.43"
fill="none" stroke="black" stroke-width="2"/>
<path d="M112.4 280.3L112.4 162.39"
fill="none" stroke="black" stroke-width="2"/>
<path d="M166.29 317.82L166.48 316.61M166.48 316.61L167.01 315.5M167.01 315.5L167.84 314.61M167.84 314.61L168.9 313.99M168.9 313.99L170.1 313.72M170.1 313.72L171.32 313.81M171.32 313.81L172.46 314.26M172.46 314.26L173.42 315.02M173.42 315.02L174.11 316.04M174.11 316.04L174.47 317.21M174.47 317.21L174.47 318.43M174.47 318.43L174.11 319.6M174.11 319.6L173.42 320.61M173.42 320.61L172.46 321.38M172.46 321.38L171.32 321.83M171.32 321.83L170.1 321.92M170.1 321.92L168.9 321.64M168.9 321.64L167.84 321.03M167.84 321.03L167.01 320.13M167.01 320.13L166.48 319.03M166.48 319.03L166.29 317.82"
fill="none" stroke="black" stroke-width="2"/>
<path d="M199.25 298.95L200.03 298.08M200.03 298.08L200.53 297.02M200.53 297.02L200.72 295.87M200.72 295.87L200.57 294.71M200.57 294.71L200.1 293.64M200.1 293.64L199.35 292.74M199.35 292.74L198.37 292.09M198.37 292.09L197.25 291.75M197.25 291.75L196.08 291.73M196.08 291.73L194.96 292.04M194.96 292.04L193.96 292.66"
fill="none" stroke="black" stroke-width="2"/>
<path d="M173.05 320.97L199.25 298.95"
fill="none" stroke="black" stroke-width="2"/>
<path d="M167.76 314.67L193.96 292.66"
fill="none" stroke="black" stroke-width="2"/>
<path d="M183.51 262.04L195.69 292.47"
fill="none" stroke="black" stroke-width="2"/>
<path d="M183.51 262.04L172.24 312.17"
fill="none" stroke="black" stroke-width="2"/>
<path d="M183.51 262.04L183.51 160.66"
fill="none" stroke="black" stroke-width="2"/>
<path d="M237.91 338.36L238.1 337.15M238.1 337.15L238.63 336.05M238.63 336.05L239.46 335.15M239.46 335.15L240.52 334.53M240.52 334.53L241.72 334.26M241.72 334.26L242.94 334.35M242.94 334.35L244.08 334.8M244.08 334.8L245.04 335.56M245.04 335.56L245.73 336.58M245.73 336.58L246.09 337.75M246.09 337.75L246.09 338.97M246.09 338.97L245.73 340.14M245.73 340.14L245.04 341.16M245.04 341.16L244.08 341.92M244.08 341.92L242.94 342.37M242.94 342.37L241.72 342.46M241.72 342.46L240.52 342.19M240.52 342.19L239.46 341.57M239.46 341.57L238.63 340.68M238.63 340.68L238.1 339.57M238.1 339.57L237.91 338.36"
fill="none" stroke="black" stroke-width="2"/>
<path d="M270.87 319.5L271.65 318.62M271.65 318.62L272.15 317.57M272.15 317.57L272.34 316.41M272.34 316.41L272.19 315.25M272.19 315.25L271.72 314.18M271.72 314.18L270.97 313.28M270.97 313.28L269.99 312.64M269.99 312.64L268.87 312.29M268.87 312.29L267.7 312.27M267.7 312.27L266.58 312.58M266.58 312.58L265.58 313.2"
fill="none" stroke="black" stroke-width="2"/>
<path d="M244.67 341.51L270.87 319.5"
fill="none" stroke="black" stroke-width="2"/>
<path d="M239.38 335.21L265.58 313.2"
fill="none" stroke="black" stroke-width="2"/>
<path d="M255.13 282.58L267.31 313.01"
fill="none" stroke="black" stroke-width="2"/>
<path d="M255.13 282.58L243.86 332.71"
fill="none" stroke="black" stroke-width="2"/>
<path d="M255.13 282.58L255.13 167.2"
fill="none" stroke="black" stroke-width="2"/>
<path d="M306.42 316.5L306.6 315.29M306.6 315.29L307.14 314.18M307.14 314.18L307.97 313.29M307.97 313.29L309.03 312.67M309.03 312.67L310.23 312.4M310.23 312.4L311.45 312.49M311.45 312.49L312.59 312.94M312.59 312.94L313.55 313.7M313.55 313.7L314.24 314.72M314.24 314.72L314.6 315.89M314.6 315.89L314.6 317.11M314.6 317.11L314.24 318.28M314.24 318.28L313.55 319.29M313.55 319.29L312.59 320.06M312.59 320.06L311.45 320.51M311.45 320.51L310.23 320.6M310.23 320.6L309.03 320.33M309.03 320.33L307.97 319.71M307.97 319.71L307.14 318.81M307.14 318.81L306.6 317.71M306.6 317.71L306.42 316.5"
fill="none" stroke="black" stroke-width="2"/>
<path d="M339.38 297.63L340.16 296.76M340.16 296.76L340.66 295.71M340.66 295.71L340.84 294.55M340.84 294.55L340.7 293.39M340.7 293.39L340.23 292.32M340.23 292.32L339.47 291.42M339.47 291.42L338.5 290.78M338.5 290.78L337.38 290.43M337.38 290.43L336.21 290.41M336.21 290.41L335.08 290.72M335.08 290.72L334.09 291.34"
fill="none" stroke="black" stroke-width="2"/>
<path d="M313.18 319.65L339.38 297.63"
fill="none" stroke="black" stroke-width="2"/>
<path d="M307.89 313.35L334.09 291.34"
fill="none" stroke="black" stroke-width="2"/>
<path d="M323.63 260.72L335.82 291.15"
fill="none" stroke="black" stroke-width="2"/>
<path d="M323.63 260.72L312.36 310.85"
fill="none" stroke="black" stroke-width="2"/>
<path d="M323.63 260.72L323.63 162.21"
fill="none" stroke="black" stroke-width="2"/>
<path d="M371.82 339.19L372 337.98M372 337.98L372.53 336.88M372.53 336.88L373.36 335.98M373.36 335.98L374.42 335.36M374.42 335.36L375.62 335.09M375.62 335.09L376.84 335.18M376.84 335.18L377.98 335.63M377.98 335.63L378.94 336.4M378.94 336.4L379.63 337.41M379.63 337.41L379.99 338.58M379.99 338.58L379.99 339.8M379.99 339.8L379.63 340.97M379.63 340.97L378.94 341.99M378.94 341.99L377.98 342.75M377.98 342.75L376.84 343.2M376.84 343.2L375.62 343.29M375.62 343.29L374.42 343.02M374.42 343.02L373.36 342.4M373.36 342.4L372.53 341.51M372.53 341.51L372 340.4M372 340.4L371.82 339.19"
fill="none" stroke="black" stroke-width="2"/>
<path d="M404.77 320.33L405.55 319.45M405.55 319.45L406.05 318.4M406.05 318.4L406.24 317.24M406.24 317.24L406.09 316.08M406.09 316.08L405.62 315.01M405.62 315.01L404.87 314.11M404.87 314.11L403.89 313.47M403.89 313.47L402.78 313.12M402.78 313.12L401.61 313.1M401.61 313.1L400.48 313.42M400.48 313.42L399.48 314.03"
fill="none" stroke="black" stroke-width="2"/>
<path d="M378.57 342.34L404.77 320.33"
fill="none" stroke="black" stroke-width="2"/>
<path d="M373.28 336.04L399.48 314.03"
fill="none" stroke="black" stroke-width="2"/>
<path d="M389.03 283.41L401.21 313.84"
fill="none" stroke="black" stroke-width="2"/>
<path d="M389.03 283.41L377.76 333.54"
fill="none" stroke="black" stroke-width="2"/>
<path d="M389.03 283.41L389.03 168.88"
fill="none" stroke="black" stroke-width="2"/>
<path d="M444.99 319.53L445.18 318.32M445.18 318.32L445.71 317.22M445.71 317.22L446.54 316.32M446.54 316.32L447.6 315.71M447.6 315.71L448.8 315.43M448.8 315.43L450.02 315.52M450.02 315.52L451.16 315.97M451.16 315.97L452.12 316.74M452.12 316.74L452.81 317.75M452.81 317.75L453.17 318.92M453.17 318.92L453.17 320.14M453.17 320.14L452.81 321.32M452.81 321.32L452.12 322.33M452.12 322.33L451.16 323.09M451.16 323.09L450.02 323.54M450.02 323.54L448.8 323.63M448.8 323.63L447.6 323.36M447.6 323.36L446.54 322.75M446.54 322.75L445.71 321.85M445.71 321.85L445.18 320.74M445.18 320.74L444.99 319.53"
fill="none" stroke="black" stroke-width="2"/>
<path d="M477.95 300.67L478.73 299.79M478.73 299.79L479.23 298.74M479.23 298.74L479.42 297.58M479.42 297.58L479.27 296.42M479.27 296.42L478.8 295.35M478.8 295.35L478.05 294.46M478.05 294.46L477.07 293.81M477.07 293.81L475.95 293.46M475.95 293.46L474.78 293.44M474.78 293.44L473.66 293.76M473.66 293.76L472.66 294.37"
fill="none" stroke="black" stroke-width="2"/>
<path d="M451.75 322.68L477.95 300.67"
fill="none" stroke="black" stroke-width="2"/>
<path d="M446.46 316.38L472.66 294.37"
fill="none" stroke="black" stroke-width="2"/>
<path d="M462.21 263.76L474.39 294.18"
fill="none" stroke="black" stroke-width="2"/>
<path d="M462.21 263.76L450.94 313.88"
fill="none" stroke="black" stroke-width="2"/>
<path d="M462.21 263.76L462.21 162.37"
fill="none" stroke="black" stroke-width="2"/>
<path d="M515.06 338.67L515.24 337.46M515.24 337.46L515.77 336.36M515.77 336.36L516.61 335.46M516.61 335.46L517.67 334.85M517.67 334.85L518.86 334.57M518.86 334.57L520.08 334.66M520.08 334.66L521.22 335.11M521.22 335.11L522.18 335.88M522.18 335.88L522.87 336.89M522.87 336.89L523.23 338.06M523.23 338.06L523.23 339.28M523.23 339.28L522.87 340.45M522.87 340.45L522.18 341.47M522.18 341.47L521.22 342.23M521.22 342.23L520.08 342.68M520.08 342.68L518.86 342.77M518.86 342.77L517.67 342.5M517.67 342.5L516.61 341.89M516.61 341.89L515.77 340.99M515.77 340.99L515.24 339.88M515.24 339.88L515.06 338.67"
fill="none" stroke="black" stroke-width="2"/>
<path d="M548.01 319.81L548.79 318.93M548.79 318.93L549.3 317.88M549.3 317.88L549.48 316.72M549.48 316.72L549.33 315.56M549.33 315.56L548.86 314.49M548.86 314.49L548.11 313.59M548.11 313.59L547.13 312.95M547.13 312.95L546.02 312.6M546.02 312.6L544.85 312.58M544.85 312.58L543.72 312.9M543.72 312.9L542.73 313.51"
fill="none" stroke="black" stroke-width="2"/>
<path d="M521.81 341.82L548.01 319.81"
fill="none" stroke="black" stroke-width="2"/>
<path d="M516.52 335.52L542.73 313.51"
fill="none" stroke="black" stroke-width="2"/>
<path d="M532.27 282.9L544.46 313.32"
fill="none" stroke="black" stroke-width="2"/>
<path d="M532.27 282.9L521 333.02"
fill="none" stroke="black" stroke-width="2"/>
<path d="M532.27 282.9L532.27 167.66"
fill="none" stroke="black" stroke-width="2"/>
<path d="M589.53 318.25L589.71 317.04M589.71 317.04L590.24 315.94M590.24 315.94L591.08 315.04M591.08 315.04L592.14 314.42M592.14 314.42L593.33 314.15M593.33 314.15L594.56 314.24M594.56 314.24L595.7 314.69M595.7 314.69L596.65 315.45M596.65 315.45L597.35 316.47M597.35 316.47L597.71 317.64M597.71 317.64L597.71 318.86M597.71 318.86L597.35 320.03M597.35 320.03L596.65 321.05M596.65 321.05L595.7 321.81M595.7 321.81L594.56 322.26M594.56 322.26L593.33 322.35M593.33 322.35L592.14 322.08M592.14 322.08L591.08 321.46M591.08 321.46L590.24 320.57M590.24 320.57L589.71 319.46M589.71 319.46L589.53 318.25"
fill="none" stroke="black" stroke-width="2"/>
<path d="M622.49 299.39L623.27 298.51M623.27 298.51L623.77 297.46M623.77 297.46L623.95 296.3M623.95 296.3L623.8 295.14M623.8 295.14L623.33 294.07M623.33 294.07L622.58 293.17M622.58 293.17L621.61 292.53M621.61 292.53L620.49 292.18M620.49 292.18L619.32 292.16M619.32 292.16L618.19 292.47M618.19 292.47L617.2 293.09"
fill="none" stroke="black" stroke-width="2"/>
<path d="M596.29 321.4L622.49 299.39"
fill="none" stroke="black" stroke-width="2"/>
<path d="M591 315.1L617.2 293.09"
fill="none" stroke="black" stroke-width="2"/>
<path d="M606.74 262.47L618.93 292.9"
fill="none" stroke="black" stroke-width="2"/>
<path d="M606.74 262.47L595.47 312.6"
fill="none" stroke="black" stroke-width="2"/>
<path d="M606.74 262.47L606.74 161.09"
fill="none" stroke="black" stroke-width="2"/>
<path d="M666.03 336.07L666.21 334.86M666.21 334.86L666.74 333.76M666.74 333.76L667.58 332.86M667.58 332.86L668.64 332.25M668.64 332.25L669.83 331.98M669.83 331.98L671.05 332.07M671.05 332.07L672.2 332.52M672.2 332.52L673.15 333.28M673.15 333.28L673.84 334.29M673.84 334.29L674.2 335.46M674.2 335.46L674.2 336.69M674.2 336.69L673.84 337.86M673.84 337.86L673.15 338.87M673.15 338.87L672.2 339.63M672.2 339.63L671.05 340.08M671.05 340.08L669.83 340.17M669.83 340.17L668.64 339.9M668.64 339.9L667.58 339.29M667.58 339.29L666.74 338.39M666.74 338.39L666.21 337.29M666.21 337.29L666.03 336.07"
fill="none" stroke="black" stroke-width="2"/>
<path d="M698.99 317.21L699.77 316.34M699.77 316.34L700.27 315.28M700.27 315.28L700.45 314.13M700.45 314.13L700.3 312.97M700.3 312.97L699.83 311.89M699.83 311.89L699.08 311M699.08 311L698.11 310.35M698.11 310.35L696.99 310M696.99 310L695.82 309.99M695.82 309.99L694.69 310.3M694.69 310.3L693.7 310.92"
fill="none" stroke="black" stroke-width="2"/>
<path d="M672.78 339.22L698.99 317.21"
fill="none" stroke="black" stroke-width="2"/>
<path d="M667.5 332.93L693.7 310.92"
fill="none" stroke="black" stroke-width="2"/>
<path d="M683.24 280.3L695.43 310.72"
fill="none" stroke="black" stroke-width="2"/>
<path d="M683.24 280.3L671.97 330.43"
fill="none" stroke="black" stroke-width="2"/>
<path d="M683.24 280.3L683.24 162.99"
fill="none" stroke="black" stroke-width="2"/>
<path d="M2.82 156.6L52.46 159.45M52.46 159.45L102.11 161.93M102.11 161.93L151.77 164.03M151.77 164.03L201.46 165.75M201.46 165.75L251.15 167.1M251.15 167.1L300.85 168.07M300.85 168.07L350.56 168.67M350.56 168.67L400.27 168.89M400.27 168.89L449.98 168.73M449.98 168.73L499.69 168.2M499.69 168.2L549.4 167.29M549.4 167.29L599.09 166.01M599.09 166.01L648.78 164.34M648.78 164.34L698.45 162.31M698.45 162.31L748.1 159.89M748.1 159.89L797.74 157.1"
fill="none" stroke="RGB(2,158,33)" stroke-width="2"/>
<path d="M2.82 156.6L91.13 158.87M91.13 158.87L179.45 160.58M179.45 160.58L267.78 161.75M267.78 161.75L356.11 162.36M356.11 162.36L444.44 162.41M444.44 162.41L532.78 161.92M532.78 161.92L621.11 160.87M621.11 160.87L709.43 159.26M709.43 159.26L797.74 157.1"
fill="none" stroke="RGB(2,158,33)" stroke-width="2"/>
</svg>
