<?xml version="1.0" encoding="UTF-8"?>
<svg xmlns="http://www.w3.org/2000/svg" width="800.000" height="600.000" viewBox="0.0 0.0 800.000 600.000" version="1.1">
  <title>Produce by Acme CAD Converter</title>
  <desc>Produce by Acme CAD Converter</desc>
<path d="M2.26 80.25L2.26 519.75"
fill="none" stroke="black" stroke-width="0"/>
<path d="M2.7 316.01L68.92 318.37M68.92 318.37L135.16 320.32M135.16 320.32L201.41 321.86M201.41 321.86L267.67 322.99M267.67 322.99L333.94 323.71M333.94 323.71L400.2 324.02M400.2 324.02L466.47 323.92M466.47 323.92L532.74 323.4M532.74 323.4L599 322.48M599 322.48L665.26 321.15M665.26 321.15L731.5 319.41M731.5 319.41L797.74 317.26"
fill="none" stroke="RGB(2,158,33)" stroke-width="2"/>
<path d="M2.26 300L68.49 302.36M68.49 302.36L134.73 304.31M134.73 304.31L200.98 305.85M200.98 305.85L267.24 306.98M267.24 306.98L333.5 307.7M333.5 307.7L399.77 308M399.77 308L466.04 307.9M466.04 307.9L532.31 307.39M532.31 307.39L598.57 306.47M598.57 306.47L664.82 305.14M664.82 305.14L731.07 303.4M731.07 303.4L797.3 301.25"
fill="none" stroke="RGB(2,158,33)" stroke-width="2"/>
<path d="M123.98 320.02L125.17 317.95M125.17 317.95L126.06 315.74M126.06 315.74L126.63 313.43M126.63 313.43L126.87 311.06M126.87 311.06L126.78 308.67M126.78 308.67L126.36 306.33M126.36 306.33L125.62 304.06"
fill="none" stroke="black" stroke-width="2"/>
<path d="M158.34 320.91L159.57 318.86M159.57 318.86L160.51 316.66M160.51 316.66L161.12 314.35M161.12 314.35L161.42 311.98M161.42 311.98L161.37 309.59M161.37 309.59L161 307.23M161 307.23L160.3 304.95"
fill="none" stroke="black" stroke-width="2"/>
<path d="M192.74 321.68L194.09 319.69M194.09 319.69L195.15 317.53M195.15 317.53L195.9 315.24M195.9 315.24L196.32 312.87M196.32 312.87L196.4 310.46M196.4 310.46L196.14 308.07M196.14 308.07L195.55 305.74"
fill="none" stroke="black" stroke-width="2"/>
<path d="M224.6 322.3L225.89 320.28M225.89 320.28L226.88 318.09M226.88 318.09L227.55 315.79M227.55 315.79L227.89 313.42M227.89 313.42L227.9 311.02M227.9 311.02L227.58 308.64M227.58 308.64L226.92 306.34"
fill="none" stroke="black" stroke-width="2"/>
<path d="M254.82 322.8L256.11 320.77M256.11 320.77L257.09 318.59M257.09 318.59L257.76 316.28M257.76 316.28L258.1 313.91M258.1 313.91L258.1 311.51M258.1 311.51L257.77 309.14M257.77 309.14L257.11 306.83"
fill="none" stroke="black" stroke-width="2"/>
<path d="M285.56 323.22L286.78 321.17M286.78 321.17L287.71 318.96M287.71 318.96L288.32 316.65M288.32 316.65L288.6 314.27M288.6 314.27L288.54 311.88M288.54 311.88L288.15 309.52M288.15 309.52L287.43 307.24"
fill="none" stroke="black" stroke-width="2"/>
<path d="M314.55 323.54L315.78 321.49M315.78 321.49L316.72 319.29M316.72 319.29L317.34 316.97M317.34 316.97L317.64 314.6M317.64 314.6L317.59 312.2M317.59 312.2L317.21 309.84M317.21 309.84L316.51 307.55"
fill="none" stroke="black" stroke-width="2"/>
<path d="M349.32 323.82L350.6 321.78M350.6 321.78L351.59 319.59M351.59 319.59L352.26 317.29M352.26 317.29L352.59 314.91M352.59 314.91L352.59 312.51M352.59 312.51L352.25 310.13M352.25 310.13L351.59 307.82"
fill="none" stroke="black" stroke-width="2"/>
<path d="M381.47 323.97L382.61 321.88M382.61 321.88L383.45 319.64M383.45 319.64L383.97 317.31M383.97 317.31L384.16 314.93M384.16 314.93L384.02 312.55M384.02 312.55L383.54 310.21M383.54 310.21L382.75 307.96"
fill="none" stroke="black" stroke-width="2"/>
<path d="M411.96 324.03L413.04 321.9M413.04 321.9L413.8 319.65M413.8 319.65L414.25 317.31M414.25 317.31L414.36 314.93M414.36 314.93L414.14 312.56M414.14 312.56L413.6 310.24M413.6 310.24L412.74 308.02"
fill="none" stroke="black" stroke-width="2"/>
<path d="M442.89 324L443.85 321.82M443.85 321.82L444.49 319.53M444.49 319.53L444.8 317.17M444.8 317.17L444.79 314.79M444.79 314.79L444.44 312.44M444.44 312.44L443.77 310.15M443.77 310.15L442.79 307.99"
fill="none" stroke="black" stroke-width="2"/>
<path d="M472.31 323.89L473.6 321.86M473.6 321.86L474.6 319.66M474.6 319.66L475.28 317.35M475.28 317.35L475.62 314.97M475.62 314.97L475.63 312.56M475.63 312.56L475.3 310.18M475.3 310.18L474.64 307.86"
fill="none" stroke="black" stroke-width="2"/>
<path d="M507.46 323.65L508.71 321.6M508.71 321.6L509.67 319.39M509.67 319.39L510.31 317.08M510.31 317.08L510.62 314.69M510.62 314.69L510.59 312.29M510.59 312.29L510.22 309.91M510.22 309.91L509.52 307.61"
fill="none" stroke="black" stroke-width="2"/>
<path d="M539.88 323.32L540.92 321.18M540.92 321.18L541.66 318.92M541.66 318.92L542.08 316.57M542.08 316.57L542.16 314.19M542.16 314.19L541.92 311.82M541.92 311.82L541.34 309.51M541.34 309.51L540.45 307.3"
fill="none" stroke="black" stroke-width="2"/>
<path d="M570.58 322.93L571.49 320.73M571.49 320.73L572.09 318.43M572.09 318.43L572.36 316.06M572.36 316.06L572.3 313.68M572.3 313.68L571.91 311.34M571.91 311.34L571.2 309.07M571.2 309.07L570.18 306.92"
fill="none" stroke="black" stroke-width="2"/>
<path d="M601.62 322.44L602.35 320.16M602.35 320.16L602.76 317.81M602.76 317.81L602.83 315.42M602.83 315.42L602.57 313.04M602.57 313.04L601.98 310.72M601.98 310.72L601.07 308.51M601.07 308.51L599.86 306.45"
fill="none" stroke="black" stroke-width="2"/>
<path d="M628.39 321.94L629.54 319.84M629.54 319.84L630.38 317.61M630.38 317.61L630.91 315.27M630.91 315.27L631.1 312.89M631.1 312.89L630.96 310.5M630.96 310.5L630.48 308.15M630.48 308.15L629.68 305.9"
fill="none" stroke="black" stroke-width="2"/>
<path d="M656.22 321.36L657.62 319.36M657.62 319.36L658.72 317.19M658.72 317.19L659.5 314.88M659.5 314.88L659.94 312.49M659.94 312.49L660.04 310.05M660.04 310.05L659.79 307.63M659.79 307.63L659.2 305.27"
fill="none" stroke="black" stroke-width="2"/>
<path d="M126.79 312.25L193.4 313.79M193.4 313.79L260.02 314.94M260.02 314.94L326.64 315.71M326.64 315.71L393.27 316.08M393.27 316.08L459.9 316.07M459.9 316.07L526.52 315.67M526.52 315.67L593.15 314.87M593.15 314.87L659.76 313.69"
fill="none" stroke="black" stroke-width="2"/>
</svg>
