<?xml version="1.0" encoding="UTF-8"?>
<svg xmlns="http://www.w3.org/2000/svg" width="800.000" height="600.000" viewBox="0.0 0.0 800.000 600.000" version="1.1">
  <title>Produce by Acme CAD Converter</title>
  <desc>Produce by Acme CAD Converter</desc>
<path d="M2.26 80.73L2.26 519.27"
fill="none" stroke="RGB(237,31,36)" stroke-width="0"/>
<path d="M2.82 156.6L44.69 159.03M44.69 159.03L86.57 161.19M86.57 161.19L128.47 163.09M128.47 163.09L170.38 164.72"
fill="none" stroke="RGB(2,158,33)" stroke-width="2"/>
<path d="M185.04 165.22L227.95 166.52M227.95 166.52L270.86 167.53"
fill="none" stroke="RGB(2,158,33)" stroke-width="2"/>
<path d="M285.58 167.81L327.32 168.44M327.32 168.44L369.06 168.79"
fill="none" stroke="RGB(2,158,33)" stroke-width="2"/>
<path d="M383.83 168.86L427.25 168.85M427.25 168.85L470.66 168.56"
fill="none" stroke="RGB(2,158,33)" stroke-width="2"/>
<path d="M485.49 168.39L530.52 167.68M530.52 167.68L575.55 166.66"
fill="none" stroke="RGB(2,158,33)" stroke-width="2"/>
<path d="M590.45 166.25L631.89 164.95M631.89 164.95L673.33 163.38"
fill="none" stroke="RGB(2,158,33)" stroke-width="2"/>
<path d="M688.28 162.75L724.77 161.07M724.77 161.07L761.26 159.19M761.26 159.19L797.74 157.1"
fill="none" stroke="RGB(2,158,33)" stroke-width="2"/>
<path d="M2.82 156.6L87.13 158.78M87.13 158.78L171.46 160.45"
fill="none" stroke="RGB(2,158,33)" stroke-width="2"/>
<path d="M185.75 160.68L193.46 160.8"
fill="none" stroke="RGB(2,158,33)" stroke-width="2"/>
<path d="M207.79 161.02L272.47 161.79"
fill="none" stroke="RGB(2,158,33)" stroke-width="2"/>
<path d="M285.82 161.92L294.1 161.99"
fill="none" stroke="RGB(2,158,33)" stroke-width="2"/>
<path d="M308.44 162.1L370.86 162.4"
fill="none" stroke="RGB(2,158,33)" stroke-width="2"/>
<path d="M384.18 162.43L392.48 162.45"
fill="none" stroke="RGB(2,158,33)" stroke-width="2"/>
<path d="M406.83 162.46L473.1 162.31"
fill="none" stroke="RGB(2,158,33)" stroke-width="2"/>
<path d="M486.58 162.24L494.31 162.2"
fill="none" stroke="RGB(2,158,33)" stroke-width="2"/>
<path d="M508.65 162.11L577.77 161.45"
fill="none" stroke="RGB(2,158,33)" stroke-width="2"/>
<path d="M591.2 161.28L598.95 161.18"
fill="none" stroke="RGB(2,158,33)" stroke-width="2"/>
<path d="M613.3 160.98L674.19 159.97"
fill="none" stroke="RGB(2,158,33)" stroke-width="2"/>
<path d="M688.68 159.69L743.21 158.5M743.21 158.5L797.74 157.1"
fill="none" stroke="RGB(2,158,33)" stroke-width="2"/>
<path d="M5.2 315.98L47.21 317.29M47.21 317.29L89.23 318.42M89.23 318.42L131.25 319.38"
fill="none" stroke="RGB(2,158,33)" stroke-width="2"/>
<path d="M145.97 319.67L190.25 320.4"
fill="none" stroke="RGB(2,158,33)" stroke-width="2"/>
<path d="M204.59 320.6L232.05 320.92"
fill="none" stroke="RGB(2,158,33)" stroke-width="2"/>
<path d="M246.81 321.06L290.9 321.33"
fill="none" stroke="RGB(2,158,33)" stroke-width="2"/>
<path d="M305.24 321.38L330.44 321.41"
fill="none" stroke="RGB(2,158,33)" stroke-width="2"/>
<path d="M345.24 321.4L389.29 321.24"
fill="none" stroke="RGB(2,158,33)" stroke-width="2"/>
<path d="M403.64 321.14L432.12 320.88"
fill="none" stroke="RGB(2,158,33)" stroke-width="2"/>
<path d="M446.95 320.72L491.13 320.09"
fill="none" stroke="RGB(2,158,33)" stroke-width="2"/>
<path d="M505.48 319.84L536.95 319.22"
fill="none" stroke="RGB(2,158,33)" stroke-width="2"/>
<path d="M551.83 318.89L595.81 317.79"
fill="none" stroke="RGB(2,158,33)" stroke-width="2"/>
<path d="M610.16 317.39L634.55 316.66"
fill="none" stroke="RGB(2,158,33)" stroke-width="2"/>
<path d="M655.62 315.98L702.9 314.28M702.9 314.28L750.17 312.35M750.17 312.35L797.44 310.2"
fill="none" stroke="RGB(2,158,33)" stroke-width="2"/>
<path d="M171.98 158.38L130.83 321.03"
fill="none" stroke="black" stroke-width="2"/>
<path d="M185.91 161.77L185.79 160.82M185.79 160.82L185.31 159.84M185.31 159.84L184.49 158.89M184.49 158.89L183.38 158.03M183.38 158.03L182.04 157.28M182.04 157.28L180.54 156.7M180.54 156.7L178.94 156.31M178.94 156.31L177.35 156.14M177.35 156.14L175.83 156.19M175.83 156.19L174.47 156.45M174.47 156.45L173.34 156.93M173.34 156.93L172.49 157.58M172.49 157.58L171.98 158.38"
fill="none" stroke="black" stroke-width="2"/>
<path d="M171.84 158.94L171.91 159.89M171.91 159.89L172.34 160.86M172.34 160.86L173.11 161.82M173.11 161.82L174.18 162.7M174.18 162.7L175.49 163.46M175.49 163.46L176.98 164.07M176.98 164.07L178.57 164.48M178.57 164.48L180.17 164.69M180.17 164.69L181.7 164.67M181.7 164.67L183.09 164.44M183.09 164.44L184.26 163.99M184.26 163.99L185.15 163.36M185.15 163.36L185.71 162.58"
fill="none" stroke="black" stroke-width="2"/>
<path d="M185.91 161.77L144.7 324.67"
fill="none" stroke="black" stroke-width="2"/>
<path d="M130.83 321.03L130.9 321.98M130.9 321.98L131.33 322.96M131.33 322.96L132.1 323.91M132.1 323.91L133.17 324.79M133.17 324.79L134.48 325.55M134.48 325.55L135.97 326.16M135.97 326.16L137.56 326.58M137.56 326.58L139.16 326.78M139.16 326.78L140.69 326.77M140.69 326.77L142.08 326.53M142.08 326.53L143.25 326.08M143.25 326.08L144.14 325.46M144.14 325.46L144.7 324.67"
fill="none" stroke="black" stroke-width="2"/>
<path d="M177.82 164.31L177.95 164.35"
fill="none" stroke="black" stroke-width="2"/>
<path d="M207.9 155.73L204.53 323.47"
fill="none" stroke="black" stroke-width="2"/>
<path d="M193.57 155.31L193.94 154.42M193.94 154.42L194.66 153.61M194.66 153.61L195.7 152.91M195.7 152.91L197 152.37M197 152.37L198.49 152.01M198.49 152.01L200.09 151.85M200.09 151.85L201.73 151.89M201.73 151.89L203.32 152.15M203.32 152.15L204.77 152.59M204.77 152.59L206.01 153.21M206.01 153.21L206.98 153.97M206.98 153.97L207.62 154.82M207.62 154.82L207.9 155.73"
fill="none" stroke="black" stroke-width="2"/>
<path d="M207.89 156.3L207.57 157.2M207.57 157.2L206.89 158.03M206.89 158.03L205.9 158.74M205.9 158.74L204.63 159.31M204.63 159.31L203.17 159.7M203.17 159.7L201.57 159.89M201.57 159.89L199.93 159.87M199.93 159.87L198.33 159.64M198.33 159.64L196.86 159.22M196.86 159.22L195.58 158.63M195.58 158.63L194.58 157.89M194.58 157.89L193.89 157.05M193.89 157.05L193.55 156.14"
fill="none" stroke="black" stroke-width="2"/>
<path d="M193.57 155.31L190.19 323.31"
fill="none" stroke="black" stroke-width="2"/>
<path d="M204.53 323.47L204.21 324.36M204.21 324.36L203.53 325.19M203.53 325.19L202.54 325.91M202.54 325.91L201.27 326.47M201.27 326.47L199.81 326.86M199.81 326.86L198.21 327.05M198.21 327.05L196.57 327.03M196.57 327.03L194.97 326.81M194.97 326.81L193.5 326.39M193.5 326.39L192.22 325.79M192.22 325.79L191.22 325.06M191.22 325.06L190.53 324.21M190.53 324.21L190.19 323.31"
fill="none" stroke="black" stroke-width="2"/>
<path d="M200.7 159.9L200.57 159.9"
fill="none" stroke="black" stroke-width="2"/>
<path d="M272.61 160.62L231.45 323.27"
fill="none" stroke="black" stroke-width="2"/>
<path d="M286.54 164.01L286.42 163.05M286.42 163.05L285.93 162.08M285.93 162.08L285.12 161.13M285.12 161.13L284.01 160.26M284.01 160.26L282.67 159.52M282.67 159.52L281.16 158.94M281.16 158.94L279.57 158.55M279.57 158.55L277.97 158.38M277.97 158.38L276.46 158.43M276.46 158.43L275.1 158.69M275.1 158.69L273.96 159.16M273.96 159.16L273.12 159.82M273.12 159.82L272.61 160.62"
fill="none" stroke="black" stroke-width="2"/>
<path d="M272.46 161.17L272.54 162.12M272.54 162.12L272.97 163.1M272.97 163.1L273.74 164.05M273.74 164.05L274.81 164.94M274.81 164.94L276.12 165.7M276.12 165.7L277.61 166.3M277.61 166.3L279.19 166.72M279.19 166.72L280.8 166.93M280.8 166.93L282.33 166.91M282.33 166.91L283.72 166.67M283.72 166.67L284.88 166.23M284.88 166.23L285.77 165.6M285.77 165.6L286.34 164.82"
fill="none" stroke="black" stroke-width="2"/>
<path d="M286.54 164.01L245.33 326.91"
fill="none" stroke="black" stroke-width="2"/>
<path d="M231.45 323.27L231.53 324.22M231.53 324.22L231.96 325.19M231.96 325.19L232.73 326.15M232.73 326.15L233.8 327.03M233.8 327.03L235.11 327.79M235.11 327.79L236.6 328.4M236.6 328.4L238.18 328.81M238.18 328.81L239.78 329.02M239.78 329.02L241.32 329M241.32 329L242.71 328.77M242.71 328.77L243.87 328.32M243.87 328.32L244.76 327.69M244.76 327.69L245.33 326.91"
fill="none" stroke="black" stroke-width="2"/>
<path d="M278.44 166.55L278.57 166.58"
fill="none" stroke="black" stroke-width="2"/>
<path d="M308.53 157.97L305.16 325.7"
fill="none" stroke="black" stroke-width="2"/>
<path d="M294.19 157.55L294.56 156.66M294.56 156.66L295.29 155.85M295.29 155.85L296.32 155.15M296.32 155.15L297.62 154.61M297.62 154.61L299.11 154.24M299.11 154.24L300.72 154.08M300.72 154.08L302.36 154.13M302.36 154.13L303.94 154.39M303.94 154.39L305.39 154.83M305.39 154.83L306.64 155.45M306.64 155.45L307.6 156.2M307.6 156.2L308.24 157.06M308.24 157.06L308.53 157.97"
fill="none" stroke="black" stroke-width="2"/>
<path d="M308.52 158.54L308.2 159.44M308.2 159.44L307.52 160.26M307.52 160.26L306.52 160.98M306.52 160.98L305.26 161.55M305.26 161.55L303.79 161.94M303.79 161.94L302.2 162.13M302.2 162.13L300.56 162.11M300.56 162.11L298.96 161.88M298.96 161.88L297.48 161.46M297.48 161.46L296.21 160.87M296.21 160.87L295.2 160.13M295.2 160.13L294.51 159.29M294.51 159.29L294.18 158.38"
fill="none" stroke="black" stroke-width="2"/>
<path d="M294.19 157.55L290.82 325.55"
fill="none" stroke="black" stroke-width="2"/>
<path d="M305.16 325.7L304.84 326.6M304.84 326.6L304.16 327.43M304.16 327.43L303.16 328.14M303.16 328.14L301.9 328.71M301.9 328.71L300.43 329.1M300.43 329.1L298.84 329.29M298.84 329.29L297.2 329.27M297.2 329.27L295.6 329.05M295.6 329.05L294.13 328.63M294.13 328.63L292.85 328.03M292.85 328.03L291.84 327.29M291.84 327.29L291.15 326.45M291.15 326.45L290.82 325.55"
fill="none" stroke="black" stroke-width="2"/>
<path d="M301.33 162.14L301.2 162.14"
fill="none" stroke="black" stroke-width="2"/>
<path d="M370.98 161.17L329.83 323.82"
fill="none" stroke="black" stroke-width="2"/>
<path d="M384.92 164.56L384.8 163.61M384.8 163.61L384.31 162.63M384.31 162.63L383.5 161.68M383.5 161.68L382.39 160.82M382.39 160.82L381.05 160.07M381.05 160.07L379.54 159.49M379.54 159.49L377.95 159.1M377.95 159.1L376.35 158.93M376.35 158.93L374.84 158.98M374.84 158.98L373.48 159.24M373.48 159.24L372.34 159.72M372.34 159.72L371.5 160.37M371.5 160.37L370.98 161.17"
fill="none" stroke="black" stroke-width="2"/>
<path d="M370.84 161.73L370.92 162.68M370.92 162.68L371.35 163.65M371.35 163.65L372.12 164.61M372.12 164.61L373.19 165.49M373.19 165.49L374.5 166.25M374.5 166.25L375.99 166.86M375.99 166.86L377.57 167.27M377.57 167.27L379.17 167.48M379.17 167.48L380.71 167.46M380.71 167.46L382.1 167.23M382.1 167.23L383.26 166.78M383.26 166.78L384.15 166.15M384.15 166.15L384.72 165.37"
fill="none" stroke="black" stroke-width="2"/>
<path d="M384.92 164.56L343.7 327.46"
fill="none" stroke="black" stroke-width="2"/>
<path d="M329.83 323.82L329.9 324.77M329.9 324.77L330.34 325.75M330.34 325.75L331.11 326.7M331.11 326.7L332.18 327.58M332.18 327.58L333.49 328.34M333.49 328.34L334.98 328.95M334.98 328.95L336.56 329.37M336.56 329.37L338.16 329.57M338.16 329.57L339.7 329.56M339.7 329.56L341.08 329.32M341.08 329.32L342.25 328.87M342.25 328.87L343.14 328.25M343.14 328.25L343.7 327.46"
fill="none" stroke="black" stroke-width="2"/>
<path d="M376.82 167.1L376.95 167.14"
fill="none" stroke="black" stroke-width="2"/>
<path d="M406.91 158.52L403.54 326.26"
fill="none" stroke="black" stroke-width="2"/>
<path d="M392.57 158.1L392.94 157.21M392.94 157.21L393.67 156.4M393.67 156.4L394.7 155.7M394.7 155.7L396 155.16M396 155.16L397.49 154.8M397.49 154.8L399.1 154.64M399.1 154.64L400.74 154.68M400.74 154.68L402.32 154.94M402.32 154.94L403.77 155.38M403.77 155.38L405.02 156M405.02 156L405.98 156.76M405.98 156.76L406.62 157.61M406.62 157.61L406.91 158.52"
fill="none" stroke="black" stroke-width="2"/>
<path d="M406.9 159.09L406.58 159.99M406.58 159.99L405.9 160.82M405.9 160.82L404.9 161.53M404.9 161.53L403.64 162.1M403.64 162.1L402.17 162.49M402.17 162.49L400.58 162.68M400.58 162.68L398.94 162.66M398.94 162.66L397.34 162.43M397.34 162.43L395.86 162.01M395.86 162.01L394.59 161.42M394.59 161.42L393.58 160.68M393.58 160.68L392.89 159.84M392.89 159.84L392.55 158.93"
fill="none" stroke="black" stroke-width="2"/>
<path d="M392.57 158.1L389.19 326.1"
fill="none" stroke="black" stroke-width="2"/>
<path d="M403.54 326.26L403.22 327.15M403.22 327.15L402.54 327.98M402.54 327.98L401.54 328.7M401.54 328.7L400.28 329.26M400.28 329.26L398.81 329.65M398.81 329.65L397.22 329.84M397.22 329.84L395.58 329.82M395.58 329.82L393.98 329.6M393.98 329.6L392.5 329.18M392.5 329.18L391.23 328.58M391.23 328.58L390.22 327.85M390.22 327.85L389.53 327M389.53 327L389.19 326.1"
fill="none" stroke="black" stroke-width="2"/>
<path d="M399.71 162.69L399.57 162.69"
fill="none" stroke="black" stroke-width="2"/>
<path d="M472.83 159.98L431.68 322.63"
fill="none" stroke="black" stroke-width="2"/>
<path d="M486.76 163.37L486.64 162.41M486.64 162.41L486.16 161.44M486.16 161.44L485.34 160.49M485.34 160.49L484.23 159.62M484.23 159.62L482.89 158.88M482.89 158.88L481.38 158.3M481.38 158.3L479.79 157.91M479.79 157.91L478.19 157.74M478.19 157.74L476.68 157.79M476.68 157.79L475.32 158.05M475.32 158.05L474.19 158.53M474.19 158.53L473.34 159.18M473.34 159.18L472.83 159.98"
fill="none" stroke="black" stroke-width="2"/>
<path d="M472.69 160.54L472.76 161.48M472.76 161.48L473.19 162.46M473.19 162.46L473.96 163.42M473.96 163.42L475.03 164.3M475.03 164.3L476.34 165.06M476.34 165.06L477.83 165.67M477.83 165.67L479.42 166.08M479.42 166.08L481.02 166.29M481.02 166.29L482.55 166.27M482.55 166.27L483.94 166.04M483.94 166.04L485.11 165.59M485.11 165.59L485.99 164.96M485.99 164.96L486.56 164.18"
fill="none" stroke="black" stroke-width="2"/>
<path d="M486.76 163.37L445.55 326.27"
fill="none" stroke="black" stroke-width="2"/>
<path d="M431.68 322.63L431.75 323.58M431.75 323.58L432.18 324.55M432.18 324.55L432.95 325.51M432.95 325.51L434.02 326.39M434.02 326.39L435.33 327.15M435.33 327.15L436.82 327.76M436.82 327.76L438.4 328.17M438.4 328.17L440.01 328.38M440.01 328.38L441.54 328.36M441.54 328.36L442.93 328.13M442.93 328.13L444.09 327.68M444.09 327.68L444.98 327.05M444.98 327.05L445.55 326.27"
fill="none" stroke="black" stroke-width="2"/>
<path d="M478.66 165.91L478.79 165.94"
fill="none" stroke="black" stroke-width="2"/>
<path d="M508.75 157.33L505.38 325.07"
fill="none" stroke="black" stroke-width="2"/>
<path d="M494.41 156.91L494.79 156.02M494.79 156.02L495.51 155.21M495.51 155.21L496.55 154.51M496.55 154.51L497.84 153.97M497.84 153.97L499.33 153.6M499.33 153.6L500.94 153.44M500.94 153.44L502.58 153.49M502.58 153.49L504.17 153.75M504.17 153.75L505.62 154.19M505.62 154.19L506.86 154.81M506.86 154.81L507.82 155.57M507.82 155.57L508.46 156.42M508.46 156.42L508.75 157.33"
fill="none" stroke="black" stroke-width="2"/>
<path d="M508.74 157.9L508.42 158.8M508.42 158.8L507.74 159.62M507.74 159.62L506.75 160.34M506.75 160.34L505.48 160.91M505.48 160.91L504.01 161.3M504.01 161.3L502.42 161.49M502.42 161.49L500.78 161.47M500.78 161.47L499.18 161.24M499.18 161.24L497.71 160.82M497.71 160.82L496.43 160.23M496.43 160.23L495.42 159.49M495.42 159.49L494.73 158.65M494.73 158.65L494.4 157.74"
fill="none" stroke="black" stroke-width="2"/>
<path d="M494.41 156.91L491.04 324.91"
fill="none" stroke="black" stroke-width="2"/>
<path d="M505.38 325.07L505.06 325.96M505.06 325.96L504.38 326.79M504.38 326.79L503.39 327.51M503.39 327.51L502.12 328.07M502.12 328.07L500.65 328.46M500.65 328.46L499.06 328.65M499.06 328.65L497.42 328.63M497.42 328.63L495.82 328.41M495.82 328.41L494.35 327.99M494.35 327.99L493.07 327.39M493.07 327.39L492.06 326.65M492.06 326.65L491.37 325.81M491.37 325.81L491.04 324.91"
fill="none" stroke="black" stroke-width="2"/>
<path d="M501.55 161.5L501.42 161.5"
fill="none" stroke="black" stroke-width="2"/>
<path d="M577.47 159.08L536.32 321.73"
fill="none" stroke="black" stroke-width="2"/>
<path d="M591.41 162.47L591.28 161.51M591.28 161.51L590.8 160.54M590.8 160.54L589.98 159.59M589.98 159.59L588.88 158.72M588.88 158.72L587.53 157.98M587.53 157.98L586.03 157.4M586.03 157.4L584.43 157.01M584.43 157.01L582.84 156.84M582.84 156.84L581.32 156.89M581.32 156.89L579.96 157.15M579.96 157.15L578.83 157.62M578.83 157.62L577.98 158.28M577.98 158.28L577.47 159.08"
fill="none" stroke="black" stroke-width="2"/>
<path d="M577.33 159.63L577.4 160.58M577.4 160.58L577.83 161.56M577.83 161.56L578.6 162.51M578.6 162.51L579.67 163.4M579.67 163.4L580.99 164.16M580.99 164.16L582.47 164.76M582.47 164.76L584.06 165.18M584.06 165.18L585.66 165.39M585.66 165.39L587.19 165.37M587.19 165.37L588.58 165.13M588.58 165.13L589.75 164.69M589.75 164.69L590.64 164.06M590.64 164.06L591.2 163.28"
fill="none" stroke="black" stroke-width="2"/>
<path d="M591.41 162.47L550.19 325.37"
fill="none" stroke="black" stroke-width="2"/>
<path d="M536.32 321.73L536.39 322.68M536.39 322.68L536.82 323.65M536.82 323.65L537.59 324.61M537.59 324.61L538.66 325.49M538.66 325.49L539.98 326.25M539.98 326.25L541.46 326.86M541.46 326.86L543.05 327.27M543.05 327.27L544.65 327.48M544.65 327.48L546.18 327.46M546.18 327.46L547.57 327.23M547.57 327.23L548.74 326.78M548.74 326.78L549.63 326.15M549.63 326.15L550.19 325.37"
fill="none" stroke="black" stroke-width="2"/>
<path d="M583.31 165.01L583.44 165.04"
fill="none" stroke="black" stroke-width="2"/>
<path d="M613.39 156.43L610.02 324.16"
fill="none" stroke="black" stroke-width="2"/>
<path d="M599.06 156.01L599.43 155.12M599.43 155.12L600.15 154.31M600.15 154.31L601.19 153.61M601.19 153.61L602.49 153.07M602.49 153.07L603.98 152.7M603.98 152.7L605.58 152.54M605.58 152.54L607.22 152.59M607.22 152.59L608.81 152.84M608.81 152.84L610.26 153.29M610.26 153.29L611.5 153.91M611.5 153.91L612.47 154.66M612.47 154.66L613.11 155.52M613.11 155.52L613.39 156.43"
fill="none" stroke="black" stroke-width="2"/>
<path d="M613.38 157L613.06 157.9M613.06 157.9L612.39 158.72M612.39 158.72L611.39 159.44M611.39 159.44L610.12 160.01M610.12 160.01L608.66 160.39M608.66 160.39L607.06 160.59M607.06 160.59L605.42 160.57M605.42 160.57L603.82 160.34M603.82 160.34L602.35 159.92M602.35 159.92L601.08 159.33M601.08 159.33L600.07 158.59M600.07 158.59L599.38 157.75M599.38 157.75L599.04 156.84"
fill="none" stroke="black" stroke-width="2"/>
<path d="M599.06 156.01L595.68 324.01"
fill="none" stroke="black" stroke-width="2"/>
<path d="M610.02 324.16L609.7 325.06M609.7 325.06L609.03 325.89M609.03 325.89L608.03 326.6M608.03 326.6L606.77 327.17M606.77 327.17L605.3 327.56M605.3 327.56L603.7 327.75M603.7 327.75L602.06 327.73M602.06 327.73L600.47 327.51M600.47 327.51L598.99 327.09M598.99 327.09L597.72 326.49M597.72 326.49L596.71 325.75M596.71 325.75L596.02 324.91M596.02 324.91L595.68 324.01"
fill="none" stroke="black" stroke-width="2"/>
<path d="M606.19 160.6L606.06 160.6"
fill="none" stroke="black" stroke-width="2"/>
<path d="M674.87 157.28L633.72 319.93"
fill="none" stroke="black" stroke-width="2"/>
<path d="M688.81 160.67L688.68 159.71M688.68 159.71L688.2 158.73M688.2 158.73L687.38 157.79M687.38 157.79L686.28 156.92M686.28 156.92L684.94 156.18M684.94 156.18L683.43 155.6M683.43 155.6L681.84 155.21M681.84 155.21L680.24 155.04M680.24 155.04L678.72 155.08M678.72 155.08L677.36 155.35M677.36 155.35L676.23 155.82M676.23 155.82L675.39 156.48M675.39 156.48L674.87 157.28"
fill="none" stroke="black" stroke-width="2"/>
<path d="M674.73 157.83L674.8 158.78M674.8 158.78L675.23 159.76M675.23 159.76L676.01 160.71M676.01 160.71L677.08 161.59M677.08 161.59L678.39 162.36M678.39 162.36L679.88 162.96M679.88 162.96L681.46 163.38M681.46 163.38L683.06 163.58M683.06 163.58L684.6 163.57M684.6 163.57L685.98 163.33M685.98 163.33L687.15 162.89M687.15 162.89L688.04 162.26M688.04 162.26L688.6 161.48"
fill="none" stroke="black" stroke-width="2"/>
<path d="M688.81 160.67L647.59 323.57"
fill="none" stroke="black" stroke-width="2"/>
<path d="M633.72 319.93L633.79 320.87M633.79 320.87L634.22 321.85M634.22 321.85L635 322.8M635 322.8L636.06 323.69M636.06 323.69L637.38 324.45M637.38 324.45L638.86 325.05M638.86 325.05L640.45 325.47M640.45 325.47L642.05 325.68M642.05 325.68L643.58 325.66M643.58 325.66L644.97 325.43M644.97 325.43L646.14 324.98M646.14 324.98L647.03 324.35M647.03 324.35L647.59 323.57"
fill="none" stroke="black" stroke-width="2"/>
<path d="M680.71 163.21L680.84 163.24"
fill="none" stroke="black" stroke-width="2"/>
</svg>
