<?xml version="1.0" encoding="UTF-8"?>
<svg xmlns="http://www.w3.org/2000/svg" width="800.000" height="600.000" viewBox="0.0 0.0 800.000 600.000" version="1.1">
  <title>Produce by Acme CAD Converter</title>
  <desc>Produce by Acme CAD Converter</desc>
<path d="M2.26 80.73L2.26 519.27"
fill="none" stroke="RGB(237,31,36)" stroke-width="0"/>
<path d="M2.82 156.6L52.46 159.45M52.46 159.45L102.11 161.93M102.11 161.93L151.77 164.03M151.77 164.03L201.46 165.75M201.46 165.75L251.15 167.1M251.15 167.1L300.85 168.07M300.85 168.07L350.56 168.67M350.56 168.67L400.27 168.89M400.27 168.89L449.98 168.73M449.98 168.73L499.69 168.2M499.69 168.2L549.4 167.29M549.4 167.29L599.09 166.01M599.09 166.01L648.78 164.34M648.78 164.34L698.45 162.31M698.45 162.31L748.1 159.89M748.1 159.89L797.74 157.1"
fill="none" stroke="RGB(2,158,33)" stroke-width="2"/>
<path d="M2.82 156.6L91.13 158.87M91.13 158.87L179.45 160.58M179.45 160.58L267.78 161.75M267.78 161.75L356.11 162.36M356.11 162.36L444.44 162.41M444.44 162.41L532.78 161.92M532.78 161.92L621.11 160.87M621.11 160.87L709.43 159.26M709.43 159.26L797.74 157.1"
fill="none" stroke="RGB(2,158,33)" stroke-width="2"/>
<path d="M2.69 315.98L68.78 318.33M68.78 318.33L134.87 320.28M134.87 320.28L200.98 321.81M200.98 321.81L267.09 322.94M267.09 322.94L333.21 323.66M333.21 323.66L399.33 323.96M399.33 323.96L465.45 323.86M465.45 323.86L531.57 323.35M531.57 323.35L597.69 322.43M597.69 322.43L663.8 321.11M663.8 321.11L729.9 319.37M729.9 319.37L795.99 317.22"
fill="none" stroke="RGB(2,158,33)" stroke-width="2"/>
<path d="M124.88 159.14L124.92 159.59"
fill="none" stroke="black" stroke-width="2"/>
<path d="M125.22 162.95L139.17 320.39"
fill="none" stroke="black" stroke-width="2"/>
<path d="M153.49 320.75L167.52 160.38"
fill="none" stroke="black" stroke-width="2"/>
<path d="M190.8 165.41L204.66 321.88"
fill="none" stroke="black" stroke-width="2"/>
<path d="M219.15 322.16L233.21 161.36"
fill="none" stroke="black" stroke-width="2"/>
<path d="M255.24 167.19L269.04 322.96"
fill="none" stroke="black" stroke-width="2"/>
<path d="M283.55 323.15L297.65 162.02"
fill="none" stroke="black" stroke-width="2"/>
<path d="M321.9 168.37L335.66 323.67"
fill="none" stroke="black" stroke-width="2"/>
<path d="M350.48 323.78L364.62 162.37"
fill="none" stroke="black" stroke-width="2"/>
<path d="M386.92 168.87L400.67 323.97"
fill="none" stroke="black" stroke-width="2"/>
<path d="M415.44 323.98L429.63 162.36"
fill="none" stroke="black" stroke-width="2"/>
<path d="M453.68 168.71L467.42 323.85"
fill="none" stroke="black" stroke-width="2"/>
<path d="M482.22 323.77L496.34 162.22"
fill="none" stroke="black" stroke-width="2"/>
<path d="M518.95 167.89L532.73 323.34"
fill="none" stroke="black" stroke-width="2"/>
<path d="M546.89 323.18L561.02 161.64"
fill="none" stroke="black" stroke-width="2"/>
<path d="M584.02 166.43L597.84 322.43"
fill="none" stroke="black" stroke-width="2"/>
<path d="M611.75 322.19L625.87 160.79"
fill="none" stroke="black" stroke-width="2"/>
<path d="M647.13 164.4L661.02 321.17"
fill="none" stroke="black" stroke-width="2"/>
<path d="M674.95 320.84L689.05 159.68"
fill="none" stroke="black" stroke-width="2"/>
</svg>
