<?xml version="1.0" encoding="UTF-8"?>
<svg xmlns="http://www.w3.org/2000/svg" width="800.000" height="600.000" viewBox="0.0 0.0 800.000 600.000" version="1.1">
  <title>Produce by Acme CAD Converter</title>
  <desc>Produce by Acme CAD Converter</desc>
<path d="M2.44 79.83L2.44 520.17"
fill="none" stroke="RGB(237,31,36)" stroke-width="0"/>
<path d="M81.36 265.53L130.56 265.53M678.21 265.53L701.91 265.53M86.29 275.92L249.3 275.92M559.44 275.92L704.88 275.92M91.22 286.31L707.84 286.31M96.15 296.7L710.81 296.7M101.08 307.09L713.77 307.09M106.02 317.48L716.73 317.48M262.85 327.87L599.51 327.87M78.59 259.7L78.59 259.19M88.98 281.59L88.98 260.51M99.37 303.48L99.37 261.83M109.76 319.22L109.76 263.15M120.15 319.95L120.15 264.34M130.54 320.68L130.54 265.53M140.94 321.41L140.94 266.71M151.33 322.1L151.33 267.76M161.72 322.74L161.72 268.82M172.11 323.37L172.11 269.87M182.5 324L182.5 270.79M192.89 324.59L192.89 271.71M203.28 325.12L203.28 272.62M213.67 325.66L213.67 273.41M224.06 326.19L224.06 274.2M234.45 326.67L234.45 274.98M244.84 327.11L244.84 275.64M255.23 327.55L255.23 276.29M265.63 327.98L265.63 276.94M276.02 328.36L276.02 277.46M286.41 328.7L286.41 277.99M296.8 329.03L296.8 278.5M307.19 329.37L307.19 278.9M317.58 329.64L317.58 279.29M327.97 329.88L327.97 279.67M338.36 330.12L338.36 279.93M348.75 330.37L348.75 280.19M359.14 330.53L359.14 280.44M369.53 330.67L369.53 280.57M379.93 330.82L379.93 280.7M390.32 330.96L390.32 280.82M400.71 331.02L400.71 280.81M411.1 331.06L411.1 280.81M421.49 331.11L421.49 280.8M431.88 331.15L431.88 280.66M442.27 331.11L442.27 280.53M452.66 331.06L452.66 280.38M463.05 331L463.05 280.12M473.44 330.95L473.44 279.85M483.83 330.8L483.83 279.57M494.22 330.65L494.22 279.17M504.62 330.5L504.62 278.78M515.01 330.34L515.01 278.37M525.4 330.09L525.4 277.84M535.79 329.84L535.79 277.31M546.18 329.59L546.18 276.77M556.57 329.33L556.57 276.1M566.96 328.99L566.96 275.44M577.35 328.64L577.35 274.77M587.74 328.29L587.74 273.97M598.13 327.92L598.13 273.17M608.52 327.48L608.52 272.37M618.92 327.04L618.92 271.44M629.31 326.59L629.31 270.51M639.7 326.12L639.7 269.57M650.09 325.58L650.09 268.51M660.48 325.03L660.48 267.45M670.87 324.49L670.87 266.38M681.26 323.91L681.26 265.18M691.65 323.27L691.65 263.98M702.04 322.63L702.04 265.99M712.43 321.99L712.43 302.4"
fill="none" stroke="RGB(106,106,106)" stroke-width="2"/>
<path d="M78.33 259.15L106.74 319.01M106.74 319.01L106.74 319.01M106.74 319.01L147.42 321.87M147.42 321.87L188.13 324.34M188.13 324.34L228.85 326.44M228.85 326.44L269.6 328.15M269.6 328.15L310.35 329.48M310.35 329.48L351.12 330.42M351.12 330.42L391.9 330.98M391.9 330.98L432.68 331.16M432.68 331.16L473.46 330.95M473.46 330.95L514.23 330.36M514.23 330.36L555 329.38M555 329.38L595.76 328.03M595.76 328.03L636.5 326.28M636.5 326.28L677.22 324.16M677.22 324.16L717.93 321.65M717.93 321.65L701.16 262.89M701.16 262.89L701.16 262.89M701.16 262.89L670.14 266.46M670.14 266.46L639.07 269.64M639.07 269.64L607.97 272.42M607.97 272.42L576.84 274.81M576.84 274.81L545.68 276.8M545.68 276.8L514.49 278.4M514.49 278.4L483.29 279.6M483.29 279.6L452.07 280.4M452.07 280.4L420.85 280.81M420.85 280.81L389.63 280.82M389.63 280.82L358.4 280.43M358.4 280.43L327.19 279.65M327.19 279.65L295.98 278.47M295.98 278.47L264.8 276.9M264.8 276.9L233.63 274.93M233.63 274.93L202.5 272.56M202.5 272.56L171.39 269.8M171.39 269.8L140.33 266.65M140.33 266.65L109.3 263.1M109.3 263.1L78.33 259.15"
fill="none" stroke="black" stroke-width="2"/>
<path d="M87.82 260.36L90.91 251.37M98.35 261.69L101.77 251.75M108.88 263.02L112.62 252.12M119.45 264.23L123.48 252.5M130.02 265.44L134.33 252.88M140.6 266.64L145.19 253.26M151.22 267.71L156.07 253.56M161.83 268.78L166.95 253.87M172.45 269.85L177.84 254.17M183.12 270.79L188.72 254.48M193.78 271.73L199.6 254.78M204.45 272.65L210.5 255.04M215.16 273.46L221.4 255.27M225.86 274.28L232.31 255.5M236.58 275.05L243.21 255.74M247.34 275.73L254.12 255.97M258.09 276.41L265.04 256.18M268.86 277.04L275.97 256.34M279.66 277.59L286.9 256.5M290.45 278.14L297.83 256.66M301.28 278.62L308.76 256.81M312.12 279.03L319.69 256.97M322.96 279.44L330.65 257.06M333.84 279.78L341.61 257.14M344.73 280.05L352.56 257.23M355.62 280.33L363.52 257.32M366.54 280.51L374.48 257.4M377.48 280.65L385.45 257.44M388.42 280.79L396.43 257.45M399.4 280.81L407.41 257.46M410.38 280.81L418.4 257.47M421.37 280.81L429.38 257.48M432.4 280.68L440.37 257.47M443.43 280.54L451.38 257.4M454.48 280.38L462.39 257.34M465.56 280.11L473.39 257.28M476.64 279.83L484.4 257.22M487.74 279.5L495.41 257.15M498.86 279.09L506.44 257.01M509.99 278.67L517.48 256.87M521.15 278.17L528.51 256.74M532.33 277.62L539.54 256.6M543.5 277.06L550.58 256.46M554.72 276.39L561.63 256.26M565.95 275.68L572.69 256.05M577.18 274.98L583.75 255.84M588.45 274.13L594.81 255.63M599.73 273.29L605.87 255.42M611.02 272.4L616.94 255.16M622.35 271.41L628.02 254.88M633.67 270.41L639.11 254.59M645.03 269.34L650.19 254.3M656.41 268.2L661.28 254.02M667.79 267.06L672.37 253.71M679.2 265.8L683.48 253.34M690.63 264.51L694.59 252.98M701.58 264.61L705.7 252.62M706.58 282.06L716.81 252.26M711.58 299.5L726.28 256.68M716.58 316.94L719.7 307.83M96.64 261.47L81.43 256.25M144.97 267.08L100.14 251.69M189.41 271.35L135.75 252.93M231.11 274.67L170.8 253.97M270.21 277.11L205.6 254.93M307.27 278.85L239.72 255.66M342.63 280L273.59 256.3M376.49 280.64L307.01 256.79M409.01 280.81L340.01 257.13M440.34 280.58L372.76 257.39M470.59 279.98L404.97 257.46M499.88 279.05L437.05 257.49M528.29 277.82L468.54 257.31M555.91 276.31L499.91 257.09M718.01 320.97L717.7 320.86M582.8 274.56L530.8 256.71M719.37 310.45L714.21 308.68M720.72 299.93L710.72 296.5M609.03 272.58L561.51 256.27M634.52 270.34L591.82 255.69M722.07 289.41L707.23 284.31M659.41 267.9L621.93 255.03M723.42 278.89L703.74 272.13M683.78 265.28L651.69 254.26M724.78 268.37L681.22 253.42M726.13 257.85L710.44 252.46"
fill="none" stroke="RGB(106,106,106)" stroke-width="2"/>
<path d="M2.26 247.77L59.05 250.25M59.05 250.25L115.85 252.37M115.85 252.37L172.66 254.12M172.66 254.12L229.48 255.5M229.48 255.5L286.31 256.52M286.31 256.52L343.15 257.17M343.15 257.17L399.98 257.45M399.98 257.45L456.82 257.37M456.82 257.37L513.66 256.92M513.66 256.92L570.49 256.11M570.49 256.11L627.32 254.93M627.32 254.93L684.14 253.38M684.14 253.38L740.94 251.47M740.94 251.47L797.74 249.19"
fill="none" stroke="RGB(2,158,33)" stroke-width="2"/>
<path d="M2.26 247.77L32.61 252.61M32.61 252.61L63.02 257.06M63.02 257.06L93.47 261.14M93.47 261.14L123.98 264.83M123.98 264.83L154.53 268.15M154.53 268.15L185.12 271.08M185.12 271.08L215.75 273.63M215.75 273.63L246.4 275.79M246.4 275.79L277.08 277.57M277.08 277.57L307.78 278.97M307.78 278.97L338.49 279.99M338.49 279.99L369.21 280.62M369.21 280.62L399.94 280.86M399.94 280.86L430.67 280.73M430.67 280.73L461.4 280.21M461.4 280.21L492.11 279.3M492.11 279.3L522.82 278.01M522.82 278.01L553.5 276.34M553.5 276.34L584.16 274.28M584.16 274.28L614.8 271.84M614.8 271.84L645.4 269.02M645.4 269.02L675.96 265.82M675.96 265.82L706.48 262.23M706.48 262.23L736.95 258.27M736.95 258.27L767.37 253.92M767.37 253.92L797.74 249.19"
fill="none" stroke="RGB(2,158,33)" stroke-width="2"/>
<path d="M78.33 259.15L109.3 263.12M109.3 263.12L140.32 266.69M140.32 266.69L171.39 269.86M171.39 269.86L202.49 272.64M202.49 272.64L233.63 275.02M233.63 275.02L264.79 277M264.79 277L295.98 278.58M295.98 278.58L327.18 279.77M327.18 279.77L358.4 280.55M358.4 280.55L389.62 280.94M389.62 280.94L420.85 280.93M420.85 280.93L452.07 280.51M452.07 280.51L483.29 279.7M483.29 279.7L514.49 278.5M514.49 278.5L545.68 276.89M545.68 276.89L576.84 274.88M576.84 274.88L607.98 272.48M607.98 272.48L639.08 269.68M639.08 269.68L670.14 266.48M670.14 266.48L701.16 262.89M701.16 262.89L717.93 321.65M717.93 321.65L726.89 251.93M726.89 251.93L726.89 251.93M726.89 251.93L668.72 253.8M668.72 253.8L610.54 255.28M610.54 255.28L552.34 256.38M552.34 256.38L494.14 257.09M494.14 257.09L435.94 257.41M435.94 257.41L377.74 257.35M377.74 257.35L319.54 256.9M319.54 256.9L261.34 256.06M261.34 256.06L203.15 254.83M203.15 254.83L144.97 253.22M144.97 253.22L86.81 251.23M86.81 251.23L78.33 259.15"
fill="none" stroke="black" stroke-width="2"/>
</svg>
