<?xml version="1.0" encoding="UTF-8"?>
<svg xmlns="http://www.w3.org/2000/svg" width="800.000" height="600.000" viewBox="0.0 0.0 800.000 600.000" version="1.1">
  <title>Produce by Acme CAD Converter</title>
  <desc>Produce by Acme CAD Converter</desc>
<path d="M2.26 80.28L2.26 519.72"
fill="none" stroke="RGB(237,31,36)" stroke-width="0"/>
<path d="M81.09 174.53L131.94 174.53M678.46 174.53L701.49 174.53M83.19 184.9L250.43 184.9M559.93 184.9L702.02 184.9M85.28 195.27L702.54 195.27M87.38 205.63L703.07 205.63M89.47 216L703.59 216M91.57 226.37L704.12 226.37M93.66 236.74L704.65 236.74M95.76 247.11L705.17 247.11M97.85 257.47L705.7 257.47M99.95 267.84L706.22 267.84M102.04 278.21L706.75 278.21M104.14 288.58L707.27 288.58M106.23 298.94L707.8 298.94M108.33 309.31L708.33 309.31M110.42 319.68L708.85 319.68M116.22 330.05L671.82 330.05M80.07 169.46L80.07 168.2M90.44 220.77L90.44 169.52M100.81 272.09L100.81 170.84M111.18 323.41L111.18 172.15M121.55 330.38L121.55 173.34M131.92 331.02L131.92 174.53M142.29 331.67L142.29 175.71M152.66 332.31L152.66 176.76M163.02 332.85L163.02 177.81M173.39 333.4L173.39 178.86M183.76 333.95L183.76 179.78M194.13 334.47L194.13 180.7M204.5 334.92L204.5 181.61M214.87 335.37L214.87 182.4M225.24 335.82L225.24 183.18M235.61 336.23L235.61 183.96M245.98 336.58L245.98 184.62M256.35 336.93L256.35 185.27M266.72 337.28L266.72 185.92M277.09 337.58L277.09 186.44M287.46 337.83L287.46 186.96M297.83 338.08L297.83 187.48M308.2 338.33L308.2 187.87M318.57 338.52L318.57 188.26M328.94 338.67L328.94 188.64M339.31 338.83L339.31 188.9M349.68 338.98L349.68 189.16M360.05 339.05L360.05 189.41M370.42 339.11L370.42 189.54M380.78 339.16L380.78 189.67M391.15 339.22L391.15 189.79M401.52 339.18L401.52 189.78M411.89 339.13L411.89 189.78M422.26 339.09L422.26 189.77M432.63 339.03L432.63 189.63M443 338.89L443 189.5M453.37 338.76L453.37 189.35M463.74 338.62L463.74 189.09M474.11 338.44L474.11 188.82M484.48 338.21L484.48 188.55M494.85 337.97L494.85 188.15M505.22 337.73L505.22 187.75M515.59 337.44L515.59 187.34M525.96 337.11L525.96 186.81M536.33 336.77L536.33 186.28M546.7 336.44L546.7 185.74M557.07 336.04L557.07 185.08M567.44 335.61L567.44 184.42M577.81 335.17L577.81 183.75M588.17 334.74L588.17 182.95M598.54 334.22L598.54 182.16M608.91 333.69L608.91 181.36M619.28 333.16L619.28 180.43M629.65 332.63L629.65 179.5M640.02 332L640.02 178.56M650.39 331.37L650.39 177.5M660.76 330.74L660.76 176.44M671.13 330.1L671.13 175.37M681.5 329.37L681.5 174.18M691.87 328.64L691.87 172.99M702.24 327.91L702.24 189.3"
fill="none" stroke="RGB(106,106,106)" stroke-width="2"/>
<path d="M79.81 168.17L112.47 329.82M112.47 329.82L112.47 329.82M112.47 329.82L152.21 332.29M152.21 332.29L191.98 334.38M191.98 334.38L231.76 336.1M231.76 336.1L271.55 337.44M271.55 337.44L311.36 338.41M311.36 338.41L351.17 339M351.17 339L390.99 339.22M390.99 339.22L430.81 339.06M430.81 339.06L470.62 338.52M470.62 338.52L510.43 337.61M510.43 337.61L550.23 336.32M550.23 336.32L590.01 334.66M590.01 334.66L629.78 332.62M629.78 332.62L669.52 330.21M669.52 330.21L709.24 327.42M709.24 327.42L701.36 171.89M701.36 171.89L701.36 171.89M701.36 171.89L670.4 175.46M670.4 175.46L639.4 178.63M639.4 178.63L608.36 181.41M608.36 181.41L577.29 183.79M577.29 183.79L546.19 185.78M546.19 185.78L515.07 187.37M515.07 187.37L483.94 188.57M483.94 188.57L452.78 189.37M452.78 189.37L421.63 189.78M421.63 189.78L390.46 189.79M390.46 189.79L359.31 189.4M359.31 189.4L328.15 188.62M328.15 188.62L297.01 187.45M297.01 187.45L265.89 185.88M265.89 185.88L234.79 183.91M234.79 183.91L203.72 181.55M203.72 181.55L172.68 178.79M172.68 178.79L141.68 175.64M141.68 175.64L110.72 172.1M110.72 172.1L79.81 168.17"
fill="none" stroke="black" stroke-width="2"/>
<path d="M89.28 169.37L92.36 160.4M99.79 170.7L103.2 160.77M110.3 172.03L114.03 161.15M120.85 173.23L124.87 161.53M131.4 174.44L135.7 161.91M141.95 175.63L146.53 162.28M152.55 176.71L157.39 162.59M163.14 177.78L168.25 162.89M173.74 178.84L179.11 163.2M184.38 179.78L189.97 163.5M195.02 180.72L200.83 163.81M205.67 181.64L211.7 164.06M216.35 182.45L222.59 164.29M227.04 183.26L233.47 164.52M237.74 184.03L244.36 164.76M248.47 184.71L255.24 164.99M259.2 185.39L266.13 165.2M269.95 186.02L277.04 165.36M280.72 186.57L287.95 165.51M291.5 187.11L298.86 165.67M302.3 187.59L309.77 165.83M313.12 188L320.68 165.99M323.94 188.42L331.61 166.08M334.79 188.75L342.54 166.16M345.66 189.02L353.48 166.25M356.53 189.3L364.41 166.33M367.43 189.48L375.35 166.42M378.35 189.62L386.3 166.45M389.26 189.76L397.26 166.46M400.22 189.78L408.22 166.48M411.18 189.78L419.18 166.49M422.14 189.78L430.14 166.5M433.15 189.65L441.11 166.48M444.16 189.51L452.09 166.42M455.18 189.35L463.08 166.36M466.24 189.08L474.06 166.3M477.3 188.8L485.04 166.24M488.37 188.47L496.03 166.16M499.48 188.06L507.04 166.03M510.58 187.65L518.05 165.89M521.72 187.15L529.06 165.76M532.87 186.59L540.07 165.62M544.03 186.04L551.08 165.48M555.22 185.36L562.12 165.28M566.43 184.66L573.15 165.07M577.63 183.96L584.19 164.86M588.88 183.12L595.22 164.65M600.14 182.27L606.26 164.44M611.4 181.39L617.31 164.19M622.71 180.4L628.37 163.9M634.01 179.4L639.43 163.61M645.34 178.34L650.5 163.33M656.7 177.2L661.56 163.04M668.05 176.06L672.63 162.73M679.45 174.8L683.72 162.37M690.85 173.51L694.8 162.01M701.51 174.39L705.89 161.64M702.92 202.23L716.98 161.28M704.33 230.07L726.58 165.26M705.73 257.9L721.62 211.63M707.14 285.74L716.67 257.99M708.54 313.57L711.71 304.36M98.08 170.48L82.9 165.27M146.31 176.07L101.57 160.72M190.66 180.33L137.11 161.95M232.27 183.66L172.09 163M271.3 186.09L206.82 163.96M709.45 325.51L709.14 325.41M308.28 187.82L240.87 164.68M710.58 314.94L708.58 314.25M343.57 188.97L274.67 165.32M711.71 304.37L708.02 303.1M377.35 189.6L308.02 165.81M712.84 293.79L707.45 291.94M409.81 189.78L340.95 166.15M713.97 283.22L706.89 280.79M441.07 189.55L373.64 166.41M715.1 272.65L706.32 269.63M471.26 188.95L405.77 166.47M716.23 262.07L705.76 258.48M500.49 188.02L437.79 166.5M717.36 251.5L705.2 247.32M528.84 186.79L469.21 166.32M718.49 240.92L704.63 236.17M556.4 185.29L500.52 166.11M719.62 230.35L704.07 225.01M583.24 183.54L531.35 165.73M720.75 219.78L703.51 213.86M721.88 209.2L702.94 202.7M609.41 181.56L562 165.29M634.85 179.33L592.25 164.71M723.01 198.63L702.38 191.55M659.69 176.9L622.29 164.06M724.14 188.05L701.82 180.39M684.02 174.28L651.99 163.29M725.27 177.48L681.46 162.44M726.4 166.91L710.62 161.49"
fill="none" stroke="RGB(106,106,106)" stroke-width="2"/>
<path d="M3.9 156.81L60.57 159.28M60.57 159.28L117.25 161.4M117.25 161.4L173.95 163.14M173.95 163.14L230.65 164.52M230.65 164.52L287.36 165.54M287.36 165.54L344.08 166.19M344.08 166.19L400.8 166.47M400.8 166.47L457.52 166.39M457.52 166.39L514.24 165.94M514.24 165.94L570.96 165.13M570.96 165.13L627.67 163.95M627.67 163.95L684.37 162.41M684.37 162.41L741.06 160.5M741.06 160.5L797.74 158.22"
fill="none" stroke="RGB(2,158,33)" stroke-width="2"/>
<path d="M3.9 156.81L34.18 161.63M34.18 161.63L64.53 166.08M64.53 166.08L94.92 170.15M94.92 170.15L125.37 173.83M125.37 173.83L155.86 177.14M155.86 177.14L186.38 180.07M186.38 180.07L216.94 182.61M216.94 182.61L247.53 184.77M247.53 184.77L278.15 186.55M278.15 186.55L308.78 187.94M308.78 187.94L339.43 188.96M339.43 188.96L370.09 189.59M370.09 189.59L400.76 189.83M400.76 189.83L431.43 189.7M431.43 189.7L462.09 189.18M462.09 189.18L492.74 188.27M492.74 188.27L523.38 186.99M523.38 186.99L554 185.32M554 185.32L584.6 183.27M584.6 183.27L615.17 180.83M615.17 180.83L645.71 178.02M645.71 178.02L676.21 174.82M676.21 174.82L706.67 171.24M706.67 171.24L737.08 167.28M737.08 167.28L767.43 162.94M767.43 162.94L797.74 158.22"
fill="none" stroke="RGB(2,158,33)" stroke-width="2"/>
<path d="M79.81 168.17L110.72 172.13M110.72 172.13L141.68 175.69M141.68 175.69L172.68 178.85M172.68 178.85L203.72 181.62M203.72 181.62L234.79 184M234.79 184L265.89 185.98M265.89 185.98L297.01 187.55M297.01 187.55L328.15 188.74M328.15 188.74L359.3 189.52M359.3 189.52L390.46 189.91M390.46 189.91L421.63 189.89M421.63 189.89L452.79 189.48M452.79 189.48L483.94 188.68M483.94 188.68L515.08 187.47M515.08 187.47L546.2 185.87M546.2 185.87L577.3 183.86M577.3 183.86L608.37 181.47M608.37 181.47L639.4 178.67M639.4 178.67L670.4 175.48M670.4 175.48L701.36 171.89M701.36 171.89L709.24 327.42M709.24 327.42L727.04 160.95M727.04 160.95L727.04 160.95M727.04 160.95L668.98 162.82M668.98 162.82L610.92 164.3M610.92 164.3L552.85 165.4M552.85 165.4L494.77 166.1M494.77 166.1L436.69 166.43M436.69 166.43L378.6 166.36M378.6 166.36L320.52 165.91M320.52 165.91L262.45 165.08M262.45 165.08L204.38 163.86M204.38 163.86L146.32 162.25M146.32 162.25L88.27 160.25M88.27 160.25L79.81 168.17"
fill="none" stroke="black" stroke-width="2"/>
</svg>
