<?xml version="1.0" encoding="UTF-8"?>
<svg xmlns="http://www.w3.org/2000/svg" width="800.000" height="600.000" viewBox="0.0 0.0 800.000 600.000" version="1.1">
  <title>Produce by Acme CAD Converter</title>
  <desc>Produce by Acme CAD Converter</desc>
<path d="M2.26 80.73L2.26 519.27"
fill="none" stroke="RGB(237,31,36)" stroke-width="0"/>
<path d="M2.82 156.6L91.13 158.87M91.13 158.87L179.45 160.58M179.45 160.58L267.78 161.75M267.78 161.75L356.11 162.36M356.11 162.36L444.44 162.41M444.44 162.41L532.78 161.92M532.78 161.92L621.11 160.87M621.11 160.87L709.43 159.26M709.43 159.26L797.74 157.1"
fill="none" stroke="RGB(2,158,33)" stroke-width="2"/>
<path d="M2.69 315.98L68.78 318.33M68.78 318.33L134.87 320.28M134.87 320.28L200.98 321.81M200.98 321.81L267.09 322.94M267.09 322.94L333.21 323.66M333.21 323.66L399.33 323.96M399.33 323.96L465.45 323.86M465.45 323.86L531.57 323.35M531.57 323.35L597.69 322.43M597.69 322.43L663.8 321.11M663.8 321.11L729.9 319.37M729.9 319.37L795.99 317.22"
fill="none" stroke="RGB(2,158,33)" stroke-width="2"/>
<path d="M116.88 159.43L116.88 319.79"
fill="none" stroke="black" stroke-width="2"/>
<path d="M164.35 160.33L164.35 321.01"
fill="none" stroke="black" stroke-width="2"/>
<path d="M213.03 161.09L213.03 322.05"
fill="none" stroke="black" stroke-width="2"/>
<path d="M260.75 161.68L260.75 322.85"
fill="none" stroke="black" stroke-width="2"/>
<path d="M308.21 162.1L308.21 323.43"
fill="none" stroke="black" stroke-width="2"/>
<path d="M356.89 162.36L356.89 323.81"
fill="none" stroke="black" stroke-width="2"/>
<path d="M405.51 162.46L405.51 323.97"
fill="none" stroke="black" stroke-width="2"/>
<path d="M452.97 162.39L452.97 323.91"
fill="none" stroke="black" stroke-width="2"/>
<path d="M501.66 162.15L501.66 323.63"
fill="none" stroke="black" stroke-width="2"/>
<path d="M546.29 161.79L546.29 323.18"
fill="none" stroke="black" stroke-width="2"/>
<path d="M593.76 161.25L593.76 322.5"
fill="none" stroke="black" stroke-width="2"/>
<path d="M642.44 160.53L642.44 321.58"
fill="none" stroke="black" stroke-width="2"/>
<path d="M688.48 159.69L688.48 320.5"
fill="none" stroke="black" stroke-width="2"/>
</svg>
