<?xml version="1.0" encoding="UTF-8"?>
<svg xmlns="http://www.w3.org/2000/svg" width="800.000" height="600.000" viewBox="0.0 0.0 800.000 600.000" version="1.1">
  <title>Produce by Acme CAD Converter</title>
  <desc>Produce by Acme CAD Converter</desc>
<path d="M2.26 80.73L2.26 519.27"
fill="none" stroke="RGB(237,31,36)" stroke-width="0"/>
<path d="M5.2 315.98L46.84 317.28M46.84 317.28L88.49 318.41M88.49 318.41L130.14 319.35"
fill="none" stroke="RGB(2,158,33)" stroke-width="2"/>
<path d="M143.8 319.62L204.18 320.6"
fill="none" stroke="RGB(2,158,33)" stroke-width="2"/>
<path d="M217.83 320.76L250.49 321.09M250.49 321.09L283.15 321.3"
fill="none" stroke="RGB(2,158,33)" stroke-width="2"/>
<path d="M296.81 321.36L333.34 321.41M333.34 321.41L369.88 321.33"
fill="none" stroke="RGB(2,158,33)" stroke-width="2"/>
<path d="M383.53 321.27L421.48 320.99M421.48 320.99L459.43 320.56"
fill="none" stroke="RGB(2,158,33)" stroke-width="2"/>
<path d="M473.09 320.37L511.38 319.73M511.38 319.73L549.67 318.94"
fill="none" stroke="RGB(2,158,33)" stroke-width="2"/>
<path d="M563.32 318.63L603.11 317.59M603.11 317.59L642.89 316.4"
fill="none" stroke="RGB(2,158,33)" stroke-width="2"/>
<path d="M656.55 315.95L703.52 314.26M703.52 314.26L750.49 312.34M750.49 312.34L797.44 310.2"
fill="none" stroke="RGB(2,158,33)" stroke-width="2"/>
<path d="M2.82 156.6L66.55 158.29M66.55 158.29L130.28 159.7"
fill="none" stroke="RGB(2,158,33)" stroke-width="2"/>
<path d="M143.76 159.96L204.38 160.97"
fill="none" stroke="RGB(2,158,33)" stroke-width="2"/>
<path d="M217.73 161.16L283.26 161.89"
fill="none" stroke="RGB(2,158,33)" stroke-width="2"/>
<path d="M296.76 162.01L369.88 162.4"
fill="none" stroke="RGB(2,158,33)" stroke-width="2"/>
<path d="M383.53 162.43L459.46 162.37"
fill="none" stroke="RGB(2,158,33)" stroke-width="2"/>
<path d="M473.09 162.31L550.01 161.75"
fill="none" stroke="RGB(2,158,33)" stroke-width="2"/>
<path d="M563.07 161.62L642.89 160.52"
fill="none" stroke="RGB(2,158,33)" stroke-width="2"/>
<path d="M656.55 160.29L727.15 158.87M727.15 158.87L797.74 157.1"
fill="none" stroke="RGB(2,158,33)" stroke-width="2"/>
<path d="M642.89 157.76L642.89 317.53"
fill="none" stroke="black" stroke-width="2"/>
<path d="M656.55 157.64L656.21 156.78M656.21 156.78L655.54 155.99M655.54 155.99L654.56 155.31M654.56 155.31L653.34 154.77M653.34 154.77L651.93 154.4M651.93 154.4L650.4 154.21M650.4 154.21L648.84 154.23M648.84 154.23L647.32 154.44M647.32 154.44L645.93 154.84M645.93 154.84L644.74 155.4M644.74 155.4L643.81 156.1M643.81 156.1L643.18 156.9M643.18 156.9L642.89 157.76"
fill="none" stroke="black" stroke-width="2"/>
<path d="M642.89 158.31L643.18 159.17M643.18 159.17L643.81 159.97M643.81 159.97L644.74 160.67M644.74 160.67L645.93 161.23M645.93 161.23L647.32 161.63M647.32 161.63L648.84 161.84M648.84 161.84L650.4 161.86M650.4 161.86L651.93 161.67M651.93 161.67L653.34 161.3M653.34 161.3L654.56 160.76M654.56 160.76L655.54 160.07M655.54 160.07L656.21 159.28M656.21 159.28L656.55 158.43"
fill="none" stroke="black" stroke-width="2"/>
<path d="M656.55 157.64L656.55 317.65"
fill="none" stroke="black" stroke-width="2"/>
<path d="M642.89 317.53L643.18 318.39M643.18 318.39L643.81 319.19M643.81 319.19L644.74 319.89M644.74 319.89L645.93 320.45M645.93 320.45L647.32 320.85M647.32 320.85L648.84 321.06M648.84 321.06L650.4 321.08M650.4 321.08L651.93 320.89M651.93 320.89L653.34 320.52M653.34 320.52L654.56 319.98M654.56 319.98L655.54 319.3M655.54 319.3L656.21 318.51M656.21 318.51L656.55 317.65"
fill="none" stroke="black" stroke-width="2"/>
<path d="M649.67 161.87L649.79 161.87"
fill="none" stroke="black" stroke-width="2"/>
<path d="M130.14 160.25L130.14 320.01"
fill="none" stroke="black" stroke-width="2"/>
<path d="M143.8 160.12L143.46 159.27M143.46 159.27L142.79 158.48M142.79 158.48L141.81 157.8M141.81 157.8L140.59 157.25M140.59 157.25L139.17 156.88M139.17 156.88L137.65 156.7M137.65 156.7L136.09 156.71M136.09 156.71L134.57 156.92M134.57 156.92L133.18 157.32M133.18 157.32L131.99 157.89M131.99 157.89L131.06 158.59M131.06 158.59L130.43 159.39M130.43 159.39L130.14 160.25"
fill="none" stroke="black" stroke-width="2"/>
<path d="M130.14 160.79L130.43 161.65M130.43 161.65L131.06 162.45M131.06 162.45L131.99 163.15M131.99 163.15L133.18 163.72M133.18 163.72L134.57 164.11M134.57 164.11L136.09 164.33M136.09 164.33L137.65 164.34M137.65 164.34L139.17 164.16M139.17 164.16L140.59 163.78M140.59 163.78L141.81 163.24M141.81 163.24L142.79 162.56M142.79 162.56L143.46 161.77M143.46 161.77L143.8 160.92"
fill="none" stroke="black" stroke-width="2"/>
<path d="M143.8 160.12L143.8 320.14"
fill="none" stroke="black" stroke-width="2"/>
<path d="M130.14 320.01L130.43 320.87M130.43 320.87L131.06 321.67M131.06 321.67L131.99 322.37M131.99 322.37L133.18 322.94M133.18 322.94L134.57 323.34M134.57 323.34L136.09 323.55M136.09 323.55L137.65 323.56M137.65 323.56L139.17 323.38M139.17 323.38L140.59 323.01M140.59 323.01L141.81 322.46M141.81 322.46L142.79 321.78M142.79 321.78L143.46 320.99M143.46 320.99L143.8 320.14"
fill="none" stroke="black" stroke-width="2"/>
<path d="M136.92 164.36L137.04 164.36"
fill="none" stroke="black" stroke-width="2"/>
<path d="M204.18 161.66L204.18 321.42"
fill="none" stroke="black" stroke-width="2"/>
<path d="M217.83 161.53L217.5 160.68M217.5 160.68L216.82 159.89M216.82 159.89L215.85 159.21M215.85 159.21L214.62 158.66M214.62 158.66L213.21 158.29M213.21 158.29L211.68 158.11M211.68 158.11L210.12 158.12M210.12 158.12L208.61 158.33M208.61 158.33L207.22 158.73M207.22 158.73L206.03 159.29M206.03 159.29L205.09 160M205.09 160L204.46 160.8M204.46 160.8L204.18 161.66"
fill="none" stroke="black" stroke-width="2"/>
<path d="M204.18 162.2L204.46 163.06M204.46 163.06L205.09 163.86M205.09 163.86L206.03 164.56M206.03 164.56L207.22 165.13M207.22 165.13L208.61 165.52M208.61 165.52L210.12 165.74M210.12 165.74L211.68 165.75M211.68 165.75L213.21 165.57M213.21 165.57L214.62 165.19M214.62 165.19L215.85 164.65M215.85 164.65L216.82 163.97M216.82 163.97L217.5 163.18M217.5 163.18L217.83 162.33"
fill="none" stroke="black" stroke-width="2"/>
<path d="M217.83 161.53L217.83 321.55"
fill="none" stroke="black" stroke-width="2"/>
<path d="M204.18 321.42L204.46 322.28M204.46 322.28L205.09 323.08M205.09 323.08L206.03 323.78M206.03 323.78L207.22 324.35M207.22 324.35L208.61 324.75M208.61 324.75L210.12 324.96M210.12 324.96L211.68 324.97M211.68 324.97L213.21 324.79M213.21 324.79L214.62 324.42M214.62 324.42L215.85 323.87M215.85 323.87L216.82 323.19M216.82 323.19L217.5 322.4M217.5 322.4L217.83 321.55"
fill="none" stroke="black" stroke-width="2"/>
<path d="M210.95 165.77L211.08 165.77"
fill="none" stroke="black" stroke-width="2"/>
<path d="M283.15 162.35L283.15 322.12"
fill="none" stroke="black" stroke-width="2"/>
<path d="M296.81 162.23L296.47 161.37M296.47 161.37L295.8 160.59M295.8 160.59L294.83 159.9M294.83 159.9L293.6 159.36M293.6 159.36L292.19 158.99M292.19 158.99L290.66 158.8M290.66 158.8L289.1 158.82M289.1 158.82L287.59 159.03M287.59 159.03L286.2 159.43M286.2 159.43L285 159.99M285 159.99L284.07 160.69M284.07 160.69L283.44 161.49M283.44 161.49L283.15 162.35"
fill="none" stroke="black" stroke-width="2"/>
<path d="M283.15 162.9L283.44 163.76M283.44 163.76L284.07 164.56M284.07 164.56L285 165.26M285 165.26L286.2 165.82M286.2 165.82L287.59 166.22M287.59 166.22L289.1 166.43M289.1 166.43L290.66 166.45M290.66 166.45L292.19 166.26M292.19 166.26L293.6 165.89M293.6 165.89L294.83 165.35M294.83 165.35L295.8 164.67M295.8 164.67L296.47 163.88M296.47 163.88L296.81 163.02"
fill="none" stroke="black" stroke-width="2"/>
<path d="M296.81 162.23L296.81 322.24"
fill="none" stroke="black" stroke-width="2"/>
<path d="M283.15 322.12L283.44 322.98M283.44 322.98L284.07 323.78M284.07 323.78L285 324.48M285 324.48L286.2 325.05M286.2 325.05L287.59 325.44M287.59 325.44L289.1 325.66M289.1 325.66L290.66 325.67M290.66 325.67L292.19 325.49M292.19 325.49L293.6 325.11M293.6 325.11L294.83 324.57M294.83 324.57L295.8 323.89M295.8 323.89L296.47 323.1M296.47 323.1L296.81 322.24"
fill="none" stroke="black" stroke-width="2"/>
<path d="M289.93 166.47L290.06 166.47"
fill="none" stroke="black" stroke-width="2"/>
<path d="M369.88 162.35L369.88 322.12"
fill="none" stroke="black" stroke-width="2"/>
<path d="M383.53 162.23L383.2 161.37M383.2 161.37L382.52 160.59M382.52 160.59L381.55 159.9M381.55 159.9L380.32 159.36M380.32 159.36L378.91 158.99M378.91 158.99L377.39 158.8M377.39 158.8L375.82 158.82M375.82 158.82L374.31 159.03M374.31 159.03L372.92 159.43M372.92 159.43L371.73 159.99M371.73 159.99L370.79 160.69M370.79 160.69L370.17 161.49M370.17 161.49L369.88 162.35"
fill="none" stroke="black" stroke-width="2"/>
<path d="M369.88 162.9L370.17 163.76M370.17 163.76L370.79 164.56M370.79 164.56L371.73 165.26M371.73 165.26L372.92 165.82M372.92 165.82L374.31 166.22M374.31 166.22L375.82 166.43M375.82 166.43L377.39 166.45M377.39 166.45L378.91 166.26M378.91 166.26L380.32 165.89M380.32 165.89L381.55 165.35M381.55 165.35L382.52 164.67M382.52 164.67L383.2 163.88M383.2 163.88L383.53 163.02"
fill="none" stroke="black" stroke-width="2"/>
<path d="M383.53 162.23L383.53 322.24"
fill="none" stroke="black" stroke-width="2"/>
<path d="M369.88 322.12L370.17 322.98M370.17 322.98L370.79 323.78M370.79 323.78L371.73 324.48M371.73 324.48L372.92 325.05M372.92 325.05L374.31 325.44M374.31 325.44L375.82 325.66M375.82 325.66L377.39 325.67M377.39 325.67L378.91 325.49M378.91 325.49L380.32 325.11M380.32 325.11L381.55 324.57M381.55 324.57L382.52 323.89M382.52 323.89L383.2 323.1M383.2 323.1L383.53 322.24"
fill="none" stroke="black" stroke-width="2"/>
<path d="M376.65 166.47L376.78 166.47"
fill="none" stroke="black" stroke-width="2"/>
<path d="M459.43 161.66L459.43 321.42"
fill="none" stroke="black" stroke-width="2"/>
<path d="M473.09 161.53L472.75 160.68M472.75 160.68L472.07 159.89M472.07 159.89L471.1 159.21M471.1 159.21L469.88 158.66M469.88 158.66L468.46 158.29M468.46 158.29L466.94 158.11M466.94 158.11L465.38 158.12M465.38 158.12L463.86 158.33M463.86 158.33L462.47 158.73M462.47 158.73L461.28 159.29M461.28 159.29L460.34 160M460.34 160L459.72 160.8M459.72 160.8L459.43 161.66"
fill="none" stroke="black" stroke-width="2"/>
<path d="M459.43 162.2L459.72 163.06M459.72 163.06L460.34 163.86M460.34 163.86L461.28 164.56M461.28 164.56L462.47 165.13M462.47 165.13L463.86 165.52M463.86 165.52L465.38 165.74M465.38 165.74L466.94 165.75M466.94 165.75L468.46 165.57M468.46 165.57L469.88 165.19M469.88 165.19L471.1 164.65M471.1 164.65L472.07 163.97M472.07 163.97L472.75 163.18M472.75 163.18L473.09 162.33"
fill="none" stroke="black" stroke-width="2"/>
<path d="M473.09 161.53L473.09 321.55"
fill="none" stroke="black" stroke-width="2"/>
<path d="M459.43 321.42L459.72 322.28M459.72 322.28L460.34 323.08M460.34 323.08L461.28 323.78M461.28 323.78L462.47 324.35M462.47 324.35L463.86 324.75M463.86 324.75L465.38 324.96M465.38 324.96L466.94 324.97M466.94 324.97L468.46 324.79M468.46 324.79L469.88 324.42M469.88 324.42L471.1 323.87M471.1 323.87L472.07 323.19M472.07 323.19L472.75 322.4M472.75 322.4L473.09 321.55"
fill="none" stroke="black" stroke-width="2"/>
<path d="M466.2 165.77L466.33 165.77"
fill="none" stroke="black" stroke-width="2"/>
<path d="M549.67 160.25L549.67 320.01"
fill="none" stroke="black" stroke-width="2"/>
<path d="M563.32 160.12L562.99 159.27M562.99 159.27L562.31 158.48M562.31 158.48L561.34 157.8M561.34 157.8L560.11 157.25M560.11 157.25L558.7 156.88M558.7 156.88L557.18 156.7M557.18 156.7L555.61 156.71M555.61 156.71L554.1 156.92M554.1 156.92L552.71 157.32M552.71 157.32L551.52 157.89M551.52 157.89L550.58 158.59M550.58 158.59L549.95 159.39M549.95 159.39L549.67 160.25"
fill="none" stroke="black" stroke-width="2"/>
<path d="M549.67 160.79L549.95 161.65M549.95 161.65L550.58 162.45M550.58 162.45L551.52 163.15M551.52 163.15L552.71 163.72M552.71 163.72L554.1 164.11M554.1 164.11L555.61 164.33M555.61 164.33L557.18 164.34M557.18 164.34L558.7 164.16M558.7 164.16L560.11 163.78M560.11 163.78L561.34 163.24M561.34 163.24L562.31 162.56M562.31 162.56L562.99 161.77M562.99 161.77L563.32 160.92"
fill="none" stroke="black" stroke-width="2"/>
<path d="M563.32 160.12L563.32 320.14"
fill="none" stroke="black" stroke-width="2"/>
<path d="M549.67 320.01L549.95 320.87M549.95 320.87L550.58 321.67M550.58 321.67L551.52 322.37M551.52 322.37L552.71 322.94M552.71 322.94L554.1 323.34M554.1 323.34L555.61 323.55M555.61 323.55L557.18 323.56M557.18 323.56L558.7 323.38M558.7 323.38L560.11 323.01M560.11 323.01L561.34 322.46M561.34 322.46L562.31 321.78M562.31 321.78L562.99 320.99M562.99 320.99L563.32 320.14"
fill="none" stroke="black" stroke-width="2"/>
<path d="M556.44 164.36L556.57 164.36"
fill="none" stroke="black" stroke-width="2"/>
</svg>
