<?xml version="1.0" encoding="UTF-8"?>
<svg xmlns="http://www.w3.org/2000/svg" width="800.000" height="600.000" viewBox="0.0 0.0 800.000 600.000" version="1.1">
  <title>Produce by Acme CAD Converter</title>
  <desc>Produce by Acme CAD Converter</desc>
<path d="M2.26 80.73L2.26 519.27"
fill="none" stroke="RGB(237,31,36)" stroke-width="0"/>
<path d="M2.82 156.6L52.46 159.45M52.46 159.45L102.11 161.93M102.11 161.93L151.77 164.03M151.77 164.03L201.46 165.75M201.46 165.75L251.15 167.1M251.15 167.1L300.85 168.07M300.85 168.07L350.56 168.67M350.56 168.67L400.27 168.89M400.27 168.89L449.98 168.73M449.98 168.73L499.69 168.2M499.69 168.2L549.4 167.29M549.4 167.29L599.09 166.01M599.09 166.01L648.78 164.34M648.78 164.34L698.45 162.31M698.45 162.31L748.1 159.89M748.1 159.89L797.74 157.1"
fill="none" stroke="RGB(2,158,33)" stroke-width="2"/>
<path d="M2.82 156.6L91.13 158.87M91.13 158.87L179.45 160.58M179.45 160.58L267.78 161.75M267.78 161.75L356.11 162.36M356.11 162.36L444.44 162.41M444.44 162.41L532.78 161.92M532.78 161.92L621.11 160.87M621.11 160.87L709.43 159.26M709.43 159.26L797.74 157.1"
fill="none" stroke="RGB(2,158,33)" stroke-width="2"/>
<path d="M130.66 344.04L184.82 320.36"
fill="none" stroke="black" stroke-width="2"/>
<path d="M130.66 344.04L130.66 337.41"
fill="none" stroke="black" stroke-width="2"/>
<path d="M130.66 337.41L109.79 337.41"
fill="none" stroke="black" stroke-width="2"/>
<path d="M109.79 344.04L109.79 337.41"
fill="none" stroke="black" stroke-width="2"/>
<path d="M109.79 344.04L130.66 344.04"
fill="none" stroke="black" stroke-width="2"/>
<path d="M130.66 337.41L184.82 313.72"
fill="none" stroke="black" stroke-width="2"/>
<path d="M109.79 337.41L163.96 313.72"
fill="none" stroke="black" stroke-width="2"/>
<path d="M163.96 313.72L184.82 313.72"
fill="none" stroke="black" stroke-width="2"/>
<path d="M184.82 313.72L184.82 320.36"
fill="none" stroke="black" stroke-width="2"/>
<path d="M164.04 313.72L164.04 313.69"
fill="none" stroke="black" stroke-width="2"/>
<path d="M252.2 344.04L306.37 320.36"
fill="none" stroke="black" stroke-width="2"/>
<path d="M252.2 344.04L252.2 337.41"
fill="none" stroke="black" stroke-width="2"/>
<path d="M252.2 337.41L231.34 337.41"
fill="none" stroke="black" stroke-width="2"/>
<path d="M231.34 344.04L231.34 337.41"
fill="none" stroke="black" stroke-width="2"/>
<path d="M231.34 344.04L252.2 344.04"
fill="none" stroke="black" stroke-width="2"/>
<path d="M252.2 337.41L306.37 313.72"
fill="none" stroke="black" stroke-width="2"/>
<path d="M231.34 337.41L285.5 313.72"
fill="none" stroke="black" stroke-width="2"/>
<path d="M285.5 313.72L306.37 313.72"
fill="none" stroke="black" stroke-width="2"/>
<path d="M306.37 313.72L306.37 320.36"
fill="none" stroke="black" stroke-width="2"/>
<path d="M285.59 313.72L285.59 313.69"
fill="none" stroke="black" stroke-width="2"/>
<path d="M164.04 313.69L164.04 313.72"
fill="none" stroke="black" stroke-width="2"/>
<path d="M261.37 340.03L261.37 346.66"
fill="none" stroke="black" stroke-width="2"/>
<path d="M252.21 344.04L252.21 350.67"
fill="none" stroke="black" stroke-width="2"/>
<path d="M231.34 344.04L231.34 350.67"
fill="none" stroke="black" stroke-width="2"/>
<path d="M158.38 331.92L231.34 350.67"
fill="none" stroke="black" stroke-width="2"/>
<path d="M231.34 344.04L167.93 327.74"
fill="none" stroke="black" stroke-width="2"/>
<path d="M184.82 320.36L238.67 334.2"
fill="none" stroke="black" stroke-width="2"/>
<path d="M231.34 350.67L252.21 350.67"
fill="none" stroke="black" stroke-width="2"/>
<path d="M252.21 350.67L261.37 346.66"
fill="none" stroke="black" stroke-width="2"/>
<path d="M373.75 344.04L427.92 320.36"
fill="none" stroke="black" stroke-width="2"/>
<path d="M373.75 344.04L373.75 337.41"
fill="none" stroke="black" stroke-width="2"/>
<path d="M373.75 337.41L352.89 337.41"
fill="none" stroke="black" stroke-width="2"/>
<path d="M352.89 344.04L352.89 337.41"
fill="none" stroke="black" stroke-width="2"/>
<path d="M352.89 344.04L373.75 344.04"
fill="none" stroke="black" stroke-width="2"/>
<path d="M373.75 337.41L427.92 313.72"
fill="none" stroke="black" stroke-width="2"/>
<path d="M352.89 337.41L407.05 313.72"
fill="none" stroke="black" stroke-width="2"/>
<path d="M407.05 313.72L427.92 313.72"
fill="none" stroke="black" stroke-width="2"/>
<path d="M427.92 313.72L427.92 320.36"
fill="none" stroke="black" stroke-width="2"/>
<path d="M407.14 313.72L407.14 313.69"
fill="none" stroke="black" stroke-width="2"/>
<path d="M382.92 340.03L382.92 346.66"
fill="none" stroke="black" stroke-width="2"/>
<path d="M373.76 344.04L373.76 350.67"
fill="none" stroke="black" stroke-width="2"/>
<path d="M352.89 344.04L352.89 350.67"
fill="none" stroke="black" stroke-width="2"/>
<path d="M279.93 331.92L352.89 350.67"
fill="none" stroke="black" stroke-width="2"/>
<path d="M352.89 344.04L289.48 327.74"
fill="none" stroke="black" stroke-width="2"/>
<path d="M306.37 320.36L360.22 334.2"
fill="none" stroke="black" stroke-width="2"/>
<path d="M352.89 350.67L373.76 350.67"
fill="none" stroke="black" stroke-width="2"/>
<path d="M373.76 350.67L382.92 346.66"
fill="none" stroke="black" stroke-width="2"/>
<path d="M495.3 344.04L549.47 320.36"
fill="none" stroke="black" stroke-width="2"/>
<path d="M495.3 344.04L495.3 337.41"
fill="none" stroke="black" stroke-width="2"/>
<path d="M495.3 337.41L474.43 337.41"
fill="none" stroke="black" stroke-width="2"/>
<path d="M474.43 344.04L474.43 337.41"
fill="none" stroke="black" stroke-width="2"/>
<path d="M474.43 344.04L495.3 344.04"
fill="none" stroke="black" stroke-width="2"/>
<path d="M495.3 337.41L549.47 313.72"
fill="none" stroke="black" stroke-width="2"/>
<path d="M474.43 337.41L528.6 313.72"
fill="none" stroke="black" stroke-width="2"/>
<path d="M528.6 313.72L549.47 313.72"
fill="none" stroke="black" stroke-width="2"/>
<path d="M549.47 313.72L549.47 320.36"
fill="none" stroke="black" stroke-width="2"/>
<path d="M528.69 313.72L528.69 313.69"
fill="none" stroke="black" stroke-width="2"/>
<path d="M504.47 340.03L504.47 346.66"
fill="none" stroke="black" stroke-width="2"/>
<path d="M495.31 344.04L495.31 350.67"
fill="none" stroke="black" stroke-width="2"/>
<path d="M474.43 344.04L474.43 350.67"
fill="none" stroke="black" stroke-width="2"/>
<path d="M401.47 331.92L474.43 350.67"
fill="none" stroke="black" stroke-width="2"/>
<path d="M474.43 344.04L411.03 327.74"
fill="none" stroke="black" stroke-width="2"/>
<path d="M427.92 320.36L481.77 334.2"
fill="none" stroke="black" stroke-width="2"/>
<path d="M474.43 350.67L495.31 350.67"
fill="none" stroke="black" stroke-width="2"/>
<path d="M495.31 350.67L504.47 346.66"
fill="none" stroke="black" stroke-width="2"/>
<path d="M616.85 344.04L671.02 320.36"
fill="none" stroke="black" stroke-width="2"/>
<path d="M616.85 344.04L616.85 337.41"
fill="none" stroke="black" stroke-width="2"/>
<path d="M616.85 337.41L595.98 337.41"
fill="none" stroke="black" stroke-width="2"/>
<path d="M595.98 344.04L595.98 337.41"
fill="none" stroke="black" stroke-width="2"/>
<path d="M595.98 344.04L616.85 344.04"
fill="none" stroke="black" stroke-width="2"/>
<path d="M616.85 337.41L671.02 313.72"
fill="none" stroke="black" stroke-width="2"/>
<path d="M595.98 337.41L650.15 313.72"
fill="none" stroke="black" stroke-width="2"/>
<path d="M650.15 313.72L671.02 313.72"
fill="none" stroke="black" stroke-width="2"/>
<path d="M671.02 313.72L671.02 320.36"
fill="none" stroke="black" stroke-width="2"/>
<path d="M650.23 313.72L650.23 313.69"
fill="none" stroke="black" stroke-width="2"/>
<path d="M626.02 340.03L626.02 346.66"
fill="none" stroke="black" stroke-width="2"/>
<path d="M616.85 344.04L616.85 350.67"
fill="none" stroke="black" stroke-width="2"/>
<path d="M595.98 344.04L595.98 350.67"
fill="none" stroke="black" stroke-width="2"/>
<path d="M523.02 331.92L595.98 350.67"
fill="none" stroke="black" stroke-width="2"/>
<path d="M595.98 344.04L532.58 327.74"
fill="none" stroke="black" stroke-width="2"/>
<path d="M549.47 320.36L603.32 334.2"
fill="none" stroke="black" stroke-width="2"/>
<path d="M595.98 350.67L616.85 350.67"
fill="none" stroke="black" stroke-width="2"/>
<path d="M616.85 350.67L626.02 346.66"
fill="none" stroke="black" stroke-width="2"/>
<path d="M122.6 335.95L122.76 336.13M122.76 336.13L123.21 336.24M123.21 336.24L123.79 336.25M123.79 336.25L124.33 336.16M124.33 336.16L124.64 335.99M124.64 335.99L124.64 335.8M124.64 335.8L124.31 335.65M124.31 335.65L123.78 335.59M123.78 335.59L123.2 335.63M123.2 335.63L122.76 335.76M122.76 335.76L122.6 335.95"
fill="none" stroke="black" stroke-width="2"/>
<path d="M169.71 315.27L169.88 315.44M169.88 315.44L170.33 315.56M170.33 315.56L170.91 315.57M170.91 315.57L171.44 315.48M171.44 315.48L171.76 315.31M171.76 315.31L171.75 315.12M171.75 315.12L171.43 314.97M171.43 314.97L170.89 314.9M170.89 314.9L170.31 314.94M170.31 314.94L169.87 315.08M169.87 315.08L169.71 315.27"
fill="none" stroke="black" stroke-width="2"/>
<path d="M244.14 335.95L244.31 336.13M244.31 336.13L244.76 336.24M244.76 336.24L245.34 336.25M245.34 336.25L245.87 336.16M245.87 336.16L246.19 335.99M246.19 335.99L246.18 335.8M246.18 335.8L245.86 335.65M245.86 335.65L245.33 335.59M245.33 335.59L244.75 335.63M244.75 335.63L244.3 335.76M244.3 335.76L244.14 335.95"
fill="none" stroke="black" stroke-width="2"/>
<path d="M291.26 315.27L291.43 315.44M291.43 315.44L291.88 315.56M291.88 315.56L292.46 315.57M292.46 315.57L292.99 315.48M292.99 315.48L293.3 315.31M293.3 315.31L293.3 315.12M293.3 315.12L292.98 314.97M292.98 314.97L292.44 314.9M292.44 314.9L291.86 314.94M291.86 314.94L291.42 315.08M291.42 315.08L291.26 315.27"
fill="none" stroke="black" stroke-width="2"/>
<path d="M365.69 335.95L365.86 336.13M365.86 336.13L366.31 336.24M366.31 336.24L366.89 336.25M366.89 336.25L367.42 336.16M367.42 336.16L367.74 335.99M367.74 335.99L367.73 335.8M367.73 335.8L367.41 335.65M367.41 335.65L366.88 335.59M366.88 335.59L366.29 335.63M366.29 335.63L365.85 335.76M365.85 335.76L365.69 335.95"
fill="none" stroke="black" stroke-width="2"/>
<path d="M412.81 315.27L412.98 315.44M412.98 315.44L413.42 315.56M413.42 315.56L414.01 315.57M414.01 315.57L414.54 315.48M414.54 315.48L414.85 315.31M414.85 315.31L414.85 315.12M414.85 315.12L414.53 314.97M414.53 314.97L413.99 314.9M413.99 314.9L413.41 314.94M413.41 314.94L412.97 315.08M412.97 315.08L412.81 315.27"
fill="none" stroke="black" stroke-width="2"/>
<path d="M487.24 335.95L487.41 336.13M487.41 336.13L487.86 336.24M487.86 336.24L488.44 336.25M488.44 336.25L488.97 336.16M488.97 336.16L489.29 335.99M489.29 335.99L489.28 335.8M489.28 335.8L488.96 335.65M488.96 335.65L488.42 335.59M488.42 335.59L487.84 335.63M487.84 335.63L487.4 335.76M487.4 335.76L487.24 335.95"
fill="none" stroke="black" stroke-width="2"/>
<path d="M534.36 315.27L534.53 315.44M534.53 315.44L534.97 315.56M534.97 315.56L535.56 315.57M535.56 315.57L536.09 315.48M536.09 315.48L536.4 315.31M536.4 315.31L536.4 315.12M536.4 315.12L536.08 314.97M536.08 314.97L535.54 314.9M535.54 314.9L534.96 314.94M534.96 314.94L534.52 315.08M534.52 315.08L534.36 315.27"
fill="none" stroke="black" stroke-width="2"/>
<path d="M608.79 335.95L608.96 336.13M608.96 336.13L609.41 336.24M609.41 336.24L609.99 336.25M609.99 336.25L610.52 336.16M610.52 336.16L610.83 335.99M610.83 335.99L610.83 335.8M610.83 335.8L610.51 335.65M610.51 335.65L609.97 335.59M609.97 335.59L609.39 335.63M609.39 335.63L608.95 335.76M608.95 335.76L608.79 335.95"
fill="none" stroke="black" stroke-width="2"/>
<path d="M655.91 315.27L656.07 315.44M656.07 315.44L656.52 315.56M656.52 315.56L657.1 315.57M657.1 315.57L657.64 315.48M657.64 315.48L657.95 315.31M657.95 315.31L657.95 315.12M657.95 315.12L657.62 314.97M657.62 314.97L657.09 314.9M657.09 314.9L656.51 314.94M656.51 314.94L656.07 315.08M656.07 315.08L655.91 315.27"
fill="none" stroke="black" stroke-width="2"/>
<path d="M123.64 335.92L123.64 162.88"
fill="none" stroke="black" stroke-width="2"/>
<path d="M170.75 315.24L170.75 160.44"
fill="none" stroke="black" stroke-width="2"/>
<path d="M245.19 335.92L245.19 166.96"
fill="none" stroke="black" stroke-width="2"/>
<path d="M292.3 315.24L292.3 161.97"
fill="none" stroke="black" stroke-width="2"/>
<path d="M366.73 335.92L366.73 168.78"
fill="none" stroke="black" stroke-width="2"/>
<path d="M413.85 315.24L413.85 162.46"
fill="none" stroke="black" stroke-width="2"/>
<path d="M488.28 335.92L488.28 168.35"
fill="none" stroke="black" stroke-width="2"/>
<path d="M535.4 315.24L535.4 161.89"
fill="none" stroke="black" stroke-width="2"/>
<path d="M609.83 335.92L609.83 165.68"
fill="none" stroke="black" stroke-width="2"/>
<path d="M656.95 315.24L656.95 160.28"
fill="none" stroke="black" stroke-width="2"/>
</svg>
